<svg width="389" height="597" viewBox="0 0 389 597" fill="none" xmlns="http://www.w3.org/2000/svg">
<g filter="url(#filter0_dddddd)">
<path fill-rule="evenodd" clip-rule="evenodd" d="M469.984 365.646C461.054 440.658 413.194 507.287 340.303 535.356C340.013 534.546 339.569 533.66 339.279 532.85C335.213 522.556 332.083 512.057 329.511 501.357C327.283 491.971 325.432 482.58 323.204 473.194C317.454 449.401 309.759 431.789 294.398 412.484C287.717 404.04 278.319 398.919 268.257 396.518C264.536 395.631 254.652 394.079 250.994 395.129C245.631 397.049 234.278 396.677 228.815 395.5C213.566 392.345 206.363 381.738 209.611 365.82C214.518 341.866 239.63 315.897 258.449 302.627C275.87 290.38 297.788 280.832 319.637 283.059L321.073 283.197L322.088 284.27C329.496 291.931 336.946 299.708 344.173 307.565C349.954 313.85 356.083 320.403 361.541 327.196C367.514 334.718 373.08 342.517 379.053 350.04C396.816 372.532 417.127 392.284 445.762 376.151C452.974 372.001 460.616 368.349 468.685 366.242L469.984 365.646Z" fill="black"/>
<path fill-rule="evenodd" clip-rule="evenodd" d="M469.399 369.985C465.895 395.395 457.834 419.696 445.861 441.873C435.095 461.789 421.183 479.96 404.434 495.491C387.098 511.494 366.73 524.665 343.824 533.915C343.534 533.105 343.09 532.219 342.759 531.294C324.572 485.45 332.087 453.642 297.239 409.85C280.822 389.356 252.812 389.989 249.348 391.23C245.885 392.47 206.769 397.995 213.096 366.742C219.423 335.49 271.756 282.404 319.039 287.011C319.039 287.011 348.159 316.925 358.103 329.553C380.894 358.34 406.381 402.743 447.328 379.458C454.511 375.579 461.93 372.008 469.399 369.985Z" fill="#B99D85"/>
<path fill-rule="evenodd" clip-rule="evenodd" d="M348.125 382.787C348.125 382.787 351.382 397.158 351.079 404.056C350.777 410.953 349.236 416.859 349.236 416.859C349.236 416.859 353.566 410.999 353.47 402.285C353.304 393.727 348.125 382.787 348.125 382.787Z" fill="black"/>
<path fill-rule="evenodd" clip-rule="evenodd" d="M357.282 397.584C357.282 397.584 357.871 408.733 357.49 414.353C357.22 419.934 356.944 423.035 356.944 423.035C356.944 423.035 358.813 419.102 359.508 411.541C360.05 403.905 357.282 397.584 357.282 397.584Z" fill="black"/>
<path fill-rule="evenodd" clip-rule="evenodd" d="M192.565 184.855C187.248 193.941 179.423 202.358 168.621 203.877C164.798 204.464 159.624 204.097 156.06 202.24C152.036 200.156 148.123 198.032 144.17 195.793C134.73 190.557 125.32 185.049 116.05 179.23C105.514 172.689 95.7085 164.32 86.9376 155.319C80.7799 149.038 74.6383 142.098 69.4319 134.954C67.0297 131.767 64.8509 128.499 62.5604 125.272C58.9237 120.047 55.3987 114.781 51.9854 109.475L48.4189 104.094L54.6683 103.944C59.5229 103.772 65.6696 105.096 70.1693 106.748C76.8008 109.073 83.2791 111.322 89.8818 113.919C102.71 119.116 115.37 124.896 127.777 131.028C133.138 133.677 138.205 136.562 143.174 139.875C155.185 147.715 166.633 156.802 177.424 166.515C182.277 170.913 187.366 175.619 191.855 180.409L193.731 182.479L192.565 184.855Z" fill="black"/>
<path fill-rule="evenodd" clip-rule="evenodd" d="M189.534 183.047C189.534 183.047 158.247 150.253 126.387 134.507C94.5269 118.762 76.8182 112.963 69.1974 110.339C61.5352 107.6 54.9092 107.754 54.9092 107.754C54.9092 107.754 65.7329 124.245 72.2728 133.001C78.7011 141.797 96.3438 162.896 117.918 176.32C139.492 189.744 157.621 199.179 157.621 199.179C157.621 199.179 174.789 208.045 189.534 183.047Z" fill="#B99D85"/>
<path fill-rule="evenodd" clip-rule="evenodd" d="M57.0337 111C60.5172 116.15 67.5672 126.681 72.26 133.096C78.6882 141.891 96.3309 162.991 117.905 176.415C139.479 189.838 157.608 199.274 157.608 199.274C157.608 199.274 161.131 201.015 166.321 200.723C156.355 194.369 142.66 185.696 136.396 181.934C125.942 175.625 113.443 167.829 104.778 156.309C96.1137 144.789 94.2266 137.761 94.2266 137.761C94.2266 137.761 126.77 161.749 130.857 165.769C134.166 169.023 163.563 191.265 173.72 198.856C174.46 198.46 175.313 198.024 176.165 197.588L171.681 179.087C171.681 179.087 154.718 167.275 143.522 157.838C132.437 148.36 114.216 137.26 94.2767 131.215C79.2424 126.547 64.4836 118.777 57.0337 111Z" fill="#9E775C"/>
<path fill-rule="evenodd" clip-rule="evenodd" d="M170.796 194.434C170.796 194.434 159.659 179.883 144.752 166.421C129.845 152.959 122.372 147.933 114.101 143.845C105.829 139.757 87.5459 134.816 87.5459 134.816C87.5459 134.816 90.0219 136.802 91.9844 138.058C93.8351 139.353 94.9361 139.612 94.9361 139.612C94.9361 139.612 106.048 153.388 109.95 158.65C113.74 163.951 123.139 172.596 130.185 176.078C137.231 179.561 153.697 189.983 157.092 192.423C160.516 194.591 165.518 200.111 170.796 194.434Z" fill="black"/>
<path fill-rule="evenodd" clip-rule="evenodd" d="M165.639 193.298C164.069 191.379 162.388 189.501 160.86 187.698C155.107 181.141 149.061 174.82 142.54 168.93C133.223 160.517 123.919 152.49 112.696 146.848C109.479 145.259 105.745 143.985 102.276 142.747C102.276 142.747 102.123 142.671 102.011 142.711C103.345 144.322 104.567 145.974 105.9 147.585C108.178 150.425 110.497 153.381 112.705 156.376C116.69 161.869 125.687 169.744 131.661 172.697C135.95 174.816 140.334 177.554 144.483 179.985C147.517 181.771 150.44 183.596 153.405 185.538C155.367 186.793 157.288 187.933 159.139 189.229C160.489 190.181 161.768 191.29 163.118 192.243C164.078 192.812 164.886 193.307 165.639 193.298Z" fill="#F6C4B1"/>
<path fill-rule="evenodd" clip-rule="evenodd" d="M182.971 296.69C181.724 294.265 180.394 291.607 179.259 289.142C176.628 283.556 173.996 277.97 171.742 272.38C169.529 266.905 167.261 260.928 165.789 255.058C164.511 249.379 163.191 243.584 162.025 237.865C160.216 228.59 158.346 216.333 160.344 207.131C160.501 206.161 160.811 205.266 161.232 204.332C164.382 196.936 172.831 193.779 180.402 194.854C191.151 196.357 198.444 205.104 202.232 214.975C206.257 225.154 210.699 235.445 212.183 246.273C215.121 268.2 203.517 284.369 188.17 297.831L184.91 300.696L182.971 296.69Z" fill="black"/>
<path fill-rule="evenodd" clip-rule="evenodd" d="M185.913 294.907C185.913 294.907 172.597 268.993 169.133 254.044C165.71 239.21 161.229 219.663 163.739 207.666C166.248 195.668 189.348 191.18 199.125 216.011C208.791 240.882 220.748 264.41 185.913 294.907Z" fill="#B99D85"/>
<path fill-rule="evenodd" clip-rule="evenodd" d="M178.258 278.801C174.603 270.71 170.827 261.225 169.205 254.233C167.143 245.31 164.683 234.57 163.614 224.9C164.916 223.258 166.19 221.887 166.96 221.22C169.674 218.942 172.722 216.545 173.504 216.264C174.216 216.14 176.339 215.38 176.674 215.26C177.009 215.14 184.916 211.524 192.988 221.036C192.988 221.036 190.049 219.869 185.075 222.173C180.102 224.477 175.961 228.05 174.75 231.356C173.54 234.662 174.461 238.641 174.461 238.641C174.461 238.641 177.084 230.128 183.031 228.781C188.977 227.435 191.561 230.426 191.561 230.426C191.561 230.426 186.726 228.894 182.755 231.883C178.895 234.833 177.764 239.416 177.211 242.095C176.658 244.774 189.978 269.641 189.978 269.641C189.978 269.641 186.257 276.85 178.258 278.801Z" fill="#9E775C"/>
<path fill-rule="evenodd" clip-rule="evenodd" d="M151.503 439.149C151.503 439.149 136.623 421.891 130.39 400.622C124.269 379.312 93.7357 367.27 98.9933 355.202C104.209 343.019 133.994 333.263 144.754 331.629C155.472 329.878 225.154 335.079 241.32 298.213C257.485 261.347 258.602 252.851 258.602 252.851C258.602 252.851 282.302 240.184 287.28 298.07C292.258 355.956 252.481 392.01 236.282 405.908C219.929 419.73 168.393 447.592 151.503 439.149Z" fill="#E30613"/>
<path fill-rule="evenodd" clip-rule="evenodd" d="M146.137 393.919C146.53 393.256 146.964 392.709 147.775 392.157C149.173 391.134 150.766 390.303 152.247 389.511C154.539 388.168 156.873 386.94 159.248 385.828C161.958 384.596 165.003 383.244 167.921 382.591C171.397 381.737 174.77 382.357 177.817 384.53C178.318 384.872 178.861 385.331 179.403 385.789C179.803 383.035 180.94 380.93 183.877 378.572C184.647 377.905 185.834 377.349 186.798 376.873C188.279 376.081 189.69 375.445 191.213 374.769C195.111 372.982 199.091 371.425 203.03 369.753C209.539 367.16 215.936 364.608 222.486 362.131C224.944 361.25 227.36 360.254 229.624 359.182C234.597 356.878 239.558 354.187 244.088 350.998C247.807 348.36 251.696 345.139 254.247 341.353C257.514 336.396 261.352 331.626 265.745 327.703C267.172 326.408 269.158 324.913 270.862 324.041L273.237 322.93L274.261 325.435C274.759 326.824 275.297 328.328 275.613 329.913C276.521 333.504 277.248 337.292 277.556 340.968C278.564 352.227 276.588 363.25 270.53 372.732C266.841 378.623 262.011 384.14 257.196 388.998C250.702 395.503 243.554 401.589 236.086 407.136C232.702 409.654 229.207 412.212 225.781 414.614L224.565 415.441L223.256 414.604C220.834 413.122 217.857 410.793 215.94 408.608C215.662 408.185 215.273 407.802 214.996 407.379C214.979 408.038 214.852 408.736 214.765 409.551C214.535 411.722 214.077 415.02 213.122 416.929L212.771 417.708L198.505 425.038L197.35 424.276C194.733 422.602 191.785 420.002 189.714 417.741C189.478 417.434 189.089 417.051 188.853 416.744C188.606 419.574 188.053 422.253 186.957 424.473C186.213 425.915 183.965 430.899 182.678 431.882L181.979 432.394L181.114 432.442C179.231 432.464 177.459 432.446 175.688 432.427C174.405 432.365 173.163 432.418 171.992 432.315C170.821 432.212 169.314 432.23 168.453 431.233C167.674 430.467 166.784 429.741 166.006 428.976C164.838 427.827 163.67 426.679 162.573 425.374C162.677 427.426 162.517 429.442 162.274 431.226C160.905 440.073 153.892 443.369 146.489 438.186C145.097 437.118 143.665 435.934 142.385 434.825C139.479 432.341 136.712 429.546 134.281 426.63C132.948 425.019 131.838 423.327 130.839 421.596C128.441 417.363 123.879 409.204 126.811 404.367C127.133 403.86 127.344 403.393 127.667 402.886C129.196 400.118 131.741 398.423 134.327 396.844C136.395 395.581 138.869 394.042 141.257 393.317C142.626 392.565 144.691 392.348 146.137 393.919Z" fill="black"/>
<path fill-rule="evenodd" clip-rule="evenodd" d="M147.531 436.014C147.531 436.014 137.304 428.579 132.548 420.229C127.834 411.995 127.206 407.78 128.455 405.635C129.816 403.451 129.554 402.369 135.131 398.935C140.667 395.385 143.543 394.616 144.487 395.845C145.431 397.073 148.286 402.579 149.757 404.925C151.227 407.271 155.285 411.562 155.285 411.562C155.285 411.562 152.191 406.795 150.322 402.633C148.453 398.472 146.9 395.895 149.221 394.28C151.43 392.705 161.856 386.62 168.473 385.033C175.09 383.446 179.062 388.552 179.974 391.098C180.886 393.644 184.234 401.584 184.234 401.584C184.234 401.584 182.015 393.631 181.749 390.07C181.482 386.51 181.352 383.684 185.323 380.695C189.253 377.589 223.192 364.649 223.192 364.649C223.192 364.649 247.435 355.965 256.127 342.928C264.82 329.891 271.791 326.48 271.791 326.48C271.791 326.48 281.361 350.732 268.361 371.449C255.319 392.05 224.228 412.588 224.228 412.588C224.228 412.588 219.885 409.965 217.608 407.125C215.33 404.285 212.596 400.173 212.596 400.173C212.596 400.173 212.553 404.627 212.104 409.358C211.614 413.973 210.701 415.997 210.701 415.997L198.322 422.26C198.322 422.26 194.55 419.824 191.075 416.107C187.601 412.39 185.658 409.43 185.658 409.43C185.658 409.43 187.235 417.352 184.342 423.35C181.448 429.348 180.679 430.016 180.679 430.016C180.679 430.016 170.245 430.097 169.856 429.715C169.425 429.216 166.253 426.696 162.53 422.285C158.807 417.874 158.264 417.415 158.264 417.415C158.264 417.415 160.474 423.935 159.46 430.958C158.586 437.668 153.431 440.168 147.531 436.014Z" fill="white"/>
<path fill-rule="evenodd" clip-rule="evenodd" d="M108.576 361.427C108.458 358.988 109.752 355.914 110.93 353.925C114.801 347.838 121.955 344.231 128.559 342.257L130.276 341.772L131.345 343.348C132.372 344.808 133.3 346.695 134.034 348.391C135.82 352.321 137.088 356.567 137.646 360.937C138.244 365.423 138.996 369.985 139.706 374.431C140.69 380.346 141.674 386.26 142.812 392.251L142.99 393.101L142.639 393.88C141.151 396.763 138.309 399.739 135.653 401.474C130.382 405.06 121.496 405.239 116.168 401.273C110.297 396.847 108.8 385.632 108.238 378.783C108.146 377.119 108.012 375.339 108.032 373.634C107.976 369.607 108.255 365.459 108.576 361.427Z" fill="black"/>
<path fill-rule="evenodd" clip-rule="evenodd" d="M129.221 344.735C129.221 344.735 133.856 351.692 135.107 361.167C136.358 370.642 140.315 392.597 140.315 392.597C140.315 392.597 138.223 396.61 134.169 399.368C130.114 402.126 122.301 402.836 117.473 399.212C112.687 395.704 111.158 385.806 110.471 378.61C109.937 371.489 110.933 361.601 110.933 361.601C110.933 361.601 110.12 350.533 129.221 344.735Z" fill="white"/>
<path fill-rule="evenodd" clip-rule="evenodd" d="M145.679 339.672C149.146 337.386 153.264 336.564 157.461 337.019C160.068 337.26 163.719 338.303 165.889 340.137C168.642 342.545 171.531 350.258 172.816 353.846C175.345 360.904 181.152 376.059 179.72 382.97C179.266 385.222 178.617 387.282 177.439 389.271C174.296 394.575 168.068 396.545 162.457 397.771C157.628 398.718 146.086 400.633 142.379 395.563C141.546 394.294 140.759 392.095 140.373 390.667C139.656 388.312 138.897 385.842 138.292 383.448C137.549 380.319 136.682 376.843 136.316 373.71C135.991 370.693 135.625 367.559 135.413 364.502C135.146 360.942 135.036 356.411 135.787 352.878C136.736 348.49 142.014 342.813 145.274 339.948L145.344 339.792L145.679 339.672Z" fill="black"/>
<path fill-rule="evenodd" clip-rule="evenodd" d="M147.011 341.795C147.011 341.795 139.288 348.74 138.351 353.515C137.261 358.214 138.289 367.769 138.925 373.416C139.562 379.064 143.074 392.038 144.532 393.996C146.032 396.07 151.272 397.327 162.089 395.149C172.907 392.972 176.128 388.945 177.42 382.346C178.712 375.746 171.259 356.35 170.638 354.614C169.974 352.763 166.712 344.008 164.348 341.982C161.83 339.881 153.651 337.458 147.011 341.795Z" fill="#FDE100"/>
<path fill-rule="evenodd" clip-rule="evenodd" d="M147.076 341.774C147.076 341.774 141.256 346.992 139.106 351.549C144.581 349.588 153.585 347.276 158.566 350.976C165.245 355.895 171.818 379.524 168.2 393.354C174.15 390.962 176.408 387.411 177.485 382.325C178.777 375.725 171.325 356.329 170.703 354.593C170.04 352.741 166.777 343.987 164.413 341.961C161.896 339.86 153.716 337.437 147.076 341.774Z" fill="#FAC200"/>
<path fill-rule="evenodd" clip-rule="evenodd" d="M178.464 384.71C177.237 380.58 175.968 376.334 174.852 372.164C174.246 369.769 173.571 367.531 172.965 365.136C172.496 363.476 172.098 361.66 171.853 359.92C171.2 354.931 170.847 352.185 172.384 347.326C173.301 344.256 175.488 340.861 178.061 338.894C181.979 335.402 186.799 333.023 192.056 333.62C195.458 333.969 198.939 335.594 201.288 338.278C202.149 339.275 203.023 340.659 203.938 342.159C204.686 339.672 206.104 336.944 207.436 335.031C209.384 332.375 212.014 329.866 215.35 329.324C220.374 328.569 225.519 329.206 229.552 332.723C230.831 333.832 232.123 335.328 233.262 336.747C233.806 332.636 234.424 327.322 236.206 324.203C238.774 319.758 245.196 317.98 249.651 320.562C250.263 320.865 250.917 321.283 251.501 321.858C251.298 320.233 251.052 318.493 250.96 316.829C250.827 315.049 250.694 313.268 250.56 311.488C250.493 310.598 250.385 309.592 250.389 308.547C250.45 306.958 252.158 305.04 253.18 304.021C255.083 302.295 257.416 301.068 260.011 300.922C262.188 300.664 264.419 300.909 266.451 302.009C267.83 302.691 268.803 303.648 270.041 304.64C272.782 306.662 276.444 312.662 277.981 315.898C278.591 317.246 279.311 318.555 279.962 320.019C281.015 322.253 281.885 324.683 282.532 327.194C284.183 333.914 283.686 340.62 280.304 346.663C278.381 350.094 275.016 355.477 270.786 356.34C269.363 356.588 268.15 356.37 267.231 355.916C266.669 357.162 265.283 358.572 264.597 359.471C261.867 362.407 252.475 367.861 248.676 369.221C246.219 370.102 243.553 370.404 241.45 369.459C241.377 370.661 240.926 371.867 240.24 372.766C238.838 374.835 236.657 376.138 234.464 377.054C231.936 378.09 229.102 378.975 226.449 379.664C224.132 380.233 221.815 380.802 219.414 381.14C217.614 381.393 214.949 381.695 213.462 380.007C213.226 379.7 212.99 379.393 212.713 378.97C212.304 380.292 211.741 381.538 211.125 382.281C209.669 383.847 206.876 384.847 204.865 385.568C200.802 386.893 196.502 387.911 192.426 388.849C189.174 389.622 184.261 390.337 181.227 388.552C179.724 387.523 178.626 386.219 178.464 384.71Z" fill="black"/>
<path fill-rule="evenodd" clip-rule="evenodd" d="M179.433 340.892C179.433 340.892 175.909 343.721 174.624 348.229C173.228 352.777 173.486 354.904 174.209 359.737C174.82 364.611 180.778 384.412 180.778 384.412C180.778 384.412 180.805 388.711 191.652 386.262C202.498 383.813 207.567 382.127 209.205 380.366C210.843 378.604 211.567 370.771 211.567 370.771C211.567 370.771 213.987 376.825 215.167 378.36C216.459 379.856 228.452 376.735 233.285 374.743C238.117 372.751 239.076 369.796 238.732 368.483C238.387 367.17 237.119 362.924 235.891 358.794C234.511 354.588 234.386 354.241 234.386 354.241C234.386 354.241 238.881 361.509 240 364.634C241.119 367.758 244.033 368.151 247.608 366.87C251.183 365.589 260.31 360.1 262.494 357.751C264.678 355.402 264.806 354.704 264.806 354.704C264.806 354.704 265.177 352.22 263.614 348.21C261.982 344.356 261.484 342.967 261.484 342.967C261.484 342.967 263.944 345.611 265.303 347.997C266.55 350.423 267.392 353.124 267.392 353.124C267.392 353.124 270.974 357.847 277.879 345.451C284.784 333.054 277.058 320.284 275.52 317.048C273.983 313.812 270.375 308.315 268.33 306.828C266.243 305.226 264.52 303.231 259.902 303.711C255.395 304.15 252.48 308.328 252.463 308.987C252.447 309.645 253.012 320.019 253.85 323.766C254.8 327.474 255.894 329.824 255.894 329.824C255.894 329.824 251.488 325.266 247.952 323.137C244.458 321.125 239.612 322.73 237.83 325.849C236.048 328.968 235.423 336.373 235.023 339.128C234.623 341.882 234.993 343.97 234.993 343.97C234.993 343.97 230.176 337.208 227.575 334.876C224.975 332.543 221.088 331.193 215.352 332.073C209.728 332.912 206.017 341.554 205.447 344.891C204.878 348.229 205.186 351.905 205.186 351.905C205.186 351.905 201.896 343.422 199.117 340.239C196.478 336.745 188.472 332.693 179.433 340.892Z" fill="white"/>
<path fill-rule="evenodd" clip-rule="evenodd" d="M184.29 234.458C192.545 231.109 202.137 236.421 205.702 246.373C209.337 256.169 205.618 266.902 197.322 270.135C189.067 273.484 179.475 268.172 175.91 258.22C175.371 256.716 174.944 255.171 174.782 253.663C174.782 253.663 172.248 244.125 173.287 237.877C174.438 231.589 179.201 229.753 180.347 229.081C181.493 228.409 184.369 227.64 186.794 228.077C189.178 228.398 189.705 229.515 189.705 229.515C189.705 229.515 185.735 227.934 181.221 230.465C176.707 232.996 175.343 236.227 175.208 239.017C175.118 240.877 175.293 242.773 175.554 243.854C177.187 239.614 180.239 236.17 184.29 234.458Z" fill="black"/>
<path fill-rule="evenodd" clip-rule="evenodd" d="M185.094 236.391C192.161 233.598 200.57 238.42 203.832 247.175C207.094 255.93 203.937 265.417 196.87 268.209C189.803 271.002 181.394 266.18 178.132 257.425C174.87 248.671 177.915 239.224 185.094 236.391Z" fill="white"/>
<path fill-rule="evenodd" clip-rule="evenodd" d="M188.931 242.713C193.023 241.116 197.743 243.734 199.637 248.67C201.489 253.491 199.63 258.857 195.538 260.454C191.446 262.05 186.726 259.432 184.832 254.496C183.091 249.636 184.95 244.269 188.931 242.713Z" fill="black"/>
<path fill-rule="evenodd" clip-rule="evenodd" d="M191.373 247.416C192.491 247.016 193.952 247.929 194.686 249.625C195.266 251.245 194.869 252.954 193.752 253.354C192.635 253.754 191.174 252.841 190.44 251.145C189.818 249.41 190.256 247.817 191.373 247.416Z" fill="white"/>
<path fill-rule="evenodd" clip-rule="evenodd" d="M298.759 227.888L292.462 230.013C294.511 230.455 296.489 231.052 298.48 232.036C303.034 234.191 307.096 237.436 310.599 240.882C317.411 247.582 322.776 257.28 325.786 266.386C330.604 281.243 330.008 296.472 325.397 311.049C320.394 326.29 311.226 339.758 300.016 350.694C296.294 354.378 292.376 357.87 288.181 360.94C286.489 362.199 284.797 363.458 283.023 364.485L279.92 366.38C277.584 372.178 274.93 377.437 272.184 381.033C270.952 382.519 269.914 384.196 268.835 385.758C267.181 388.178 265.597 390.443 263.943 392.863C259.332 399.346 254.485 405.522 249.095 411.239C234.031 427.603 216.163 440.009 195.313 447.609C180.272 453.127 159.929 458.978 143.646 456.454C134.933 455.006 126.55 450.958 122.506 442.483C119.68 436.706 120.19 430.387 122.372 424.513C123.173 422.528 123.975 420.544 125.083 418.711C125.435 417.932 126.262 416.722 126.766 416.019L129.008 413.127C133.001 420.052 136.874 425.585 142.41 430.131L143.859 430.656C144.124 430.692 144.236 430.652 144.347 430.612C147.431 430.421 150.584 430.075 153.626 429.769C154.603 429.68 155.538 429.476 156.514 429.387C158.538 429.054 160.632 428.565 162.726 428.076C169.272 426.645 175.765 424.711 182.175 422.545C200.245 416.334 218.073 407.336 232.97 395.08C254.58 377.285 271.264 356.293 273.958 326.864C274.32 322.948 274.376 318.88 274.361 314.969C274.081 302.926 272.059 290.594 268.737 278.857C268.654 278.626 268.571 278.395 268.488 278.163C268.53 278.279 268.53 278.279 268.46 278.435C269.48 290.081 267.446 301.647 261.207 311.325C249.273 330.092 230.066 338.409 209.063 341.362C204.04 342.117 198.85 342.41 193.701 342.817C187.2 343.318 180.769 343.664 174.225 344.049C168.436 344.426 162.687 344.918 156.827 345.45C152.209 345.93 147.367 346.489 142.802 347.471C135.544 349.027 128.129 351.552 121.575 355.075C118.724 356.618 115.51 358.553 112.726 360.987L111.292 364.373C110.866 366.353 110.384 368.877 110.376 370.968C110.378 374.493 110.534 378.093 110.801 381.653L111.064 386.26L107.442 384.946C104.097 384.055 100.115 382.086 97.262 380.105C90.6664 375.417 87.0909 368.603 87.5788 360.463C88.2396 350.695 94.4021 343.265 102.204 337.598L102.195 336.165C102.161 333.957 102.532 331.474 102.957 329.494C103.155 328.639 103.354 327.785 103.664 326.891C103.163 326.548 102.732 326.049 102.413 325.511C102.371 325.395 102.289 325.163 102.247 325.048C102.081 324.585 101.762 324.046 101.555 323.468C100.933 321.732 100.465 320.072 100.066 318.256C99.0659 313 99.9486 307.722 103.477 303.847C106.347 300.599 110.191 298.308 114.544 297.793C116.233 297.58 118.492 297.554 120.206 298.115L121.349 298.49C126.863 293.12 133.225 288.36 140.168 285.22C146.594 282.396 153.368 279.839 160.138 278.328C162.343 277.799 165.19 277.301 167.562 277.235L174.788 276.997C175.276 276.952 175.723 276.792 176.211 276.748L178.867 275.013C184.544 271.152 192.672 263.931 195.512 257.43C198.843 249.839 197.612 238.66 194.946 230.866C193.703 227.395 192.124 224.043 190.181 221.083C187.572 217.318 184.094 214.646 179.661 213.884C177.918 213.594 175.505 213.545 173.788 214.029L168.636 215.483C162.931 219.616 156.588 222.671 149.499 223.644C139.787 225.034 130.436 222.508 124.397 214.095C119.385 207.142 118.248 201.152 119.99 193.347C122.778 197.962 125.196 200.491 127.771 202.049C130.347 203.608 134.224 203.524 137.072 203.027C138.383 202.818 139.542 202.533 140.73 201.977C145.451 200.025 149.426 195.99 152.842 192.155C157.086 187.109 160.716 181.761 164.807 176.64C166.908 174.059 169.232 171.399 171.681 169.085C171.122 169.285 170.605 169.601 170.088 169.917C167.126 171.5 164.023 173.395 161.338 175.402L148.894 184.299L156.249 170.696C157.596 168.124 159.768 165.388 161.616 163.159C166.083 158.034 171.44 153.634 177.601 150.774C180.717 149.266 184.18 148.026 187.545 147.212C187.545 147.212 187.545 147.212 187.433 147.252L178.089 142.635L188.083 140.622C190.065 140.173 192.743 140.258 194.779 140.312C200.218 140.714 205.764 142.122 210.736 144.389C213.299 145.56 215.679 146.927 218.031 148.565C222.457 151.419 226.56 154.78 230.482 158.337C230.523 158.453 230.635 158.413 230.676 158.528C230.82 157.171 230.923 155.698 231.067 154.341C231.573 149.067 232.079 143.794 232.738 138.596C233.299 133.826 234.012 129.131 234.99 124.472C235.77 120.667 236.803 116.511 238.46 113.044C240.651 108.604 244.154 103.954 247.194 100.123C251.354 94.8464 255.78 89.6053 260.4 84.5555C266.798 77.4325 273.574 70.3051 280.515 63.6405C285.412 59.0137 290.715 54.111 296.168 50.3298C299.076 48.2435 303.689 45.2854 307.394 46.8307C311.712 48.6788 311.521 55.5366 311.271 59.4128C310.774 66.1192 309.313 73.3015 307.491 79.8296C305.302 87.795 302.513 95.8447 299.488 103.587C295.409 113.666 290.759 123.558 285.148 132.879C281.36 139.198 277.001 145.329 272.17 150.846C267.592 156.011 262.844 161.76 258.779 167.655L259.065 169.511C259.419 172.257 259.925 175.079 260.544 177.86C261.681 183.851 262.971 189.917 264.597 195.863C266.14 201.577 268.831 210.145 272.302 214.908C279.55 224.585 288.412 227.155 298.759 227.888Z" fill="black"/>
<path fill-rule="evenodd" clip-rule="evenodd" d="M233.633 166.157C233.633 166.157 221.458 153.283 209.717 147.957C197.935 142.515 189.142 144.36 189.142 144.36C189.142 144.36 194.656 147.085 196.631 148.728C198.606 150.37 198.743 151.105 198.743 151.105C198.743 151.105 192.351 148.041 179.219 154.312C165.974 160.623 159.475 172.744 159.475 172.744C159.475 172.744 167.207 167.232 173.199 164.956C179.19 162.679 183.894 165.956 183.894 165.956C183.894 165.956 177.152 167.195 167.711 179.195C158.269 191.195 150.537 204.801 137.907 206.845C125.388 208.848 122.972 201.749 122.972 201.749C122.972 201.749 126.175 223.712 149.242 220.542C172.421 217.331 186.279 190.562 190.22 184.319C194.313 178.152 201.127 172.186 208.695 169.737C216.263 167.287 219.91 169.375 219.91 169.375C219.91 169.375 211.724 169.043 202.635 175.694C193.546 182.344 192.472 186.385 189.458 190.99C186.443 195.595 183.288 200.512 179.243 204.703C175.198 208.894 173.043 210.971 173.043 210.971C173.043 210.971 185.022 207.464 193.252 219.531C201.483 231.598 203.417 249.315 198.961 259.398C194.617 269.441 181.085 278.467 181.085 278.467C181.085 278.467 188.552 281.015 191.196 286.988C193.799 292.845 191.48 297.984 191.48 297.984C191.48 297.984 190.338 284.945 183.806 282.192C177.385 279.4 173.405 280.957 167.812 285.049C162.218 289.142 156.209 296.648 156.209 296.648C156.209 296.648 156.232 293.898 158.854 289.955C161.517 286.129 168.062 281.173 168.062 281.173C168.062 281.173 158.576 281.438 141.827 288.874C125.078 296.31 113.119 314.303 113.119 314.303C113.119 314.303 114.151 310.147 116.297 306.636C118.443 303.126 119.688 302.027 119.688 302.027C119.688 302.027 112.721 299.822 106.393 306.789C100.177 313.716 105.845 324.612 105.845 324.612L109.411 321.899C109.411 321.899 107.382 327.848 106.688 330.839C105.995 333.829 106.013 336.695 106.013 336.695C106.013 336.695 117.783 329.084 131.952 325.706C146.121 322.328 155.405 323.964 155.405 323.964C155.405 323.964 137.949 325.908 125.031 330.666C112.112 335.424 92.4963 345.062 91.5205 361.341C90.4329 377.66 108.662 382.097 108.662 382.097C108.662 382.097 108.339 374.51 108.35 371.372C108.361 368.235 109.31 363.847 109.31 363.847C109.31 363.847 106.832 366.432 105.108 369.008C103.384 371.584 103.128 372.982 103.128 372.982C103.128 372.982 101.517 370.947 106.885 363.41C112.252 355.873 126.171 348.276 142.67 344.716C159.28 341.116 194.488 340.517 209.042 338.567C223.556 336.502 245.529 330.981 258.823 310.028C272.159 289.192 262.34 264.245 262.34 264.245C262.34 264.245 260.077 265.317 258.758 267.617C257.327 269.958 257.614 271.813 257.614 271.813C257.614 271.813 255.199 268.239 260.448 262.834C265.697 257.428 277.358 261.477 277.358 261.477C277.358 261.477 274.345 261.511 271.527 261.738C268.596 262.004 267.198 263.027 267.198 263.027C267.198 263.027 277.703 287.075 278.22 315.615C278.849 344.115 269.357 370.756 235.564 398.529C201.771 426.302 158.269 433.659 154.474 433.974C150.679 434.289 141.189 435.599 136.437 434.298C131.839 433.073 131.374 430.367 131.374 430.367C131.374 430.367 133.253 431.392 135.497 432.024C137.74 432.657 141.142 433.005 141.142 433.005C141.142 433.005 135.221 427.031 133.125 423.995C131.029 420.959 129.724 419.077 129.724 419.077C129.724 419.077 120.924 431.108 126.008 441.429C130.98 451.791 147.586 461.902 194.538 444.822C241.49 427.742 262.307 389.08 269.9 379.309C277.605 369.499 284.329 344.632 287.11 330.579C289.78 316.566 290.115 308.351 290.115 308.351C290.115 308.351 291.02 321.083 289.238 332.298C287.569 343.472 281.69 361.899 281.69 361.899C281.69 361.899 311.867 343.385 322.538 310.185C333.322 276.944 317.56 252.299 308.802 243.685C300.044 235.071 294.203 233.899 289.352 233.025C284.501 232.151 278.274 234.121 278.274 234.121C278.274 234.121 281.351 231.452 284.074 230.607C286.797 229.762 289.417 230.391 289.417 230.391C289.417 230.391 278.945 229.311 270.115 217.328C261.285 205.345 256.145 170.235 256.145 170.235L250.024 177.781C250.024 177.781 251.46 169.825 270.138 148.771C288.775 127.602 300.436 94.7001 304.715 79.1965C308.883 63.733 309.662 51.8332 306.723 50.6663C303.784 49.4995 296.052 55.0111 283.402 66.8542C270.865 78.6571 247.582 104.102 242.105 115.203C236.279 126.038 234.989 156.923 233.633 166.157Z" fill="#B99D85"/>
<path fill-rule="evenodd" clip-rule="evenodd" d="M233.331 165.786C231.691 164.023 220.514 152.881 209.763 147.854L209.61 147.778C197.828 142.336 189.035 144.181 189.035 144.181C189.035 144.181 194.549 146.906 196.524 148.549C198.499 150.191 198.636 150.926 198.636 150.926C198.636 150.926 192.244 147.862 179.111 154.133C175.549 155.801 172.529 157.927 169.997 160.009C169.004 160.757 168.165 161.58 167.437 162.363C164.078 165.655 161.696 168.858 160.476 170.732C159.761 171.902 159.368 172.565 159.368 172.565C159.368 172.565 160.067 172.053 161.172 171.266C163.422 169.807 167.406 167.205 171.122 165.612C171.792 165.372 172.421 165.017 172.98 164.816C173.65 164.576 174.209 164.376 174.809 164.292C179.862 163.265 183.675 165.816 183.675 165.816C183.675 165.816 181.916 166.185 178.925 168.04C178.114 168.592 177.08 169.223 176.016 170.126C173.96 171.777 171.623 174.05 168.935 177.102C168.389 177.69 167.884 178.393 167.38 179.096C165.825 181.089 164.382 183.042 162.938 184.996C162.252 185.894 161.495 186.949 160.808 187.848C160.668 188.159 160.374 188.395 160.234 188.706C159.981 189.058 159.729 189.409 159.435 189.645C158.749 190.544 157.951 191.483 157.264 192.381C156.718 192.969 156.325 193.632 155.779 194.219C154.981 195.158 154.071 196.136 153.273 197.075C152.475 198.014 151.635 198.837 150.684 199.7C146.737 203.464 142.53 206.146 137.506 206.901C124.988 208.905 122.571 201.806 122.571 201.806C122.571 201.806 125.774 223.769 148.841 220.598C152.553 220.052 156.058 218.927 159.286 217.379C160.473 216.823 161.619 216.152 162.765 215.48C169.823 211.254 175.647 204.99 180.018 199.246C180.2 199.05 180.341 198.739 180.523 198.543C181.28 197.488 182.037 196.434 182.793 195.379C185.709 191.201 187.884 187.419 189.244 185.235C189.496 184.883 189.637 184.572 189.819 184.376C193.913 178.209 200.726 172.243 208.294 169.793C213.81 167.948 217.225 168.683 218.744 169.053C220.92 168.795 222.344 168.547 222.344 168.547C222.344 168.547 217.513 165.969 213.514 164.659C209.515 163.349 202.248 163.472 202.248 163.472C202.248 163.472 210.987 161.125 218.14 162.088C225.515 162.971 233.331 165.786 233.331 165.786Z" fill="#525251"/>
<path fill-rule="evenodd" clip-rule="evenodd" d="M201.342 205.833C201.342 205.833 202.287 194.396 218.519 187.276C234.64 180.196 239.285 184.015 244.751 188.716C250.147 193.573 253.189 201.362 253.481 205.697C253.814 210.147 251.854 212.416 251.854 212.416C251.854 212.416 235.264 201.646 224.512 201.189C213.689 200.888 209 201.523 201.342 205.833Z" fill="#9E775C"/>
<path fill-rule="evenodd" clip-rule="evenodd" d="M183.959 282.32C183.806 282.244 183.653 282.169 183.5 282.093C179.906 280.508 177.075 280.347 174.353 281.191C175.715 282.531 178.874 284.664 183.959 282.32Z" fill="#9E775C"/>
<path fill-rule="evenodd" clip-rule="evenodd" d="M183.581 199.276C182.208 201.074 180.723 202.911 179.085 204.673C175.04 208.864 172.885 210.942 172.885 210.942C172.885 210.942 184.864 207.434 193.095 219.501C201.325 231.568 203.26 249.285 198.804 259.368C194.46 269.411 180.927 278.437 180.927 278.437C180.927 278.437 183.518 279.337 186.106 281.282C192.817 276.789 199.813 266.057 203.049 257.847C206.566 249.015 201.878 228.889 195.742 216.333C191.822 208.206 186.736 202.455 183.581 199.276Z" fill="#9E775C"/>
<path fill-rule="evenodd" clip-rule="evenodd" d="M266.409 211.347C259.596 196.552 255.794 170.103 255.794 170.103L249.673 177.649C249.673 177.649 251.109 169.692 269.788 148.639C288.425 127.47 300.086 94.5679 304.364 79.0643C308.532 63.6008 309.311 51.701 306.372 50.5341C305.648 50.2714 304.783 50.3201 303.442 50.8003C304.053 55.6735 304.09 61.4055 301.675 65.9263C296.635 75.4351 281.779 92.3775 281.779 92.3775C281.779 92.3775 251.238 148.233 248.827 151.708C246.457 155.299 243.621 160.754 244.033 171.052C244.444 181.35 253.457 193.137 253.457 193.137L251.44 183.284C251.245 183.092 257.674 199.983 266.409 211.347ZM277.651 309.946C277.784 311.726 277.806 313.547 277.828 315.367C278.456 343.867 268.965 370.508 235.172 398.281C231.353 401.346 227.494 404.296 223.509 406.898C220.465 416.345 217.503 426.024 214.78 434.963C247.386 415.841 263.147 387.346 269.508 379.061C277.213 369.251 283.936 344.384 286.718 330.331C289.388 316.318 289.723 308.103 289.723 308.103C289.723 308.103 290.628 320.836 288.846 332.05C287.176 343.224 281.297 361.651 281.297 361.651C281.297 361.651 311.475 343.137 322.146 309.937C332.929 276.696 317.168 252.051 308.41 243.437C299.651 234.823 293.811 233.651 288.96 232.777C284.109 231.904 277.881 233.873 277.881 233.873C277.881 233.873 280.959 231.204 283.682 230.359C286.405 229.514 289.025 230.143 289.025 230.143C289.025 230.143 284.981 229.763 279.789 226.531C277.389 226.868 274.389 227.29 270.536 228.148C259.984 230.361 255.855 234.321 255.855 234.321C255.855 234.321 246.27 218.822 237.78 217.293C229.291 215.764 222.127 222.509 222.127 222.509C222.127 222.509 222.211 218.17 225.078 215.968C227.945 213.766 234.169 212.842 234.169 212.842C234.169 212.842 227.008 210.446 221.402 214.151C215.908 217.816 212.808 218.666 215.195 238.701C217.582 258.737 230.254 264.905 233.11 265.84C235.967 266.775 231.253 274.731 236.533 272.579C241.812 270.426 251.281 254.631 256.289 246.439C261.143 238.172 267.496 231.979 289.036 243.195C310.423 254.336 312.877 283.357 309.827 298.42C306.777 313.484 290.376 337.377 290.376 337.377C290.376 337.377 291.675 328.686 291.758 320.822C291.84 312.959 288.066 298.904 288.066 298.904C288.066 298.904 283.615 303.371 277.651 309.946Z" fill="#9E775C"/>
<path fill-rule="evenodd" clip-rule="evenodd" d="M185.003 280.545C187.16 281.992 189.636 283.977 190.938 286.906C193.54 292.763 191.221 297.903 191.221 297.903C191.221 297.903 190.08 284.863 183.547 282.111C177.127 279.319 173.146 280.875 167.553 284.968C161.96 289.061 155.95 296.566 155.95 296.566C155.95 296.566 155.974 293.816 158.595 289.874C161.259 286.047 167.803 281.092 167.803 281.092C167.803 281.092 158.317 281.356 141.568 288.792C124.819 296.228 112.86 314.222 112.86 314.222C112.86 314.222 113.892 310.065 116.038 306.555C118.184 303.044 119.429 301.945 119.429 301.945C119.429 301.945 112.463 299.74 106.135 306.708C99.918 313.635 105.586 324.531 105.586 324.531L109.152 321.817C109.152 321.817 107.123 327.767 106.43 330.757C105.736 333.747 105.754 336.613 105.754 336.613C105.754 336.613 117.524 329.002 131.693 325.624C145.862 322.246 155.146 323.882 155.146 323.882C155.146 323.882 137.69 325.826 124.772 330.584C111.854 335.342 92.2377 344.98 91.2618 361.259C90.1743 377.578 108.404 382.016 108.404 382.016C108.404 382.016 108.081 374.428 108.091 371.291C108.102 368.153 109.051 363.766 109.051 363.766C109.051 363.766 106.574 366.35 104.849 368.927C103.125 371.503 102.869 372.9 102.869 372.9C102.869 372.9 101.258 370.866 106.626 363.329C111.994 355.792 125.912 348.194 142.411 344.635C159.022 341.035 194.229 340.435 208.784 338.486C223.297 336.42 245.27 330.899 258.564 309.947C271.9 289.11 262.081 264.163 262.081 264.163C262.081 264.163 259.818 265.235 258.499 267.536C257.068 269.876 257.355 271.732 257.355 271.732C257.355 271.732 254.94 268.158 260.189 262.752C265.438 257.347 277.099 261.395 277.099 261.395C277.099 261.395 274.086 261.43 271.268 261.656C268.338 261.922 266.939 262.945 266.939 262.945C266.939 262.945 277.445 286.993 277.961 315.533C278.59 344.033 269.099 370.674 235.305 398.447C201.512 426.221 158.01 433.578 154.215 433.893C150.42 434.208 140.931 435.518 136.179 434.217C131.58 432.992 131.115 430.286 131.115 430.286C131.115 430.286 132.995 431.31 135.238 431.943C137.482 432.575 140.884 432.923 140.884 432.923C140.884 432.923 134.962 426.949 132.866 423.914C130.77 420.878 129.466 418.995 129.466 418.995C129.466 418.995 120.665 431.026 125.749 441.348C130.721 451.709 147.327 461.821 194.28 444.741C241.232 427.661 262.048 388.998 269.641 379.228C276.366 370.552 282.447 350.224 285.634 335.895C286.871 328.793 288.278 321.108 289.136 315.056C289.667 310.557 289.703 308.194 289.703 308.194L289.716 308.581C290.32 294.785 288.176 264.87 274.902 255.262C259.583 244.168 251.65 267.77 244.116 272.427C236.582 277.084 223.566 285.794 200.007 281.96C195.379 281.006 190.206 280.64 185.003 280.545Z" fill="#F2E2CF"/>
<path fill-rule="evenodd" clip-rule="evenodd" d="M124.751 429.196C123.817 432.925 123.691 437.148 125.631 441.154C130.603 451.516 147.209 461.627 194.161 444.547C241.113 427.467 261.93 388.805 269.523 379.034C273.683 373.757 277.51 364.03 280.725 354C278.537 357.395 276.027 361.297 273.223 365.435C257.311 389.284 254.601 390.516 245.319 400.5C236.038 410.484 185.52 446.467 153.205 445.639C134.796 444.922 127.474 436.446 124.751 429.196ZM273.744 261.317C272.879 261.365 272.014 261.414 271.038 261.503C268.107 261.769 266.709 262.792 266.709 262.792C266.709 262.792 275.913 283.911 277.554 309.959C277.875 305.927 277.876 301.357 277.278 296.871C275.591 284.418 271.55 266.803 272.049 263.621C272.276 262.495 272.892 261.752 273.744 261.317ZM256.71 270.421C256.436 268.953 256.46 266.202 260.071 262.559C264.004 258.408 271.699 259.83 275.155 260.681C276.272 260.28 277.29 260.307 277.29 260.307C277.29 260.307 266.757 252.721 258.683 260.444C250.609 268.168 253.606 276.887 253.606 276.887C253.606 276.887 253.625 275.182 255.478 271.907C255.982 271.204 256.346 270.813 256.71 270.421ZM93.0359 370.572C97.4981 379.158 108.285 381.822 108.285 381.822C108.285 381.822 107.962 374.235 107.973 371.097C107.983 367.96 108.933 363.572 108.933 363.572C108.933 363.572 106.455 366.157 104.731 368.733C103.006 371.309 102.751 372.707 102.751 372.707C102.751 372.707 101.139 370.672 106.507 363.135C111.875 355.598 125.793 348.001 142.292 344.441C158.903 340.841 194.111 340.242 208.665 338.292C223.178 336.227 245.152 330.706 258.446 309.753C271.781 288.917 261.963 263.97 261.963 263.97C261.963 263.97 259.7 265.042 258.381 267.342C257.736 268.357 257.537 269.211 257.409 269.91C258.696 268.927 259.839 269.301 259.839 269.301C259.839 269.301 261.453 270.289 261.72 273.849C262.028 277.526 261.532 292.327 256.087 302.112C250.753 311.856 235.641 330.196 208.227 331.79C180.925 333.344 134.626 334.653 114.594 347.704C102.6 355.395 96.2647 364.454 93.0359 370.572ZM108.257 324.383C107.567 326.327 106.749 328.97 106.352 330.679C105.659 333.67 105.677 336.536 105.677 336.536C105.677 336.536 117.447 328.925 131.616 325.546C139.057 323.795 145.07 323.339 149.142 323.447C156.455 322.394 161.533 322.142 161.533 322.142C161.533 322.142 149.083 320.465 133.265 320.647C120.572 320.755 111.538 323.338 108.257 324.383ZM109.764 303.605C108.506 304.316 107.373 305.375 106.057 306.63C99.8409 313.557 105.509 324.453 105.509 324.453L107.9 322.683L110.64 316.609C110.64 316.609 108.355 315.86 108.022 311.41C107.834 309.127 108.793 306.172 109.764 303.605ZM157.957 307.232C157.957 307.232 161.805 291.23 171.959 287.201C182.113 283.172 186.662 290.944 187.707 295.27C188.641 299.636 186.479 303.805 186.479 303.805C186.479 303.805 167.232 315.53 157.957 307.232Z" fill="#EDC9A2"/>
<path fill-rule="evenodd" clip-rule="evenodd" d="M160.14 305.585C160.14 305.585 163.271 295.324 171.753 290.849C180.193 286.259 184.088 293.612 185.252 295.806C186.458 298.117 184.49 302.477 184.49 302.477L182.957 298.196C182.957 298.196 179.441 302.458 173.705 303.337C168.081 304.177 164.798 301.697 164.798 301.697C164.798 301.697 161.654 303.476 160.14 305.585Z" fill="black"/>
<path fill-rule="evenodd" clip-rule="evenodd" d="M202.082 201.828C202.082 201.828 206.523 187.833 221.759 182.506C236.994 177.179 247.04 192.905 248.308 197.151C249.577 201.396 250.232 209.91 250.232 209.91C250.232 209.91 244.135 202.04 227.971 197.385C211.848 192.845 203.898 200.916 202.082 201.828Z" fill="black"/>
<path fill-rule="evenodd" clip-rule="evenodd" d="M244.276 166.562C244.276 166.562 244.214 151.96 247.377 140.382C250.5 128.687 254.573 116.13 268.086 100.713C281.598 85.2968 298.63 72.6674 298.63 72.6674C298.63 72.6674 298.243 75.8092 296.046 77.7711C293.738 79.7731 293.147 81.2905 293.147 81.2905C293.147 81.2905 288.257 100.016 283.259 109.64C278.261 119.265 268.578 136.574 261.125 146.033C253.813 155.181 244.276 166.562 244.276 166.562Z" fill="black"/>
<path fill-rule="evenodd" clip-rule="evenodd" d="M288.332 85.6601C282.218 91.1144 276.229 96.9159 270.74 103.06C265.251 109.204 260.612 115.959 257.015 123.514C254.303 129.317 252.498 135.186 250.817 141.402C250.45 142.84 250.124 144.393 249.756 145.83C249.075 149.208 248.589 152.777 248.326 156.266C251.73 152.043 255.175 147.937 258.537 143.599C262.516 138.518 266.134 132.782 269.528 127.127C273.316 120.809 276.909 114.299 280.278 107.869C281.907 104.674 283.3 101.172 284.469 97.7505C285.849 93.8613 287.147 89.7407 288.332 85.6601C288.262 85.8159 288.332 85.6601 288.332 85.6601Z" fill="#F6C4B1"/>
<path fill-rule="evenodd" clip-rule="evenodd" d="M227.227 219.59C236.5 216.268 247.55 223.539 251.985 235.921C256.379 248.187 252.5 260.936 243.227 264.258C233.954 267.579 222.904 260.309 218.469 247.927C217.805 246.075 217.366 244.144 217.079 242.288C217.079 242.288 213.828 230.396 214.899 222.831C215.971 215.266 221.375 213.46 222.745 212.709C224.044 212.113 227.296 211.339 230.07 212.043C232.731 212.787 233.452 214.096 233.452 214.096C233.452 214.096 228.857 211.825 223.855 214.4C218.741 217.015 217.361 220.904 217.321 224.313C217.244 226.561 217.585 228.919 217.817 230.272C219.313 225.297 222.646 221.231 227.227 219.59Z" fill="black"/>
<path fill-rule="evenodd" clip-rule="evenodd" d="M228.127 221.974C236.059 219.133 245.731 225.722 249.669 236.715C253.607 247.709 250.319 258.94 242.387 261.782C234.454 264.623 224.783 258.034 220.845 247.04C216.907 236.047 220.195 224.816 228.127 221.974Z" fill="white"/>
<path fill-rule="evenodd" clip-rule="evenodd" d="M230.711 227.73C235.291 226.089 240.678 229.513 242.792 235.415C244.906 241.316 242.919 247.381 238.338 249.022C233.757 250.663 228.371 247.239 226.257 241.338C224.184 235.552 226.13 229.371 230.711 227.73Z" fill="black"/>
<path fill-rule="evenodd" clip-rule="evenodd" d="M232.253 231.492C233.594 231.011 235.097 232.04 235.677 233.66C236.258 235.28 235.75 237.029 234.409 237.509C233.068 237.989 231.565 236.961 230.985 235.341C230.363 233.605 231.024 231.932 232.253 231.492Z" fill="white"/>
<path fill-rule="evenodd" clip-rule="evenodd" d="M240.39 272.438C240.39 272.438 238.361 270.293 240.896 259.07C243.472 247.963 253.334 239.599 257.306 236.61C261.319 233.736 266.011 232.055 268.13 232.34C270.208 232.51 272.944 240.148 264.505 248.263C256.067 256.377 252.497 260.137 249.598 263.656C246.587 267.216 242.605 273.342 240.39 272.438Z" fill="#B99D85"/>
<path fill-rule="evenodd" clip-rule="evenodd" d="M239.863 270.357C239.577 268.501 239.728 265.052 241.045 259.227C243.621 248.12 253.483 239.756 257.454 236.766C261.467 233.893 266.16 232.212 268.279 232.497C269.338 232.64 270.49 234.447 270.467 237.197C263.116 237.088 259.489 241.391 256.417 246.539C252.307 253.365 245.195 265.182 239.863 270.357Z" fill="#9E775C"/>
<path fill-rule="evenodd" clip-rule="evenodd" d="M239.76 270.955C239.76 270.955 236.591 259.294 245.59 246.408C254.7 233.483 265.903 232.734 265.903 232.734C265.903 232.734 243.558 240.738 239.76 270.955Z" fill="black"/>
<path fill-rule="evenodd" clip-rule="evenodd" d="M258.179 247.824C258.179 247.824 257.121 243.111 262.143 238.831C267.206 234.667 270.161 235.176 270.161 235.176C270.161 235.176 261.006 240.936 258.179 247.824Z" fill="black"/>
<path fill-rule="evenodd" clip-rule="evenodd" d="M263.515 247.106C263.515 247.106 263.012 243.239 268.395 239.613C273.777 235.988 275.641 237.671 275.641 237.671C275.641 237.671 267.37 241.678 263.515 247.106Z" fill="black"/>
<path fill-rule="evenodd" clip-rule="evenodd" d="M274.996 242.995C274.996 242.995 276.373 240.152 278.786 240.201C281.087 240.291 282.226 241.711 282.226 241.711C282.226 241.711 277.218 241.808 274.996 242.995Z" fill="black"/>
<path fill-rule="evenodd" clip-rule="evenodd" d="M162.528 224.907C162.528 224.907 160.807 218.342 168.746 213.409C176.686 208.476 183.745 212.346 186.278 213.788C188.812 215.231 191.479 218.454 192.477 220.185C193.517 222.032 194.308 223.185 194.308 223.185C194.308 223.185 189.239 216.775 179.631 220.217C170.023 223.659 168.247 237.352 168.112 240.142C167.977 242.932 167.608 248.94 167.608 248.94C167.608 248.94 162.313 239.086 162.528 224.907Z" fill="black"/>
<path fill-rule="evenodd" clip-rule="evenodd" d="M144.582 354.436C144.582 354.436 145.478 357.641 146.972 365.331C148.466 373.022 149.405 379.867 152.847 384.901C156.29 389.935 151.66 393.552 148.377 391.072C145.094 388.592 143.67 380.746 142.832 376.999C142.064 373.096 140.804 362.188 140.852 360.212C140.901 358.236 140.363 352.161 144.582 354.436Z" fill="white"/>
<path fill-rule="evenodd" clip-rule="evenodd" d="M124.377 309.083L141.327 349.363L161.221 311.292L145.728 351.442L186.218 339.549L147.386 356.071L184.849 377.252L145.306 360.472L157.829 402.468L140.949 362.033L121.055 400.104L136.549 359.953L96.0582 371.846L134.891 355.324L97.4276 334.143L136.97 350.924L124.377 309.083Z" fill="white"/>
<path fill-rule="evenodd" clip-rule="evenodd" d="M254.025 272.503L266.769 302.8L281.623 274.237L269.985 304.389L300.437 295.44L271.229 307.861L299.364 323.765L269.753 311.131L279.145 342.629L266.402 312.332L251.547 340.894L263.185 310.742L232.733 319.692L261.941 307.271L233.806 291.366L263.417 304L254.025 272.503Z" fill="white"/>
<path fill-rule="evenodd" clip-rule="evenodd" d="M342.893 531.344L343.958 533.965C366.865 524.715 387.232 511.544 404.568 495.541C405.884 494.287 407.199 493.032 408.514 491.778C390.572 489.196 372.609 480.223 359.904 459.183C323.258 398.408 329.089 353.101 324.934 323.906C324.635 321.663 324.141 319.229 323.494 316.719C318.303 329.676 309.937 341.16 300.154 350.801C296.432 354.485 292.514 357.977 288.319 361.047C286.627 362.306 284.935 363.565 283.16 364.592L280.057 366.487C277.722 372.285 275.068 377.545 272.322 381.14C271.09 382.626 270.052 384.303 268.972 385.865C267.641 387.778 266.309 389.691 264.978 391.605C275.098 393.463 288.137 398.193 297.373 409.9C297.609 410.207 297.845 410.514 298.081 410.822C298.123 410.937 298.276 411.013 298.318 411.129C298.512 411.32 298.554 411.436 298.748 411.627C298.79 411.743 298.984 411.934 299.026 412.05C299.067 412.166 299.262 412.357 299.303 412.473C299.386 412.704 299.539 412.78 299.734 412.972C299.775 413.087 299.97 413.279 300.012 413.394C300.053 413.51 300.206 413.586 300.248 413.702C300.956 414.623 301.706 415.66 302.344 416.737L302.385 416.853C302.385 416.853 302.385 416.853 302.426 416.969C302.663 417.276 302.899 417.583 303.023 417.93L303.064 418.046C303.259 418.237 303.383 418.584 303.578 418.776L303.897 419.314L304.133 419.622C304.216 419.853 304.411 420.044 304.494 420.276L305.09 421.237L305.409 421.776L305.728 422.314L305.769 422.43L306.13 423.084L306.171 423.2L306.296 423.547C306.337 423.663 306.379 423.779 306.42 423.895L306.503 424.126L306.544 424.242L306.905 424.896L306.946 425.012C307.182 425.319 307.265 425.55 307.501 425.857L307.543 425.973L307.584 426.089L307.709 426.436C308.028 426.975 308.305 427.397 308.624 427.936C308.666 428.052 308.666 428.052 308.707 428.167L308.985 428.59L309.386 429.36L309.623 429.667L309.941 430.206L310.302 430.86L310.343 430.976L310.787 431.862L310.828 431.977L311.313 432.979L311.798 433.98L311.881 434.212L311.922 434.328L312.365 435.213L312.531 435.676L312.975 436.562L313.058 436.793L313.418 437.448L313.778 438.102L314.263 439.103C314.624 439.758 314.831 440.336 315.191 440.991L315.233 441.106L315.357 441.453L315.523 441.916C315.689 442.379 316.008 442.918 316.173 443.381C316.215 443.496 316.298 443.728 316.339 443.844L316.422 444.075L316.866 444.961C330.465 473.776 331.4 502.427 342.893 531.344Z" fill="#9E775C"/>
</g>
<defs>
<filter id="filter0_dddddd" x="5.59911" y="8.83937" width="519.566" height="586.953" filterUnits="userSpaceOnUse" color-interpolation-filters="sRGB">
<feFlood flood-opacity="0" result="BackgroundImageFix"/>
<feColorMatrix in="SourceAlpha" type="matrix" values="0 0 0 0 0 0 0 0 0 0 0 0 0 0 0 0 0 0 127 0"/>
<feOffset dx="0.114447" dy="0.211797"/>
<feGaussianBlur stdDeviation="0.96412"/>
<feColorMatrix type="matrix" values="0 0 0 0 0.262745 0 0 0 0 0.262745 0 0 0 0 0.027451 0 0 0 0.0144444 0"/>
<feBlend mode="normal" in2="BackgroundImageFix" result="effect1_dropShadow"/>
<feColorMatrix in="SourceAlpha" type="matrix" values="0 0 0 0 0 0 0 0 0 0 0 0 0 0 0 0 0 0 127 0"/>
<feOffset dx="0.503569" dy="0.931906"/>
<feGaussianBlur stdDeviation="1.9963"/>
<feColorMatrix type="matrix" values="0 0 0 0 0.262745 0 0 0 0 0.262745 0 0 0 0 0.027451 0 0 0 0.0235556 0"/>
<feBlend mode="normal" in2="effect1_dropShadow" result="effect2_dropShadow"/>
<feColorMatrix in="SourceAlpha" type="matrix" values="0 0 0 0 0 0 0 0 0 0 0 0 0 0 0 0 0 0 127 0"/>
<feOffset dx="1.23603" dy="2.28741"/>
<feGaussianBlur stdDeviation="3.98125"/>
<feColorMatrix type="matrix" values="0 0 0 0 0.262745 0 0 0 0 0.262745 0 0 0 0 0.027451 0 0 0 0.03 0"/>
<feBlend mode="normal" in2="effect2_dropShadow" result="effect3_dropShadow"/>
<feColorMatrix in="SourceAlpha" type="matrix" values="0 0 0 0 0 0 0 0 0 0 0 0 0 0 0 0 0 0 127 0"/>
<feOffset dx="2.38051" dy="4.40537"/>
<feGaussianBlur stdDeviation="7.8037"/>
<feColorMatrix type="matrix" values="0 0 0 0 0.262745 0 0 0 0 0.262745 0 0 0 0 0.027451 0 0 0 0.0364444 0"/>
<feBlend mode="normal" in2="effect3_dropShadow" result="effect4_dropShadow"/>
<feColorMatrix in="SourceAlpha" type="matrix" values="0 0 0 0 0 0 0 0 0 0 0 0 0 0 0 0 0 0 127 0"/>
<feOffset dx="4.00566" dy="7.41289"/>
<feGaussianBlur stdDeviation="14.3484"/>
<feColorMatrix type="matrix" values="0 0 0 0 0.262745 0 0 0 0 0.262745 0 0 0 0 0.027451 0 0 0 0.0455556 0"/>
<feBlend mode="normal" in2="effect4_dropShadow" result="effect5_dropShadow"/>
<feColorMatrix in="SourceAlpha" type="matrix" values="0 0 0 0 0 0 0 0 0 0 0 0 0 0 0 0 0 0 127 0"/>
<feOffset dx="6.18016" dy="11.437"/>
<feGaussianBlur stdDeviation="24.5"/>
<feColorMatrix type="matrix" values="0 0 0 0 0.262745 0 0 0 0 0.262745 0 0 0 0 0.027451 0 0 0 0.06 0"/>
<feBlend mode="normal" in2="effect5_dropShadow" result="effect6_dropShadow"/>
<feBlend mode="normal" in="SourceGraphic" in2="effect6_dropShadow" result="shape"/>
</filter>
</defs>
</svg>
