<svg width="14" height="19" viewBox="0 0 14 19" fill="none" xmlns="http://www.w3.org/2000/svg">
<path d="M1.02734 7.17717V6.05885C1.02734 4.24221 2.60599 2.76953 4.55336 2.76953H12.1931V2.76953" stroke="#3E3E3E" stroke-linecap="round"/>
<path d="M11.1484 1.125L12.711 2.76966L11.1484 4.41432" stroke="#3E3E3E" stroke-linecap="round"/>
<path d="M12.7033 13.7213L12.7033 14.8396C12.7032 16.6562 11.1245 18.1288 9.17711 18.1288L1.53742 18.1285V18.1285" stroke="#3E3E3E" stroke-linecap="round"/>
<path d="M10.7242 10.7708C10.4992 10.4404 10.1596 10.2134 9.70542 10.09C10.2838 9.75507 10.5379 9.18655 10.4681 8.38437C10.4448 8.09349 10.374 7.84138 10.2556 7.62769C10.1371 7.41396 9.97713 7.24213 9.77518 7.11214C9.57339 6.98199 9.35392 6.88292 9.11728 6.81461C8.88057 6.74631 8.60882 6.69671 8.3022 6.66589V5H7.40572V6.61961C7.25048 6.61961 7.01374 6.62401 6.69551 6.63283V5H5.79891V6.66589C5.67079 6.67032 5.48258 6.67256 5.2342 6.67256L4 6.66589V7.75006H4.64618C4.94116 7.75006 5.11387 7.89994 5.16432 8.19958V10.0969C5.20318 10.0969 5.2342 10.0991 5.25751 10.1035H5.16432V12.7609C5.1333 12.9856 5.02076 13.0981 4.82668 13.0981H4.18054L4.00004 14.3079H5.16442C5.23817 14.3079 5.34484 14.309 5.48462 14.311C5.62432 14.3132 5.72907 14.3143 5.79895 14.3143V16H6.6957V14.3341C6.85866 14.3386 7.09541 14.3408 7.4059 14.3408V16H8.3024V14.3143C8.62073 14.2967 8.90307 14.2638 9.14941 14.2152C9.39588 14.1665 9.63173 14.0906 9.85678 13.987C10.0818 13.8835 10.27 13.7545 10.4214 13.6003C10.5728 13.4461 10.6979 13.2499 10.797 13.0119C10.8958 12.7739 10.959 12.4984 10.986 12.1855C11.0367 11.573 10.9493 11.1014 10.7242 10.7708ZM6.71295 7.82258C6.74013 7.82258 6.81678 7.82147 6.94292 7.81925C7.06912 7.81698 7.17387 7.8148 7.25731 7.81258C7.34077 7.8104 7.45333 7.81591 7.59505 7.82913C7.73671 7.84236 7.85604 7.86002 7.95304 7.88202C8.05004 7.90402 8.15687 7.94039 8.2732 7.99108C8.38974 8.04171 8.48282 8.10344 8.5526 8.17615C8.62252 8.24885 8.6817 8.34144 8.73013 8.45383C8.7787 8.5662 8.80297 8.6951 8.80297 8.84051C8.80297 8.96392 8.78553 9.07633 8.75064 9.17775C8.71581 9.27909 8.66329 9.36395 8.59351 9.43226C8.52371 9.50059 8.45177 9.56014 8.37801 9.61078C8.30434 9.66142 8.21013 9.70221 8.09568 9.73303C7.98124 9.7639 7.8813 9.78814 7.79597 9.80573C7.71057 9.82338 7.60386 9.83553 7.47576 9.84211C7.34765 9.84869 7.25058 9.85318 7.18464 9.85535C7.11863 9.85753 7.02842 9.85753 6.91388 9.85535C6.79933 9.85318 6.73246 9.85202 6.71301 9.85202V7.82256H6.71295V7.82258ZM9.16112 12.3244C9.12415 12.4258 9.07668 12.514 9.0185 12.589C8.96022 12.6637 8.88353 12.7299 8.78849 12.7871C8.69346 12.8445 8.60119 12.8907 8.512 12.926C8.42269 12.9614 8.31494 12.992 8.18893 13.0186C8.06262 13.045 7.95208 13.0637 7.85689 13.0748C7.76185 13.0858 7.64837 13.0946 7.51636 13.1012C7.38445 13.1077 7.28154 13.1111 7.20782 13.1111C7.13407 13.1111 7.0409 13.1099 6.92834 13.1077C6.81572 13.1057 6.74398 13.1046 6.71291 13.1046V10.8701C6.74392 10.8701 6.83611 10.8679 6.98945 10.8634C7.14282 10.859 7.26792 10.8569 7.36496 10.8569C7.46198 10.8569 7.59593 10.8634 7.76677 10.8767C7.93744 10.8899 8.08106 10.9096 8.19759 10.9361C8.31398 10.9625 8.441 11.0032 8.57889 11.0584C8.71663 11.1135 8.82827 11.1807 8.91369 11.26C8.99909 11.3394 9.07084 11.4406 9.12904 11.5641C9.18738 11.6874 9.21648 11.8285 9.21648 11.9872C9.21646 12.1107 9.19805 12.2229 9.16112 12.3244Z" fill="#3E3E3E"/>
</svg>
