<svg width="197" height="48" viewBox="0 0 197 48" fill="none" xmlns="http://www.w3.org/2000/svg">
<g clip-path="url(#clip0)">
<path d="M23.6076 47.0286C36.3636 47.0286 46.7044 36.7361 46.7044 24.0397C46.7044 11.3433 36.3636 1.05078 23.6076 1.05078C10.8515 1.05078 0.510742 11.3433 0.510742 24.0397C0.510742 36.7361 10.8515 47.0286 23.6076 47.0286Z" fill="#222222"/>
<path d="M60.833 19.938H67.8529C71.0934 19.938 73.0961 18.1685 73.0961 15.7144C73.0961 13.6099 71.545 12.2335 69.6297 12.1607V12.0151C71.3557 11.6728 72.5135 10.3984 72.5135 8.75266C72.5135 6.48063 70.7074 5.02421 67.2995 5.02421H60.833V19.938ZM64.8819 16.7048V13.5589H66.8334C68.064 13.5589 68.8141 14.1415 68.8141 15.1901C68.8141 16.1877 68.137 16.7048 66.7751 16.7048H64.8819ZM64.8819 11.0538V8.19923H66.6003C67.6053 8.19923 68.3481 8.70897 68.3481 9.62652C68.3481 10.5441 67.6053 11.0538 66.5422 11.0538H64.8819ZM74.5307 19.938H84.6091V16.6756H78.5796V5.02421H74.5307V19.938ZM90.12 19.938L90.9791 17.0834H95.902L96.7613 19.938H101.13L96.2078 5.02421H90.6732L85.7506 19.938H90.12ZM91.8967 14.0541L93.3823 9.13134H93.4988L94.9844 14.0541H91.8967ZM115.789 10.6169C115.469 6.91757 112.76 4.82031 109.002 4.82031C104.983 4.82031 101.808 7.50013 101.808 12.4811C101.808 17.4403 104.895 20.1419 109.002 20.1419C113.372 20.1419 115.586 17.1126 115.789 14.5784L111.682 14.5493C111.479 15.8236 110.575 16.6174 109.09 16.6174C107.116 16.6174 105.973 15.2192 105.973 12.4811C105.973 9.88868 107.08 8.34487 109.119 8.34487C110.677 8.34487 111.566 9.26241 111.682 10.6169H115.789ZM117.626 19.938H121.675V16.0931L123.015 14.3454L126.365 19.938H131.2L126.045 11.6655L131.084 5.02421H126.365L121.879 11.0538H121.675V5.02421H117.626V19.938ZM140.456 19.938H151.175V16.6756H144.505V14.1123H150.651V10.8499H144.505V8.2866H151.204V5.02421H140.456V19.938ZM158.951 19.938C163.495 19.938 166.379 17.1417 166.379 12.4811C166.379 7.82055 163.495 5.02421 158.892 5.02421H153.213V19.938H158.951ZM157.261 16.5009V8.46139H158.689C161.019 8.46139 162.301 9.36436 162.301 12.4811C162.301 15.5979 161.019 16.5009 158.805 16.5009H157.261ZM177.937 9.94694H182.03C181.717 6.95398 179 4.82031 175.476 4.82031C171.456 4.82031 168.194 7.58753 168.194 12.5103C168.194 17.2291 171.15 20.1419 175.505 20.1419C179.408 20.1419 182.204 17.7534 182.204 13.6754V11.6073H175.592V14.491H178.301C178.265 15.7872 177.347 16.6174 175.534 16.6174C173.437 16.6174 172.359 15.0736 172.359 12.452C172.359 9.86684 173.524 8.34487 175.563 8.34487C176.83 8.34487 177.69 8.92744 177.937 9.94694ZM184.092 19.938H194.812V16.6756H188.141V14.1123H194.287V10.8499H188.141V8.2866H194.841V5.02421H184.092V19.938Z" fill="#222222"/>
<path d="M70.8181 33.4785C70.3889 30.7924 68.2854 29.2227 65.6301 29.2227C62.3802 29.2227 59.9824 31.6571 59.9824 35.6738C59.9824 39.6905 62.3679 42.1249 65.6301 42.1249C68.3897 42.1249 70.4073 40.3957 70.8181 37.912L68.9049 37.906C68.5798 39.5126 67.2307 40.3957 65.6424 40.3957C63.4901 40.3957 61.8649 38.7461 61.8649 35.6738C61.8649 32.6261 63.4839 30.9519 65.6487 30.9519C67.2491 30.9519 68.5921 31.8533 68.9049 33.4785H70.8181ZM73.8463 41.9533L74.9992 38.6295H79.905L81.0519 41.9533H83.0633L78.5436 29.3943H76.3544L71.835 41.9533H73.8463ZM75.5512 37.0352L77.403 31.6755H77.5013L79.3531 37.0352H75.5512ZM84.6611 41.9533H86.5559V37.5379H89.1315C92.0443 37.5379 93.4853 35.7781 93.4853 33.46C93.4853 31.1481 92.0566 29.3943 89.1375 29.3943H84.6611V41.9533ZM86.5559 35.9313V31.0192H88.9353C90.8117 31.0192 91.5782 32.0372 91.5782 33.46C91.5782 34.8827 90.8117 35.9313 88.9597 35.9313H86.5559ZM97.3859 29.3943H95.4911V41.9533H97.3859V29.3943ZM99.3103 31.0255H103.223V41.9533H105.111V31.0255H109.03V29.3943H99.3103V31.0255ZM110.522 41.9533L111.675 38.6295H116.581L117.728 41.9533H119.739L115.219 29.3943H113.03L108.511 41.9533H110.522ZM112.227 37.0352L114.079 31.6755H114.177L116.029 37.0352H112.227ZM121.337 41.9533H128.922V40.3221H123.231V29.3943H121.337V41.9533Z" fill="#222222"/>
<path d="M15.248 9.32031L41.3581 23.6956L15.8538 39.12L15.248 9.32031Z" fill="#F4E41C"/>
<path d="M15.693 23.9793L28.3373 16.6653L28.3492 31.2727L15.693 23.9793Z" fill="#F4E41C" stroke="#222222" stroke-width="3"/>
</g>
<defs>
<clipPath id="clip0">
<rect width="195.783" height="47.4888" fill="white" transform="translate(0.379883 0.265625)"/>
</clipPath>
</defs>
</svg>
