<svg width="101" height="49" viewBox="0 0 101 49" fill="none" xmlns="http://www.w3.org/2000/svg">
<mask id="mask0" mask-type="alpha" maskUnits="userSpaceOnUse" x="0" y="0" width="101" height="49">
<path d="M70.3987 18.0664C70.2096 17.8792 69.9851 17.7277 69.7326 17.6152C69.4769 17.5027 69.203 17.4453 68.9183 17.4453H61.4571C61.1724 17.4453 60.8974 17.5027 60.6428 17.6152C60.3893 17.7277 60.1658 17.8792 59.9767 18.0664C59.7866 18.2546 59.6351 18.4797 59.5266 18.7361C59.4181 18.9926 59.3633 19.2685 59.3633 19.5552V29.4458C59.3633 29.7325 59.4181 30.0084 59.5266 30.2649C59.6351 30.5202 59.7866 30.7475 59.9756 30.9379C60.1658 31.1294 60.3903 31.282 60.6439 31.3902C60.8985 31.4994 61.1724 31.5546 61.4571 31.5546H68.9183C69.203 31.5546 69.4769 31.4994 69.7316 31.3902C69.9851 31.2809 70.2107 31.1283 70.3998 30.9379C70.5899 30.7464 70.7403 30.5202 70.8489 30.2649C70.9574 30.0074 71.0121 29.7325 71.0121 29.4458V23.9752H65.0583V26.2149H68.7883V29.316H61.5861V19.6851H68.7883V21.4714H71.0121V19.5552C71.0121 19.2696 70.9574 18.9937 70.8478 18.7361C70.7403 18.4797 70.5889 18.2546 70.3987 18.0664Z" fill="#F1D050"/>
<path d="M84.8684 25.1589C84.6943 24.8852 84.4795 24.6569 84.2302 24.4805C84.0626 24.3626 83.8811 24.2608 83.6877 24.1797C84.0992 23.933 84.4161 23.5922 84.631 23.1626C84.8845 22.6541 85.0134 21.9919 85.0134 21.1966V20.9456C85.0134 18.6225 83.8467 17.4453 81.5477 17.4453H74.2842V31.5546H81.9419C84.2421 31.5546 85.4088 30.3796 85.4088 28.0641V27.3684C85.4088 26.9031 85.3626 26.4822 85.2702 26.1197C85.1767 25.7529 85.0414 25.4294 84.8684 25.1589ZM76.4693 23.326V19.645H81.4907C81.9688 19.645 82.3147 19.7554 82.5188 19.9718C82.7251 20.1904 82.8293 20.5507 82.8293 21.0419V21.9497C82.8293 22.4171 82.7348 22.7644 82.5489 22.9798C82.3663 23.1918 82.0537 23.3087 81.625 23.326H76.4693ZM83.2215 26.8944V27.9667C83.2215 28.4514 83.1172 28.8085 82.9121 29.0271C82.7079 29.2435 82.362 29.3538 81.8839 29.3538H76.4704V25.5181H81.8839C82.3631 25.5181 82.7101 25.6253 82.9131 25.8362C83.1172 26.0483 83.2215 26.4043 83.2215 26.8944Z" fill="#F1D050"/>
<path d="M97.6277 17.4453L93.4303 28.6051L89.2415 17.4453H86.8555L92.2582 31.5557H94.6024L100.005 17.4453H97.6277Z" fill="#F1D050"/>
<path d="M47.9605 28.007V27.9334C47.9605 27.7257 47.8509 27.5341 47.6725 27.4292L36.2611 20.7338V17.8848V7.52033C36.2611 7.51817 36.26 7.516 36.26 7.51384V7.43702C36.26 7.22927 36.1504 7.03668 35.9721 6.9328L24.2803 0.0793969C24.1008 -0.0255574 23.8795 -0.0266398 23.7001 0.0772325L11.9943 6.84949C11.8149 6.95336 11.7032 7.14704 11.7032 7.35587V7.43702C11.7032 7.4381 11.7032 7.4381 11.7032 7.43918V20.6515L0.294959 27.2604C0.115547 27.3643 0.00381617 27.5579 0.00489049 27.7668V27.8447C0.00489049 27.8468 0.00489049 27.8479 0.00489049 27.8501V41.4822C0.00489049 41.69 0.114472 41.8815 0.29281 41.9865L11.9922 48.8442C12.0029 48.8507 12.0137 48.8561 12.0244 48.8615C12.0394 48.8691 12.0545 48.8756 12.0706 48.881C12.0738 48.8821 12.076 48.8831 12.0792 48.8842C12.1093 48.8961 12.1394 48.9037 12.1705 48.9102C12.1716 48.9102 12.1727 48.9113 12.1737 48.9113C12.1748 48.9113 12.177 48.9113 12.178 48.9113C12.2135 48.9178 12.2489 48.9221 12.2844 48.9221C12.2876 48.9221 12.2908 48.921 12.293 48.921C12.2941 48.921 12.2951 48.921 12.2962 48.921C12.2994 48.921 12.3016 48.9199 12.3048 48.9199C12.3284 48.9188 12.351 48.9178 12.3746 48.9134C12.38 48.9124 12.3843 48.9113 12.3897 48.9102C12.4101 48.9059 12.4316 48.9015 12.452 48.8961C12.4574 48.894 12.4627 48.8918 12.4681 48.8907C12.4874 48.8842 12.5068 48.8777 12.525 48.8691C12.5283 48.868 12.5315 48.8658 12.5347 48.8637C12.553 48.855 12.5723 48.8453 12.5895 48.8345C12.5916 48.8334 12.5938 48.8312 12.5959 48.8301L23.9848 42.2342L35.392 48.9199C35.4081 48.9297 35.4242 48.9372 35.4414 48.9448C35.4457 48.947 35.45 48.9502 35.4554 48.9524C35.4607 48.9546 35.4661 48.9567 35.4715 48.9589C35.4779 48.961 35.4844 48.9621 35.4908 48.9643C35.5026 48.9686 35.5134 48.973 35.5241 48.9762C35.5327 48.9784 35.5413 48.9794 35.5499 48.9816C35.5649 48.9849 35.5811 48.9892 35.5961 48.9913C35.6101 48.9935 35.6229 48.9946 35.6369 48.9957C35.653 48.9968 35.6691 49 35.6863 49C35.7862 49 35.8862 48.974 35.9753 48.9221L47.6715 42.1477C47.8509 42.0438 47.9626 41.8469 47.9626 41.6381V28.0156C47.9626 28.0146 47.9626 28.0146 47.9626 28.0135C47.9626 28.0124 47.9626 28.0113 47.9626 28.0102C47.9605 28.0102 47.9605 28.0081 47.9605 28.007ZM35.1019 18.2203V20.816L24.5682 26.9174V14.6302L35.1019 8.52984V18.2203ZM23.4036 26.9109L12.8656 20.7348L12.8634 8.4541L23.4036 14.6323V26.9109ZM22.8256 27.928L12.2887 34.0305L1.74422 27.8501L12.2812 21.7465L22.8256 27.928ZM25.1505 27.9356L35.6842 21.832L46.2244 28.0091L35.6874 34.1116L25.1505 27.9356ZM23.987 13.6196L13.4436 7.44026L23.9816 1.33668L34.525 7.516L23.987 13.6196ZM1.16408 28.865L11.7032 35.0422V47.2417L1.1759 41.0711L1.16408 28.865ZM12.8634 47.2472V35.0551L23.4036 28.9472V41.1414L12.8634 47.2472ZM24.5682 41.1468V28.9483L35.103 35.1222V47.3186L24.5682 41.1468ZM46.8013 41.2193L36.2622 47.3261V35.132L46.8013 29.0273V41.2193Z" fill="#F1D050"/>
</mask>
<g mask="url(#mask0)">
<rect x="0.0195312" y="-1.92188" width="100.019" height="50.9623" fill="#222222"/>
</g>
</svg>
