<svg width="137" height="62" viewBox="0 0 137 62" fill="none" xmlns="http://www.w3.org/2000/svg">
<g clip-path="url(#clip0)">
<path d="M39.6649 30.1047C39.6649 27.8284 39.1203 25.9986 38.0311 24.6151C36.9418 23.2316 35.5117 22.5399 33.7406 22.5399C32.0444 22.5399 30.689 23.1552 29.6747 24.3859C28.6685 25.6165 28.1655 27.2815 28.1655 29.3808C28.1655 31.6732 28.7143 33.5151 29.8118 34.9066C30.9177 36.2981 32.352 36.9938 34.1148 36.9938C35.8193 36.9938 37.1704 36.3786 38.1682 35.1479C39.166 33.9173 39.6649 32.2362 39.6649 30.1047ZM33.9401 20.7422C35.2622 20.7422 36.4429 20.9192 37.4823 21.2731C38.5216 21.6189 39.4778 22.1578 40.3509 22.8898C41.3653 23.7424 42.1469 24.7599 42.6957 25.9422C43.2445 27.1166 43.5188 28.3633 43.5188 29.6824C43.5188 32.3046 42.6001 34.4884 40.7625 36.2338C38.9249 37.9792 36.6259 38.8519 33.8653 38.8519C32.4269 38.8519 31.1256 38.6267 29.9615 38.1762C28.7974 37.7177 27.7664 37.0381 26.8683 36.1372C26.0368 35.2926 25.4008 34.3315 24.9601 33.2537C24.5277 32.1678 24.3115 31.0176 24.3115 29.8031C24.3115 28.4598 24.5818 27.2131 25.1223 26.0629C25.671 24.9046 26.4651 23.8952 27.5044 23.0346C28.3692 22.3107 29.367 21.7477 30.4978 21.3455C31.6286 20.9433 32.7761 20.7422 33.9401 20.7422ZM45.7389 21.1886C46.4457 21.2288 47.1109 21.261 47.7345 21.2852C48.3664 21.3012 48.9277 21.3093 49.4183 21.3093C49.9255 21.3093 50.4909 21.3012 51.1145 21.2852C51.7465 21.261 52.474 21.2288 53.2971 21.1886V22.2745C53.2473 22.2745 53.1766 22.2705 53.0851 22.2624C52.9937 22.2544 52.9313 22.2504 52.898 22.2504C52.1996 22.2504 51.7256 22.4514 51.4762 22.8536C51.2268 23.2558 51.102 24.1647 51.102 25.5803C51.102 25.7894 51.1062 26.1675 51.1145 26.7144C51.1228 27.2613 51.127 27.7078 51.127 28.0536L51.1519 36.5233L51.2268 36.5354C52.2993 36.5997 53.1101 36.6319 53.6588 36.6319C55.7459 36.6319 57.1137 36.4228 57.7622 36.0045C58.4108 35.5863 58.943 34.7899 59.3587 33.6156L60.5061 33.9535C60.2484 34.6854 60.0156 35.4214 59.8077 36.1614C59.6082 36.9013 59.4335 37.6494 59.2838 38.4055C57.8121 38.3572 56.4443 38.321 55.1805 38.2969C53.9166 38.2728 52.7608 38.2607 51.7132 38.2607C50.6738 38.2607 49.6261 38.2728 48.5702 38.2969C47.5225 38.321 46.479 38.3572 45.4396 38.4055V37.3437H45.7888C46.2379 37.3437 46.5829 37.2995 46.824 37.211C47.0651 37.1225 47.2398 36.9778 47.3478 36.7767C47.5807 36.3343 47.7054 34.6814 47.722 31.8179C47.7304 31.448 47.7345 31.1664 47.7345 30.9734L47.7595 28.3432C47.7595 27.9893 47.7636 27.5268 47.7719 26.9557C47.7802 26.3766 47.7844 25.9744 47.7844 25.7492C47.7844 24.3014 47.6597 23.3563 47.4102 22.9139C47.1691 22.4715 46.7076 22.2504 46.0258 22.2504H45.7389V21.1886ZM61.4291 21.1886C62.244 21.2369 62.9881 21.2731 63.6616 21.2972C64.3434 21.3214 64.9507 21.3334 65.4827 21.3334C66.0063 21.3334 66.5925 21.3214 67.2413 21.2972C67.8978 21.2731 68.6258 21.2369 69.424 21.1886V22.2745H69.1622C68.5881 22.2745 68.1768 22.3308 67.9272 22.4434C67.6858 22.556 67.5114 22.7611 67.4035 23.0587C67.3116 23.3081 67.2452 23.7987 67.2036 24.5307C67.1621 25.2626 67.1417 26.5777 67.1417 28.4759V33.4346C67.1417 34.5688 67.1621 35.357 67.2036 35.7994C67.2535 36.2338 67.3371 36.5515 67.4533 36.7525C67.5696 36.9536 67.765 37.0984 68.0396 37.1869C68.3135 37.2754 68.7209 37.3196 69.2618 37.3196H69.5734V38.4055C68.659 38.3572 67.8563 38.321 67.1666 38.2969C66.4763 38.2728 65.8901 38.2607 65.408 38.2607C64.9673 38.2607 64.3975 38.2728 63.699 38.2969C63.0006 38.321 62.1899 38.3572 61.2669 38.4055V37.3196H61.5788C62.1359 37.3196 62.5516 37.2754 62.826 37.1869C63.1004 37.0984 63.2875 36.9536 63.3872 36.7525C63.5119 36.5273 63.5993 36.1614 63.6492 35.6546C63.699 35.1398 63.724 34.2108 63.724 32.8676V31.0457V25.8096C63.724 24.8122 63.699 24.1164 63.6492 23.7223C63.6076 23.3201 63.5286 23.0225 63.4122 22.8295C63.3041 22.6365 63.1128 22.4957 62.8384 22.4072C62.5724 22.3187 62.1857 22.2745 61.6785 22.2745H61.4291V21.1886ZM76.82 36.475C77.3354 36.5877 77.8424 36.6721 78.3418 36.7284C78.8488 36.7767 79.3642 36.8008 79.8878 36.8008C82.0417 36.8008 83.7008 36.2257 84.8643 35.0755C86.0284 33.9253 86.6108 32.2844 86.6108 30.1529C86.6108 27.8124 85.9869 25.9986 84.7397 24.7116C83.4926 23.4167 81.7467 22.7691 79.5014 22.7691C79.177 22.7691 78.8073 22.7852 78.3916 22.8174C77.9842 22.8415 77.4931 22.8898 76.9197 22.9622C76.8865 24.9248 76.8615 26.7868 76.8449 28.5483C76.8283 30.3018 76.82 31.8983 76.82 33.3381V36.475ZM71.1826 38.4055V37.3196C71.2408 37.3276 71.3027 37.3357 71.3698 37.3437C71.4362 37.3437 71.5358 37.3437 71.6686 37.3437C72.3589 37.3437 72.8244 37.1226 73.0658 36.6801C73.3066 36.2297 73.4273 35.0835 73.4273 33.2416V32.3729V31.0941L73.4522 28.2225C73.4522 28.0858 73.4566 27.8888 73.4649 27.6314C73.4898 26.449 73.502 25.6326 73.502 25.1822C73.502 23.9837 73.3819 23.1954 73.1405 22.8174C72.9075 22.4393 72.4668 22.2504 71.8187 22.2504C71.6935 22.2504 71.5984 22.2544 71.5319 22.2624C71.4649 22.2624 71.4068 22.2624 71.357 22.2624V21.1886C72.0722 21.2288 72.6954 21.261 73.228 21.2852C73.76 21.3012 74.2421 21.3093 74.6744 21.3093C75.4477 21.3093 76.4375 21.2771 77.6432 21.2128C78.8571 21.1404 79.6802 21.1042 80.1126 21.1042C83.3221 21.1042 85.8374 21.8763 87.658 23.4207C89.4793 24.957 90.3899 27.0683 90.3899 29.7548C90.3899 32.3608 89.4295 34.4682 87.5086 36.0769C85.5878 37.6775 83.0392 38.4778 79.8629 38.4778C79.6055 38.4778 78.8443 38.4457 77.5806 38.3813C76.3168 38.317 75.1776 38.2848 74.1635 38.2848C73.9222 38.2848 73.1073 38.317 71.7191 38.3813L71.1826 38.4055ZM92.3108 21.1886C93.1256 21.2369 93.8695 21.2731 94.5432 21.2972C95.2246 21.3214 95.8319 21.3334 96.3638 21.3334C96.8881 21.3334 97.4743 21.3214 98.1225 21.2972C98.7796 21.2731 99.5069 21.2369 100.305 21.1886V22.2745H100.043C99.4699 22.2745 99.058 22.3308 98.8083 22.4434C98.5676 22.556 98.3926 22.7611 98.2847 23.0587C98.1934 23.3081 98.127 23.7987 98.0854 24.5307C98.0433 25.2626 98.0229 26.5777 98.0229 28.4759V33.4346C98.0229 34.5688 98.0433 35.357 98.0854 35.7994C98.1353 36.2338 98.2183 36.5515 98.3345 36.7525C98.4507 36.9536 98.6461 37.0984 98.9207 37.1869C99.1953 37.2754 99.6027 37.3196 100.143 37.3196H100.455V38.4055C99.5401 38.3572 98.7381 38.321 98.0478 38.2969C97.3575 38.2728 96.7712 38.2607 96.2891 38.2607C95.8485 38.2607 95.2789 38.2728 94.5803 38.2969C93.8823 38.321 93.0713 38.3572 92.1486 38.4055V37.3196H92.4602C93.017 37.3196 93.4327 37.2754 93.7073 37.1869C93.9819 37.0984 94.169 36.9536 94.2686 36.7525C94.3932 36.5273 94.4807 36.1614 94.5305 35.6546C94.5803 35.1398 94.6052 34.2108 94.6052 32.8676V31.0457V25.8096C94.6052 24.8122 94.5803 24.1164 94.5305 23.7223C94.489 23.3201 94.4098 23.0225 94.2935 22.8295C94.1856 22.6365 93.9941 22.4957 93.7201 22.4072C93.4538 22.3187 93.0668 22.2745 92.5598 22.2745H92.3108V21.1886ZM105.656 37.3196H106.118C106.674 37.3196 107.082 37.2633 107.34 37.1507C107.597 37.03 107.789 36.8209 107.913 36.5233C107.996 36.2981 108.055 35.7511 108.088 34.8825C108.121 34.0138 108.138 32.4051 108.138 30.0565V23.1552H105.992C104.687 23.1552 103.793 23.3322 103.311 23.6861C102.829 24.04 102.496 24.7197 102.313 25.7251L101.141 25.4838C101.332 24.6875 101.478 23.9274 101.577 23.2035C101.686 22.4715 101.752 21.7517 101.777 21.0438C102.093 21.1484 102.538 21.2248 103.112 21.2731C103.685 21.3133 104.654 21.3334 106.017 21.3334H108.774H110.333H113.501C115.031 21.3334 116.095 21.3133 116.694 21.2731C117.301 21.2248 117.745 21.1444 118.028 21.0318V21.4058C118.028 22.0332 118.053 22.6847 118.103 23.3603C118.161 24.028 118.245 24.7358 118.353 25.4838L117.23 25.6527C117.089 24.6714 116.802 24.0118 116.369 23.674C115.937 23.3281 115.085 23.1552 113.812 23.1552H113.501H111.618C111.593 24.4421 111.576 25.709 111.568 26.9557C111.56 28.2025 111.555 29.6542 111.555 31.3112V33.5674C111.555 34.6291 111.58 35.3731 111.63 35.7994C111.68 36.2257 111.759 36.5434 111.867 36.7525C111.992 36.9536 112.187 37.0984 112.454 37.1869C112.719 37.2754 113.093 37.3196 113.576 37.3196H114.012V38.4055C113.804 38.3974 113.497 38.3853 113.09 38.3693C111.46 38.2969 110.346 38.2607 109.747 38.2607C109.314 38.2607 108.757 38.2728 108.075 38.2969C107.402 38.321 106.595 38.3572 105.656 38.4055V37.3196ZM118.951 21.1886C119.858 21.2288 120.627 21.261 121.259 21.2852C121.89 21.3012 122.452 21.3093 122.942 21.3093C123.3 21.3093 123.753 21.3012 124.302 21.2852C124.851 21.261 125.608 21.2288 126.572 21.1886V22.2745C126.015 22.2745 125.608 22.3227 125.35 22.4193C125.092 22.5077 124.963 22.6565 124.963 22.8657C124.963 23.1552 125.129 23.5896 125.462 24.1687C125.553 24.3295 125.624 24.4543 125.674 24.5427L128.43 29.3084L129.266 27.9089C131.029 24.9489 131.91 23.292 131.91 22.938C131.91 22.7048 131.815 22.5359 131.623 22.4313C131.432 22.3268 131.133 22.2745 130.725 22.2745H130.451V21.1886C131.182 21.2288 131.777 21.261 132.234 21.2852C132.7 21.3012 133.091 21.3093 133.407 21.3093C133.739 21.3093 134.142 21.3012 134.617 21.2852C135.099 21.261 135.702 21.2288 136.425 21.1886V22.2383C136.392 22.2383 136.354 22.2383 136.313 22.2383C136.271 22.2302 136.209 22.2262 136.126 22.2262C135.319 22.2262 134.35 23.119 133.22 24.9046C132.97 25.3149 132.771 25.6326 132.621 25.8578L129.278 31.0457L129.303 34.9066C129.32 35.9361 129.453 36.5997 129.702 36.8973C129.952 37.1949 130.439 37.3437 131.161 37.3437C131.212 37.3437 131.295 37.3397 131.411 37.3317C131.527 37.3236 131.615 37.3196 131.673 37.3196V38.4055C130.758 38.3572 129.944 38.321 129.228 38.2969C128.513 38.2728 127.907 38.2607 127.408 38.2607C126.958 38.2607 126.06 38.2888 124.714 38.3451C124.148 38.3693 123.703 38.3894 123.379 38.4055V37.3196C123.445 37.3196 123.537 37.3236 123.654 37.3317C123.778 37.3397 123.866 37.3437 123.915 37.3437C124.647 37.3437 125.142 37.1869 125.399 36.8732C125.666 36.5595 125.807 35.9201 125.824 34.9549L125.848 31.1423L121.683 24.3979C121.625 24.3014 121.537 24.1606 121.421 23.9756C120.698 22.8254 119.995 22.2504 119.313 22.2504C119.222 22.2504 119.147 22.2544 119.088 22.2624C119.039 22.2624 118.993 22.2624 118.951 22.2624V21.1886Z" fill="#222222"/>
<path d="M17.7196 10.4266L18.6363 10.2999C19.0437 10.2999 19.2693 10.6236 19.313 11.2712C19.3566 11.9046 19.4148 12.4254 19.4875 12.8336C19.5603 13.2418 19.6331 13.6078 19.7058 13.9315C19.7786 14.2552 19.8368 14.5297 19.8805 14.755C19.9386 14.9801 19.9678 15.1702 19.9678 15.325C19.9678 15.4658 19.8805 15.6065 19.7058 15.7473C19.5458 15.874 19.3711 15.9373 19.182 15.9373C18.8473 15.9373 18.5199 15.5924 18.1998 14.9027C17.5887 13.5937 17.0794 12.7491 16.672 12.369C15.7261 11.5527 14.3365 11.1445 12.5031 11.1445C9.94209 11.1445 8.22507 11.8834 7.352 13.3614C7.07555 13.84 6.93731 14.4242 6.93731 15.1139C6.93731 15.8036 7.10468 16.4511 7.4393 17.0563C7.78854 17.6616 8.31237 18.2739 9.01085 18.8933C9.72382 19.4985 10.626 20.1531 11.7173 20.8568C12.8086 21.5606 13.98 22.3278 15.2314 23.1583C16.4828 23.9887 17.4577 24.7418 18.1562 25.4174C18.8546 26.079 19.4221 26.7405 19.8586 27.4021C20.688 28.6549 21.1027 29.8724 21.1027 31.0548C21.1027 32.2372 20.9281 33.2929 20.5789 34.2219C20.2296 35.1368 19.6622 35.9392 18.8764 36.6289C17.174 38.1631 14.6566 38.9303 11.3244 38.9303C9.63653 38.9303 7.77398 38.5713 5.73686 37.8535C5.27122 37.6987 4.9802 37.5227 4.8638 37.3256C4.73283 37.0864 4.61643 36.6359 4.51457 35.9743C4.41271 35.3128 4.28903 34.7145 4.14352 34.1797C4.01256 33.6448 3.88888 33.1662 3.77247 32.7439L3.4669 31.646C3.37959 31.3223 3.33594 31.0548 3.33594 30.8437C3.33594 30.337 3.53238 30.0836 3.92525 30.0836C4.44909 30.0836 4.82742 30.4707 5.06024 31.2449C5.46766 32.6243 5.83144 33.5181 6.15156 33.9263C7.3884 35.5028 8.8217 36.5303 10.4514 37.0089C10.9316 37.1497 11.5718 37.22 12.3721 37.22C13.187 37.22 13.98 37.1074 14.7512 36.8823C15.537 36.643 16.1845 36.3262 16.6938 35.9321C17.6541 35.172 18.1343 34.2501 18.1343 33.1662C18.1343 32.0683 17.7705 31.0829 17.043 30.2103C16.33 29.3235 15.4642 28.5564 14.4456 27.9089C13.4416 27.2473 12.685 26.7617 12.1757 26.452C11.6809 26.1423 11.2153 25.8468 10.7788 25.5653C7.09737 23.1864 4.922 20.8216 4.25265 18.471C4.07804 17.8517 3.99073 17.1408 3.99073 16.3385C3.99073 15.5362 4.19445 14.7127 4.60187 13.8682C5.00931 13.0236 5.59134 12.2846 6.348 11.6512C8.02136 10.2718 10.1822 9.58203 12.8305 9.58203C14.0382 9.58203 15.0059 9.70169 15.7334 9.94099C16.752 10.2647 17.4141 10.4266 17.7196 10.4266Z" fill="#222222"/>
<path d="M46.4393 51.0899C46.9693 51.111 47.4589 51.1276 47.9079 51.1397C48.3568 51.1487 48.7513 51.1532 49.0912 51.1532C49.6618 51.1532 50.1435 51.1487 50.5364 51.1397C50.9324 51.1276 51.3003 51.111 51.6402 51.0899C51.6464 51.3523 51.6589 51.6117 51.6776 51.8681C51.6963 52.1214 51.7228 52.3779 51.7571 52.6372L51.3362 52.6915C51.2925 52.3145 51.1632 52.0596 50.948 51.9269C50.736 51.7942 50.3088 51.7278 49.6665 51.7278C49.5511 51.7278 49.3968 51.7309 49.2034 51.7369C49.0132 51.7399 48.7794 51.7459 48.5019 51.755C48.4956 52.1531 48.4894 52.5347 48.4832 52.8997C48.48 53.2646 48.4754 53.6145 48.4691 53.9493H48.6047C48.7856 53.9493 49.0101 53.9508 49.2783 53.9538C49.5495 53.9568 49.7304 53.9583 49.8208 53.9583C50.2511 53.9583 50.5333 53.9176 50.6674 53.8362C50.8015 53.7548 50.8732 53.5994 50.8825 53.3702L51.2286 53.4019C51.2286 53.5527 51.224 53.7427 51.2146 53.9719C51.2052 54.1981 51.2006 54.352 51.2006 54.4334C51.2006 54.5148 51.2021 54.6189 51.2052 54.7456C51.2115 54.8723 51.2193 55.0246 51.2286 55.2026L50.8358 55.2297V55.1754C50.8358 54.916 50.7578 54.741 50.6019 54.6506C50.4491 54.5601 50.0859 54.5148 49.5121 54.5148H48.8152H48.4598V55.0352C48.4598 55.3036 48.4613 55.5796 48.4645 55.8631C48.4676 56.1436 48.4722 56.4784 48.4785 56.8675C48.6188 56.8856 48.7934 56.9007 49.0023 56.9128C49.2143 56.9218 49.4451 56.9263 49.6946 56.9263C50.4398 56.9263 50.9355 56.851 51.1819 56.7001C51.4313 56.5493 51.6324 56.2597 51.7852 55.8315L52.2155 55.9627C52.1126 56.2522 52.0237 56.5282 51.9489 56.7906C51.8772 57.053 51.8164 57.3079 51.7665 57.5552C51.0307 57.5311 50.4444 57.5145 50.0079 57.5055C49.5714 57.4964 49.1832 57.4919 48.8433 57.4919C48.4598 57.4919 47.8471 57.5055 47.0052 57.5326C46.7152 57.5417 46.4954 57.5492 46.3457 57.5552V57.1571C46.3644 57.1601 46.3847 57.1631 46.4065 57.1661C46.4315 57.1661 46.4673 57.1661 46.5141 57.1661C46.776 57.1661 46.9538 57.0892 47.0473 56.9354C47.1408 56.7786 47.1876 56.3699 47.1876 55.7093V55.2569V54.8406L47.1969 53.8317C47.1969 53.7864 47.1985 53.7186 47.2017 53.6281C47.211 53.2571 47.2156 53.0037 47.2156 52.868C47.2156 52.7323 47.2141 52.5905 47.211 52.4427C47.2078 52.2949 47.2063 52.2134 47.2063 52.1984C47.2063 51.9359 47.1564 51.7535 47.0566 51.6509C46.96 51.5484 46.79 51.4971 46.5469 51.4971H46.4393V51.0899ZM54.6363 51.108C54.7549 51.111 54.9404 51.12 55.1929 51.1351C55.4486 51.1472 55.6311 51.1532 55.7402 51.1532C55.8368 51.1532 56.0052 51.1472 56.2453 51.1351C56.4885 51.12 56.6678 51.111 56.7832 51.108C56.8268 51.2196 56.8907 51.3387 56.9749 51.4654C57.0591 51.5891 57.1698 51.7293 57.307 51.8862L60.7447 55.8089C60.7416 55.4167 60.7369 54.8934 60.7306 54.2388C60.7182 52.8001 60.6948 52.0144 60.6605 51.8816C60.6168 51.7369 60.5482 51.6389 60.4547 51.5876C60.3612 51.5333 60.2068 51.5061 59.9917 51.5061H59.8373V51.108C60.1772 51.1231 60.436 51.1351 60.6137 51.1442C60.7914 51.1502 60.938 51.1532 61.0534 51.1532C61.1906 51.1532 61.3558 51.1502 61.5491 51.1442C61.7425 51.1351 61.9856 51.1231 62.2788 51.108V51.5061H62.1946C61.995 51.5061 61.8485 51.5287 61.7549 51.574C61.6614 51.6162 61.5943 51.6916 61.5538 51.8002C61.5039 51.945 61.4681 52.6251 61.4462 53.8407V53.9131L61.4275 54.8949C61.4213 55.2719 61.4166 55.6263 61.4135 55.9582C61.4103 56.2869 61.4088 56.5629 61.4088 56.7861C61.4088 56.9339 61.4135 57.0772 61.4229 57.2159C61.4353 57.3547 61.4525 57.4889 61.4743 57.6186H60.5576C60.5202 57.5432 60.4656 57.4572 60.3939 57.3607C60.3221 57.2642 60.185 57.0998 59.9823 56.8675L56.2079 52.5965C56.2079 54.0232 56.2157 55.0472 56.2313 55.6686C56.2468 56.2869 56.2702 56.6519 56.3014 56.7635C56.3451 56.9082 56.4136 57.0093 56.5072 57.0666C56.6039 57.1209 56.7598 57.148 56.9749 57.148H57.1199V57.5552C56.7645 57.5371 56.4947 57.5251 56.3108 57.519C56.1299 57.513 55.9802 57.51 55.8618 57.51C55.762 57.51 55.6248 57.513 55.4502 57.519C55.2787 57.5251 55.0043 57.5371 54.627 57.5552V57.148C54.6519 57.1511 54.6769 57.1541 54.7019 57.1571C54.7299 57.1571 54.7689 57.1571 54.8188 57.1571C55.2646 57.1571 55.4923 56.5644 55.5016 55.379C55.5047 55.1166 55.5063 54.913 55.5063 54.7682L55.5203 53.8045C55.5203 53.6084 55.5235 53.3279 55.5297 52.963C55.5359 52.595 55.539 52.3598 55.539 52.2572C55.539 51.9646 55.486 51.7655 55.38 51.6599C55.274 51.5514 55.0838 51.4971 54.8094 51.4971C54.7907 51.4971 54.7611 51.4986 54.7206 51.5016C54.6832 51.5046 54.655 51.5061 54.6363 51.5061V51.108ZM66.0791 57.148H66.2521C66.4616 57.148 66.6142 57.1269 66.7106 57.0847C66.8077 57.0394 66.8792 56.9611 66.9258 56.8494C66.9571 56.765 66.9788 56.5599 66.9916 56.2341C67.0037 55.9084 67.0101 55.3051 67.0101 54.4243V51.8364H66.2055C65.7164 51.8364 65.3811 51.9028 65.2004 52.0355C65.019 52.1682 64.8945 52.4231 64.8262 52.8001L64.3863 52.7096C64.458 52.411 64.5126 52.126 64.5499 51.8545C64.5906 51.58 64.6155 51.3101 64.625 51.0446C64.7432 51.0838 64.9098 51.1125 65.125 51.1306C65.3402 51.1457 65.7036 51.1532 66.2151 51.1532H67.249H67.8333H69.021C69.5951 51.1532 69.9942 51.1457 70.2184 51.1306C70.4463 51.1125 70.613 51.0824 70.719 51.0401V51.1804C70.719 51.4156 70.7286 51.6599 70.7471 51.9133C70.7688 52.1637 70.8001 52.4291 70.841 52.7096L70.4195 52.773C70.3665 52.405 70.2592 52.1576 70.097 52.0309C69.9348 51.9013 69.6155 51.8364 69.1385 51.8364H69.021H68.3148C68.3058 52.319 68.2994 52.7941 68.2962 53.2616C68.293 53.7291 68.2918 54.2736 68.2918 54.8949V55.741C68.2918 56.1391 68.3007 56.4181 68.3199 56.578C68.3384 56.7379 68.3678 56.857 68.4086 56.9354C68.4552 57.0108 68.5287 57.0651 68.6283 57.0983C68.7279 57.1315 68.8684 57.148 69.0491 57.148H69.2132V57.5552C69.1353 57.5522 69.0198 57.5477 68.8671 57.5417C68.256 57.5145 67.8377 57.5009 67.6136 57.5009C67.4514 57.5009 67.2426 57.5055 66.9865 57.5145C66.7343 57.5236 66.4316 57.5371 66.0791 57.5552V57.148ZM76.1144 51.0989V51.5061C76.0959 51.5061 76.0697 51.5046 76.0352 51.5016C76.0007 51.4986 75.9758 51.4971 75.9605 51.4971C75.6955 51.4971 75.516 51.5725 75.4222 51.7233C75.3289 51.8711 75.2823 52.2496 75.2823 52.8589V53.2209V53.895C75.2823 54.5043 75.2932 54.9371 75.3149 55.1935C75.3366 55.4469 75.3743 55.6474 75.4273 55.7953C75.5454 56.1542 75.7542 56.4302 76.0537 56.6232C76.3532 56.8132 76.721 56.9082 77.1578 56.9082C77.5161 56.9082 77.822 56.851 78.0742 56.7363C78.3271 56.6187 78.5327 56.4407 78.6917 56.2025C78.7977 56.0426 78.8724 55.8345 78.9165 55.5781C78.9631 55.3187 78.9861 54.9341 78.9861 54.4243C78.9861 54.3279 78.9848 54.168 78.9816 53.9448C78.9784 53.7186 78.9771 53.5421 78.9771 53.4154V52.9404C78.9771 52.3039 78.9299 51.9043 78.8367 51.7414C78.7434 51.5785 78.564 51.4971 78.299 51.4971C78.2581 51.4971 78.2268 51.4986 78.2051 51.5016C78.1834 51.5016 78.163 51.5016 78.1444 51.5016V51.0989C78.4344 51.114 78.6745 51.1261 78.8648 51.1351C79.0583 51.1412 79.223 51.1442 79.3603 51.1442C79.4887 51.1442 79.6426 51.1412 79.8233 51.1351C80.0078 51.1261 80.246 51.114 80.5391 51.0989V51.5061H80.4644C80.2773 51.5061 80.1387 51.5272 80.0481 51.5695C79.9574 51.6087 79.8922 51.6796 79.8514 51.7821C79.7926 51.9329 79.7549 52.5889 79.7396 53.7502C79.7396 53.9161 79.7377 54.0443 79.7345 54.1348C79.7345 54.1921 79.7345 54.275 79.7345 54.3836C79.7281 55.4152 79.6132 56.124 79.3884 56.5101C79.1643 56.8962 78.8335 57.1948 78.3973 57.4059C77.9605 57.6171 77.4522 57.7227 76.8724 57.7227C76.3392 57.7227 75.8653 57.6382 75.4503 57.4693C75.039 57.2973 74.7146 57.0546 74.4777 56.7408C74.3002 56.5056 74.1737 56.2341 74.099 55.9265C74.0237 55.6188 73.9866 55.1603 73.9866 54.551C73.9866 54.3881 73.9911 54.0986 74.0007 53.6824C74.0096 53.2661 74.0147 52.9328 74.0147 52.6825C74.0147 52.1546 73.9694 51.8273 73.8787 51.7007C73.7919 51.571 73.6169 51.5061 73.3551 51.5061H73.2427V51.0989C73.5952 51.114 73.8806 51.1261 74.099 51.1351C74.32 51.1412 74.5103 51.1442 74.6693 51.1442C74.8162 51.1442 75.0001 51.1412 75.221 51.1351C75.4426 51.1261 75.7402 51.114 76.1144 51.0989ZM85.158 54.3022C85.3234 54.3112 85.4639 54.3188 85.5794 54.3248C85.6944 54.3279 85.7914 54.3293 85.8694 54.3293C85.9658 54.3293 86.0686 54.3279 86.1778 54.3248C86.287 54.3188 86.4007 54.3112 86.5194 54.3022C86.7908 54.1333 86.9888 53.9418 87.1133 53.7276C87.241 53.5104 87.3049 53.2571 87.3049 52.9675C87.3049 52.5905 87.1727 52.2858 86.9077 52.0536C86.6459 51.8183 86.2966 51.7007 85.8598 51.7007C85.7257 51.7007 85.6024 51.7052 85.49 51.7142C85.3815 51.7233 85.2736 51.7369 85.1676 51.755C85.1644 52.0838 85.1612 52.4276 85.158 52.7865C85.158 53.1455 85.158 53.6507 85.158 54.3022ZM83.0628 57.1571C83.0877 57.1601 83.1113 57.1631 83.133 57.1661C83.1579 57.1661 83.1956 57.1661 83.2454 57.1661C83.5009 57.1661 83.6726 57.0847 83.7595 56.9218C83.8502 56.7589 83.8955 56.3276 83.8955 55.6279V55.2931V54.9809V54.8134L83.914 53.8C83.9172 53.5858 83.9191 53.3732 83.9191 53.1621C83.9217 52.9509 83.9236 52.6975 83.9236 52.402C83.9236 52.0219 83.8751 51.7761 83.7786 51.6645C83.6848 51.5529 83.5072 51.4971 83.2454 51.4971H83.1471V51.0989C83.4804 51.114 83.7569 51.1261 83.9747 51.1351C84.1931 51.1412 84.3834 51.1442 84.5456 51.1442C84.7761 51.1442 85.0628 51.1367 85.4064 51.1216C85.7493 51.1064 85.9798 51.0989 86.0986 51.0989C86.8719 51.0989 87.4811 51.2543 87.9269 51.5649C88.3732 51.8756 88.5961 52.2979 88.5961 52.8318C88.5961 53.1877 88.4837 53.5014 88.2589 53.7729C88.038 54.0443 87.704 54.2766 87.2583 54.4696L88.1753 55.7184C88.6114 56.3759 88.9294 56.7891 89.1293 56.958C89.3318 57.1269 89.547 57.2114 89.7743 57.2114C89.7871 57.2114 89.8043 57.2099 89.826 57.2068C89.8509 57.2039 89.8694 57.2023 89.8822 57.2023V57.5824C89.6919 57.5975 89.5265 57.608 89.3867 57.6141C89.2462 57.6231 89.1229 57.6276 89.0169 57.6276C88.6363 57.6276 88.3388 57.5869 88.1236 57.5055C87.9084 57.424 87.7149 57.2838 87.5437 57.0847C87.4626 56.9912 87.2627 56.6911 86.9447 56.1844C86.6267 55.6746 86.3477 55.2388 86.1075 54.8768C85.9147 54.8828 85.7429 54.8874 85.5935 54.8904C85.4434 54.8934 85.2985 54.8949 85.158 54.8949V56.0984C85.158 56.5599 85.2052 56.851 85.2985 56.9716C85.3923 57.0892 85.5762 57.148 85.8502 57.148H85.9811V57.5552C85.7257 57.5402 85.4703 57.5296 85.2142 57.5236C84.9587 57.5145 84.6969 57.51 84.4287 57.51C84.3412 57.51 84.2116 57.513 84.0405 57.519C83.8719 57.5221 83.5462 57.5341 83.0628 57.5552V57.1571ZM92.2845 51.0899C92.8146 51.111 93.3037 51.1276 93.7526 51.1397C94.2022 51.1487 94.5962 51.1532 94.9359 51.1532C95.5068 51.1532 95.9883 51.1487 96.3817 51.1397C96.7776 51.1276 97.1454 51.111 97.4852 51.0899C97.4915 51.3523 97.5037 51.6117 97.5228 51.8681C97.5414 52.1214 97.5682 52.3779 97.602 52.6372L97.1812 52.6915C97.1378 52.3145 97.0081 52.0596 96.7929 51.9269C96.5809 51.7942 96.1537 51.7278 95.5113 51.7278C95.3964 51.7278 95.2418 51.7309 95.0483 51.7369C94.858 51.7399 94.6243 51.7459 94.3472 51.755C94.3408 52.1531 94.3344 52.5347 94.328 52.8997C94.3248 53.2646 94.3204 53.6145 94.314 53.9493H94.45C94.6307 53.9493 94.8548 53.9508 95.123 53.9538C95.3944 53.9568 95.5752 53.9583 95.6658 53.9583C96.0962 53.9583 96.3785 53.9176 96.5126 53.8362C96.6467 53.7548 96.7182 53.5994 96.7278 53.3702L97.0739 53.4019C97.0739 53.5527 97.0688 53.7427 97.0599 53.9719C97.0503 54.1981 97.0458 54.352 97.0458 54.4334C97.0458 54.5148 97.0471 54.6189 97.0503 54.7456C97.0567 54.8723 97.0643 55.0246 97.0739 55.2026L96.6805 55.2297V55.1754C96.6805 54.916 96.6026 54.741 96.4468 54.6506C96.2942 54.5601 95.9308 54.5148 95.3574 54.5148H94.6601H94.305V55.0352C94.305 55.3036 94.3063 55.5796 94.3095 55.8631C94.3127 56.1436 94.3172 56.4784 94.3235 56.8675C94.464 56.8856 94.6384 56.9007 94.8472 56.9128C95.0592 56.9218 95.2904 56.9263 95.5394 56.9263C96.2846 56.9263 96.7808 56.851 97.0266 56.7001C97.2763 56.5493 97.4775 56.2597 97.6301 55.8315L98.0605 55.9627C97.9577 56.2522 97.8689 56.5282 97.7942 56.7906C97.7221 57.053 97.6614 57.3079 97.6116 57.5552C96.8759 57.5311 96.2897 57.5145 95.8529 57.5055C95.4161 57.4964 95.0279 57.4919 94.6882 57.4919C94.305 57.4919 93.692 57.5055 92.8503 57.5326C92.5604 57.5417 92.3401 57.5492 92.1907 57.5552V57.1571C92.2092 57.1601 92.2296 57.1631 92.2513 57.1661C92.2762 57.1661 92.3126 57.1661 92.3593 57.1661C92.6211 57.1661 92.7986 57.0892 92.8925 56.9354C92.9857 56.7786 93.0323 56.3699 93.0323 55.7093V55.2569V54.8406L93.0419 53.8317C93.0419 53.7864 93.0438 53.7186 93.0464 53.6281C93.056 53.2571 93.0604 53.0037 93.0604 52.868C93.0604 52.7323 93.0592 52.5905 93.056 52.4427C93.0528 52.2949 93.0515 52.2134 93.0515 52.1984C93.0515 51.9359 93.0017 51.7535 92.9014 51.6509C92.805 51.5484 92.6351 51.4971 92.3918 51.4971H92.2845V51.0899ZM105.186 51.2935V51.393C105.186 51.6132 105.199 51.8394 105.224 52.0717C105.252 52.3009 105.292 52.5377 105.345 52.782L104.859 52.8589C104.806 52.4668 104.655 52.1712 104.405 51.9721C104.159 51.773 103.819 51.6735 103.386 51.6735C102.983 51.6735 102.669 51.7504 102.441 51.9043C102.213 52.0581 102.1 52.2707 102.1 52.5422C102.1 52.7232 102.146 52.88 102.24 53.0128C102.333 53.1424 102.478 53.2571 102.675 53.3566C102.828 53.435 103.091 53.5346 103.465 53.6552C103.843 53.7758 104.122 53.8709 104.303 53.9402C104.711 54.1031 105.017 54.3158 105.219 54.5782C105.425 54.8406 105.528 55.1528 105.528 55.5148C105.528 56.1723 105.268 56.6971 104.747 57.0892C104.226 57.4814 103.52 57.6774 102.628 57.6774C102.335 57.6774 102.039 57.6488 101.739 57.5914C101.44 57.5371 101.149 57.4572 100.865 57.3516C100.865 57.3185 100.866 57.2747 100.87 57.2204C100.873 57.1631 100.874 57.1209 100.874 57.0937C100.874 56.8615 100.859 56.6248 100.827 56.3834C100.799 56.1421 100.754 55.8933 100.692 55.6369L101.202 55.5148C101.32 56.0697 101.51 56.4574 101.773 56.6775C102.038 56.8977 102.43 57.0078 102.951 57.0078C103.372 57.0078 103.704 56.9173 103.947 56.7363C104.19 56.5553 104.312 56.3126 104.312 56.0079C104.312 55.5736 103.883 55.2101 103.025 54.9175C102.836 54.8542 102.691 54.8044 102.591 54.7682C101.999 54.5541 101.573 54.3052 101.314 54.0217C101.058 53.7382 100.93 53.3838 100.93 52.9585C100.93 52.3733 101.164 51.9013 101.632 51.5423C102.1 51.1834 102.718 51.0039 103.489 51.0039C103.757 51.0039 104.028 51.0281 104.303 51.0763C104.58 51.1216 104.875 51.1939 105.186 51.2935Z" fill="#222222"/>
<path d="M34.6865 48.0859C34.842 48.0904 35.0592 48.0992 35.3382 48.1125C36.0562 48.1479 36.5364 48.1656 36.7788 48.1656C37.0989 48.1656 37.6888 48.1457 38.5485 48.1058C38.7681 48.097 38.9373 48.0904 39.0562 48.0859V48.6633C38.6263 48.6721 38.3451 48.7163 38.2124 48.796C38.0844 48.8756 38.0204 49.0282 38.0204 49.2538C38.0204 49.3379 38.0364 49.4441 38.0684 49.5723C38.1004 49.7006 38.1621 49.8975 38.2536 50.1629L40.2429 55.5644L40.2841 55.4583C41.8618 51.6538 42.6507 49.5723 42.6507 49.214C42.6507 49.0061 42.5844 48.8623 42.4517 48.7827C42.3192 48.703 42.0493 48.6588 41.6423 48.65V48.0859C41.7155 48.0904 41.8229 48.0948 41.9647 48.0992C42.6644 48.1434 43.156 48.1656 43.4395 48.1656C43.6682 48.1656 44.1118 48.1457 44.7703 48.1058C44.9716 48.097 45.1271 48.0904 45.2368 48.0859V48.6832C45.0585 48.6832 44.9007 48.6964 44.7635 48.7229C44.6309 48.7495 44.5188 48.7893 44.4274 48.8424C44.2536 48.9486 43.9541 49.4949 43.5288 50.4814C43.3504 50.8928 43.2086 51.2158 43.1035 51.4503C42.1568 53.5914 41.4822 55.1397 41.0798 56.0953C40.6774 57.0464 40.4762 57.5685 40.4762 57.6614H39.0699C39.0699 57.5507 38.807 56.781 38.281 55.3521C37.7597 53.9232 37.1423 52.3373 36.4289 50.5942C36.3923 50.5014 36.3374 50.3686 36.2643 50.1961C35.8435 49.1609 35.3748 48.6433 34.858 48.6433C34.8397 48.6433 34.81 48.6455 34.7688 48.65C34.7322 48.6544 34.7048 48.6566 34.6865 48.6566V48.0859Z" fill="#222222"/>
<path d="M114.384 52.9219H136.734" stroke="#222222"/>
<path d="M3.9082 52.9219H25.62" stroke="#222222"/>
</g>
<defs>
<clipPath id="clip0">
<rect width="136.018" height="61.1553" fill="white" transform="translate(0.716797 0.722656)"/>
</clipPath>
</defs>
</svg>
