<svg width="26" height="26" viewBox="0 0 26 26" fill="none" xmlns="http://www.w3.org/2000/svg">
<path fill-rule="evenodd" clip-rule="evenodd" d="M12.6732 25.9987C17.2756 25.9987 21.0065 22.2677 21.0065 17.6654C21.0065 13.063 17.2756 9.33203 12.6732 9.33203C8.0708 9.33203 4.33984 13.063 4.33984 17.6654C4.33984 22.2677 8.0708 25.9987 12.6732 25.9987ZM12.6732 22.8737C15.5497 22.8737 17.8815 20.5418 17.8815 17.6654C17.8815 14.7889 15.5497 12.457 12.6732 12.457C9.79669 12.457 7.46484 14.7889 7.46484 17.6654C7.46484 20.5418 9.79669 22.8737 12.6732 22.8737Z" fill="black"/>
<path d="M15.7988 17.668C15.7988 19.3939 14.3997 20.793 12.6738 20.793C10.9479 20.793 9.54883 19.3939 9.54883 17.668C9.54883 15.9421 10.9479 14.543 12.6738 14.543C14.3997 14.543 15.7988 15.9421 15.7988 17.668Z" fill="black"/>
<path d="M17.4492 8.40625C17.7111 8.54155 18.0376 8.4508 18.1774 8.19128L21.2228 2.53552C21.5965 1.84153 21.0938 1 20.3056 1H16.418C16.0368 1 15.686 1.20822 15.5035 1.54286L13.9972 4.30441C13.9124 4.45987 13.9124 4.64776 13.9972 4.80322L15.4469 7.46106C15.5137 7.5834 15.6268 7.67329 15.76 7.71452C16.3469 7.89629 16.9117 8.12856 17.4492 8.40625Z" fill="black"/>
<path d="M7.89967 8.4065C7.63767 8.54154 7.31111 8.4508 7.17137 8.19128L4.12596 2.53552C3.75227 1.84153 4.25492 1 5.04312 1H8.93077C9.31197 1 9.66271 1.20822 9.84525 1.54286L12.527 6.45941C12.7193 6.81194 12.4566 7.24477 12.0558 7.26882C10.6101 7.35557 9.18812 7.74243 7.89967 8.4065Z" fill="black"/>
</svg>
