<svg width="54" height="55" viewBox="0 0 54 55" fill="none" xmlns="http://www.w3.org/2000/svg">
<rect y="0.00195312" width="54" height="54" rx="10" fill="#FFF037"/>
<path d="M27 15C20.3732 15 15 20.3732 15 27C15 33.6268 20.3732 39 27 39C33.6268 39 39 33.6268 39 27C39 20.3732 33.6268 15 27 15ZM27.5973 32.8179L27.6027 33.667C27.6027 33.7848 27.5063 33.8839 27.3884 33.8839H26.6277C26.5098 33.8839 26.4134 33.7875 26.4134 33.6696V32.8286C24.0348 32.6518 22.9152 31.2964 22.7946 29.8232C22.7839 29.6973 22.883 29.5902 23.0089 29.5902H24.2464C24.3509 29.5902 24.442 29.6652 24.458 29.767C24.5946 30.6161 25.2563 31.2509 26.4429 31.4089V27.5866L25.7812 27.4179C24.3804 27.083 23.0464 26.2098 23.0464 24.3991C23.0464 22.4464 24.5304 21.3964 26.4268 21.2116V20.3277C26.4268 20.2098 26.5232 20.1134 26.6411 20.1134H27.3938C27.5116 20.1134 27.608 20.2098 27.608 20.3277V21.2036C29.4429 21.3884 30.8196 22.4598 30.9804 24.1286C30.9937 24.2545 30.8946 24.3643 30.7661 24.3643H29.5634C29.4563 24.3643 29.3652 24.2839 29.3518 24.1795C29.2446 23.3973 28.6179 22.7598 27.5973 22.6205V26.2179L28.2777 26.3759C30.0134 26.8045 31.1946 27.6348 31.1946 29.4937C31.1946 31.5107 29.6946 32.6357 27.5973 32.8179ZM24.7125 24.2759C24.7125 24.9563 25.133 25.4839 26.0384 25.8107C26.1643 25.8616 26.2902 25.9018 26.4402 25.9446V22.6232C25.4518 22.7491 24.7125 23.3036 24.7125 24.2759ZM27.833 27.8973C27.758 27.8813 27.683 27.8625 27.5973 27.8384V31.4196C28.7384 31.3179 29.5259 30.6911 29.5259 29.6411C29.5259 28.8187 29.1 28.283 27.833 27.8973Z" fill="black"/>
</svg>
