<svg width="54" height="55" viewBox="0 0 54 55" fill="none" xmlns="http://www.w3.org/2000/svg">
<rect y="0.00195312" width="54" height="54" rx="10" fill="#FFF037"/>
<g clip-path="url(#clip0_11399_26795)">
<path d="M38.2969 37.5974H37.5469L37.7156 15.707C37.7156 15.3185 37.4011 15.0039 37.0125 15.0039H34.2C33.8115 15.0039 33.4969 15.3185 33.4969 15.707L33.3281 37.5974H31.9219V26.9568C31.9219 26.5683 31.6073 26.2537 31.2188 26.2537H28.4063C28.0177 26.2537 27.7031 26.5683 27.7031 26.9568V37.5974H26.2969V32.5818C26.2969 32.1933 25.9823 31.8787 25.5938 31.8787H22.7813C22.3927 31.8787 22.0781 32.1933 22.0781 32.5818V37.5974H20.6719V29.7693C20.6719 29.3808 20.3573 29.0662 19.9688 29.0662H17.1562C16.7677 29.0662 16.4531 29.3808 16.4531 29.7693V37.5974H15.7031C15.3146 37.5974 15 37.912 15 38.3006C15 38.6891 15.3146 39.0037 15.7031 39.0037H38.2969C38.6854 39.0037 39 38.6891 39 38.3006C39 37.912 38.6854 37.5974 38.2969 37.5974Z" fill="#222222"/>
<path d="M21.054 22.2516H21.026C20.8875 22.2516 20.7548 22.1966 20.6569 22.0987C20.559 22.0008 20.504 21.868 20.504 21.7296C20.504 21.5837 20.4461 21.4438 20.3429 21.3407C20.2398 21.2376 20.0999 21.1796 19.954 21.1796C19.8081 21.1796 19.6682 21.2376 19.5651 21.3407C19.462 21.4438 19.404 21.5837 19.404 21.7296C19.404 22.1598 19.5749 22.5723 19.8791 22.8765C20.1832 23.1807 20.5958 23.3516 21.026 23.3516H21.054V23.9016C21.054 24.0474 21.112 24.1873 21.2151 24.2905C21.3182 24.3936 21.4581 24.4516 21.604 24.4516C21.7499 24.4516 21.8898 24.3936 21.9929 24.2905C22.0961 24.1873 22.154 24.0474 22.154 23.9016V23.3516C22.5916 23.3516 23.0113 23.1777 23.3207 22.8683C23.6302 22.5589 23.804 22.1392 23.804 21.7016C23.804 21.264 23.6302 20.8443 23.3207 20.5348C23.0113 20.2254 22.5916 20.0516 22.154 20.0516V18.9516H22.1661C22.4631 18.9516 22.704 19.1925 22.704 19.4895C22.704 19.6353 22.762 19.7752 22.8651 19.8784C22.9682 19.9815 23.1081 20.0395 23.254 20.0395C23.3999 20.0395 23.5398 19.9815 23.6429 19.8784C23.7461 19.7752 23.804 19.6353 23.804 19.4895C23.804 19.0551 23.6314 18.6385 23.3243 18.3313C23.0171 18.0241 22.6005 17.8516 22.1661 17.8516H22.154V17.3016C22.154 17.1557 22.0961 17.0158 21.9929 16.9127C21.8898 16.8095 21.7499 16.7516 21.604 16.7516C21.4581 16.7516 21.3182 16.8095 21.2151 16.9127C21.112 17.0158 21.054 17.1557 21.054 17.3016V17.8516C20.6164 17.8516 20.1967 18.0254 19.8873 18.3348C19.5778 18.6443 19.404 19.064 19.404 19.5016C19.404 19.9392 19.5778 20.3589 19.8873 20.6683C20.1967 20.9777 20.6164 21.1516 21.054 21.1516V22.2516ZM22.154 22.2516V21.1516C22.2999 21.1516 22.4398 21.2095 22.5429 21.3127C22.6461 21.4158 22.704 21.5557 22.704 21.7016C22.704 21.8474 22.6461 21.9873 22.5429 22.0905C22.4398 22.1936 22.2999 22.2516 22.154 22.2516ZM21.054 18.9516V20.0516C20.9081 20.0516 20.7682 19.9936 20.6651 19.8905C20.562 19.7873 20.504 19.6474 20.504 19.5016C20.504 19.3557 20.562 19.2158 20.6651 19.1127C20.7682 19.0095 20.9081 18.9516 21.054 18.9516ZM21.604 26.1016C18.5664 26.1016 16.104 23.6392 16.104 20.6016C16.104 17.5639 18.5664 15.1016 21.604 15.1016C24.6417 15.1016 27.104 17.5639 27.104 20.6016C27.104 23.6392 24.6417 26.1016 21.604 26.1016Z" fill="#222222"/>
</g>
<defs>
<clipPath id="clip0_11399_26795">
<rect width="24" height="24" fill="white" transform="translate(15 15.0039)"/>
</clipPath>
</defs>
</svg>
