<svg width="942" height="539" viewBox="0 0 942 539" fill="none" xmlns="http://www.w3.org/2000/svg">
<rect x="0.5" y="0.5" width="941" height="538" rx="19.5" fill="#FDF235" stroke="#C7C133"/>
<rect x="80" y="45" width="778" height="125" rx="20" fill="#FFF798"/>
<rect x="80" y="190" width="246" height="295" rx="20" fill="#FFFBCB"/>
<rect x="346" y="190" width="246" height="295" rx="20" fill="#FFFBCB"/>
<rect x="612" y="190" width="246" height="295" rx="20" fill="#FFFBCB"/>
<path d="M193.131 98.854V102.005H188.853V115H184.92V102.005H180.642V98.854H193.131ZM199.038 98.854V115H195.105V98.854H199.038ZM205.821 102.005V105.271H211.088V108.307H205.821V111.849H211.778V115H201.888V98.854H211.778V102.005H205.821ZM222.566 115L219.208 108.905H218.265V115H214.332V98.854H220.933C222.205 98.854 223.286 99.0763 224.176 99.521C225.08 99.9657 225.755 100.579 226.2 101.361C226.644 102.128 226.867 102.986 226.867 103.937C226.867 105.01 226.56 105.969 225.947 106.812C225.349 107.655 224.459 108.253 223.279 108.606L227.005 115H222.566ZM218.265 106.122H220.703C221.423 106.122 221.96 105.946 222.313 105.593C222.681 105.24 222.865 104.742 222.865 104.098C222.865 103.485 222.681 103.002 222.313 102.649C221.96 102.296 221.423 102.12 220.703 102.12H218.265V106.122Z" fill="#7F7619"/>
<path d="M184.411 214.854V218.005H180.133V231H176.2V218.005H171.922V214.854H184.411ZM188.362 216.832C187.672 216.832 187.105 216.633 186.66 216.234C186.231 215.82 186.016 215.314 186.016 214.716C186.016 214.103 186.231 213.597 186.66 213.198C187.105 212.784 187.672 212.577 188.362 212.577C189.037 212.577 189.589 212.784 190.018 213.198C190.463 213.597 190.685 214.103 190.685 214.716C190.685 215.314 190.463 215.82 190.018 216.234C189.589 216.633 189.037 216.832 188.362 216.832ZM190.317 218.166V231H186.384V218.166H190.317ZM205.266 224.376C205.266 224.744 205.243 225.127 205.197 225.526H196.296C196.357 226.323 196.61 226.937 197.055 227.366C197.515 227.78 198.074 227.987 198.734 227.987C199.715 227.987 200.397 227.573 200.781 226.745H204.967C204.752 227.588 204.361 228.347 203.794 229.022C203.242 229.697 202.544 230.226 201.701 230.609C200.857 230.992 199.914 231.184 198.872 231.184C197.614 231.184 196.495 230.916 195.514 230.379C194.532 229.842 193.766 229.076 193.214 228.079C192.662 227.082 192.386 225.917 192.386 224.583C192.386 223.249 192.654 222.084 193.191 221.087C193.743 220.09 194.509 219.324 195.491 218.787C196.472 218.25 197.599 217.982 198.872 217.982C200.114 217.982 201.218 218.243 202.184 218.764C203.15 219.285 203.901 220.029 204.438 220.995C204.99 221.961 205.266 223.088 205.266 224.376ZM201.241 223.341C201.241 222.666 201.011 222.13 200.551 221.731C200.091 221.332 199.516 221.133 198.826 221.133C198.166 221.133 197.607 221.325 197.147 221.708C196.702 222.091 196.426 222.636 196.319 223.341H201.241ZM211.274 220.305C211.734 219.6 212.309 219.048 212.999 218.649C213.689 218.235 214.455 218.028 215.299 218.028V222.191H214.218C213.236 222.191 212.5 222.406 212.01 222.835C211.519 223.249 211.274 223.985 211.274 225.043V231H207.341V218.166H211.274V220.305ZM221.661 222.375C221.661 219.738 222.167 217.66 223.179 216.142C224.207 214.624 225.855 213.865 228.124 213.865C230.394 213.865 232.034 214.624 233.046 216.142C234.074 217.66 234.587 219.738 234.587 222.375C234.587 225.043 234.074 227.136 233.046 228.654C232.034 230.172 230.394 230.931 228.124 230.931C225.855 230.931 224.207 230.172 223.179 228.654C222.167 227.136 221.661 225.043 221.661 222.375ZM230.723 222.375C230.723 220.826 230.555 219.638 230.217 218.81C229.88 217.967 229.182 217.545 228.124 217.545C227.066 217.545 226.369 217.967 226.031 218.81C225.694 219.638 225.525 220.826 225.525 222.375C225.525 223.418 225.587 224.284 225.709 224.974C225.832 225.649 226.077 226.201 226.445 226.63C226.829 227.044 227.388 227.251 228.124 227.251C228.86 227.251 229.412 227.044 229.78 226.63C230.164 226.201 230.417 225.649 230.539 224.974C230.662 224.284 230.723 223.418 230.723 222.375Z" fill="#7F7619"/>
<path d="M187.089 260.854V264.005H182.811V277H178.878V264.005H174.6V260.854H187.089ZM191.041 262.832C190.351 262.832 189.783 262.633 189.339 262.234C188.909 261.82 188.695 261.314 188.695 260.716C188.695 260.103 188.909 259.597 189.339 259.198C189.783 258.784 190.351 258.577 191.041 258.577C191.715 258.577 192.267 258.784 192.697 259.198C193.141 259.597 193.364 260.103 193.364 260.716C193.364 261.314 193.141 261.82 192.697 262.234C192.267 262.633 191.715 262.832 191.041 262.832ZM192.996 264.166V277H189.063V264.166H192.996ZM207.944 270.376C207.944 270.744 207.921 271.127 207.875 271.526H198.974C199.035 272.323 199.288 272.937 199.733 273.366C200.193 273.78 200.753 273.987 201.412 273.987C202.393 273.987 203.076 273.573 203.459 272.745H207.645C207.43 273.588 207.039 274.347 206.472 275.022C205.92 275.697 205.222 276.226 204.379 276.609C203.536 276.992 202.593 277.184 201.55 277.184C200.293 277.184 199.173 276.916 198.192 276.379C197.211 275.842 196.444 275.076 195.892 274.079C195.34 273.082 195.064 271.917 195.064 270.583C195.064 269.249 195.332 268.084 195.869 267.087C196.421 266.09 197.188 265.324 198.169 264.787C199.15 264.25 200.277 263.982 201.55 263.982C202.792 263.982 203.896 264.243 204.862 264.764C205.828 265.285 206.579 266.029 207.116 266.995C207.668 267.961 207.944 269.088 207.944 270.376ZM203.919 269.341C203.919 268.666 203.689 268.13 203.229 267.731C202.769 267.332 202.194 267.133 201.504 267.133C200.845 267.133 200.285 267.325 199.825 267.708C199.38 268.091 199.104 268.636 198.997 269.341H203.919ZM213.952 266.305C214.412 265.6 214.987 265.048 215.677 264.649C216.367 264.235 217.133 264.028 217.977 264.028V268.191H216.896C215.914 268.191 215.178 268.406 214.688 268.835C214.197 269.249 213.952 269.985 213.952 271.043V277H210.019V264.166H213.952V266.305ZM223.926 263.867V260.21H230.297V277H226.203V263.867H223.926Z" fill="#7F7619"/>
<path d="M185.343 306.854V310.005H181.065V323H177.132V310.005H172.854V306.854H185.343ZM189.295 308.832C188.605 308.832 188.037 308.633 187.593 308.234C187.163 307.82 186.949 307.314 186.949 306.716C186.949 306.103 187.163 305.597 187.593 305.198C188.037 304.784 188.605 304.577 189.295 304.577C189.969 304.577 190.521 304.784 190.951 305.198C191.395 305.597 191.618 306.103 191.618 306.716C191.618 307.314 191.395 307.82 190.951 308.234C190.521 308.633 189.969 308.832 189.295 308.832ZM191.25 310.166V323H187.317V310.166H191.25ZM206.198 316.376C206.198 316.744 206.175 317.127 206.129 317.526H197.228C197.289 318.323 197.542 318.937 197.987 319.366C198.447 319.78 199.006 319.987 199.666 319.987C200.647 319.987 201.329 319.573 201.713 318.745H205.899C205.684 319.588 205.293 320.347 204.726 321.022C204.174 321.697 203.476 322.226 202.633 322.609C201.789 322.992 200.846 323.184 199.804 323.184C198.546 323.184 197.427 322.916 196.446 322.379C195.464 321.842 194.698 321.076 194.146 320.079C193.594 319.082 193.318 317.917 193.318 316.583C193.318 315.249 193.586 314.084 194.123 313.087C194.675 312.09 195.441 311.324 196.423 310.787C197.404 310.25 198.531 309.982 199.804 309.982C201.046 309.982 202.15 310.243 203.116 310.764C204.082 311.285 204.833 312.029 205.37 312.995C205.922 313.961 206.198 315.088 206.198 316.376ZM202.173 315.341C202.173 314.666 201.943 314.13 201.483 313.731C201.023 313.332 200.448 313.133 199.758 313.133C199.098 313.133 198.539 313.325 198.079 313.708C197.634 314.091 197.358 314.636 197.251 315.341H202.173ZM212.206 312.305C212.666 311.6 213.241 311.048 213.931 310.649C214.621 310.235 215.387 310.028 216.231 310.028V314.191H215.15C214.168 314.191 213.432 314.406 212.942 314.835C212.451 315.249 212.206 315.985 212.206 317.043V323H208.273V310.166H212.206V312.305ZM222.456 319.849C222.977 319.435 223.215 319.243 223.169 319.274C224.671 318.032 225.852 317.012 226.711 316.215C227.585 315.418 228.321 314.582 228.919 313.708C229.517 312.834 229.816 311.983 229.816 311.155C229.816 310.526 229.67 310.036 229.379 309.683C229.087 309.33 228.65 309.154 228.068 309.154C227.485 309.154 227.025 309.376 226.688 309.821C226.366 310.25 226.205 310.864 226.205 311.661H222.41C222.44 310.358 222.716 309.269 223.238 308.395C223.774 307.521 224.472 306.877 225.331 306.463C226.205 306.049 227.171 305.842 228.229 305.842C230.053 305.842 231.426 306.31 232.346 307.245C233.281 308.18 233.749 309.399 233.749 310.902C233.749 312.543 233.189 314.068 232.07 315.479C230.95 316.874 229.524 318.239 227.792 319.573H234.002V322.77H222.456V319.849Z" fill="#7F7619"/>
<path d="M184.45 352.854V356.005H180.172V369H176.239V356.005H171.961V352.854H184.45ZM188.402 354.832C187.712 354.832 187.144 354.633 186.7 354.234C186.27 353.82 186.056 353.314 186.056 352.716C186.056 352.103 186.27 351.597 186.7 351.198C187.144 350.784 187.712 350.577 188.402 350.577C189.076 350.577 189.628 350.784 190.058 351.198C190.502 351.597 190.725 352.103 190.725 352.716C190.725 353.314 190.502 353.82 190.058 354.234C189.628 354.633 189.076 354.832 188.402 354.832ZM190.357 356.166V369H186.424V356.166H190.357ZM205.305 362.376C205.305 362.744 205.282 363.127 205.236 363.526H196.335C196.396 364.323 196.649 364.937 197.094 365.366C197.554 365.78 198.113 365.987 198.773 365.987C199.754 365.987 200.436 365.573 200.82 364.745H205.006C204.791 365.588 204.4 366.347 203.833 367.022C203.281 367.697 202.583 368.226 201.74 368.609C200.896 368.992 199.953 369.184 198.911 369.184C197.653 369.184 196.534 368.916 195.553 368.379C194.571 367.842 193.805 367.076 193.253 366.079C192.701 365.082 192.425 363.917 192.425 362.583C192.425 361.249 192.693 360.084 193.23 359.087C193.782 358.09 194.548 357.324 195.53 356.787C196.511 356.25 197.638 355.982 198.911 355.982C200.153 355.982 201.257 356.243 202.223 356.764C203.189 357.285 203.94 358.029 204.477 358.995C205.029 359.961 205.305 361.088 205.305 362.376ZM201.28 361.341C201.28 360.666 201.05 360.13 200.59 359.731C200.13 359.332 199.555 359.133 198.865 359.133C198.205 359.133 197.646 359.325 197.186 359.708C196.741 360.091 196.465 360.636 196.358 361.341H201.28ZM211.313 358.305C211.773 357.6 212.348 357.048 213.038 356.649C213.728 356.235 214.494 356.028 215.338 356.028V360.191H214.257C213.275 360.191 212.539 360.406 212.049 360.835C211.558 361.249 211.313 361.985 211.313 363.043V369H207.38V356.166H211.313V358.305ZM221.839 356.948C221.9 355.307 222.437 354.042 223.449 353.153C224.461 352.264 225.833 351.819 227.566 351.819C228.716 351.819 229.697 352.018 230.51 352.417C231.338 352.816 231.959 353.36 232.373 354.05C232.802 354.74 233.017 355.514 233.017 356.373C233.017 357.385 232.764 358.213 232.258 358.857C231.752 359.486 231.161 359.915 230.487 360.145V360.237C231.361 360.528 232.051 361.011 232.557 361.686C233.063 362.361 233.316 363.227 233.316 364.285C233.316 365.236 233.093 366.079 232.649 366.815C232.219 367.536 231.583 368.103 230.74 368.517C229.912 368.931 228.923 369.138 227.773 369.138C225.933 369.138 224.461 368.686 223.357 367.781C222.268 366.876 221.693 365.512 221.632 363.687H225.45C225.465 364.362 225.657 364.898 226.025 365.297C226.393 365.68 226.929 365.872 227.635 365.872C228.233 365.872 228.693 365.703 229.015 365.366C229.352 365.013 229.521 364.553 229.521 363.986C229.521 363.25 229.283 362.721 228.808 362.399C228.348 362.062 227.604 361.893 226.577 361.893H225.841V358.696H226.577C227.359 358.696 227.987 358.566 228.463 358.305C228.953 358.029 229.199 357.546 229.199 356.856C229.199 356.304 229.045 355.875 228.739 355.568C228.432 355.261 228.01 355.108 227.474 355.108C226.891 355.108 226.454 355.284 226.163 355.637C225.887 355.99 225.726 356.427 225.68 356.948H221.839Z" fill="#7F7619"/>
<path d="M184.13 398.854V402.005H179.852V415H175.919V402.005H171.641V398.854H184.13ZM188.082 400.832C187.392 400.832 186.824 400.633 186.38 400.234C185.95 399.82 185.736 399.314 185.736 398.716C185.736 398.103 185.95 397.597 186.38 397.198C186.824 396.784 187.392 396.577 188.082 396.577C188.756 396.577 189.308 396.784 189.738 397.198C190.182 397.597 190.405 398.103 190.405 398.716C190.405 399.314 190.182 399.82 189.738 400.234C189.308 400.633 188.756 400.832 188.082 400.832ZM190.037 402.166V415H186.104V402.166H190.037ZM204.985 408.376C204.985 408.744 204.962 409.127 204.916 409.526H196.015C196.076 410.323 196.329 410.937 196.774 411.366C197.234 411.78 197.794 411.987 198.453 411.987C199.434 411.987 200.117 411.573 200.5 410.745H204.686C204.471 411.588 204.08 412.347 203.513 413.022C202.961 413.697 202.263 414.226 201.42 414.609C200.577 414.992 199.634 415.184 198.591 415.184C197.334 415.184 196.214 414.916 195.233 414.379C194.252 413.842 193.485 413.076 192.933 412.079C192.381 411.082 192.105 409.917 192.105 408.583C192.105 407.249 192.373 406.084 192.91 405.087C193.462 404.09 194.229 403.324 195.21 402.787C196.191 402.25 197.318 401.982 198.591 401.982C199.833 401.982 200.937 402.243 201.903 402.764C202.869 403.285 203.62 404.029 204.157 404.995C204.709 405.961 204.985 407.088 204.985 408.376ZM200.96 407.341C200.96 406.666 200.73 406.13 200.27 405.731C199.81 405.332 199.235 405.133 198.545 405.133C197.886 405.133 197.326 405.325 196.866 405.708C196.421 406.091 196.145 406.636 196.038 407.341H200.96ZM210.993 404.305C211.453 403.6 212.028 403.048 212.718 402.649C213.408 402.235 214.174 402.028 215.018 402.028V406.191H213.937C212.955 406.191 212.219 406.406 211.729 406.835C211.238 407.249 210.993 407.985 210.993 409.043V415H207.06V402.166H210.993V404.305ZM221.473 412.01V408.836L228.741 398.44H233.134V408.606H235.02V412.01H233.134V415H229.201V412.01H221.473ZM229.477 402.764L225.613 408.606H229.477V402.764Z" fill="#7F7619"/>
<path d="M184.433 444.854V448.005H180.155V461H176.222V448.005H171.944V444.854H184.433ZM188.385 446.832C187.695 446.832 187.128 446.633 186.683 446.234C186.254 445.82 186.039 445.314 186.039 444.716C186.039 444.103 186.254 443.597 186.683 443.198C187.128 442.784 187.695 442.577 188.385 442.577C189.06 442.577 189.612 442.784 190.041 443.198C190.486 443.597 190.708 444.103 190.708 444.716C190.708 445.314 190.486 445.82 190.041 446.234C189.612 446.633 189.06 446.832 188.385 446.832ZM190.34 448.166V461H186.407V448.166H190.34ZM205.288 454.376C205.288 454.744 205.265 455.127 205.219 455.526H196.318C196.379 456.323 196.632 456.937 197.077 457.366C197.537 457.78 198.097 457.987 198.756 457.987C199.737 457.987 200.42 457.573 200.803 456.745H204.989C204.774 457.588 204.383 458.347 203.816 459.022C203.264 459.697 202.566 460.226 201.723 460.609C200.88 460.992 199.937 461.184 198.894 461.184C197.637 461.184 196.517 460.916 195.536 460.379C194.555 459.842 193.788 459.076 193.236 458.079C192.684 457.082 192.408 455.917 192.408 454.583C192.408 453.249 192.676 452.084 193.213 451.087C193.765 450.09 194.532 449.324 195.513 448.787C196.494 448.25 197.621 447.982 198.894 447.982C200.136 447.982 201.24 448.243 202.206 448.764C203.172 449.285 203.923 450.029 204.46 450.995C205.012 451.961 205.288 453.088 205.288 454.376ZM201.263 453.341C201.263 452.666 201.033 452.13 200.573 451.731C200.113 451.332 199.538 451.133 198.848 451.133C198.189 451.133 197.629 451.325 197.169 451.708C196.724 452.091 196.448 452.636 196.341 453.341H201.263ZM211.296 450.305C211.756 449.6 212.331 449.048 213.021 448.649C213.711 448.235 214.478 448.028 215.321 448.028V452.191H214.24C213.259 452.191 212.523 452.406 212.032 452.835C211.541 453.249 211.296 453.985 211.296 455.043V461H207.363V448.166H211.296V450.305ZM233.506 447.637H226.33V450.811C226.637 450.474 227.066 450.198 227.618 449.983C228.17 449.768 228.768 449.661 229.412 449.661C230.562 449.661 231.513 449.922 232.264 450.443C233.031 450.964 233.59 451.639 233.943 452.467C234.296 453.295 234.472 454.192 234.472 455.158C234.472 456.952 233.966 458.378 232.954 459.436C231.942 460.479 230.516 461 228.676 461C227.449 461 226.384 460.793 225.479 460.379C224.574 459.95 223.877 459.359 223.386 458.608C222.895 457.857 222.627 456.99 222.581 456.009H226.422C226.514 456.484 226.736 456.883 227.089 457.205C227.442 457.512 227.925 457.665 228.538 457.665C229.259 457.665 229.795 457.435 230.148 456.975C230.501 456.515 230.677 455.902 230.677 455.135C230.677 454.384 230.493 453.809 230.125 453.41C229.757 453.011 229.22 452.812 228.515 452.812C227.994 452.812 227.564 452.942 227.227 453.203C226.89 453.448 226.667 453.778 226.56 454.192H222.765V444.187H233.506V447.637Z" fill="#7F7619"/>
<path d="M667.785 223.148H661.759L660.793 226H656.676L662.518 209.854H667.072L672.914 226H668.751L667.785 223.148ZM666.773 220.112L664.772 214.201L662.794 220.112H666.773ZM673.91 219.583C673.91 218.249 674.178 217.084 674.715 216.087C675.267 215.09 676.026 214.324 676.992 213.787C677.973 213.25 679.093 212.982 680.35 212.982C681.96 212.982 683.302 213.404 684.375 214.247C685.464 215.09 686.177 216.279 686.514 217.812H682.328C681.975 216.831 681.293 216.34 680.281 216.34C679.56 216.34 678.985 216.624 678.556 217.191C678.127 217.743 677.912 218.54 677.912 219.583C677.912 220.626 678.127 221.431 678.556 221.998C678.985 222.55 679.56 222.826 680.281 222.826C681.293 222.826 681.975 222.335 682.328 221.354H686.514C686.177 222.857 685.464 224.037 684.375 224.896C683.286 225.755 681.945 226.184 680.35 226.184C679.093 226.184 677.973 225.916 676.992 225.379C676.026 224.842 675.267 224.076 674.715 223.079C674.178 222.082 673.91 220.917 673.91 219.583ZM687.836 219.583C687.836 218.249 688.104 217.084 688.641 216.087C689.193 215.09 689.952 214.324 690.918 213.787C691.899 213.25 693.019 212.982 694.276 212.982C695.886 212.982 697.228 213.404 698.301 214.247C699.39 215.09 700.103 216.279 700.44 217.812H696.254C695.901 216.831 695.219 216.34 694.207 216.34C693.486 216.34 692.911 216.624 692.482 217.191C692.053 217.743 691.838 218.54 691.838 219.583C691.838 220.626 692.053 221.431 692.482 221.998C692.911 222.55 693.486 222.826 694.207 222.826C695.219 222.826 695.901 222.335 696.254 221.354H700.44C700.103 222.857 699.39 224.037 698.301 224.896C697.212 225.755 695.871 226.184 694.276 226.184C693.019 226.184 691.899 225.916 690.918 225.379C689.952 224.842 689.193 224.076 688.641 223.079C688.104 222.082 687.836 220.917 687.836 219.583ZM714.642 219.376C714.642 219.744 714.619 220.127 714.573 220.526H705.672C705.733 221.323 705.986 221.937 706.431 222.366C706.891 222.78 707.45 222.987 708.11 222.987C709.091 222.987 709.773 222.573 710.157 221.745H714.343C714.128 222.588 713.737 223.347 713.17 224.022C712.618 224.697 711.92 225.226 711.077 225.609C710.233 225.992 709.29 226.184 708.248 226.184C706.99 226.184 705.871 225.916 704.89 225.379C703.908 224.842 703.142 224.076 702.59 223.079C702.038 222.082 701.762 220.917 701.762 219.583C701.762 218.249 702.03 217.084 702.567 216.087C703.119 215.09 703.885 214.324 704.867 213.787C705.848 213.25 706.975 212.982 708.248 212.982C709.49 212.982 710.594 213.243 711.56 213.764C712.526 214.285 713.277 215.029 713.814 215.995C714.366 216.961 714.642 218.088 714.642 219.376ZM710.617 218.341C710.617 217.666 710.387 217.13 709.927 216.731C709.467 216.332 708.892 216.133 708.202 216.133C707.542 216.133 706.983 216.325 706.523 216.708C706.078 217.091 705.802 217.636 705.695 218.341H710.617ZM721.938 226.184C720.818 226.184 719.822 225.992 718.948 225.609C718.074 225.226 717.384 224.704 716.878 224.045C716.372 223.37 716.088 222.619 716.027 221.791H719.914C719.96 222.236 720.167 222.596 720.535 222.872C720.903 223.148 721.355 223.286 721.892 223.286C722.382 223.286 722.758 223.194 723.019 223.01C723.295 222.811 723.433 222.558 723.433 222.251C723.433 221.883 723.241 221.615 722.858 221.446C722.474 221.262 721.853 221.063 720.995 220.848C720.075 220.633 719.308 220.411 718.695 220.181C718.081 219.936 717.552 219.56 717.108 219.054C716.663 218.533 716.441 217.835 716.441 216.961C716.441 216.225 716.64 215.558 717.039 214.96C717.453 214.347 718.051 213.864 718.833 213.511C719.63 213.158 720.573 212.982 721.662 212.982C723.272 212.982 724.537 213.381 725.457 214.178C726.392 214.975 726.929 216.033 727.067 217.352H723.433C723.371 216.907 723.172 216.555 722.835 216.294C722.513 216.033 722.083 215.903 721.547 215.903C721.087 215.903 720.734 215.995 720.489 216.179C720.243 216.348 720.121 216.585 720.121 216.892C720.121 217.26 720.312 217.536 720.696 217.72C721.094 217.904 721.708 218.088 722.536 218.272C723.486 218.517 724.261 218.763 724.859 219.008C725.457 219.238 725.978 219.621 726.423 220.158C726.883 220.679 727.12 221.385 727.136 222.274C727.136 223.025 726.921 223.7 726.492 224.298C726.078 224.881 725.472 225.341 724.675 225.678C723.893 226.015 722.98 226.184 721.938 226.184ZM734.763 226.184C733.643 226.184 732.647 225.992 731.773 225.609C730.899 225.226 730.209 224.704 729.703 224.045C729.197 223.37 728.913 222.619 728.852 221.791H732.739C732.785 222.236 732.992 222.596 733.36 222.872C733.728 223.148 734.18 223.286 734.717 223.286C735.207 223.286 735.583 223.194 735.844 223.01C736.12 222.811 736.258 222.558 736.258 222.251C736.258 221.883 736.066 221.615 735.683 221.446C735.299 221.262 734.678 221.063 733.82 220.848C732.9 220.633 732.133 220.411 731.52 220.181C730.906 219.936 730.377 219.56 729.933 219.054C729.488 218.533 729.266 217.835 729.266 216.961C729.266 216.225 729.465 215.558 729.864 214.96C730.278 214.347 730.876 213.864 731.658 213.511C732.455 213.158 733.398 212.982 734.487 212.982C736.097 212.982 737.362 213.381 738.282 214.178C739.217 214.975 739.754 216.033 739.892 217.352H736.258C736.196 216.907 735.997 216.555 735.66 216.294C735.338 216.033 734.908 215.903 734.372 215.903C733.912 215.903 733.559 215.995 733.314 216.179C733.068 216.348 732.946 216.585 732.946 216.892C732.946 217.26 733.137 217.536 733.521 217.72C733.919 217.904 734.533 218.088 735.361 218.272C736.311 218.517 737.086 218.763 737.684 219.008C738.282 219.238 738.803 219.621 739.248 220.158C739.708 220.679 739.945 221.385 739.961 222.274C739.961 223.025 739.746 223.7 739.317 224.298C738.903 224.881 738.297 225.341 737.5 225.678C736.718 226.015 735.805 226.184 734.763 226.184ZM754.394 222.665V226H752.393C750.967 226 749.855 225.655 749.058 224.965C748.261 224.26 747.862 223.117 747.862 221.538V216.432H746.298V213.166H747.862V210.038H751.795V213.166H754.371V216.432H751.795V221.584C751.795 221.967 751.887 222.243 752.071 222.412C752.255 222.581 752.562 222.665 752.991 222.665H754.394ZM762.427 226.184C761.169 226.184 760.035 225.916 759.023 225.379C758.026 224.842 757.236 224.076 756.654 223.079C756.086 222.082 755.803 220.917 755.803 219.583C755.803 218.264 756.094 217.107 756.677 216.11C757.259 215.098 758.057 214.324 759.069 213.787C760.081 213.25 761.215 212.982 762.473 212.982C763.73 212.982 764.865 213.25 765.877 213.787C766.889 214.324 767.686 215.098 768.269 216.11C768.851 217.107 769.143 218.264 769.143 219.583C769.143 220.902 768.844 222.067 768.246 223.079C767.663 224.076 766.858 224.842 765.831 225.379C764.819 225.916 763.684 226.184 762.427 226.184ZM762.427 222.78C763.178 222.78 763.814 222.504 764.336 221.952C764.872 221.4 765.141 220.61 765.141 219.583C765.141 218.556 764.88 217.766 764.359 217.214C763.853 216.662 763.224 216.386 762.473 216.386C761.706 216.386 761.07 216.662 760.564 217.214C760.058 217.751 759.805 218.54 759.805 219.583C759.805 220.61 760.05 221.4 760.541 221.952C761.047 222.504 761.675 222.78 762.427 222.78ZM783.256 222.665V226H781.255C779.829 226 778.718 225.655 777.92 224.965C777.123 224.26 776.724 223.117 776.724 221.538V216.432H775.16V213.166H776.724V210.038H780.657V213.166H783.233V216.432H780.657V221.584C780.657 221.967 780.749 222.243 780.933 222.412C781.117 222.581 781.424 222.665 781.853 222.665H783.256ZM793.336 213.028C794.808 213.028 795.989 213.519 796.878 214.5C797.767 215.466 798.212 216.8 798.212 218.502V226H794.302V219.031C794.302 218.172 794.08 217.505 793.635 217.03C793.19 216.555 792.592 216.317 791.841 216.317C791.09 216.317 790.492 216.555 790.047 217.03C789.602 217.505 789.38 218.172 789.38 219.031V226H785.447V208.98H789.38V214.891C789.779 214.324 790.323 213.871 791.013 213.534C791.703 213.197 792.477 213.028 793.336 213.028ZM813.043 219.376C813.043 219.744 813.02 220.127 812.974 220.526H804.073C804.134 221.323 804.387 221.937 804.832 222.366C805.292 222.78 805.852 222.987 806.511 222.987C807.492 222.987 808.175 222.573 808.558 221.745H812.744C812.529 222.588 812.138 223.347 811.571 224.022C811.019 224.697 810.321 225.226 809.478 225.609C808.635 225.992 807.692 226.184 806.649 226.184C805.392 226.184 804.272 225.916 803.291 225.379C802.31 224.842 801.543 224.076 800.991 223.079C800.439 222.082 800.163 220.917 800.163 219.583C800.163 218.249 800.431 217.084 800.968 216.087C801.52 215.09 802.287 214.324 803.268 213.787C804.249 213.25 805.376 212.982 806.649 212.982C807.891 212.982 808.995 213.243 809.961 213.764C810.927 214.285 811.678 215.029 812.215 215.995C812.767 216.961 813.043 218.088 813.043 219.376ZM809.018 218.341C809.018 217.666 808.788 217.13 808.328 216.731C807.868 216.332 807.293 216.133 806.603 216.133C805.944 216.133 805.384 216.325 804.924 216.708C804.479 217.091 804.203 217.636 804.096 218.341H809.018ZM697.127 240.052C697.127 240.987 696.912 241.846 696.483 242.628C696.054 243.395 695.394 244.016 694.505 244.491C693.616 244.966 692.512 245.204 691.193 245.204H688.755V251H684.822V234.854H691.193C692.481 234.854 693.57 235.076 694.459 235.521C695.348 235.966 696.015 236.579 696.46 237.361C696.905 238.143 697.127 239.04 697.127 240.052ZM690.894 242.076C691.645 242.076 692.205 241.9 692.573 241.547C692.941 241.194 693.125 240.696 693.125 240.052C693.125 239.408 692.941 238.91 692.573 238.557C692.205 238.204 691.645 238.028 690.894 238.028H688.755V242.076H690.894ZM703.108 233.98V251H699.175V233.98H703.108ZM705.176 244.56C705.176 243.241 705.421 242.084 705.912 241.087C706.418 240.09 707.1 239.324 707.959 238.787C708.817 238.25 709.776 237.982 710.834 237.982C711.738 237.982 712.528 238.166 713.203 238.534C713.893 238.902 714.422 239.385 714.79 239.983V238.166H718.723V251H714.79V249.183C714.406 249.781 713.87 250.264 713.18 250.632C712.505 251 711.715 251.184 710.811 251.184C709.768 251.184 708.817 250.916 707.959 250.379C707.1 249.827 706.418 249.053 705.912 248.056C705.421 247.044 705.176 245.879 705.176 244.56ZM714.79 244.583C714.79 243.602 714.514 242.827 713.962 242.26C713.425 241.693 712.766 241.409 711.984 241.409C711.202 241.409 710.535 241.693 709.983 242.26C709.446 242.812 709.178 243.579 709.178 244.56C709.178 245.541 709.446 246.323 709.983 246.906C710.535 247.473 711.202 247.757 711.984 247.757C712.766 247.757 713.425 247.473 713.962 246.906C714.514 246.339 714.79 245.564 714.79 244.583ZM728.721 247.665V251H726.72C725.294 251 724.182 250.655 723.385 249.965C722.588 249.26 722.189 248.117 722.189 246.538V241.432H720.625V238.166H722.189V235.038H726.122V238.166H728.698V241.432H726.122V246.584C726.122 246.967 726.214 247.243 726.398 247.412C726.582 247.581 726.889 247.665 727.318 247.665H728.721ZM737.352 241.432H735.236V251H731.303V241.432H729.877V238.166H731.303V237.798C731.303 236.219 731.755 235.023 732.66 234.21C733.565 233.382 734.891 232.968 736.639 232.968C736.93 232.968 737.145 232.976 737.283 232.991V236.326C736.532 236.28 736.003 236.387 735.696 236.648C735.389 236.909 735.236 237.376 735.236 238.051V238.166H737.352V241.432ZM745.042 251.184C743.785 251.184 742.65 250.916 741.638 250.379C740.641 249.842 739.852 249.076 739.269 248.079C738.702 247.082 738.418 245.917 738.418 244.583C738.418 243.264 738.709 242.107 739.292 241.11C739.875 240.098 740.672 239.324 741.684 238.787C742.696 238.25 743.831 237.982 745.088 237.982C746.345 237.982 747.48 238.25 748.492 238.787C749.504 239.324 750.301 240.098 750.884 241.11C751.467 242.107 751.758 243.264 751.758 244.583C751.758 245.902 751.459 247.067 750.861 248.079C750.278 249.076 749.473 249.842 748.446 250.379C747.434 250.916 746.299 251.184 745.042 251.184ZM745.042 247.78C745.793 247.78 746.43 247.504 746.951 246.952C747.488 246.4 747.756 245.61 747.756 244.583C747.756 243.556 747.495 242.766 746.974 242.214C746.468 241.662 745.839 241.386 745.088 241.386C744.321 241.386 743.685 241.662 743.179 242.214C742.673 242.751 742.42 243.54 742.42 244.583C742.42 245.61 742.665 246.4 743.156 246.952C743.662 247.504 744.291 247.78 745.042 247.78ZM757.777 240.305C758.237 239.6 758.812 239.048 759.502 238.649C760.192 238.235 760.959 238.028 761.802 238.028V242.191H760.721C759.74 242.191 759.004 242.406 758.513 242.835C758.023 243.249 757.777 243.985 757.777 245.043V251H753.844V238.166H757.777V240.305ZM780.058 238.028C781.653 238.028 782.918 238.511 783.853 239.477C784.804 240.443 785.279 241.785 785.279 243.502V251H781.369V244.031C781.369 243.203 781.147 242.567 780.702 242.122C780.273 241.662 779.675 241.432 778.908 241.432C778.142 241.432 777.536 241.662 777.091 242.122C776.662 242.567 776.447 243.203 776.447 244.031V251H772.537V244.031C772.537 243.203 772.315 242.567 771.87 242.122C771.441 241.662 770.843 241.432 770.076 241.432C769.31 241.432 768.704 241.662 768.259 242.122C767.83 242.567 767.615 243.203 767.615 244.031V251H763.682V238.166H767.615V239.776C768.014 239.239 768.535 238.818 769.179 238.511C769.823 238.189 770.552 238.028 771.364 238.028C772.33 238.028 773.189 238.235 773.94 238.649C774.707 239.063 775.305 239.653 775.734 240.42C776.179 239.715 776.785 239.14 777.551 238.695C778.318 238.25 779.154 238.028 780.058 238.028Z" fill="#7F7619"/>
<path d="M713.789 275.867V272.21H720.16V289H716.066V275.867H713.789ZM722.85 280.375C722.85 277.738 723.356 275.66 724.368 274.142C725.396 272.624 727.044 271.865 729.313 271.865C731.583 271.865 733.223 272.624 734.235 274.142C735.263 275.66 735.776 277.738 735.776 280.375C735.776 283.043 735.263 285.136 734.235 286.654C733.223 288.172 731.583 288.931 729.313 288.931C727.044 288.931 725.396 288.172 724.368 286.654C723.356 285.136 722.85 283.043 722.85 280.375ZM731.912 280.375C731.912 278.826 731.744 277.638 731.406 276.81C731.069 275.967 730.371 275.545 729.313 275.545C728.255 275.545 727.558 275.967 727.22 276.81C726.883 277.638 726.714 278.826 726.714 280.375C726.714 281.418 726.776 282.284 726.898 282.974C727.021 283.649 727.266 284.201 727.634 284.63C728.018 285.044 728.577 285.251 729.313 285.251C730.049 285.251 730.601 285.044 730.969 284.63C731.353 284.201 731.606 283.649 731.728 282.974C731.851 282.284 731.912 281.418 731.912 280.375ZM737.532 276.442C737.532 275.2 737.885 274.242 738.59 273.567C739.311 272.892 740.239 272.555 741.373 272.555C742.508 272.555 743.428 272.892 744.133 273.567C744.839 274.242 745.191 275.2 745.191 276.442C745.191 277.684 744.839 278.642 744.133 279.317C743.428 279.992 742.508 280.329 741.373 280.329C740.239 280.329 739.311 279.992 738.59 279.317C737.885 278.642 737.532 277.684 737.532 276.442ZM753.149 272.808L744.294 289H740.499L749.354 272.808H753.149ZM741.35 274.855C740.614 274.855 740.246 275.384 740.246 276.442C740.246 277.485 740.614 278.006 741.35 278.006C741.703 278.006 741.979 277.876 742.178 277.615C742.378 277.354 742.477 276.963 742.477 276.442C742.477 275.384 742.102 274.855 741.35 274.855ZM748.48 285.366C748.48 284.124 748.833 283.166 749.538 282.491C750.244 281.816 751.164 281.479 752.298 281.479C753.433 281.479 754.353 281.816 755.058 282.491C755.764 283.166 756.116 284.124 756.116 285.366C756.116 286.608 755.764 287.566 755.058 288.241C754.353 288.916 753.433 289.253 752.298 289.253C751.164 289.253 750.244 288.916 749.538 288.241C748.833 287.566 748.48 286.608 748.48 285.366ZM752.275 283.779C751.923 283.779 751.647 283.909 751.447 284.17C751.263 284.431 751.171 284.829 751.171 285.366C751.171 286.409 751.539 286.93 752.275 286.93C752.628 286.93 752.904 286.8 753.103 286.539C753.303 286.278 753.402 285.887 753.402 285.366C753.402 284.845 753.303 284.454 753.103 284.193C752.904 283.917 752.628 283.779 752.275 283.779Z" fill="#7F7619"/>
<path d="M712.319 328.849C712.84 328.435 713.078 328.243 713.032 328.274C714.535 327.032 715.715 326.012 716.574 325.215C717.448 324.418 718.184 323.582 718.782 322.708C719.38 321.834 719.679 320.983 719.679 320.155C719.679 319.526 719.533 319.036 719.242 318.683C718.951 318.33 718.514 318.154 717.931 318.154C717.348 318.154 716.888 318.376 716.551 318.821C716.229 319.25 716.068 319.864 716.068 320.661H712.273C712.304 319.358 712.58 318.269 713.101 317.395C713.638 316.521 714.335 315.877 715.194 315.463C716.068 315.049 717.034 314.842 718.092 314.842C719.917 314.842 721.289 315.31 722.209 316.245C723.144 317.18 723.612 318.399 723.612 319.902C723.612 321.543 723.052 323.068 721.933 324.479C720.814 325.874 719.388 327.239 717.655 328.573H723.865V331.77H712.319V328.849ZM725.597 323.375C725.597 320.738 726.103 318.66 727.115 317.142C728.142 315.624 729.79 314.865 732.06 314.865C734.329 314.865 735.97 315.624 736.982 317.142C738.009 318.66 738.523 320.738 738.523 323.375C738.523 326.043 738.009 328.136 736.982 329.654C735.97 331.172 734.329 331.931 732.06 331.931C729.79 331.931 728.142 331.172 727.115 329.654C726.103 328.136 725.597 326.043 725.597 323.375ZM734.659 323.375C734.659 321.826 734.49 320.638 734.153 319.81C733.815 318.967 733.118 318.545 732.06 318.545C731.002 318.545 730.304 318.967 729.967 319.81C729.629 320.638 729.461 321.826 729.461 323.375C729.461 324.418 729.522 325.284 729.645 325.974C729.767 326.649 730.013 327.201 730.381 327.63C730.764 328.044 731.324 328.251 732.06 328.251C732.796 328.251 733.348 328.044 733.716 327.63C734.099 327.201 734.352 326.649 734.475 325.974C734.597 325.284 734.659 324.418 734.659 323.375ZM740.278 319.442C740.278 318.2 740.631 317.242 741.336 316.567C742.057 315.892 742.985 315.555 744.119 315.555C745.254 315.555 746.174 315.892 746.879 316.567C747.585 317.242 747.937 318.2 747.937 319.442C747.937 320.684 747.585 321.642 746.879 322.317C746.174 322.992 745.254 323.329 744.119 323.329C742.985 323.329 742.057 322.992 741.336 322.317C740.631 321.642 740.278 320.684 740.278 319.442ZM755.895 315.808L747.04 332H743.245L752.1 315.808H755.895ZM744.096 317.855C743.36 317.855 742.992 318.384 742.992 319.442C742.992 320.485 743.36 321.006 744.096 321.006C744.449 321.006 744.725 320.876 744.924 320.615C745.124 320.354 745.223 319.963 745.223 319.442C745.223 318.384 744.848 317.855 744.096 317.855ZM751.226 328.366C751.226 327.124 751.579 326.166 752.284 325.491C752.99 324.816 753.91 324.479 755.044 324.479C756.179 324.479 757.099 324.816 757.804 325.491C758.51 326.166 758.862 327.124 758.862 328.366C758.862 329.608 758.51 330.566 757.804 331.241C757.099 331.916 756.179 332.253 755.044 332.253C753.91 332.253 752.99 331.916 752.284 331.241C751.579 330.566 751.226 329.608 751.226 328.366ZM755.021 326.779C754.669 326.779 754.393 326.909 754.193 327.17C754.009 327.431 753.917 327.829 753.917 328.366C753.917 329.409 754.285 329.93 755.021 329.93C755.374 329.93 755.65 329.8 755.849 329.539C756.049 329.278 756.148 328.887 756.148 328.366C756.148 327.845 756.049 327.454 755.849 327.193C755.65 326.917 755.374 326.779 755.021 326.779Z" fill="#7F7619"/>
<path d="M712.202 362.948C712.263 361.307 712.8 360.042 713.812 359.153C714.824 358.264 716.196 357.819 717.929 357.819C719.079 357.819 720.06 358.018 720.873 358.417C721.701 358.816 722.322 359.36 722.736 360.05C723.165 360.74 723.38 361.514 723.38 362.373C723.38 363.385 723.127 364.213 722.621 364.857C722.115 365.486 721.524 365.915 720.85 366.145V366.237C721.724 366.528 722.414 367.011 722.92 367.686C723.426 368.361 723.679 369.227 723.679 370.285C723.679 371.236 723.456 372.079 723.012 372.815C722.582 373.536 721.946 374.103 721.103 374.517C720.275 374.931 719.286 375.138 718.136 375.138C716.296 375.138 714.824 374.686 713.72 373.781C712.631 372.876 712.056 371.512 711.995 369.687H715.813C715.828 370.362 716.02 370.898 716.388 371.297C716.756 371.68 717.292 371.872 717.998 371.872C718.596 371.872 719.056 371.703 719.378 371.366C719.715 371.013 719.884 370.553 719.884 369.986C719.884 369.25 719.646 368.721 719.171 368.399C718.711 368.062 717.967 367.893 716.94 367.893H716.204V364.696H716.94C717.722 364.696 718.35 364.566 718.826 364.305C719.316 364.029 719.562 363.546 719.562 362.856C719.562 362.304 719.408 361.875 719.102 361.568C718.795 361.261 718.373 361.108 717.837 361.108C717.254 361.108 716.817 361.284 716.526 361.637C716.25 361.99 716.089 362.427 716.043 362.948H712.202ZM725.99 366.375C725.99 363.738 726.496 361.66 727.508 360.142C728.535 358.624 730.183 357.865 732.453 357.865C734.722 357.865 736.363 358.624 737.375 360.142C738.402 361.66 738.916 363.738 738.916 366.375C738.916 369.043 738.402 371.136 737.375 372.654C736.363 374.172 734.722 374.931 732.453 374.931C730.183 374.931 728.535 374.172 727.508 372.654C726.496 371.136 725.99 369.043 725.99 366.375ZM735.052 366.375C735.052 364.826 734.883 363.638 734.546 362.81C734.208 361.967 733.511 361.545 732.453 361.545C731.395 361.545 730.697 361.967 730.36 362.81C730.022 363.638 729.854 364.826 729.854 366.375C729.854 367.418 729.915 368.284 730.038 368.974C730.16 369.649 730.406 370.201 730.774 370.63C731.157 371.044 731.717 371.251 732.453 371.251C733.189 371.251 733.741 371.044 734.109 370.63C734.492 370.201 734.745 369.649 734.868 368.974C734.99 368.284 735.052 367.418 735.052 366.375ZM740.671 362.442C740.671 361.2 741.024 360.242 741.729 359.567C742.45 358.892 743.378 358.555 744.512 358.555C745.647 358.555 746.567 358.892 747.272 359.567C747.978 360.242 748.33 361.2 748.33 362.442C748.33 363.684 747.978 364.642 747.272 365.317C746.567 365.992 745.647 366.329 744.512 366.329C743.378 366.329 742.45 365.992 741.729 365.317C741.024 364.642 740.671 363.684 740.671 362.442ZM756.288 358.808L747.433 375H743.638L752.493 358.808H756.288ZM744.489 360.855C743.753 360.855 743.385 361.384 743.385 362.442C743.385 363.485 743.753 364.006 744.489 364.006C744.842 364.006 745.118 363.876 745.317 363.615C745.517 363.354 745.616 362.963 745.616 362.442C745.616 361.384 745.241 360.855 744.489 360.855ZM751.619 371.366C751.619 370.124 751.972 369.166 752.677 368.491C753.383 367.816 754.303 367.479 755.437 367.479C756.572 367.479 757.492 367.816 758.197 368.491C758.903 369.166 759.255 370.124 759.255 371.366C759.255 372.608 758.903 373.566 758.197 374.241C757.492 374.916 756.572 375.253 755.437 375.253C754.303 375.253 753.383 374.916 752.677 374.241C751.972 373.566 751.619 372.608 751.619 371.366ZM755.414 369.779C755.062 369.779 754.786 369.909 754.586 370.17C754.402 370.431 754.31 370.829 754.31 371.366C754.31 372.409 754.678 372.93 755.414 372.93C755.767 372.93 756.043 372.8 756.242 372.539C756.442 372.278 756.541 371.887 756.541 371.366C756.541 370.845 756.442 370.454 756.242 370.193C756.043 369.917 755.767 369.779 755.414 369.779Z" fill="#7F7619"/>
<path d="M723.113 404.154L717.34 418H713.315L719.157 404.591H712.004V401.233H723.113V404.154ZM736.525 404.637H729.349V407.811C729.656 407.474 730.085 407.198 730.637 406.983C731.189 406.768 731.787 406.661 732.431 406.661C733.581 406.661 734.532 406.922 735.283 407.443C736.05 407.964 736.61 408.639 736.962 409.467C737.315 410.295 737.491 411.192 737.491 412.158C737.491 413.952 736.985 415.378 735.973 416.436C734.961 417.479 733.535 418 731.695 418C730.469 418 729.403 417.793 728.498 417.379C727.594 416.95 726.896 416.359 726.405 415.608C725.915 414.857 725.646 413.99 725.6 413.009H729.441C729.533 413.484 729.756 413.883 730.108 414.205C730.461 414.512 730.944 414.665 731.557 414.665C732.278 414.665 732.815 414.435 733.167 413.975C733.52 413.515 733.696 412.902 733.696 412.135C733.696 411.384 733.512 410.809 733.144 410.41C732.776 410.011 732.24 409.812 731.534 409.812C731.013 409.812 730.584 409.942 730.246 410.203C729.909 410.448 729.687 410.778 729.579 411.192H725.784V401.187H736.525V404.637ZM739.34 405.442C739.34 404.2 739.693 403.242 740.398 402.567C741.119 401.892 742.047 401.555 743.181 401.555C744.316 401.555 745.236 401.892 745.941 402.567C746.647 403.242 746.999 404.2 746.999 405.442C746.999 406.684 746.647 407.642 745.941 408.317C745.236 408.992 744.316 409.329 743.181 409.329C742.047 409.329 741.119 408.992 740.398 408.317C739.693 407.642 739.34 406.684 739.34 405.442ZM754.957 401.808L746.102 418H742.307L751.162 401.808H754.957ZM743.158 403.855C742.422 403.855 742.054 404.384 742.054 405.442C742.054 406.485 742.422 407.006 743.158 407.006C743.511 407.006 743.787 406.876 743.986 406.615C744.186 406.354 744.285 405.963 744.285 405.442C744.285 404.384 743.91 403.855 743.158 403.855ZM750.288 414.366C750.288 413.124 750.641 412.166 751.346 411.491C752.052 410.816 752.972 410.479 754.106 410.479C755.241 410.479 756.161 410.816 756.866 411.491C757.572 412.166 757.924 413.124 757.924 414.366C757.924 415.608 757.572 416.566 756.866 417.241C756.161 417.916 755.241 418.253 754.106 418.253C752.972 418.253 752.052 417.916 751.346 417.241C750.641 416.566 750.288 415.608 750.288 414.366ZM754.083 412.779C753.731 412.779 753.455 412.909 753.255 413.17C753.071 413.431 752.979 413.829 752.979 414.366C752.979 415.409 753.347 415.93 754.083 415.93C754.436 415.93 754.712 415.8 754.911 415.539C755.111 415.278 755.21 414.887 755.21 414.366C755.21 413.845 755.111 413.454 754.911 413.193C754.712 412.917 754.436 412.779 754.083 412.779Z" fill="#7F7619"/>
<path d="M706.787 447.867V444.21H713.158V461H709.064V447.867H706.787ZM715.848 452.375C715.848 449.738 716.354 447.66 717.366 446.142C718.394 444.624 720.042 443.865 722.311 443.865C724.581 443.865 726.221 444.624 727.233 446.142C728.261 447.66 728.774 449.738 728.774 452.375C728.774 455.043 728.261 457.136 727.233 458.654C726.221 460.172 724.581 460.931 722.311 460.931C720.042 460.931 718.394 460.172 717.366 458.654C716.354 457.136 715.848 455.043 715.848 452.375ZM724.91 452.375C724.91 450.826 724.742 449.638 724.404 448.81C724.067 447.967 723.369 447.545 722.311 447.545C721.253 447.545 720.556 447.967 720.218 448.81C719.881 449.638 719.712 450.826 719.712 452.375C719.712 453.418 719.774 454.284 719.896 454.974C720.019 455.649 720.264 456.201 720.632 456.63C721.016 457.044 721.575 457.251 722.311 457.251C723.047 457.251 723.599 457.044 723.967 456.63C724.351 456.201 724.604 455.649 724.726 454.974C724.849 454.284 724.91 453.418 724.91 452.375ZM730.852 452.375C730.852 449.738 731.358 447.66 732.37 446.142C733.398 444.624 735.046 443.865 737.315 443.865C739.585 443.865 741.225 444.624 742.237 446.142C743.265 447.66 743.778 449.738 743.778 452.375C743.778 455.043 743.265 457.136 742.237 458.654C741.225 460.172 739.585 460.931 737.315 460.931C735.046 460.931 733.398 460.172 732.37 458.654C731.358 457.136 730.852 455.043 730.852 452.375ZM739.914 452.375C739.914 450.826 739.746 449.638 739.408 448.81C739.071 447.967 738.373 447.545 737.315 447.545C736.257 447.545 735.56 447.967 735.222 448.81C734.885 449.638 734.716 450.826 734.716 452.375C734.716 453.418 734.778 454.284 734.9 454.974C735.023 455.649 735.268 456.201 735.636 456.63C736.02 457.044 736.579 457.251 737.315 457.251C738.051 457.251 738.603 457.044 738.971 456.63C739.355 456.201 739.608 455.649 739.73 454.974C739.853 454.284 739.914 453.418 739.914 452.375ZM745.534 448.442C745.534 447.2 745.887 446.242 746.592 445.567C747.313 444.892 748.241 444.555 749.375 444.555C750.51 444.555 751.43 444.892 752.135 445.567C752.841 446.242 753.193 447.2 753.193 448.442C753.193 449.684 752.841 450.642 752.135 451.317C751.43 451.992 750.51 452.329 749.375 452.329C748.241 452.329 747.313 451.992 746.592 451.317C745.887 450.642 745.534 449.684 745.534 448.442ZM761.151 444.808L752.296 461H748.501L757.356 444.808H761.151ZM749.352 446.855C748.616 446.855 748.248 447.384 748.248 448.442C748.248 449.485 748.616 450.006 749.352 450.006C749.705 450.006 749.981 449.876 750.18 449.615C750.38 449.354 750.479 448.963 750.479 448.442C750.479 447.384 750.104 446.855 749.352 446.855ZM756.482 457.366C756.482 456.124 756.835 455.166 757.54 454.491C758.246 453.816 759.166 453.479 760.3 453.479C761.435 453.479 762.355 453.816 763.06 454.491C763.766 455.166 764.118 456.124 764.118 457.366C764.118 458.608 763.766 459.566 763.06 460.241C762.355 460.916 761.435 461.253 760.3 461.253C759.166 461.253 758.246 460.916 757.54 460.241C756.835 459.566 756.482 458.608 756.482 457.366ZM760.277 455.779C759.925 455.779 759.649 455.909 759.449 456.17C759.265 456.431 759.173 456.829 759.173 457.366C759.173 458.409 759.541 458.93 760.277 458.93C760.63 458.93 760.906 458.8 761.105 458.539C761.305 458.278 761.404 457.887 761.404 457.366C761.404 456.845 761.305 456.454 761.105 456.193C760.906 455.917 760.63 455.779 760.277 455.779Z" fill="#7F7619"/>
<path d="M450.793 217.867V214.21H457.164V231H453.07V217.867H450.793ZM459.855 222.375C459.855 219.738 460.361 217.66 461.373 216.142C462.4 214.624 464.048 213.865 466.318 213.865C468.587 213.865 470.228 214.624 471.24 216.142C472.267 217.66 472.781 219.738 472.781 222.375C472.781 225.043 472.267 227.136 471.24 228.654C470.228 230.172 468.587 230.931 466.318 230.931C464.048 230.931 462.4 230.172 461.373 228.654C460.361 227.136 459.855 225.043 459.855 222.375ZM468.917 222.375C468.917 220.826 468.748 219.638 468.411 218.81C468.073 217.967 467.376 217.545 466.318 217.545C465.26 217.545 464.562 217.967 464.225 218.81C463.887 219.638 463.719 220.826 463.719 222.375C463.719 223.418 463.78 224.284 463.903 224.974C464.025 225.649 464.271 226.201 464.639 226.63C465.022 227.044 465.582 227.251 466.318 227.251C467.054 227.251 467.606 227.044 467.974 226.63C468.357 226.201 468.61 225.649 468.733 224.974C468.855 224.284 468.917 223.418 468.917 222.375ZM474.859 222.375C474.859 219.738 475.365 217.66 476.377 216.142C477.404 214.624 479.052 213.865 481.322 213.865C483.591 213.865 485.232 214.624 486.244 216.142C487.271 217.66 487.785 219.738 487.785 222.375C487.785 225.043 487.271 227.136 486.244 228.654C485.232 230.172 483.591 230.931 481.322 230.931C479.052 230.931 477.404 230.172 476.377 228.654C475.365 227.136 474.859 225.043 474.859 222.375ZM483.921 222.375C483.921 220.826 483.752 219.638 483.415 218.81C483.077 217.967 482.38 217.545 481.322 217.545C480.264 217.545 479.566 217.967 479.229 218.81C478.891 219.638 478.723 220.826 478.723 222.375C478.723 223.418 478.784 224.284 478.907 224.974C479.029 225.649 479.275 226.201 479.643 226.63C480.026 227.044 480.586 227.251 481.322 227.251C482.058 227.251 482.61 227.044 482.978 226.63C483.361 226.201 483.614 225.649 483.737 224.974C483.859 224.284 483.921 223.418 483.921 222.375Z" fill="#7F7619"/>
<path d="M459.874 263.637H452.698V266.811C453.004 266.474 453.434 266.198 453.986 265.983C454.538 265.768 455.136 265.661 455.78 265.661C456.93 265.661 457.88 265.922 458.632 266.443C459.398 266.964 459.958 267.639 460.311 268.467C460.663 269.295 460.84 270.192 460.84 271.158C460.84 272.952 460.334 274.378 459.322 275.436C458.31 276.479 456.884 277 455.044 277C453.817 277 452.751 276.793 451.847 276.379C450.942 275.95 450.244 275.359 449.754 274.608C449.263 273.857 448.995 272.99 448.949 272.009H452.79C452.882 272.484 453.104 272.883 453.457 273.205C453.809 273.512 454.292 273.665 454.906 273.665C455.626 273.665 456.163 273.435 456.516 272.975C456.868 272.515 457.045 271.902 457.045 271.135C457.045 270.384 456.861 269.809 456.493 269.41C456.125 269.011 455.588 268.812 454.883 268.812C454.361 268.812 453.932 268.942 453.595 269.203C453.257 269.448 453.035 269.778 452.928 270.192H449.133V260.187H459.874V263.637ZM463.011 268.375C463.011 265.738 463.517 263.66 464.529 262.142C465.556 260.624 467.204 259.865 469.474 259.865C471.743 259.865 473.384 260.624 474.396 262.142C475.423 263.66 475.937 265.738 475.937 268.375C475.937 271.043 475.423 273.136 474.396 274.654C473.384 276.172 471.743 276.931 469.474 276.931C467.204 276.931 465.556 276.172 464.529 274.654C463.517 273.136 463.011 271.043 463.011 268.375ZM472.073 268.375C472.073 266.826 471.904 265.638 471.567 264.81C471.229 263.967 470.532 263.545 469.474 263.545C468.416 263.545 467.718 263.967 467.381 264.81C467.043 265.638 466.875 266.826 466.875 268.375C466.875 269.418 466.936 270.284 467.059 270.974C467.181 271.649 467.427 272.201 467.795 272.63C468.178 273.044 468.738 273.251 469.474 273.251C470.21 273.251 470.762 273.044 471.13 272.63C471.513 272.201 471.766 271.649 471.889 270.974C472.011 270.284 472.073 269.418 472.073 268.375ZM478.014 268.375C478.014 265.738 478.52 263.66 479.532 262.142C480.56 260.624 482.208 259.865 484.477 259.865C486.747 259.865 488.387 260.624 489.399 262.142C490.427 263.66 490.94 265.738 490.94 268.375C490.94 271.043 490.427 273.136 489.399 274.654C488.387 276.172 486.747 276.931 484.477 276.931C482.208 276.931 480.56 276.172 479.532 274.654C478.52 273.136 478.014 271.043 478.014 268.375ZM487.076 268.375C487.076 266.826 486.908 265.638 486.57 264.81C486.233 263.967 485.535 263.545 484.477 263.545C483.419 263.545 482.722 263.967 482.384 264.81C482.047 265.638 481.878 266.826 481.878 268.375C481.878 269.418 481.94 270.284 482.062 270.974C482.185 271.649 482.43 272.201 482.798 272.63C483.182 273.044 483.741 273.251 484.477 273.251C485.213 273.251 485.765 273.044 486.133 272.63C486.517 272.201 486.77 271.649 486.892 270.974C487.015 270.284 487.076 269.418 487.076 268.375Z" fill="#7F7619"/>
<path d="M438.042 319.849C438.563 319.435 438.801 319.243 438.755 319.274C440.258 318.032 441.438 317.012 442.297 316.215C443.171 315.418 443.907 314.582 444.505 313.708C445.103 312.834 445.402 311.983 445.402 311.155C445.402 310.526 445.256 310.036 444.965 309.683C444.674 309.33 444.237 309.154 443.654 309.154C443.071 309.154 442.611 309.376 442.274 309.821C441.952 310.25 441.791 310.864 441.791 311.661H437.996C438.027 310.358 438.303 309.269 438.824 308.395C439.361 307.521 440.058 306.877 440.917 306.463C441.791 306.049 442.757 305.842 443.815 305.842C445.64 305.842 447.012 306.31 447.932 307.245C448.867 308.18 449.335 309.399 449.335 310.902C449.335 312.543 448.775 314.068 447.656 315.479C446.537 316.874 445.111 318.239 443.378 319.573H449.588V322.77H438.042V319.849ZM455.943 319.366L453.39 325.967H450.883L452.217 319.366H455.943ZM469.745 309.637H462.569V312.811C462.876 312.474 463.305 312.198 463.857 311.983C464.409 311.768 465.007 311.661 465.651 311.661C466.801 311.661 467.752 311.922 468.503 312.443C469.27 312.964 469.83 313.639 470.182 314.467C470.535 315.295 470.711 316.192 470.711 317.158C470.711 318.952 470.205 320.378 469.193 321.436C468.181 322.479 466.755 323 464.915 323C463.689 323 462.623 322.793 461.718 322.379C460.814 321.95 460.116 321.359 459.625 320.608C459.135 319.857 458.866 318.99 458.82 318.009H462.661C462.753 318.484 462.976 318.883 463.328 319.205C463.681 319.512 464.164 319.665 464.777 319.665C465.498 319.665 466.035 319.435 466.387 318.975C466.74 318.515 466.916 317.902 466.916 317.135C466.916 316.384 466.732 315.809 466.364 315.41C465.996 315.011 465.46 314.812 464.754 314.812C464.233 314.812 463.804 314.942 463.466 315.203C463.129 315.448 462.907 315.778 462.799 316.192H459.004V306.187H469.745V309.637ZM472.882 314.375C472.882 311.738 473.388 309.66 474.4 308.142C475.428 306.624 477.076 305.865 479.345 305.865C481.615 305.865 483.255 306.624 484.267 308.142C485.295 309.66 485.808 311.738 485.808 314.375C485.808 317.043 485.295 319.136 484.267 320.654C483.255 322.172 481.615 322.931 479.345 322.931C477.076 322.931 475.428 322.172 474.4 320.654C473.388 319.136 472.882 317.043 472.882 314.375ZM481.944 314.375C481.944 312.826 481.776 311.638 481.438 310.81C481.101 309.967 480.403 309.545 479.345 309.545C478.287 309.545 477.59 309.967 477.252 310.81C476.915 311.638 476.746 312.826 476.746 314.375C476.746 315.418 476.808 316.284 476.93 316.974C477.053 317.649 477.298 318.201 477.666 318.63C478.05 319.044 478.609 319.251 479.345 319.251C480.081 319.251 480.633 319.044 481.001 318.63C481.385 318.201 481.638 317.649 481.76 316.974C481.883 316.284 481.944 315.418 481.944 314.375ZM487.886 314.375C487.886 311.738 488.392 309.66 489.404 308.142C490.431 306.624 492.08 305.865 494.349 305.865C496.618 305.865 498.259 306.624 499.271 308.142C500.298 309.66 500.812 311.738 500.812 314.375C500.812 317.043 500.298 319.136 499.271 320.654C498.259 322.172 496.618 322.931 494.349 322.931C492.08 322.931 490.431 322.172 489.404 320.654C488.392 319.136 487.886 317.043 487.886 314.375ZM496.948 314.375C496.948 312.826 496.779 311.638 496.442 310.81C496.105 309.967 495.407 309.545 494.349 309.545C493.291 309.545 492.593 309.967 492.256 310.81C491.919 311.638 491.75 312.826 491.75 314.375C491.75 315.418 491.811 316.284 491.934 316.974C492.057 317.649 492.302 318.201 492.67 318.63C493.053 319.044 493.613 319.251 494.349 319.251C495.085 319.251 495.637 319.044 496.005 318.63C496.388 318.201 496.641 317.649 496.764 316.974C496.887 316.284 496.948 315.418 496.948 314.375Z" fill="#7F7619"/>
<path d="M449.07 355.637H441.894V358.811C442.201 358.474 442.63 358.198 443.182 357.983C443.734 357.768 444.332 357.661 444.976 357.661C446.126 357.661 447.077 357.922 447.828 358.443C448.595 358.964 449.154 359.639 449.507 360.467C449.86 361.295 450.036 362.192 450.036 363.158C450.036 364.952 449.53 366.378 448.518 367.436C447.506 368.479 446.08 369 444.24 369C443.013 369 441.948 368.793 441.043 368.379C440.138 367.95 439.441 367.359 438.95 366.608C438.459 365.857 438.191 364.99 438.145 364.009H441.986C442.078 364.484 442.3 364.883 442.653 365.205C443.006 365.512 443.489 365.665 444.102 365.665C444.823 365.665 445.359 365.435 445.712 364.975C446.065 364.515 446.241 363.902 446.241 363.135C446.241 362.384 446.057 361.809 445.689 361.41C445.321 361.011 444.784 360.812 444.079 360.812C443.558 360.812 443.128 360.942 442.791 361.203C442.454 361.448 442.231 361.778 442.124 362.192H438.329V352.187H449.07V355.637ZM456.83 365.366L454.277 371.967H451.77L453.104 365.366H456.83ZM458.81 360.375C458.81 357.738 459.316 355.66 460.328 354.142C461.356 352.624 463.004 351.865 465.273 351.865C467.543 351.865 469.183 352.624 470.195 354.142C471.223 355.66 471.736 357.738 471.736 360.375C471.736 363.043 471.223 365.136 470.195 366.654C469.183 368.172 467.543 368.931 465.273 368.931C463.004 368.931 461.356 368.172 460.328 366.654C459.316 365.136 458.81 363.043 458.81 360.375ZM467.872 360.375C467.872 358.826 467.704 357.638 467.366 356.81C467.029 355.967 466.331 355.545 465.273 355.545C464.215 355.545 463.518 355.967 463.18 356.81C462.843 357.638 462.674 358.826 462.674 360.375C462.674 361.418 462.736 362.284 462.858 362.974C462.981 363.649 463.226 364.201 463.594 364.63C463.978 365.044 464.537 365.251 465.273 365.251C466.009 365.251 466.561 365.044 466.929 364.63C467.313 364.201 467.566 363.649 467.688 362.974C467.811 362.284 467.872 361.418 467.872 360.375ZM473.814 360.375C473.814 357.738 474.32 355.66 475.332 354.142C476.36 352.624 478.008 351.865 480.277 351.865C482.547 351.865 484.187 352.624 485.199 354.142C486.227 355.66 486.74 357.738 486.74 360.375C486.74 363.043 486.227 365.136 485.199 366.654C484.187 368.172 482.547 368.931 480.277 368.931C478.008 368.931 476.36 368.172 475.332 366.654C474.32 365.136 473.814 363.043 473.814 360.375ZM482.876 360.375C482.876 358.826 482.708 357.638 482.37 356.81C482.033 355.967 481.335 355.545 480.277 355.545C479.219 355.545 478.522 355.967 478.184 356.81C477.847 357.638 477.678 358.826 477.678 360.375C477.678 361.418 477.74 362.284 477.862 362.974C477.985 363.649 478.23 364.201 478.598 364.63C478.982 365.044 479.541 365.251 480.277 365.251C481.013 365.251 481.565 365.044 481.933 364.63C482.317 364.201 482.57 363.649 482.692 362.974C482.815 362.284 482.876 361.418 482.876 360.375ZM488.818 360.375C488.818 357.738 489.324 355.66 490.336 354.142C491.364 352.624 493.012 351.865 495.281 351.865C497.551 351.865 499.191 352.624 500.203 354.142C501.231 355.66 501.744 357.738 501.744 360.375C501.744 363.043 501.231 365.136 500.203 366.654C499.191 368.172 497.551 368.931 495.281 368.931C493.012 368.931 491.364 368.172 490.336 366.654C489.324 365.136 488.818 363.043 488.818 360.375ZM497.88 360.375C497.88 358.826 497.712 357.638 497.374 356.81C497.037 355.967 496.339 355.545 495.281 355.545C494.223 355.545 493.526 355.967 493.188 356.81C492.851 357.638 492.682 358.826 492.682 360.375C492.682 361.418 492.744 362.284 492.866 362.974C492.989 363.649 493.234 364.201 493.602 364.63C493.986 365.044 494.545 365.251 495.281 365.251C496.017 365.251 496.569 365.044 496.937 364.63C497.321 364.201 497.574 363.649 497.696 362.974C497.819 362.284 497.88 361.418 497.88 360.375Z" fill="#7F7619"/>
<path d="M430.04 411.849C430.561 411.435 430.799 411.243 430.753 411.274C432.256 410.032 433.436 409.012 434.295 408.215C435.169 407.418 435.905 406.582 436.503 405.708C437.101 404.834 437.4 403.983 437.4 403.155C437.4 402.526 437.254 402.036 436.963 401.683C436.672 401.33 436.235 401.154 435.652 401.154C435.069 401.154 434.609 401.376 434.272 401.821C433.95 402.25 433.789 402.864 433.789 403.661H429.994C430.025 402.358 430.301 401.269 430.822 400.395C431.359 399.521 432.056 398.877 432.915 398.463C433.789 398.049 434.755 397.842 435.813 397.842C437.638 397.842 439.01 398.31 439.93 399.245C440.865 400.18 441.333 401.399 441.333 402.902C441.333 404.543 440.773 406.068 439.654 407.479C438.535 408.874 437.109 410.239 435.376 411.573H441.586V414.77H430.04V411.849ZM455.14 401.637H447.964V404.811C448.27 404.474 448.7 404.198 449.252 403.983C449.804 403.768 450.402 403.661 451.046 403.661C452.196 403.661 453.146 403.922 453.898 404.443C454.664 404.964 455.224 405.639 455.577 406.467C455.929 407.295 456.106 408.192 456.106 409.158C456.106 410.952 455.6 412.378 454.588 413.436C453.576 414.479 452.15 415 450.31 415C449.083 415 448.017 414.793 447.113 414.379C446.208 413.95 445.51 413.359 445.02 412.608C444.529 411.857 444.261 410.99 444.215 410.009H448.056C448.148 410.484 448.37 410.883 448.723 411.205C449.075 411.512 449.558 411.665 450.172 411.665C450.892 411.665 451.429 411.435 451.782 410.975C452.134 410.515 452.311 409.902 452.311 409.135C452.311 408.384 452.127 407.809 451.759 407.41C451.391 407.011 450.854 406.812 450.149 406.812C449.627 406.812 449.198 406.942 448.861 407.203C448.523 407.448 448.301 407.778 448.194 408.192H444.399V398.187H455.14V401.637ZM462.9 411.366L460.347 417.967H457.84L459.174 411.366H462.9ZM464.88 406.375C464.88 403.738 465.386 401.66 466.398 400.142C467.426 398.624 469.074 397.865 471.343 397.865C473.613 397.865 475.253 398.624 476.265 400.142C477.293 401.66 477.806 403.738 477.806 406.375C477.806 409.043 477.293 411.136 476.265 412.654C475.253 414.172 473.613 414.931 471.343 414.931C469.074 414.931 467.426 414.172 466.398 412.654C465.386 411.136 464.88 409.043 464.88 406.375ZM473.942 406.375C473.942 404.826 473.774 403.638 473.436 402.81C473.099 401.967 472.401 401.545 471.343 401.545C470.285 401.545 469.588 401.967 469.25 402.81C468.913 403.638 468.744 404.826 468.744 406.375C468.744 407.418 468.806 408.284 468.928 408.974C469.051 409.649 469.296 410.201 469.664 410.63C470.048 411.044 470.607 411.251 471.343 411.251C472.079 411.251 472.631 411.044 472.999 410.63C473.383 410.201 473.636 409.649 473.758 408.974C473.881 408.284 473.942 407.418 473.942 406.375ZM479.884 406.375C479.884 403.738 480.39 401.66 481.402 400.142C482.429 398.624 484.078 397.865 486.347 397.865C488.616 397.865 490.257 398.624 491.269 400.142C492.296 401.66 492.81 403.738 492.81 406.375C492.81 409.043 492.296 411.136 491.269 412.654C490.257 414.172 488.616 414.931 486.347 414.931C484.078 414.931 482.429 414.172 481.402 412.654C480.39 411.136 479.884 409.043 479.884 406.375ZM488.946 406.375C488.946 404.826 488.777 403.638 488.44 402.81C488.103 401.967 487.405 401.545 486.347 401.545C485.289 401.545 484.591 401.967 484.254 402.81C483.917 403.638 483.748 404.826 483.748 406.375C483.748 407.418 483.809 408.284 483.932 408.974C484.055 409.649 484.3 410.201 484.668 410.63C485.051 411.044 485.611 411.251 486.347 411.251C487.083 411.251 487.635 411.044 488.003 410.63C488.386 410.201 488.639 409.649 488.762 408.974C488.885 408.284 488.946 407.418 488.946 406.375ZM494.888 406.375C494.888 403.738 495.394 401.66 496.406 400.142C497.433 398.624 499.082 397.865 501.351 397.865C503.62 397.865 505.261 398.624 506.273 400.142C507.3 401.66 507.814 403.738 507.814 406.375C507.814 409.043 507.3 411.136 506.273 412.654C505.261 414.172 503.62 414.931 501.351 414.931C499.082 414.931 497.433 414.172 496.406 412.654C495.394 411.136 494.888 409.043 494.888 406.375ZM503.95 406.375C503.95 404.826 503.781 403.638 503.444 402.81C503.107 401.967 502.409 401.545 501.351 401.545C500.293 401.545 499.595 401.967 499.258 402.81C498.921 403.638 498.752 404.826 498.752 406.375C498.752 407.418 498.813 408.284 498.936 408.974C499.059 409.649 499.304 410.201 499.672 410.63C500.055 411.044 500.615 411.251 501.351 411.251C502.087 411.251 502.639 411.044 503.007 410.63C503.39 410.201 503.643 409.649 503.766 408.974C503.889 408.284 503.95 407.418 503.95 406.375Z" fill="#7F7619"/>
<path d="M441.068 447.637H433.892V450.811C434.199 450.474 434.628 450.198 435.18 449.983C435.732 449.768 436.33 449.661 436.974 449.661C438.124 449.661 439.075 449.922 439.826 450.443C440.593 450.964 441.152 451.639 441.505 452.467C441.858 453.295 442.034 454.192 442.034 455.158C442.034 456.952 441.528 458.378 440.516 459.436C439.504 460.479 438.078 461 436.238 461C435.011 461 433.946 460.793 433.041 460.379C432.136 459.95 431.439 459.359 430.948 458.608C430.457 457.857 430.189 456.99 430.143 456.009H433.984C434.076 456.484 434.298 456.883 434.651 457.205C435.004 457.512 435.487 457.665 436.1 457.665C436.821 457.665 437.357 457.435 437.71 456.975C438.063 456.515 438.239 455.902 438.239 455.135C438.239 454.384 438.055 453.809 437.687 453.41C437.319 453.011 436.782 452.812 436.077 452.812C435.556 452.812 435.126 452.942 434.789 453.203C434.452 453.448 434.229 453.778 434.122 454.192H430.327V444.187H441.068V447.637ZM444.205 452.375C444.205 449.738 444.711 447.66 445.723 446.142C446.75 444.624 448.399 443.865 450.668 443.865C452.937 443.865 454.578 444.624 455.59 446.142C456.617 447.66 457.131 449.738 457.131 452.375C457.131 455.043 456.617 457.136 455.59 458.654C454.578 460.172 452.937 460.931 450.668 460.931C448.399 460.931 446.75 460.172 445.723 458.654C444.711 457.136 444.205 455.043 444.205 452.375ZM453.267 452.375C453.267 450.826 453.098 449.638 452.761 448.81C452.424 447.967 451.726 447.545 450.668 447.545C449.61 447.545 448.912 447.967 448.575 448.81C448.238 449.638 448.069 450.826 448.069 452.375C448.069 453.418 448.13 454.284 448.253 454.974C448.376 455.649 448.621 456.201 448.989 456.63C449.372 457.044 449.932 457.251 450.668 457.251C451.404 457.251 451.956 457.044 452.324 456.63C452.707 456.201 452.96 455.649 453.083 454.974C453.206 454.284 453.267 453.418 453.267 452.375ZM463.832 457.366L461.279 463.967H458.772L460.106 457.366H463.832ZM465.812 452.375C465.812 449.738 466.318 447.66 467.33 446.142C468.358 444.624 470.006 443.865 472.275 443.865C474.545 443.865 476.185 444.624 477.197 446.142C478.225 447.66 478.738 449.738 478.738 452.375C478.738 455.043 478.225 457.136 477.197 458.654C476.185 460.172 474.545 460.931 472.275 460.931C470.006 460.931 468.358 460.172 467.33 458.654C466.318 457.136 465.812 455.043 465.812 452.375ZM474.874 452.375C474.874 450.826 474.706 449.638 474.368 448.81C474.031 447.967 473.333 447.545 472.275 447.545C471.217 447.545 470.52 447.967 470.182 448.81C469.845 449.638 469.676 450.826 469.676 452.375C469.676 453.418 469.738 454.284 469.86 454.974C469.983 455.649 470.228 456.201 470.596 456.63C470.98 457.044 471.539 457.251 472.275 457.251C473.011 457.251 473.563 457.044 473.931 456.63C474.315 456.201 474.568 455.649 474.69 454.974C474.813 454.284 474.874 453.418 474.874 452.375ZM480.816 452.375C480.816 449.738 481.322 447.66 482.334 446.142C483.362 444.624 485.01 443.865 487.279 443.865C489.549 443.865 491.189 444.624 492.201 446.142C493.229 447.66 493.742 449.738 493.742 452.375C493.742 455.043 493.229 457.136 492.201 458.654C491.189 460.172 489.549 460.931 487.279 460.931C485.01 460.931 483.362 460.172 482.334 458.654C481.322 457.136 480.816 455.043 480.816 452.375ZM489.878 452.375C489.878 450.826 489.71 449.638 489.372 448.81C489.035 447.967 488.337 447.545 487.279 447.545C486.221 447.545 485.524 447.967 485.186 448.81C484.849 449.638 484.68 450.826 484.68 452.375C484.68 453.418 484.742 454.284 484.864 454.974C484.987 455.649 485.232 456.201 485.6 456.63C485.984 457.044 486.543 457.251 487.279 457.251C488.015 457.251 488.567 457.044 488.935 456.63C489.319 456.201 489.572 455.649 489.694 454.974C489.817 454.284 489.878 453.418 489.878 452.375ZM495.82 452.375C495.82 449.738 496.326 447.66 497.338 446.142C498.365 444.624 500.014 443.865 502.283 443.865C504.552 443.865 506.193 444.624 507.205 446.142C508.232 447.66 508.746 449.738 508.746 452.375C508.746 455.043 508.232 457.136 507.205 458.654C506.193 460.172 504.552 460.931 502.283 460.931C500.014 460.931 498.365 460.172 497.338 458.654C496.326 457.136 495.82 455.043 495.82 452.375ZM504.882 452.375C504.882 450.826 504.713 449.638 504.376 448.81C504.039 447.967 503.341 447.545 502.283 447.545C501.225 447.545 500.527 447.967 500.19 448.81C499.853 449.638 499.684 450.826 499.684 452.375C499.684 453.418 499.745 454.284 499.868 454.974C499.991 455.649 500.236 456.201 500.604 456.63C500.987 457.044 501.547 457.251 502.283 457.251C503.019 457.251 503.571 457.044 503.939 456.63C504.322 456.201 504.575 455.649 504.698 454.974C504.821 454.284 504.882 453.418 504.882 452.375Z" fill="#7F7619"/>
<path d="M395.274 115.161C394.093 115.161 393.035 114.969 392.1 114.586C391.165 114.203 390.413 113.635 389.846 112.884C389.294 112.133 389.003 111.228 388.972 110.17H393.158C393.219 110.768 393.426 111.228 393.779 111.55C394.132 111.857 394.592 112.01 395.159 112.01C395.742 112.01 396.202 111.88 396.539 111.619C396.876 111.343 397.045 110.967 397.045 110.492C397.045 110.093 396.907 109.764 396.631 109.503C396.37 109.242 396.041 109.028 395.642 108.859C395.259 108.69 394.707 108.499 393.986 108.284C392.943 107.962 392.092 107.64 391.433 107.318C390.774 106.996 390.206 106.521 389.731 105.892C389.256 105.263 389.018 104.443 389.018 103.431C389.018 101.928 389.562 100.755 390.651 99.912C391.74 99.0533 393.158 98.624 394.906 98.624C396.685 98.624 398.118 99.0533 399.207 99.912C400.296 100.755 400.878 101.936 400.955 103.454H396.7C396.669 102.933 396.478 102.526 396.125 102.235C395.772 101.928 395.32 101.775 394.768 101.775C394.293 101.775 393.909 101.905 393.618 102.166C393.327 102.411 393.181 102.772 393.181 103.247C393.181 103.768 393.426 104.175 393.917 104.466C394.408 104.757 395.174 105.072 396.217 105.409C397.26 105.762 398.103 106.099 398.747 106.421C399.406 106.743 399.974 107.211 400.449 107.824C400.924 108.437 401.162 109.227 401.162 110.193C401.162 111.113 400.924 111.949 400.449 112.7C399.989 113.451 399.314 114.049 398.425 114.494C397.536 114.939 396.485 115.161 395.274 115.161ZM415.197 98.854V102.005H410.919V115H406.986V102.005H402.708V98.854H415.197ZM427.222 112.148H421.196L420.23 115H416.113L421.955 98.854H426.509L432.351 115H428.188L427.222 112.148ZM426.21 109.112L424.209 103.201L422.231 109.112H426.21ZM443.49 115L438.062 107.87V115H434.129V98.854H438.062V105.938L443.444 98.854H448.067L441.811 106.766L448.297 115H443.49ZM454.099 102.005V105.271H459.366V108.307H454.099V111.849H460.056V115H450.166V98.854H460.056V102.005H454.099ZM468.659 98.854C470.361 98.854 471.848 99.1913 473.121 99.866C474.393 100.541 475.375 101.491 476.065 102.718C476.77 103.929 477.123 105.332 477.123 106.927C477.123 108.506 476.77 109.909 476.065 111.136C475.375 112.363 474.386 113.313 473.098 113.988C471.825 114.663 470.345 115 468.659 115H462.61V98.854H468.659ZM468.406 111.596C469.893 111.596 471.051 111.19 471.879 110.377C472.707 109.564 473.121 108.414 473.121 106.927C473.121 105.44 472.707 104.282 471.879 103.454C471.051 102.626 469.893 102.212 468.406 102.212H466.543V111.596H468.406ZM496.408 110.308C496.408 111.151 496.185 111.933 495.741 112.654C495.311 113.359 494.667 113.942 493.809 114.402C492.965 114.847 491.961 115.092 490.796 115.138V117.001H489.324V115.115C487.698 114.977 486.387 114.494 485.391 113.666C484.394 112.823 483.865 111.68 483.804 110.239H487.99C488.082 111.159 488.526 111.749 489.324 112.01V108.376C488.128 108.069 487.169 107.77 486.449 107.479C485.743 107.188 485.122 106.72 484.586 106.076C484.049 105.432 483.781 104.55 483.781 103.431C483.781 102.036 484.294 100.916 485.322 100.073C486.364 99.2297 487.698 98.7543 489.324 98.647V96.784H490.796V98.647C492.406 98.7697 493.678 99.2373 494.614 100.05C495.549 100.863 496.07 101.99 496.178 103.431H491.969C491.877 102.603 491.486 102.066 490.796 101.821V105.386C492.068 105.739 493.05 106.053 493.74 106.329C494.43 106.605 495.043 107.065 495.58 107.709C496.132 108.338 496.408 109.204 496.408 110.308ZM487.944 103.247C487.944 103.63 488.059 103.952 488.289 104.213C488.534 104.474 488.879 104.704 489.324 104.903V101.706C488.894 101.783 488.557 101.951 488.312 102.212C488.066 102.457 487.944 102.802 487.944 103.247ZM490.796 112.079C491.256 112.002 491.616 111.818 491.877 111.527C492.153 111.236 492.291 110.875 492.291 110.446C492.291 110.047 492.16 109.725 491.9 109.48C491.654 109.219 491.286 108.997 490.796 108.813V112.079ZM505.382 98.854C507.084 98.854 508.572 99.1913 509.844 99.866C511.117 100.541 512.098 101.491 512.788 102.718C513.494 103.929 513.846 105.332 513.846 106.927C513.846 108.506 513.494 109.909 512.788 111.136C512.098 112.363 511.109 113.313 509.821 113.988C508.549 114.663 507.069 115 505.382 115H499.333V98.854H505.382ZM505.129 111.596C506.617 111.596 507.774 111.19 508.602 110.377C509.43 109.564 509.844 108.414 509.844 106.927C509.844 105.44 509.43 104.282 508.602 103.454C507.774 102.626 506.617 102.212 505.129 102.212H503.266V111.596H505.129ZM523.68 115.161C522.162 115.161 520.767 114.808 519.494 114.103C518.237 113.398 517.232 112.416 516.481 111.159C515.745 109.886 515.377 108.46 515.377 106.881C515.377 105.302 515.745 103.883 516.481 102.626C517.232 101.369 518.237 100.387 519.494 99.682C520.767 98.9767 522.162 98.624 523.68 98.624C525.198 98.624 526.586 98.9767 527.843 99.682C529.116 100.387 530.112 101.369 530.833 102.626C531.569 103.883 531.937 105.302 531.937 106.881C531.937 108.46 531.569 109.886 530.833 111.159C530.097 112.416 529.1 113.398 527.843 114.103C526.586 114.808 525.198 115.161 523.68 115.161ZM523.68 111.573C524.968 111.573 525.995 111.144 526.762 110.285C527.544 109.426 527.935 108.292 527.935 106.881C527.935 105.455 527.544 104.32 526.762 103.477C525.995 102.618 524.968 102.189 523.68 102.189C522.377 102.189 521.334 102.611 520.552 103.454C519.785 104.297 519.402 105.44 519.402 106.881C519.402 108.307 519.785 109.449 520.552 110.308C521.334 111.151 522.377 111.573 523.68 111.573ZM548.569 115H544.636L538.058 105.041V115H534.125V98.854H538.058L544.636 108.859V98.854H548.569V115Z" fill="#7F7619"/>
<path d="M665.702 83.148H659.676L658.71 86H654.593L660.435 69.854H664.989L670.831 86H666.668L665.702 83.148ZM664.69 80.112L662.689 74.201L660.711 80.112H664.69ZM671.942 77.904C671.942 76.3093 672.287 74.891 672.977 73.649C673.667 72.3917 674.625 71.418 675.852 70.728C677.094 70.0227 678.497 69.67 680.061 69.67C681.978 69.67 683.618 70.176 684.983 71.188C686.348 72.2 687.26 73.58 687.72 75.328H683.396C683.074 74.6533 682.614 74.1397 682.016 73.787C681.433 73.4343 680.766 73.258 680.015 73.258C678.804 73.258 677.822 73.6797 677.071 74.523C676.32 75.3663 675.944 76.4933 675.944 77.904C675.944 79.3147 676.32 80.4417 677.071 81.285C677.822 82.1283 678.804 82.55 680.015 82.55C680.766 82.55 681.433 82.3737 682.016 82.021C682.614 81.6683 683.074 81.1547 683.396 80.48H687.72C687.26 82.228 686.348 83.608 684.983 84.62C683.618 85.6167 681.978 86.115 680.061 86.115C678.497 86.115 677.094 85.77 675.852 85.08C674.625 84.3747 673.667 83.401 672.977 82.159C672.287 80.917 671.942 79.4987 671.942 77.904ZM689.462 77.904C689.462 76.3093 689.807 74.891 690.497 73.649C691.187 72.3917 692.145 71.418 693.372 70.728C694.614 70.0227 696.017 69.67 697.581 69.67C699.497 69.67 701.138 70.176 702.503 71.188C703.867 72.2 704.78 73.58 705.24 75.328H700.916C700.594 74.6533 700.134 74.1397 699.536 73.787C698.953 73.4343 698.286 73.258 697.535 73.258C696.323 73.258 695.342 73.6797 694.591 74.523C693.839 75.3663 693.464 76.4933 693.464 77.904C693.464 79.3147 693.839 80.4417 694.591 81.285C695.342 82.1283 696.323 82.55 697.535 82.55C698.286 82.55 698.953 82.3737 699.536 82.021C700.134 81.6683 700.594 81.1547 700.916 80.48H705.24C704.78 82.228 703.867 83.608 702.503 84.62C701.138 85.6167 699.497 86.115 697.581 86.115C696.017 86.115 694.614 85.77 693.372 85.08C692.145 84.3747 691.187 83.401 690.497 82.159C689.807 80.917 689.462 79.4987 689.462 77.904ZM711.581 73.005V76.271H716.848V79.307H711.581V82.849H717.538V86H707.648V69.854H717.538V73.005H711.581ZM724.025 82.964H729.177V86H720.092V69.854H724.025V82.964ZM734.985 73.005V76.271H740.252V79.307H734.985V82.849H740.942V86H731.052V69.854H740.942V73.005H734.985ZM751.73 86L748.372 79.905H747.429V86H743.496V69.854H750.097C751.369 69.854 752.45 70.0763 753.34 70.521C754.244 70.9657 754.919 71.579 755.364 72.361C755.808 73.1277 756.031 73.9863 756.031 74.937C756.031 76.0103 755.724 76.9687 755.111 77.812C754.513 78.6553 753.623 79.2533 752.443 79.606L756.169 86H751.73ZM747.429 77.122H749.867C750.587 77.122 751.124 76.9457 751.477 76.593C751.845 76.2403 752.029 75.742 752.029 75.098C752.029 74.4847 751.845 74.0017 751.477 73.649C751.124 73.2963 750.587 73.12 749.867 73.12H747.429V77.122ZM768.551 83.148H762.525L761.559 86H757.442L763.284 69.854H767.838L773.68 86H769.517L768.551 83.148ZM767.539 80.112L765.538 74.201L763.56 80.112H767.539ZM787.073 69.854V73.005H782.795V86H778.862V73.005H774.584V69.854H787.073ZM792.98 73.005V76.271H798.247V79.307H792.98V82.849H798.937V86H789.047V69.854H798.937V73.005H792.98ZM807.539 69.854C809.241 69.854 810.728 70.1913 812.001 70.866C813.274 71.5407 814.255 72.4913 814.945 73.718C815.65 74.9293 816.003 76.3323 816.003 77.927C816.003 79.5063 815.65 80.9093 814.945 82.136C814.255 83.3627 813.266 84.3133 811.978 84.988C810.705 85.6627 809.226 86 807.539 86H801.49V69.854H807.539ZM807.286 82.596C808.773 82.596 809.931 82.1897 810.759 81.377C811.587 80.5643 812.001 79.4143 812.001 77.927C812.001 76.4397 811.587 75.282 810.759 74.454C809.931 73.626 808.773 73.212 807.286 73.212H805.423V82.596H807.286ZM687.93 116L684.572 109.905H683.629V116H679.696V99.854H686.297C687.569 99.854 688.65 100.076 689.54 100.521C690.444 100.966 691.119 101.579 691.564 102.361C692.008 103.128 692.231 103.986 692.231 104.937C692.231 106.01 691.924 106.969 691.311 107.812C690.713 108.655 689.823 109.253 688.643 109.606L692.369 116H687.93ZM683.629 107.122H686.067C686.787 107.122 687.324 106.946 687.677 106.593C688.045 106.24 688.229 105.742 688.229 105.098C688.229 104.485 688.045 104.002 687.677 103.649C687.324 103.296 686.787 103.12 686.067 103.12H683.629V107.122ZM698.632 103.005V106.271H703.899V109.307H698.632V112.849H704.589V116H694.699V99.854H704.589V103.005H698.632ZM729.361 99.854L725.152 116H720.391L717.815 105.374L715.147 116H710.386L706.292 99.854H710.501L712.824 111.607L715.699 99.854H720.023L722.783 111.607L725.129 99.854H729.361ZM741.384 113.148H735.358L734.392 116H730.275L736.117 99.854H740.671L746.513 116H742.35L741.384 113.148ZM740.372 110.112L738.371 104.201L736.393 110.112H740.372ZM756.525 116L753.167 109.905H752.224V116H748.291V99.854H754.892C756.165 99.854 757.246 100.076 758.135 100.521C759.04 100.966 759.715 101.579 760.159 102.361C760.604 103.128 760.826 103.986 760.826 104.937C760.826 106.01 760.52 106.969 759.906 107.812C759.308 108.655 758.419 109.253 757.238 109.606L760.964 116H756.525ZM752.224 107.122H754.662C755.383 107.122 755.92 106.946 756.272 106.593C756.64 106.24 756.824 105.742 756.824 105.098C756.824 104.485 756.64 104.002 756.272 103.649C755.92 103.296 755.383 103.12 754.662 103.12H752.224V107.122ZM769.344 99.854C771.046 99.854 772.533 100.191 773.806 100.866C775.079 101.541 776.06 102.491 776.75 103.718C777.455 104.929 777.808 106.332 777.808 107.927C777.808 109.506 777.455 110.909 776.75 112.136C776.06 113.363 775.071 114.313 773.783 114.988C772.51 115.663 771.031 116 769.344 116H763.295V99.854H769.344ZM769.091 112.596C770.578 112.596 771.736 112.19 772.564 111.377C773.392 110.564 773.806 109.414 773.806 107.927C773.806 106.44 773.392 105.282 772.564 104.454C771.736 103.626 770.578 103.212 769.091 103.212H767.228V112.596H769.091ZM785.848 116.161C784.667 116.161 783.609 115.969 782.674 115.586C781.739 115.203 780.987 114.635 780.42 113.884C779.868 113.133 779.577 112.228 779.546 111.17H783.732C783.793 111.768 784 112.228 784.353 112.55C784.706 112.857 785.166 113.01 785.733 113.01C786.316 113.01 786.776 112.88 787.113 112.619C787.45 112.343 787.619 111.967 787.619 111.492C787.619 111.093 787.481 110.764 787.205 110.503C786.944 110.242 786.615 110.028 786.216 109.859C785.833 109.69 785.281 109.499 784.56 109.284C783.517 108.962 782.666 108.64 782.007 108.318C781.348 107.996 780.78 107.521 780.305 106.892C779.83 106.263 779.592 105.443 779.592 104.431C779.592 102.928 780.136 101.755 781.225 100.912C782.314 100.053 783.732 99.624 785.48 99.624C787.259 99.624 788.692 100.053 789.781 100.912C790.87 101.755 791.452 102.936 791.529 104.454H787.274C787.243 103.933 787.052 103.526 786.699 103.235C786.346 102.928 785.894 102.775 785.342 102.775C784.867 102.775 784.483 102.905 784.192 103.166C783.901 103.411 783.755 103.772 783.755 104.247C783.755 104.768 784 105.175 784.491 105.466C784.982 105.757 785.748 106.072 786.791 106.409C787.834 106.762 788.677 107.099 789.321 107.421C789.98 107.743 790.548 108.211 791.023 108.824C791.498 109.437 791.736 110.227 791.736 111.193C791.736 112.113 791.498 112.949 791.023 113.7C790.563 114.451 789.888 115.049 788.999 115.494C788.11 115.939 787.059 116.161 785.848 116.161ZM668.23 150.807C666.742 149.381 665.585 147.541 664.757 145.287C663.929 143.033 663.515 140.603 663.515 137.996C663.515 135.359 663.944 132.898 664.803 130.613C665.661 128.313 666.88 126.442 668.46 125.001H672.324V125.369C670.714 126.964 669.472 128.88 668.598 131.119C667.724 133.342 667.287 135.635 667.287 137.996C667.287 140.342 667.708 142.604 668.552 144.781C669.395 146.958 670.583 148.844 672.117 150.439V150.807H668.23ZM677.834 133.005V136.271H683.101V139.307H677.834V142.849H683.791V146H673.901V129.854H683.791V133.005H677.834ZM696.234 146L692.945 141.055L690.047 146H685.585L690.76 137.789L685.47 129.854H690.047L693.29 134.73L696.142 129.854H700.604L695.475 137.996L700.811 146H696.234ZM714.4 129.854V133.005H710.122V146H706.189V133.005H701.911V129.854H714.4ZM724.608 146L721.25 139.905H720.307V146H716.374V129.854H722.975C724.248 129.854 725.329 130.076 726.218 130.521C727.123 130.966 727.798 131.579 728.242 132.361C728.687 133.128 728.909 133.986 728.909 134.937C728.909 136.01 728.603 136.969 727.989 137.812C727.391 138.655 726.502 139.253 725.321 139.606L729.047 146H724.608ZM720.307 137.122H722.745C723.466 137.122 724.003 136.946 724.355 136.593C724.723 136.24 724.907 135.742 724.907 135.098C724.907 134.485 724.723 134.002 724.355 133.649C724.003 133.296 723.466 133.12 722.745 133.12H720.307V137.122ZM741.429 143.148H735.403L734.437 146H730.32L736.162 129.854H740.716L746.558 146H742.395L741.429 143.148ZM740.417 140.112L738.416 134.201L736.438 140.112H740.417ZM763.261 143.148H757.235L756.269 146H752.152L757.994 129.854H762.548L768.39 146H764.227L763.261 143.148ZM762.249 140.112L760.248 134.201L758.27 140.112H762.249ZM782.473 135.052C782.473 135.987 782.259 136.846 781.829 137.628C781.4 138.395 780.741 139.016 779.851 139.491C778.962 139.966 777.858 140.204 776.539 140.204H774.101V146H770.168V129.854H776.539C777.827 129.854 778.916 130.076 779.805 130.521C780.695 130.966 781.362 131.579 781.806 132.361C782.251 133.143 782.473 134.04 782.473 135.052ZM776.24 137.076C776.992 137.076 777.551 136.9 777.919 136.547C778.287 136.194 778.471 135.696 778.471 135.052C778.471 134.408 778.287 133.91 777.919 133.557C777.551 133.204 776.992 133.028 776.24 133.028H774.101V137.076H776.24ZM798.367 129.854L792.778 140.664V146H788.845V140.664L783.256 129.854H787.718L790.846 136.616L793.951 129.854H798.367ZM798.893 150.807V150.439C800.427 148.844 801.615 146.958 802.458 144.781C803.302 142.604 803.723 140.342 803.723 137.996C803.723 135.635 803.286 133.342 802.412 131.119C801.538 128.88 800.296 126.964 798.686 125.369V125.001H802.55C804.13 126.442 805.349 128.313 806.207 130.613C807.066 132.898 807.495 135.359 807.495 137.996C807.495 140.603 807.081 143.033 806.253 145.287C805.425 147.541 804.268 149.381 802.78 150.807H798.893Z" fill="#7F7619"/>
</svg>
