<svg width="54" height="54" viewBox="0 0 54 54" fill="none" xmlns="http://www.w3.org/2000/svg">
<rect width="54" height="54" rx="10" fill="#FFF037"/>
<g clip-path="url(#clip0_11399_26756)">
<path d="M27.9587 31.9541V31.8333C27.3415 31.8266 26.7511 31.7931 26.1808 31.7461C25.8721 32.5445 25.436 33.2892 24.8926 33.9534C25.9191 34.1212 26.959 34.2151 27.999 34.2285L27.9587 31.9541Z" fill="black"/>
<path d="M25.24 27.5116C24.7436 25.1365 22.9924 23.2043 20.6643 22.4729C20.0202 22.2784 19.356 22.1777 18.6851 22.1777C17.0212 22.1844 15.4109 22.8017 14.1831 23.9154C11.4525 26.3979 11.2579 30.6314 13.7403 33.3621C16.2228 36.0928 20.4563 36.2874 23.187 33.8049C24.5825 32.5369 25.3809 30.7455 25.3742 28.8602C25.3742 28.4107 25.3273 27.9544 25.24 27.5116ZM18.6851 27.9611C19.8189 27.9611 20.8186 28.7126 21.1273 29.8062C21.503 31.1548 20.7247 32.5503 19.3694 32.9327V33.5231C19.3694 33.8922 19.0675 34.1941 18.6985 34.1941C18.3295 34.1941 18.0276 33.8922 18.0276 33.5231V32.9394C16.9205 32.6375 16.1557 31.6378 16.149 30.4905C16.149 30.1215 16.4509 29.8196 16.8199 29.8196C17.1889 29.8196 17.4908 30.1215 17.4908 30.4905C17.4908 31.1481 18.0276 31.6781 18.6851 31.6781C19.3426 31.6781 19.8726 31.1413 19.8726 30.4838C19.8726 29.8263 19.3359 29.2963 18.6784 29.2963C17.5311 29.2963 16.5314 28.5247 16.2362 27.4177C15.8806 26.0758 16.6857 24.6803 18.0343 24.318V24.0295C18.0343 23.6605 18.3362 23.3586 18.7052 23.3586C19.0742 23.3586 19.3761 23.6605 19.3761 24.0295V24.3314C20.4697 24.64 21.2212 25.6397 21.2212 26.7736C21.2212 27.1426 20.9193 27.4445 20.5503 27.4445C20.1812 27.4445 19.8793 27.1426 19.8793 26.7736C19.8793 26.1161 19.3426 25.5793 18.6851 25.5793C18.0276 25.5793 17.4975 26.1094 17.4908 26.7736C17.4908 27.4311 18.0276 27.9611 18.6851 27.9611Z" fill="black"/>
<path d="M27.9374 30.4846L27.8971 28.1095C27.4812 28.1028 27.0719 28.0893 26.6828 28.0625C26.7029 28.3309 26.7163 28.5925 26.7163 28.8542C26.7163 29.3775 26.6627 29.9076 26.562 30.4242C27.0048 30.4644 27.4678 30.4846 27.9374 30.4846Z" fill="black"/>
<path d="M35.2848 19.3809C34.8218 19.6224 34.3321 19.817 33.8289 19.9646C32.3193 20.4208 30.34 20.669 28.2736 20.669C26.2943 20.669 24.409 20.4409 22.9531 20.0182C22.4499 19.8841 21.9668 19.6962 21.5039 19.4614L21.5509 21.3534C22.309 21.6352 23.0135 22.0377 23.6509 22.5409C23.671 22.5476 23.6844 22.5476 23.7046 22.5544C24.9927 22.8831 26.6164 23.0575 28.2736 23.0575C30.1924 23.0575 32.0777 22.816 33.4397 22.4067C34.8956 21.9639 35.2177 21.501 35.2177 21.4138C35.2177 21.3198 35.211 21.2326 35.2848 21.1387V19.3809Z" fill="black"/>
<path d="M33.4362 16.7172C32.0742 16.3012 30.1889 16.0664 28.27 16.0664C26.3377 16.0664 24.5262 16.3012 23.1709 16.7172C21.7553 17.1466 21.4467 17.5693 21.4399 17.7035C21.4399 17.7035 21.4467 17.7035 21.4467 17.7169C21.4802 17.8645 21.8828 18.3207 23.3253 18.7367C24.6604 19.1258 26.4182 19.3405 28.27 19.3405C30.1889 19.3405 32.0675 19.1057 33.4294 18.6965C34.8854 18.2603 35.2141 17.7974 35.2141 17.7035C35.2141 17.6163 34.8921 17.16 33.4362 16.7172Z" fill="black"/>
<path d="M42.9863 35.2804V33.2676C42.5368 33.4957 42.0671 33.6903 41.5773 33.8379C40.0744 34.2941 38.1086 34.5423 36.0355 34.5423C34.1971 34.5423 32.4057 34.3344 30.9968 33.9653C30.4198 33.8177 29.8629 33.6165 29.3262 33.3548L29.3597 35.3005C29.3597 35.3072 29.3597 35.3072 29.3597 35.3139C29.3597 35.4145 29.6549 35.8641 31.0706 36.3002C32.4124 36.7094 34.2239 36.9376 36.1629 36.9376C38.0952 36.9376 39.9134 36.7027 41.2687 36.28C42.6844 35.8372 42.993 35.3743 42.993 35.2804H42.9863Z" fill="black"/>
<path d="M35.2702 23.125C34.8073 23.3598 34.3242 23.5544 33.821 23.702C32.3114 24.1582 30.3322 24.4065 28.259 24.4065C27.2392 24.4065 26.2261 24.3394 25.2197 24.2119C25.7632 24.9633 26.1657 25.8087 26.4207 26.7078C26.9977 26.748 27.6216 26.7749 28.2657 26.7749C28.2859 26.7749 28.3127 26.7749 28.3328 26.7749C29.4332 25.5672 32.3919 24.9633 35.2702 24.8828V23.125Z" fill="black"/>
<path d="M41.5297 30.1289C40.0335 30.5717 38.0878 30.8132 36.0482 30.8132C34.069 30.8132 32.1837 30.5851 30.7278 30.1624C30.2246 30.0215 29.7348 29.8337 29.2651 29.5988L29.292 31.142L29.2987 31.7056C29.822 32.3564 32.3246 33.195 36.0415 33.195C37.9805 33.195 39.8121 32.9669 41.1875 32.5509C42.6367 32.1081 42.9521 31.6519 42.9521 31.558C42.9521 31.4842 42.9923 31.4036 42.9923 31.3366H42.999V29.5586C42.5294 29.7934 42.0396 29.9947 41.5297 30.1289Z" fill="black"/>
<path d="M41.2169 26.8737C39.8482 26.4577 37.9696 26.2363 36.0508 26.2363H35.9367C34.152 26.2363 32.4546 26.4376 31.153 26.8066C29.7642 27.1958 29.2878 27.6386 29.2274 27.8197C29.2207 27.8331 29.2207 27.8399 29.2207 27.8466C29.2207 27.8466 29.2207 27.8466 29.2341 27.8734C29.2744 28.0143 29.6702 28.4705 31.1127 28.8932C32.4479 29.2756 34.2057 29.4903 36.0575 29.4903C37.9696 29.4903 39.7811 29.2689 41.1565 28.8597C42.646 28.4169 42.9815 27.9539 42.9882 27.8533V27.8466C42.9815 27.7459 42.646 27.3031 41.2169 26.8737Z" fill="black"/>
</g>
<defs>
<clipPath id="clip0_11399_26756">
<rect width="31" height="31" fill="white" transform="translate(12 11.002)"/>
</clipPath>
</defs>
</svg>
