<svg width="148" height="64" viewBox="0 0 148 64" fill="none" xmlns="http://www.w3.org/2000/svg">
<path d="M21.8998 37.9844L40.5973 56.7978H3.20215L21.8998 37.9844Z" fill="#222222"/>
<path d="M21.8909 32.653L39.2152 49.9634C39.8142 50.5618 40.7854 50.5618 41.3844 49.9634C41.9833 49.3648 41.9833 48.3945 41.3844 47.796L22.9755 29.4019C22.3765 28.8035 21.4054 28.8035 20.8064 29.4019L2.39741 47.796C1.80883 48.4049 1.82573 49.3753 2.43516 49.9634C3.02968 50.537 3.97215 50.537 4.56657 49.9634L21.8909 32.653Z" fill="#222222"/>
<path d="M21.8909 23.989L39.2152 41.2993C39.8142 41.8977 40.7854 41.8977 41.3844 41.2993C41.9833 40.7007 41.9833 39.7304 41.3844 39.1319L22.9755 20.7378C22.3765 20.1395 21.4054 20.1395 20.8064 20.7378L2.39741 39.1319C1.80883 39.7409 1.82573 40.7111 2.43516 41.2993C3.02968 41.8729 3.97215 41.8729 4.56657 41.2993L21.8909 23.989Z" fill="#222222"/>
<path d="M21.8909 14.8874L39.2152 32.1978C39.8142 32.7962 40.7854 32.7962 41.3844 32.1978C41.9833 31.5991 41.9833 30.6289 41.3844 30.0303L22.9755 11.6362C22.3765 11.0379 21.4054 11.0379 20.8064 11.6362L2.39741 30.0303C1.80883 30.6393 1.82573 31.6097 2.43516 32.1978C3.02968 32.7714 3.97215 32.7714 4.56657 32.1978L21.8909 14.8874Z" fill="#222222"/>
<path d="M63.5197 43.5457C63.5197 43.611 63.5163 43.7155 63.5098 43.8593C63.5033 43.9964 63.5001 44.0977 63.5001 44.163C63.5001 44.6007 63.5197 45.0644 63.5588 45.5544C63.5981 46.0443 63.6602 46.5832 63.7452 47.1711L62.7743 47.3378C62.6697 46.3644 62.2546 45.6099 61.5289 45.0742C60.8032 44.532 59.8454 44.2609 58.6555 44.2609C57.1388 44.2609 55.962 44.7346 55.1252 45.6818C54.2949 46.6225 53.8798 47.9551 53.8798 49.6796C53.8798 51.5414 54.3505 53.0242 55.2919 54.1282C56.2399 55.2322 57.5049 55.7842 59.087 55.7842C60.0808 55.7842 60.9274 55.5588 61.627 55.1081C62.333 54.6574 62.9051 53.9714 63.3431 53.0503L64.2061 53.4521C63.9446 53.9681 63.7158 54.4744 63.5197 54.9709C63.3235 55.4609 63.1568 55.9475 63.0195 56.4309C62.2285 56.751 61.4537 56.9927 60.6954 57.156C59.9435 57.3258 59.2178 57.4107 58.5183 57.4107C56.2432 57.4107 54.3996 56.7379 52.9874 55.3922C51.5753 54.0466 50.8691 52.2894 50.8691 50.1206C50.8691 47.9779 51.6079 46.2142 53.0855 44.8293C54.5695 43.4378 56.4491 42.7422 58.7242 42.7422C59.5414 42.7422 60.3423 42.8075 61.1269 42.9381C61.9179 43.0688 62.7155 43.2713 63.5197 43.5457ZM71.9215 45.3486L69.7837 50.7672C70.0321 50.7738 70.2936 50.7803 70.5682 50.7869C70.8494 50.7869 71.222 50.7869 71.6862 50.7869C72.2223 50.7869 72.6406 50.7869 72.9414 50.7869C73.2421 50.7803 73.5232 50.7738 73.7847 50.7672L71.9215 45.3486ZM71.3822 42.9969H73.775C74.7164 45.7536 75.612 48.2882 76.462 50.6007C77.3184 52.9067 77.9166 54.4417 78.2566 55.2061C78.4004 55.5523 78.5801 55.8005 78.7959 55.9507C79.0182 56.0945 79.3124 56.1663 79.6785 56.1663H79.8942V57.0482C79.064 57.009 78.4265 56.9829 77.9819 56.9698C77.5374 56.9567 77.1647 56.9502 76.8641 56.9502C76.5764 56.9502 76.2037 56.9567 75.7461 56.9698C75.2884 56.9829 74.6248 57.009 73.7554 57.0482V56.1663H73.9318C74.4484 56.1663 74.7981 56.1075 74.9812 55.9899C75.1642 55.8724 75.2558 55.6633 75.2558 55.3628C75.2558 55.2714 75.2427 55.1636 75.2165 55.0394C75.1969 54.9153 75.1511 54.7422 75.0792 54.5202L74.2751 52.1489C73.9024 52.1424 73.4122 52.1359 72.8041 52.1292C72.1961 52.1162 71.8169 52.1097 71.6666 52.1097C71.3854 52.1097 70.8199 52.1195 69.97 52.1391C69.6627 52.1456 69.4241 52.1489 69.2541 52.1489L69.2149 52.2468C68.5742 53.8081 68.2538 54.7945 68.2538 55.2061C68.2538 55.5457 68.3486 55.7907 68.5382 55.941C68.7344 56.0912 69.0548 56.1663 69.4993 56.1663H69.6759V57.0482C68.9305 57.009 68.3519 56.9829 67.94 56.9698C67.5282 56.9567 67.1882 56.9502 66.9202 56.9502C66.6979 56.9502 66.4037 56.9567 66.0376 56.9698C65.678 56.9829 65.1517 57.009 64.4587 57.0482V56.1663C64.9294 56.1663 65.3053 56.0847 65.5865 55.9213C65.8676 55.7581 66.1063 55.4836 66.3024 55.0982C66.5834 54.5887 67.2176 53.1646 68.2048 50.826C69.192 48.4875 70.2512 45.8778 71.3822 42.9969ZM85.1678 50.1794C85.4097 50.2185 85.632 50.2479 85.8347 50.2676C86.0439 50.2806 86.2367 50.2871 86.4132 50.2871C87.5508 50.2871 88.4203 50.0291 89.0218 49.513C89.6232 48.9905 89.924 48.2457 89.924 47.279C89.924 46.3774 89.6396 45.6687 89.0708 45.1526C88.5021 44.6301 87.7241 44.3688 86.7369 44.3688C86.508 44.3688 86.2728 44.3785 86.0308 44.3982C85.7955 44.4177 85.5209 44.4537 85.2071 44.5059C85.1939 45.3225 85.1842 46.1489 85.1777 46.985C85.1712 47.8211 85.1678 48.8859 85.1678 50.1794ZM80.7941 56.1859C80.8529 56.1924 80.9118 56.1989 80.9706 56.2055C81.0295 56.2055 81.1177 56.2055 81.2354 56.2055C81.7584 56.2055 82.1115 56.0454 82.2945 55.7254C82.4841 55.4053 82.5789 54.6704 82.5789 53.5207V52.678C82.5789 52.2861 82.5756 51.9823 82.5691 51.7667C82.5626 51.5512 82.5527 51.3454 82.5397 51.1494L82.5201 48.7781V45.329C82.5201 44.826 82.4154 44.4667 82.2063 44.2512C81.997 44.0355 81.6505 43.9278 81.1667 43.9278H80.9706V43.0165C81.5068 43.0623 82.0003 43.0949 82.4514 43.1145C82.909 43.1341 83.334 43.1439 83.7262 43.1439C84.3343 43.1439 85.0272 43.1243 85.8053 43.0851C86.5898 43.0394 87.0605 43.0165 87.2174 43.0165C88.8976 43.0165 90.2182 43.3857 91.1792 44.1237C92.1403 44.8619 92.6209 45.8647 92.6209 47.132C92.6209 48.4646 92.124 49.5228 91.1302 50.3067C90.1365 51.0841 88.7734 51.4727 87.0409 51.4727C86.7533 51.4727 86.24 51.4401 85.5012 51.3748C85.3574 51.3617 85.2528 51.3519 85.1874 51.3454V53.7755C85.1874 54.8403 85.2887 55.5065 85.4915 55.7744C85.7007 56.0357 86.1158 56.1663 86.7369 56.1663H87.0801V57.0482C86.4329 57.009 85.8281 56.9796 85.2659 56.96C84.7037 56.9404 84.1839 56.9306 83.7066 56.9306C83.4975 56.9306 83.1509 56.9404 82.6672 56.96C82.1834 56.9796 81.559 57.009 80.7941 57.0482V56.1859ZM93.756 43.0655C94.3968 43.1047 94.9818 43.1341 95.5114 43.1537C96.0475 43.1733 96.5247 43.1831 96.9432 43.1831C97.355 43.1831 97.8159 43.1733 98.3259 43.1537C98.8423 43.1341 99.4144 43.1047 100.042 43.0655V43.9473H99.8361C99.385 43.9473 99.0613 43.9931 98.8652 44.0846C98.6756 44.176 98.5384 44.3426 98.4534 44.5843C98.3815 44.7868 98.3292 45.1853 98.2964 45.7797C98.2638 46.3742 98.2474 47.4422 98.2474 48.9839V53.0112C98.2474 53.9322 98.2638 54.5724 98.2964 54.9317C98.3357 55.2845 98.4011 55.5424 98.4926 55.7058C98.5841 55.8691 98.7378 55.9866 98.9535 56.0586C99.1693 56.1304 99.4896 56.1663 99.9146 56.1663H100.16V57.0482C99.4405 57.009 98.8097 56.9796 98.267 56.96C97.7245 56.9404 97.2635 56.9306 96.8843 56.9306C96.5378 56.9306 96.09 56.9404 95.5408 56.96C94.9916 56.9796 94.3542 57.009 93.6286 57.0482V56.1663H93.8737C94.3117 56.1663 94.6386 56.1304 94.8544 56.0586C95.0701 55.9866 95.2172 55.8691 95.2956 55.7058C95.3937 55.5229 95.4624 55.2257 95.5016 54.8141C95.5408 54.3961 95.5604 53.6415 95.5604 52.5507V51.0711V46.8184C95.5604 46.0084 95.5408 45.4433 95.5016 45.1232C95.4689 44.7966 95.4068 44.5549 95.3153 44.3982C95.2302 44.2413 95.0799 44.1271 94.8642 44.0552C94.6549 43.9834 94.351 43.9473 93.9522 43.9473H93.756V43.0655ZM104.149 56.1663H104.511C104.949 56.1663 105.269 56.1206 105.472 56.0292C105.675 55.9311 105.826 55.7613 105.923 55.5197C105.989 55.3367 106.035 54.8925 106.061 54.187C106.087 53.4815 106.1 52.175 106.1 50.2676V44.6627H104.414C103.387 44.6627 102.685 44.8064 102.305 45.0938C101.925 45.3813 101.664 45.9332 101.521 46.7498L100.599 46.5538C100.749 45.9072 100.863 45.2898 100.941 44.7019C101.027 44.1075 101.079 43.5228 101.099 42.948C101.347 43.0329 101.697 43.0949 102.148 43.1341C102.599 43.1668 103.36 43.1831 104.433 43.1831H106.6H107.826H110.317C111.52 43.1831 112.357 43.1668 112.827 43.1341C113.305 43.0949 113.654 43.0296 113.876 42.9381V43.2419C113.876 43.7514 113.896 44.2806 113.936 44.8293C113.982 45.3715 114.047 45.9463 114.131 46.5538L113.249 46.691C113.138 45.8941 112.912 45.3584 112.573 45.0841C112.233 44.8031 111.563 44.6627 110.563 44.6627H110.317H108.836C108.816 45.7079 108.803 46.7368 108.797 47.7493C108.79 48.7618 108.787 49.941 108.787 51.2866V53.119C108.787 53.9812 108.807 54.5855 108.846 54.9317C108.886 55.2779 108.948 55.5359 109.032 55.7058C109.131 55.8691 109.284 55.9866 109.493 56.0586C109.702 56.1304 109.996 56.1663 110.376 56.1663H110.719V57.0482C110.556 57.0417 110.314 57.0319 109.993 57.0188C108.712 56.96 107.836 56.9306 107.365 56.9306C107.025 56.9306 106.587 56.9404 106.051 56.96C105.522 56.9796 104.888 57.009 104.149 57.0482V56.1663ZM120.2 45.3486L118.062 50.7672C118.31 50.7738 118.572 50.7803 118.846 50.7869C119.127 50.7869 119.5 50.7869 119.964 50.7869C120.5 50.7869 120.919 50.7869 121.219 50.7869C121.52 50.7803 121.801 50.7738 122.063 50.7672L120.2 45.3486ZM119.661 42.9969H122.054C122.994 45.7536 123.89 48.2882 124.74 50.6007C125.596 52.9067 126.195 54.4417 126.534 55.2061C126.679 55.5523 126.859 55.8005 127.074 55.9507C127.296 56.0945 127.591 56.1663 127.956 56.1663H128.172V57.0482C127.342 57.009 126.705 56.9829 126.26 56.9698C125.815 56.9567 125.443 56.9502 125.142 56.9502C124.854 56.9502 124.482 56.9567 124.024 56.9698C123.567 56.9829 122.903 57.009 122.033 57.0482V56.1663H122.21C122.726 56.1663 123.076 56.1075 123.26 55.9899C123.442 55.8724 123.534 55.6633 123.534 55.3628C123.534 55.2714 123.521 55.1636 123.495 55.0394C123.475 54.9153 123.429 54.7422 123.357 54.5202L122.554 52.1489C122.18 52.1424 121.69 52.1359 121.082 52.1292C120.474 52.1162 120.095 52.1097 119.945 52.1097C119.664 52.1097 119.098 52.1195 118.248 52.1391C117.94 52.1456 117.702 52.1489 117.533 52.1489L117.493 52.2468C116.853 53.8081 116.531 54.7945 116.531 55.2061C116.531 55.5457 116.627 55.7907 116.817 55.941C117.012 56.0912 117.333 56.1663 117.778 56.1663H117.954V57.0482C117.208 57.009 116.63 56.9829 116.218 56.9698C115.806 56.9567 115.466 56.9502 115.198 56.9502C114.976 56.9502 114.682 56.9567 114.315 56.9698C113.956 56.9829 113.43 57.009 112.737 57.0482V56.1663C113.208 56.1663 113.583 56.0847 113.864 55.9213C114.146 55.7581 114.385 55.4836 114.58 55.0982C114.862 54.5887 115.496 53.1646 116.483 50.826C117.47 48.4875 118.529 45.8778 119.661 42.9969ZM129.288 43.0655C129.844 43.0982 130.366 43.1243 130.857 43.1439C131.354 43.157 131.795 43.1635 132.181 43.1635C132.579 43.1635 133.024 43.157 133.514 43.1439C134.011 43.1243 134.584 43.0982 135.231 43.0655V43.9473C135.191 43.9473 135.136 43.9441 135.064 43.9376C134.993 43.9311 134.943 43.9278 134.917 43.9278C134.368 43.9278 133.995 44.0911 133.799 44.4177C133.603 44.7443 133.504 45.4825 133.504 46.6322C133.504 46.8021 133.508 47.1091 133.514 47.5533C133.521 47.9975 133.524 48.36 133.524 48.641L133.545 55.5197L133.603 55.5294C134.446 55.5817 135.084 55.6078 135.515 55.6078C137.157 55.6078 138.231 55.438 138.741 55.0982C139.251 54.7586 139.67 54.1119 139.996 53.1581L140.899 53.4325C140.696 54.0269 140.514 54.6246 140.35 55.2257C140.193 55.8266 140.056 56.4341 139.938 57.0482C138.78 57.009 137.705 56.9796 136.712 56.96C135.718 56.9404 134.809 56.9306 133.985 56.9306C133.168 56.9306 132.344 56.9404 131.514 56.96C130.691 56.9796 129.87 57.009 129.053 57.0482V56.1859H129.327C129.68 56.1859 129.951 56.15 130.141 56.0781C130.331 56.0063 130.468 55.8887 130.553 55.7254C130.736 55.3661 130.834 54.0237 130.847 51.6982C130.853 51.3977 130.857 51.169 130.857 51.0123L130.876 48.8762C130.876 48.5887 130.88 48.2131 130.886 47.7493C130.893 47.279 130.896 46.9523 130.896 46.7694C130.896 45.5936 130.798 44.826 130.602 44.4667C130.412 44.1075 130.05 43.9278 129.514 43.9278H129.288V43.0655Z" fill="#222222"/>
<path d="M62.7727 16.6255L59.0316 26.1081C59.4663 26.1196 59.9239 26.131 60.4045 26.1424C60.8965 26.1424 61.5486 26.1424 62.3609 26.1424C63.299 26.1424 64.0313 26.1424 64.5576 26.1424C65.0839 26.131 65.5758 26.1196 66.0334 26.1081L62.7727 16.6255ZM61.8289 12.5101H66.0163C67.6638 17.3342 69.2312 21.7698 70.7185 25.8166C72.2173 29.852 73.2641 32.5385 73.8591 33.876C74.1108 34.482 74.4255 34.9163 74.8029 35.1792C75.192 35.4308 75.7068 35.5565 76.3475 35.5565H76.7251V37.0998C75.2721 37.0311 74.1565 36.9855 73.3786 36.9626C72.6005 36.9397 71.9484 36.9283 71.4221 36.9283C70.9187 36.9283 70.2666 36.9397 69.4658 36.9626C68.6649 36.9855 67.5036 37.0311 65.9819 37.0998V35.5565H66.2909C67.1947 35.5565 67.8068 35.4536 68.1272 35.2478C68.4475 35.042 68.6077 34.6762 68.6077 34.1503C68.6077 33.9903 68.5848 33.8018 68.539 33.5845C68.5047 33.3673 68.4246 33.0644 68.2988 32.6757L66.8915 28.526C66.2394 28.5145 65.3813 28.5031 64.3173 28.4917C63.2533 28.4688 62.5898 28.4573 62.3266 28.4573C61.8346 28.4573 60.845 28.4745 59.3577 28.5088C58.8199 28.5203 58.4023 28.526 58.1048 28.526L58.0362 28.6975C56.915 31.4297 56.3543 33.1558 56.3543 33.876C56.3543 34.4705 56.5202 34.8992 56.8521 35.162C57.1952 35.425 57.7559 35.5565 58.5339 35.5565H58.8428V37.0998C57.5385 37.0311 56.5259 36.9855 55.8052 36.9626C55.0844 36.9397 54.4895 36.9283 54.0204 36.9283C53.6315 36.9283 53.1166 36.9397 52.4758 36.9626C51.8466 36.9855 50.9257 37.0311 49.7129 37.0998V35.5565C50.5366 35.5565 51.1945 35.4136 51.6864 35.1278C52.1784 34.842 52.596 34.3618 52.9393 33.6874C53.4312 32.7957 54.5409 30.3036 56.2686 26.211C57.9962 22.1185 59.8496 17.5515 61.8289 12.5101ZM87.4339 12.6301V14.1734C87.3652 14.1734 87.268 14.1677 87.1421 14.1562C87.0162 14.1448 86.9247 14.1391 86.8675 14.1391C85.895 14.1391 85.2372 14.4248 84.894 14.9965C84.5507 15.5567 84.3791 16.9913 84.3791 19.3005V20.6723V23.2273C84.3791 25.5365 84.4191 27.177 84.4992 28.1487C84.5793 29.1089 84.7166 29.8692 84.911 30.4294C85.3459 31.7897 86.1124 32.8357 87.2107 33.5674C88.309 34.2876 89.6591 34.6477 91.2608 34.6477C92.5765 34.6477 93.6977 34.4305 94.6245 33.996C95.5513 33.5502 96.3063 32.8757 96.8899 31.9726C97.2788 31.3668 97.5534 30.578 97.7136 29.6062C97.8852 28.6231 97.971 27.1656 97.971 25.2336C97.971 24.8677 97.9652 24.2619 97.9538 23.4159C97.9423 22.5586 97.9366 21.8898 97.9366 21.4097V19.6092C97.9366 17.1971 97.765 15.6824 97.4218 15.0651C97.0785 14.4477 96.4207 14.1391 95.4482 14.1391C95.2995 14.1391 95.1851 14.1448 95.105 14.1562C95.025 14.1562 94.9506 14.1562 94.8819 14.1562V12.6301C95.9459 12.6873 96.8269 12.7329 97.5248 12.7673C98.2342 12.7901 98.8405 12.8016 99.3439 12.8016C99.813 12.8016 100.379 12.7901 101.042 12.7673C101.718 12.7329 102.593 12.6873 103.668 12.6301V14.1734H103.394C102.707 14.1734 102.198 14.2534 101.867 14.4134C101.534 14.562 101.294 14.8307 101.146 15.2194C100.929 15.7909 100.791 18.2773 100.734 22.6786C100.734 23.3074 100.728 23.7932 100.717 24.1362C100.717 24.3533 100.717 24.6678 100.717 25.0793C100.694 28.9889 100.271 31.6754 99.4468 33.1386C98.6231 34.602 97.4103 35.7337 95.8086 36.5339C94.2068 37.3342 92.342 37.7342 90.214 37.7342C88.2576 37.7342 86.5186 37.4141 84.9969 36.774C83.4867 36.1224 82.2968 35.2021 81.4273 34.0132C80.7752 33.1216 80.3118 32.0927 80.0372 30.9267C79.7626 29.7605 79.6254 28.023 79.6254 25.7137C79.6254 25.0964 79.6425 23.999 79.6768 22.4214C79.7111 20.8438 79.7283 19.5806 79.7283 18.6317C79.7283 16.6312 79.5624 15.3909 79.2306 14.9107C78.9103 14.4191 78.2696 14.1734 77.3085 14.1734H76.8967V12.6301C78.1895 12.6873 79.2364 12.7329 80.0372 12.7673C80.8496 12.7901 81.5474 12.8016 82.1309 12.8016C82.6687 12.8016 83.3437 12.7901 84.156 12.7673C84.9683 12.7329 86.0609 12.6873 87.4339 12.6301ZM111.339 33.1729C112.393 33.1844 113.537 33.2015 114.772 33.2244C116.019 33.2359 116.729 33.2416 116.901 33.2416H117.415C119.485 33.2416 120.802 33.0587 121.362 32.6928C121.923 32.327 122.329 31.6182 122.58 30.5666L124.091 30.9952C123.713 32.0355 123.393 33.0644 123.13 34.0818C122.878 35.0992 122.684 36.1052 122.546 37.0998C120.51 37.0084 118.823 36.9455 117.484 36.9111C116.156 36.8768 114.955 36.8597 113.88 36.8597C112.873 36.8597 111.769 36.8768 110.567 36.9111C109.377 36.9455 107.925 37.0084 106.209 37.0998L105.539 35.5565C109.224 32.5957 112.054 29.7777 114.035 27.1027C116.014 24.4162 117.003 22.0613 117.003 20.0379C117.003 18.6203 116.602 17.4943 115.802 16.6598C115.013 15.8138 113.948 15.3909 112.61 15.3909C111.717 15.3909 110.865 15.6824 110.053 16.2653C109.241 16.837 108.462 17.7058 107.718 18.8718L105.968 17.7915C106.998 15.9167 108.193 14.5106 109.555 13.5732C110.928 12.6358 112.461 12.1671 114.154 12.1671C116.203 12.1671 117.953 12.8702 119.406 14.2762C120.87 15.6709 121.602 17.3457 121.602 19.3005C121.602 21.1753 120.887 23.1073 119.457 25.0964C118.027 27.0855 115.321 29.7777 111.339 33.1729ZM138.781 12.1328C138.679 14.202 138.598 16.2596 138.541 18.3059C138.495 20.3408 138.472 22.3814 138.472 24.4277C138.472 25.0907 138.467 25.9538 138.455 27.017C138.444 28.0801 138.438 28.8175 138.438 29.229C138.438 30.8866 138.484 32.1156 138.575 32.9158C138.666 33.716 138.821 34.2933 139.038 34.6477C139.244 34.9678 139.559 35.2021 139.982 35.3507C140.417 35.4879 141.04 35.5565 141.853 35.5565H142.23V37.0998C140.881 37.0311 139.679 36.9798 138.626 36.9455C137.574 36.9111 136.67 36.894 135.915 36.894C135.194 36.894 133.77 36.9397 131.642 37.0311C130.898 37.0655 130.332 37.0883 129.943 37.0998L129.926 35.5565C131.39 35.5565 132.345 35.4708 132.792 35.2993C133.238 35.1278 133.575 34.8135 133.804 34.3561C133.999 33.9675 134.131 33.0415 134.199 31.5783C134.279 30.1149 134.319 26.7254 134.319 21.4097C134.319 20.278 134.296 18.7289 134.25 16.7626C134.239 16.0539 134.228 15.5281 134.216 15.1851H133.615C133.306 15.1851 132.786 15.2137 132.054 15.2708C131.322 15.328 130.509 15.4023 129.617 15.4937L129.377 13.8133C130.91 13.596 132.46 13.3503 134.027 13.0759C135.606 12.7901 137.19 12.4758 138.781 12.1328Z" fill="#222222"/>
</svg>
