<svg width="84" height="21" viewBox="0 0 84 21" fill="none" xmlns="http://www.w3.org/2000/svg">
<path fill-rule="evenodd" clip-rule="evenodd" d="M22.5 2.98654C27.1933 2.98654 31 6.79326 31 11.4865C31 16.1798 27.1933 19.9865 22.5 19.9865C17.8067 19.9865 14 16.1798 14 11.4865C14 6.79326 17.8067 2.98654 22.5 2.98654Z" fill="black"/>
<path d="M22.5 2.98654C27.1933 2.98654 31 6.79326 31 11.4865C31 16.1798 27.1933 19.9865 22.5 19.9865C17.8067 19.9865 14 16.1798 14 11.4865C14 6.79326 17.8067 2.98654 22.5 2.98654Z" stroke="black" stroke-width="0.216" stroke-miterlimit="22.9256"/>
<path fill-rule="evenodd" clip-rule="evenodd" d="M22.5005 3.52826C26.8967 3.52826 30.4658 7.09277 30.4658 11.4936C30.4658 15.8898 26.9013 19.4589 22.5005 19.4589C18.1042 19.4589 14.5352 15.8944 14.5352 11.4936C14.5352 7.09277 18.0997 3.52826 22.5005 3.52826Z" fill="#F4E41C"/>
<path fill-rule="evenodd" clip-rule="evenodd" d="M25.1413 3.97396C25.7354 4.18417 26.2975 4.45837 26.8184 4.79654C26.6448 4.9245 26.4666 5.03874 26.2792 5.13928C26.0461 5.26267 25.7994 5.40433 25.5754 5.55971L25.5617 5.62826C25.5389 5.7288 25.5206 5.8339 25.5069 5.93901C25.4703 6.16294 25.4383 6.39143 25.4201 6.61992C25.4018 6.83928 25.3881 7.17288 25.452 7.3831C25.5846 7.8081 25.877 8.01374 26.2381 8.16455L25.9822 8.15998C26.0507 8.20111 26.1147 8.24681 26.1741 8.30622C26.3112 8.43874 26.4163 8.60326 26.4986 8.76777C26.6585 9.08767 26.727 9.49439 26.7133 9.85084C26.7042 10.1799 26.6311 10.4906 26.5031 10.7785C26.6174 11.0207 26.727 11.2675 26.8367 11.5143C26.9647 11.8068 27.1018 12.1129 27.2115 12.4191C27.3303 12.7573 27.4308 13.1 27.5496 13.4382C27.8924 14.4207 28.3585 15.3484 29.5375 15.2022C28.3859 17.3774 26.2609 18.9541 23.7429 19.3516V19.3425C23.7292 18.9312 23.752 18.5245 23.7977 18.1178C23.8389 17.7613 23.8937 17.4094 23.9348 17.053C24.0354 16.1481 23.9851 15.4307 23.6789 14.567C23.5464 14.1877 23.2722 13.8906 22.9386 13.6804C22.8929 13.653 22.8244 13.6119 22.7421 13.5707C22.5182 13.717 22.2943 13.8495 22.0566 13.9683C21.298 14.3522 20.4891 14.5624 19.6346 14.567C19.0176 14.5715 18.2042 14.5213 17.6467 14.2288C17.3496 14.0688 17.0983 13.8221 17.0617 13.4748C17.0343 13.2371 17.1348 13.0223 17.2902 12.8441C17.3451 12.7847 17.3999 12.7253 17.4639 12.675C17.4913 12.6522 17.5324 12.6202 17.5598 12.6019L17.5918 12.5836C17.5827 12.4283 17.5964 12.2637 17.7015 12.1815L17.7107 12.1769C17.5736 12.1358 17.4456 12.0535 17.3679 11.9438C17.2582 11.7839 17.2719 11.5371 17.3085 11.3178L17.2582 11.2766C17.1486 11.2035 17.0297 11.0847 16.952 10.9796C16.7738 10.7328 16.7327 10.4495 16.8561 10.1707C17.0069 9.83713 17.3268 9.65433 17.6832 9.55379L17.6969 9.51724L17.5598 9.36186L17.7061 9.49439C17.7335 9.42127 17.7746 9.34358 17.8158 9.2796C17.834 9.25218 17.8523 9.22476 17.8752 9.19734C17.8615 9.17906 17.8523 9.15621 17.8477 9.13337C17.8477 9.1288 17.8477 9.11966 17.8477 9.11509C17.8477 9.09681 17.8432 9.07396 17.8432 9.05111C17.8432 8.98256 17.8477 8.91858 17.8569 8.85003C17.8889 8.65353 17.9894 8.47987 18.1722 8.3839C18.3184 8.30622 18.4875 8.27423 18.6475 8.31079C18.7115 8.32449 18.7937 8.35191 18.8486 8.39304L18.8851 8.42046C19.1547 8.30165 19.4472 8.21025 19.7397 8.19197C20.0093 8.17369 20.2881 8.16912 20.5531 8.20111C20.6399 8.21025 20.7496 8.22853 20.8365 8.25595L21.065 8.32906C21.0604 8.26052 21.0558 8.19197 21.0512 8.12342C21.0421 7.90406 21.0375 7.66643 21.0604 7.44251C21.0878 7.22772 21.1152 7.00837 21.1472 6.79358C21.1792 6.60621 21.2203 6.38686 21.2797 6.18121C21.1472 6.19035 21.0101 6.18122 20.873 6.15837C20.5029 6.08525 20.2012 5.8796 20.087 5.50944C19.9956 5.20326 20.0322 4.97933 20.1967 4.72799C20.2378 4.9245 20.2926 5.04331 20.3658 5.13014C20.4389 5.21697 20.5805 5.26267 20.6902 5.28095C20.7359 5.29009 20.7862 5.29466 20.8365 5.29009C20.9416 5.28552 21.0467 5.2581 21.1426 5.22154L21.0421 5.11186C20.7679 4.81025 20.4983 4.49949 20.2378 4.1796C20.1647 4.09277 20.0961 4.00138 20.0322 3.90998C20.6628 3.70433 21.33 3.57638 22.0246 3.53525C22.148 3.7089 22.2623 3.88256 22.3719 4.06536C22.5227 4.01052 22.6781 3.97396 22.8381 3.95568C22.9706 3.94197 23.1123 3.94197 23.2448 3.95568C23.2448 3.95568 23.2448 3.95568 23.2448 3.95111L22.966 3.67234L23.359 3.72718C23.4367 3.73632 23.5327 3.77288 23.6058 3.8003C23.8023 3.88256 23.976 4.00138 24.1313 4.14304C24.209 4.21616 24.2776 4.29385 24.3416 4.38068C24.465 4.53605 24.5701 4.70514 24.666 4.8788C24.666 4.88337 24.6706 4.88337 24.6706 4.88794C24.6934 4.84224 24.7163 4.79197 24.7391 4.74627C24.826 4.56804 24.9128 4.38982 25.0042 4.21616C25.0499 4.13847 25.0956 4.05622 25.1413 3.97396Z" fill="#F6BC12"/>
<path fill-rule="evenodd" clip-rule="evenodd" d="M29.5816 15.1369C28.2837 17.6504 25.6835 19.3823 22.6765 19.4509C22.6765 19.4189 22.6719 19.3823 22.6719 19.3504C22.6582 18.9391 22.681 18.5323 22.7267 18.1256C22.7679 17.7692 22.8227 17.4173 22.8638 17.0608C22.9644 16.156 22.9141 15.4431 22.6079 14.5748C22.4754 14.1955 22.2012 13.8985 21.8676 13.6883C21.7442 13.6106 21.406 13.4323 21.2598 13.4232C21.0404 13.4232 20.6337 13.2678 20.4509 13.1582C19.9391 12.8565 19.8157 12.395 20.1402 11.8786C20.6291 11.1017 21.8767 10.5076 22.7313 10.2791C23.5219 10.0689 24.4404 10.0095 25.2036 10.3614L25.2539 10.3842L25.2767 10.4345C25.4458 10.7955 25.6149 11.1611 25.7748 11.5267C25.9028 11.8192 26.0399 12.1254 26.1496 12.4315C26.2684 12.7697 26.3689 13.1125 26.4878 13.4506C26.8396 14.4606 27.3195 15.4065 28.5671 15.2009C28.8824 15.1461 29.2068 15.1141 29.5267 15.1415L29.5816 15.1369Z" fill="black"/>
<path fill-rule="evenodd" clip-rule="evenodd" d="M29.504 15.2816C29.047 16.127 28.4392 16.8765 27.7172 17.5026C27.0682 18.0647 26.3279 18.5262 25.519 18.8598C24.6828 19.2026 23.7733 19.4082 22.8228 19.4448C22.8228 19.4128 22.8182 19.3762 22.8182 19.3397C22.7543 17.5071 23.4397 16.488 22.7451 14.5184C22.4161 13.5953 21.3924 13.2663 21.2508 13.2663C21.1091 13.2663 19.6193 12.9692 20.2545 11.9547C20.8897 10.9402 23.4763 9.73832 25.1306 10.4923C25.1306 10.4923 25.7978 11.9044 25.9943 12.4711C26.4467 13.7644 26.794 15.638 28.5809 15.3364C28.8916 15.2907 29.2069 15.2587 29.504 15.2816Z" fill="#B99D85"/>
<path fill-rule="evenodd" clip-rule="evenodd" d="M24.9412 14.209C24.9412 14.209 24.8727 14.7528 24.7721 14.9904C24.6716 15.2281 24.5391 15.4154 24.5391 15.4154C24.5391 15.4154 24.7721 15.2646 24.8818 14.9584C24.9869 14.6568 24.9412 14.209 24.9412 14.209Z" fill="black"/>
<path fill-rule="evenodd" clip-rule="evenodd" d="M25.081 14.8418C25.081 14.8418 24.9576 15.2394 24.8708 15.4313C24.7886 15.6232 24.7383 15.7284 24.7383 15.7284C24.7383 15.7284 24.8571 15.6141 24.9805 15.3582C25.0993 15.0977 25.081 14.8418 25.081 14.8418Z" fill="black"/>
<path fill-rule="evenodd" clip-rule="evenodd" d="M21.8722 5.33114C21.5614 5.58248 21.1684 5.77899 20.7571 5.69673C20.6109 5.66931 20.4281 5.59162 20.323 5.48194C20.2042 5.35856 20.0899 5.23517 19.9757 5.10721C19.7015 4.8056 19.4319 4.49485 19.1714 4.17495C18.8743 3.81393 18.6276 3.39807 18.4265 2.97307C18.2848 2.67603 18.1523 2.35614 18.0563 2.04081C18.0106 1.89915 17.9741 1.75748 17.9329 1.61581C17.869 1.38732 17.8096 1.15882 17.7547 0.93033L17.6953 0.697266L17.9238 0.770384C18.102 0.825223 18.3077 0.94861 18.4493 1.06286C18.6596 1.22737 18.8652 1.38732 19.0708 1.56098C19.4684 1.90372 19.8523 2.26474 20.2225 2.6349C20.3824 2.79485 20.5286 2.95936 20.6657 3.13759C20.9993 3.56259 21.2964 4.02415 21.5614 4.49942C21.6803 4.7142 21.8036 4.94269 21.9042 5.16662L21.9453 5.26259L21.8722 5.33114Z" fill="black"/>
<path fill-rule="evenodd" clip-rule="evenodd" d="M21.7855 5.2301C21.7855 5.2301 21.0772 3.69005 20.1266 2.73951C19.1761 1.78897 18.6094 1.36397 18.3672 1.17661C18.125 0.984671 17.8828 0.906982 17.8828 0.906982C17.8828 0.906982 18.061 1.61989 18.1844 2.00833C18.3032 2.39677 18.6688 3.35644 19.2766 4.09677C19.8844 4.83709 20.4191 5.39462 20.4191 5.39462C20.4191 5.39462 20.9264 5.92015 21.7855 5.2301Z" fill="#B99D85"/>
<path fill-rule="evenodd" clip-rule="evenodd" d="M17.918 1.04678C17.9774 1.27071 18.0962 1.7277 18.183 2.01103C18.3018 2.39947 18.6674 3.35915 19.2752 4.09947C19.883 4.83979 20.4177 5.39732 20.4177 5.39732C20.4177 5.39732 20.5228 5.50243 20.7147 5.55727C20.436 5.20996 20.0521 4.73469 19.8739 4.52447C19.5768 4.17259 19.225 3.74302 19.0604 3.23119C18.8959 2.71936 18.9188 2.44974 18.9188 2.44974C18.9188 2.44974 19.7871 3.69732 19.883 3.88926C19.9607 4.04463 20.7376 5.19168 21.0072 5.58469C21.0392 5.58012 21.0758 5.57555 21.1123 5.57098L21.19 4.86721C21.19 4.86721 20.7285 4.24114 20.4451 3.77044C20.1664 3.29974 19.65 2.6828 19.0056 2.22125C18.5212 1.86936 18.0871 1.41237 17.918 1.04678Z" fill="#9E775C"/>
<path fill-rule="evenodd" clip-rule="evenodd" d="M20.9587 5.39344C20.9587 5.39344 20.7439 4.74451 20.3783 4.08645C20.0127 3.42838 19.807 3.15876 19.5603 2.91199C19.3135 2.66521 18.7148 2.26306 18.7148 2.26306C18.7148 2.26306 18.7788 2.3636 18.8337 2.43215C18.8839 2.5007 18.9205 2.52355 18.9205 2.52355C18.9205 2.52355 19.1444 3.14505 19.2175 3.37812C19.2861 3.61118 19.5146 4.03161 19.7248 4.24182C19.935 4.45204 20.3966 5.02328 20.488 5.15123C20.5839 5.27005 20.6936 5.52596 20.9587 5.39344Z" fill="black"/>
<path fill-rule="evenodd" clip-rule="evenodd" d="M20.7864 5.28898C20.7545 5.20215 20.7179 5.11533 20.6859 5.03307C20.5625 4.73146 20.4254 4.43441 20.2655 4.14651C20.037 3.73522 19.8039 3.33764 19.4703 2.99947C19.3744 2.9035 19.2555 2.8121 19.1459 2.72527C19.1459 2.72527 19.1413 2.7207 19.1367 2.7207C19.1641 2.79382 19.187 2.86694 19.2144 2.94006C19.2601 3.06802 19.3058 3.20054 19.3469 3.33307C19.4201 3.57527 19.644 3.96371 19.8222 4.14194C19.9502 4.2699 20.0735 4.4207 20.1924 4.5578C20.2792 4.65834 20.3614 4.75888 20.4437 4.86398C20.4985 4.93253 20.5534 4.99651 20.6037 5.06506C20.6402 5.11533 20.6722 5.17017 20.7088 5.22043C20.7362 5.25242 20.759 5.27984 20.7864 5.28898Z" fill="#F6C4B1"/>
<path fill-rule="evenodd" clip-rule="evenodd" d="M20.0715 9.1253C20.0578 9.02477 20.0441 8.91509 20.035 8.81455C20.0121 8.58606 19.9893 8.35756 19.9801 8.13364C19.971 7.91428 19.9664 7.67665 19.9893 7.45272C20.0167 7.23794 20.0441 7.01858 20.0761 6.8038C20.131 6.45649 20.2223 6.00407 20.4143 5.70702C20.4326 5.67504 20.4554 5.64762 20.4828 5.6202C20.693 5.40084 21.0404 5.39627 21.3008 5.5288C21.671 5.71616 21.8218 6.11375 21.831 6.50676C21.8447 6.91348 21.8721 7.32934 21.7853 7.72692C21.607 8.53122 20.9764 8.95165 20.2452 9.23041L20.0898 9.28982L20.0715 9.1253Z" fill="black"/>
<path fill-rule="evenodd" clip-rule="evenodd" d="M20.2014 9.09961C20.2014 9.09961 20.0552 8.02569 20.1238 7.45902C20.1923 6.89693 20.2837 6.1566 20.5305 5.76816C20.7773 5.37972 21.6729 5.51225 21.7049 6.50392C21.7324 7.49558 21.8603 8.46897 20.2014 9.09961Z" fill="#B99D85"/>
<path fill-rule="evenodd" clip-rule="evenodd" d="M20.1331 8.43988C20.1057 8.11085 20.092 7.73155 20.124 7.4665C20.1651 7.12833 20.2154 6.72161 20.3022 6.36972C20.3707 6.3286 20.4347 6.29661 20.4713 6.2829C20.5992 6.2372 20.7409 6.1915 20.7729 6.1915C20.8003 6.19607 20.8871 6.19607 20.9009 6.19607C20.9146 6.19607 21.2482 6.16865 21.4173 6.60279C21.4173 6.60279 21.3259 6.5251 21.1156 6.54338C20.9054 6.56166 20.7089 6.63478 20.6221 6.73532C20.5353 6.83585 20.517 6.98666 20.517 6.98666C20.517 6.98666 20.7226 6.72161 20.9557 6.74903C21.1888 6.77644 21.2436 6.91354 21.2436 6.91354C21.2436 6.91354 21.0882 6.79929 20.9054 6.85413C20.7272 6.90897 20.6267 7.05521 20.5718 7.14204C20.517 7.22886 20.6769 8.26623 20.6769 8.26623C20.6769 8.26623 20.4484 8.47187 20.1331 8.43988Z" fill="#9E775C"/>
<path fill-rule="evenodd" clip-rule="evenodd" d="M17.0814 13.7166C17.0814 13.7166 16.7661 12.926 16.8163 12.1034C16.8712 11.2809 15.9206 10.4766 16.2679 10.1201C16.6153 9.75908 17.8217 9.79107 18.233 9.86876C18.6443 9.94188 21.1029 10.9975 22.1677 9.90989C23.2325 8.82225 23.3833 8.53892 23.3833 8.53892C23.3833 8.53892 24.4069 8.39268 23.8357 10.4811C23.2644 12.5696 21.3542 13.3327 20.5865 13.6161C19.8142 13.8948 17.5841 14.2239 17.0814 13.7166Z" fill="#E30613"/>
<path fill-rule="evenodd" clip-rule="evenodd" d="M17.4741 12.0666C17.497 12.0483 17.5198 12.0346 17.5564 12.0255C17.6204 12.0072 17.6889 11.9981 17.7529 11.9889C17.8534 11.9706 17.954 11.9569 18.0545 11.9478C18.1688 11.9386 18.2967 11.9295 18.411 11.9432C18.5481 11.9569 18.6623 12.0209 18.7446 12.1352C18.7583 12.1534 18.772 12.1763 18.7857 12.1991C18.836 12.1077 18.9045 12.0483 19.0416 12.0026C19.0782 11.9889 19.1284 11.9843 19.1696 11.9798C19.2335 11.9706 19.293 11.9661 19.3569 11.9615C19.5214 11.9478 19.686 11.9432 19.8505 11.9341C20.1201 11.9249 20.3852 11.9158 20.6548 11.9112C20.7553 11.9112 20.8559 11.9067 20.9518 11.8975C21.162 11.8792 21.3768 11.8472 21.5825 11.7924C21.7516 11.7467 21.9343 11.6827 22.076 11.5822C22.2588 11.4497 22.4599 11.3309 22.6701 11.2486C22.7386 11.2212 22.83 11.1938 22.9032 11.1846L23.0037 11.1755L23.0083 11.276C23.0083 11.3309 23.0083 11.3903 22.9991 11.4497C22.9854 11.5868 22.9626 11.7284 22.926 11.861C22.8163 12.2677 22.6016 12.6287 22.2588 12.8846C22.0486 13.0446 21.8018 13.1771 21.5642 13.2868C21.2443 13.433 20.9061 13.5564 20.5634 13.6569C20.408 13.7026 20.2481 13.7483 20.0927 13.7895L20.0378 13.8032L20.0013 13.7575C19.9327 13.6752 19.855 13.5564 19.8139 13.4559C19.8093 13.4376 19.8002 13.4193 19.7956 13.401C19.7865 13.4239 19.7728 13.4467 19.7591 13.4741C19.7225 13.5472 19.6631 13.6569 19.6037 13.7118L19.5809 13.7346L18.9685 13.8123L18.9365 13.7712C18.8634 13.6798 18.7903 13.5518 18.7446 13.4467C18.74 13.433 18.7309 13.4147 18.7263 13.401C18.6806 13.497 18.6257 13.5838 18.5572 13.6478C18.5115 13.6889 18.3653 13.8352 18.3059 13.8534L18.2739 13.8626L18.2419 13.8534C18.1733 13.8306 18.1093 13.8077 18.0454 13.7849C17.9997 13.7666 17.954 13.7529 17.9128 13.7346C17.8717 13.7163 17.8169 13.6981 17.7986 13.6524C17.7803 13.6158 17.7575 13.5792 17.7392 13.5427C17.7118 13.4878 17.6843 13.433 17.6615 13.3736C17.6387 13.4467 17.6067 13.5153 17.5747 13.5747C17.4102 13.8671 17.1131 13.8946 16.912 13.6204C16.8755 13.5655 16.8389 13.5061 16.8069 13.4513C16.7338 13.3279 16.6698 13.1954 16.6196 13.0628C16.5921 12.9897 16.5739 12.9166 16.5602 12.8435C16.5282 12.6653 16.4688 12.3225 16.6378 12.19C16.6561 12.1763 16.6698 12.1626 16.6881 12.1489C16.7795 12.0712 16.8938 12.0438 17.008 12.0209C17.0994 12.0026 17.2091 11.9798 17.305 11.9843C17.3645 11.9752 17.4421 11.9935 17.4741 12.0666Z" fill="black"/>
<path fill-rule="evenodd" clip-rule="evenodd" d="M16.978 13.5571C16.978 13.5571 16.7038 13.1686 16.6399 12.8167C16.5759 12.4694 16.6079 12.314 16.681 12.2546C16.7587 12.1952 16.7632 12.1541 17.01 12.1038C17.2568 12.049 17.371 12.0581 17.3893 12.113C17.4076 12.1678 17.4396 12.3963 17.4624 12.4968C17.4853 12.5974 17.5767 12.7985 17.5767 12.7985C17.5767 12.7985 17.5264 12.5928 17.5127 12.4237C17.499 12.2546 17.4761 12.145 17.5812 12.1175C17.6818 12.0901 18.1388 12.0079 18.3993 12.0353C18.6597 12.0627 18.7374 12.2912 18.7374 12.3917C18.7374 12.4923 18.7557 12.8122 18.7557 12.8122C18.7557 12.8122 18.7786 12.506 18.8151 12.378C18.8517 12.2501 18.8837 12.1495 19.0665 12.0947C19.2493 12.0353 20.6476 12.0079 20.6476 12.0079C20.6476 12.0079 21.6393 12.0079 22.1237 11.6606C22.6081 11.3132 22.9052 11.2812 22.9052 11.2812C22.9052 11.2812 22.9372 12.2501 22.1968 12.8122C21.4565 13.3697 20.0627 13.6987 20.0627 13.6987C20.0627 13.6987 19.9393 13.5525 19.8936 13.4245C19.8479 13.2966 19.8022 13.1183 19.8022 13.1183C19.8022 13.1183 19.7428 13.2737 19.6651 13.4337C19.5874 13.589 19.528 13.6485 19.528 13.6485L18.9979 13.7124C18.9979 13.7124 18.8928 13.5799 18.8151 13.4062C18.7374 13.2326 18.7054 13.1046 18.7054 13.1046C18.7054 13.1046 18.6597 13.4017 18.4769 13.5753C18.2942 13.749 18.2576 13.7627 18.2576 13.7627C18.2576 13.7627 17.8783 13.6347 17.8692 13.6165C17.86 13.5936 17.7778 13.4657 17.7001 13.2646C17.6224 13.0635 17.6087 13.0407 17.6087 13.0407C17.6087 13.0407 17.6041 13.2966 17.4761 13.5296C17.3573 13.7536 17.138 13.7764 16.978 13.5571Z" fill="white"/>
<path fill-rule="evenodd" clip-rule="evenodd" d="M16.5345 10.4582C16.5619 10.3714 16.6487 10.28 16.7173 10.2252C16.9366 10.0606 17.2428 10.0241 17.5079 10.0378L17.5764 10.0424L17.5947 10.1109C17.613 10.1749 17.6221 10.2526 17.6267 10.3211C17.6404 10.4811 17.6313 10.6456 17.5947 10.8055C17.5582 10.97 17.5262 11.1391 17.4942 11.3036C17.453 11.523 17.4119 11.7424 17.3754 11.9663L17.3708 11.9983L17.3479 12.0211C17.2565 12.1034 17.1149 12.1719 16.9961 12.1993C16.7584 12.2588 16.434 12.1536 16.2923 11.948C16.1369 11.7195 16.2283 11.3082 16.2969 11.0614C16.3151 11.002 16.3334 10.9381 16.3563 10.8786C16.4065 10.737 16.4705 10.5953 16.5345 10.4582Z" fill="black"/>
<path fill-rule="evenodd" clip-rule="evenodd" d="M17.5004 10.1328C17.5004 10.1328 17.5781 10.4344 17.5004 10.7817C17.4227 11.129 17.281 11.9471 17.281 11.9471C17.281 11.9471 17.1531 12.0613 16.9703 12.107C16.7875 12.1527 16.495 12.0796 16.3671 11.8922C16.2391 11.7094 16.3122 11.3438 16.3808 11.0833C16.4539 10.8274 16.6184 10.4938 16.6184 10.4938C16.6184 10.4938 16.7327 10.0962 17.5004 10.1328Z" fill="white"/>
<path fill-rule="evenodd" clip-rule="evenodd" d="M18.162 10.1618C18.3174 10.1253 18.4773 10.1481 18.6236 10.2167C18.7149 10.2578 18.8338 10.3401 18.8886 10.4315C18.9572 10.5503 18.9617 10.8564 18.9617 10.9981C18.9617 11.2769 18.9754 11.8801 18.8338 12.104C18.7881 12.1771 18.7378 12.2411 18.6692 12.296C18.4865 12.4422 18.2351 12.4331 18.0158 12.4056C17.8284 12.3782 17.3851 12.3005 17.3166 12.0766C17.3029 12.0218 17.3029 11.9349 17.3074 11.8801C17.312 11.7887 17.3166 11.6927 17.3257 11.6013C17.3394 11.4825 17.3531 11.35 17.3805 11.2358C17.408 11.1261 17.4354 11.0118 17.4674 10.9021C17.5039 10.7742 17.5588 10.6142 17.6319 10.5C17.7233 10.3583 17.9883 10.2258 18.1437 10.1664L18.1483 10.1618H18.162Z" fill="black"/>
<path fill-rule="evenodd" clip-rule="evenodd" d="M18.1828 10.253C18.1828 10.253 17.8126 10.3992 17.7166 10.5546C17.6161 10.7054 17.5293 11.0527 17.479 11.2584C17.4287 11.464 17.3876 11.9621 17.415 12.049C17.4424 12.1404 17.6161 12.25 18.0365 12.3094C18.457 12.3689 18.626 12.2683 18.7586 12.0535C18.8911 11.8387 18.8728 11.0664 18.8728 10.9979C18.8728 10.9248 18.8683 10.5775 18.8088 10.4769C18.7449 10.3718 18.4798 10.1844 18.1828 10.253Z" fill="#FDE100"/>
<path fill-rule="evenodd" clip-rule="evenodd" d="M18.1854 10.253C18.1854 10.253 17.9066 10.3627 17.7695 10.4952C17.9935 10.4952 18.3499 10.5272 18.4824 10.7191C18.6607 10.975 18.5921 11.8844 18.2814 12.3232C18.5281 12.314 18.6561 12.218 18.7612 12.0535C18.8937 11.8387 18.8754 11.0664 18.8754 10.9979C18.8754 10.9248 18.8709 10.5775 18.8115 10.4769C18.7475 10.3718 18.4824 10.1844 18.1854 10.253Z" fill="#FAC200"/>
<path fill-rule="evenodd" clip-rule="evenodd" d="M18.7657 12.1493C18.7748 11.9894 18.784 11.8248 18.7977 11.6649C18.8068 11.5735 18.8114 11.4867 18.8205 11.3953C18.8251 11.3313 18.8343 11.2627 18.848 11.1988C18.8891 11.016 18.9119 10.9154 19.0308 10.7646C19.1039 10.6687 19.2273 10.5773 19.3461 10.5407C19.5334 10.4676 19.7391 10.4447 19.9219 10.5316C20.0407 10.5864 20.1458 10.6869 20.1961 10.8103C20.2144 10.856 20.2281 10.9154 20.2418 10.9794C20.3012 10.9017 20.388 10.824 20.4611 10.7738C20.5662 10.7052 20.6942 10.6504 20.8222 10.6732C21.0141 10.7098 21.1923 10.7966 21.2929 10.9703C21.3248 11.0251 21.3523 11.0937 21.3751 11.1576C21.4482 11.0205 21.5396 10.8423 21.6447 10.7555C21.7955 10.6321 22.0515 10.6504 22.1794 10.7966C22.1977 10.8149 22.216 10.8377 22.2297 10.8652C22.2434 10.8058 22.2571 10.7418 22.2754 10.6824C22.2937 10.6184 22.3119 10.5544 22.3302 10.4904C22.3394 10.4584 22.3485 10.4219 22.3622 10.3853C22.3851 10.3305 22.4719 10.2848 22.5222 10.2619C22.6136 10.2254 22.7141 10.2117 22.8101 10.2391C22.8923 10.2574 22.97 10.2939 23.0294 10.3579C23.0705 10.399 23.0934 10.4447 23.1254 10.495C23.1985 10.6001 23.2533 10.856 23.267 10.9885C23.2716 11.0434 23.2808 11.0982 23.2853 11.1576C23.2945 11.249 23.2945 11.345 23.2853 11.441C23.2579 11.6969 23.1528 11.9254 22.9517 12.0945C22.8375 12.1904 22.6455 12.3367 22.481 12.3138C22.4262 12.3047 22.3851 12.2818 22.3576 12.2544C22.3211 12.291 22.2525 12.323 22.216 12.3458C22.0789 12.4144 21.6676 12.4875 21.5122 12.4875C21.4117 12.4875 21.3111 12.4646 21.2472 12.4052C21.2289 12.4463 21.1969 12.4829 21.1603 12.5058C21.0826 12.5606 20.9867 12.5789 20.8953 12.5834C20.7902 12.588 20.6759 12.5834 20.5708 12.5743C20.4794 12.5652 20.388 12.556 20.2966 12.5377C20.2281 12.524 20.1275 12.5012 20.0955 12.4235C20.091 12.4098 20.0864 12.3961 20.0818 12.3778C20.0498 12.4189 20.0133 12.4555 19.9813 12.4738C19.9082 12.5103 19.7939 12.5103 19.7117 12.5103C19.5472 12.5058 19.3781 12.4875 19.2181 12.4692C19.0902 12.4555 18.9028 12.4189 18.816 12.3184C18.7748 12.2635 18.752 12.2041 18.7657 12.1493Z" fill="black"/>
<path fill-rule="evenodd" clip-rule="evenodd" d="M19.3703 10.6278C19.3703 10.6278 19.2058 10.6826 19.1006 10.8243C18.991 10.966 18.9727 11.0436 18.9361 11.2219C18.895 11.4001 18.8539 12.1678 18.8539 12.1678C18.8539 12.1678 18.799 12.3186 19.224 12.3689C19.649 12.4192 19.8547 12.4238 19.9369 12.3826C20.0192 12.3415 20.1471 12.0764 20.1471 12.0764C20.1471 12.0764 20.1563 12.3186 20.1791 12.3872C20.2066 12.4557 20.6818 12.4969 20.8829 12.4877C21.084 12.4786 21.1571 12.3872 21.1617 12.3369C21.1662 12.2867 21.1754 12.1221 21.1845 11.9622C21.1891 11.7977 21.1891 11.784 21.1891 11.784C21.1891 11.784 21.2576 12.0947 21.2576 12.2181C21.2576 12.3415 21.3582 12.3918 21.5044 12.3918C21.6506 12.3918 22.0528 12.3141 22.1625 12.2592C22.2721 12.2044 22.2859 12.1815 22.2859 12.1815C22.2859 12.1815 22.3316 12.0993 22.327 11.9393C22.3178 11.784 22.3178 11.7291 22.3178 11.7291C22.3178 11.7291 22.3727 11.8525 22.391 11.9531C22.4047 12.0536 22.4001 12.1587 22.4001 12.1587C22.4001 12.1587 22.4687 12.3689 22.8799 12.0216C23.2912 11.6743 23.177 11.1305 23.1633 10.9979C23.1496 10.8654 23.0902 10.6278 23.0353 10.5501C22.9805 10.4678 22.9439 10.3764 22.7703 10.3353C22.6012 10.2942 22.4412 10.4039 22.4321 10.4267C22.423 10.4496 22.3087 10.8197 22.2904 10.9614C22.2767 11.1031 22.2859 11.199 22.2859 11.199C22.2859 11.199 22.1853 10.9842 22.0848 10.8654C21.9842 10.7512 21.7877 10.7466 21.6826 10.8334C21.5775 10.9203 21.4587 11.1716 21.4084 11.263C21.3582 11.3544 21.3445 11.4321 21.3445 11.4321C21.3445 11.4321 21.2576 11.135 21.1937 11.0208C21.1297 10.9065 21.0063 10.8106 20.7869 10.7695C20.5721 10.7283 20.3254 10.9842 20.2614 11.0939C20.1974 11.2036 20.1609 11.3361 20.1609 11.3361C20.1609 11.3361 20.1517 10.9979 20.0923 10.8517C20.042 10.6963 19.8044 10.4541 19.3703 10.6278Z" fill="white"/>
<path fill-rule="evenodd" clip-rule="evenodd" d="M20.9288 6.96357C21.2715 6.94986 21.5503 7.25604 21.5503 7.64905C21.5548 8.03749 21.2807 8.36652 20.9379 8.37566C20.5952 8.38937 20.3164 8.08319 20.3164 7.69018C20.3164 7.63077 20.321 7.57136 20.3347 7.51652C20.3347 7.51652 20.3667 7.15093 20.4855 6.94529C20.6089 6.73964 20.8054 6.73507 20.8557 6.72593C20.9059 6.71679 21.0202 6.72593 21.1024 6.77163C21.1847 6.81276 21.1893 6.85846 21.1893 6.85846C21.1893 6.85846 21.0659 6.75335 20.8694 6.78534C20.6729 6.81733 20.5815 6.9133 20.5403 7.00927C20.5129 7.07324 20.4946 7.14179 20.4901 7.18292C20.6043 7.05496 20.7597 6.97271 20.9288 6.96357Z" fill="black"/>
<path fill-rule="evenodd" clip-rule="evenodd" d="M20.9319 7.04102C21.2243 7.03188 21.4665 7.30608 21.4711 7.65339C21.4757 8.0007 21.238 8.29317 20.9456 8.30231C20.6531 8.31145 20.4109 8.03726 20.4063 7.68995C20.4017 7.34264 20.6348 7.05016 20.9319 7.04102Z" fill="white"/>
<path fill-rule="evenodd" clip-rule="evenodd" d="M20.9891 7.31065C21.1582 7.30608 21.2953 7.45688 21.2999 7.65339C21.3044 7.84533 21.1673 8.00984 20.9983 8.01441C20.8292 8.01898 20.6921 7.86817 20.6875 7.67167C20.6875 7.47973 20.8246 7.31522 20.9891 7.31065Z" fill="black"/>
<path fill-rule="evenodd" clip-rule="evenodd" d="M21.0159 7.50565C21.0616 7.50565 21.1027 7.55591 21.1073 7.62446C21.1073 7.68844 21.0707 7.74328 21.025 7.74328C20.9793 7.74328 20.9382 7.69301 20.9336 7.62446C20.9336 7.55591 20.9702 7.50565 21.0159 7.50565Z" fill="white"/>
<path fill-rule="evenodd" clip-rule="evenodd" d="M25.1632 8.16872L24.9073 8.16415C24.9758 8.20528 25.0398 8.25097 25.0992 8.31038C25.2363 8.44291 25.3414 8.60743 25.4237 8.77194C25.5836 9.09183 25.6522 9.49855 25.643 9.85501C25.6247 10.4354 25.4054 10.9609 25.0489 11.4133C24.6696 11.884 24.1624 12.2405 23.614 12.4827C23.4312 12.565 23.2438 12.6381 23.0519 12.6929C22.9742 12.7158 22.8965 12.7386 22.8188 12.7523L22.6817 12.7797C22.5218 12.9534 22.3573 13.1042 22.211 13.1956C22.1471 13.2322 22.0876 13.2779 22.0282 13.319C21.9368 13.383 21.85 13.4424 21.7586 13.5063C21.5073 13.6754 21.2514 13.8308 20.9817 13.9633C20.2231 14.3472 19.4143 14.5574 18.5597 14.562C17.9428 14.5666 17.1293 14.5163 16.5718 14.2238C16.2747 14.0639 16.0234 13.8171 15.9868 13.4698C15.9594 13.2322 16.06 13.0174 16.2153 12.8391C16.2702 12.7797 16.325 12.7203 16.389 12.6701C16.4118 12.6472 16.4575 12.6152 16.485 12.5969L16.6038 12.5238C16.6586 12.8163 16.7272 13.0585 16.8688 13.287L16.9145 13.3236C16.9237 13.3281 16.9282 13.3281 16.9328 13.3281C17.0471 13.3601 17.1659 13.3875 17.2801 13.415C17.3167 13.4241 17.3532 13.4287 17.3898 13.4378C17.4675 13.4515 17.5497 13.4607 17.632 13.4698C17.8879 13.5018 18.1484 13.5155 18.4089 13.5201C19.1446 13.5292 19.9078 13.4378 20.607 13.1956C21.6215 12.8437 22.4989 12.3182 22.9788 11.3219C23.0428 11.1894 23.0976 11.0477 23.1479 10.9107C23.2941 10.4857 23.3809 10.0287 23.4129 9.57624C23.4129 9.5671 23.4129 9.55796 23.4129 9.54882C23.4129 9.55339 23.4129 9.55339 23.4083 9.55796C23.2941 9.97839 23.0702 10.3577 22.7183 10.6182C22.0419 11.1254 21.2376 11.1757 20.4379 11.0158C20.246 10.9792 20.054 10.9244 19.8621 10.8741C19.6199 10.8101 19.3823 10.7416 19.1401 10.673C18.9253 10.6136 18.7105 10.5588 18.4911 10.5039C18.3175 10.4628 18.1347 10.4217 17.9565 10.3988C17.6731 10.3623 17.3715 10.3577 17.0882 10.3988C16.9648 10.4171 16.8231 10.4445 16.6906 10.4948L16.5946 10.5953C16.5535 10.6593 16.5032 10.7416 16.4758 10.8147C16.4301 10.9381 16.389 11.066 16.3524 11.194L16.3022 11.3585L16.1879 11.2671C16.0782 11.194 15.9594 11.0752 15.8817 10.9701C15.7035 10.7233 15.6624 10.44 15.7858 10.1612C15.9366 9.82759 16.2565 9.64479 16.6129 9.54425L16.6312 9.49398C16.6586 9.4163 16.7043 9.33404 16.7454 9.27006C16.7637 9.24264 16.782 9.21522 16.8049 9.1878C16.7911 9.16952 16.782 9.14667 16.7774 9.12382C16.7774 9.11925 16.7774 9.11011 16.7774 9.10554C16.7774 9.08727 16.7729 9.06441 16.7729 9.04157C16.7729 8.97302 16.7774 8.90904 16.7866 8.84049C16.8186 8.64399 16.9191 8.47033 17.0973 8.37893C17.2436 8.30124 17.4126 8.26925 17.5772 8.30581C17.6411 8.31952 17.7234 8.34694 17.7782 8.38807L17.8148 8.41549C18.0844 8.29667 18.3769 8.20985 18.6694 8.187C18.939 8.16872 19.2178 8.16415 19.4828 8.19614C19.5696 8.20528 19.6793 8.22355 19.7661 8.25097L20.0312 8.33323C20.0495 8.3378 20.0678 8.3378 20.086 8.34237L20.2049 8.31495C20.4608 8.25097 20.8492 8.10017 21.0366 7.90823C21.2559 7.68431 21.3565 7.27759 21.361 6.9714C21.361 6.83431 21.3473 6.69721 21.3153 6.56925C21.2696 6.40474 21.1782 6.26764 21.0274 6.18538C20.968 6.15339 20.8812 6.1214 20.8126 6.11683L20.607 6.10312C20.3465 6.17624 20.0769 6.20366 19.8073 6.14882C19.4371 6.07571 19.1309 5.87006 19.0212 5.4999C18.9299 5.19372 18.9664 4.96979 19.1309 4.71845C19.1721 4.91495 19.2269 5.03377 19.3 5.1206C19.3731 5.20743 19.5148 5.25312 19.6245 5.2714C19.6747 5.28054 19.7204 5.28511 19.7707 5.28054C19.9672 5.2714 20.1637 5.18001 20.3374 5.08861C20.5567 4.96522 20.7578 4.82355 20.9726 4.6956C21.0823 4.63162 21.2011 4.56764 21.3199 4.51737C21.2971 4.51737 21.2742 4.52194 21.2514 4.52651C21.1234 4.54479 20.9863 4.57221 20.8629 4.60877L20.2963 4.76415L20.7395 4.38028C20.8218 4.30716 20.936 4.23861 21.032 4.18377C21.2605 4.06038 21.5118 3.97356 21.7723 3.95071C21.9049 3.937 22.0465 3.937 22.179 3.95071C22.179 3.95071 22.179 3.95071 22.1745 3.95071L21.8957 3.67194L22.2842 3.72678C22.3618 3.73592 22.4578 3.77248 22.5309 3.7999C22.7229 3.88216 22.9057 4.00097 23.0565 4.14264C23.1342 4.21576 23.2027 4.29345 23.2667 4.38028C23.3901 4.53565 23.4952 4.70474 23.5911 4.87839C23.5911 4.88296 23.5957 4.88296 23.5957 4.88753C23.6186 4.84183 23.6414 4.79157 23.6643 4.74587C23.7511 4.56764 23.8379 4.38942 23.9293 4.21576C24.0116 4.05581 24.0984 3.90044 24.1944 3.74963C24.2721 3.62624 24.3635 3.49372 24.4686 3.39318C24.6057 3.26522 24.793 3.14641 24.953 3.05044C25.1723 2.91791 25.4008 2.78995 25.6339 2.67114C25.9583 2.50205 26.2965 2.33753 26.6347 2.1913C26.8723 2.09076 27.1282 1.98565 27.375 1.92167C27.5075 1.88511 27.7132 1.83942 27.8274 1.93995C27.96 2.05877 27.864 2.2964 27.8046 2.42893C27.6995 2.65743 27.5532 2.89049 27.4024 3.09614C27.2196 3.34748 27.014 3.59425 26.8038 3.82732C26.525 4.12893 26.228 4.41683 25.9035 4.67275C25.6842 4.8464 25.4465 5.00635 25.1997 5.13888C24.9667 5.26226 24.7199 5.40393 24.496 5.55931L24.4823 5.62786C24.4594 5.72839 24.4411 5.8335 24.4274 5.93861C24.3909 6.16253 24.3589 6.39103 24.3406 6.61952C24.3223 6.83888 24.3086 7.17248 24.3726 7.38269C24.5097 7.81226 24.7976 8.01334 25.1632 8.16872Z" fill="black"/>
<path fill-rule="evenodd" clip-rule="evenodd" d="M23.6033 5.19139C23.6033 5.19139 23.3291 4.58817 22.9726 4.25457C22.6162 3.9164 22.2735 3.8707 22.2735 3.8707C22.2735 3.8707 22.438 4.03521 22.4882 4.11747C22.5385 4.19973 22.5339 4.22715 22.5339 4.22715C22.5339 4.22715 22.342 4.03978 21.7845 4.09462C21.2224 4.14946 20.8294 4.4922 20.8294 4.4922C20.8294 4.4922 21.1813 4.39623 21.428 4.39166C21.6748 4.38709 21.8028 4.56075 21.8028 4.56075C21.8028 4.56075 21.5423 4.51962 21.0442 4.82123C20.546 5.12285 20.089 5.50215 19.6046 5.41532C19.1248 5.32849 19.1294 5.04973 19.1294 5.04973C19.1294 5.04973 18.9603 5.8586 19.8377 6.03682C20.7197 6.21505 21.5697 5.45188 21.7936 5.28279C22.0221 5.11828 22.3466 4.99489 22.6528 5.00403C22.9589 5.01317 23.064 5.13199 23.064 5.13199C23.064 5.13199 22.7716 5.01774 22.3557 5.13656C21.9399 5.25537 21.8485 5.38333 21.6794 5.50672C21.5103 5.6301 21.3321 5.76263 21.131 5.8586C20.9299 5.95457 20.8248 6.00027 20.8248 6.00027C20.8248 6.00027 21.3046 6.02769 21.4463 6.55322C21.588 7.07876 21.428 7.72311 21.1356 8.02016C20.8476 8.3172 20.2399 8.46344 20.2399 8.46344C20.2399 8.46344 20.4775 8.64623 20.4958 8.88844C20.514 9.12607 20.3632 9.27688 20.3632 9.27688C20.3632 9.27688 20.4912 8.80618 20.2901 8.62795C20.0936 8.44973 19.9291 8.4543 19.6732 8.52742C19.4173 8.60053 19.102 8.7879 19.102 8.7879C19.102 8.7879 19.1385 8.69193 19.2847 8.58682C19.431 8.48629 19.7326 8.39489 19.7326 8.39489C19.7326 8.39489 19.3853 8.28521 18.6815 8.33548C17.9778 8.38575 17.3106 8.86559 17.3106 8.86559C17.3106 8.86559 17.402 8.73306 17.5253 8.63709C17.6487 8.54113 17.7081 8.51828 17.7081 8.51828C17.7081 8.51828 17.4842 8.35376 17.1643 8.51828C16.849 8.68279 16.913 9.13521 16.913 9.13521L17.0775 9.08494C17.0775 9.08494 16.9267 9.26774 16.8627 9.36371C16.7987 9.45967 16.7622 9.56021 16.7622 9.56021C16.7622 9.56021 17.2877 9.44139 17.8452 9.5008C18.4028 9.56021 18.7181 9.73387 18.7181 9.73387C18.7181 9.73387 18.06 9.58306 17.5299 9.58763C16.9998 9.5922 16.1635 9.6836 15.9167 10.2411C15.6654 10.7987 16.2686 11.1825 16.2686 11.1825C16.2686 11.1825 16.3554 10.9129 16.3966 10.8032C16.4377 10.6935 16.5291 10.5519 16.5291 10.5519C16.5291 10.5519 16.4057 10.6113 16.3097 10.6798C16.2138 10.7484 16.1864 10.7941 16.1864 10.7941C16.1864 10.7941 16.1544 10.7027 16.4468 10.5062C16.7393 10.3097 17.3425 10.2183 17.9869 10.3005C18.6358 10.3828 19.92 10.8032 20.4729 10.9175C21.0259 11.0271 21.8942 11.1094 22.6482 10.5427C23.4022 9.98064 23.3702 8.98441 23.3702 8.98441C23.3702 8.98441 23.2743 8.99355 23.1966 9.05752C23.1143 9.1215 23.1006 9.19005 23.1006 9.19005C23.1006 9.19005 23.0595 9.03467 23.32 8.91129C23.5804 8.7879 23.9506 9.0758 23.9506 9.0758C23.9506 9.0758 23.8409 9.03924 23.7358 9.01182C23.6261 8.98441 23.5622 9.00268 23.5622 9.00268C23.5622 9.00268 23.6307 9.97607 23.2788 10.9814C22.9315 11.9868 22.2415 12.8003 20.6557 13.3487C19.07 13.897 17.3974 13.6091 17.2557 13.5726C17.114 13.536 16.753 13.4629 16.5976 13.3578C16.4468 13.2573 16.4651 13.1567 16.4651 13.1567C16.4651 13.1567 16.52 13.2161 16.5931 13.2664C16.6662 13.3167 16.785 13.3715 16.785 13.3715C16.785 13.3715 16.6479 13.0882 16.6114 12.9556C16.5748 12.8231 16.552 12.7409 16.552 12.7409C16.552 12.7409 16.0767 13.0516 16.127 13.4766C16.1726 13.9016 16.6433 14.4637 18.5673 14.4546C20.4912 14.4454 21.7479 13.3532 22.1501 13.1064C22.5568 12.8597 23.1235 12.0737 23.4068 11.6167C23.6856 11.1597 23.8044 10.8763 23.8044 10.8763C23.8044 10.8763 23.6718 11.3333 23.4616 11.7035C23.256 12.0737 22.8036 12.6449 22.8036 12.6449C22.8036 12.6449 24.138 12.3753 24.956 11.347C25.7786 10.3188 25.5272 9.2586 25.3216 8.84731C25.1159 8.43602 24.9194 8.32177 24.7549 8.23037C24.5904 8.13898 24.339 8.12984 24.339 8.12984C24.339 8.12984 24.4853 8.075 24.595 8.07957C24.7046 8.08414 24.7915 8.13898 24.7915 8.13898C24.7915 8.13898 24.4259 7.96989 24.2614 7.43978C24.0968 6.90967 24.3665 5.61639 24.3665 5.61639L24.0466 5.80376C24.0466 5.80376 24.2019 5.54328 25.1525 5.04059C26.103 4.53333 26.953 3.52795 27.3095 3.03898C27.6614 2.55 27.8442 2.14328 27.7528 2.06559C27.6614 1.9879 27.3095 2.08387 26.6971 2.33978C26.0893 2.5957 24.9149 3.19435 24.5721 3.51425C24.2202 3.82043 23.7724 4.88521 23.6033 5.19139Z" fill="#B99D85"/>
<path fill-rule="evenodd" clip-rule="evenodd" d="M23.5977 5.17484C23.5612 5.09258 23.3007 4.56247 22.9762 4.25172L22.9716 4.24715C22.6152 3.90898 22.2724 3.86328 22.2724 3.86328C22.2724 3.86328 22.437 4.0278 22.4872 4.11006C22.5375 4.19231 22.5329 4.21973 22.5329 4.21973C22.5329 4.21973 22.341 4.03237 21.7835 4.08721C21.6327 4.10092 21.4956 4.13748 21.3767 4.1786C21.331 4.19231 21.2899 4.21059 21.2534 4.22887C21.0888 4.30199 20.9609 4.38425 20.8923 4.43452C20.8512 4.46651 20.8284 4.48479 20.8284 4.48479C20.8284 4.48479 20.8603 4.47565 20.9106 4.46194C21.0112 4.43909 21.1894 4.39796 21.3448 4.38882C21.3722 4.38882 21.3996 4.38425 21.4224 4.38425C21.4499 4.38425 21.4727 4.38425 21.4956 4.38882C21.6921 4.41624 21.7972 4.55334 21.7972 4.55334C21.7972 4.55334 21.7286 4.5442 21.5961 4.57162C21.5595 4.58075 21.5138 4.58989 21.4636 4.60817C21.3676 4.64016 21.2534 4.69043 21.1163 4.76355C21.0888 4.77726 21.0614 4.79554 21.034 4.81382C20.9517 4.86409 20.8741 4.91436 20.7964 4.96463C20.7598 4.98747 20.7187 5.01489 20.6821 5.03774C20.673 5.04688 20.6593 5.05145 20.6501 5.06059C20.6364 5.06973 20.6227 5.07887 20.609 5.08344C20.5724 5.10629 20.5313 5.12914 20.4948 5.15199C20.4673 5.1657 20.4445 5.18398 20.4171 5.19769C20.3759 5.22054 20.3302 5.24339 20.2891 5.26624C20.248 5.28909 20.2069 5.30737 20.1612 5.32565C19.9692 5.40791 19.7819 5.44903 19.5899 5.41248C19.1101 5.32565 19.1146 5.04688 19.1146 5.04688C19.1146 5.04688 18.9456 5.85575 19.823 6.03398C19.9646 6.0614 20.1063 6.06597 20.2434 6.05226C20.2937 6.04769 20.3439 6.03855 20.3942 6.02941C20.705 5.97 20.9974 5.82377 21.2305 5.67753C21.2396 5.67296 21.2488 5.66382 21.2579 5.65925C21.2991 5.63183 21.3402 5.60441 21.3813 5.57699C21.5413 5.46731 21.6692 5.36221 21.7469 5.3028C21.7606 5.29366 21.7698 5.28452 21.7789 5.27995C22.0074 5.11543 22.3319 4.99204 22.638 5.00118C22.862 5.00575 22.9762 5.0743 23.0265 5.10629C23.1087 5.12457 23.1636 5.13371 23.1636 5.13371C23.1636 5.13371 23.0219 4.9829 22.8939 4.88694C22.766 4.79097 22.5009 4.70414 22.5009 4.70414C22.5009 4.70414 22.8482 4.73156 23.095 4.85495C23.3509 4.97833 23.5977 5.17484 23.5977 5.17484Z" fill="#525251"/>
<path fill-rule="evenodd" clip-rule="evenodd" d="M21.918 6.17529C21.918 6.17529 22.1008 5.78685 22.7817 5.74115C23.458 5.69545 23.5768 5.88739 23.7139 6.12045C23.8465 6.35809 23.8556 6.66884 23.8099 6.82422C23.7642 6.98416 23.6637 7.039 23.6637 7.039C23.6637 7.039 23.2021 6.45406 22.8182 6.30325C22.4298 6.15701 22.2516 6.12045 21.918 6.17529Z" fill="#9E775C"/>
<path fill-rule="evenodd" clip-rule="evenodd" d="M20.2945 8.63456C20.29 8.62999 20.2854 8.62542 20.2808 8.62085C20.1712 8.52031 20.0706 8.47918 19.9609 8.47461C19.9929 8.53859 20.0798 8.65284 20.2945 8.63456Z" fill="#9E775C"/>
<path fill-rule="evenodd" clip-rule="evenodd" d="M21.3586 5.72318C21.2854 5.76887 21.2078 5.81457 21.1255 5.8557C20.9244 5.95167 20.8193 5.99737 20.8193 5.99737C20.8193 5.99737 21.2992 6.02479 21.4408 6.55033C21.5825 7.07586 21.4225 7.72022 21.1301 8.01726C20.8422 8.3143 20.2344 8.46054 20.2344 8.46054C20.2344 8.46054 20.3166 8.52452 20.3852 8.62506C20.6868 8.55194 21.0798 8.26404 21.3037 8.01726C21.5459 7.75221 21.6373 6.98904 21.5779 6.47264C21.5414 6.13904 21.4317 5.87398 21.3586 5.72318Z" fill="#9E775C"/>
<path fill-rule="evenodd" clip-rule="evenodd" d="M24.2052 7.18413C24.1504 6.58091 24.356 5.60752 24.356 5.60752L24.0361 5.79489C24.0361 5.79489 24.1915 5.5344 25.1421 5.03172C26.0926 4.52446 26.9426 3.51908 27.299 3.0301C27.6509 2.54112 27.8337 2.1344 27.7423 2.05672C27.7195 2.03844 27.6875 2.0293 27.6326 2.0293C27.5915 2.20752 27.5184 2.4086 27.3722 2.53655C27.066 2.80618 26.3074 3.2129 26.3074 3.2129C26.3074 3.2129 24.4748 4.78494 24.3423 4.87634C24.2098 4.97231 24.0361 5.12768 23.9173 5.49328C23.7985 5.85887 23.9722 6.3844 23.9722 6.3844L24.027 6.01424C24.0224 6.0051 24.0361 6.67688 24.2052 7.18413ZM23.3324 10.7761C23.3141 10.84 23.2912 10.904 23.2684 10.968C22.9211 11.9734 22.231 12.7868 20.6453 13.3352C20.4671 13.3946 20.2888 13.4495 20.1106 13.4906C19.8775 13.7831 19.6445 14.0847 19.4297 14.3634C20.8601 14.103 21.8015 13.3032 22.1396 13.093C22.5464 12.8462 23.113 12.0602 23.3964 11.6032C23.6751 11.1462 23.7939 10.8629 23.7939 10.8629C23.7939 10.8629 23.6614 11.3199 23.4512 11.69C23.2455 12.0602 22.7931 12.6314 22.7931 12.6314C22.7931 12.6314 24.1275 12.3618 24.9455 11.3336C25.7681 10.3054 25.5168 9.24516 25.3111 8.83387C25.1055 8.42258 24.909 8.30833 24.7445 8.21693C24.58 8.12553 24.3286 8.11639 24.3286 8.11639C24.3286 8.11639 24.4748 8.06155 24.5845 8.06612C24.6942 8.07069 24.781 8.12553 24.781 8.12553C24.781 8.12553 24.6394 8.06155 24.4931 7.88333C24.4017 7.86505 24.2875 7.8422 24.1367 7.82392C23.7254 7.76908 23.5243 7.85591 23.5243 7.85591C23.5243 7.85591 23.3781 7.19327 23.0902 7.03333C22.8023 6.87338 22.455 7.01962 22.455 7.01962C22.455 7.01962 22.5144 6.86881 22.6469 6.82768C22.7794 6.78655 23.0171 6.83225 23.0171 6.83225C23.0171 6.83225 22.7886 6.6586 22.5372 6.71801C22.2904 6.77741 22.1671 6.76827 21.9934 7.49946C21.8197 8.23064 22.199 8.60537 22.2904 8.67392C22.3818 8.74247 22.1076 8.96182 22.327 8.95268C22.5464 8.94354 23.0947 8.5094 23.3826 8.28548C23.666 8.05698 23.9767 7.91989 24.6119 8.58252C25.2426 9.24059 24.9547 10.2871 24.6485 10.7761C24.3423 11.265 23.4375 11.8957 23.4375 11.8957C23.4375 11.8957 23.5974 11.6078 23.7025 11.3336C23.8076 11.0594 23.8533 10.5202 23.8533 10.5202C23.8533 10.5202 23.634 10.6207 23.3324 10.7761Z" fill="#9E775C"/>
<path fill-rule="evenodd" clip-rule="evenodd" d="M20.3554 8.5855C20.4148 8.66319 20.4788 8.76373 20.488 8.88255C20.5062 9.12018 20.3554 9.27099 20.3554 9.27099C20.3554 9.27099 20.4834 8.80029 20.2823 8.62206C20.0858 8.44384 19.9213 8.44841 19.6654 8.52153C19.4095 8.59464 19.0941 8.78201 19.0941 8.78201C19.0941 8.78201 19.1307 8.68604 19.2769 8.58093C19.4232 8.4804 19.7248 8.389 19.7248 8.389C19.7248 8.389 19.3775 8.27932 18.6737 8.32959C17.9699 8.37986 17.3027 8.8597 17.3027 8.8597C17.3027 8.8597 17.3941 8.72717 17.5175 8.6312C17.6409 8.53524 17.7003 8.51239 17.7003 8.51239C17.7003 8.51239 17.4764 8.34787 17.1565 8.51239C16.8412 8.6769 16.9052 9.12932 16.9052 9.12932L17.0697 9.07905C17.0697 9.07905 16.9189 9.26185 16.8549 9.35782C16.7909 9.45379 16.7544 9.55432 16.7544 9.55432C16.7544 9.55432 17.2799 9.43551 17.8374 9.49491C18.3949 9.55432 18.7103 9.72798 18.7103 9.72798C18.7103 9.72798 18.0522 9.57717 17.5221 9.58174C16.992 9.58631 16.1557 9.67771 15.9089 10.2352C15.6576 10.7928 16.2608 11.1766 16.2608 11.1766C16.2608 11.1766 16.3476 10.907 16.3888 10.7973C16.4299 10.6877 16.5213 10.546 16.5213 10.546C16.5213 10.546 16.3979 10.6054 16.3019 10.6739C16.206 10.7425 16.1785 10.7882 16.1785 10.7882C16.1785 10.7882 16.1466 10.6968 16.439 10.5003C16.7315 10.3038 17.3347 10.2124 17.9791 10.2946C18.628 10.3769 19.9121 10.7973 20.4651 10.9116C21.0181 11.0213 21.8863 11.1035 22.6404 10.5368C23.3944 9.97475 23.3624 8.97852 23.3624 8.97852C23.3624 8.97852 23.2664 8.98766 23.1888 9.05163C23.1065 9.11561 23.0928 9.18416 23.0928 9.18416C23.0928 9.18416 23.0517 9.02878 23.3121 8.9054C23.5726 8.78201 23.9428 9.06991 23.9428 9.06991C23.9428 9.06991 23.8331 9.03335 23.728 9.00593C23.6183 8.97852 23.5544 8.9968 23.5544 8.9968C23.5544 8.9968 23.6229 9.97018 23.271 10.9756C22.9237 11.9809 22.2337 12.7944 20.6479 13.3428C19.0622 13.8911 17.3896 13.6032 17.2479 13.5667C17.1062 13.5301 16.7452 13.457 16.5898 13.3519C16.439 13.2514 16.4573 13.1508 16.4573 13.1508C16.4573 13.1508 16.5122 13.2102 16.5853 13.2605C16.6584 13.3108 16.7772 13.3656 16.7772 13.3656C16.7772 13.3656 16.6401 13.0823 16.6035 12.9498C16.567 12.8172 16.5441 12.735 16.5441 12.735C16.5441 12.735 16.0689 13.0457 16.1191 13.4707C16.1648 13.8957 16.6355 14.4578 18.5595 14.4487C20.4834 14.4395 21.7401 13.3473 22.1423 13.1006C22.4987 12.8812 22.9831 12.246 23.2847 11.7844C23.4218 11.5514 23.5726 11.3 23.6823 11.0989C23.76 10.9481 23.792 10.8659 23.792 10.8659L23.7874 10.8796C23.9885 10.4043 24.2992 9.3304 23.9428 8.82771C23.5315 8.24733 22.9374 8.97395 22.6038 9.04249C22.2702 9.11104 21.6853 9.25271 20.881 8.82314C20.7256 8.73174 20.5428 8.65405 20.3554 8.5855Z" fill="#F2E2CF"/>
<path fill-rule="evenodd" clip-rule="evenodd" d="M16.24 13.0329C16.1577 13.1517 16.0983 13.298 16.1166 13.4625C16.1623 13.8875 16.633 14.4496 18.5569 14.4404C20.4809 14.4313 21.7376 13.3391 22.1397 13.0923C22.3591 12.9598 22.6241 12.6673 22.8709 12.3566C22.7475 12.448 22.6059 12.5531 22.4505 12.6628C21.5639 13.298 21.4497 13.3071 20.9836 13.5402C20.5174 13.7732 18.2188 14.3993 17.058 13.9652C16.3999 13.7093 16.2446 13.3208 16.24 13.0329ZM23.8215 9.02512C23.7895 9.01598 23.7575 9.00684 23.7209 8.9977C23.6112 8.97028 23.5473 8.98856 23.5473 8.98856C23.5473 8.98856 23.6067 9.84313 23.3279 10.7754C23.3919 10.6383 23.4513 10.4783 23.4879 10.3138C23.5884 9.85684 23.6706 9.18963 23.7301 9.08452C23.7529 9.04797 23.7849 9.02969 23.8215 9.02512ZM23.0857 9.13022C23.0948 9.07539 23.1314 8.97942 23.3096 8.89716C23.5061 8.80119 23.7666 8.94743 23.8809 9.02055C23.9266 9.02055 23.9631 9.03426 23.9631 9.03426C23.9631 9.03426 23.6798 8.63668 23.2868 8.80576C22.8938 8.97485 22.8892 9.31759 22.8892 9.31759C22.8892 9.31759 22.912 9.25818 23.0217 9.16678C23.0491 9.1485 23.0674 9.13936 23.0857 9.13022ZM15.8516 10.5834C15.9018 10.9399 16.2583 11.1684 16.2583 11.1684C16.2583 11.1684 16.3451 10.8988 16.3862 10.7891C16.4274 10.6794 16.5188 10.5378 16.5188 10.5378C16.5188 10.5378 16.3954 10.5972 16.2994 10.6657C16.2034 10.7343 16.176 10.78 16.176 10.78C16.176 10.78 16.144 10.6886 16.4365 10.4921C16.729 10.2955 17.3322 10.2041 17.9766 10.2864C18.6255 10.3687 19.9096 10.7891 20.4626 10.9033C21.0155 11.013 21.8838 11.0953 22.6379 10.5286C23.3919 9.96651 23.3599 8.97028 23.3599 8.97028C23.3599 8.97028 23.2639 8.97942 23.1862 9.0434C23.1497 9.07082 23.1314 9.09823 23.1177 9.12108C23.1771 9.1028 23.2137 9.13022 23.2137 9.13022C23.2137 9.13022 23.2594 9.18506 23.2228 9.31302C23.1862 9.44555 22.976 9.95738 22.6516 10.2316C22.3317 10.5058 21.5456 10.9582 20.5311 10.6703C19.5212 10.3824 17.8258 9.8477 16.9301 10.0533C16.3954 10.1722 16.0481 10.4098 15.8516 10.5834ZM17.0032 9.15764C16.9529 9.21705 16.8889 9.29931 16.8524 9.35415C16.7884 9.45012 16.7518 9.55065 16.7518 9.55065C16.7518 9.55065 17.2774 9.43184 17.8349 9.49125C18.1274 9.52323 18.3513 9.58264 18.4975 9.63748C18.7763 9.69232 18.9637 9.74716 18.9637 9.74716C18.9637 9.74716 18.5341 9.53237 17.9583 9.34044C17.4967 9.18506 17.1357 9.16221 17.0032 9.15764ZM17.3276 8.44931C17.2728 8.45845 17.218 8.4813 17.154 8.50872C16.8387 8.67323 16.9026 9.12565 16.9026 9.12565L17.0123 9.09366L17.1905 8.91544C17.1905 8.91544 17.1174 8.8606 17.1631 8.70065C17.186 8.6184 17.2591 8.527 17.3276 8.44931ZM19.0276 9.18049C19.0276 9.18049 19.3749 8.66867 19.7954 8.65496C20.2158 8.64125 20.2798 8.97028 20.2615 9.13479C20.2387 9.29931 20.1061 9.41813 20.1061 9.41813C20.1061 9.41813 19.2561 9.58721 19.0276 9.18049Z" fill="#EDC9A2"/>
<path fill-rule="evenodd" clip-rule="evenodd" d="M19.1289 9.15012C19.1289 9.15012 19.3757 8.83023 19.7413 8.77996C20.1069 8.72512 20.1526 9.03131 20.1663 9.12271C20.18 9.21867 20.052 9.34663 20.052 9.34663V9.17754C20.052 9.17754 19.8692 9.28265 19.6499 9.24152C19.4351 9.20039 19.3483 9.07244 19.3483 9.07244C19.3483 9.07244 19.2112 9.09529 19.1289 9.15012Z" fill="black"/>
<path fill-rule="evenodd" clip-rule="evenodd" d="M21.9961 6.04444C21.9961 6.04444 22.3388 5.6103 22.9603 5.61487C23.5818 5.61944 23.7418 6.29579 23.7327 6.4603C23.7235 6.62482 23.6367 6.931 23.6367 6.931C23.6367 6.931 23.5179 6.57912 22.9923 6.21353C22.4668 5.85251 22.0738 6.0353 21.9961 6.04444Z" fill="black"/>
<path fill-rule="evenodd" clip-rule="evenodd" d="M23.9844 5.33921C23.9844 5.33921 24.1717 4.82739 24.4368 4.46179C24.7018 4.09163 25.0126 3.70319 25.7027 3.33303C26.3927 2.96287 27.1742 2.73438 27.1742 2.73438C27.1742 2.73438 27.1193 2.83948 27.0142 2.88061C26.9045 2.92174 26.8634 2.96744 26.8634 2.96744C26.8634 2.96744 26.443 3.56153 26.1368 3.83572C25.8306 4.10991 25.2548 4.59432 24.8618 4.83196C24.4779 5.06045 23.9844 5.33921 23.9844 5.33921Z" fill="black"/>
<path fill-rule="evenodd" clip-rule="evenodd" d="M26.6328 3.05994C26.3404 3.17418 26.0479 3.30214 25.7691 3.44838C25.4904 3.59461 25.2344 3.77284 25.0059 3.99219C24.8323 4.16128 24.6906 4.34408 24.549 4.54058C24.517 4.58628 24.485 4.63655 24.453 4.68225C24.3844 4.79193 24.3205 4.91074 24.2656 5.02956C24.4439 4.92445 24.6221 4.82392 24.8003 4.71424C25.0105 4.58628 25.2162 4.4309 25.4127 4.27553C25.632 4.10187 25.8468 3.91908 26.0525 3.73628C26.153 3.64488 26.249 3.53978 26.3358 3.43467C26.4363 3.31585 26.5369 3.18789 26.6328 3.05994C26.6283 3.06451 26.6328 3.05994 26.6328 3.05994Z" fill="#F6C4B1"/>
<path fill-rule="evenodd" clip-rule="evenodd" d="M22.6777 6.98145C23.057 6.98145 23.3632 7.37446 23.3632 7.86344C23.3632 8.34784 23.057 8.74542 22.6777 8.74542C22.2984 8.74542 21.9922 8.35241 21.9922 7.86344C21.9922 7.79032 22.0013 7.7172 22.015 7.64865C22.015 7.64865 22.0516 7.19166 22.1887 6.94032C22.3258 6.68897 22.5451 6.69354 22.6046 6.6844C22.6594 6.67983 22.7873 6.69354 22.8787 6.75295C22.9656 6.81236 22.9747 6.8672 22.9747 6.8672C22.9747 6.8672 22.8376 6.7301 22.6228 6.75752C22.4035 6.78494 22.3029 6.90376 22.2572 7.02258C22.2253 7.10026 22.207 7.18709 22.1978 7.23736C22.3167 7.08198 22.4903 6.98145 22.6777 6.98145Z" fill="black"/>
<path fill-rule="evenodd" clip-rule="evenodd" d="M22.6794 7.07617C23.0038 7.07617 23.2689 7.42805 23.2689 7.86219C23.2689 8.29633 23.0038 8.64821 22.6794 8.64821C22.3549 8.64821 22.0898 8.29633 22.0898 7.86219C22.0898 7.42805 22.3549 7.07617 22.6794 7.07617Z" fill="white"/>
<path fill-rule="evenodd" clip-rule="evenodd" d="M22.6975 7.30994C22.8849 7.30994 23.0357 7.4973 23.0357 7.73037C23.0357 7.96343 22.8849 8.1508 22.6975 8.1508C22.5102 8.1508 22.3594 7.96343 22.3594 7.73037C22.3594 7.50187 22.5102 7.30994 22.6975 7.30994Z" fill="black"/>
<path fill-rule="evenodd" clip-rule="evenodd" d="M22.7053 7.46094C22.7602 7.46094 22.8013 7.51578 22.8013 7.57975C22.8013 7.64373 22.7602 7.69857 22.7053 7.69857C22.6505 7.69857 22.6094 7.64373 22.6094 7.57975C22.6094 7.51121 22.6551 7.46094 22.7053 7.46094Z" fill="white"/>
<path fill-rule="evenodd" clip-rule="evenodd" d="M22.4684 8.99614C22.4684 8.99614 22.4227 8.8956 22.6603 8.53458C22.8979 8.17813 23.3641 8.00904 23.5469 7.9542C23.7297 7.90393 23.9216 7.90393 23.9947 7.94049C24.0678 7.97248 24.0678 8.27409 23.6565 8.45232C23.2453 8.63054 23.067 8.71737 22.9162 8.8042C22.7608 8.89103 22.5369 9.05554 22.4684 8.99614Z" fill="#B99D85"/>
<path fill-rule="evenodd" clip-rule="evenodd" d="M22.4766 8.9166C22.4903 8.84805 22.5405 8.72924 22.6639 8.54187C22.9016 8.18542 23.3677 8.01633 23.5505 7.96149C23.7333 7.91123 23.9252 7.91123 23.9983 7.94778C24.0349 7.96606 24.0532 8.04375 24.0166 8.13972C23.7516 8.04375 23.5642 8.14886 23.386 8.29053C23.1483 8.47789 22.737 8.80235 22.4766 8.9166Z" fill="#9E775C"/>
<path fill-rule="evenodd" clip-rule="evenodd" d="M22.4648 8.93611C22.4648 8.93611 22.5014 8.48826 22.995 8.15009C23.4931 7.81192 23.9089 7.92617 23.9089 7.92617C23.9089 7.92617 22.995 7.92617 22.4648 8.93611Z" fill="black"/>
<path fill-rule="evenodd" clip-rule="evenodd" d="M23.4336 8.35777C23.4336 8.35777 23.4564 8.17955 23.6941 8.09272C23.9317 8.01046 24.0322 8.0653 24.0322 8.0653C24.0322 8.0653 23.6255 8.15213 23.4336 8.35777Z" fill="black"/>
<path fill-rule="evenodd" clip-rule="evenodd" d="M23.6367 8.39932C23.6367 8.39932 23.6687 8.25766 23.9109 8.19825C24.1531 8.13884 24.1988 8.2211 24.1988 8.2211C24.1988 8.2211 23.8469 8.25766 23.6367 8.39932Z" fill="black"/>
<path fill-rule="evenodd" clip-rule="evenodd" d="M24.1055 8.39945C24.1055 8.39945 24.1923 8.3172 24.2791 8.34918C24.3614 8.38117 24.3842 8.44515 24.3842 8.44515C24.3842 8.44515 24.2014 8.38574 24.1055 8.39945Z" fill="black"/>
<path fill-rule="evenodd" clip-rule="evenodd" d="M20.2632 6.35649C20.2632 6.35649 20.286 6.10515 20.6379 6.03203C20.9898 5.95891 21.1955 6.18284 21.2686 6.2651C21.3417 6.34735 21.3965 6.49359 21.4102 6.56671C21.4239 6.6444 21.4377 6.69467 21.4377 6.69467C21.4377 6.69467 21.3371 6.40676 20.9441 6.40676C20.5511 6.40676 20.3089 6.86375 20.2678 6.95972C20.2266 7.05569 20.1352 7.26133 20.1352 7.26133C20.1352 7.26133 20.0713 6.85004 20.2632 6.35649Z" fill="black"/>
<path fill-rule="evenodd" clip-rule="evenodd" d="M17.9305 10.6648C17.9305 10.6648 17.9214 10.7882 17.8757 11.0761C17.83 11.364 17.7752 11.6153 17.8346 11.8347C17.894 12.054 17.6792 12.1226 17.5924 11.9946C17.5055 11.8667 17.5558 11.5742 17.5741 11.4325C17.5969 11.2863 17.6929 10.8887 17.7203 10.8202C17.7478 10.7516 17.8072 10.5323 17.9305 10.6648Z" fill="white"/>
<path fill-rule="evenodd" clip-rule="evenodd" d="M17.787 8.82422L17.8784 10.4465L19.094 9.36347L18.0109 10.5745L19.6332 10.6659L18.0109 10.7573L19.094 11.9683L17.8784 10.8852L17.787 12.5121L17.7002 10.8852L16.4846 11.9683L17.5676 10.7573L15.9453 10.6659L17.5676 10.5745L16.4846 9.36347L17.7002 10.4465L17.787 8.82422Z" fill="white"/>
<path fill-rule="evenodd" clip-rule="evenodd" d="M22.9628 9.16931L23.0314 10.3895L23.9408 9.57603L23.1273 10.4854L24.3475 10.554L23.1273 10.6225L23.9408 11.5319L23.0314 10.7185L22.9628 11.9387L22.8943 10.7185L21.9848 11.5319L22.7983 10.6225L21.5781 10.554L22.7983 10.4854L21.9848 9.57603L22.8943 10.3895L22.9628 9.16931Z" fill="white"/>
<path fill-rule="evenodd" clip-rule="evenodd" d="M22.8224 19.343L22.827 19.4481C23.7776 19.4115 24.687 19.2059 25.5233 18.8632C25.5872 18.8357 25.6512 18.8083 25.7152 18.7809C25.0983 18.4656 24.5636 17.9263 24.3762 17.0306C23.837 14.4441 24.6367 12.9314 24.8652 11.8575C24.8835 11.7753 24.8972 11.6839 24.9063 11.5879C24.5499 11.9763 24.0974 12.2734 23.6176 12.4882C23.4348 12.5704 23.2474 12.6435 23.0555 12.6984C22.9778 12.7212 22.9001 12.7441 22.8224 12.7578L22.6853 12.7852C22.5254 12.9589 22.3609 13.1097 22.2147 13.2011C22.1507 13.2376 22.0913 13.2833 22.0319 13.3244C21.9587 13.3747 21.8856 13.425 21.8125 13.4753C22.1552 13.6672 22.5665 13.9962 22.7493 14.5218C22.7539 14.5355 22.7585 14.5492 22.763 14.5629C22.763 14.5675 22.7676 14.572 22.7676 14.5766C22.7722 14.5857 22.7722 14.5903 22.7767 14.5994C22.7767 14.604 22.7813 14.6132 22.7813 14.6177C22.7813 14.6223 22.7859 14.6314 22.7859 14.636C22.7859 14.6451 22.7905 14.6497 22.795 14.6589C22.795 14.6634 22.7996 14.6726 22.7996 14.6771C22.7996 14.6817 22.8042 14.6863 22.8042 14.6908C22.8179 14.732 22.8316 14.7777 22.8407 14.8234V14.8279C22.8407 14.8279 22.8407 14.8279 22.8407 14.8325C22.8453 14.8462 22.8499 14.8599 22.8499 14.8736V14.8782C22.8544 14.8874 22.8544 14.9011 22.859 14.9102L22.8636 14.9331L22.8681 14.9468C22.8681 14.9559 22.8727 14.965 22.8727 14.9742L22.8819 15.0153L22.8864 15.0382L22.891 15.061V15.0656L22.8956 15.093V15.0976V15.1113C22.8956 15.1158 22.8956 15.1204 22.8956 15.125V15.1341V15.1387L22.9001 15.1661V15.1707C22.9047 15.1844 22.9047 15.1935 22.9093 15.2072V15.2118V15.2164V15.2301C22.9138 15.2529 22.9184 15.2712 22.923 15.2941C22.923 15.2986 22.923 15.2986 22.923 15.3032L22.9276 15.3215L22.9321 15.3535L22.9367 15.3672L22.9413 15.39L22.9458 15.4175V15.422L22.9504 15.4586V15.4632L22.955 15.5043L22.9595 15.5454V15.5546V15.5591L22.9641 15.5957V15.614L22.9687 15.6505V15.6597L22.9733 15.6871L22.9778 15.7145L22.9824 15.7556C22.987 15.7831 22.987 15.8059 22.9915 15.8333V15.8379V15.8516V15.8699C22.9915 15.8882 22.9961 15.911 22.9961 15.9293C22.9961 15.9339 22.9961 15.943 22.9961 15.9476V15.9567L23.0007 15.9933C23.1195 17.1723 22.7813 18.1868 22.8224 19.343Z" fill="#9E775C"/>
<path d="M0.296875 3.59586H4.50888C5.52888 3.59586 6.49488 3.70986 7.40688 3.93786C8.33088 4.16586 9.13488 4.53786 9.81888 5.05386C10.5029 5.55786 11.0429 6.21786 11.4389 7.03386C11.8469 7.84986 12.0509 8.83986 12.0509 10.0039C12.0509 11.0359 11.8529 11.9479 11.4569 12.7399C11.0729 13.5199 10.5509 14.1799 9.89087 14.7199C9.23087 15.2479 8.46888 15.6499 7.60488 15.9259C6.74088 16.2019 5.83488 16.3399 4.88688 16.3399H0.296875V3.59586ZM3.10488 13.7479H4.56288C5.21088 13.7479 5.81087 13.6819 6.36287 13.5499C6.92688 13.4179 7.41288 13.2019 7.82088 12.9019C8.22888 12.5899 8.54688 12.1879 8.77488 11.6959C9.01488 11.1919 9.13488 10.5799 9.13488 9.85986C9.13488 9.23586 9.01488 8.69586 8.77488 8.23986C8.54688 7.77186 8.23488 7.38786 7.83888 7.08786C7.44288 6.78786 6.97488 6.56586 6.43488 6.42186C5.90688 6.26586 5.34888 6.18786 4.76088 6.18786H3.10488V13.7479Z" fill="black"/>
<path d="M32.9844 7.78717H35.5764V8.97517H35.6124C35.6964 8.80717 35.8164 8.63917 35.9724 8.47117C36.1284 8.30317 36.3144 8.15317 36.5304 8.02117C36.7464 7.88917 36.9924 7.78117 37.2684 7.69717C37.5444 7.61317 37.8444 7.57117 38.1684 7.57117C38.8524 7.57117 39.4044 7.67917 39.8244 7.89517C40.2444 8.09917 40.5684 8.38717 40.7964 8.75917C41.0364 9.13117 41.1984 9.56917 41.2824 10.0732C41.3664 10.5772 41.4084 11.1232 41.4084 11.7112V16.5352H38.7084V12.2512C38.7084 11.9992 38.6964 11.7412 38.6724 11.4772C38.6604 11.2012 38.6064 10.9492 38.5104 10.7212C38.4264 10.4932 38.2884 10.3072 38.0964 10.1632C37.9164 10.0192 37.6524 9.94717 37.3044 9.94717C36.9564 9.94717 36.6744 10.0132 36.4584 10.1452C36.2424 10.2652 36.0744 10.4332 35.9544 10.6492C35.8464 10.8532 35.7744 11.0872 35.7384 11.3512C35.7024 11.6152 35.6844 11.8912 35.6844 12.1792V16.5352H32.9844V7.78717Z" fill="black"/>
<path d="M53.9844 2.92715H56.6844V11.2432L59.6724 7.78715H62.9844L59.5104 11.7292L63.0744 16.5352H59.6724L56.7204 12.1072H56.6844V16.5352H53.9844V2.92715Z" fill="black"/>
<path d="M72.2663 15.0232C71.8343 15.5752 71.2883 16.0012 70.6283 16.3012C69.9683 16.6012 69.2843 16.7512 68.5763 16.7512C67.9043 16.7512 67.2683 16.6432 66.6683 16.4272C66.0803 16.2112 65.5643 15.9052 65.1203 15.5092C64.6883 15.1012 64.3463 14.6152 64.0943 14.0512C63.8423 13.4872 63.7163 12.8572 63.7163 12.1612C63.7163 11.4652 63.8423 10.8352 64.0943 10.2712C64.3463 9.70715 64.6883 9.22716 65.1203 8.83115C65.5643 8.42316 66.0803 8.11116 66.6683 7.89515C67.2683 7.67915 67.9043 7.57115 68.5763 7.57115C69.2003 7.57115 69.7643 7.67915 70.2683 7.89515C70.7843 8.11116 71.2163 8.42316 71.5643 8.83115C71.9243 9.22716 72.2003 9.70715 72.3923 10.2712C72.5843 10.8352 72.6803 11.4652 72.6803 12.1612V13.0072H66.4163C66.5243 13.5232 66.7583 13.9372 67.1183 14.2492C67.4783 14.5492 67.9223 14.6992 68.4503 14.6992C68.8943 14.6992 69.2663 14.6032 69.5663 14.4112C69.8783 14.2072 70.1483 13.9492 70.3763 13.6372L72.2663 15.0232ZM69.9803 11.1712C69.9923 10.7152 69.8423 10.3252 69.5303 10.0012C69.2183 9.67716 68.8163 9.51515 68.3243 9.51515C68.0243 9.51515 67.7603 9.56316 67.5323 9.65915C67.3043 9.75516 67.1063 9.88115 66.9383 10.0372C66.7823 10.1812 66.6563 10.3552 66.5603 10.5592C66.4763 10.7512 66.4283 10.9552 66.4163 11.1712H69.9803Z" fill="black"/>
<path d="M79.3623 17.9572C79.1823 18.4252 79.0083 18.8392 78.8403 19.1992C78.6723 19.5592 78.4563 19.8592 78.1923 20.0992C77.9403 20.3512 77.6163 20.5372 77.2203 20.6572C76.8243 20.7892 76.3023 20.8552 75.6543 20.8552C74.9583 20.8552 74.2863 20.7472 73.6383 20.5312L73.9983 18.3172C74.4063 18.4972 74.8263 18.5872 75.2583 18.5872C75.5583 18.5872 75.8043 18.5512 75.9963 18.4792C76.1883 18.4192 76.3443 18.3232 76.4643 18.1912C76.5963 18.0712 76.7043 17.9212 76.7883 17.7412C76.8723 17.5612 76.9623 17.3512 77.0583 17.1112L77.2563 16.6072L73.4223 7.78715H76.3383L78.5883 13.5652H78.6243L80.5503 7.78715H83.3223L79.3623 17.9572Z" fill="black"/>
<path d="M49.9085 13.1331H45.4805V10.9731H49.9085V13.1331Z" fill="black"/>
</svg>
