<svg width="213" height="65" viewBox="0 0 213 65" fill="none" xmlns="http://www.w3.org/2000/svg">
<path fill-rule="evenodd" clip-rule="evenodd" d="M59.441 11.025C71.065 11.025 80.4933 20.4533 80.4933 32.0773C80.4933 43.7014 71.065 53.1297 59.441 53.1297C47.8169 53.1297 38.3887 43.7014 38.3887 32.0773C38.3887 20.4533 47.8169 11.025 59.441 11.025Z" fill="black"/>
<path d="M59.441 11.025C71.065 11.025 80.4933 20.4533 80.4933 32.0773C80.4933 43.7014 71.065 53.1297 59.441 53.1297C47.8169 53.1297 38.3887 43.7014 38.3887 32.0773C38.3887 20.4533 47.8169 11.025 59.441 11.025Z" stroke="#373626" stroke-width="3" stroke-miterlimit="22.9256"/>
<path fill-rule="evenodd" clip-rule="evenodd" d="M59.4429 12.3668C70.3313 12.3668 79.171 21.1952 79.171 32.0949C79.171 42.9832 70.3426 51.8229 59.4429 51.8229C48.5546 51.8229 39.7148 42.9946 39.7148 32.0949C39.7148 21.1952 48.5432 12.3668 59.4429 12.3668Z" fill="#FFF037"/>
<path fill-rule="evenodd" clip-rule="evenodd" d="M65.9831 13.4706C67.4545 13.9913 68.8467 14.6704 70.137 15.5079C69.7069 15.8248 69.2655 16.1078 68.8014 16.3568C68.2242 16.6624 67.613 17.0133 67.0584 17.3981L67.0244 17.5679C66.9678 17.8169 66.9226 18.0772 66.8886 18.3375C66.7981 18.8921 66.7188 19.4581 66.6735 20.024C66.6283 20.5673 66.5943 21.3935 66.7528 21.9142C67.081 22.9668 67.8054 23.4761 68.6996 23.8496L68.0657 23.8383C68.2355 23.9402 68.394 24.0534 68.5411 24.2005C68.8806 24.5287 69.141 24.9362 69.3447 25.3437C69.7409 26.136 69.9106 27.1433 69.8767 28.0261C69.854 28.8411 69.6729 29.6107 69.356 30.3238C69.639 30.9237 69.9106 31.5349 70.1823 32.1461C70.4992 32.8704 70.8387 33.6288 71.1104 34.3871C71.4047 35.2247 71.6537 36.0736 71.9479 36.9111C72.7968 39.3446 73.9513 41.6422 76.8715 41.28C74.0192 46.6676 68.7561 50.5725 62.5197 51.5572V51.5346C62.4857 50.5159 62.5423 49.5086 62.6555 48.5012C62.7574 47.6184 62.8932 46.7469 62.9951 45.864C63.2441 43.623 63.1196 41.846 62.3612 39.7068C62.033 38.7673 61.3539 38.0317 60.5276 37.511C60.4144 37.4431 60.2447 37.3412 60.0409 37.2394C59.4863 37.6015 58.9317 37.9298 58.3432 38.2241C56.4643 39.1748 54.4609 39.6955 52.3444 39.7068C50.8164 39.7181 48.8017 39.5936 47.4209 38.8692C46.6852 38.4731 46.0626 37.8619 45.9721 37.0017C45.9042 36.4131 46.1532 35.8811 46.538 35.4397C46.6738 35.2926 46.8097 35.1454 46.9681 35.0209C47.036 34.9643 47.1379 34.8851 47.2058 34.8398L47.285 34.7946C47.2624 34.4097 47.2964 34.0023 47.5567 33.7985L47.5793 33.7872C47.2398 33.6854 46.9229 33.4816 46.7304 33.21C46.4588 32.8138 46.4927 32.2026 46.5833 31.6594L46.4588 31.5575C46.1871 31.3764 45.8929 31.0821 45.7005 30.8218C45.259 30.2106 45.1572 29.5089 45.4628 28.8184C45.8363 27.9922 46.6286 27.5394 47.5114 27.2904L47.5454 27.1999L47.2058 26.8151L47.568 27.1433C47.6359 26.9622 47.7378 26.7698 47.8396 26.6113C47.8849 26.5434 47.9302 26.4755 47.9868 26.4076C47.9528 26.3623 47.9302 26.3057 47.9189 26.2491C47.9189 26.2378 47.9189 26.2152 47.9189 26.2039C47.9189 26.1586 47.9076 26.102 47.9076 26.0454C47.9076 25.8756 47.9189 25.7172 47.9415 25.5474C48.0207 25.0607 48.2697 24.6306 48.7225 24.3929C49.0847 24.2005 49.5035 24.1213 49.8996 24.2118C50.0581 24.2458 50.2618 24.3137 50.3976 24.4155L50.4882 24.4835C51.156 24.1892 51.8803 23.9628 52.6047 23.9175C53.2725 23.8723 53.9629 23.8609 54.6194 23.9402C54.8344 23.9628 55.1061 24.0081 55.3211 24.076L55.8871 24.2571C55.8757 24.0873 55.8644 23.9175 55.8531 23.7478C55.8305 23.2045 55.8192 22.6159 55.8757 22.0613C55.9437 21.5293 56.0116 20.9861 56.0908 20.4541C56.17 19.99 56.2719 19.4467 56.419 18.9374C56.0908 18.9601 55.7512 18.9374 55.4117 18.8808C54.4949 18.6997 53.7479 18.1904 53.4649 17.2736C53.2385 16.5153 53.3291 15.9607 53.7366 15.3382C53.8384 15.8248 53.9742 16.1191 54.1553 16.3342C54.3364 16.5492 54.6873 16.6624 54.959 16.7077C55.0721 16.7303 55.1966 16.7416 55.3211 16.7303C55.5815 16.719 55.8418 16.6511 56.0795 16.5605L55.8305 16.2889C55.1514 15.5419 54.4836 14.7722 53.8384 13.9799C53.6573 13.7649 53.4876 13.5385 53.3291 13.3121C54.891 12.8028 56.5435 12.4859 58.2639 12.384C58.5695 12.8141 58.8525 13.2442 59.1241 13.697C59.4977 13.5612 59.8825 13.4706 60.2786 13.4253C60.6069 13.3914 60.9577 13.3914 61.286 13.4253C61.286 13.4253 61.286 13.4253 61.286 13.414L60.5955 12.7236L61.5689 12.8594C61.7613 12.882 61.999 12.9726 62.1801 13.0405C62.6668 13.2442 63.0969 13.5385 63.4817 13.8894C63.6742 14.0705 63.8439 14.2629 64.0024 14.4779C64.308 14.8628 64.5683 15.2816 64.806 15.7117C64.806 15.723 64.8173 15.723 64.8173 15.7343C64.8739 15.6211 64.9305 15.4966 64.9871 15.3834C65.2022 14.942 65.4172 14.5006 65.6436 14.0705C65.7568 13.8781 65.8699 13.6743 65.9831 13.4706Z" fill="#E3D520"/>
<path fill-rule="evenodd" clip-rule="evenodd" d="M76.9802 41.1183C73.7657 47.3435 67.3255 51.6332 59.878 51.8029C59.878 51.7237 59.8667 51.6332 59.8667 51.5539C59.8327 50.5353 59.8893 49.5279 60.0025 48.5206C60.1044 47.6377 60.2402 46.7662 60.3421 45.8834C60.5911 43.6423 60.4666 41.8766 59.7082 39.7261C59.38 38.7867 58.7009 38.051 57.8746 37.5304C57.569 37.338 56.7315 36.8965 56.3693 36.8739C55.826 36.8739 54.8187 36.4891 54.3659 36.2174C53.0982 35.4704 52.7926 34.3272 53.5963 33.0483C54.8073 31.1241 57.8973 29.6527 60.0138 29.0868C61.9719 28.5661 64.2469 28.419 66.1371 29.2905L66.2616 29.3471L66.3182 29.4716C66.737 30.3658 67.1558 31.2713 67.5519 32.1767C67.8688 32.9011 68.2084 33.6595 68.48 34.4178C68.7743 35.2554 69.0233 36.1042 69.3176 36.9418C70.1891 39.4432 71.3776 41.7861 74.4675 41.2768C75.2485 41.1409 76.0521 41.0617 76.8444 41.1296L76.9802 41.1183Z" fill="black"/>
<path fill-rule="evenodd" clip-rule="evenodd" d="M76.7873 41.4765C75.6555 43.5704 74.1501 45.4267 72.3618 46.9773C70.7546 48.3694 68.921 49.5126 66.9176 50.3389C64.8463 51.1877 62.594 51.6971 60.2397 51.7876C60.2397 51.7084 60.2284 51.6178 60.2284 51.5273C60.07 46.9886 61.7677 44.4646 60.0473 39.5863C59.2324 37.3 56.6971 36.4851 56.3462 36.4851C55.9953 36.4851 52.3055 35.7494 53.8788 33.2367C55.452 30.724 61.8583 27.7472 65.9555 29.6148C65.9555 29.6148 67.608 33.1122 68.0947 34.5157C69.2153 37.7188 70.0755 42.3593 74.501 41.6123C75.2706 41.4991 76.0516 41.4199 76.7873 41.4765Z" fill="#B99D85"/>
<path fill-rule="evenodd" clip-rule="evenodd" d="M65.4882 38.8201C65.4882 38.8201 65.3184 40.167 65.0694 40.7555C64.8204 41.3441 64.4922 41.8081 64.4922 41.8081C64.4922 41.8081 65.0694 41.4346 65.3411 40.6763C65.6014 39.9293 65.4882 38.8201 65.4882 38.8201Z" fill="black"/>
<path fill-rule="evenodd" clip-rule="evenodd" d="M65.8333 40.3873C65.8333 40.3873 65.5277 41.372 65.3126 41.8474C65.1089 42.3228 64.9844 42.5831 64.9844 42.5831C64.9844 42.5831 65.2787 42.3001 65.5843 41.6663C65.8785 41.0212 65.8333 40.3873 65.8333 40.3873Z" fill="black"/>
<path fill-rule="evenodd" clip-rule="evenodd" d="M57.8861 16.8319C57.1164 17.4544 56.143 17.9411 55.1244 17.7374C54.7622 17.6695 54.3095 17.477 54.0491 17.2054C53.7548 16.8998 53.4719 16.5942 53.1889 16.2773C52.5098 15.5303 51.842 14.7606 51.1969 13.9683C50.4612 13.0742 49.85 12.0442 49.352 10.9916C49.0011 10.2559 48.6729 9.46358 48.4352 8.68261C48.322 8.33173 48.2314 7.98086 48.1296 7.62999C47.9711 7.06407 47.824 6.49814 47.6882 5.93222L47.541 5.35498L48.1069 5.53608C48.5484 5.6719 49.0577 5.9775 49.4086 6.26046C49.9292 6.66792 50.4385 7.06407 50.9479 7.49417C51.9326 8.34305 52.8833 9.23721 53.8001 10.154C54.1963 10.5502 54.5585 10.9576 54.898 11.399C55.7243 12.4516 56.46 13.5948 57.1164 14.7719C57.4107 15.3039 57.7163 15.8698 57.9653 16.4244L58.0672 16.6621L57.8861 16.8319Z" fill="black"/>
<path fill-rule="evenodd" clip-rule="evenodd" d="M57.6699 16.5816C57.6699 16.5816 55.9155 12.7673 53.5613 10.4131C51.207 8.05885 49.8035 7.00624 49.2037 6.54218C48.6038 6.0668 48.0039 5.87439 48.0039 5.87439C48.0039 5.87439 48.4453 7.64007 48.7509 8.60214C49.0452 9.5642 49.9507 11.9411 51.456 13.7747C52.9614 15.6083 54.2857 16.9891 54.2857 16.9891C54.2857 16.9891 55.542 18.2907 57.6699 16.5816Z" fill="#B99D85"/>
<path fill-rule="evenodd" clip-rule="evenodd" d="M48.0938 6.22058C48.2409 6.77519 48.5352 7.90703 48.7502 8.60877C49.0445 9.57084 49.95 11.9477 51.4553 13.7813C52.9607 15.6149 54.2849 16.9957 54.2849 16.9957C54.2849 16.9957 54.5453 17.2561 55.0206 17.3919C54.3302 16.5317 53.3795 15.3546 52.938 14.8339C52.2023 13.9624 51.3308 12.8985 50.9234 11.6308C50.5159 10.3631 50.5725 9.69534 50.5725 9.69534C50.5725 9.69534 52.723 12.7853 52.9607 13.2607C53.1531 13.6455 55.0772 16.4864 55.745 17.4598C55.8243 17.4485 55.9148 17.4372 56.0053 17.4259L56.1978 15.6828C56.1978 15.6828 55.0546 14.1322 54.3529 12.9664C53.6624 11.8006 52.3834 10.2726 50.7875 9.12942C49.5878 8.2579 48.5125 7.12606 48.0938 6.22058Z" fill="#9E775C"/>
<path fill-rule="evenodd" clip-rule="evenodd" d="M55.6238 16.9863C55.6238 16.9863 55.0918 15.3791 54.1863 13.7492C53.2808 12.1194 52.7715 11.4516 52.1603 10.8404C51.5491 10.2292 50.0664 9.23315 50.0664 9.23315C50.0664 9.23315 50.2249 9.48216 50.3607 9.65194C50.4852 9.82171 50.5757 9.87831 50.5757 9.87831C50.5757 9.87831 51.1303 11.4176 51.3114 11.9949C51.4812 12.5721 52.0471 13.6134 52.5678 14.134C53.0884 14.6547 54.2316 16.0695 54.458 16.3864C54.6957 16.6807 54.9673 17.3145 55.6238 16.9863Z" fill="black"/>
<path fill-rule="evenodd" clip-rule="evenodd" d="M55.1973 16.7275C55.1181 16.5125 55.0275 16.2974 54.9483 16.0937C54.6427 15.3467 54.3031 14.611 53.907 13.8979C53.3411 12.8793 52.7638 11.8946 51.9376 11.057C51.6999 10.8193 51.4056 10.5929 51.134 10.3779C51.134 10.3779 51.1226 10.3666 51.1113 10.3666C51.1792 10.5477 51.2358 10.7288 51.3037 10.9099C51.4169 11.2268 51.5301 11.555 51.632 11.8832C51.8131 12.4831 52.3677 13.4452 52.8091 13.8866C53.126 14.2035 53.4316 14.577 53.7259 14.9166C53.9409 15.1656 54.1447 15.4146 54.3484 15.6749C54.4842 15.8447 54.62 16.0032 54.7446 16.1729C54.8351 16.2974 54.9143 16.4333 55.0049 16.5578C55.0728 16.637 55.1294 16.7049 55.1973 16.7275Z" fill="#F6C4B1"/>
<path fill-rule="evenodd" clip-rule="evenodd" d="M53.4266 26.2291C53.3926 25.9801 53.3586 25.7084 53.336 25.4594C53.2794 24.8935 53.2228 24.3276 53.2002 23.773C53.1776 23.2297 53.1662 22.6411 53.2228 22.0865C53.2907 21.5546 53.3586 21.0113 53.4379 20.4793C53.5737 19.6191 53.8001 18.4986 54.2754 17.7629C54.3207 17.6837 54.3773 17.6157 54.4452 17.5478C54.9659 17.0045 55.8261 16.9932 56.4712 17.3215C57.388 17.7855 57.7615 18.7702 57.7842 19.7436C57.8181 20.751 57.886 21.7809 57.671 22.7656C57.2296 24.7577 55.6676 25.799 53.8567 26.4894L53.4718 26.6365L53.4266 26.2291Z" fill="black"/>
<path fill-rule="evenodd" clip-rule="evenodd" d="M53.7475 26.1655C53.7475 26.1655 53.3853 23.5056 53.5551 22.1021C53.7248 20.71 53.9512 18.8764 54.5624 17.9143C55.1736 16.9522 57.392 17.2805 57.4712 19.7366C57.5392 22.1927 57.8561 24.6035 53.7475 26.1655Z" fill="#B99D85"/>
<path fill-rule="evenodd" clip-rule="evenodd" d="M53.5782 24.5316C53.5103 23.7166 53.4764 22.7772 53.5556 22.1207C53.6575 21.2832 53.782 20.2758 53.997 19.4043C54.1668 19.3024 54.3253 19.2232 54.4158 19.1893C54.7327 19.0761 55.0836 18.9629 55.1628 18.9629C55.2307 18.9742 55.4458 18.9742 55.4797 18.9742C55.5137 18.9742 56.3399 18.9063 56.7587 19.9816C56.7587 19.9816 56.5324 19.7891 56.0117 19.8344C55.4911 19.8797 55.0044 20.0608 54.7893 20.3098C54.5743 20.5588 54.529 20.9323 54.529 20.9323C54.529 20.9323 55.0383 20.2758 55.6156 20.3437C56.1928 20.4117 56.3286 20.7512 56.3286 20.7512C56.3286 20.7512 55.9438 20.4682 55.4911 20.6041C55.0496 20.7399 54.8006 21.1021 54.6648 21.3171C54.529 21.5322 54.9251 24.1015 54.9251 24.1015C54.9251 24.1015 54.3592 24.6108 53.5782 24.5316Z" fill="#9E775C"/>
<path fill-rule="evenodd" clip-rule="evenodd" d="M46.0206 37.6006C46.0206 37.6006 45.2397 35.6425 45.3642 33.6052C45.5 31.5679 43.1458 29.5759 44.006 28.693C44.8662 27.7989 47.8542 27.8781 48.8729 28.0705C49.8916 28.2516 55.9809 30.8662 58.6181 28.1724C61.2553 25.4786 61.6288 24.7768 61.6288 24.7768C61.6288 24.7768 64.1641 24.4146 62.7493 29.5872C61.3345 34.7597 56.6034 36.6499 54.7019 37.3516C52.7891 38.0421 47.2657 38.857 46.0206 37.6006Z" fill="#E30613"/>
<path fill-rule="evenodd" clip-rule="evenodd" d="M46.9914 33.5137C47.0479 33.4685 47.1045 33.4345 47.1951 33.4119C47.3535 33.3666 47.5233 33.344 47.6818 33.3213C47.9308 33.276 48.1798 33.2421 48.4288 33.2195C48.7118 33.1968 49.0287 33.1742 49.3116 33.2081C49.6512 33.2421 49.9341 33.4006 50.1379 33.6835C50.1718 33.7288 50.2058 33.7854 50.2397 33.842C50.3642 33.6156 50.534 33.4685 50.8736 33.3553C50.9641 33.3213 51.0886 33.31 51.1905 33.2987C51.349 33.276 51.4961 33.2647 51.6546 33.2534C52.062 33.2195 52.4695 33.2081 52.8769 33.1855C53.5447 33.1629 54.2012 33.1402 54.869 33.1289C55.118 33.1289 55.367 33.1176 55.6047 33.095C56.1253 33.0497 56.6573 32.9705 57.1666 32.8346C57.5854 32.7214 58.0382 32.563 58.389 32.314C58.8418 31.9857 59.3398 31.6915 59.8604 31.4877C60.0302 31.4198 60.2566 31.3519 60.4377 31.3293L60.6867 31.3066L60.698 31.5556C60.698 31.6915 60.698 31.8386 60.6754 31.9857C60.6414 32.3253 60.5848 32.6762 60.4943 33.0044C60.2226 34.0118 59.6907 34.9059 58.8418 35.5397C58.3211 35.9359 57.7099 36.2641 57.1214 36.5358C56.3291 36.898 55.4915 37.2036 54.6426 37.4526C54.2578 37.5657 53.8617 37.6789 53.4768 37.7808L53.341 37.8148L53.2505 37.7016C53.0807 37.4978 52.8883 37.2036 52.7864 36.9545C52.7751 36.9093 52.7524 36.864 52.7411 36.8187C52.7185 36.8753 52.6845 36.9319 52.6506 36.9998C52.56 37.1809 52.4129 37.4526 52.2658 37.5884L52.2092 37.645L50.6925 37.8374L50.6133 37.7355C50.4322 37.5092 50.2511 37.1922 50.1379 36.9319C50.1266 36.898 50.1039 36.8527 50.0926 36.8187C49.9794 37.0564 49.8436 37.2715 49.6738 37.4299C49.5606 37.5318 49.1985 37.894 49.0513 37.9392L48.9721 37.9619L48.8929 37.9392C48.7231 37.8827 48.5646 37.8261 48.4062 37.7695C48.293 37.7242 48.1798 37.6902 48.0779 37.645C47.9761 37.5997 47.8402 37.5544 47.795 37.4412C47.7497 37.3507 47.6931 37.2601 47.6478 37.1696C47.5799 37.0338 47.512 36.898 47.4554 36.7508C47.3988 36.9319 47.3196 37.1017 47.2404 37.2488C46.8329 37.9732 46.0972 38.0411 45.5992 37.362C45.5086 37.2262 45.4181 37.0791 45.3389 36.9432C45.1578 36.6376 44.9993 36.3094 44.8748 35.9812C44.8069 35.8001 44.7616 35.619 44.7277 35.4379C44.6484 34.9965 44.5013 34.1476 44.9201 33.8193C44.9653 33.7854 44.9993 33.7514 45.0446 33.7175C45.2709 33.5251 45.5539 33.4571 45.8369 33.4006C46.0632 33.3553 46.3349 33.2987 46.5726 33.31C46.7197 33.2874 46.9121 33.3326 46.9914 33.5137Z" fill="black"/>
<path fill-rule="evenodd" clip-rule="evenodd" d="M45.7645 37.2054C45.7645 37.2054 45.0854 36.2434 44.927 35.3718C44.7685 34.5116 44.8477 34.1268 45.0288 33.9797C45.2212 33.8325 45.2325 33.7307 45.8437 33.6062C46.4549 33.4703 46.7379 33.493 46.7832 33.6288C46.8285 33.7646 46.9077 34.3306 46.9643 34.5796C47.0209 34.8286 47.2472 35.3266 47.2472 35.3266C47.2472 35.3266 47.1227 34.8172 47.0888 34.3985C47.0548 33.9797 46.9982 33.708 47.2586 33.6401C47.5076 33.5722 48.6394 33.3685 49.2846 33.4364C49.9297 33.5043 50.1221 34.0702 50.1221 34.3192C50.1221 34.5682 50.1674 35.3605 50.1674 35.3605C50.1674 35.3605 50.224 34.6022 50.3145 34.2853C50.4051 33.9684 50.4843 33.7194 50.937 33.5835C51.3898 33.4364 54.8532 33.3685 54.8532 33.3685C54.8532 33.3685 57.3093 33.3685 58.5091 32.5083C59.7089 31.6481 60.4445 31.5688 60.4445 31.5688C60.4445 31.5688 60.5238 33.9684 58.6902 35.3605C56.8566 36.7414 53.4045 37.5563 53.4045 37.5563C53.4045 37.5563 53.0989 37.1941 52.9857 36.8772C52.8725 36.5603 52.7593 36.1189 52.7593 36.1189C52.7593 36.1189 52.6122 36.5037 52.4198 36.8998C52.2274 37.2847 52.0802 37.4318 52.0802 37.4318L50.7673 37.5903C50.7673 37.5903 50.5069 37.262 50.3145 36.8319C50.1221 36.4018 50.0429 36.0849 50.0429 36.0849C50.0429 36.0849 49.9297 36.8206 49.477 37.2507C49.0242 37.6808 48.9337 37.7148 48.9337 37.7148C48.9337 37.7148 47.9943 37.3979 47.9716 37.3526C47.949 37.296 47.7452 36.9791 47.5528 36.4811C47.3604 35.983 47.3265 35.9265 47.3265 35.9265C47.3265 35.9265 47.3151 36.5603 46.9982 37.1375C46.7039 37.6921 46.1607 37.7487 45.7645 37.2054Z" fill="white"/>
<path fill-rule="evenodd" clip-rule="evenodd" d="M44.6646 29.5304C44.7325 29.3153 44.9475 29.0889 45.1173 28.9531C45.6606 28.5457 46.4189 28.4551 47.0754 28.4891L47.2452 28.5004L47.2904 28.6702C47.3357 28.8286 47.3584 29.021 47.3697 29.1908C47.4036 29.587 47.381 29.9944 47.2904 30.3906C47.1999 30.798 47.1207 31.2168 47.0414 31.6243C46.9396 32.1676 46.8377 32.7108 46.7472 33.2655L46.7358 33.3447L46.6793 33.4013C46.4529 33.605 46.102 33.7748 45.8077 33.8427C45.2192 33.9898 44.4156 33.7295 44.0647 33.2202C43.6799 32.6543 43.9062 31.6356 44.076 31.0244C44.1213 30.8773 44.1666 30.7188 44.2231 30.5717C44.3477 30.2208 44.5061 29.8699 44.6646 29.5304Z" fill="black"/>
<path fill-rule="evenodd" clip-rule="evenodd" d="M47.057 28.7245C47.057 28.7245 47.2494 29.4715 47.057 30.3317C46.8646 31.1919 46.5137 33.2179 46.5137 33.2179C46.5137 33.2179 46.1968 33.5009 45.7441 33.6141C45.2913 33.7273 44.5669 33.5462 44.25 33.0821C43.9331 32.6294 44.1142 31.7239 44.284 31.0788C44.4651 30.4449 44.8725 29.6187 44.8725 29.6187C44.8725 29.6187 45.1555 28.634 47.057 28.7245Z" fill="white"/>
<path fill-rule="evenodd" clip-rule="evenodd" d="M48.6956 28.7963C49.0804 28.7057 49.4766 28.7623 49.8388 28.9321C50.0651 29.0339 50.3594 29.2377 50.4952 29.464C50.665 29.7583 50.6763 30.5167 50.6763 30.8675C50.6763 31.558 50.7103 33.052 50.3594 33.6066C50.2462 33.7877 50.1217 33.9461 49.9519 34.082C49.4992 34.4442 48.8767 34.4215 48.3334 34.3536C47.8693 34.2857 46.7714 34.0933 46.6017 33.5387C46.5677 33.4029 46.5677 33.1878 46.579 33.052C46.5904 32.8256 46.6017 32.5879 46.6243 32.3616C46.6583 32.0673 46.6922 31.7391 46.7601 31.4561C46.828 31.1844 46.8959 30.9015 46.9752 30.6298C47.0657 30.3129 47.2015 29.9168 47.3826 29.6338C47.609 29.283 48.2655 28.9547 48.6503 28.8076L48.6616 28.7963H48.6956Z" fill="black"/>
<path fill-rule="evenodd" clip-rule="evenodd" d="M48.7475 29.0222C48.7475 29.0222 47.8307 29.3844 47.593 29.7692C47.344 30.1427 47.1289 31.0029 47.0044 31.5122C46.8799 32.0216 46.778 33.2553 46.846 33.4703C46.9139 33.6967 47.344 33.9683 48.3853 34.1155C49.4266 34.2626 49.8453 34.0136 50.1736 33.4816C50.5018 32.9497 50.4565 31.0368 50.4565 30.8671C50.4565 30.686 50.4452 29.8258 50.2981 29.5768C50.1396 29.3164 49.4832 28.8524 48.7475 29.0222Z" fill="#FDE100"/>
<path fill-rule="evenodd" clip-rule="evenodd" d="M48.7546 29.0222C48.7546 29.0222 48.0642 29.2938 47.7246 29.622C48.2792 29.622 49.1621 29.7013 49.4903 30.1766C49.9317 30.8105 49.7619 33.0629 48.9923 34.1494C49.6035 34.1268 49.9204 33.8891 50.1807 33.4816C50.509 32.9497 50.4637 31.0368 50.4637 30.8671C50.4637 30.686 50.4524 29.8258 50.3052 29.5768C50.1468 29.3164 49.4903 28.8524 48.7546 29.0222Z" fill="#FAC200"/>
<path fill-rule="evenodd" clip-rule="evenodd" d="M50.1915 33.7187C50.2141 33.3226 50.2368 32.9151 50.2707 32.519C50.2934 32.2926 50.3047 32.0776 50.3273 31.8512C50.3387 31.6927 50.3613 31.523 50.3952 31.3645C50.4971 30.9118 50.5537 30.6628 50.848 30.2893C51.0291 30.0516 51.3347 29.8252 51.629 29.7347C52.093 29.5536 52.6023 29.497 53.0551 29.712C53.3494 29.8478 53.6097 30.0968 53.7342 30.4024C53.7795 30.5156 53.8134 30.6628 53.8474 30.8212C53.9945 30.6288 54.2096 30.4364 54.3907 30.3119C54.651 30.1421 54.9679 30.0063 55.2848 30.0629C55.7602 30.1534 56.2016 30.3685 56.4506 30.7986C56.5298 30.9344 56.5978 31.1042 56.6543 31.2626C56.8354 30.9231 57.0618 30.4817 57.3221 30.2666C57.6956 29.961 58.3295 30.0063 58.6464 30.3685C58.6917 30.4138 58.7369 30.4704 58.7709 30.5383C58.8049 30.3911 58.8388 30.2327 58.8841 30.0855C58.9294 29.9271 58.9746 29.7686 59.0199 29.6102C59.0425 29.5309 59.0652 29.4404 59.0991 29.3498C59.1557 29.214 59.3708 29.1008 59.4953 29.0442C59.7217 28.9537 59.9707 28.9197 60.2083 28.9876C60.4121 29.0329 60.6045 29.1235 60.7516 29.2819C60.8535 29.3838 60.9101 29.497 60.9893 29.6215C61.1704 29.8818 61.3062 30.5156 61.3402 30.8439C61.3515 30.9797 61.3741 31.1155 61.3855 31.2626C61.4081 31.489 61.4081 31.7267 61.3855 31.9644C61.3175 32.5982 61.0572 33.1641 60.5592 33.5829C60.2763 33.8206 59.8009 34.1828 59.3934 34.1262C59.2576 34.1036 59.1557 34.047 59.0878 33.9791C58.9973 34.0696 58.8275 34.1488 58.7369 34.2054C58.3974 34.3752 57.3787 34.5563 56.9939 34.5563C56.7449 34.5563 56.4959 34.4997 56.3374 34.3526C56.2922 34.4544 56.2129 34.545 56.1224 34.6016C55.93 34.7374 55.6923 34.7827 55.4659 34.794C55.2056 34.8053 54.9226 34.794 54.6623 34.7714C54.4359 34.7487 54.2096 34.7261 53.9832 34.6808C53.8134 34.6469 53.5644 34.5903 53.4852 34.3979C53.4739 34.3639 53.4625 34.3299 53.4512 34.2847C53.372 34.3865 53.2814 34.4771 53.2022 34.5224C53.0211 34.6129 52.7382 34.6129 52.5344 34.6129C52.127 34.6016 51.7082 34.5563 51.312 34.511C50.9951 34.4771 50.5311 34.3865 50.316 34.1375C50.2141 34.0017 50.1576 33.8546 50.1915 33.7187Z" fill="black"/>
<path fill-rule="evenodd" clip-rule="evenodd" d="M51.6909 29.9503C51.6909 29.9503 51.2835 30.0861 51.0232 30.437C50.7515 30.7878 50.7062 30.9802 50.6157 31.4217C50.5138 31.8631 50.412 33.7646 50.412 33.7646C50.412 33.7646 50.2761 34.1381 51.3288 34.2626C52.3814 34.3871 52.8907 34.3984 53.0944 34.2966C53.2982 34.1947 53.6151 33.5382 53.6151 33.5382C53.6151 33.5382 53.6377 34.1381 53.6943 34.3079C53.7622 34.4776 54.9393 34.5795 55.4374 34.5569C55.9354 34.5342 56.1165 34.3079 56.1278 34.1834C56.1391 34.0589 56.1617 33.6514 56.1844 33.2553C56.1957 32.8478 56.1957 32.8138 56.1957 32.8138C56.1957 32.8138 56.3655 33.5835 56.3655 33.8891C56.3655 34.1947 56.6145 34.3192 56.9767 34.3192C57.3389 34.3192 58.3349 34.1268 58.6065 33.991C58.8782 33.8551 58.9121 33.7985 58.9121 33.7985C58.9121 33.7985 59.0253 33.5948 59.014 33.1987C58.9914 32.8138 58.9914 32.678 58.9914 32.678C58.9914 32.678 59.1272 32.9836 59.1724 33.2326C59.2064 33.4816 59.1951 33.7419 59.1951 33.7419C59.1951 33.7419 59.3649 34.2626 60.3835 33.4024C61.4022 32.5422 61.1192 31.1953 61.0853 30.8671C61.0513 30.5388 60.9042 29.9503 60.7683 29.7579C60.6325 29.5541 60.542 29.3278 60.1119 29.2259C59.6931 29.124 59.2969 29.3957 59.2743 29.4523C59.2517 29.5088 58.9687 30.4256 58.9234 30.7765C58.8895 31.1274 58.9121 31.3651 58.9121 31.3651C58.9121 31.3651 58.6631 30.8331 58.4141 30.5388C58.1651 30.2559 57.6784 30.2445 57.4181 30.4596C57.1578 30.6746 56.8635 31.2972 56.739 31.5235C56.6145 31.7499 56.5805 31.9423 56.5805 31.9423C56.5805 31.9423 56.3655 31.2066 56.207 30.9237C56.0486 30.6407 55.743 30.403 55.1997 30.3011C54.6677 30.1993 54.0565 30.8331 53.898 31.1047C53.7396 31.3764 53.649 31.7046 53.649 31.7046C53.649 31.7046 53.6264 30.8671 53.4793 30.5049C53.3548 30.12 52.7662 29.5202 51.6909 29.9503Z" fill="white"/>
<path fill-rule="evenodd" clip-rule="evenodd" d="M55.5499 20.875C56.3988 20.8411 57.0892 21.5994 57.0892 22.5728C57.1005 23.5348 56.4214 24.3498 55.5725 24.3724C54.7236 24.4064 54.0332 23.648 54.0332 22.6746C54.0332 22.5275 54.0445 22.3804 54.0785 22.2445C54.0785 22.2445 54.1577 21.3391 54.452 20.8297C54.7576 20.3204 55.2443 20.3091 55.3688 20.2865C55.4933 20.2638 55.7762 20.2865 55.98 20.3996C56.1837 20.5015 56.195 20.6147 56.195 20.6147C56.195 20.6147 55.8894 20.3544 55.4027 20.4336C54.916 20.5128 54.6897 20.7505 54.5878 20.9882C54.5199 21.1467 54.4746 21.3164 54.4633 21.4183C54.7463 21.1014 55.1311 20.8976 55.5499 20.875Z" fill="black"/>
<path fill-rule="evenodd" clip-rule="evenodd" d="M55.5576 21.0667C56.282 21.0441 56.8819 21.7232 56.8932 22.5834C56.9045 23.4436 56.316 24.168 55.5916 24.1906C54.8672 24.2132 54.2673 23.5341 54.256 22.6739C54.2447 21.8137 54.8219 21.0893 55.5576 21.0667Z" fill="white"/>
<path fill-rule="evenodd" clip-rule="evenodd" d="M55.6982 21.7346C56.117 21.7233 56.4565 22.0968 56.4678 22.5835C56.4792 23.0589 56.1396 23.4663 55.7208 23.4777C55.302 23.489 54.9625 23.1155 54.9512 22.6288C54.9512 22.1534 55.2907 21.7459 55.6982 21.7346Z" fill="black"/>
<path fill-rule="evenodd" clip-rule="evenodd" d="M55.7662 22.2175C55.8794 22.2175 55.9813 22.342 55.9926 22.5118C55.9926 22.6703 55.9021 22.8061 55.7889 22.8061C55.6757 22.8061 55.5738 22.6816 55.5625 22.5118C55.5625 22.342 55.653 22.2175 55.7662 22.2175Z" fill="white"/>
<path fill-rule="evenodd" clip-rule="evenodd" d="M66.0378 23.8599L65.404 23.8485C65.5738 23.9504 65.7322 24.0636 65.8794 24.2107C66.2189 24.539 66.4793 24.9464 66.683 25.3539C67.0791 26.1462 67.2489 27.1535 67.2263 28.0364C67.181 29.4738 66.6377 30.7754 65.7549 31.896C64.8154 33.0618 63.5591 33.9446 62.2009 34.5445C61.7481 34.7482 61.2841 34.9293 60.8087 35.0651C60.6163 35.1217 60.4239 35.1783 60.2315 35.2123L59.8919 35.2802C59.4958 35.7103 59.0883 36.0838 58.7261 36.3102C58.5677 36.4007 58.4205 36.5139 58.2734 36.6158C58.047 36.7742 57.832 36.9214 57.6056 37.0798C56.9831 37.4986 56.3492 37.8834 55.6815 38.2117C53.8026 39.1624 51.7992 39.6831 49.6827 39.6944C48.1547 39.7057 46.14 39.5812 44.7591 38.8568C44.0235 38.4607 43.4009 37.8495 43.3104 36.9893C43.2425 36.4007 43.4915 35.8687 43.8763 35.4273C44.0121 35.2802 44.148 35.133 44.3064 35.0085C44.363 34.952 44.4762 34.8727 44.5441 34.8274L44.8384 34.6463C44.9742 35.3707 45.144 35.9706 45.4949 36.5365L45.608 36.6271C45.6307 36.6384 45.642 36.6384 45.6533 36.6384C45.9363 36.7176 46.2305 36.7855 46.5135 36.8534C46.6041 36.8761 46.6946 36.8874 46.7852 36.91C46.9776 36.944 47.1813 36.9666 47.385 36.9893C48.0189 37.0685 48.664 37.1025 49.3092 37.1138C51.1314 37.1364 53.0216 36.91 54.7533 36.3102C57.266 35.4386 59.4392 34.137 60.6276 31.6696C60.7861 31.3414 60.9219 30.9905 61.0464 30.6509C61.4086 29.5983 61.6236 28.4665 61.7029 27.346C61.7029 27.3233 61.7029 27.3007 61.7029 27.278C61.7029 27.2894 61.7029 27.2894 61.6916 27.3007C61.4086 28.342 60.854 29.2814 59.9825 29.9266C58.3073 31.1829 56.3153 31.3074 54.3346 30.9113C53.8592 30.8207 53.3838 30.6849 52.9084 30.5604C52.3086 30.4019 51.72 30.2322 51.1201 30.0624C50.5882 29.9152 50.0562 29.7794 49.5129 29.6436C49.0828 29.5417 48.6301 29.4399 48.1886 29.3833C47.4869 29.2927 46.7399 29.2814 46.0381 29.3833C45.7325 29.4285 45.3817 29.4965 45.0534 29.621L44.8157 29.87C44.7139 30.0284 44.5894 30.2322 44.5215 30.4132C44.4083 30.7188 44.3064 31.0358 44.2159 31.3527L44.0914 31.7601L43.8084 31.5338C43.5368 31.3527 43.2425 31.0584 43.0501 30.7981C42.6086 30.1869 42.5068 29.4851 42.8124 28.7947C43.1859 27.9685 43.9782 27.5157 44.861 27.2667L44.9063 27.1422C44.9742 26.9498 45.0874 26.7461 45.1893 26.5876C45.2345 26.5197 45.2798 26.4518 45.3364 26.3839C45.3024 26.3386 45.2798 26.282 45.2685 26.2254C45.2685 26.2141 45.2685 26.1915 45.2685 26.1802C45.2685 26.1349 45.2572 26.0783 45.2572 26.0217C45.2572 25.8519 45.2685 25.6935 45.2911 25.5237C45.3703 25.037 45.6194 24.6069 46.0608 24.3805C46.423 24.1881 46.8417 24.1089 47.2492 24.1994C47.4077 24.2334 47.6114 24.3013 47.7472 24.4032L47.8378 24.4711C48.5056 24.1768 49.2299 23.9617 49.9543 23.9051C50.6221 23.8599 51.3125 23.8485 51.969 23.9278C52.1841 23.9504 52.4557 23.9957 52.6707 24.0636L53.3272 24.2673C53.3725 24.2786 53.4178 24.2787 53.463 24.29L53.7573 24.2221C54.3912 24.0636 55.3532 23.6901 55.8173 23.2147C56.3606 22.6601 56.6096 21.6528 56.6209 20.8944C56.6209 20.5549 56.5869 20.2153 56.5077 19.8984C56.3945 19.4909 56.1681 19.1514 55.7946 18.9477C55.6475 18.8684 55.4325 18.7892 55.2627 18.7779L54.7533 18.7439C54.1082 18.925 53.4404 18.9929 52.7726 18.8571C51.8558 18.676 51.0975 18.1667 50.8258 17.2499C50.5995 16.4916 50.69 15.9369 51.0975 15.3144C51.1994 15.8011 51.3352 16.0954 51.5163 16.3105C51.6974 16.5255 52.0482 16.6387 52.3199 16.684C52.4444 16.7066 52.5576 16.7179 52.6821 16.7066C53.1688 16.684 53.6555 16.4576 54.0856 16.2312C54.6288 15.9256 55.1269 15.5748 55.6588 15.2578C55.9305 15.0994 56.2247 14.9409 56.519 14.8164C56.4624 14.8164 56.4058 14.8277 56.3492 14.8391C56.0323 14.8843 55.6928 14.9522 55.3872 15.0428L53.9837 15.4276L55.0816 14.4769C55.2853 14.2958 55.5683 14.126 55.806 13.9902C56.3719 13.6846 56.9944 13.4695 57.6396 13.4129C57.9678 13.379 58.3187 13.379 58.6469 13.4129C58.6469 13.4129 58.6469 13.4129 58.6356 13.4129L57.9451 12.7225L58.9072 12.8583C59.0996 12.881 59.3373 12.9715 59.5184 13.0394C59.9938 13.2432 60.4465 13.5374 60.82 13.8883C61.0124 14.0694 61.1822 14.2618 61.3407 14.4769C61.6463 14.8617 61.9066 15.2805 62.1443 15.7106C62.1443 15.7219 62.1556 15.7219 62.1556 15.7332C62.2122 15.62 62.2688 15.4955 62.3254 15.3823C62.5404 14.9409 62.7555 14.4995 62.9819 14.0694C63.1856 13.6733 63.4006 13.2884 63.6383 12.9149C63.8307 12.6093 64.0571 12.2811 64.3174 12.0321C64.657 11.7152 65.121 11.4209 65.5172 11.1832C66.0605 10.855 66.6264 10.538 67.2036 10.2438C68.0073 9.82498 68.8448 9.41752 69.6824 9.05533C70.2709 8.80632 70.9048 8.546 71.516 8.38754C71.8442 8.29699 72.3535 8.18381 72.6365 8.43281C72.9647 8.72709 72.727 9.31565 72.5799 9.64389C72.3196 10.2098 71.9574 10.7871 71.5839 11.2964C71.1311 11.9189 70.6218 12.5301 70.1012 13.1073C69.4107 13.8544 68.675 14.5674 67.8714 15.2012C67.3281 15.6314 66.7396 16.0275 66.1284 16.3557C65.5511 16.6613 64.9399 17.0122 64.3853 17.397L64.3514 17.5668C64.2948 17.8158 64.2495 18.0761 64.2156 18.3365C64.125 18.8911 64.0458 19.457 64.0005 20.0229C63.9552 20.5662 63.9213 21.3924 64.0797 21.9131C64.4193 22.977 65.1324 23.475 66.0378 23.8599Z" fill="black"/>
<path fill-rule="evenodd" clip-rule="evenodd" d="M62.1738 16.4858C62.1738 16.4858 61.4946 14.9918 60.6118 14.1656C59.729 13.328 58.8801 13.2148 58.8801 13.2148C58.8801 13.2148 59.2876 13.6223 59.4121 13.826C59.5366 14.0297 59.5252 14.0976 59.5252 14.0976C59.5252 14.0976 59.0499 13.6336 57.669 13.7694C56.2768 13.9052 55.3035 14.7541 55.3035 14.7541C55.3035 14.7541 56.175 14.5164 56.7862 14.5051C57.3974 14.4938 57.7143 14.9239 57.7143 14.9239C57.7143 14.9239 57.0691 14.822 55.8354 15.569C54.6017 16.3161 53.4699 17.2555 52.2701 17.0404C51.0817 16.8254 51.093 16.135 51.093 16.135C51.093 16.135 50.6742 18.1383 52.8473 18.5798C55.0318 19.0212 57.137 17.131 57.6916 16.7122C58.2576 16.3047 59.0612 15.9991 59.8195 16.0218C60.5779 16.0444 60.8382 16.3387 60.8382 16.3387C60.8382 16.3387 60.1138 16.0557 59.0838 16.35C58.0538 16.6443 57.8275 16.9612 57.4087 17.2668C56.9899 17.5724 56.5485 17.9006 56.0505 18.1383C55.5525 18.376 55.2921 18.4892 55.2921 18.4892C55.2921 18.4892 56.4806 18.5571 56.8314 19.8587C57.1823 21.1604 56.7862 22.7563 56.0618 23.492C55.3487 24.2277 53.8434 24.5899 53.8434 24.5899C53.8434 24.5899 54.4319 25.0426 54.4772 25.6425C54.5225 26.231 54.149 26.6045 54.149 26.6045C54.149 26.6045 54.4659 25.4387 53.9679 24.9973C53.4812 24.5559 53.0737 24.5672 52.4399 24.7483C51.8061 24.9294 51.0251 25.3935 51.0251 25.3935C51.0251 25.3935 51.1156 25.1558 51.4778 24.8955C51.84 24.6464 52.587 24.4201 52.587 24.4201C52.587 24.4201 51.7268 24.1484 49.9838 24.2729C48.2407 24.3974 46.5882 25.5859 46.5882 25.5859C46.5882 25.5859 46.8146 25.2576 47.1202 25.02C47.4258 24.7823 47.5729 24.7257 47.5729 24.7257C47.5729 24.7257 47.0183 24.3182 46.2261 24.7257C45.4451 25.1331 45.6035 26.2537 45.6035 26.2537L46.011 26.1292C46.011 26.1292 45.6375 26.5819 45.479 26.8196C45.3206 27.0573 45.23 27.3063 45.23 27.3063C45.23 27.3063 46.5317 27.012 47.9125 27.1591C49.2934 27.3063 50.0743 27.7364 50.0743 27.7364C50.0743 27.7364 48.4445 27.3629 47.1315 27.3742C45.8186 27.3855 43.7473 27.6119 43.1361 28.9927C42.5136 30.3736 44.0076 31.3243 44.0076 31.3243C44.0076 31.3243 44.2227 30.6565 44.3246 30.3849C44.4264 30.1133 44.6528 29.7624 44.6528 29.7624C44.6528 29.7624 44.3472 29.9095 44.1095 30.0793C43.8718 30.2491 43.8039 30.3623 43.8039 30.3623C43.8039 30.3623 43.7247 30.1359 44.4491 29.6492C45.1734 29.1625 46.6675 28.9361 48.2634 29.1399C49.8706 29.3436 53.0511 30.3849 54.4206 30.6679C55.7901 30.9395 57.9407 31.1432 59.8082 29.7397C61.6757 28.3476 61.5965 25.8802 61.5965 25.8802C61.5965 25.8802 61.3588 25.9028 61.1664 26.0613C60.9627 26.2197 60.9287 26.3895 60.9287 26.3895C60.9287 26.3895 60.8269 26.0047 61.472 25.6991C62.1172 25.3935 63.034 26.1065 63.034 26.1065C63.034 26.1065 62.7623 26.016 62.502 25.9481C62.2303 25.8802 62.0719 25.9254 62.0719 25.9254C62.0719 25.9254 62.2417 28.3363 61.3701 30.8263C60.5099 33.3164 58.8009 35.3311 54.8734 36.6893C50.9458 38.0475 46.8033 37.3344 46.4524 37.2439C46.1016 37.1533 45.2074 36.9722 44.8226 36.7119C44.4491 36.4629 44.4943 36.2139 44.4943 36.2139C44.4943 36.2139 44.6302 36.361 44.8112 36.4855C44.9923 36.6101 45.2866 36.7459 45.2866 36.7459C45.2866 36.7459 44.9471 36.0441 44.8565 35.7159C44.766 35.3877 44.7094 35.1839 44.7094 35.1839C44.7094 35.1839 43.5323 35.9536 43.6568 37.0062C43.7699 38.0588 44.9358 39.451 49.7008 39.4283C54.4659 39.4057 57.5785 36.7006 58.5745 36.0894C59.5818 35.4782 60.9853 33.5314 61.6871 32.3996C62.3775 31.2677 62.6718 30.566 62.6718 30.566C62.6718 30.566 62.3435 31.6978 61.8229 32.6146C61.3136 33.5314 60.193 34.9462 60.193 34.9462C60.193 34.9462 63.498 34.2785 65.524 31.7318C67.5613 29.1851 66.9388 26.5593 66.4295 25.5406C65.9202 24.5219 65.4335 24.239 65.026 24.0126C64.6185 23.7862 63.996 23.7636 63.996 23.7636C63.996 23.7636 64.3582 23.6278 64.6299 23.6391C64.9015 23.6504 65.1166 23.7862 65.1166 23.7862C65.1166 23.7862 64.2111 23.3675 63.8036 22.0545C63.3961 20.7416 64.0639 17.5385 64.0639 17.5385L63.2716 18.0025C63.2716 18.0025 63.6565 17.3574 66.0107 16.1123C68.3649 14.856 70.4702 12.3659 71.353 11.1549C72.2245 9.94378 72.6773 8.93644 72.4509 8.74402C72.2245 8.55161 71.353 8.78929 69.8363 9.42313C68.331 10.057 65.4221 11.5397 64.5733 12.332C63.7017 13.0903 62.5925 15.7275 62.1738 16.4858Z" fill="#B99D85"/>
<path fill-rule="evenodd" clip-rule="evenodd" d="M62.1592 16.4448C62.0687 16.2411 61.4236 14.9281 60.6199 14.1585L60.6086 14.1472C59.7258 13.3096 58.8769 13.1964 58.8769 13.1964C58.8769 13.1964 59.2844 13.6039 59.4089 13.8076C59.5334 14.0113 59.522 14.0793 59.522 14.0793C59.522 14.0793 59.0467 13.6152 57.6658 13.751C57.2923 13.785 56.9528 13.8755 56.6585 13.9774C56.5453 14.0113 56.4434 14.0566 56.3529 14.1019C55.9454 14.283 55.6285 14.4867 55.4587 14.6112C55.3569 14.6904 55.3003 14.7357 55.3003 14.7357C55.3003 14.7357 55.3795 14.7131 55.504 14.6791C55.753 14.6225 56.1944 14.5207 56.5793 14.498C56.6472 14.498 56.7151 14.4867 56.7717 14.4867C56.8396 14.4867 56.8962 14.4867 56.9528 14.498C57.4395 14.5659 57.6998 14.9055 57.6998 14.9055C57.6998 14.9055 57.53 14.8829 57.2018 14.9508C57.1112 14.9734 56.998 14.996 56.8735 15.0413C56.6358 15.1205 56.3529 15.2451 56.0133 15.4261C55.9454 15.4601 55.8775 15.5054 55.8096 15.5506C55.6059 15.6752 55.4135 15.7997 55.221 15.9242C55.1305 15.9808 55.0286 16.0487 54.9381 16.1053C54.9154 16.1279 54.8815 16.1392 54.8588 16.1618C54.8249 16.1845 54.7909 16.2071 54.757 16.2184C54.6664 16.275 54.5646 16.3316 54.474 16.3882C54.4061 16.4222 54.3495 16.4674 54.2816 16.5014C54.1797 16.558 54.0666 16.6146 53.9647 16.6712C53.8628 16.7278 53.761 16.773 53.6478 16.8183C53.1724 17.022 52.7083 17.1239 52.233 17.0334C51.0445 16.8183 51.0558 16.1279 51.0558 16.1279C51.0558 16.1279 50.6371 18.1313 52.8102 18.5727C53.1611 18.6406 53.512 18.6519 53.8515 18.618C53.976 18.6066 54.1005 18.584 54.225 18.5614C54.9947 18.4142 55.7191 18.052 56.2963 17.6898C56.3189 17.6785 56.3416 17.6559 56.3642 17.6446C56.4661 17.5767 56.5679 17.5087 56.6698 17.4408C57.0659 17.1692 57.3829 16.9089 57.5753 16.7617C57.6092 16.7391 57.6319 16.7165 57.6545 16.7051C58.2204 16.2977 59.024 15.9921 59.7824 16.0147C60.337 16.026 60.6199 16.1958 60.7444 16.275C60.9482 16.3203 61.084 16.3429 61.084 16.3429C61.084 16.3429 60.7331 15.9694 60.4162 15.7317C60.0993 15.4941 59.4428 15.279 59.4428 15.279C59.4428 15.279 60.303 15.3469 60.9142 15.6525C61.5481 15.9581 62.1592 16.4448 62.1592 16.4448Z" fill="#525251"/>
<path fill-rule="evenodd" clip-rule="evenodd" d="M58 18.9226C58 18.9226 58.4527 17.9605 60.1392 17.8474C61.8143 17.7342 62.1086 18.2095 62.4482 18.7868C62.7764 19.3753 62.799 20.145 62.6858 20.5298C62.5727 20.926 62.3236 21.0618 62.3236 21.0618C62.3236 21.0618 61.1805 19.613 60.2297 19.2395C59.2677 18.8773 58.8262 18.7868 58 18.9226Z" fill="#9E775C"/>
<path fill-rule="evenodd" clip-rule="evenodd" d="M53.9786 25.0136C53.9673 25.0023 53.956 24.9909 53.9446 24.9796C53.673 24.7306 53.424 24.6288 53.1523 24.6174C53.2316 24.7759 53.4466 25.0589 53.9786 25.0136Z" fill="#9E775C"/>
<path fill-rule="evenodd" clip-rule="evenodd" d="M56.6144 17.8029C56.4333 17.916 56.2409 18.0292 56.0372 18.1311C55.5392 18.3688 55.2788 18.482 55.2788 18.482C55.2788 18.482 56.4673 18.5499 56.8181 19.8515C57.169 21.1531 56.7729 22.749 56.0485 23.4847C55.3354 24.2204 53.8301 24.5826 53.8301 24.5826C53.8301 24.5826 54.0338 24.7411 54.2036 24.9901C54.9506 24.809 55.924 24.0959 56.4786 23.4847C57.0785 22.8283 57.3048 20.9381 57.1577 19.6591C57.0672 18.8328 56.7955 18.1764 56.6144 17.8029Z" fill="#9E775C"/>
<path fill-rule="evenodd" clip-rule="evenodd" d="M63.6657 21.4213C63.5299 19.9272 64.0392 17.5164 64.0392 17.5164L63.2469 17.9805C63.2469 17.9805 63.6317 17.3353 65.986 16.0903C68.3402 14.8339 70.4454 12.3439 71.3283 11.1328C72.1998 9.92172 72.6525 8.91438 72.4262 8.72196C72.3696 8.67669 72.2903 8.65405 72.1545 8.65405C72.0527 9.09547 71.8716 9.59348 71.5094 9.9104C70.751 10.5782 68.8722 11.5855 68.8722 11.5855C68.8722 11.5855 64.3335 15.4791 64.0052 15.7054C63.677 15.9431 63.2469 16.328 62.9526 17.2334C62.6583 18.1389 63.0884 19.4405 63.0884 19.4405L63.2243 18.5237C63.2129 18.5011 63.2469 20.1649 63.6657 21.4213ZM61.5039 30.3176C61.4586 30.476 61.402 30.6345 61.3454 30.7929C60.4852 33.283 58.7761 35.2977 54.8486 36.6559C54.4072 36.803 53.9658 36.9389 53.5243 37.0407C52.9471 37.7651 52.3699 38.5121 51.8379 39.2026C55.3806 38.5574 57.7122 36.5767 58.5497 36.056C59.5571 35.4448 60.9606 33.4981 61.6623 32.3662C62.3527 31.2344 62.647 30.5326 62.647 30.5326C62.647 30.5326 62.3188 31.6645 61.7981 32.5813C61.2888 33.4981 60.1683 34.9129 60.1683 34.9129C60.1683 34.9129 63.4733 34.2451 65.4993 31.6984C67.5366 29.1518 66.9141 26.5259 66.4047 25.5072C65.8954 24.4886 65.4087 24.2056 65.0013 23.9792C64.5938 23.7529 63.9713 23.7302 63.9713 23.7302C63.9713 23.7302 64.3335 23.5944 64.6051 23.6057C64.8768 23.617 65.0918 23.7529 65.0918 23.7529C65.0918 23.7529 64.7409 23.5944 64.3787 23.153C64.1524 23.1077 63.8694 23.0511 63.4959 23.0058C62.4772 22.87 61.9792 23.0851 61.9792 23.0851C61.9792 23.0851 61.617 21.4439 60.904 21.0478C60.1909 20.6516 59.3307 21.0138 59.3307 21.0138C59.3307 21.0138 59.4778 20.6403 59.8061 20.5384C60.1343 20.4366 60.7229 20.5497 60.7229 20.5497C60.7229 20.5497 60.157 20.1196 59.5344 20.2668C58.9232 20.4139 58.6176 20.3913 58.1875 22.2022C57.7574 24.0132 58.6969 24.9413 58.9232 25.1111C59.1496 25.2809 58.4705 25.8241 59.0138 25.8015C59.5571 25.7789 60.9153 24.7036 61.6284 24.149C62.3301 23.5831 63.0998 23.2435 64.673 24.8847C66.235 26.5146 65.5219 29.1065 64.7636 30.3176C64.0052 31.5286 61.7642 33.0906 61.7642 33.0906C61.7642 33.0906 62.1603 32.3775 62.4206 31.6984C62.681 31.0193 62.7942 29.6837 62.7942 29.6837C62.7942 29.6837 62.2509 29.9327 61.5039 30.3176Z" fill="#9E775C"/>
<path fill-rule="evenodd" clip-rule="evenodd" d="M54.1294 24.8921C54.2766 25.0845 54.435 25.3335 54.4577 25.6278C54.503 26.2163 54.1294 26.5898 54.1294 26.5898C54.1294 26.5898 54.4464 25.424 53.9483 24.9826C53.4617 24.5412 53.0542 24.5525 52.4204 24.7336C51.7865 24.9147 51.0055 25.3788 51.0055 25.3788C51.0055 25.3788 51.0961 25.1411 51.4583 24.8808C51.8205 24.6317 52.5675 24.4054 52.5675 24.4054C52.5675 24.4054 51.7073 24.1337 49.9643 24.2582C48.2212 24.3827 46.5687 25.5712 46.5687 25.5712C46.5687 25.5712 46.7951 25.2429 47.1007 25.0053C47.4063 24.7676 47.5534 24.711 47.5534 24.711C47.5534 24.711 46.9988 24.3035 46.2065 24.711C45.4256 25.1184 45.584 26.239 45.584 26.239L45.9915 26.1145C45.9915 26.1145 45.618 26.5672 45.4595 26.8049C45.301 27.0426 45.2105 27.2916 45.2105 27.2916C45.2105 27.2916 46.5121 26.9973 47.893 27.1444C49.2738 27.2916 50.0548 27.7217 50.0548 27.7217C50.0548 27.7217 48.4249 27.3482 47.112 27.3595C45.7991 27.3708 43.7278 27.5972 43.1166 28.978C42.4941 30.3589 43.9881 31.3096 43.9881 31.3096C43.9881 31.3096 44.2032 30.6418 44.305 30.3702C44.4069 30.0986 44.6333 29.7477 44.6333 29.7477C44.6333 29.7477 44.3277 29.8948 44.09 30.0646C43.8523 30.2344 43.7844 30.3476 43.7844 30.3476C43.7844 30.3476 43.7051 30.1212 44.4295 29.6345C45.1539 29.1478 46.6479 28.9214 48.2438 29.1252C49.8511 29.3289 53.0316 30.3702 54.4011 30.6532C55.7706 30.9248 57.9211 31.1285 59.7887 29.7251C61.6562 28.3329 61.577 25.8655 61.577 25.8655C61.577 25.8655 61.3393 25.8881 61.1469 26.0466C60.9431 26.205 60.9092 26.3748 60.9092 26.3748C60.9092 26.3748 60.8073 25.99 61.4525 25.6844C62.0976 25.3788 63.0144 26.0918 63.0144 26.0918C63.0144 26.0918 62.7428 26.0013 62.4825 25.9334C62.2108 25.8655 62.0524 25.9107 62.0524 25.9107C62.0524 25.9107 62.2221 28.3216 61.3506 30.8116C60.4904 33.3017 58.7813 35.3164 54.8538 36.6746C50.9263 38.0328 46.7838 37.3197 46.4329 37.2292C46.082 37.1386 45.1879 36.9575 44.803 36.6972C44.4295 36.4482 44.4748 36.1992 44.4748 36.1992C44.4748 36.1992 44.6106 36.3463 44.7917 36.4708C44.9728 36.5954 45.2671 36.7312 45.2671 36.7312C45.2671 36.7312 44.9275 36.0294 44.837 35.7012C44.7464 35.373 44.6899 35.1692 44.6899 35.1692C44.6899 35.1692 43.5127 35.9389 43.6372 36.9915C43.7504 38.0441 44.9162 39.4363 49.6813 39.4136C54.4464 39.391 57.5589 36.6859 58.555 36.0747C59.4378 35.5314 60.6376 33.9582 61.3846 32.815C61.7241 32.2377 62.0976 31.6152 62.3693 31.1172C62.5617 30.7437 62.6409 30.54 62.6409 30.54L62.6296 30.5739C63.1276 29.3968 63.8973 26.737 63.0144 25.492C61.9958 24.0545 60.5244 25.8541 59.6981 26.0239C58.8719 26.1937 57.4231 26.5446 55.4311 25.4806C55.0462 25.2543 54.5935 25.0619 54.1294 24.8921Z" fill="#F2E2CF"/>
<path fill-rule="evenodd" clip-rule="evenodd" d="M43.9367 35.9072C43.7329 36.2015 43.5858 36.5637 43.6311 36.9712C43.7443 38.0238 44.9101 39.4159 49.6751 39.3933C54.4402 39.3707 57.5528 36.6656 58.5488 36.0544C59.0921 35.7261 59.7486 35.0017 60.3598 34.2321C60.0542 34.4585 59.7033 34.7188 59.3185 34.9904C57.1227 36.5637 56.8397 36.5863 55.6852 37.1636C54.5307 37.7408 48.8376 39.2914 45.9627 38.2162C44.3328 37.5823 43.948 36.6203 43.9367 35.9072ZM62.714 25.9809C62.6348 25.9583 62.5555 25.9357 62.465 25.913C62.1933 25.8451 62.0349 25.8904 62.0349 25.8904C62.0349 25.8904 62.182 28.0069 61.4916 30.3159C61.6501 29.9763 61.7972 29.5802 61.8877 29.1727C62.1367 28.0409 62.3405 26.3884 62.4876 26.1281C62.5442 26.0375 62.6234 25.9923 62.714 25.9809ZM60.8917 26.2413C60.9144 26.1054 61.0049 25.8677 61.4463 25.664C61.933 25.4263 62.5782 25.7885 62.8611 25.9696C62.9743 25.9696 63.0649 26.0036 63.0649 26.0036C63.0649 26.0036 62.3631 25.0189 61.3897 25.4376C60.4163 25.8564 60.405 26.7053 60.405 26.7053C60.405 26.7053 60.4616 26.5582 60.7333 26.3318C60.8012 26.2865 60.8464 26.2639 60.8917 26.2413ZM42.9746 29.8405C43.0991 30.7234 43.982 31.2893 43.982 31.2893C43.982 31.2893 44.197 30.6215 44.2989 30.3499C44.4007 30.0782 44.6271 29.7273 44.6271 29.7273C44.6271 29.7273 44.3215 29.8745 44.0838 30.0443C43.8461 30.214 43.7782 30.3272 43.7782 30.3272C43.7782 30.3272 43.699 30.1009 44.4234 29.6142C45.1478 29.1275 46.6418 28.9011 48.2377 29.1048C49.8449 29.3086 53.0254 30.3499 54.3949 30.6328C55.7645 30.9045 57.915 31.1082 59.7825 29.7047C61.6501 28.3125 61.5708 25.8451 61.5708 25.8451C61.5708 25.8451 61.3331 25.8677 61.1407 26.0262C61.0502 26.0941 61.0049 26.162 60.9709 26.2186C61.1181 26.1733 61.2086 26.2413 61.2086 26.2413C61.2086 26.2413 61.3218 26.3771 61.2313 26.694C61.1407 27.0222 60.6201 28.2899 59.8165 28.969C59.0242 29.6481 57.0774 30.7686 54.5647 30.0556C52.0633 29.3425 47.8642 28.0183 45.6458 28.5276C44.3215 28.8219 43.4613 29.4104 42.9746 29.8405ZM45.8269 26.3092C45.7024 26.4563 45.5439 26.66 45.4533 26.7959C45.2949 27.0336 45.2043 27.2826 45.2043 27.2826C45.2043 27.2826 46.506 26.9883 47.8868 27.1354C48.6112 27.2146 49.1658 27.3618 49.528 27.4976C50.2184 27.6334 50.6825 27.7693 50.6825 27.7693C50.6825 27.7693 49.6185 27.2373 48.1924 26.7619C47.0493 26.3771 46.1551 26.3205 45.8269 26.3092ZM46.6305 24.5548C46.4946 24.5774 46.3588 24.634 46.2004 24.7019C45.4194 25.1094 45.5779 26.2299 45.5779 26.2299L45.8495 26.1507L46.2909 25.7093C46.2909 25.7093 46.1098 25.5735 46.223 25.1773C46.2796 24.9736 46.4607 24.7472 46.6305 24.5548ZM50.8409 26.3658C50.8409 26.3658 51.7011 25.0981 52.7424 25.0641C53.7837 25.0302 53.9422 25.8451 53.8969 26.2526C53.8403 26.66 53.5121 26.9543 53.5121 26.9543C53.5121 26.9543 51.4069 27.3731 50.8409 26.3658Z" fill="#EDC9A2"/>
<path fill-rule="evenodd" clip-rule="evenodd" d="M51.0918 26.2905C51.0918 26.2905 51.703 25.4982 52.6085 25.3737C53.5139 25.2379 53.6271 25.9962 53.6611 26.2226C53.695 26.4603 53.3781 26.7772 53.3781 26.7772V26.3584C53.3781 26.3584 52.9254 26.6187 52.3821 26.5169C51.8501 26.415 51.6351 26.0981 51.6351 26.0981C51.6351 26.0981 51.2955 26.1547 51.0918 26.2905Z" fill="black"/>
<path fill-rule="evenodd" clip-rule="evenodd" d="M58.1914 18.5987C58.1914 18.5987 59.0403 17.5234 60.5796 17.5348C62.1189 17.5461 62.5151 19.2212 62.4924 19.6287C62.4698 20.0361 62.2547 20.7945 62.2547 20.7945C62.2547 20.7945 61.9605 19.923 60.6588 19.0175C59.3572 18.1233 58.3838 18.5761 58.1914 18.5987Z" fill="black"/>
<path fill-rule="evenodd" clip-rule="evenodd" d="M63.1172 16.8519C63.1172 16.8519 63.5812 15.5842 64.2377 14.6788C64.8942 13.762 65.6638 12.7999 67.3729 11.8831C69.082 10.9663 71.0175 10.4004 71.0175 10.4004C71.0175 10.4004 70.8816 10.6607 70.6213 10.7626C70.3497 10.8644 70.2478 10.9776 70.2478 10.9776C70.2478 10.9776 69.2065 12.449 68.4482 13.1281C67.6898 13.8072 66.2637 15.007 65.2903 15.5956C64.3396 16.1615 63.1172 16.8519 63.1172 16.8519Z" fill="black"/>
<path fill-rule="evenodd" clip-rule="evenodd" d="M69.6774 11.2067C68.953 11.4896 68.2286 11.8065 67.5382 12.1687C66.8478 12.5309 66.214 12.9723 65.648 13.5156C65.2179 13.9344 64.8671 14.3872 64.5162 14.8738C64.437 14.987 64.3577 15.1115 64.2785 15.2247C64.1087 15.4964 63.9503 15.7906 63.8145 16.0849C64.2559 15.8246 64.6973 15.5756 65.1387 15.3039C65.6594 14.987 66.1687 14.6022 66.6554 14.2174C67.1987 13.7873 67.7306 13.3345 68.24 12.8818C68.489 12.6554 68.7267 12.3951 68.9417 12.1348C69.1907 11.8405 69.4397 11.5236 69.6774 11.2067C69.6661 11.218 69.6774 11.2067 69.6774 11.2067Z" fill="#F6C4B1"/>
<path fill-rule="evenodd" clip-rule="evenodd" d="M59.8814 20.9193C60.8208 20.9193 61.5791 21.8927 61.5791 23.1038C61.5791 24.3036 60.8208 25.2883 59.8814 25.2883C58.9419 25.2883 58.1836 24.3149 58.1836 23.1038C58.1836 22.9227 58.2062 22.7416 58.2402 22.5718C58.2402 22.5718 58.3307 21.44 58.6703 20.8175C59.0098 20.195 59.5531 20.2063 59.7003 20.1836C59.8361 20.1723 60.153 20.2063 60.3794 20.3534C60.5944 20.5006 60.6171 20.6364 60.6171 20.6364C60.6171 20.6364 60.2775 20.2968 59.7455 20.3647C59.2023 20.4327 58.9533 20.7269 58.8401 21.0212C58.7608 21.2136 58.7156 21.4287 58.6929 21.5532C58.9872 21.1684 59.4173 20.9193 59.8814 20.9193Z" fill="black"/>
<path fill-rule="evenodd" clip-rule="evenodd" d="M59.8859 21.1538C60.6895 21.1538 61.3459 22.0253 61.3459 23.1006C61.3459 24.1758 60.6895 25.0474 59.8859 25.0474C59.0823 25.0474 58.4258 24.1758 58.4258 23.1006C58.4258 22.0253 59.0823 21.1538 59.8859 21.1538Z" fill="white"/>
<path fill-rule="evenodd" clip-rule="evenodd" d="M59.9294 21.7329C60.3934 21.7329 60.7669 22.197 60.7669 22.7742C60.7669 23.3514 60.3934 23.8155 59.9294 23.8155C59.4653 23.8155 59.0918 23.3514 59.0918 22.7742C59.0918 22.2083 59.4653 21.7329 59.9294 21.7329Z" fill="black"/>
<path fill-rule="evenodd" clip-rule="evenodd" d="M59.9506 22.1068C60.0864 22.1068 60.1883 22.2426 60.1883 22.4011C60.1883 22.5595 60.0864 22.6954 59.9506 22.6954C59.8148 22.6954 59.7129 22.5595 59.7129 22.4011C59.7129 22.2313 59.8261 22.1068 59.9506 22.1068Z" fill="white"/>
<path fill-rule="evenodd" clip-rule="evenodd" d="M59.3622 25.9091C59.3622 25.9091 59.2491 25.6601 59.8376 24.7659C60.4262 23.8831 61.5807 23.4643 62.0334 23.3285C62.4861 23.204 62.9615 23.204 63.1426 23.2945C63.3237 23.3737 63.3237 24.1208 62.305 24.5622C61.2864 25.0036 60.845 25.2187 60.4715 25.4337C60.0866 25.6488 59.532 26.0562 59.3622 25.9091Z" fill="#B99D85"/>
<path fill-rule="evenodd" clip-rule="evenodd" d="M59.3848 25.7122C59.4187 25.5424 59.5432 25.2482 59.8488 24.7841C60.4374 23.9013 61.5919 23.4825 62.0446 23.3467C62.4973 23.2222 62.9727 23.2222 63.1538 23.3127C63.2444 23.358 63.2896 23.5504 63.1991 23.7881C62.5426 23.5504 62.0786 23.8107 61.6371 24.1616C61.0486 24.6256 60.0299 25.4293 59.3848 25.7122Z" fill="#9E775C"/>
<path fill-rule="evenodd" clip-rule="evenodd" d="M59.3535 25.7605C59.3535 25.7605 59.4441 24.6513 60.6665 23.8137C61.9002 22.9762 62.9301 23.2591 62.9301 23.2591C62.9301 23.2591 60.6665 23.2591 59.3535 25.7605Z" fill="black"/>
<path fill-rule="evenodd" clip-rule="evenodd" d="M61.7539 24.3279C61.7539 24.3279 61.8105 23.8865 62.3991 23.6715C62.9876 23.4677 63.2366 23.6036 63.2366 23.6036C63.2366 23.6036 62.2293 23.8186 61.7539 24.3279Z" fill="black"/>
<path fill-rule="evenodd" clip-rule="evenodd" d="M62.2559 24.4311C62.2559 24.4311 62.3351 24.0803 62.935 23.9331C63.5348 23.786 63.648 23.9897 63.648 23.9897C63.648 23.9897 62.7765 24.0803 62.2559 24.4311Z" fill="black"/>
<path fill-rule="evenodd" clip-rule="evenodd" d="M63.418 24.4314C63.418 24.4314 63.633 24.2276 63.8481 24.3069C64.0518 24.3861 64.1084 24.5446 64.1084 24.5446C64.1084 24.5446 63.6557 24.3974 63.418 24.4314Z" fill="black"/>
<path fill-rule="evenodd" clip-rule="evenodd" d="M53.9009 19.3715C53.9009 19.3715 53.9575 18.749 54.829 18.5679C55.7005 18.3868 56.2098 18.9414 56.3909 19.1451C56.572 19.3489 56.7078 19.7111 56.7418 19.8922C56.7758 20.0846 56.8097 20.2091 56.8097 20.2091C56.8097 20.2091 56.5607 19.496 55.5873 19.496C54.6139 19.496 54.014 20.6279 53.9122 20.8656C53.8103 21.1032 53.5839 21.6126 53.5839 21.6126C53.5839 21.6126 53.4255 20.5939 53.9009 19.3715Z" fill="black"/>
<path fill-rule="evenodd" clip-rule="evenodd" d="M48.124 30.042C48.124 30.042 48.1014 30.3476 47.9882 31.0606C47.875 31.7737 47.7392 32.3962 47.8863 32.9395C48.0334 33.4828 47.5015 33.6526 47.2864 33.3356C47.0714 33.0187 47.1959 32.2944 47.2412 31.9435C47.2977 31.5813 47.5354 30.5966 47.6033 30.4268C47.6713 30.257 47.8184 29.7137 48.124 30.042Z" fill="white"/>
<path fill-rule="evenodd" clip-rule="evenodd" d="M47.7684 25.4834L47.9947 29.5014L51.0054 26.819L48.323 29.8184L52.341 30.0447L48.323 30.2711L51.0054 33.2705L47.9947 30.588L47.7684 34.6174L47.5533 30.588L44.5426 33.2705L47.2251 30.2711L43.207 30.0447L47.2251 29.8184L44.5426 26.819L47.5533 29.5014L47.7684 25.4834Z" fill="white"/>
<path fill-rule="evenodd" clip-rule="evenodd" d="M60.5877 26.3381L60.7575 29.3602L63.0098 27.3455L60.9952 29.5978L64.0172 29.7676L60.9952 29.9374L63.0098 32.1898L60.7575 30.1751L60.5877 33.1971L60.4179 30.1751L58.1655 32.1898L60.1802 29.9374L57.1582 29.7676L60.1802 29.5978L58.1655 27.3455L60.4179 29.3602L60.5877 26.3381Z" fill="white"/>
<path fill-rule="evenodd" clip-rule="evenodd" d="M60.2397 51.5357L60.251 51.796C62.6052 51.7054 64.8576 51.1961 66.9289 50.3472C67.0873 50.2793 67.2458 50.2114 67.4042 50.1435C65.8762 49.3625 64.552 48.0269 64.0879 45.8085C62.7524 39.4023 64.7331 35.6559 65.299 32.996C65.3443 32.7923 65.3782 32.5659 65.4009 32.3282C64.518 33.2903 63.3975 34.026 62.2091 34.558C61.7563 34.7617 61.2923 34.9428 60.8169 35.0786C60.6245 35.1352 60.4321 35.1918 60.2397 35.2258L59.9001 35.2937C59.504 35.7238 59.0965 36.0973 58.7343 36.3237C58.5758 36.4142 58.4287 36.5274 58.2816 36.6293C58.1005 36.7538 57.9194 36.8783 57.7383 37.0028C58.5872 37.4781 59.6058 38.2931 60.0586 39.5947C60.0699 39.6287 60.0812 39.6626 60.0925 39.6966C60.0925 39.7079 60.1038 39.7192 60.1038 39.7305C60.1152 39.7532 60.1152 39.7645 60.1265 39.7871C60.1265 39.7984 60.1378 39.8211 60.1378 39.8324C60.1378 39.8437 60.1491 39.8663 60.1491 39.8777C60.1491 39.9003 60.1604 39.9116 60.1718 39.9342C60.1718 39.9456 60.1831 39.9682 60.1831 39.9795C60.1831 39.9908 60.1944 40.0022 60.1944 40.0135C60.2283 40.1153 60.2623 40.2285 60.2849 40.3417V40.353C60.2849 40.353 60.2849 40.353 60.2849 40.3644C60.2963 40.3983 60.3076 40.4323 60.3076 40.4662V40.4775C60.3189 40.5002 60.3189 40.5341 60.3302 40.5568L60.3415 40.6134L60.3528 40.6473C60.3528 40.6699 60.3642 40.6926 60.3642 40.7152L60.3868 40.8171L60.3981 40.8737L60.4094 40.9303V40.9416L60.4208 41.0095V41.0208V41.0548C60.4208 41.0661 60.4208 41.0774 60.4208 41.0887V41.1114V41.1227L60.4321 41.1906V41.2019C60.4434 41.2359 60.4434 41.2585 60.4547 41.2925V41.3038V41.3151V41.3491C60.466 41.4056 60.4773 41.4509 60.4887 41.5075C60.4887 41.5188 60.4887 41.5188 60.4887 41.5302L60.5 41.5754L60.5113 41.6547L60.5226 41.6886L60.5339 41.7452L60.5453 41.8131V41.8244L60.5566 41.915V41.9263L60.5679 42.0282L60.5792 42.13V42.1527V42.164L60.5905 42.2545V42.2998L60.6019 42.3904V42.413L60.6132 42.4809L60.6245 42.5488L60.6358 42.6507C60.6471 42.7186 60.6471 42.7752 60.6584 42.8431V42.8544V42.8884V42.9336C60.6584 42.9789 60.6698 43.0355 60.6698 43.0808C60.6698 43.0921 60.6698 43.1147 60.6698 43.1261V43.1487L60.6811 43.2392C60.9754 46.1594 60.1378 48.6721 60.2397 51.5357Z" fill="#9E775C"/>
<path d="M3.20986 15.8132H13.6419C16.1682 15.8132 18.5607 16.0956 20.8195 16.6602C23.108 17.2249 25.0993 18.1463 26.7934 19.4243C28.4875 20.6726 29.825 22.3072 30.8057 24.3282C31.8163 26.3493 32.3215 28.8012 32.3215 31.6842C32.3215 34.2402 31.8311 36.499 30.8503 38.4606C29.8993 40.3924 28.6064 42.0271 26.9717 43.3645C25.3371 44.6722 23.4498 45.6679 21.3099 46.3515C19.17 47.035 16.9261 47.3768 14.5781 47.3768H3.20986V15.8132ZM10.1646 40.9571H13.7757C15.3806 40.9571 16.8666 40.7936 18.2338 40.4667C19.6307 40.1398 20.8344 39.6048 21.8449 38.8618C22.8554 38.089 23.643 37.0934 24.2077 35.8748C24.8021 34.6266 25.0993 33.1108 25.0993 31.3275C25.0993 29.782 24.8021 28.4446 24.2077 27.3152C23.643 26.1561 22.8703 25.205 21.8895 24.462C20.9087 23.719 19.7496 23.1691 18.4121 22.8125C17.1044 22.4261 15.7224 22.2329 14.266 22.2329H10.1646V40.9571Z" fill="white"/>
<path d="M86.5738 25.8101H92.9935V28.7525H93.0826C93.2907 28.3364 93.5879 27.9203 93.9743 27.5042C94.3606 27.0881 94.8213 26.7166 95.3563 26.3897C95.8913 26.0628 96.5005 25.7953 97.1841 25.5872C97.8677 25.3792 98.6107 25.2751 99.4132 25.2751C101.107 25.2751 102.474 25.5426 103.515 26.0776C104.555 26.5829 105.357 27.2962 105.922 28.2175C106.516 29.1389 106.918 30.2237 107.126 31.472C107.334 32.7202 107.438 34.0725 107.438 35.5289V47.4767H100.751V36.8663C100.751 36.2422 100.721 35.6032 100.661 34.9493C100.632 34.2657 100.498 33.6416 100.26 33.0769C100.052 32.5122 99.7104 32.0515 99.2349 31.6949C98.7891 31.3382 98.1352 31.1599 97.2733 31.1599C96.4114 31.1599 95.7129 31.3234 95.178 31.6503C94.643 31.9475 94.2269 32.3636 93.9297 32.8986C93.6622 33.4038 93.4839 33.9834 93.3947 34.6372C93.3055 35.2911 93.261 35.9747 93.261 36.688V47.4767H86.5738V25.8101Z" fill="white"/>
<path d="M138.584 13.7731H145.271V34.3698L152.671 25.8101H160.874L152.27 35.5735L161.097 47.4767H152.671L145.36 36.5097H145.271V47.4767H138.584V13.7731ZM183.863 43.7318C182.793 45.099 181.441 46.1541 179.806 46.8971C178.172 47.6401 176.478 48.0117 174.724 48.0117C173.06 48.0117 171.484 47.7442 169.998 47.2092C168.542 46.6742 167.264 45.9163 166.164 44.9355C165.094 43.925 164.247 42.7213 163.623 41.3245C162.999 39.9276 162.687 38.3672 162.687 36.6434C162.687 34.9196 162.999 33.3592 163.623 31.9624C164.247 30.5655 165.094 29.3766 166.164 28.3958C167.264 27.3853 168.542 26.6126 169.998 26.0776C171.484 25.5426 173.06 25.2751 174.724 25.2751C176.27 25.2751 177.666 25.5426 178.915 26.0776C180.193 26.6126 181.263 27.3853 182.125 28.3958C183.016 29.3766 183.7 30.5655 184.175 31.9624C184.651 33.3592 184.889 34.9196 184.889 36.6434V38.7387H169.374C169.642 40.0167 170.221 41.0421 171.113 41.8148C172.005 42.5579 173.104 42.9294 174.412 42.9294C175.512 42.9294 176.433 42.6916 177.176 42.2161C177.949 41.7108 178.617 41.0718 179.182 40.2991L183.863 43.7318ZM178.201 34.1914C178.231 33.062 177.86 32.0961 177.087 31.2936C176.314 30.4912 175.318 30.0899 174.1 30.0899C173.357 30.0899 172.703 30.2088 172.138 30.4466C171.574 30.6844 171.083 30.9964 170.667 31.3828C170.281 31.7395 169.969 32.1704 169.731 32.6757C169.523 33.1512 169.404 33.6565 169.374 34.1914H178.201ZM201.438 50.9986C200.992 52.1577 200.561 53.1831 200.145 54.0747C199.729 54.9664 199.194 55.7094 198.54 56.3038C197.916 56.9279 197.114 57.3886 196.133 57.6858C195.152 58.0128 193.859 58.1762 192.254 58.1762C190.53 58.1762 188.866 57.9087 187.261 57.3738L188.153 51.8902C189.163 52.3361 190.204 52.559 191.273 52.559C192.017 52.559 192.626 52.4698 193.101 52.2915C193.577 52.1429 193.963 51.9051 194.26 51.5782C194.587 51.281 194.855 50.9095 195.063 50.4636C195.271 50.0178 195.494 49.4977 195.732 48.9033L196.222 47.655L186.726 25.8101H193.948L199.521 40.1208H199.61L204.38 25.8101H211.246L201.438 50.9986Z" fill="white"/>
<path d="M128.49 36.5741H117.523V31.2243H128.49V36.5741Z" fill="white"/>
</svg>
