<svg width="99" height="58" viewBox="0 0 99 58" fill="none" xmlns="http://www.w3.org/2000/svg">
<path d="M94 14.1196H7C5.89543 14.1196 5 15.0151 5 16.1196V30.1196C5 31.2242 5.89543 32.1196 7 32.1196H94C95.1046 32.1196 96 31.2242 96 30.1196V16.1196C96 15.0151 95.1046 14.1196 94 14.1196Z" fill="#2A2A2A"/>
<path d="M17.5581 24.6274C17.4917 25.2173 17.2905 25.7407 16.9546 26.1978C16.6186 26.6509 16.1811 27.0005 15.6421 27.2466C15.103 27.4888 14.521 27.604 13.896 27.5923C13.3335 27.5806 12.8433 27.4517 12.4253 27.2056C12.0073 26.9556 11.6772 26.5962 11.435 26.1274C11.1968 25.6548 11.062 25.1118 11.0308 24.4985C11.0034 24.0181 11.0522 23.4204 11.1772 22.7056C11.3061 21.9907 11.5327 21.356 11.8569 20.8013C12.185 20.2466 12.5737 19.8071 13.0229 19.4829C13.6558 19.0298 14.3784 18.811 15.1909 18.8267C16.0737 18.8423 16.7729 19.1157 17.2886 19.647C17.8081 20.1743 18.0933 20.9087 18.144 21.8501L16.4331 21.8442C16.4331 21.3052 16.3257 20.9106 16.1108 20.6606C15.896 20.4106 15.562 20.2778 15.1089 20.2622C14.5229 20.2427 14.0405 20.4517 13.6616 20.8892C13.2866 21.3267 13.0347 21.9653 12.9058 22.8052C12.7808 23.6216 12.7261 24.2329 12.7417 24.6392C12.7612 25.1548 12.8765 25.5356 13.0874 25.7817C13.2983 26.0239 13.5933 26.1509 13.9722 26.1626C14.4956 26.1821 14.9136 26.0591 15.2261 25.7935C15.5425 25.5239 15.7515 25.1392 15.853 24.6392L17.5581 24.6274ZM21.7065 27.5923C21.1401 27.5806 20.6401 27.4478 20.2065 27.1938C19.7768 26.936 19.435 26.5669 19.1811 26.0864C18.9311 25.6021 18.7866 25.0474 18.7475 24.4224C18.7046 23.7817 18.7729 23.0981 18.9526 22.3716C19.1323 21.645 19.4214 21.0063 19.8198 20.4556C20.2183 19.9048 20.685 19.4927 21.2202 19.2192C21.7593 18.9458 22.3413 18.8149 22.9663 18.8267C23.5405 18.8384 24.0425 18.9751 24.4722 19.2368C24.9018 19.4946 25.2397 19.8677 25.4858 20.356C25.7319 20.8403 25.8725 21.3911 25.9077 22.0083C25.9468 22.6958 25.8725 23.4028 25.685 24.1294C25.4975 24.856 25.2065 25.4849 24.812 26.0161C24.4175 26.5474 23.9546 26.9458 23.4233 27.2114C22.896 27.4771 22.3237 27.604 21.7065 27.5923ZM24.1382 22.9751L24.185 22.4185C24.2241 21.7231 24.1304 21.1958 23.9038 20.8364C23.6811 20.4771 23.3413 20.2896 22.8843 20.2739C22.1694 20.2505 21.6011 20.5669 21.1792 21.2231C20.7612 21.8794 20.5249 22.7974 20.4702 23.9771C20.4311 24.6685 20.5229 25.2017 20.7456 25.5767C20.9683 25.9478 21.314 26.1411 21.7827 26.1567C22.396 26.1841 22.9038 25.9458 23.3061 25.4419C23.7085 24.9341 23.9722 24.2173 24.0972 23.2915L24.1382 22.9751ZM30.062 18.9438L31.1108 25.1138L34.2925 18.9438H36.5776L35.0952 27.4751H33.3725L33.7944 25.0435L34.6265 21.2466L31.3569 27.4751H30.1792L29.0366 21.0298L28.4858 25.231L28.0933 27.4751H26.3765L27.8589 18.9438H30.062ZM38.4585 27.4751H36.7417L38.2183 18.9438H39.935L38.4585 27.4751ZM46.8315 27.4751H45.1675L42.7944 21.7856L41.8042 27.4751H40.0874L41.5698 18.9438H43.228L45.6069 24.645L46.5972 18.9438H48.3081L46.8315 27.4751ZM55.2104 26.397C54.9058 26.7837 54.4585 27.0825 53.8686 27.2935C53.2827 27.5005 52.6206 27.5981 51.8823 27.5864C51.3003 27.5825 50.7886 27.4556 50.3472 27.2056C49.9058 26.9517 49.5581 26.5884 49.3042 26.1157C49.0503 25.6431 48.9058 25.104 48.8706 24.4985C48.8315 23.936 48.8901 23.2759 49.0464 22.5181C49.2065 21.7563 49.478 21.0903 49.8608 20.52C50.2475 19.9458 50.7104 19.5181 51.2495 19.2368C51.7886 18.9517 52.3862 18.8149 53.0425 18.8267C53.9331 18.8423 54.6304 19.0942 55.1343 19.5825C55.6382 20.0669 55.9253 20.7622 55.9956 21.6685L54.3433 21.6626C54.3003 21.186 54.1733 20.8345 53.9624 20.6079C53.7515 20.3813 53.437 20.2603 53.019 20.2446C52.2964 20.2212 51.7261 20.5396 51.3081 21.1997C50.894 21.856 50.6577 22.8091 50.5991 24.0591C50.56 24.7271 50.6616 25.2446 50.9038 25.6118C51.1499 25.979 51.5229 26.1665 52.0229 26.1743C52.605 26.1899 53.1011 26.0513 53.5112 25.7583L53.7983 24.2876H52.2397L52.4683 22.9927H55.7261L55.2104 26.397ZM64.0229 25.1958C64.105 24.731 63.8765 24.3755 63.3374 24.1294L62.2065 23.6782C60.894 23.0923 60.271 22.2856 60.3374 21.2583C60.3647 20.7817 60.521 20.3599 60.8061 19.9927C61.0913 19.6255 61.4917 19.3384 62.0073 19.1313C62.5229 18.9204 63.0796 18.8188 63.6772 18.8267C64.5015 18.8423 65.1675 19.0884 65.6753 19.5649C66.1831 20.0376 66.4331 20.6724 66.4253 21.4692H64.7143C64.7339 21.0825 64.6479 20.7817 64.4565 20.5669C64.269 20.3521 63.9761 20.2407 63.5776 20.2329C63.187 20.2251 62.8472 20.3149 62.5581 20.5024C62.269 20.686 62.0972 20.9399 62.0425 21.2642C61.9683 21.6899 62.2534 22.0278 62.8979 22.2778L63.6714 22.5708L64.1167 22.7759C65.269 23.3462 65.8081 24.147 65.7339 25.1782C65.6987 25.6821 65.5366 26.1177 65.2475 26.4849C64.9624 26.8481 64.5718 27.1274 64.0757 27.3228C63.5835 27.5181 63.0405 27.6099 62.4468 27.5981C61.8413 27.5864 61.3022 27.4595 60.8296 27.2173C60.3569 26.9751 59.9975 26.6333 59.7515 26.1919C59.521 25.7817 59.4136 25.313 59.4292 24.7856L61.146 24.7915C61.0913 25.7173 61.5464 26.188 62.5112 26.2036C62.9292 26.2036 63.2729 26.1118 63.5425 25.9282C63.812 25.7446 63.9722 25.5005 64.0229 25.1958ZM69.9761 27.5923C69.4097 27.5806 68.9097 27.4478 68.4761 27.1938C68.0464 26.936 67.7046 26.5669 67.4507 26.0864C67.2007 25.6021 67.0561 25.0474 67.0171 24.4224C66.9741 23.7817 67.0425 23.0981 67.2222 22.3716C67.4018 21.645 67.6909 21.0063 68.0893 20.4556C68.4878 19.9048 68.9546 19.4927 69.4897 19.2192C70.0288 18.9458 70.6108 18.8149 71.2358 18.8267C71.81 18.8384 72.312 18.9751 72.7417 19.2368C73.1714 19.4946 73.5093 19.8677 73.7554 20.356C74.0015 20.8403 74.1421 21.3911 74.1772 22.0083C74.2163 22.6958 74.1421 23.4028 73.9546 24.1294C73.7671 24.856 73.4761 25.4849 73.0815 26.0161C72.687 26.5474 72.2241 26.9458 71.6929 27.2114C71.1655 27.4771 70.5933 27.604 69.9761 27.5923ZM72.4077 22.9751L72.4546 22.4185C72.4936 21.7231 72.3999 21.1958 72.1733 20.8364C71.9507 20.4771 71.6108 20.2896 71.1538 20.2739C70.439 20.2505 69.8706 20.5669 69.4487 21.2231C69.0308 21.8794 68.7944 22.7974 68.7397 23.9771C68.7007 24.6685 68.7925 25.2017 69.0151 25.5767C69.2378 25.9478 69.5835 26.1411 70.0522 26.1567C70.6655 26.1841 71.1733 25.9458 71.5757 25.4419C71.978 24.9341 72.2417 24.2173 72.3667 23.2915L72.4077 22.9751ZM78.0737 27.5923C77.5073 27.5806 77.0073 27.4478 76.5737 27.1938C76.144 26.936 75.8022 26.5669 75.5483 26.0864C75.2983 25.6021 75.1538 25.0474 75.1147 24.4224C75.0718 23.7817 75.1401 23.0981 75.3198 22.3716C75.4995 21.645 75.7886 21.0063 76.187 20.4556C76.5854 19.9048 77.0522 19.4927 77.5874 19.2192C78.1265 18.9458 78.7085 18.8149 79.3335 18.8267C79.9077 18.8384 80.4097 18.9751 80.8393 19.2368C81.269 19.4946 81.6069 19.8677 81.853 20.356C82.0991 20.8403 82.2397 21.3911 82.2749 22.0083C82.314 22.6958 82.2397 23.4028 82.0522 24.1294C81.8647 24.856 81.5737 25.4849 81.1792 26.0161C80.7847 26.5474 80.3218 26.9458 79.7905 27.2114C79.2632 27.4771 78.6909 27.604 78.0737 27.5923ZM80.5054 22.9751L80.5522 22.4185C80.5913 21.7231 80.4975 21.1958 80.271 20.8364C80.0483 20.4771 79.7085 20.2896 79.2515 20.2739C78.5366 20.2505 77.9683 20.5669 77.5464 21.2231C77.1284 21.8794 76.8921 22.7974 76.8374 23.9771C76.7983 24.6685 76.8901 25.2017 77.1128 25.5767C77.3354 25.9478 77.6811 26.1411 78.1499 26.1567C78.7632 26.1841 79.271 25.9458 79.6733 25.4419C80.0757 24.9341 80.3393 24.2173 80.4643 23.2915L80.5054 22.9751ZM89.4878 27.4751H87.8237L85.4507 21.7856L84.4604 27.4751H82.7436L84.2261 18.9438H85.8843L88.2632 24.645L89.2534 18.9438H90.9643L89.4878 27.4751Z" fill="#FFD000"/>
</svg>
