<svg width="113" height="80" viewBox="0 0 113 80" fill="none" xmlns="http://www.w3.org/2000/svg">
<g clip-path="url(#clip0)">
<path d="M28.334 69.8906L30.3848 75.3398L32.4307 69.8906H34.0273V77H32.7969V74.6562L32.9189 71.5215L30.8193 77H29.9355L27.8408 71.5264L27.9629 74.6562V77H26.7324V69.8906H28.334ZM37.7041 77.0977C36.9521 77.0977 36.3418 76.8617 35.873 76.3896C35.4076 75.9144 35.1748 75.2829 35.1748 74.4951V74.3486C35.1748 73.8213 35.2757 73.3509 35.4775 72.9375C35.6826 72.5208 35.9691 72.1969 36.3369 71.9658C36.7048 71.7347 37.1149 71.6191 37.5674 71.6191C38.2868 71.6191 38.8418 71.8486 39.2324 72.3076C39.6263 72.7666 39.8232 73.416 39.8232 74.2559V74.7344H36.3711C36.4069 75.1706 36.5518 75.5156 36.8057 75.7695C37.0628 76.0234 37.3851 76.1504 37.7725 76.1504C38.3161 76.1504 38.7588 75.9307 39.1006 75.4912L39.7402 76.1016C39.5286 76.4173 39.2454 76.6631 38.8906 76.8389C38.5391 77.0114 38.1436 77.0977 37.7041 77.0977ZM37.5625 72.5713C37.237 72.5713 36.9733 72.6852 36.7715 72.9131C36.5729 73.141 36.446 73.4583 36.3906 73.8652H38.6514V73.7773C38.6253 73.3802 38.5195 73.0807 38.334 72.8789C38.1484 72.6738 37.8913 72.5713 37.5625 72.5713ZM40.5264 74.3193C40.5264 73.5055 40.7152 72.8529 41.0928 72.3613C41.4704 71.8665 41.9766 71.6191 42.6113 71.6191C43.1712 71.6191 43.6237 71.8145 43.9688 72.2051V69.5H45.1553V77H44.0811L44.0225 76.4531C43.6676 76.8828 43.194 77.0977 42.6016 77.0977C41.9831 77.0977 41.4818 76.8486 41.0977 76.3506C40.7168 75.8525 40.5264 75.1755 40.5264 74.3193ZM41.7129 74.4219C41.7129 74.959 41.8154 75.3789 42.0205 75.6816C42.2288 75.9811 42.5234 76.1309 42.9043 76.1309C43.3893 76.1309 43.7441 75.9144 43.9688 75.4814V73.2256C43.7507 72.8024 43.3991 72.5908 42.9141 72.5908C42.5299 72.5908 42.2337 72.7438 42.0254 73.0498C41.8171 73.3525 41.7129 73.8099 41.7129 74.4219ZM47.6553 77H46.4688V71.7168H47.6553V77ZM46.3955 70.3447C46.3955 70.1624 46.4525 70.0111 46.5664 69.8906C46.6836 69.7702 46.8496 69.71 47.0645 69.71C47.2793 69.71 47.4453 69.7702 47.5625 69.8906C47.6797 70.0111 47.7383 70.1624 47.7383 70.3447C47.7383 70.5238 47.6797 70.6735 47.5625 70.7939C47.4453 70.9111 47.2793 70.9697 47.0645 70.9697C46.8496 70.9697 46.6836 70.9111 46.5664 70.7939C46.4525 70.6735 46.3955 70.5238 46.3955 70.3447ZM52.1523 76.4824C51.804 76.8926 51.3092 77.0977 50.668 77.0977C50.0951 77.0977 49.6605 76.93 49.3643 76.5947C49.0713 76.2594 48.9248 75.7744 48.9248 75.1396V71.7168H50.1113V75.125C50.1113 75.7956 50.3896 76.1309 50.9463 76.1309C51.5225 76.1309 51.9115 75.9242 52.1133 75.5107V71.7168H53.2998V77H52.1816L52.1523 76.4824ZM55.624 71.7168L55.6582 72.2686C56.0293 71.8356 56.5371 71.6191 57.1816 71.6191C57.888 71.6191 58.3714 71.8893 58.6318 72.4297C59.016 71.8893 59.5563 71.6191 60.2529 71.6191C60.8356 71.6191 61.2686 71.7803 61.5518 72.1025C61.8382 72.4248 61.9847 72.9001 61.9912 73.5283V77H60.8047V73.5625C60.8047 73.2272 60.7314 72.9814 60.585 72.8252C60.4385 72.6689 60.196 72.5908 59.8574 72.5908C59.5872 72.5908 59.3659 72.6641 59.1934 72.8105C59.0241 72.9538 58.9053 73.1426 58.8369 73.377L58.8418 77H57.6553V73.5234C57.639 72.9017 57.3216 72.5908 56.7031 72.5908C56.2279 72.5908 55.891 72.7845 55.6924 73.1719V77H54.5059V71.7168H55.624ZM71.459 77H70.2285V73.8408H67.0498V77H65.8145V69.8906H67.0498V72.8496H70.2285V69.8906H71.459V77ZM74.0713 77H72.8848V71.7168H74.0713V77ZM72.8115 70.3447C72.8115 70.1624 72.8685 70.0111 72.9824 69.8906C73.0996 69.7702 73.2656 69.71 73.4805 69.71C73.6953 69.71 73.8613 69.7702 73.9785 69.8906C74.0957 70.0111 74.1543 70.1624 74.1543 70.3447C74.1543 70.5238 74.0957 70.6735 73.9785 70.7939C73.8613 70.9111 73.6953 70.9697 73.4805 70.9697C73.2656 70.9697 73.0996 70.9111 72.9824 70.7939C72.8685 70.6735 72.8115 70.5238 72.8115 70.3447ZM75.1602 74.3193C75.1602 73.499 75.3522 72.8447 75.7363 72.3564C76.1237 71.8649 76.6364 71.6191 77.2744 71.6191C77.8766 71.6191 78.3503 71.8291 78.6953 72.249L78.749 71.7168H79.8184V76.8389C79.8184 77.5322 79.6019 78.0791 79.1689 78.4795C78.7393 78.8799 78.1582 79.0801 77.4258 79.0801C77.0384 79.0801 76.6592 78.9987 76.2881 78.8359C75.9202 78.6764 75.6403 78.4665 75.4482 78.2061L76.0098 77.4932C76.3743 77.9261 76.8236 78.1426 77.3574 78.1426C77.7513 78.1426 78.0622 78.0352 78.29 77.8203C78.5179 77.6087 78.6318 77.2962 78.6318 76.8828V76.5264C78.29 76.9072 77.8343 77.0977 77.2646 77.0977C76.6462 77.0977 76.14 76.8519 75.7461 76.3604C75.3555 75.8688 75.1602 75.1885 75.1602 74.3193ZM76.3418 74.4219C76.3418 74.9525 76.4492 75.3708 76.6641 75.6768C76.8822 75.9795 77.1833 76.1309 77.5674 76.1309C78.0459 76.1309 78.4007 75.9258 78.6318 75.5156V73.1914C78.4072 72.791 78.0557 72.5908 77.5771 72.5908C77.1865 72.5908 76.8822 72.7454 76.6641 73.0547C76.4492 73.3639 76.3418 73.8197 76.3418 74.4219ZM82.2109 72.293C82.5983 71.8438 83.0882 71.6191 83.6807 71.6191C84.807 71.6191 85.3783 72.262 85.3945 73.5479V77H84.208V73.5918C84.208 73.2272 84.1283 72.9701 83.9688 72.8203C83.8125 72.6673 83.5814 72.5908 83.2754 72.5908C82.8001 72.5908 82.4453 72.8024 82.2109 73.2256V77H81.0244V69.5H82.2109V72.293Z" fill="black"/>
<mask id="path-3-outside-1" maskUnits="userSpaceOnUse" x="10" y="52" width="15" height="28" fill="black">
<rect fill="white" x="10" y="52" width="15" height="28"/>
<path d="M22.6139 53.8072C21.4095 52.8662 19.6626 53.0753 18.7983 54.3358C14.4004 60.7499 11.7599 68.2064 11.1411 75.9588C11.0195 77.4823 12.2456 78.7441 13.7737 78.7708C15.3018 78.7975 16.552 77.5785 16.6871 76.0562C17.2682 69.5054 19.4987 63.2069 23.1696 57.7503C24.0227 56.4822 23.8183 54.7481 22.6139 53.8072Z"/>
</mask>
<path d="M22.6139 53.8072C21.4095 52.8662 19.6626 53.0753 18.7983 54.3358C14.4004 60.7499 11.7599 68.2064 11.1411 75.9588C11.0195 77.4823 12.2456 78.7441 13.7737 78.7708C15.3018 78.7975 16.552 77.5785 16.6871 76.0562C17.2682 69.5054 19.4987 63.2069 23.1696 57.7503C24.0227 56.4822 23.8183 54.7481 22.6139 53.8072Z" fill="#6CD3F3"/>
<path d="M22.6139 53.8072C21.4095 52.8662 19.6626 53.0753 18.7983 54.3358C14.4004 60.7499 11.7599 68.2064 11.1411 75.9588C11.0195 77.4823 12.2456 78.7441 13.7737 78.7708C15.3018 78.7975 16.552 77.5785 16.6871 76.0562C17.2682 69.5054 19.4987 63.2069 23.1696 57.7503C24.0227 56.4822 23.8183 54.7481 22.6139 53.8072Z" stroke="white" stroke-width="2" mask="url(#path-3-outside-1)"/>
<mask id="path-4-outside-2" maskUnits="userSpaceOnUse" x="17" y="34" width="84" height="46" fill="black">
<rect fill="white" x="17" y="34" width="84" height="46"/>
<path d="M97.2294 78.9718C98.7576 78.9524 99.9897 77.6965 99.8754 76.1725C99.2261 67.5108 96.053 59.2058 90.719 52.2995C84.8199 44.6613 76.5975 39.148 67.2915 36.5907C57.9855 34.0334 48.1003 34.5708 39.1264 38.1218C31.0123 41.3326 24.0408 46.8499 19.0564 53.9634C18.1794 55.215 18.5967 56.9242 19.9005 57.7218C21.2042 58.5194 22.8998 58.1022 23.7878 56.8584C28.138 50.7653 34.1651 46.0372 41.1628 43.2681C49.0207 40.1588 57.6764 39.6882 65.8249 41.9274C73.9735 44.1667 81.1733 48.9943 86.3387 55.6825C90.9388 61.6386 93.7034 68.7827 94.3291 76.2431C94.4568 77.7661 95.7011 78.9911 97.2294 78.9718Z"/>
</mask>
<path d="M97.2294 78.9718C98.7576 78.9524 99.9897 77.6965 99.8754 76.1725C99.2261 67.5108 96.053 59.2058 90.719 52.2995C84.8199 44.6613 76.5975 39.148 67.2915 36.5907C57.9855 34.0334 48.1003 34.5708 39.1264 38.1218C31.0123 41.3326 24.0408 46.8499 19.0564 53.9634C18.1794 55.215 18.5967 56.9242 19.9005 57.7218C21.2042 58.5194 22.8998 58.1022 23.7878 56.8584C28.138 50.7653 34.1651 46.0372 41.1628 43.2681C49.0207 40.1588 57.6764 39.6882 65.8249 41.9274C73.9735 44.1667 81.1733 48.9943 86.3387 55.6825C90.9388 61.6386 93.7034 68.7827 94.3291 76.2431C94.4568 77.7661 95.7011 78.9911 97.2294 78.9718Z" fill="#6AD782"/>
<path d="M97.2294 78.9718C98.7576 78.9524 99.9897 77.6965 99.8754 76.1725C99.2261 67.5108 96.053 59.2058 90.719 52.2995C84.8199 44.6613 76.5975 39.148 67.2915 36.5907C57.9855 34.0334 48.1003 34.5708 39.1264 38.1218C31.0123 41.3326 24.0408 46.8499 19.0564 53.9634C18.1794 55.215 18.5967 56.9242 19.9005 57.7218C21.2042 58.5194 22.8998 58.1022 23.7878 56.8584C28.138 50.7653 34.1651 46.0372 41.1628 43.2681C49.0207 40.1588 57.6764 39.6882 65.8249 41.9274C73.9735 44.1667 81.1733 48.9943 86.3387 55.6825C90.9388 61.6386 93.7034 68.7827 94.3291 76.2431C94.4568 77.7661 95.7011 78.9911 97.2294 78.9718Z" stroke="white" stroke-width="2" mask="url(#path-4-outside-2)"/>
<mask id="path-5-outside-3" maskUnits="userSpaceOnUse" x="37" y="34" width="64" height="46" fill="black">
<rect fill="white" x="37" y="34" width="64" height="46"/>
<path d="M97.2294 78.9718C98.7576 78.9524 99.9897 77.6966 99.8754 76.1725C99.3968 69.7897 97.5458 63.5737 94.4363 57.9543C90.8793 51.5264 85.7863 46.079 79.6117 42.0985C73.4371 38.1179 66.3731 35.7279 59.0501 35.1418C52.6482 34.6295 46.2224 35.5097 40.2114 37.7088C38.7761 38.2338 38.1409 39.8745 38.7541 41.2744C39.3674 42.6743 40.9968 43.302 42.4366 42.7896C47.6067 40.9499 53.1176 40.2194 58.6085 40.6588C65.0208 41.172 71.2062 43.2647 76.6129 46.7502C82.0195 50.2357 86.4791 55.0056 89.5937 60.6341C92.2607 65.4538 93.8704 70.7748 94.3291 76.2432C94.4568 77.7662 95.7011 78.9911 97.2294 78.9718Z"/>
</mask>
<path d="M97.2294 78.9718C98.7576 78.9524 99.9897 77.6966 99.8754 76.1725C99.3968 69.7897 97.5458 63.5737 94.4363 57.9543C90.8793 51.5264 85.7863 46.079 79.6117 42.0985C73.4371 38.1179 66.3731 35.7279 59.0501 35.1418C52.6482 34.6295 46.2224 35.5097 40.2114 37.7088C38.7761 38.2338 38.1409 39.8745 38.7541 41.2744C39.3674 42.6743 40.9968 43.302 42.4366 42.7896C47.6067 40.9499 53.1176 40.2194 58.6085 40.6588C65.0208 41.172 71.2062 43.2647 76.6129 46.7502C82.0195 50.2357 86.4791 55.0056 89.5937 60.6341C92.2607 65.4538 93.8704 70.7748 94.3291 76.2432C94.4568 77.7662 95.7011 78.9911 97.2294 78.9718Z" fill="#FCD958"/>
<path d="M97.2294 78.9718C98.7576 78.9524 99.9897 77.6966 99.8754 76.1725C99.3968 69.7897 97.5458 63.5737 94.4363 57.9543C90.8793 51.5264 85.7863 46.079 79.6117 42.0985C73.4371 38.1179 66.3731 35.7279 59.0501 35.1418C52.6482 34.6295 46.2224 35.5097 40.2114 37.7088C38.7761 38.2338 38.1409 39.8745 38.7541 41.2744C39.3674 42.6743 40.9968 43.302 42.4366 42.7896C47.6067 40.9499 53.1176 40.2194 58.6085 40.6588C65.0208 41.172 71.2062 43.2647 76.6129 46.7502C82.0195 50.2357 86.4791 55.0056 89.5937 60.6341C92.2607 65.4538 93.8704 70.7748 94.3291 76.2432C94.4568 77.7662 95.7011 78.9911 97.2294 78.9718Z" stroke="white" stroke-width="2" mask="url(#path-5-outside-3)"/>
<mask id="path-6-outside-4" maskUnits="userSpaceOnUse" x="67" y="37" width="34" height="43" fill="black">
<rect fill="white" x="67" y="37" width="34" height="43"/>
<path d="M97.2287 78.9238C98.7569 78.9027 99.9876 77.6453 99.8716 76.1214C99.2444 67.8831 96.3335 59.9618 91.4401 53.2595C86.5467 46.5573 79.8883 41.3721 72.2324 38.2656C70.8162 37.6909 69.2438 38.4802 68.7582 39.9293C68.2727 41.3785 69.0587 42.9377 70.4697 43.5249C77.0396 46.2586 82.7533 50.7476 86.9701 56.5232C91.1869 62.2987 93.7224 69.1081 94.3253 76.1985C94.4548 77.7213 95.7005 78.9449 97.2287 78.9238Z"/>
</mask>
<path d="M97.2287 78.9238C98.7569 78.9027 99.9876 77.6453 99.8716 76.1214C99.2444 67.8831 96.3335 59.9618 91.4401 53.2595C86.5467 46.5573 79.8883 41.3721 72.2324 38.2656C70.8162 37.6909 69.2438 38.4802 68.7582 39.9293C68.2727 41.3785 69.0587 42.9377 70.4697 43.5249C77.0396 46.2586 82.7533 50.7476 86.9701 56.5232C91.1869 62.2987 93.7224 69.1081 94.3253 76.1985C94.4548 77.7213 95.7005 78.9449 97.2287 78.9238Z" fill="#FFA500"/>
<path d="M97.2287 78.9238C98.7569 78.9027 99.9876 77.6453 99.8716 76.1214C99.2444 67.8831 96.3335 59.9618 91.4401 53.2595C86.5467 46.5573 79.8883 41.3721 72.2324 38.2656C70.8162 37.6909 69.2438 38.4802 68.7582 39.9293C68.2727 41.3785 69.0587 42.9377 70.4697 43.5249C77.0396 46.2586 82.7533 50.7476 86.9701 56.5232C91.1869 62.2987 93.7224 69.1081 94.3253 76.1985C94.4548 77.7213 95.7005 78.9449 97.2287 78.9238Z" stroke="white" stroke-width="2" mask="url(#path-6-outside-4)"/>
<mask id="path-7-outside-5" maskUnits="userSpaceOnUse" x="86" y="53" width="15" height="28" fill="black">
<rect fill="white" x="86" y="53" width="15" height="28"/>
<path d="M97.2299 79.0161C98.7581 78.9984 99.9916 77.7437 99.8789 76.2195C99.3266 68.7459 96.895 61.5314 92.8108 55.2481C91.9779 53.9667 90.2366 53.7146 89.0094 54.6256C87.7822 55.5366 87.5351 57.2651 88.3567 58.5538C91.7589 63.8905 93.8103 69.977 94.3325 76.2844C94.4586 77.8075 95.7017 79.0338 97.2299 79.0161Z"/>
</mask>
<path d="M97.2299 79.0161C98.7581 78.9984 99.9916 77.7437 99.8789 76.2195C99.3266 68.7459 96.895 61.5314 92.8108 55.2481C91.9779 53.9667 90.2366 53.7146 89.0094 54.6256C87.7822 55.5366 87.5351 57.2651 88.3567 58.5538C91.7589 63.8905 93.8103 69.977 94.3325 76.2844C94.4586 77.8075 95.7017 79.0338 97.2299 79.0161Z" fill="#E85851"/>
<path d="M97.2299 79.0161C98.7581 78.9984 99.9916 77.7437 99.8789 76.2195C99.3266 68.7459 96.895 61.5314 92.8108 55.2481C91.9779 53.9667 90.2366 53.7146 89.0094 54.6256C87.7822 55.5366 87.5351 57.2651 88.3567 58.5538C91.7589 63.8905 93.8103 69.977 94.3325 76.2844C94.4586 77.8075 95.7017 79.0338 97.2299 79.0161Z" stroke="white" stroke-width="2" mask="url(#path-7-outside-5)"/>
<path d="M78.6909 51.7995L78.6419 60.394L70.1009 52.081L78.6909 51.7995Z" fill="#FFA500"/>
<path opacity="0.6" d="M20.6484 10.7368H19.1313V14.1201H17.2271V4.87793H20.6611C21.7529 4.87793 22.5951 5.12126 23.1875 5.60791C23.7799 6.09456 24.0762 6.78223 24.0762 7.6709C24.0762 8.30143 23.9386 8.82829 23.6636 9.25146C23.3927 9.67041 22.9801 10.0047 22.4258 10.2544L24.4253 14.0312V14.1201H22.3813L20.6484 10.7368ZM19.1313 9.19434H20.6675C21.1457 9.19434 21.516 9.07373 21.7783 8.83252C22.0407 8.58708 22.1719 8.25065 22.1719 7.82324C22.1719 7.38737 22.047 7.0446 21.7974 6.79492C21.5519 6.54525 21.1732 6.42041 20.6611 6.42041H19.1313V9.19434ZM27.3452 14.1201H25.5044V7.25195H27.3452V14.1201ZM25.3965 5.47461C25.3965 5.19954 25.4875 4.97314 25.6694 4.79541C25.8556 4.61768 26.1074 4.52881 26.4248 4.52881C26.738 4.52881 26.9876 4.61768 27.1738 4.79541C27.36 4.97314 27.4531 5.19954 27.4531 5.47461C27.4531 5.75391 27.3579 5.98242 27.1675 6.16016C26.9813 6.33789 26.7337 6.42676 26.4248 6.42676C26.1159 6.42676 25.8662 6.33789 25.6758 6.16016C25.4896 5.98242 25.3965 5.75391 25.3965 5.47461ZM32.582 12.2222C32.582 11.9979 32.4699 11.8223 32.2456 11.6953C32.0256 11.5641 31.6701 11.4478 31.1792 11.3462C29.5457 11.0034 28.729 10.3094 28.729 9.26416C28.729 8.65479 28.9808 8.14697 29.4844 7.74072C29.9922 7.33024 30.6545 7.125 31.4712 7.125C32.3429 7.125 33.0391 7.33024 33.5596 7.74072C34.0843 8.1512 34.3467 8.68441 34.3467 9.34033H32.5122C32.5122 9.07796 32.4276 8.86214 32.2583 8.69287C32.089 8.51937 31.8245 8.43262 31.4648 8.43262C31.1559 8.43262 30.9168 8.50244 30.7476 8.64209C30.5783 8.78174 30.4937 8.95947 30.4937 9.17529C30.4937 9.37842 30.5889 9.54346 30.7793 9.67041C30.974 9.79313 31.2998 9.90104 31.7568 9.99414C32.2139 10.083 32.599 10.1846 32.9121 10.2988C33.8812 10.6543 34.3657 11.27 34.3657 12.146C34.3657 12.7723 34.097 13.2801 33.5596 13.6694C33.0221 14.0545 32.3281 14.2471 31.4775 14.2471C30.902 14.2471 30.39 14.1455 29.9414 13.9424C29.4971 13.735 29.1479 13.4536 28.894 13.0981C28.6401 12.7384 28.5132 12.3512 28.5132 11.9365H30.2524C30.2694 12.2624 30.39 12.512 30.6143 12.6855C30.8385 12.859 31.139 12.9458 31.5156 12.9458C31.8669 12.9458 32.1313 12.8802 32.3091 12.749C32.491 12.6136 32.582 12.438 32.582 12.2222ZM38.0474 11.3652L37.3872 12.0254V14.1201H35.5527V4.37012H37.3872V9.77197L37.7427 9.31494L39.501 7.25195H41.7036L39.2217 10.1147L41.9194 14.1201H39.812L38.0474 11.3652ZM47.6704 14.1201H45.8296V7.25195H47.6704V14.1201ZM45.7217 5.47461C45.7217 5.19954 45.8127 4.97314 45.9946 4.79541C46.1808 4.61768 46.4326 4.52881 46.75 4.52881C47.0632 4.52881 47.3128 4.61768 47.499 4.79541C47.6852 4.97314 47.7783 5.19954 47.7783 5.47461C47.7783 5.75391 47.6831 5.98242 47.4927 6.16016C47.3065 6.33789 47.0589 6.42676 46.75 6.42676C46.4411 6.42676 46.1914 6.33789 46.001 6.16016C45.8148 5.98242 45.7217 5.75391 45.7217 5.47461ZM50.876 7.25195L50.9331 8.04541C51.424 7.4318 52.082 7.125 52.9072 7.125C53.6351 7.125 54.1768 7.3387 54.5322 7.76611C54.8877 8.19352 55.0697 8.83252 55.0781 9.68311V14.1201H53.2437V9.72754C53.2437 9.33822 53.159 9.0568 52.9897 8.8833C52.8205 8.70557 52.5391 8.6167 52.1455 8.6167C51.6292 8.6167 51.242 8.83675 50.9839 9.27686V14.1201H49.1494V7.25195H50.876ZM56.189 10.6353C56.189 9.56462 56.4281 8.71191 56.9062 8.07715C57.3887 7.44238 58.0467 7.125 58.8804 7.125C59.549 7.125 60.1012 7.37467 60.5371 7.87402V4.37012H62.3779V14.1201H60.7212L60.6323 13.3901C60.1753 13.9614 59.5871 14.2471 58.8677 14.2471C58.0594 14.2471 57.4098 13.9297 56.9189 13.2949C56.4323 12.6559 56.189 11.7694 56.189 10.6353ZM58.0234 10.7686C58.0234 11.4118 58.1356 11.9048 58.3599 12.2476C58.5841 12.5903 58.91 12.7617 59.3374 12.7617C59.9045 12.7617 60.3044 12.5226 60.5371 12.0444V9.33398C60.3086 8.85579 59.9129 8.6167 59.3501 8.6167C58.4657 8.6167 58.0234 9.33398 58.0234 10.7686ZM65.7358 14.1201H63.895V7.25195H65.7358V14.1201ZM63.7871 5.47461C63.7871 5.19954 63.8781 4.97314 64.0601 4.79541C64.2463 4.61768 64.498 4.52881 64.8154 4.52881C65.1286 4.52881 65.3783 4.61768 65.5645 4.79541C65.7507 4.97314 65.8438 5.19954 65.8438 5.47461C65.8438 5.75391 65.7485 5.98242 65.5581 6.16016C65.3719 6.33789 65.1243 6.42676 64.8154 6.42676C64.5065 6.42676 64.2568 6.33789 64.0664 6.16016C63.8802 5.98242 63.7871 5.75391 63.7871 5.47461ZM70.1094 12.7681C70.4479 12.7681 70.723 12.675 70.9346 12.4888C71.1462 12.3026 71.2562 12.055 71.2646 11.7461H72.9849C72.9806 12.2116 72.8537 12.639 72.604 13.0283C72.3543 13.4134 72.0116 13.7139 71.5757 13.9297C71.144 14.1413 70.6659 14.2471 70.1411 14.2471C69.1593 14.2471 68.3849 13.936 67.8179 13.314C67.2508 12.6877 66.9673 11.8244 66.9673 10.7241V10.6035C66.9673 9.54557 67.2487 8.70133 67.8115 8.0708C68.3743 7.44027 69.1466 7.125 70.1284 7.125C70.9875 7.125 71.6751 7.37044 72.1914 7.86133C72.7119 8.34798 72.9764 8.99756 72.9849 9.81006H71.2646C71.2562 9.45459 71.1462 9.16683 70.9346 8.94678C70.723 8.72249 70.4437 8.61035 70.0967 8.61035C69.6693 8.61035 69.3455 8.76693 69.1255 9.08008C68.9097 9.389 68.8018 9.89258 68.8018 10.5908V10.7812C68.8018 11.488 68.9097 11.9958 69.1255 12.3047C69.3413 12.6136 69.6693 12.7681 70.1094 12.7681ZM78.0122 14.1201C77.9276 13.9551 77.8662 13.7498 77.8281 13.5044C77.3838 13.9995 76.8062 14.2471 76.0952 14.2471C75.4224 14.2471 74.8638 14.0524 74.4194 13.6631C73.9793 13.2738 73.7593 12.7829 73.7593 12.1904C73.7593 11.4626 74.028 10.904 74.5654 10.5146C75.1071 10.1253 75.8879 9.92855 76.9077 9.92432H77.752V9.53076C77.752 9.21338 77.6694 8.95947 77.5044 8.76904C77.3436 8.57861 77.0876 8.4834 76.7363 8.4834C76.4274 8.4834 76.1841 8.55745 76.0063 8.70557C75.8328 8.85368 75.7461 9.0568 75.7461 9.31494H73.9116C73.9116 8.91715 74.0343 8.54899 74.2798 8.21045C74.5252 7.87191 74.8722 7.60742 75.3208 7.41699C75.7694 7.22233 76.2729 7.125 76.8315 7.125C77.6779 7.125 78.3486 7.3387 78.8438 7.76611C79.3431 8.18929 79.5928 8.78597 79.5928 9.55615V12.5332C79.597 13.1849 79.688 13.6779 79.8657 14.0122V14.1201H78.0122ZM76.4951 12.8442C76.766 12.8442 77.0156 12.785 77.2441 12.6665C77.4727 12.5438 77.6419 12.3809 77.752 12.1777V10.9971H77.0664C76.1481 10.9971 75.6593 11.3145 75.6001 11.9492L75.5938 12.0571C75.5938 12.2856 75.6742 12.474 75.835 12.6221C75.9958 12.7702 76.2158 12.8442 76.4951 12.8442ZM83.1982 5.56348V7.25195H84.3726V8.59766H83.1982V12.0254C83.1982 12.2793 83.2469 12.4613 83.3442 12.5713C83.4416 12.6813 83.6278 12.7363 83.9028 12.7363C84.106 12.7363 84.2858 12.7215 84.4424 12.6919V14.082C84.0827 14.1921 83.7124 14.2471 83.3315 14.2471C82.0451 14.2471 81.3892 13.5975 81.3638 12.2983V8.59766H80.3608V7.25195H81.3638V5.56348H83.1982ZM84.9185 10.6226C84.9185 9.94124 85.0496 9.33398 85.312 8.80078C85.5744 8.26758 85.951 7.85498 86.4419 7.56299C86.937 7.271 87.5104 7.125 88.1621 7.125C89.0889 7.125 89.8442 7.40853 90.4282 7.97559C91.0164 8.54264 91.3444 9.31283 91.4121 10.2861L91.4248 10.7559C91.4248 11.8096 91.1307 12.6559 90.5425 13.2949C89.9543 13.9297 89.165 14.2471 88.1748 14.2471C87.1846 14.2471 86.3932 13.9297 85.8008 13.2949C85.2126 12.6602 84.9185 11.7969 84.9185 10.7051V10.6226ZM86.7529 10.7559C86.7529 11.4076 86.8757 11.9069 87.1211 12.2539C87.3665 12.5967 87.7178 12.7681 88.1748 12.7681C88.6191 12.7681 88.9661 12.5988 89.2158 12.2603C89.4655 11.9175 89.5903 11.3716 89.5903 10.6226C89.5903 9.98356 89.4655 9.48844 89.2158 9.13721C88.9661 8.78597 88.6149 8.61035 88.1621 8.61035C87.7135 8.61035 87.3665 8.78597 87.1211 9.13721C86.8757 9.48421 86.7529 10.0238 86.7529 10.7559ZM96.4141 8.97217C96.1644 8.93831 95.9443 8.92139 95.7539 8.92139C95.0599 8.92139 94.605 9.15625 94.3892 9.62598V14.1201H92.5547V7.25195H94.2876L94.3384 8.0708C94.7065 7.44027 95.2165 7.125 95.8682 7.125C96.0713 7.125 96.2617 7.15251 96.4395 7.20752L96.4141 8.97217Z" fill="#222222"/>
</g>
<defs>
<clipPath id="clip0">
<path d="M0 5C0 2.23858 2.23858 0 5 0H108C110.761 0 113 2.23858 113 5V75C113 77.7614 110.761 80 108 80H5C2.23858 80 0 77.7614 0 75V5Z" fill="white"/>
</clipPath>
</defs>
</svg>
