<svg width="114" height="20" viewBox="0 0 114 20" fill="none" xmlns="http://www.w3.org/2000/svg">
<rect y="2" width="114" height="18" rx="3" fill="#42402B"/>
<path d="M51.4941 15.6035L49.8301 15.6035L47.457 9.91406L46.4668 15.6035L44.75 15.6035L46.2324 7.07227L47.8906 7.07227L50.2695 12.7734L51.2598 7.07227L52.9707 7.07227L51.4941 15.6035ZM58.666 11.9062L55.3965 11.9062L54.998 14.1914L58.8418 14.1914L58.5957 15.6035L53.0352 15.6035L54.5176 7.07227L60.0664 7.07227L59.8145 8.49609L55.9883 8.49609L55.6309 10.5293L58.9121 10.5293L58.666 11.9062ZM66.5234 13.125L68.5801 7.07227L70.332 7.07227L67.1621 15.6035L65.4336 15.6035L64.9824 9.91992L62.75 15.6035L61.0215 15.6035L60.5176 7.07227L62.1934 7.07227L62.3633 13.0957L64.6602 7.07227L66.1191 7.07227L66.5234 13.125Z" fill="#F4E968"/>
<line x1="56" y1="0.75" x2="107" y2="0.75" stroke="#757575" stroke-width="0.5"/>
</svg>
