<svg width="114" height="20" viewBox="0 0 114 20" fill="none" xmlns="http://www.w3.org/2000/svg">
<rect y="2" width="114" height="18" rx="3" fill="#42402B"/>
<path d="M13.4551 7.07227L12.4941 12.6973C12.3613 13.6387 11.9707 14.3828 11.3223 14.9297C10.6738 15.4766 9.86914 15.7422 8.9082 15.7266C8.30664 15.7148 7.7832 15.584 7.33789 15.334C6.89648 15.0801 6.57031 14.7246 6.35938 14.2676C6.14844 13.8066 6.07617 13.2852 6.14258 12.7031L7.09766 7.07227L8.81445 7.07227L7.85938 12.709C7.83203 12.9277 7.83008 13.1328 7.85352 13.3242C7.93164 13.957 8.30859 14.2852 8.98438 14.3086C9.46875 14.3242 9.86523 14.1914 10.1738 13.9102C10.4824 13.6289 10.6816 13.2266 10.7715 12.7031L11.7324 7.07227L13.4551 7.07227ZM15.6406 12.5977L15.1133 15.6035L13.3965 15.6035L14.8789 7.07227L17.8672 7.07812C18.7891 7.07812 19.5137 7.33398 20.041 7.8457C20.5684 8.35742 20.7988 9.02539 20.7324 9.84961C20.6699 10.6855 20.3203 11.3535 19.6836 11.8535C19.0508 12.3535 18.2422 12.6035 17.2578 12.6035L15.6406 12.5977ZM15.8809 11.1738L17.3105 11.1855C17.7715 11.1855 18.1543 11.0664 18.459 10.8281C18.7637 10.5898 18.9453 10.2676 19.0039 9.86133C19.0625 9.45508 18.9961 9.13086 18.8047 8.88867C18.6172 8.64648 18.3379 8.51758 17.9668 8.50195L16.3496 8.49609L15.8809 11.1738ZM20.9668 15.6035L22.4492 7.07227L24.8984 7.07812C25.4727 7.08984 25.9883 7.2207 26.4453 7.4707C26.9063 7.7168 27.2793 8.07227 27.5645 8.53711C27.8496 9.00195 28.0215 9.52539 28.0801 10.1074C28.1113 10.4473 28.1074 10.7949 28.0684 11.1504L28.0273 11.4609C27.8555 12.7109 27.3633 13.7148 26.5508 14.4727C25.7422 15.2266 24.7598 15.6035 23.6035 15.6035L20.9668 15.6035ZM23.9199 8.49609L22.9297 14.1914L23.6445 14.1973C24.4336 14.1973 25.0664 13.9082 25.543 13.3301C26.0234 12.752 26.2988 11.8789 26.3691 10.7109L26.3809 10.5234C26.3926 9.87891 26.2695 9.38477 26.0117 9.04102C25.7539 8.69727 25.3691 8.51758 24.8574 8.50195L23.9199 8.49609ZM33.4824 13.8457L30.5059 13.8457L29.627 15.6035L27.7344 15.6035L32.293 7.07227L33.8809 7.07227L35.5039 15.6035L33.752 15.6035L33.4824 13.8457ZM31.209 12.4219L33.2656 12.4219L32.7852 9.24609L31.209 12.4219ZM43.1328 8.49609L40.6016 8.49609L39.3711 15.6035L37.6543 15.6035L38.8848 8.49609L36.3828 8.49609L36.6348 7.07227L43.3848 7.07227L43.1328 8.49609ZM48.5586 11.9062L45.2891 11.9062L44.8906 14.1914L48.7344 14.1914L48.4883 15.6035L42.9277 15.6035L44.4102 7.07227L49.959 7.07227L49.707 8.49609L45.8809 8.49609L45.5234 10.5293L48.8047 10.5293L48.5586 11.9062ZM49.5371 15.6035L51.0195 7.07227L53.4688 7.07812C54.043 7.08984 54.5586 7.2207 55.0156 7.4707C55.4766 7.7168 55.8496 8.07227 56.1348 8.53711C56.4199 9.00195 56.5918 9.52539 56.6504 10.1074C56.6816 10.4473 56.6777 10.7949 56.6387 11.1504L56.5977 11.4609C56.4258 12.7109 55.9336 13.7148 55.1211 14.4727C54.3125 15.2266 53.3301 15.6035 52.1738 15.6035L49.5371 15.6035ZM52.4902 8.49609L51.5 14.1914L52.2148 14.1973C53.0039 14.1973 53.6367 13.9082 54.1133 13.3301C54.5938 12.752 54.8691 11.8789 54.9395 10.7109L54.9512 10.5234C54.9629 9.87891 54.8398 9.38477 54.582 9.04102C54.3242 8.69727 53.9395 8.51758 53.4277 8.50195L52.4902 8.49609ZM63.5586 13.4707L66.4297 7.07227L68.3984 7.07227L64.1855 15.6035L62.3926 15.6035L60.8574 7.07227L62.7031 7.07227L63.5586 13.4707ZM73.4375 11.9062L70.168 11.9062L69.7695 14.1914L73.6133 14.1914L73.3672 15.6035L67.8066 15.6035L69.2891 7.07227L74.8379 7.07227L74.5859 8.49609L70.7598 8.49609L70.4023 10.5293L73.6836 10.5293L73.4375 11.9062ZM78.0723 12.4805L76.6777 12.4805L76.1328 15.6035L74.416 15.6035L75.8984 7.07227L78.7227 7.07812C79.668 7.07812 80.3945 7.30078 80.9023 7.74609C81.4141 8.19141 81.6406 8.81055 81.582 9.60351C81.5 10.7754 80.875 11.5898 79.707 12.0469L80.9082 15.5098L80.9082 15.6035L79.0801 15.6035L78.0723 12.4805ZM76.9238 11.0566L78.2012 11.0684C78.6543 11.0605 79.0273 10.9395 79.3203 10.7051C79.6172 10.4668 79.7949 10.1445 79.8535 9.73828C79.9082 9.35937 79.8477 9.0625 79.6719 8.84766C79.4961 8.63281 79.2168 8.51758 78.834 8.50195L77.3691 8.49609L76.9238 11.0566ZM86.5977 13.3242C86.6797 12.8594 86.4512 12.5039 85.9121 12.2578L84.7813 11.8066C83.4688 11.2207 82.8457 10.4141 82.9121 9.38672C82.9395 8.91016 83.0957 8.48828 83.3809 8.12109C83.666 7.75391 84.0664 7.4668 84.582 7.25976C85.0977 7.04883 85.6543 6.94726 86.252 6.95508C87.0762 6.9707 87.7422 7.2168 88.25 7.69336C88.7578 8.16601 89.0078 8.80078 89 9.59766L87.2891 9.59766C87.3086 9.21094 87.2227 8.91016 87.0313 8.69531C86.8438 8.48047 86.5508 8.36914 86.1523 8.36133C85.7617 8.35351 85.4219 8.44336 85.1328 8.63086C84.8438 8.81445 84.6719 9.06836 84.6172 9.39258C84.543 9.81836 84.8281 10.1562 85.4727 10.4062L86.2461 10.6992L86.6914 10.9043C87.8438 11.4746 88.3828 12.2754 88.3086 13.3066C88.2734 13.8105 88.1113 14.2461 87.8223 14.6133C87.5371 14.9766 87.1465 15.2559 86.6504 15.4512C86.1582 15.6465 85.6152 15.7383 85.0215 15.7266C84.416 15.7148 83.877 15.5879 83.4043 15.3457C82.9316 15.1035 82.5723 14.7617 82.3262 14.3203C82.0957 13.9102 81.9883 13.4414 82.0039 12.9141L83.7207 12.9199C83.666 13.8457 84.1211 14.3164 85.0859 14.332C85.5039 14.332 85.8477 14.2402 86.1172 14.0566C86.3867 13.873 86.5469 13.6289 86.5977 13.3242ZM90.9512 15.6035L89.2344 15.6035L90.7109 7.07226L92.4277 7.07226L90.9512 15.6035ZM96.0078 15.7207C95.4414 15.709 94.9414 15.5762 94.5078 15.3223C94.0781 15.0645 93.7363 14.6953 93.4824 14.2148C93.2324 13.7305 93.0879 13.1758 93.0488 12.5508C93.0059 11.9102 93.0742 11.2266 93.2539 10.5C93.4336 9.77344 93.7227 9.13476 94.1211 8.58398C94.5195 8.0332 94.9863 7.62109 95.5215 7.34766C96.0605 7.07422 96.6426 6.94336 97.2676 6.95508C97.8418 6.9668 98.3438 7.10351 98.7734 7.36523C99.2031 7.62305 99.541 7.99609 99.7871 8.48437C100.033 8.96875 100.174 9.51953 100.209 10.1367C100.248 10.8242 100.174 11.5312 99.9863 12.2578C99.7988 12.9844 99.5078 13.6133 99.1133 14.1445C98.7188 14.6758 98.2559 15.0742 97.7246 15.3398C97.1973 15.6055 96.625 15.7324 96.0078 15.7207ZM98.4395 11.1035L98.4863 10.5469C98.5254 9.85156 98.4316 9.32422 98.2051 8.96484C97.9824 8.60547 97.6426 8.41797 97.1855 8.40234C96.4707 8.37891 95.9023 8.69531 95.4805 9.35156C95.0625 10.0078 94.8262 10.9258 94.7715 12.1055C94.7324 12.7969 94.8242 13.3301 95.0469 13.7051C95.2695 14.0762 95.6152 14.2695 96.084 14.2852C96.6973 14.3125 97.2051 14.0742 97.6074 13.5703C98.0098 13.0625 98.2734 12.3457 98.3984 11.4199L98.4395 11.1035ZM107.422 15.6035L105.758 15.6035L103.385 9.91406L102.395 15.6035L100.678 15.6035L102.16 7.07226L103.818 7.07226L106.197 12.7734L107.188 7.07226L108.898 7.07226L107.422 15.6035Z" fill="#F4E968"/>
<line x1="56" y1="0.75" x2="107" y2="0.75" stroke="#757575" stroke-width="0.5"/>
</svg>
