<svg width="114" height="20" viewBox="0 0 114 20" fill="none" xmlns="http://www.w3.org/2000/svg">
<rect y="2" width="114" height="18" rx="3" fill="#42402B"/>
<path d="M30.6719 15.6035L32.1543 7.07227L34.6035 7.07812C35.1777 7.08984 35.6934 7.2207 36.1504 7.4707C36.6113 7.7168 36.9844 8.07227 37.2695 8.53711C37.5547 9.00195 37.7266 9.52539 37.7852 10.1074C37.8164 10.4473 37.8125 10.7949 37.7734 11.1504L37.7324 11.4609C37.5605 12.7109 37.0684 13.7148 36.2559 14.4727C35.4473 15.2266 34.4648 15.6035 33.3086 15.6035L30.6719 15.6035ZM33.625 8.49609L32.6348 14.1914L33.3496 14.1973C34.1387 14.1973 34.7715 13.9082 35.248 13.3301C35.7285 12.752 36.0039 11.8789 36.0742 10.7109L36.0859 10.5234C36.0977 9.87891 35.9746 9.38477 35.7168 9.04102C35.459 8.69727 35.0742 8.51758 34.5625 8.50195L33.625 8.49609ZM40.1289 15.6035L38.4121 15.6035L39.8887 7.07227L41.6055 7.07227L40.1289 15.6035ZM46.4512 13.3242C46.5332 12.8594 46.3047 12.5039 45.7656 12.2578L44.6348 11.8066C43.3223 11.2207 42.6992 10.4141 42.7656 9.38672C42.793 8.91016 42.9492 8.48828 43.2344 8.12109C43.5195 7.75391 43.9199 7.4668 44.4355 7.25977C44.9512 7.04883 45.5078 6.94727 46.1055 6.95508C46.9297 6.9707 47.5957 7.2168 48.1035 7.69336C48.6113 8.16602 48.8613 8.80078 48.8535 9.59766L47.1426 9.59766C47.1621 9.21094 47.0762 8.91016 46.8848 8.69531C46.6973 8.48047 46.4043 8.36914 46.0059 8.36133C45.6152 8.35352 45.2754 8.44336 44.9863 8.63086C44.6973 8.81445 44.5254 9.06836 44.4707 9.39258C44.3965 9.81836 44.6816 10.1562 45.3262 10.4062L46.0996 10.6992L46.5449 10.9043C47.6973 11.4746 48.2363 12.2754 48.1621 13.3066C48.127 13.8105 47.9648 14.2461 47.6758 14.6133C47.3906 14.9766 47 15.2559 46.5039 15.4512C46.0117 15.6465 45.4688 15.7383 44.875 15.7266C44.2695 15.7148 43.7305 15.5879 43.2578 15.3457C42.7852 15.1035 42.4258 14.7617 42.1797 14.3203C41.9492 13.9102 41.8418 13.4414 41.8574 12.9141L43.5742 12.9199C43.5195 13.8457 43.9746 14.3164 44.9395 14.332C45.3574 14.332 45.7012 14.2402 45.9707 14.0566C46.2402 13.873 46.4004 13.6289 46.4512 13.3242ZM53.9922 13.8457L51.0156 13.8457L50.1367 15.6035L48.2441 15.6035L52.8027 7.07227L54.3906 7.07227L56.0137 15.6035L54.2617 15.6035L53.9922 13.8457ZM51.7188 12.4219L53.7754 12.4219L53.2949 9.24609L51.7188 12.4219ZM56.875 15.6035L58.3574 7.07227L61.0176 7.07812C62.0059 7.08203 62.748 7.2832 63.2441 7.68164C63.7402 8.08008 63.9648 8.64062 63.918 9.36328C63.8633 10.2266 63.3652 10.8574 62.4238 11.2559C62.7637 11.373 63.0273 11.5937 63.2148 11.918C63.4023 12.2383 63.4824 12.6172 63.4551 13.0547C63.4004 13.8594 63.084 14.4863 62.5059 14.9355C61.9316 15.3809 61.1465 15.6035 60.1504 15.6035L56.875 15.6035ZM59.2422 11.8887L58.8379 14.1914L60.1914 14.1973C60.6133 14.1973 60.9668 14.0937 61.252 13.8867C61.5371 13.6758 61.707 13.3926 61.7617 13.0371C61.8164 12.6855 61.7676 12.4121 61.6152 12.2168C61.4668 12.0176 61.2148 11.9102 60.8594 11.8945L59.2422 11.8887ZM59.4531 10.6465L60.6191 10.6582C61.0527 10.6504 61.4063 10.5488 61.6797 10.3535C61.957 10.1582 62.123 9.88672 62.1777 9.53906C62.2754 8.85156 61.9141 8.50586 61.0938 8.50195L59.8281 8.49609L59.4531 10.6465ZM66.3262 14.1914L69.9473 14.1914L69.7012 15.6035L64.3633 15.6035L65.8457 7.07227L67.5625 7.07227L66.3262 14.1914ZM76.3574 11.9062L73.0879 11.9062L72.6895 14.1914L76.5332 14.1914L76.2871 15.6035L70.7266 15.6035L72.209 7.07227L77.7578 7.07227L77.5059 8.49609L73.6797 8.49609L73.3223 10.5293L76.6035 10.5293L76.3574 11.9062ZM77.3359 15.6035L78.8184 7.07227L81.2676 7.07812C81.8418 7.08984 82.3574 7.2207 82.8145 7.4707C83.2754 7.7168 83.6484 8.07227 83.9336 8.53711C84.2188 9.00195 84.3906 9.52539 84.4492 10.1074C84.4805 10.4473 84.4766 10.7949 84.4375 11.1504L84.3965 11.4609C84.2246 12.7109 83.7324 13.7148 82.9199 14.4727C82.1113 15.2266 81.1289 15.6035 79.9727 15.6035L77.3359 15.6035ZM80.2891 8.49609L79.2988 14.1914L80.0137 14.1973C80.8027 14.1973 81.4355 13.9082 81.9121 13.3301C82.3926 12.752 82.668 11.8789 82.7383 10.7109L82.75 10.5234C82.7617 9.87891 82.6387 9.38477 82.3809 9.04102C82.123 8.69727 81.7383 8.51758 81.2266 8.50195L80.2891 8.49609Z" fill="#F4E968"/>
<line x1="56" y1="0.75" x2="107" y2="0.75" stroke="#757575" stroke-width="0.5"/>
</svg>
