<svg width="113" height="83" viewBox="0 0 113 83" fill="none" xmlns="http://www.w3.org/2000/svg">
<g clip-path="url(#clip0)">
<path d="M52.418 78H51.1875V74.8408H48.0088V78H46.7734V70.8906H48.0088V73.8496H51.1875V70.8906H52.418V78ZM55.0303 78H53.8438V72.7168H55.0303V78ZM53.7705 71.3447C53.7705 71.1624 53.8275 71.0111 53.9414 70.8906C54.0586 70.7702 54.2246 70.71 54.4395 70.71C54.6543 70.71 54.8203 70.7702 54.9375 70.8906C55.0547 71.0111 55.1133 71.1624 55.1133 71.3447C55.1133 71.5238 55.0547 71.6735 54.9375 71.7939C54.8203 71.9111 54.6543 71.9697 54.4395 71.9697C54.2246 71.9697 54.0586 71.9111 53.9414 71.7939C53.8275 71.6735 53.7705 71.5238 53.7705 71.3447ZM56.1191 75.3193C56.1191 74.499 56.3112 73.8447 56.6953 73.3564C57.0827 72.8649 57.5954 72.6191 58.2334 72.6191C58.8356 72.6191 59.3092 72.8291 59.6543 73.249L59.708 72.7168H60.7773V77.8389C60.7773 78.5322 60.5609 79.0791 60.1279 79.4795C59.6982 79.8799 59.1172 80.0801 58.3848 80.0801C57.9974 80.0801 57.6182 79.9987 57.2471 79.8359C56.8792 79.6764 56.5993 79.4665 56.4072 79.2061L56.9688 78.4932C57.3333 78.9261 57.7826 79.1426 58.3164 79.1426C58.7103 79.1426 59.0212 79.0352 59.249 78.8203C59.4769 78.6087 59.5908 78.2962 59.5908 77.8828V77.5264C59.249 77.9072 58.7933 78.0977 58.2236 78.0977C57.6051 78.0977 57.099 77.8519 56.7051 77.3604C56.3145 76.8688 56.1191 76.1885 56.1191 75.3193ZM57.3008 75.4219C57.3008 75.9525 57.4082 76.3708 57.623 76.6768C57.8411 76.9795 58.1423 77.1309 58.5264 77.1309C59.0049 77.1309 59.3597 76.9258 59.5908 76.5156V74.1914C59.3662 73.791 59.0146 73.5908 58.5361 73.5908C58.1455 73.5908 57.8411 73.7454 57.623 74.0547C57.4082 74.3639 57.3008 74.8197 57.3008 75.4219ZM63.1699 73.293C63.5573 72.8438 64.0472 72.6191 64.6396 72.6191C65.766 72.6191 66.3372 73.262 66.3535 74.5479V78H65.167V74.5918C65.167 74.2272 65.0872 73.9701 64.9277 73.8203C64.7715 73.6673 64.5404 73.5908 64.2344 73.5908C63.7591 73.5908 63.4043 73.8024 63.1699 74.2256V78H61.9834V70.5H63.1699V73.293Z" fill="black"/>
<mask id="path-3-outside-1" maskUnits="userSpaceOnUse" x="10" y="52" width="15" height="28" fill="black">
<rect fill="white" x="10" y="52" width="15" height="28"/>
<path d="M22.6139 53.8072C21.4095 52.8662 19.6626 53.0753 18.7983 54.3358C14.4004 60.7499 11.7599 68.2064 11.1411 75.9588C11.0195 77.4823 12.2456 78.7441 13.7737 78.7708C15.3018 78.7975 16.552 77.5785 16.6871 76.0562C17.2682 69.5054 19.4987 63.2069 23.1696 57.7503C24.0227 56.4822 23.8183 54.7481 22.6139 53.8072Z"/>
</mask>
<path d="M22.6139 53.8072C21.4095 52.8662 19.6626 53.0753 18.7983 54.3358C14.4004 60.7499 11.7599 68.2064 11.1411 75.9588C11.0195 77.4823 12.2456 78.7441 13.7737 78.7708C15.3018 78.7975 16.552 77.5785 16.6871 76.0562C17.2682 69.5054 19.4987 63.2069 23.1696 57.7503C24.0227 56.4822 23.8183 54.7481 22.6139 53.8072Z" fill="#6CD3F3"/>
<path d="M22.6139 53.8072C21.4095 52.8662 19.6626 53.0753 18.7983 54.3358C14.4004 60.7499 11.7599 68.2064 11.1411 75.9588C11.0195 77.4823 12.2456 78.7441 13.7737 78.7708C15.3018 78.7975 16.552 77.5785 16.6871 76.0562C17.2682 69.5054 19.4987 63.2069 23.1696 57.7503C24.0227 56.4822 23.8183 54.7481 22.6139 53.8072Z" stroke="white" stroke-width="2" mask="url(#path-3-outside-1)"/>
<mask id="path-4-outside-2" maskUnits="userSpaceOnUse" x="17" y="34" width="84" height="46" fill="black">
<rect fill="white" x="17" y="34" width="84" height="46"/>
<path d="M97.2294 78.9718C98.7576 78.9524 99.9897 77.6965 99.8754 76.1725C99.2261 67.5108 96.053 59.2058 90.719 52.2995C84.8199 44.6613 76.5975 39.148 67.2915 36.5907C57.9855 34.0334 48.1003 34.5708 39.1264 38.1218C31.0123 41.3326 24.0408 46.8499 19.0564 53.9634C18.1794 55.215 18.5967 56.9242 19.9005 57.7218C21.2042 58.5194 22.8998 58.1022 23.7878 56.8584C28.138 50.7653 34.1651 46.0372 41.1628 43.2681C49.0207 40.1588 57.6764 39.6882 65.8249 41.9274C73.9735 44.1667 81.1733 48.9943 86.3387 55.6825C90.9388 61.6386 93.7034 68.7827 94.3291 76.2431C94.4568 77.7661 95.7011 78.9911 97.2294 78.9718Z"/>
</mask>
<path d="M97.2294 78.9718C98.7576 78.9524 99.9897 77.6965 99.8754 76.1725C99.2261 67.5108 96.053 59.2058 90.719 52.2995C84.8199 44.6613 76.5975 39.148 67.2915 36.5907C57.9855 34.0334 48.1003 34.5708 39.1264 38.1218C31.0123 41.3326 24.0408 46.8499 19.0564 53.9634C18.1794 55.215 18.5967 56.9242 19.9005 57.7218C21.2042 58.5194 22.8998 58.1022 23.7878 56.8584C28.138 50.7653 34.1651 46.0372 41.1628 43.2681C49.0207 40.1588 57.6764 39.6882 65.8249 41.9274C73.9735 44.1667 81.1733 48.9943 86.3387 55.6825C90.9388 61.6386 93.7034 68.7827 94.3291 76.2431C94.4568 77.7661 95.7011 78.9911 97.2294 78.9718Z" fill="#6AD782"/>
<path d="M97.2294 78.9718C98.7576 78.9524 99.9897 77.6965 99.8754 76.1725C99.2261 67.5108 96.053 59.2058 90.719 52.2995C84.8199 44.6613 76.5975 39.148 67.2915 36.5907C57.9855 34.0334 48.1003 34.5708 39.1264 38.1218C31.0123 41.3326 24.0408 46.8499 19.0564 53.9634C18.1794 55.215 18.5967 56.9242 19.9005 57.7218C21.2042 58.5194 22.8998 58.1022 23.7878 56.8584C28.138 50.7653 34.1651 46.0372 41.1628 43.2681C49.0207 40.1588 57.6764 39.6882 65.8249 41.9274C73.9735 44.1667 81.1733 48.9943 86.3387 55.6825C90.9388 61.6386 93.7034 68.7827 94.3291 76.2431C94.4568 77.7661 95.7011 78.9911 97.2294 78.9718Z" stroke="white" stroke-width="2" mask="url(#path-4-outside-2)"/>
<mask id="path-5-outside-3" maskUnits="userSpaceOnUse" x="37" y="34" width="64" height="46" fill="black">
<rect fill="white" x="37" y="34" width="64" height="46"/>
<path d="M97.2294 78.9718C98.7576 78.9524 99.9897 77.6966 99.8754 76.1725C99.3968 69.7897 97.5458 63.5737 94.4363 57.9543C90.8793 51.5264 85.7863 46.079 79.6117 42.0985C73.4371 38.1179 66.3731 35.7279 59.0501 35.1418C52.6482 34.6295 46.2224 35.5097 40.2114 37.7088C38.7761 38.2338 38.1409 39.8745 38.7541 41.2744C39.3674 42.6743 40.9968 43.302 42.4366 42.7896C47.6067 40.9499 53.1176 40.2194 58.6085 40.6588C65.0208 41.172 71.2062 43.2647 76.6129 46.7502C82.0195 50.2357 86.4791 55.0056 89.5937 60.6341C92.2607 65.4538 93.8704 70.7748 94.3291 76.2432C94.4568 77.7662 95.7011 78.9911 97.2294 78.9718Z"/>
</mask>
<path d="M97.2294 78.9718C98.7576 78.9524 99.9897 77.6966 99.8754 76.1725C99.3968 69.7897 97.5458 63.5737 94.4363 57.9543C90.8793 51.5264 85.7863 46.079 79.6117 42.0985C73.4371 38.1179 66.3731 35.7279 59.0501 35.1418C52.6482 34.6295 46.2224 35.5097 40.2114 37.7088C38.7761 38.2338 38.1409 39.8745 38.7541 41.2744C39.3674 42.6743 40.9968 43.302 42.4366 42.7896C47.6067 40.9499 53.1176 40.2194 58.6085 40.6588C65.0208 41.172 71.2062 43.2647 76.6129 46.7502C82.0195 50.2357 86.4791 55.0056 89.5937 60.6341C92.2607 65.4538 93.8704 70.7748 94.3291 76.2432C94.4568 77.7662 95.7011 78.9911 97.2294 78.9718Z" fill="#FCD958"/>
<path d="M97.2294 78.9718C98.7576 78.9524 99.9897 77.6966 99.8754 76.1725C99.3968 69.7897 97.5458 63.5737 94.4363 57.9543C90.8793 51.5264 85.7863 46.079 79.6117 42.0985C73.4371 38.1179 66.3731 35.7279 59.0501 35.1418C52.6482 34.6295 46.2224 35.5097 40.2114 37.7088C38.7761 38.2338 38.1409 39.8745 38.7541 41.2744C39.3674 42.6743 40.9968 43.302 42.4366 42.7896C47.6067 40.9499 53.1176 40.2194 58.6085 40.6588C65.0208 41.172 71.2062 43.2647 76.6129 46.7502C82.0195 50.2357 86.4791 55.0056 89.5937 60.6341C92.2607 65.4538 93.8704 70.7748 94.3291 76.2432C94.4568 77.7662 95.7011 78.9911 97.2294 78.9718Z" stroke="white" stroke-width="2" mask="url(#path-5-outside-3)"/>
<mask id="path-6-outside-4" maskUnits="userSpaceOnUse" x="67" y="37" width="34" height="43" fill="black">
<rect fill="white" x="67" y="37" width="34" height="43"/>
<path d="M97.2287 78.9238C98.7569 78.9027 99.9876 77.6453 99.8716 76.1214C99.2444 67.8831 96.3335 59.9618 91.4401 53.2595C86.5467 46.5573 79.8883 41.3721 72.2324 38.2656C70.8162 37.6909 69.2438 38.4802 68.7582 39.9293C68.2727 41.3785 69.0587 42.9377 70.4697 43.5249C77.0396 46.2586 82.7533 50.7476 86.9701 56.5232C91.1869 62.2987 93.7224 69.1081 94.3253 76.1985C94.4548 77.7213 95.7005 78.9449 97.2287 78.9238Z"/>
</mask>
<path d="M97.2287 78.9238C98.7569 78.9027 99.9876 77.6453 99.8716 76.1214C99.2444 67.8831 96.3335 59.9618 91.4401 53.2595C86.5467 46.5573 79.8883 41.3721 72.2324 38.2656C70.8162 37.6909 69.2438 38.4802 68.7582 39.9293C68.2727 41.3785 69.0587 42.9377 70.4697 43.5249C77.0396 46.2586 82.7533 50.7476 86.9701 56.5232C91.1869 62.2987 93.7224 69.1081 94.3253 76.1985C94.4548 77.7213 95.7005 78.9449 97.2287 78.9238Z" fill="#FFA500"/>
<path d="M97.2287 78.9238C98.7569 78.9027 99.9876 77.6453 99.8716 76.1214C99.2444 67.8831 96.3335 59.9618 91.4401 53.2595C86.5467 46.5573 79.8883 41.3721 72.2324 38.2656C70.8162 37.6909 69.2438 38.4802 68.7582 39.9293C68.2727 41.3785 69.0587 42.9377 70.4697 43.5249C77.0396 46.2586 82.7533 50.7476 86.9701 56.5232C91.1869 62.2987 93.7224 69.1081 94.3253 76.1985C94.4548 77.7213 95.7005 78.9449 97.2287 78.9238Z" stroke="white" stroke-width="2" mask="url(#path-6-outside-4)"/>
<mask id="path-7-outside-5" maskUnits="userSpaceOnUse" x="86" y="53" width="15" height="28" fill="black">
<rect fill="white" x="86" y="53" width="15" height="28"/>
<path d="M97.2299 79.0161C98.7581 78.9984 99.9916 77.7437 99.8789 76.2195C99.3266 68.7459 96.895 61.5314 92.8108 55.2481C91.9779 53.9667 90.2366 53.7146 89.0094 54.6256C87.7822 55.5366 87.5351 57.2651 88.3567 58.5538C91.7589 63.8905 93.8103 69.977 94.3325 76.2844C94.4586 77.8075 95.7017 79.0338 97.2299 79.0161Z"/>
</mask>
<path d="M97.2299 79.0161C98.7581 78.9984 99.9916 77.7437 99.8789 76.2195C99.3266 68.7459 96.895 61.5314 92.8108 55.2481C91.9779 53.9667 90.2366 53.7146 89.0094 54.6256C87.7822 55.5366 87.5351 57.2651 88.3567 58.5538C91.7589 63.8905 93.8103 69.977 94.3325 76.2844C94.4586 77.8075 95.7017 79.0338 97.2299 79.0161Z" fill="#E85851"/>
<path d="M97.2299 79.0161C98.7581 78.9984 99.9916 77.7437 99.8789 76.2195C99.3266 68.7459 96.895 61.5314 92.8108 55.2481C91.9779 53.9667 90.2366 53.7146 89.0094 54.6256C87.7822 55.5366 87.5351 57.2651 88.3567 58.5538C91.7589 63.8905 93.8103 69.977 94.3325 76.2844C94.4586 77.8075 95.7017 79.0338 97.2299 79.0161Z" stroke="white" stroke-width="2" mask="url(#path-7-outside-5)"/>
<path opacity="0.6" d="M20.6484 10.9287H19.1313V14.312H17.2271V5.06982H20.6611C21.7529 5.06982 22.5951 5.31315 23.1875 5.7998C23.7799 6.28646 24.0762 6.97412 24.0762 7.86279C24.0762 8.49333 23.9386 9.02018 23.6636 9.44336C23.3927 9.8623 22.9801 10.1966 22.4258 10.4463L24.4253 14.2231V14.312H22.3813L20.6484 10.9287ZM19.1313 9.38623H20.6675C21.1457 9.38623 21.516 9.26562 21.7783 9.02441C22.0407 8.77897 22.1719 8.44255 22.1719 8.01514C22.1719 7.57926 22.047 7.23649 21.7974 6.98682C21.5519 6.73714 21.1732 6.6123 20.6611 6.6123H19.1313V9.38623ZM27.3452 14.312H25.5044V7.44385H27.3452V14.312ZM25.3965 5.6665C25.3965 5.39144 25.4875 5.16504 25.6694 4.9873C25.8556 4.80957 26.1074 4.7207 26.4248 4.7207C26.738 4.7207 26.9876 4.80957 27.1738 4.9873C27.36 5.16504 27.4531 5.39144 27.4531 5.6665C27.4531 5.9458 27.3579 6.17432 27.1675 6.35205C26.9813 6.52979 26.7337 6.61865 26.4248 6.61865C26.1159 6.61865 25.8662 6.52979 25.6758 6.35205C25.4896 6.17432 25.3965 5.9458 25.3965 5.6665ZM32.582 12.4141C32.582 12.1898 32.4699 12.0142 32.2456 11.8872C32.0256 11.756 31.6701 11.6396 31.1792 11.5381C29.5457 11.1953 28.729 10.5013 28.729 9.45605C28.729 8.84668 28.9808 8.33887 29.4844 7.93262C29.9922 7.52214 30.6545 7.31689 31.4712 7.31689C32.3429 7.31689 33.0391 7.52214 33.5596 7.93262C34.0843 8.3431 34.3467 8.8763 34.3467 9.53223H32.5122C32.5122 9.26986 32.4276 9.05404 32.2583 8.88477C32.089 8.71126 31.8245 8.62451 31.4648 8.62451C31.1559 8.62451 30.9168 8.69434 30.7476 8.83398C30.5783 8.97363 30.4937 9.15137 30.4937 9.36719C30.4937 9.57031 30.5889 9.73535 30.7793 9.8623C30.974 9.98503 31.2998 10.0929 31.7568 10.186C32.2139 10.2749 32.599 10.3765 32.9121 10.4907C33.8812 10.8462 34.3657 11.4619 34.3657 12.3379C34.3657 12.9642 34.097 13.472 33.5596 13.8613C33.0221 14.2464 32.3281 14.439 31.4775 14.439C30.902 14.439 30.39 14.3374 29.9414 14.1343C29.4971 13.9269 29.1479 13.6455 28.894 13.29C28.6401 12.9303 28.5132 12.5431 28.5132 12.1284H30.2524C30.2694 12.4543 30.39 12.7039 30.6143 12.8774C30.8385 13.0509 31.139 13.1377 31.5156 13.1377C31.8669 13.1377 32.1313 13.0721 32.3091 12.9409C32.491 12.8055 32.582 12.6299 32.582 12.4141ZM38.0474 11.5571L37.3872 12.2173V14.312H35.5527V4.56201H37.3872V9.96387L37.7427 9.50684L39.501 7.44385H41.7036L39.2217 10.3066L41.9194 14.312H39.812L38.0474 11.5571ZM47.6704 14.312H45.8296V7.44385H47.6704V14.312ZM45.7217 5.6665C45.7217 5.39144 45.8127 5.16504 45.9946 4.9873C46.1808 4.80957 46.4326 4.7207 46.75 4.7207C47.0632 4.7207 47.3128 4.80957 47.499 4.9873C47.6852 5.16504 47.7783 5.39144 47.7783 5.6665C47.7783 5.9458 47.6831 6.17432 47.4927 6.35205C47.3065 6.52979 47.0589 6.61865 46.75 6.61865C46.4411 6.61865 46.1914 6.52979 46.001 6.35205C45.8148 6.17432 45.7217 5.9458 45.7217 5.6665ZM50.876 7.44385L50.9331 8.2373C51.424 7.6237 52.082 7.31689 52.9072 7.31689C53.6351 7.31689 54.1768 7.5306 54.5322 7.95801C54.8877 8.38542 55.0697 9.02441 55.0781 9.875V14.312H53.2437V9.91943C53.2437 9.53011 53.159 9.2487 52.9897 9.0752C52.8205 8.89746 52.5391 8.80859 52.1455 8.80859C51.6292 8.80859 51.242 9.02865 50.9839 9.46875V14.312H49.1494V7.44385H50.876ZM56.189 10.8271C56.189 9.75651 56.4281 8.90381 56.9062 8.26904C57.3887 7.63428 58.0467 7.31689 58.8804 7.31689C59.549 7.31689 60.1012 7.56657 60.5371 8.06592V4.56201H62.3779V14.312H60.7212L60.6323 13.582C60.1753 14.1533 59.5871 14.439 58.8677 14.439C58.0594 14.439 57.4098 14.1216 56.9189 13.4868C56.4323 12.8478 56.189 11.9613 56.189 10.8271ZM58.0234 10.9604C58.0234 11.6037 58.1356 12.0967 58.3599 12.4395C58.5841 12.7822 58.91 12.9536 59.3374 12.9536C59.9045 12.9536 60.3044 12.7145 60.5371 12.2363V9.52588C60.3086 9.04769 59.9129 8.80859 59.3501 8.80859C58.4657 8.80859 58.0234 9.52588 58.0234 10.9604ZM65.7358 14.312H63.895V7.44385H65.7358V14.312ZM63.7871 5.6665C63.7871 5.39144 63.8781 5.16504 64.0601 4.9873C64.2463 4.80957 64.498 4.7207 64.8154 4.7207C65.1286 4.7207 65.3783 4.80957 65.5645 4.9873C65.7507 5.16504 65.8438 5.39144 65.8438 5.6665C65.8438 5.9458 65.7485 6.17432 65.5581 6.35205C65.3719 6.52979 65.1243 6.61865 64.8154 6.61865C64.5065 6.61865 64.2568 6.52979 64.0664 6.35205C63.8802 6.17432 63.7871 5.9458 63.7871 5.6665ZM70.1094 12.96C70.4479 12.96 70.723 12.8669 70.9346 12.6807C71.1462 12.4945 71.2562 12.2469 71.2646 11.938H72.9849C72.9806 12.4035 72.8537 12.8309 72.604 13.2202C72.3543 13.6053 72.0116 13.9058 71.5757 14.1216C71.144 14.3332 70.6659 14.439 70.1411 14.439C69.1593 14.439 68.3849 14.1279 67.8179 13.5059C67.2508 12.8796 66.9673 12.0163 66.9673 10.916V10.7954C66.9673 9.73747 67.2487 8.89323 67.8115 8.2627C68.3743 7.63216 69.1466 7.31689 70.1284 7.31689C70.9875 7.31689 71.6751 7.56234 72.1914 8.05322C72.7119 8.53988 72.9764 9.18945 72.9849 10.002H71.2646C71.2562 9.64648 71.1462 9.35872 70.9346 9.13867C70.723 8.91439 70.4437 8.80225 70.0967 8.80225C69.6693 8.80225 69.3455 8.95882 69.1255 9.27197C68.9097 9.58089 68.8018 10.0845 68.8018 10.7827V10.9731C68.8018 11.6799 68.9097 12.1877 69.1255 12.4966C69.3413 12.8055 69.6693 12.96 70.1094 12.96ZM78.0122 14.312C77.9276 14.147 77.8662 13.9417 77.8281 13.6963C77.3838 14.1914 76.8062 14.439 76.0952 14.439C75.4224 14.439 74.8638 14.2443 74.4194 13.855C73.9793 13.4657 73.7593 12.9748 73.7593 12.3823C73.7593 11.6545 74.028 11.0959 74.5654 10.7065C75.1071 10.3172 75.8879 10.1204 76.9077 10.1162H77.752V9.72266C77.752 9.40527 77.6694 9.15137 77.5044 8.96094C77.3436 8.77051 77.0876 8.67529 76.7363 8.67529C76.4274 8.67529 76.1841 8.74935 76.0063 8.89746C75.8328 9.04557 75.7461 9.2487 75.7461 9.50684H73.9116C73.9116 9.10905 74.0343 8.74089 74.2798 8.40234C74.5252 8.0638 74.8722 7.79932 75.3208 7.60889C75.7694 7.41423 76.2729 7.31689 76.8315 7.31689C77.6779 7.31689 78.3486 7.5306 78.8438 7.95801C79.3431 8.38118 79.5928 8.97786 79.5928 9.74805V12.7251C79.597 13.3768 79.688 13.8698 79.8657 14.2041V14.312H78.0122ZM76.4951 13.0361C76.766 13.0361 77.0156 12.9769 77.2441 12.8584C77.4727 12.7357 77.6419 12.5728 77.752 12.3696V11.189H77.0664C76.1481 11.189 75.6593 11.5063 75.6001 12.1411L75.5938 12.249C75.5938 12.4775 75.6742 12.6659 75.835 12.814C75.9958 12.9621 76.2158 13.0361 76.4951 13.0361ZM83.1982 5.75537V7.44385H84.3726V8.78955H83.1982V12.2173C83.1982 12.4712 83.2469 12.6532 83.3442 12.7632C83.4416 12.8732 83.6278 12.9282 83.9028 12.9282C84.106 12.9282 84.2858 12.9134 84.4424 12.8838V14.2739C84.0827 14.384 83.7124 14.439 83.3315 14.439C82.0451 14.439 81.3892 13.7894 81.3638 12.4902V8.78955H80.3608V7.44385H81.3638V5.75537H83.1982ZM84.9185 10.8145C84.9185 10.1331 85.0496 9.52588 85.312 8.99268C85.5744 8.45947 85.951 8.04688 86.4419 7.75488C86.937 7.46289 87.5104 7.31689 88.1621 7.31689C89.0889 7.31689 89.8442 7.60042 90.4282 8.16748C91.0164 8.73454 91.3444 9.50472 91.4121 10.478L91.4248 10.9478C91.4248 12.0015 91.1307 12.8478 90.5425 13.4868C89.9543 14.1216 89.165 14.439 88.1748 14.439C87.1846 14.439 86.3932 14.1216 85.8008 13.4868C85.2126 12.8521 84.9185 11.9888 84.9185 10.897V10.8145ZM86.7529 10.9478C86.7529 11.5994 86.8757 12.0988 87.1211 12.4458C87.3665 12.7886 87.7178 12.96 88.1748 12.96C88.6191 12.96 88.9661 12.7907 89.2158 12.4521C89.4655 12.1094 89.5903 11.5635 89.5903 10.8145C89.5903 10.1755 89.4655 9.68034 89.2158 9.3291C88.9661 8.97786 88.6149 8.80225 88.1621 8.80225C87.7135 8.80225 87.3665 8.97786 87.1211 9.3291C86.8757 9.67611 86.7529 10.2157 86.7529 10.9478ZM96.4141 9.16406C96.1644 9.13021 95.9443 9.11328 95.7539 9.11328C95.0599 9.11328 94.605 9.34814 94.3892 9.81787V14.312H92.5547V7.44385H94.2876L94.3384 8.2627C94.7065 7.63216 95.2165 7.31689 95.8682 7.31689C96.0713 7.31689 96.2617 7.3444 96.4395 7.39941L96.4141 9.16406Z" fill="#222222"/>
<path d="M89.0407 68.5105L85.111 76.1541L81.2516 64.8776L89.0407 68.5105Z" fill="#E85851"/>
</g>
<defs>
<clipPath id="clip0">
<path d="M0 5C0 2.23858 2.23858 0 5 0H108C110.761 0 113 2.23858 113 5V78C113 80.7614 110.761 83 108 83H5C2.23858 83 0 80.7614 0 78V5Z" fill="white"/>
</clipPath>
</defs>
</svg>
