<svg width="17" height="17" viewBox="0 0 17 17" fill="none" xmlns="http://www.w3.org/2000/svg">
<g clip-path="url(#clip0)">
<path d="M8.75163 11.4892V11.423C8.41313 11.4193 8.08935 11.4009 7.77661 11.3752C7.60737 11.813 7.36821 12.2214 7.07019 12.5857C7.63312 12.6777 8.20341 12.7292 8.7737 12.7365L8.75163 11.4892Z" fill="#B9B9B9"/>
<path d="M7.26045 9.05354C6.98818 7.75108 6.02789 6.69144 4.75118 6.2904C4.39797 6.1837 4.03372 6.12851 3.66579 6.12851C2.75332 6.13219 1.87029 6.47068 1.19699 7.08145C-0.300485 8.44278 -0.407185 10.7644 0.954152 12.2619C2.31549 13.7594 4.63712 13.8661 6.13459 12.5047C6.89988 11.8093 7.33772 10.827 7.33404 9.79308C7.33404 9.54657 7.30828 9.29638 7.26045 9.05354ZM3.66579 9.30006C4.28759 9.30006 4.8358 9.71214 5.00505 10.3119C5.21109 11.0514 4.78429 11.8167 4.04107 12.0264V12.3502C4.04107 12.5525 3.87551 12.7181 3.67315 12.7181C3.47079 12.7181 3.30522 12.5525 3.30522 12.3502V12.0301C2.69813 11.8645 2.2787 11.3163 2.27502 10.6871C2.27502 10.4848 2.44058 10.3192 2.64295 10.3192C2.84531 10.3192 3.01087 10.4848 3.01087 10.6871C3.01087 11.0477 3.30522 11.3384 3.66579 11.3384C4.02636 11.3384 4.31702 11.044 4.31702 10.6835C4.31702 10.3229 4.02268 10.0322 3.66211 10.0322C3.03295 10.0322 2.48474 9.60912 2.32285 9.00203C2.12785 8.26618 2.56936 7.50088 3.3089 7.3022V7.14399C3.3089 6.94163 3.47446 6.77606 3.67683 6.77606C3.87919 6.77606 4.04475 6.94163 4.04475 7.14399V7.30956C4.64448 7.47881 5.05656 8.02702 5.05656 8.64882C5.05656 8.85118 4.89099 9.01675 4.68863 9.01675C4.48627 9.01675 4.3207 8.85118 4.3207 8.64882C4.3207 8.28825 4.02636 7.99391 3.66579 7.99391C3.30522 7.99391 3.01455 8.28457 3.01087 8.64882C3.01087 9.00939 3.30522 9.30006 3.66579 9.30006Z" fill="#B9B9B9"/>
<path d="M8.73997 10.6837L8.71789 9.38119C8.48978 9.37751 8.26534 9.37016 8.05194 9.35544C8.06298 9.50261 8.07034 9.6461 8.07034 9.7896C8.07034 10.0766 8.04091 10.3672 7.98572 10.6506C8.22855 10.6726 8.48242 10.6837 8.73997 10.6837Z" fill="#B9B9B9"/>
<path d="M12.7692 4.59457C12.5153 4.72703 12.2467 4.83373 11.9708 4.91467C11.1429 5.16486 10.0575 5.301 8.92432 5.301C7.83893 5.301 6.80505 5.1759 6.00664 4.94411C5.73069 4.87052 5.46578 4.7675 5.21191 4.63873L5.23767 5.67628C5.65343 5.83081 6.03975 6.05157 6.38929 6.32752C6.40032 6.3312 6.40768 6.3312 6.41872 6.33488C7.12514 6.51516 8.01553 6.61082 8.92432 6.61082C9.97659 6.61082 11.0105 6.47837 11.7574 6.25393C12.5558 6.0111 12.7324 5.75723 12.7324 5.7094C12.7324 5.65789 12.7287 5.61006 12.7692 5.55855V4.59457Z" fill="#B9B9B9"/>
<path d="M11.7553 3.13369C11.0084 2.90557 9.97455 2.77679 8.92227 2.77679C7.86264 2.77679 6.86923 2.90557 6.12601 3.13369C5.34968 3.36916 5.18044 3.60096 5.17676 3.67454C5.17676 3.67454 5.18044 3.67454 5.18044 3.6819C5.19883 3.76285 5.41959 4.01304 6.21064 4.24115C6.94282 4.45455 7.90679 4.57229 8.92227 4.57229C9.97455 4.57229 11.0048 4.44351 11.7516 4.21908C12.5501 3.97992 12.7303 3.72605 12.7303 3.67454C12.7303 3.62671 12.5537 3.37652 11.7553 3.13369Z" fill="#B9B9B9"/>
<path d="M16.9921 13.3142V12.2104C16.7456 12.3355 16.4881 12.4422 16.2195 12.5232C15.3953 12.7734 14.3173 12.9095 13.1804 12.9095C12.1723 12.9095 11.1899 12.7955 10.4172 12.5931C10.1008 12.5122 9.79544 12.4018 9.5011 12.2583L9.5195 13.3253C9.5195 13.329 9.5195 13.329 9.5195 13.3326C9.5195 13.3878 9.68138 13.6343 10.4577 13.8735C11.1936 14.0979 12.187 14.223 13.2503 14.223C14.3099 14.223 15.307 14.0942 16.0502 13.8624C16.8266 13.6196 16.9958 13.3657 16.9958 13.3142H16.9921Z" fill="#B9B9B9"/>
<path d="M12.761 6.64734C12.5071 6.77611 12.2422 6.88281 11.9662 6.96376C11.1384 7.21395 10.053 7.35008 8.9161 7.35008C8.35685 7.35008 7.80128 7.31329 7.24939 7.24338C7.54741 7.65546 7.76817 8.11905 7.90798 8.61208C8.2244 8.63415 8.56657 8.64887 8.91978 8.64887C8.93082 8.64887 8.94554 8.64887 8.95658 8.64887C9.55998 7.9866 11.1825 7.65546 12.761 7.61131V6.64734Z" fill="#B9B9B9"/>
<path d="M16.1935 10.4884C15.373 10.7312 14.306 10.8637 13.1875 10.8637C12.1021 10.8637 11.0683 10.7386 10.2699 10.5068C9.99391 10.4295 9.72532 10.3265 9.46777 10.1977L9.48249 11.044L9.48617 11.353C9.77315 11.7099 11.1455 12.1698 13.1839 12.1698C14.2472 12.1698 15.2516 12.0447 16.0059 11.8166C16.8006 11.5738 16.9735 11.3236 16.9735 11.2721C16.9735 11.2316 16.9956 11.1875 16.9956 11.1507H16.9993V10.1757C16.7417 10.3044 16.4731 10.4148 16.1935 10.4884Z" fill="#B9B9B9"/>
<path d="M16.0222 8.70378C15.2716 8.47566 14.2414 8.35425 13.1891 8.35425H13.1266C12.1479 8.35425 11.217 8.46463 10.5032 8.66699C9.74163 8.88039 9.4804 9.12322 9.44728 9.22256C9.4436 9.22992 9.4436 9.2336 9.4436 9.23728C9.4436 9.23728 9.4436 9.23728 9.45096 9.25199C9.47304 9.32926 9.69012 9.57945 10.4812 9.81125C11.2133 10.021 12.1773 10.1387 13.1928 10.1387C14.2414 10.1387 15.2348 10.0173 15.9891 9.79285C16.8059 9.55002 16.9898 9.29615 16.9935 9.24096V9.23728C16.9898 9.18209 16.8059 8.93925 16.0222 8.70378Z" fill="#B9B9B9"/>
</g>
<defs>
<clipPath id="clip0">
<rect width="17" height="17" fill="white"/>
</clipPath>
</defs>
</svg>
