<svg version="1.2" baseProfile="tiny-ps" xmlns="http://www.w3.org/2000/svg" viewBox="0 0 457 517" width="457" height="517"><title>111111 (1)-ai</title><defs><clipPath clipPathUnits="userSpaceOnUse" id="cp1"><path d="M-382.78 860.61L841.22 860.61L841.22 -171.4L-382.78 -171.4L-382.78 860.61Z" /></clipPath></defs><style>tspan { white-space:pre }.shp0 { fill: #06060c } .shp1 { fill: none;stroke: #06060c;stroke-width: 2.592 } .shp2 { fill: #f4e218 } .shp3 { fill: #f5bc14 } .shp4 { fill: #af9a83 } .shp5 { fill: #2c2e35 } .shp6 { fill: #95765e } .shp7 { fill: #fdbeac } .shp8 { fill: #ff2e17 } .shp9 { fill: #ffffff } .shp10 { fill: #ffde48 } .shp11 { fill: #ffbe39 } .shp12 { fill: #55575c } .shp13 { fill: #f1dfca } .shp14 { fill: #efc49d } </style><g ><g clip-path="url(#cp1)"><path class="shp0" d="M229.22 63.3C352.48 63.3 452.45 163.26 452.45 286.52C452.45 409.78 352.48 509.77 229.22 509.77C105.95 509.77 5.99 409.78 5.99 286.52C5.99 163.26 105.95 63.3 229.22 63.3Z" /><path class="shp1" d="M229.22 63.3C352.48 63.3 452.45 163.26 452.45 286.52C452.45 409.78 352.48 509.77 229.22 509.77C105.95 509.77 5.99 409.78 5.99 286.52C5.99 163.26 105.95 63.3 229.22 63.3Z" /><path class="shp2" d="M229.22 77.4C344.7 77.4 438.34 171.05 438.34 286.52C438.34 402 344.7 495.66 229.22 495.66C113.73 495.66 20.09 402 20.09 286.52C20.09 171.05 113.73 77.4 229.22 77.4Z" /><path class="shp3" d="M298.59 89.2C314.21 94.69 328.98 101.98 342.65 110.82C338.13 114.14 333.4 117.22 328.47 119.84C322.33 123.12 315.84 126.78 309.99 130.9L309.6 132.72C309.04 135.41 308.57 138.14 308.13 140.86C307.14 146.77 306.34 152.75 305.89 158.73C305.44 164.54 305.03 173.21 306.77 178.8C310.26 189.99 317.88 195.31 327.46 199.37L320.78 199.23C322.57 200.35 324.22 201.57 325.84 203.13C329.43 206.57 332.16 210.88 334.38 215.31C338.57 223.72 340.38 234.38 340.07 243.7C339.81 252.3 337.88 260.47 334.54 268.09C337.49 274.49 340.4 280.92 343.25 287.37C346.66 295.08 350.25 303.13 353.04 311.08C356.16 319.96 358.83 328.98 361.94 337.86C371 363.71 383.13 388.03 414.18 384.14C383.98 441.24 328.14 482.68 261.99 493.08L261.98 492.89C261.6 482.09 262.21 471.47 263.41 460.76C264.46 451.41 265.94 442.11 266.99 432.75C269.69 409.03 268.29 390.19 260.23 367.5C256.7 357.56 249.53 349.77 240.74 344.17C239.57 343.42 237.7 342.34 235.56 341.25C229.73 345.06 223.75 348.58 217.52 351.73C197.59 361.77 176.34 367.36 153.96 367.48C137.78 367.57 116.41 366.27 101.79 358.54C93.95 354.38 87.41 347.89 86.39 338.72C85.7 332.49 88.36 326.82 92.34 322.21C93.72 320.6 95.27 319.11 96.91 317.76C97.57 317.21 98.71 316.27 99.48 315.89L100.33 315.37C100.06 311.28 100.48 306.94 103.22 304.77L103.4 304.63C99.75 303.5 96.41 301.39 94.43 298.51C91.58 294.35 91.88 287.83 92.92 282.07L91.63 281.04C88.72 279.17 85.62 276.03 83.63 273.26C78.99 266.79 77.84 259.35 81.15 251.96C85.07 243.22 93.5 238.36 102.88 235.73L103.24 234.74L99.6 230.66L103.46 234.11C104.17 232.22 105.26 230.15 106.37 228.51C106.86 227.8 107.36 227.1 107.89 226.38C107.5 225.9 107.24 225.33 107.17 224.73C107.14 224.57 107.13 224.41 107.12 224.25C107.06 223.71 107.04 223.16 107.01 222.62C106.97 220.88 107.08 219.11 107.38 217.39C108.27 212.22 110.82 207.67 115.6 205.21C119.48 203.19 123.82 202.37 128.14 203.29C129.85 203.65 132 204.43 133.45 205.47L134.37 206.14C141.46 203 149.14 200.67 156.79 200.13C163.85 199.63 171.14 199.58 178.18 200.42C180.51 200.69 183.39 201.1 185.65 201.81L191.62 203.68C191.5 201.89 191.38 200.08 191.31 198.29C191.04 192.48 190.91 186.23 191.61 180.45C192.3 174.77 192.99 169.09 193.91 163.43C194.72 158.48 195.78 152.76 197.38 147.29C193.87 147.54 190.31 147.35 186.75 146.63C176.99 144.68 169.05 139.37 166.11 129.54C163.69 121.49 164.71 115.57 168.97 109.02C170.1 114.23 171.46 117.33 173.37 119.57C175.34 121.89 179.04 123 181.9 123.51C183.16 123.74 184.43 123.82 185.72 123.77C188.46 123.67 191.19 122.96 193.81 121.94L191.18 119.04C183.96 111.08 176.92 102.94 170.08 94.62C168.22 92.34 166.42 89.99 164.71 87.55C181.32 82.17 198.84 78.81 216.97 77.76C220.15 82.29 223.18 86.93 226.06 91.65C230 90.19 234.1 89.2 238.28 88.8C241.73 88.48 245.43 88.41 249 88.85C248.97 88.83 248.96 88.81 248.95 88.78L241.61 81.47L251.88 82.89C253.96 83.18 256.47 84.06 258.39 84.85C263.5 86.96 268.16 90.13 272.18 93.91C274.21 95.8 276.05 97.91 277.75 100.11C280.96 104.19 283.77 108.67 286.28 113.21C286.32 113.27 286.35 113.35 286.4 113.41C286.98 112.17 287.57 110.92 288.17 109.69C290.43 105.01 292.68 100.33 295.08 95.72C296.22 93.53 297.37 91.35 298.59 89.2Z" /><path class="shp0" d="M415.14 382.34C381.04 448.34 312.84 493.88 233.84 495.59C233.79 494.7 233.76 493.78 233.73 492.89C233.35 482.09 233.96 471.47 235.16 460.76C236.21 451.41 237.67 442.11 238.74 432.75C241.43 409.03 240.04 390.22 231.98 367.5C228.45 357.56 221.28 349.77 212.49 344.17C209.23 342.08 200.37 337.43 196.49 337.18C190.74 337.18 180.04 333.09 175.21 330.27C161.76 322.4 158.53 310.29 167.05 296.71C179.84 276.33 212.63 260.72 235.09 254.72C255.91 249.16 279.95 247.66 299.99 256.83L301.29 257.43L301.91 258.73C306.38 268.21 310.75 277.77 314.99 287.37C318.4 295.08 322 303.13 324.79 311.08C327.91 319.96 330.58 328.98 333.68 337.86C342.97 364.37 355.49 389.28 388.32 383.79C396.57 382.41 405.11 381.52 413.47 382.2L415.14 382.34Z" /><path class="shp4" d="M413.15 386.11C401.11 408.28 385.19 428.04 366.28 444.47L366.27 444.45C349.21 459.26 329.73 471.36 308.52 480.07C286.56 489.07 262.72 494.47 237.75 495.47C237.72 494.58 237.67 493.69 237.65 492.75C235.94 444.64 254 417.82 235.68 366.19C227.05 341.89 200.14 333.27 196.49 333.27C192.83 333.27 153.65 325.44 170.37 298.79C187.08 272.14 255 240.54 298.38 260.39C310.03 285.11 317.6 302.44 321.09 312.37C332.98 346.27 342.09 395.49 388.96 387.66C397.18 386.28 405.38 385.48 413.15 386.11Z" /><path class="shp5" d="M293.3 357.98C292.09 367.52 290.61 374.37 288.87 378.54C287.14 382.71 285.08 386.45 282.7 389.75C286.81 387.11 289.81 383.11 291.67 377.77C293.54 372.43 294.08 365.83 293.3 357.98Z" /><path class="shp5" d="M296.88 374.51C294.7 381.5 292.88 386.66 291.41 390C289.94 393.35 288.77 395.95 287.9 397.81C289.98 395.82 292.08 392.57 294.2 388.06C296.34 383.54 297.23 379.03 296.88 374.51Z" /><path class="shp0" d="M212.64 124.88C204.48 131.47 194.16 136.62 183.41 134.53C179.62 133.8 174.81 131.73 172.05 128.88C168.96 125.66 165.92 122.35 162.93 119.04C155.71 111.07 148.66 102.94 141.83 94.62C134.01 85.11 127.58 74.18 122.28 63.08C118.54 55.26 115.12 46.91 112.54 38.63C111.4 34.94 110.35 31.21 109.32 27.48C107.69 21.51 106.11 15.52 104.61 9.52L103.06 3.42L109.04 5.38C113.67 6.88 119.07 10.04 122.84 13C128.36 17.32 133.77 21.58 139.12 26.13C149.61 35.07 159.66 44.58 169.41 54.33C173.55 58.47 177.41 62.9 181.05 67.5C189.87 78.6 197.65 90.83 204.56 103.21C207.73 108.88 210.91 114.82 213.62 120.74L214.75 123.2L212.64 124.88Z" /><path class="shp4" d="M210.47 122.19C198.09 95.21 183.58 73.41 166.95 56.78C142.01 31.84 127.07 20.72 120.7 15.74C116.46 12.41 112.21 10.06 107.97 8.67C111.11 21.13 113.74 30.78 115.86 37.6C119.04 47.85 128.59 73.04 144.51 92.42C155.12 105.34 165.13 116.69 174.55 126.47C183.5 135.7 195.47 134.27 210.47 122.19Z" /><path class="shp6" d="M108.89 12.26C110.41 18.2 113.53 30.14 115.86 37.6C119.04 47.85 128.59 73.04 144.51 92.42C155.12 105.34 165.13 116.69 174.55 126.47C176.36 128.33 178.94 129.74 182.29 130.7C174.95 121.57 164.91 109.16 160.29 103.63C152.54 94.36 143.27 83.14 138.97 69.72C136.12 60.77 134.87 53.94 135.24 49.23C150.47 71.08 158.92 83.66 160.58 86.99C162.64 91.11 183.04 121.13 190.08 131.46C190.97 131.39 191.9 131.27 192.87 131.09L194.89 112.63C186.78 101.65 180.27 92.05 175.38 83.84C168.04 71.52 154.48 55.32 137.59 43.14C124.71 33.85 113.27 21.89 108.89 12.26Z" /><path class="shp0" d="M188.8 126.47C185.02 115.12 179.94 103.68 173.58 92.14C164.03 74.85 158.63 67.78 152.13 61.27C147.79 56.94 140.41 51.26 129.98 44.25C131.12 46 132.16 47.47 133.08 48.67C134 49.86 134.76 50.66 135.38 51.07C139.32 61.95 141.91 69.42 143.15 73.47C145.01 79.55 150.96 90.6 156.48 96.13C162.01 101.65 174.16 116.64 176.58 119.96C179 123.27 181.9 130.03 188.8 126.47Z" /><path class="shp7" d="M184.18 123.79C183.34 121.52 182.44 119.25 181.53 117.04C178.31 109.13 174.67 101.3 170.54 93.82C164.56 82.98 158.48 72.53 149.67 63.73C147.12 61.17 144.05 58.77 141.18 56.57C141.12 56.52 141.05 56.47 140.98 56.42C141.67 58.34 142.35 60.26 143.01 62.18C144.2 65.58 145.42 69.01 146.47 72.46C148.41 78.78 154.23 88.97 158.94 93.67C162.33 97.06 165.57 100.94 168.66 104.62C170.88 107.25 173.07 109.91 175.23 112.6C176.63 114.34 178.07 116.1 179.39 117.91C180.34 119.23 181.15 120.65 182.15 121.94C182.87 122.85 183.48 123.48 184.18 123.79Z" /><path class="shp0" d="M165.46 224.4C165.06 221.71 164.77 218.93 164.48 216.22C163.84 210.26 163.33 204.27 163.05 198.29C162.78 192.48 162.65 186.23 163.35 180.45C164.04 174.77 164.74 169.09 165.66 163.43C167.14 154.27 169.52 142.46 174.52 134.58C175.03 133.77 175.63 133.02 176.3 132.34C181.86 126.64 190.95 126.48 197.75 129.92C207.41 134.83 211.39 145.3 211.72 155.61C212.05 166.24 212.86 177.19 210.52 187.65C205.8 208.77 189.31 219.81 170.13 227.14L166.09 228.68L165.46 224.4Z" /><path class="shp4" d="M168.89 223.9C166.29 205.09 165.59 190.75 166.8 180.87C168.6 166.06 170.95 146.68 177.46 136.43C183.97 126.19 207.41 129.67 208.25 155.72C209.08 181.77 212.41 207.27 168.89 223.9Z" /><path class="shp6" d="M167.04 206.44C166.37 197.85 165.95 187.87 166.8 180.87C167.89 171.94 169.17 161.35 171.44 152.11C173.23 151.07 174.87 150.18 175.93 149.79C179.31 148.55 183.04 147.37 183.8 147.44C184.56 147.51 186.77 147.58 187.19 147.58C187.6 147.58 196.35 146.84 200.69 158.22C199.1 156.84 196.46 156.3 192.78 156.62C187.26 157.11 182.07 159.04 179.79 161.67C178.28 163.42 177.36 165.61 177.03 168.23C180.63 163.59 184.47 161.51 188.54 162C192.62 162.5 195.16 163.95 196.14 166.37C193.39 164.38 190.45 163.85 187.3 164.79C182.59 166.19 180.02 170.11 178.54 172.35C177.55 173.84 178.48 183.68 181.32 201.87C177.36 205.46 172.6 206.99 167.04 206.44Z" /><path class="shp8" d="M86.86 345.01C81.32 331.15 79 317.02 79.93 302.61C81.31 280.99 56.37 259.92 65.52 250.5C74.66 241.08 106.26 241.91 117.07 243.85C127.87 245.79 192.46 273.5 220.44 244.96C239.1 225.93 249.73 213.92 252.32 208.93C270.23 206.35 274.2 223.34 264.23 259.92C249.27 314.8 199.1 334.74 178.87 342.23C158.63 349.72 100.16 358.31 86.86 345.01Z" /><path class="shp0" d="M97.27 301.72C97.83 301.25 98.53 300.88 99.44 300.64C101.1 300.22 102.87 299.92 104.55 299.62C107.18 299.18 109.84 298.81 112.49 298.58C115.5 298.29 118.8 298.11 121.81 298.44C125.37 298.84 128.46 300.49 130.56 303.42C130.94 303.94 131.28 304.51 131.59 305.12C132.88 302.69 134.75 301.11 138.26 300C139.26 299.67 140.51 299.52 141.57 299.39C143.2 299.2 144.84 299.07 146.48 298.96C150.77 298.64 155.08 298.44 159.39 298.26C166.42 297.98 173.45 297.77 180.48 297.63L180.53 297.63C183.12 297.63 185.8 297.46 188.38 297.23C193.93 296.76 199.58 295.93 204.98 294.5C209.37 293.34 214.17 291.62 217.89 288.95C222.66 285.52 227.98 282.34 233.48 280.23C235.23 279.56 237.68 278.73 239.57 278.53L242.23 278.25L242.31 280.91C242.36 282.37 242.27 283.96 242.13 285.41C241.82 289.04 241.16 292.7 240.23 296.21C237.34 306.89 231.67 316.4 222.77 323.14C217.21 327.35 210.8 330.77 204.48 333.67C196.03 337.54 187.14 340.73 178.25 343.44C174.19 344.68 170 345.89 165.85 346.86L164.37 347.21L163.39 346.04C161.56 343.86 159.5 340.77 158.51 338.08C158.34 337.63 158.18 337.15 158.01 336.68C157.72 337.31 157.42 337.93 157.11 338.54C156.18 340.4 154.55 343.36 153.01 344.82L152.42 345.38L136.35 347.39L135.48 346.31C133.53 343.86 131.63 340.59 130.39 337.74C130.22 337.35 130.04 336.95 129.87 336.54C128.71 339.01 127.19 341.29 125.45 342.96C124.29 344.07 120.45 347.83 118.84 348.41L118.04 348.69L117.23 348.42C115.49 347.83 113.76 347.24 112.04 346.63C110.88 346.21 109.7 345.78 108.54 345.31C107.42 344.86 106.06 344.37 105.57 343.13C105.13 342.21 104.52 341.21 104.03 340.27C103.29 338.83 102.6 337.37 101.97 335.89C101.35 337.79 100.59 339.6 99.73 341.13C95.46 348.81 87.58 349.52 82.3 342.36L82.28 342.31C81.28 340.91 80.34 339.37 79.46 337.88C77.57 334.64 75.84 331.19 74.56 327.67C73.88 325.8 73.32 323.88 72.97 321.92C72.12 317.25 70.58 308.24 74.97 304.77C75.4 304.42 75.81 304.04 76.23 303.68C78.64 301.65 81.6 300.92 84.62 300.28C87.04 299.75 89.92 299.2 92.4 299.26C94.34 299.32 96.43 299.86 97.27 301.72Z" /><path class="shp9" d="M84.3 340.88C79.47 334.07 76.5 327.6 75.4 321.48C73.74 312.3 74.51 308.29 76.5 306.7C78.51 305.12 78.71 304.08 85.13 302.69C91.56 301.31 94.6 301.45 95.08 302.9C95.57 304.36 96.4 310.37 96.95 312.99C97.32 314.74 98.33 317.36 99.98 320.87C99.06 317.28 98.49 314.01 98.26 311.06C97.91 306.63 97.36 303.74 100.06 303.04C102.75 302.35 114.7 300.15 121.54 300.9C128.37 301.66 130.45 307.6 130.45 310.23C130.45 311.98 130.61 315.64 130.93 321.21C131.3 315.82 131.8 312.02 132.45 309.82C133.41 306.5 134.24 303.87 139.01 302.35C142.19 301.34 156.03 300.59 180.53 300.1C197.9 300.1 210.83 297.06 219.34 290.96C227.83 284.87 234.67 281.55 239.84 280.99C240.39 297.98 234.21 311.38 221.27 321.17C208.34 330.96 189.68 338.72 165.29 344.45C163.15 341.89 161.66 339.49 160.83 337.23C160 334.98 159.22 332.29 158.48 329.15C157.47 331.91 156.27 334.67 154.89 337.44C153.51 340.2 152.32 342.06 151.3 343.03L137.42 344.76C135.58 342.46 133.99 339.79 132.65 336.75C131.32 333.71 130.36 331.06 129.75 328.8C128.93 334.01 126.92 338.13 123.74 341.17C120.57 344.21 118.66 345.84 118.01 346.08C111.38 343.87 108 342.58 107.86 342.21C107.66 341.66 105.51 338.27 103.44 332.95C102.06 329.4 101.28 327.45 101.1 327.08C101 331.6 99.83 335.88 97.57 339.92C94.18 346.01 88.52 346.63 84.3 340.88Z" /><path class="shp0" d="M72.54 259.51C73.3 257.18 75.5 254.78 77.36 253.36C83.08 248.99 91.15 248.12 98.11 248.44L99.94 248.52L100.39 250.28C100.85 252 101.1 254.03 101.25 255.79C101.61 260.02 101.35 264.35 100.42 268.49C99.43 272.82 98.59 277.24 97.77 281.6C96.69 287.38 95.63 293.17 94.63 298.96L94.48 299.8L93.85 300.37C91.46 302.53 87.7 304.36 84.62 305.11C78.38 306.62 69.87 303.9 66.17 298.51C62.09 292.54 64.46 281.73 66.24 275.25C66.69 273.64 67.22 272.05 67.8 270.48C69.16 266.81 70.79 263.02 72.54 259.51Z" /><path class="shp9" d="M98 250.91C99.39 256.18 99.39 261.85 98 267.94C96.62 274.03 94.68 284.23 92.19 298.53C89.97 300.53 87.26 301.91 84.03 302.69C79.2 303.87 71.53 301.94 68.22 297.1C64.9 292.27 66.77 282.67 68.63 275.9C69.87 271.39 71.95 266.23 74.85 260.44C76.83 253.48 84.54 250.31 98 250.91Z" /><path class="shp0" d="M115.32 251.66C119.41 250.72 123.63 251.3 127.42 253.05C129.87 254.17 132.97 256.25 134.33 258.67C136.07 261.75 136.3 269.82 136.3 273.55C136.3 280.83 136.62 296.75 132.97 302.62C131.79 304.51 130.43 306.23 128.68 307.62C123.82 311.42 117.33 311.27 111.52 310.48C106.59 309.79 94.91 307.73 93.19 301.87C92.78 300.49 92.86 298.18 92.91 296.73C92.99 294.29 93.18 291.85 93.42 289.43C93.74 286.3 94.14 282.87 94.89 279.81C95.6 276.88 96.35 273.97 97.22 271.09C98.23 267.75 99.6 263.51 101.51 260.59C103.92 256.91 110.88 253.4 114.95 251.77L115.13 251.71L115.32 251.66Z" /><path class="shp10" d="M115.87 254.08C109.43 256.66 105.33 259.28 103.58 261.95C100.96 265.96 98.61 275 97.29 280.39C95.99 285.77 94.87 298.83 95.57 301.18C96.26 303.52 100.81 306.5 111.87 308.01C122.92 309.54 127.33 306.98 130.86 301.31C134.38 295.66 133.83 275.42 133.83 273.55C133.83 271.69 133.69 262.57 132.17 259.87C130.66 257.19 123.68 252.28 115.87 254.08Z" /><path class="shp11" d="M115.87 254.08C110.98 256.03 107.33 258.14 104.91 260.41C110.78 260.44 120.19 261.29 123.61 266.27C128.24 273.02 126.54 296.93 118.32 308.44C124.84 308.25 128.11 305.72 130.86 301.31C134.38 295.66 133.83 275.42 133.83 273.55C133.83 271.69 133.69 262.57 132.17 259.87C130.66 257.19 123.68 252.28 115.87 254.08Z" /><path class="shp0" d="M131.02 303.82C131.26 299.59 131.54 295.35 131.87 291.12C132.05 288.75 132.25 286.38 132.49 284.01C132.67 282.35 132.85 280.53 133.21 278.89C134.27 274.05 134.92 271.49 138.02 267.48C139.93 264.99 143.22 262.59 146.24 261.56C151.14 259.63 156.52 259.06 161.4 261.37C164.47 262.83 167.28 265.51 168.58 268.67C169.08 269.88 169.45 271.42 169.74 273.07C171.33 271.02 173.54 269.02 175.46 267.71C178.19 265.86 181.54 264.5 184.9 265.11C189.92 266.02 194.59 268.31 197.23 272.86C198.09 274.33 198.77 276.13 199.36 277.74C201.24 274.17 203.67 269.49 206.42 267.22C210.38 263.95 217.06 264.43 220.45 268.35C220.91 268.88 221.37 269.48 221.82 270.12C222.14 268.51 222.59 266.86 222.99 265.36C223.45 263.66 223.94 261.96 224.45 260.26C224.71 259.38 224.98 258.42 225.3 257.56C225.87 256.06 228.15 254.89 229.54 254.34C231.95 253.37 234.59 253.05 237.12 253.68C239.32 254.22 241.29 255.15 242.9 256.8C243.98 257.91 244.63 259.09 245.48 260.35C247.39 263.17 248.88 269.89 249.2 273.3C249.36 274.78 249.59 276.22 249.72 277.72C249.92 280.17 249.93 282.64 249.67 285.1C248.92 291.88 246.16 297.83 240.88 302.27C237.86 304.83 232.83 308.65 228.57 308.05C227.11 307.84 226.09 307.22 225.38 306.44C224.39 307.39 222.58 308.29 221.62 308.79C218.06 310.56 207.24 312.5 203.17 312.5C200.53 312.5 197.95 311.88 196.23 310.36C195.74 311.42 194.86 312.34 193.91 312.99C191.92 314.38 189.38 314.93 187 315.04C184.22 315.2 181.23 315.03 178.45 314.79C176.08 314.59 173.63 314.32 171.3 313.81C169.46 313.43 166.8 312.79 166.05 310.84C165.91 310.5 165.8 310.09 165.7 309.63C164.82 310.76 163.9 311.68 163.02 312.12C161.04 313.06 158.07 313.08 155.92 313.03C151.62 312.94 147.2 312.42 142.93 311.93C139.59 311.53 134.7 310.65 132.31 308.01C131.32 306.9 130.69 305.31 131.02 303.82Z" /><path class="shp9" d="M147.09 263.88C144.24 264.85 141.86 266.55 139.97 268.99C137.14 272.66 136.66 274.72 135.63 279.42C134.93 282.55 134.22 290.82 133.49 304.22C132.52 306.84 135.76 308.59 143.22 309.47C154.41 310.78 159.79 310.92 161.94 309.88C163.36 309.19 165.21 306.5 167.47 301.8C167.6 306.04 167.9 308.75 168.36 309.95C169.05 311.75 181.55 312.85 186.87 312.57C192.19 312.3 194.12 309.88 194.19 308.58C194.26 307.25 194.61 302.98 194.75 298.7C194.84 295.85 194.88 294.3 194.88 294.07C196.08 299.5 196.67 303.3 196.67 305.46C196.67 308.71 199.3 310.02 203.17 310.02C207.04 310.02 217.6 308.01 220.5 306.57C222.44 305.6 223.52 304.94 223.75 304.57C224.58 303.09 224.92 300.97 224.79 298.21C224.65 295.45 224.58 293.61 224.58 292.69C225.54 294.85 226.16 296.81 226.45 298.56C226.72 300.31 226.79 302.1 226.65 303.95C227.87 307.67 232.08 306.48 239.29 300.38C250.09 291.24 247.09 277.01 246.75 273.55C246.4 270.1 244.88 263.88 243.44 261.74C241.98 259.6 241.02 257.19 236.52 256.08C232.04 254.98 227.83 257.87 227.62 258.43C227.41 258.98 224.37 268.72 223.96 272.45C223.68 274.93 223.64 277.01 223.82 278.67C222.07 274.89 220.32 271.99 218.57 269.96C215.95 266.93 210.77 266.86 208 269.13C205.24 271.42 202.06 277.97 200.75 280.39C199.88 282 199.33 283.5 199.09 284.88C197.57 279.68 196.24 276.08 195.09 274.1C193.36 271.13 190.12 268.58 184.45 267.54C178.79 266.51 172.37 273.14 170.71 276.04C169.6 277.97 168.73 280.09 168.09 282.4C167.95 276.45 167.35 272.19 166.29 269.62C164.7 265.74 158.42 259.39 147.09 263.88Z" /><path class="shp0" d="M188.02 167.73C196.97 167.42 204.3 175.46 204.4 185.7C204.48 195.95 197.3 204.51 188.35 204.83C179.41 205.16 172.06 197.11 171.98 186.87C171.97 185.31 172.12 183.77 172.43 182.31L172.42 182.31C172.95 175.88 174.28 170.86 176.41 167.27C179.59 161.89 184.83 161.75 186.16 161.56C187.49 161.38 190.53 161.6 192.65 162.74C194.07 163.5 194.83 164.27 194.94 165.06C192.77 163.22 189.97 162.57 186.55 163.1C181.41 163.89 179.01 166.43 177.92 169.02C177.2 170.71 176.78 172.54 176.58 173.62C179.48 170.14 183.52 167.9 188.02 167.73Z" /><path class="shp9" d="M188.04 169.73C195.75 169.45 202.08 176.64 202.16 185.78C202.24 194.93 196.05 202.57 188.34 202.85C180.61 203.12 174.29 195.94 174.21 186.79C174.13 177.64 180.32 170 188.04 169.73Z" /><path class="shp5" d="M189.58 176.82C193.99 176.69 197.63 180.69 197.7 185.77C197.77 190.84 194.25 195.08 189.84 195.22C185.42 195.36 181.79 191.36 181.72 186.28C181.64 181.2 185.17 176.96 189.58 176.82Z" /><path class="shp9" d="M190.29 181.91C191.55 181.89 192.61 183.27 192.68 184.98C192.74 186.7 191.76 188.11 190.5 188.12C189.25 188.13 188.18 186.75 188.13 185.04C188.07 183.32 189.04 181.92 190.29 181.91Z" /><path class="shp0" d="M299.21 199.37L292.54 199.23C294.32 200.35 295.96 201.57 297.58 203.13C301.16 206.57 303.91 210.88 306.11 215.31C310.32 223.72 312.11 234.38 311.83 243.7C311.36 258.92 305.64 272.8 296.17 284.65C286.26 297.02 272.88 306.33 258.48 312.78C253.68 314.94 248.71 316.8 243.67 318.31C241.69 318.91 239.59 319.51 237.55 319.92L233.97 320.63C229.75 325.25 225.5 329.17 221.62 331.53C219.97 332.54 218.35 333.69 216.77 334.8C214.4 336.44 212.04 338.1 209.65 339.7C203.08 344.11 196.33 348.16 189.27 351.73C169.34 361.77 148.09 367.36 125.71 367.48C109.53 367.57 88.15 366.27 73.53 358.54C65.69 354.38 59.15 347.89 58.14 338.72C57.44 332.49 60.11 326.82 64.08 322.21C65.47 320.6 67.01 319.11 68.65 317.76C69.31 317.21 70.45 316.27 71.23 315.89L74.34 313.97C75.73 321.61 77.58 327.98 81.26 333.97L82.44 334.91C82.62 334.98 82.8 335.02 82.97 335.07C86 335.95 89.05 336.61 92.09 337.38C93.01 337.63 94.05 337.78 94.99 337.94C97.08 338.29 99.19 338.58 101.3 338.82C108.04 339.62 114.88 340.04 121.69 340.13C141.04 340.39 161.03 337.99 179.37 331.65C205.98 322.46 229.06 308.58 241.7 282.49C243.41 278.98 244.88 275.34 246.16 271.65C250.02 260.44 252.23 248.45 253.09 236.62C253.12 236.39 253.13 236.15 253.14 235.93C253.12 236.01 253.11 236.1 253.07 236.18C250.08 247.25 244.19 257.13 234.91 264.07C217.11 277.39 196.05 278.74 174.98 274.53C169.93 273.52 164.86 272.13 159.89 270.77C153.58 269.06 147.29 267.27 140.98 265.54C135.34 264 129.67 262.5 123.98 261.14C119.4 260.06 114.65 259.01 109.98 258.42C102.51 257.48 94.66 257.34 87.19 258.36C83.96 258.81 80.17 259.57 76.76 260.83L74.2 263.49C73.08 265.13 71.75 267.38 71.07 269.27C69.91 272.53 68.85 275.87 67.8 279.17L66.42 283.48L63.37 281.04C60.46 279.17 57.36 276.03 55.37 273.26C50.73 266.79 49.59 259.35 52.89 251.96C56.82 243.22 65.25 238.36 74.63 235.73L75.09 234.41C75.79 232.43 76.96 230.24 78.12 228.51C78.6 227.8 79.11 227.1 79.63 226.39C79.25 225.9 78.98 225.33 78.91 224.73C78.89 224.57 78.88 224.41 78.86 224.25C78.81 223.71 78.78 223.16 78.77 222.62C78.71 220.88 78.83 219.11 79.12 217.38C80.01 212.23 82.56 207.67 87.34 205.21C91.23 203.19 95.57 202.37 99.88 203.29C101.6 203.65 103.74 204.43 105.2 205.47L106.11 206.13C113.2 203 120.88 200.67 128.54 200.13C135.59 199.63 142.89 199.58 149.92 200.42C152.26 200.69 155.14 201.1 157.39 201.81L164.38 204C164.86 204.07 165.33 204.16 165.78 204.28L168.88 203.52C175.6 201.88 185.85 197.83 190.76 192.84C196.52 186.97 199.14 176.27 199.27 168.28C199.33 164.72 198.95 161.11 198.02 157.67C196.84 153.32 194.42 149.75 190.43 147.56C188.91 146.72 186.63 145.86 184.85 145.73L179.51 145.4C172.71 147.38 165.61 148.05 158.49 146.63C148.73 144.68 140.79 139.37 137.85 129.54C135.43 121.49 136.45 115.57 140.71 109.02C141.84 114.22 143.21 117.33 145.12 119.57C147.08 121.89 150.78 123 153.64 123.51C154.91 123.74 156.18 123.82 157.46 123.77C162.67 123.57 167.84 121.18 172.31 118.69C178.02 115.49 183.41 111.71 189.02 108.34C191.88 106.63 194.98 104.99 198.17 103.7C197.56 103.76 196.96 103.83 196.36 103.91C193 104.38 189.42 105.13 186.14 106.03L171.3 110.17L182.93 100.06C185.13 98.17 188.07 96.33 190.6 94.94C196.59 91.67 203.21 89.44 210.03 88.8C213.48 88.48 217.17 88.41 220.75 88.85C220.72 88.83 220.7 88.81 220.68 88.79L213.36 81.47L223.62 82.89C225.7 83.18 228.22 84.06 230.14 84.85C235.23 86.96 239.92 90.13 243.93 93.91C245.95 95.8 247.8 97.91 249.51 100.11C252.7 104.19 255.51 108.67 258.03 113.21C258.06 113.27 258.1 113.35 258.13 113.41C258.74 112.16 259.33 110.92 259.91 109.69C262.16 105.01 264.44 100.33 266.83 95.72C268.98 91.55 271.26 87.4 273.77 83.43C275.78 80.23 278.2 76.71 280.97 74.1C284.56 70.74 289.46 67.66 293.66 65.1C299.47 61.56 305.48 58.27 311.5 55.13C320.05 50.67 328.91 46.34 337.81 42.58C344.01 39.97 350.72 37.22 357.23 35.51C360.67 34.6 366.13 33.34 369.12 35.97C372.61 39.06 370.09 45.29 368.53 48.75C365.8 54.8 361.88 60.84 358.01 66.22C353.21 72.87 347.83 79.3 342.3 85.36C335.02 93.31 327.13 100.9 318.67 107.57C312.88 112.15 306.72 116.37 300.2 119.85C294.07 123.12 287.57 126.78 281.73 130.9L281.35 132.72C280.78 135.41 280.3 138.14 279.86 140.86C278.89 146.77 278.09 152.75 277.63 158.73C277.19 164.54 276.77 173.21 278.52 178.8C282.02 189.99 289.61 195.31 299.21 199.37Z" /><path class="shp4" d="M258.16 121.07C253.36 110.55 247.82 102.34 241.55 96.43C235.27 90.53 229.13 87.16 223.13 86.33C226.02 89.21 227.91 91.37 228.81 92.82C229.7 94.26 230.12 95.24 230.05 95.74C226.72 92.5 220.16 91.34 210.35 92.26C200.54 93.18 192.17 96.66 185.21 102.69C191.33 100.99 196.56 100.11 200.89 100.06C205.22 100.01 208.51 101.49 210.77 104.48C206.21 103.79 199.55 106.07 190.8 111.32C177.68 119.2 165.67 129.21 153.03 126.93C144.6 125.41 140.43 122.21 140.53 117.33C137.53 131.51 143.75 140.14 159.17 143.23C182.31 147.85 204.62 127.83 210.56 123.47C216.5 119.12 225.06 115.94 233.14 116.15C238.53 116.29 242.12 117.42 243.92 119.54C238.81 117.56 232.62 117.61 225.34 119.68C214.43 122.79 212.01 126.1 207.59 129.35C203.17 132.6 198.47 136.05 193.15 138.6C189.61 140.3 186.92 141.52 185.07 142.26C193.46 142.77 198.89 147.61 201.37 156.77C205.1 170.51 200.85 187.52 193.23 195.27C188.16 200.44 180.32 204.31 169.7 206.89C173.88 210.12 176.12 213.84 176.44 218.03C176.76 222.22 175.59 225.62 172.92 228.24C175.13 220.01 174.51 214.32 171.06 211.19C165.87 206.49 161.59 206.63 154.89 208.56C150.43 209.85 145.41 212.13 139.84 215.4C140.49 213.68 142.09 211.93 144.63 210.14C147.17 208.35 151.08 206.68 156.36 205.12C150.31 203.23 141.12 202.72 128.79 203.59C116.45 204.47 104.45 209.1 92.8 217.48C94.42 215.17 96.28 213.17 98.39 211.46C100.52 209.76 102.11 208.7 103.16 208.29C99.21 205.44 94.46 205.44 88.94 208.29C83.41 211.14 81.23 216.53 82.38 224.45L86.65 223.14C84.03 226.32 82.14 228.76 80.99 230.46C79.84 232.16 78.97 233.87 78.37 235.57C87.53 233.5 96.99 232.99 106.76 234.05C116.52 235.11 124.16 237.13 129.69 240.13C118.17 237.46 107.77 236.17 98.47 236.26C84.52 236.39 62.62 238.74 56.06 253.39C51.69 263.15 54.75 271.39 65.25 278.12C66.77 273.37 67.87 270.03 68.56 268.1C69.26 266.16 70.43 263.97 72.09 261.54C69.96 262.59 68.05 263.72 66.35 264.92C64.65 266.12 63.56 267.11 63.1 267.89C62.51 266.33 64.79 263.82 69.94 260.37C77.68 255.19 93.43 252.84 110.41 254.98C127.41 257.11 161.13 268.22 175.66 271.12C190.19 274.03 213.03 276.1 232.83 261.29C246.03 251.42 252.34 237.76 251.78 220.32C250.12 220.45 248.59 221.09 247.16 222.24C245.74 223.39 244.91 224.54 244.68 225.69C243.98 222.97 245.92 220.53 250.48 218.37C255.04 216.21 260.56 217.66 267.06 222.73C265.17 222.08 263.27 221.54 261.37 221.08C259.46 220.62 257.95 220.52 256.83 220.8C258 237.83 255.53 255.16 249.44 272.79C240.3 299.23 222.17 320.54 180.5 334.93C138.84 349.33 94.96 341.73 91.22 340.76C87.48 339.78 77.96 337.85 73.95 335.15C71.28 333.36 70.13 331.59 70.5 329.85C71.48 330.92 72.61 331.88 73.87 332.75C75.13 333.63 76.79 334.53 78.85 335.47C76.46 330.52 74.94 326.89 74.29 324.6C73.65 322.29 73.14 320.43 72.78 319.01C64.49 324.44 60.76 330.88 61.59 338.33C62.83 349.52 75.16 364.29 125.69 364.01C176.21 363.73 209.15 335.07 219.81 328.57C230.47 322.06 245.43 301.44 252.77 289.39C257.66 281.37 261.12 274.91 263.15 270.01C260.82 278.03 257.84 285.29 254.21 291.78C250.57 298.28 244.8 306.52 236.88 316.51C260.2 311.81 279.06 300.47 293.45 282.48C315.05 255.48 308.41 227.66 303.02 216.86C297.6 206.06 292.47 203.11 288.18 200.69C285.34 199.08 281.7 198.18 277.28 198C279.86 197.03 282.09 196.59 283.97 196.68C285.86 196.77 287.59 197.28 289.16 198.2C282.76 195.26 278.1 189.13 275.2 179.83C272.3 170.53 273.22 154.59 277.95 132L269.61 136.87C272.31 132.34 281.97 125.64 298.59 116.77C323.49 103.49 345.92 77.05 355.19 64.18C364.47 51.31 369.17 40.65 366.82 38.58C364.47 36.5 355.18 39.01 339.16 45.78C323.14 52.55 292.35 68.2 283.35 76.64C274.35 85.09 262.56 113.04 258.16 121.07Z" /><path class="shp12" d="M258.03 120.79C257.01 118.62 250.27 104.7 241.66 96.54L241.55 96.43C235.32 90.48 229.18 87.12 223.13 86.33C226.02 89.21 227.91 91.37 228.81 92.82C229.7 94.26 230.12 95.24 230.05 95.74C226.72 92.5 220.16 91.34 210.35 92.26C206.44 92.63 202.83 93.54 199.64 94.67C198.49 95.08 197.39 95.52 196.36 95.98C192.02 97.88 188.72 100.05 186.87 101.39C186.15 101.92 185.6 102.35 185.21 102.69C185.77 102.53 186.49 102.35 187.39 102.13C190.04 101.48 194.7 100.47 198.83 100.15C199.54 100.11 200.23 100.07 200.89 100.06C201.58 100.06 202.23 100.1 202.86 100.19C206.33 100.66 208.97 102.09 210.77 104.48C209.59 104.3 207.85 104.47 205.54 104.99C204.54 105.21 203.4 105.51 202.11 105.95C199.61 106.78 196.57 108.07 193.01 110.05C192.3 110.44 191.56 110.87 190.8 111.32C188.69 112.59 186.61 113.91 184.55 115.23C183.55 115.87 182.56 116.5 181.57 117.13C181.29 117.31 181.01 117.49 180.72 117.68C180.37 117.89 180.03 118.11 179.68 118.32C178.69 118.95 177.7 119.56 176.72 120.14C176.05 120.55 175.38 120.93 174.72 121.31C173.61 121.95 172.49 122.55 171.38 123.11C170.28 123.67 169.17 124.19 168.07 124.66C163.08 126.78 158.1 127.84 153.03 126.93C144.6 125.41 140.43 122.21 140.53 117.33C137.53 131.51 143.75 140.14 159.17 143.23C162.91 143.98 166.63 144.08 170.27 143.71C171.59 143.58 172.9 143.38 174.19 143.12C182.38 141.53 189.98 137.76 196.19 133.88C196.43 133.73 196.68 133.57 196.91 133.42C198.03 132.71 199.09 132 200.11 131.31C204.34 128.39 207.67 125.69 209.73 124.11C210.03 123.87 210.31 123.65 210.56 123.47C216.5 119.12 225.06 115.94 233.14 116.15C239.05 116.31 242.08 118.05 243.28 118.97C244.7 119.27 245.89 119.52 246.86 119.75C244.37 117.07 242.02 114.91 239.8 113.25C237.6 111.6 234.17 109.99 229.52 108.42C235.6 108.88 240.8 110.19 245.13 112.36C249.45 114.52 253.75 117.33 258.03 120.79Z" /><path class="shp6" d="M214.01 147.1C217.23 140.33 224.79 136.53 236.66 135.7C254.48 134.46 257.59 139.5 261.11 145.72C264.64 151.93 264.84 160.08 263.61 164.23C262.77 166.99 261.5 168.85 259.8 169.82C251.74 159.6 244.33 153.17 237.57 150.55C227.41 146.61 222.71 145.57 214.01 147.1Z" /><path class="shp6" d="M171.44 211.56C171.31 211.44 171.19 211.3 171.06 211.19C168.17 208.58 165.57 207.46 162.68 207.31C163.47 209.04 165.71 212.13 171.44 211.56Z" /><path class="shp6" d="M199.27 135.17C197.31 136.41 195.28 137.58 193.15 138.6C189.61 140.3 186.92 141.52 185.07 142.26C193.46 142.77 198.89 147.61 201.37 156.77C205.1 170.51 200.85 187.52 193.23 195.27C188.16 200.44 180.32 204.31 169.7 206.89C171.12 207.99 172.46 209.42 173.71 211.18C181.67 209.27 191.93 201.65 197.8 195.27C204.17 188.35 206.62 168.3 205.03 154.69C204.02 146.04 201.19 139.08 199.27 135.17Z" /><path class="shp6" d="M274.05 173.44C273.08 162.86 274.38 149.05 277.95 132L269.61 136.87C272.31 132.34 281.97 125.64 298.59 116.77C323.49 103.49 345.92 77.05 355.19 64.18C364.47 51.31 369.17 40.65 366.82 38.58C366.26 38.08 365.32 37.85 364 37.86C362.96 42.5 360.95 47.81 357.13 51.17C351.78 55.87 342.46 61.78 329.17 68.89C297.06 96.39 279.85 110.97 277.54 112.63C274.07 115.12 269.51 119.27 266.32 128.82C264.21 135.19 264.67 142.99 267.71 152.21L269.2 142.47C269.42 154.21 271.04 164.54 274.05 173.44ZM251.07 267.7C250.56 269.39 250.02 271.09 249.44 272.79C240.3 299.23 222.17 320.54 180.5 334.93C175.84 336.54 171.17 337.87 166.52 338.98C160.45 346.63 154.24 354.52 148.61 361.9C186.2 355.11 210.87 334.03 219.81 328.57C230.47 322.06 245.43 301.44 252.77 289.39C257.66 281.37 261.12 274.91 263.15 270.01C260.82 278.03 257.84 285.29 254.21 291.78C250.57 298.28 244.8 306.52 236.88 316.51C260.2 311.81 279.06 300.47 293.45 282.48C315.05 255.48 308.41 227.66 303.02 216.86C297.6 206.06 292.47 203.11 288.18 200.69C285.34 199.08 281.7 198.18 277.28 198C279.86 197.03 282.09 196.59 283.97 196.68C285.86 196.77 287.59 197.28 289.16 198.2C286.7 197.07 284.18 194.97 281.63 191.9C279.28 191.37 276.2 190.79 272.28 190.28C265.08 189.36 259.73 189.64 256.22 191.11C253.68 179.5 249.88 172.31 244.82 169.54C239.75 166.78 234.18 166.64 228.1 169.13C229.16 166.5 230.84 164.82 233.14 164.08C235.44 163.35 238.66 163.4 242.8 164.23C238.77 161.19 234.58 160.21 230.25 161.28C223.75 162.9 220.5 162.6 215.94 181.84C211.37 201.08 221.34 210.91 223.69 212.71C226.04 214.51 218.84 220.32 224.66 220.05C230.47 219.77 244.87 208.42 252.34 202.47C259.82 196.52 267.98 192.91 284.59 210.22C301.21 227.52 293.59 254.93 285.57 267.81C280.21 276.39 269.6 286.17 253.73 297.15C256.49 292.07 258.8 287.13 260.64 282.34C262.49 277.53 263.83 270.43 264.66 261.02C260.92 262.82 256.39 265.05 251.07 267.7Z" /><path class="shp13" d="M173 210.23C174.58 212.21 176.2 214.95 176.44 218.03C176.76 222.22 175.59 225.62 172.92 228.24C175.13 220.01 174.51 214.32 171.06 211.19C165.87 206.49 161.59 206.63 154.89 208.56C150.43 209.85 145.41 212.13 139.84 215.4C140.49 213.68 142.09 211.93 144.63 210.14C147.17 208.35 151.08 206.68 156.36 205.12C150.31 203.23 141.12 202.72 128.79 203.59C116.45 204.47 104.45 209.1 92.8 217.48C94.42 215.17 96.28 213.17 98.39 211.46C100.52 209.76 102.11 208.7 103.16 208.29C99.21 205.44 94.46 205.44 88.94 208.29C83.41 211.14 81.23 216.53 82.38 224.45L86.65 223.14C84.03 226.32 82.14 228.76 80.99 230.46C79.84 232.16 78.97 233.87 78.37 235.57C87.53 233.5 96.99 232.99 106.76 234.05C116.52 235.11 124.16 237.13 129.69 240.13C118.17 237.46 107.77 236.17 98.47 236.26C84.52 236.39 62.62 238.74 56.06 253.39C51.69 263.15 54.75 271.39 65.25 278.12C66.77 273.37 67.87 270.03 68.56 268.1C69.26 266.16 70.43 263.97 72.09 261.54C69.96 262.59 68.05 263.72 66.35 264.92C64.65 266.12 63.56 267.11 63.1 267.89C62.51 266.33 64.79 263.82 69.94 260.37C77.68 255.19 93.43 252.84 110.41 254.98C127.41 257.11 161.13 268.22 175.66 271.12C190.19 274.03 213.03 276.1 232.83 261.29C246.03 251.42 252.34 237.76 251.78 220.32C250.12 220.45 248.59 221.09 247.16 222.24C245.74 223.39 244.91 224.54 244.68 225.69C243.98 222.97 245.92 220.53 250.48 218.37C255.04 216.21 260.56 217.66 267.06 222.73C265.17 222.08 263.27 221.54 261.37 221.08C259.46 220.62 257.95 220.52 256.83 220.8C258 237.83 255.53 255.16 249.44 272.79C240.3 299.23 222.17 320.54 180.5 334.93C138.84 349.33 94.96 341.73 91.22 340.76C87.48 339.78 77.96 337.85 73.95 335.15C71.28 333.36 70.13 331.59 70.5 329.85C71.48 330.92 72.61 331.88 73.87 332.75C75.13 333.63 76.79 334.53 78.85 335.47C76.46 330.52 74.94 326.89 74.29 324.6C73.65 322.29 73.14 320.43 72.78 319.01C64.49 324.44 60.76 330.88 61.59 338.33C62.83 349.52 75.16 364.29 125.69 364.01C176.21 363.73 209.15 335.07 219.81 328.57C229.21 322.84 241.91 306.15 249.84 294.02C253.47 287.92 257.36 281.26 260.24 276.08C261.57 273.48 262.54 271.45 263.15 270.01L263.04 270.35C268.28 257.87 276.53 229.66 267.16 216.45C256.35 201.22 240.72 220.32 231.99 222.12C223.27 223.92 207.91 227.66 186.73 216.31C182.65 214.12 177.94 212.08 173 210.23Z" /><path fill-rule="evenodd" class="shp14" d="M86.38 351.41C116.83 362.89 177.21 346.39 189.4 340.3C201.6 334.19 204.64 333.92 227.92 317.29C232.02 314.37 235.69 311.68 238.96 309.26C232.57 317.44 225.57 325.06 219.81 328.57C209.15 335.07 176.21 363.73 125.69 364.01C75.16 364.29 62.83 349.52 61.59 338.33C61.11 333.99 62.68 330.12 64.78 327C65.01 334.59 68.99 344.85 86.38 351.41ZM261.6 223.35C260.01 226.11 257.88 243.57 255.25 255.62C254.31 259.92 252.72 264.12 251.05 267.74C255.92 251.37 257.85 235.72 256.83 220.8C257.95 220.52 259.46 220.62 261.37 221.08C262.26 221.29 263.15 221.53 263.96 221.76C263.02 221.95 262.14 222.4 261.6 223.35ZM243.02 225.55C241.09 227.12 239.91 228.43 239.5 229.49C239.55 223.46 243.02 218.97 249.93 216.02C256.84 213.08 262.77 215.08 267.74 222.03C267.09 221.82 266.35 221.7 265.54 221.66C262.54 219.69 255.67 215.9 250.48 218.37C245.91 220.54 244.84 223.08 244.66 224.52C244.16 224.75 243.6 225.07 243.02 225.55ZM82.91 248.7C106.45 243.3 150.88 257.28 177.46 264.89C204.03 272.51 224.66 260.6 233.1 253.4C241.55 246.21 247.08 232.78 248.05 229.32C248.7 227.01 248.6 225.4 247.77 224.48C247.16 224.05 246.34 223.99 245.31 224.29C245.68 223.69 246.26 222.97 247.16 222.24C248.59 221.09 250.12 220.45 251.78 220.32C252.34 237.76 246.03 251.42 232.83 261.29C213.03 276.1 190.19 274.03 175.66 271.12C161.13 268.22 127.41 257.11 110.41 254.98C93.43 252.84 77.68 255.19 69.94 260.37C64.79 263.82 62.51 266.33 63.1 267.89C63.56 267.11 64.65 266.12 66.35 264.92C68.05 263.72 69.96 262.59 72.09 261.54C70.43 263.97 69.26 266.16 68.56 268.1C67.87 270.03 66.77 273.37 65.25 278.12C59.05 274.15 55.51 269.03 54.63 262.76C59.77 258.19 68.95 251.9 82.91 248.7ZM109.93 229.97C120.06 233.34 128.88 236.9 136.39 240.68C133.17 239.73 129.11 238.79 124.19 237.85C120.28 236.49 114.38 234.88 106.76 234.05C96.99 232.99 87.53 233.5 78.37 235.57C78.97 233.87 79.84 232.16 80.99 230.46C81.97 229.02 83.64 226.88 84.92 225.28C88.34 225.36 97.87 225.97 109.93 229.97ZM89.14 213.19C88.36 216.05 88.59 217.94 89.83 218.86L85.21 223.59L82.38 224.45C81.23 216.53 83.41 211.14 88.94 208.29C90.54 207.46 92.04 206.95 93.44 206.67C91.62 208.69 89.71 211.14 89.14 213.19ZM138.04 225.83C144.12 216.85 150.84 212.24 158.21 212.01C169.26 211.67 170.99 220.3 170.44 224.59C170.06 227.44 168.7 229.91 166.36 231.98C151.44 235.06 142 233.01 138.04 225.83Z" /><path class="shp5" d="M140.8 225.14C145.13 219.57 150.49 216.33 156.89 215.4C166.49 214.02 167.74 221.96 168.09 224.45C168.31 226.11 167.3 228.06 165.04 230.32L165.04 225.9C161.82 227.74 158.32 228.3 154.54 227.56C150.77 226.82 148.15 225.33 146.68 223.06C144.19 223.48 142.23 224.17 140.8 225.14Z" /><path class="shp5" d="M216.02 143.58C222.05 135.98 230.5 132.22 241.36 132.31C257.66 132.46 261.94 150.2 261.67 154.56C261.48 157.46 260.62 161.56 259.09 166.88C257.03 160.74 251.4 154.46 242.2 148.06C228.38 138.46 218.08 143.3 216.02 143.58Z" /><path class="shp5" d="M268.26 125.09C271.55 116.14 275.53 108.44 280.18 101.99C287.15 92.33 295.26 82.04 313.39 72.34C325.47 65.89 338.34 60.63 352 56.56C351.08 58.4 349.66 59.69 347.76 60.44C345.85 61.19 344.55 61.96 343.84 62.73C336.48 73.12 330.13 80.73 324.79 85.56C316.77 92.81 301.59 105.51 291.37 111.67C284.55 115.76 276.85 120.24 268.26 125.09Z" /><path class="shp7" d="M337.7 65.21C329.98 68.17 322.3 71.52 315.03 75.41C307.73 79.3 300.97 83.92 295.01 89.68C290.44 94.09 286.7 98.89 282.99 104.03C282.11 105.25 281.29 106.51 280.49 107.79C278.69 110.73 277.05 113.8 275.55 116.94C280.25 114.23 284.93 111.48 289.59 108.69C295.12 105.36 300.55 101.21 305.62 97.2C311.36 92.66 317.03 87.89 322.47 82.98C325.11 80.59 327.58 77.79 329.89 75.06C332.57 71.89 335.15 68.61 337.64 65.29C337.66 65.27 337.68 65.24 337.7 65.21Z" /><path class="shp0" d="M233.93 168.15C243.86 168.15 251.91 178.5 251.91 191.25C251.91 204.01 243.86 214.36 233.93 214.36C224.01 214.36 215.96 204.01 215.96 191.25C215.96 189.3 216.14 187.41 216.5 185.6L216.49 185.61C217.14 177.61 218.66 171.43 221.05 167.05C224.65 160.5 230.45 160.56 231.94 160.39C233.41 160.21 236.78 160.63 239.13 162.14C240.68 163.15 241.52 164.14 241.63 165.13C239.24 162.75 236.15 161.8 232.35 162.31C226.64 163.06 223.96 166.13 222.72 169.29C221.91 171.36 221.42 173.63 221.18 174.97C224.44 170.76 228.95 168.15 233.93 168.15Z" /><path class="shp9" d="M233.93 170.63C242.5 170.63 249.44 179.86 249.44 191.25C249.44 202.64 242.5 211.88 233.93 211.88C225.37 211.88 218.43 202.64 218.43 191.25C218.43 179.86 225.37 170.63 233.93 170.63Z" /><path class="shp5" d="M234.34 176.86C239.24 176.86 243.2 181.78 243.2 187.86C243.2 193.94 239.24 198.87 234.34 198.87C229.46 198.87 225.49 193.94 225.49 187.86C225.49 181.78 229.46 176.86 234.34 176.86Z" /><path class="shp9" d="M234.7 180.73C236.08 180.73 237.2 182.13 237.2 183.85C237.2 185.58 236.08 186.98 234.7 186.98C233.3 186.98 232.18 185.58 232.18 183.85C232.18 182.13 233.3 180.73 234.7 180.73Z" /><path class="shp4" d="M228.38 221.14C227.59 219.34 229.27 215.31 233.42 209.05C239.64 199.66 251.92 195.23 256.7 193.86C261.46 192.48 266.5 192.54 268.43 193.44C270.37 194.34 270.37 202.21 259.53 206.83C248.69 211.46 244.05 213.74 240.05 216.02C236.04 218.31 230.18 222.65 228.38 221.14Z" /><path class="shp6" d="M228.48 218.94C228.9 217.13 230.12 214.03 233.42 209.05C239.64 199.66 251.92 195.23 256.7 193.86C261.46 192.48 266.5 192.54 268.43 193.44C269.38 193.87 269.85 195.96 268.86 198.52C261.86 196 256.97 198.78 252.34 202.47C246.2 207.36 235.38 215.9 228.48 218.94Z" /><path class="shp5" d="M228.24 219.48C228.84 211.6 233.49 204.72 242.2 198.83C250.9 192.94 258.89 190.98 266.16 192.95C250.18 192.98 237.54 201.82 228.24 219.48Z" /><path class="shp5" d="M253.67 204.3C254.06 201.16 256.34 198.85 260.51 197.38C264.68 195.92 267.64 195.68 269.38 196.66C262.3 198.15 257.06 200.7 253.67 204.3Z" /><path class="shp5" d="M259 205.39C259.58 202.9 261.98 201.12 266.22 200.07C270.46 199.01 272.97 199.21 273.74 200.65C267.58 201.34 262.66 202.92 259 205.39Z" /><path class="shp5" d="M271.34 205.36C272.89 203.91 274.41 203.46 275.88 204.02C277.34 204.57 278.26 205.42 278.63 206.56C275.49 205.56 273.06 205.16 271.34 205.36Z" /><path class="shp5" d="M170.44 151.73C170.85 147.3 174.12 144.45 180.24 143.16C189.43 141.23 194.88 147.1 196.74 149.24C198.61 151.37 200.06 155.18 200.48 157.18C200.75 158.51 201.01 159.64 201.23 160.56C199.44 155.5 195.11 152.97 188.25 152.97C177.97 152.97 171.61 164.99 170.5 167.47C169.77 169.13 168.61 171.78 167.04 175.42C165.94 168.28 167.07 160.38 170.44 151.73Z" /><path class="shp9" d="M109.24 264.92C109.1 267.09 108.64 270.68 107.86 275.69C106.69 283.22 105.2 289.81 106.72 295.63C108.24 301.44 102.68 303.19 100.4 299.8C98.13 296.41 99.43 288.82 99.98 285.02C100.54 281.21 103.09 270.73 103.78 268.93C104.48 267.13 105.99 261.4 109.24 264.92Z" /><path class="shp9" d="M105.58 216.48L107.98 259.11L139.81 230.66L111.37 262.5L153.99 264.9L111.37 267.29L139.81 299.13L107.98 270.68L105.58 313.3L103.18 270.68L71.35 299.13L99.79 267.29L57.17 264.9L99.79 262.5L71.35 230.66L103.18 259.11L105.58 216.48Z" /><path class="shp9" d="M241.35 225.68L243.14 257.66L267.04 236.31L245.69 260.21L277.68 262.01L245.69 263.81L267.04 287.71L243.14 266.35L241.35 298.35L239.55 266.35L215.65 287.71L237 263.81L205.01 262.01L237 260.21L215.65 236.31L239.55 257.66L241.35 225.68Z" /><path class="shp6" d="M237.65 492.75L237.75 495.47C262.72 494.47 286.56 489.07 308.52 480.07C310.22 479.37 311.92 478.64 313.61 477.89C297.37 469.57 283.33 455.49 278.44 431.98C264.32 364.03 285.3 324.38 291.31 296.18C291.79 293.96 292.12 291.58 292.34 289.09C282.94 299.28 271.09 307.12 258.48 312.78C253.68 314.94 248.71 316.8 243.67 318.31C241.69 318.91 239.58 319.51 237.55 319.92L233.97 320.63C229.75 325.25 225.5 329.17 221.62 331.53C219.97 332.54 218.35 333.69 216.77 334.79C214.87 336.12 212.96 337.45 211.05 338.75C220.1 343.74 230.8 352.46 235.68 366.19C235.8 366.54 235.93 366.9 236.05 367.26L236.07 367.32C236.1 367.43 236.15 367.54 236.17 367.66C236.24 367.86 236.31 368.06 236.38 368.27C236.44 368.45 236.5 368.62 236.56 368.81C236.62 368.99 236.68 369.16 236.73 369.34C236.78 369.54 236.85 369.74 236.92 369.94L236.93 369.99C236.99 370.17 237.04 370.36 237.09 370.53C237.13 370.67 237.18 370.81 237.22 370.94C237.55 372.08 237.88 373.24 238.19 374.39L238.22 374.53C238.23 374.56 238.23 374.58 238.23 374.61C238.33 374.96 238.42 375.31 238.52 375.66L238.54 375.78C238.61 376.06 238.68 376.36 238.75 376.62L238.89 377.18L238.98 377.56C239.03 377.82 239.09 378.05 239.15 378.31L239.38 379.36L239.52 379.97L239.66 380.61L239.69 380.75L239.85 381.5L239.88 381.66L239.93 381.97C239.96 382.06 239.98 382.18 239.99 382.27L240.04 382.46L240.06 382.57L240.2 383.3L240.23 383.44C240.3 383.77 240.36 384.1 240.41 384.43L240.44 384.59L240.47 384.71L240.53 385.06C240.64 385.62 240.73 386.18 240.84 386.77C240.85 386.84 240.86 386.91 240.88 387L240.95 387.5L241.08 388.29L241.15 388.69L241.26 389.32L241.38 390.07L241.38 390.14L241.52 391.06L241.54 391.22L241.69 392.32L241.7 392.35L241.84 393.43L241.88 393.66L241.89 393.8L242.02 394.78L242.08 395.23L242.2 396.14L242.22 396.33L242.3 397.11L242.38 397.78L242.5 398.84L242.5 398.86C242.57 399.54 242.64 400.2 242.7 400.86L242.72 401.02L242.76 401.42L242.76 401.47L242.8 401.96C242.85 402.47 242.9 402.99 242.95 403.5C242.96 403.67 242.97 403.83 242.99 403.97L243.02 404.25L243.09 405.24C245.48 435.75 236.57 462.45 237.65 492.75Z" /></g></g></svg>