<svg  viewBox="0 0 94 28" fill="none" xmlns="http://www.w3.org/2000/svg">
<path d="M35.5538 7.756H40.3058C40.8578 7.756 41.4098 7.798 41.9618 7.882C42.5258 7.954 43.0298 8.11 43.4738 8.35C43.9178 8.578 44.2778 8.902 44.5538 9.322C44.8298 9.742 44.9678 10.3 44.9678 10.996C44.9678 11.716 44.7638 12.316 44.3558 12.796C43.9598 13.264 43.4318 13.6 42.7718 13.804V13.84C43.1918 13.9 43.5698 14.02 43.9058 14.2C44.2538 14.368 44.5478 14.59 44.7878 14.866C45.0398 15.13 45.2318 15.442 45.3638 15.802C45.4958 16.162 45.5618 16.546 45.5618 16.954C45.5618 17.626 45.4178 18.19 45.1298 18.646C44.8418 19.09 44.4698 19.45 44.0138 19.726C43.5578 20.002 43.0418 20.2 42.4658 20.32C41.9018 20.44 41.3378 20.5 40.7738 20.5H35.5538V7.756ZM38.3618 12.85H40.3958C40.6118 12.85 40.8218 12.826 41.0258 12.778C41.2418 12.73 41.4338 12.652 41.6018 12.544C41.7698 12.436 41.9018 12.292 41.9978 12.112C42.1058 11.932 42.1598 11.716 42.1598 11.464C42.1598 11.2 42.0998 10.984 41.9798 10.816C41.8718 10.636 41.7278 10.498 41.5478 10.402C41.3678 10.306 41.1638 10.24 40.9358 10.204C40.7078 10.156 40.4858 10.132 40.2698 10.132H38.3618V12.85ZM38.3618 18.124H40.8818C41.0978 18.124 41.3138 18.1 41.5298 18.052C41.7578 18.004 41.9618 17.92 42.1418 17.8C42.3218 17.68 42.4658 17.524 42.5738 17.332C42.6938 17.14 42.7538 16.906 42.7538 16.63C42.7538 16.33 42.6758 16.09 42.5198 15.91C42.3758 15.718 42.1898 15.574 41.9618 15.478C41.7338 15.382 41.4878 15.316 41.2238 15.28C40.9598 15.244 40.7138 15.226 40.4858 15.226H38.3618V18.124ZM60.6717 15.586C60.6717 16.342 60.5577 17.038 60.3297 17.674C60.1017 18.31 59.7597 18.862 59.3037 19.33C58.8597 19.798 58.3017 20.164 57.6297 20.428C56.9577 20.692 56.1837 20.824 55.3077 20.824C54.4197 20.824 53.6397 20.692 52.9677 20.428C52.2957 20.164 51.7317 19.798 51.2757 19.33C50.8317 18.862 50.4957 18.31 50.2677 17.674C50.0397 17.038 49.9257 16.342 49.9257 15.586V7.756H52.7337V15.478C52.7337 15.874 52.7937 16.24 52.9137 16.576C53.0457 16.912 53.2257 17.206 53.4537 17.458C53.6817 17.698 53.9517 17.89 54.2637 18.034C54.5877 18.166 54.9357 18.232 55.3077 18.232C55.6797 18.232 56.0217 18.166 56.3337 18.034C56.6457 17.89 56.9157 17.698 57.1437 17.458C57.3717 17.206 57.5457 16.912 57.6657 16.576C57.7977 16.24 57.8637 15.874 57.8637 15.478V7.756H60.6717V15.586ZM65.9675 7.756H70.8995C71.5475 7.756 72.1595 7.822 72.7355 7.954C73.3235 8.074 73.8335 8.284 74.2655 8.584C74.7095 8.872 75.0575 9.268 75.3095 9.772C75.5735 10.264 75.7055 10.882 75.7055 11.626C75.7055 12.526 75.4715 13.294 75.0035 13.93C74.5355 14.554 73.8515 14.95 72.9515 15.118L76.1915 20.5H72.8255L70.1615 15.406H68.7755V20.5H65.9675V7.756ZM68.7755 13.03H70.4315C70.6835 13.03 70.9475 13.024 71.2235 13.012C71.5115 12.988 71.7695 12.934 71.9975 12.85C72.2255 12.754 72.4115 12.61 72.5555 12.418C72.7115 12.226 72.7895 11.956 72.7895 11.608C72.7895 11.284 72.7235 11.026 72.5915 10.834C72.4595 10.642 72.2915 10.498 72.0875 10.402C71.8835 10.294 71.6495 10.222 71.3855 10.186C71.1215 10.15 70.8635 10.132 70.6115 10.132H68.7755V13.03ZM91.0854 15.586C91.0854 16.342 90.9714 17.038 90.7434 17.674C90.5154 18.31 90.1734 18.862 89.7174 19.33C89.2734 19.798 88.7154 20.164 88.0434 20.428C87.3714 20.692 86.5974 20.824 85.7214 20.824C84.8334 20.824 84.0534 20.692 83.3814 20.428C82.7094 20.164 82.1454 19.798 81.6894 19.33C81.2454 18.862 80.9094 18.31 80.6814 17.674C80.4534 17.038 80.3394 16.342 80.3394 15.586V7.756H83.1474V15.478C83.1474 15.874 83.2074 16.24 83.3274 16.576C83.4594 16.912 83.6394 17.206 83.8674 17.458C84.0954 17.698 84.3654 17.89 84.6774 18.034C85.0014 18.166 85.3494 18.232 85.7214 18.232C86.0934 18.232 86.4354 18.166 86.7474 18.034C87.0594 17.89 87.3294 17.698 87.5574 17.458C87.7854 17.206 87.9594 16.912 88.0794 16.576C88.2114 16.24 88.2774 15.874 88.2774 15.478V7.756H91.0854V15.586Z" fill="white"/>
<circle cx="12.3605" cy="12.8371" r="11.8371" fill="white"/>
<circle cx="9.61476" cy="7.64601" r="2.44289" fill="#070602"/>
<circle cx="9.61476" cy="12.8374" r="2.44289" fill="#FFCA00"/>
<circle cx="15.1069" cy="12.8374" r="2.44289" fill="#FFCA00"/>
<circle cx="9.61476" cy="18.0249" r="2.44289" fill="#FFCA00"/>
<circle cx="15.1069" cy="18.0249" r="2.44289" fill="#FFCA00"/>
</svg>
