<svg width="41" height="52" viewBox="0 0 41 52" fill="none" xmlns="http://www.w3.org/2000/svg">
<path fill-rule="evenodd" clip-rule="evenodd" d="M20.5002 5.23828C9.73331 5.23828 1.00038 13.9511 1.00038 24.6931C1.00038 35.4351 9.73331 44.1479 20.5002 44.1479C31.2671 44.1479 40 35.4351 40 24.6931C40 13.9511 31.2671 5.23828 20.5002 5.23828Z" fill="black"/>
<path d="M20.5002 5.23828C9.73331 5.23828 1.00038 13.9511 1.00038 24.6931C1.00038 35.4351 9.73331 44.1479 20.5002 44.1479C31.2671 44.1479 40 35.4351 40 24.6931C40 13.9511 31.2671 5.23828 20.5002 5.23828Z" stroke="black" stroke-width="0.149574" stroke-miterlimit="22.9256"/>
<path fill-rule="evenodd" clip-rule="evenodd" d="M20.4983 6.48047C10.413 6.48047 2.22517 14.639 2.22517 24.7114C2.22517 34.7737 10.4025 42.9427 20.4983 42.9427C30.5839 42.9427 38.7715 34.784 38.7715 24.7114C38.7715 14.639 30.5942 6.48047 20.4983 6.48047Z" fill="#F4E41C"/>
<path fill-rule="evenodd" clip-rule="evenodd" d="M4.25546 33.048C7.23297 38.801 13.1981 42.7649 20.0964 42.9219C20.0964 42.8487 20.107 42.7649 20.107 42.6919C20.1384 41.7505 20.0861 40.8195 19.9813 39.8886C19.8867 39.0729 19.761 38.2674 19.6667 37.4515C19.4359 35.3806 19.5513 33.7489 20.2538 31.7615C20.5578 30.8934 21.1868 30.2136 21.9521 29.7325C22.2352 29.5546 23.0111 29.1465 23.3465 29.1257C23.8498 29.1257 24.7828 28.77 25.2022 28.5192C26.3763 27.8287 26.6594 26.7724 25.9149 25.5904C24.7934 23.8123 21.9312 22.4525 19.9707 21.9295C18.157 21.4484 16.0499 21.3124 14.299 22.1179L14.1836 22.17L14.1313 22.2852C13.7434 23.1114 13.3555 23.9482 12.9886 24.785C12.695 25.4545 12.3805 26.1553 12.1288 26.8559C11.8563 27.63 11.6257 28.4146 11.3529 29.1884C10.5459 31.5001 9.44493 33.6651 6.58282 33.1945C5.85949 33.0691 5.11529 32.9959 4.38141 33.0586L4.25546 33.048Z" fill="black"/>
<path fill-rule="evenodd" clip-rule="evenodd" d="M4.43262 33.38C5.48103 35.3149 6.87538 37.0304 8.53172 38.4634C10.0206 39.7499 11.7189 40.8062 13.5746 41.5698C15.4929 42.3544 17.5794 42.8249 19.7599 42.9087C19.7599 42.8355 19.7705 42.7517 19.7705 42.6682C19.9171 38.4737 18.3447 36.1412 19.9382 31.6331C20.6929 29.5203 23.0414 28.7673 23.3663 28.7673C23.6913 28.7673 27.1091 28.0873 25.6519 25.7653C24.1947 23.4433 18.2607 20.6924 14.4656 22.4182C14.4656 22.4182 12.935 25.6502 12.4842 26.9473C11.4464 29.9074 10.6496 34.1957 6.5503 33.5054C5.83753 33.4008 5.1142 33.3275 4.43262 33.38Z" fill="#B99D85"/>
<path fill-rule="evenodd" clip-rule="evenodd" d="M21.9393 10.606C22.6523 11.1813 23.5539 11.631 24.4974 11.4428C24.8328 11.38 25.2522 11.2022 25.4933 10.9512C25.7658 10.6688 26.028 10.3864 26.29 10.0935C26.9191 9.40317 27.5376 8.69192 28.1352 7.95973C28.8167 7.13343 29.3827 6.18161 29.844 5.20886C30.1691 4.529 30.4731 3.79683 30.6933 3.0751C30.7982 2.75087 30.8819 2.42661 30.9764 2.10236C31.123 1.57939 31.2593 1.0564 31.3852 0.533429L31.5215 0L30.9973 0.167335C30.5885 0.292853 30.1166 0.575269 29.7917 0.836765C29.3093 1.2133 28.8376 1.57939 28.366 1.97686C27.4538 2.76133 26.5731 3.58763 25.7238 4.43486C25.357 4.80095 25.0216 5.17748 24.7071 5.58542C23.9418 6.55816 23.2602 7.61458 22.6523 8.70238C22.3795 9.19397 22.0966 9.71694 21.8659 10.2295L21.7716 10.4491L21.9393 10.606Z" fill="black"/>
<path fill-rule="evenodd" clip-rule="evenodd" d="M22.1406 10.3752C22.1406 10.3752 23.7655 6.85035 25.9463 4.67475C28.1268 2.49917 29.4269 1.52643 29.9825 1.09758C30.5381 0.658264 31.0938 0.480469 31.0938 0.480469C31.0938 0.480469 30.6849 2.11216 30.4018 3.00122C30.1293 3.89029 29.2906 6.08681 27.8962 7.78126C26.5019 9.4757 25.2752 10.7518 25.2752 10.7518C25.2752 10.7518 24.1114 11.9546 22.1406 10.3752Z" fill="#B99D85"/>
<path fill-rule="evenodd" clip-rule="evenodd" d="M24.0359 10.7468C24.0359 10.7468 24.5287 9.26159 25.3674 7.75539C26.2061 6.24922 26.678 5.63209 27.2439 5.06728C27.8101 4.50247 29.1836 3.58203 29.1836 3.58203C29.1836 3.58203 29.0368 3.81212 28.9108 3.96902C28.7957 4.12592 28.7117 4.17822 28.7117 4.17822C28.7117 4.17822 28.198 5.60071 28.0304 6.13416C27.873 6.66759 27.3488 7.62988 26.8666 8.11103C26.3843 8.59216 25.3254 9.89962 25.1157 10.1925C24.8957 10.4644 24.644 11.0502 24.0359 10.7468Z" fill="black"/>
<path fill-rule="evenodd" clip-rule="evenodd" d="M24.4322 10.5092C24.5054 10.3104 24.5894 10.1117 24.6628 9.92342C24.9459 9.2331 25.2604 8.55321 25.6272 7.89426C26.1514 6.9529 26.6862 6.04292 27.4515 5.26891C27.6715 5.04925 27.9443 4.84006 28.1957 4.64132C28.1957 4.64132 28.2062 4.63086 28.2168 4.63086C28.1539 4.79822 28.1014 4.96558 28.0385 5.13293C27.9337 5.42581 27.8289 5.72912 27.7346 6.03246C27.5666 6.5868 27.053 7.47587 26.6442 7.8838C26.3505 8.17668 26.0677 8.52183 25.7949 8.83562C25.5958 9.06574 25.4072 9.29586 25.2184 9.53641C25.0927 9.69331 24.9668 9.83975 24.8514 9.99664C24.7676 10.1117 24.6942 10.2372 24.6103 10.3523C24.5474 10.4255 24.4951 10.4882 24.4322 10.5092Z" fill="#F6C4B1"/>
<path fill-rule="evenodd" clip-rule="evenodd" d="M26.072 19.2923C26.1035 19.062 26.1349 18.8112 26.1558 18.5809C26.2083 18.0579 26.2606 17.5349 26.2817 17.0225C26.3026 16.5204 26.3131 15.9765 26.2606 15.464C26.1977 14.9724 26.1349 14.4703 26.0615 13.9787C25.9355 13.1838 25.7261 12.1483 25.2856 11.4684C25.2436 11.3952 25.1913 11.3325 25.1285 11.2697C24.6462 10.7677 23.8493 10.7572 23.2519 11.0605C22.4026 11.4894 22.0567 12.3993 22.0356 13.2989C22.0041 14.2298 21.9413 15.1816 22.1404 16.0916C22.5494 17.9325 23.9961 18.8947 25.6735 19.5328L26.03 19.6688L26.072 19.2923Z" fill="black"/>
<path fill-rule="evenodd" clip-rule="evenodd" d="M25.7741 19.2287C25.7741 19.2287 26.1095 16.7706 25.9521 15.4736C25.795 14.1871 25.5853 12.4927 25.0191 11.6036C24.4529 10.7145 22.3983 11.0179 22.3249 13.2876C22.2618 15.5573 21.9684 17.7852 25.7741 19.2287Z" fill="#B99D85"/>
<path fill-rule="evenodd" clip-rule="evenodd" d="M32.9309 29.7992C32.9309 29.7992 33.6542 27.9896 33.539 26.1069C33.4131 24.2243 35.5938 22.3832 34.7971 21.5675C34.0001 20.7412 31.2325 20.8144 30.289 20.9923C29.3454 21.1596 23.7051 23.5757 21.2624 21.0864C18.8196 18.5968 18.4737 17.9484 18.4737 17.9484C18.4737 17.9484 16.1255 17.6138 17.4358 22.3937C18.7465 27.1739 23.1286 28.9205 24.8898 29.5691C26.6615 30.207 31.7776 30.9603 32.9309 29.7992Z" fill="#E30613"/>
<path fill-rule="evenodd" clip-rule="evenodd" d="M32.0301 26.0239C31.9776 25.982 31.9253 25.9507 31.8413 25.9299C31.6945 25.888 31.5373 25.8671 31.3905 25.8461C31.1599 25.8042 30.9292 25.7728 30.6986 25.752C30.4364 25.7312 30.143 25.7101 29.8808 25.7415C29.5662 25.7728 29.3043 25.9193 29.1154 26.1809C29.084 26.2226 29.0526 26.275 29.0212 26.3272C28.9058 26.118 28.7486 25.982 28.4341 25.8774C28.3501 25.8461 28.235 25.8358 28.1405 25.8253C27.9939 25.8042 27.8574 25.7939 27.7108 25.7834C27.3334 25.752 26.9558 25.7415 26.5784 25.7207C25.9599 25.6996 25.3518 25.6788 24.7333 25.6682C24.5027 25.6682 24.2719 25.658 24.0519 25.6369C23.5697 25.595 23.0769 25.522 22.605 25.3963C22.2171 25.2917 21.798 25.1453 21.4729 24.9152C21.0535 24.612 20.5922 24.3401 20.11 24.1517C19.9528 24.089 19.7432 24.0263 19.5752 24.0052L19.3447 23.9844L19.3341 24.2144C19.3341 24.3401 19.3341 24.476 19.3552 24.612C19.3867 24.9258 19.439 25.2499 19.5229 25.5534C19.7746 26.4842 20.2671 27.3105 21.0535 27.8962C21.5358 28.2624 22.1019 28.5657 22.647 28.8167C23.3809 29.1514 24.1568 29.4338 24.9429 29.6638C25.2994 29.7684 25.6663 29.873 26.0228 29.9673L26.1487 29.9987L26.2325 29.8941C26.3898 29.7057 26.5681 29.4338 26.6624 29.2038C26.6729 29.1619 26.6938 29.12 26.7044 29.0781C26.7252 29.1305 26.7567 29.1827 26.7881 29.2454C26.8721 29.413 27.0083 29.6638 27.1446 29.7895L27.1969 29.8417L28.6018 30.0195L28.6752 29.9254C28.8429 29.7162 29.0106 29.4233 29.1154 29.1827C29.126 29.1514 29.1469 29.1095 29.1574 29.0781C29.2623 29.2978 29.3882 29.4965 29.5454 29.643C29.6502 29.7371 29.9856 30.0719 30.1219 30.1136L30.1953 30.1346L30.2687 30.1136C30.4261 30.0614 30.5729 30.009 30.7195 29.9568C30.8243 29.9149 30.9292 29.8835 31.0237 29.8417C31.118 29.7998 31.2437 29.7581 31.2857 29.6535C31.3276 29.5698 31.3799 29.486 31.4219 29.4024C31.4848 29.2768 31.5479 29.1514 31.6002 29.0154C31.6525 29.1827 31.7259 29.3397 31.7993 29.4757C32.1767 30.1449 32.8583 30.2079 33.3196 29.5803C33.4033 29.4546 33.4873 29.3187 33.5607 29.1932C33.7284 28.9108 33.8752 28.6075 33.9904 28.304C34.0535 28.1367 34.0952 27.9694 34.1267 27.8021C34.2001 27.3942 34.3363 26.6096 33.9486 26.3064C33.9067 26.275 33.8752 26.2437 33.8333 26.2123C33.6236 26.0345 33.3614 25.9717 33.0994 25.9193C32.8897 25.8774 32.638 25.8253 32.418 25.8358C32.2815 25.8147 32.1035 25.8566 32.0301 26.0239Z" fill="black"/>
<path fill-rule="evenodd" clip-rule="evenodd" d="M33.1689 29.4337C33.1689 29.4337 33.7979 28.5445 33.9445 27.7391C34.0914 26.9442 34.0179 26.5885 33.8502 26.4525C33.672 26.3166 33.6617 26.2225 33.0955 26.1074C32.5293 25.982 32.2673 26.0028 32.2253 26.1284C32.1834 26.2539 32.1099 26.7769 32.0576 27.0069C32.0051 27.2371 31.7954 27.6974 31.7954 27.6974C31.7954 27.6974 31.9108 27.2266 31.9422 26.8396C31.9737 26.4525 32.0262 26.2017 31.7851 26.1387C31.5543 26.076 30.5059 25.8879 29.9083 25.9506C29.3109 26.0133 29.1327 26.5363 29.1327 26.7663C29.1327 26.9966 29.0907 27.7288 29.0907 27.7288C29.0907 27.7288 29.0381 27.0279 28.9544 26.735C28.8705 26.4422 28.797 26.212 28.3777 26.0866C27.9583 25.9506 24.7505 25.8879 24.7505 25.8879C24.7505 25.8879 22.4754 25.8879 21.3642 25.093C20.2529 24.2978 19.5713 24.2246 19.5713 24.2246C19.5713 24.2246 19.4979 26.4422 21.1965 27.7288C22.8948 29.0048 26.0923 29.7578 26.0923 29.7578C26.0923 29.7578 26.3754 29.4232 26.4802 29.1302C26.5851 28.8375 26.6899 28.4294 26.6899 28.4294C26.6899 28.4294 26.8262 28.7851 27.0044 29.1513C27.1827 29.5067 27.319 29.6429 27.319 29.6429L28.5351 29.7892C28.5351 29.7892 28.7762 29.4859 28.9544 29.0883C29.1327 28.691 29.2061 28.398 29.2061 28.398C29.2061 28.398 29.3109 29.078 29.7303 29.4754C30.1494 29.8729 30.2334 29.9043 30.2334 29.9043C30.2334 29.9043 31.1035 29.6113 31.1244 29.5697C31.1455 29.5172 31.3341 29.2245 31.5123 28.7642C31.6906 28.3039 31.722 28.2518 31.722 28.2518C31.722 28.2518 31.7326 28.8375 32.0262 29.3708C32.2987 29.8834 32.8018 29.9356 33.1689 29.4337Z" fill="white"/>
<path fill-rule="evenodd" clip-rule="evenodd" d="M34.1862 22.3413C34.1234 22.1426 33.9243 21.9334 33.7669 21.808C33.2638 21.4313 32.5613 21.3477 31.9532 21.3791L31.796 21.3896L31.754 21.5464C31.7121 21.6929 31.6912 21.8707 31.6806 22.0275C31.6492 22.3937 31.6701 22.7702 31.754 23.1362C31.8378 23.5127 31.9112 23.8997 31.9846 24.2762C32.0791 24.7784 32.1734 25.2806 32.2571 25.793L32.2677 25.8663L32.3202 25.9185C32.5299 26.1068 32.8547 26.2636 33.1273 26.3263C33.6726 26.4625 34.4168 26.2217 34.7419 25.7511C35.0984 25.2282 34.8887 24.2868 34.7313 23.7219C34.6896 23.5859 34.6476 23.4397 34.595 23.3035C34.4799 22.9794 34.3331 22.6551 34.1862 22.3413Z" fill="black"/>
<path fill-rule="evenodd" clip-rule="evenodd" d="M31.9695 21.5972C31.9695 21.5972 31.7912 22.2875 31.9695 23.0826C32.1477 23.8776 32.4728 25.7498 32.4728 25.7498C32.4728 25.7498 32.7662 26.0112 33.1856 26.1158C33.6049 26.2204 34.2759 26.0531 34.5694 25.6241C34.863 25.2057 34.6953 24.3692 34.5379 23.773C34.3702 23.1872 33.9928 22.4237 33.9928 22.4237C33.9928 22.4237 33.7306 21.5137 31.9695 21.5972Z" fill="white"/>
<path fill-rule="evenodd" clip-rule="evenodd" d="M30.4532 21.6626C30.0967 21.579 29.7299 21.6312 29.3943 21.7882C29.1848 21.8823 28.9121 22.0707 28.7863 22.2799C28.629 22.5518 28.6186 23.2524 28.6186 23.5767C28.6186 24.2148 28.5872 25.5954 28.9121 26.1079C29.0169 26.2752 29.1323 26.4217 29.2897 26.5473C29.7088 26.882 30.2855 26.8611 30.7886 26.7982C31.2185 26.7355 32.2355 26.5576 32.3927 26.0452C32.4241 25.9197 32.4241 25.7208 32.4138 25.5954C32.4032 25.3862 32.3927 25.1665 32.3718 24.9573C32.3404 24.6854 32.3089 24.3821 32.2461 24.1207C32.183 23.8697 32.1201 23.608 32.0467 23.357C31.963 23.0642 31.837 22.698 31.6693 22.4366C31.4597 22.1123 30.8517 21.809 30.4952 21.6731L30.4847 21.6626H30.4532Z" fill="black"/>
<path fill-rule="evenodd" clip-rule="evenodd" d="M30.404 21.8697C30.404 21.8697 31.2533 22.2043 31.4735 22.56C31.7041 22.9051 31.9032 23.7 32.0186 24.1708C32.134 24.6414 32.2283 25.7815 32.1654 25.9803C32.1026 26.1895 31.7041 26.4404 30.7396 26.5764C29.775 26.7125 29.3873 26.4823 29.0831 25.9906C28.7791 25.499 28.8211 23.7314 28.8211 23.5746C28.8211 23.4073 28.8314 22.6124 28.9679 22.3821C29.1145 22.1416 29.7227 21.7126 30.404 21.8697Z" fill="#FDE100"/>
<path fill-rule="evenodd" clip-rule="evenodd" d="M30.3994 21.8697C30.3994 21.8697 31.039 22.1207 31.3535 22.424C30.8396 22.424 30.022 22.4972 29.7181 22.9365C29.309 23.5222 29.4664 25.6036 30.1792 26.6079C29.6132 26.5869 29.3196 26.3672 29.0785 25.9907C28.7745 25.499 28.8165 23.7314 28.8165 23.5746C28.8165 23.4073 28.8268 22.6124 28.9631 22.3821C29.1099 22.1416 29.7181 21.7126 30.3994 21.8697Z" fill="#FAC200"/>
<path fill-rule="evenodd" clip-rule="evenodd" d="M29.067 26.2099C29.0462 25.8439 29.025 25.4672 28.9936 25.1012C28.9727 24.892 28.9622 24.6933 28.9413 24.4841C28.9308 24.3376 28.9097 24.1806 28.8782 24.0344C28.7839 23.616 28.7316 23.3857 28.4589 23.0406C28.2912 22.8211 28.0081 22.6119 27.7355 22.5281C27.3059 22.3608 26.834 22.3084 26.4146 22.5073C26.1421 22.6327 25.9009 22.8627 25.7856 23.1452C25.7436 23.2498 25.7121 23.3857 25.6807 23.5322C25.5444 23.3544 25.3453 23.1765 25.1776 23.0616C24.9365 22.9046 24.6429 22.7792 24.3492 22.8314C23.909 22.9151 23.5002 23.1138 23.2694 23.5114C23.1962 23.6368 23.1331 23.7938 23.0808 23.9401C22.9131 23.6263 22.7034 23.2184 22.4623 23.0197C22.1164 22.7373 21.5291 22.7792 21.2357 23.1138C21.1937 23.1557 21.1517 23.2079 21.1203 23.2708C21.0888 23.1349 21.0574 22.9884 21.0154 22.8524C20.9735 22.7059 20.9317 22.5595 20.8897 22.413C20.8686 22.3397 20.8477 22.2562 20.8163 22.1724C20.7638 22.047 20.5646 21.9424 20.4493 21.89C20.2396 21.8064 20.009 21.7751 19.7888 21.8378C19.6002 21.8797 19.422 21.9632 19.2857 22.1097C19.1914 22.2038 19.1389 22.3084 19.0655 22.4235C18.8978 22.6641 18.772 23.2498 18.7406 23.553C18.7301 23.6787 18.709 23.8041 18.6986 23.9401C18.6775 24.1493 18.6775 24.369 18.6986 24.5887C18.7615 25.1744 19.0026 25.6974 19.4639 26.0844C19.7259 26.3039 20.1664 26.6388 20.5438 26.5864C20.6695 26.5656 20.7638 26.5131 20.8269 26.4504C20.9106 26.5342 21.068 26.6074 21.1517 26.6596C21.4662 26.8166 22.4098 26.9839 22.7663 26.9839C22.9969 26.9839 23.2276 26.9315 23.3742 26.7956C23.4162 26.8896 23.4896 26.9734 23.5736 27.0258C23.7518 27.1513 23.9718 27.1931 24.1815 27.2034C24.4226 27.214 24.6848 27.2034 24.926 27.1826C25.1356 27.1618 25.3453 27.1407 25.555 27.0988C25.7121 27.0675 25.9429 27.0153 26.0163 26.8375C26.0267 26.8061 26.0372 26.7747 26.0478 26.7329C26.1212 26.8269 26.2049 26.9107 26.2783 26.9526C26.446 27.0361 26.7082 27.0361 26.8968 27.0361C27.2742 27.0258 27.6621 26.9839 28.0292 26.9421C28.3226 26.9107 28.7525 26.8269 28.9516 26.5969C29.0462 26.4713 29.0985 26.3353 29.067 26.2099Z" fill="black"/>
<path fill-rule="evenodd" clip-rule="evenodd" d="M27.6792 22.7294C27.6792 22.7294 28.0565 22.8549 28.2979 23.1792C28.5493 23.5035 28.5913 23.6811 28.6753 24.0892C28.7695 24.4971 28.8638 26.2542 28.8638 26.2542C28.8638 26.2542 28.9898 26.5993 28.0148 26.7145C27.0398 26.8296 26.5679 26.8401 26.3793 26.7458C26.1905 26.6518 25.8971 26.045 25.8971 26.045C25.8971 26.045 25.876 26.5993 25.8237 26.7564C25.7606 26.9131 24.6705 27.0074 24.2091 26.9864C23.7478 26.9656 23.5801 26.7564 23.5695 26.6412C23.5592 26.5263 23.5381 26.1496 23.5172 25.7836C23.5067 25.4071 23.5067 25.3757 23.5067 25.3757C23.5067 25.3757 23.3495 26.0869 23.3495 26.3693C23.3495 26.6518 23.1187 26.7669 22.7833 26.7669C22.4479 26.7669 21.5253 26.589 21.2736 26.4634C21.0222 26.338 20.9905 26.2855 20.9905 26.2855C20.9905 26.2855 20.8857 26.0974 20.8962 25.7312C20.9173 25.3757 20.9173 25.2501 20.9173 25.2501C20.9173 25.2501 20.7914 25.5325 20.7494 25.7628C20.718 25.9928 20.7285 26.2334 20.7285 26.2334C20.7285 26.2334 20.5711 26.7145 19.6278 25.9196C18.6842 25.1247 18.9462 23.88 18.9777 23.5765C19.0091 23.2732 19.1454 22.7294 19.2713 22.5516C19.397 22.3632 19.481 22.154 19.8792 22.06C20.2672 21.9659 20.6342 22.217 20.6551 22.2691C20.676 22.3216 20.9382 23.1687 20.9802 23.493C21.0116 23.8173 20.9905 24.0368 20.9905 24.0368C20.9905 24.0368 21.2213 23.5452 21.4518 23.2732C21.6826 23.0119 22.1334 23.0013 22.3745 23.2C22.6156 23.3989 22.8882 23.9741 23.0036 24.1833C23.1187 24.3925 23.1502 24.5703 23.1502 24.5703C23.1502 24.5703 23.3495 23.8903 23.4961 23.6289C23.6429 23.3673 23.926 23.1478 24.4293 23.0538C24.9221 22.9595 25.4881 23.5452 25.6349 23.7962C25.7817 24.0473 25.8655 24.3506 25.8655 24.3506C25.8655 24.3506 25.8866 23.5765 26.0228 23.2419C26.1382 22.8862 26.6833 22.3319 27.6792 22.7294Z" fill="white"/>
<path fill-rule="evenodd" clip-rule="evenodd" d="M24.1068 14.3403C23.3206 14.3089 22.681 15.0097 22.681 15.9092C22.6707 16.7983 23.2995 17.5513 24.0859 17.5723C24.8721 17.6037 25.5117 16.9029 25.5117 16.0033C25.5117 15.8674 25.5012 15.7314 25.4697 15.6059C25.4697 15.6059 25.3963 14.7691 25.1238 14.2984C24.8407 13.8277 24.3899 13.8173 24.2745 13.7964C24.1594 13.7754 23.8971 13.7964 23.7086 13.901C23.5198 13.9951 23.5092 14.0997 23.5092 14.0997C23.5092 14.0997 23.7923 13.8591 24.2431 13.9323C24.6939 14.0055 24.9036 14.2252 24.9981 14.4448C25.0609 14.5913 25.1029 14.7482 25.1132 14.8423C24.8512 14.5494 24.4947 14.3612 24.1068 14.3403Z" fill="black"/>
<path fill-rule="evenodd" clip-rule="evenodd" d="M24.0988 14.5181C23.428 14.4972 22.8723 15.1247 22.8618 15.9197C22.8512 16.7146 23.3965 17.384 24.0673 17.4049C24.7383 17.4259 25.294 16.7983 25.3045 16.0033C25.3151 15.2084 24.7803 14.539 24.0988 14.5181Z" fill="white"/>
<path fill-rule="evenodd" clip-rule="evenodd" d="M23.9663 15.135C23.5784 15.1245 23.2639 15.4697 23.2533 15.9195C23.243 16.3588 23.5575 16.7352 23.9452 16.7457C24.3331 16.7563 24.6477 16.4111 24.6582 15.9613C24.6582 15.522 24.3437 15.1455 23.9663 15.135Z" fill="black"/>
<path fill-rule="evenodd" clip-rule="evenodd" d="M23.9049 15.584C23.8001 15.584 23.7058 15.699 23.6953 15.8559C23.6953 16.0024 23.7792 16.1279 23.8841 16.1279C23.9889 16.1279 24.0832 16.0128 24.0938 15.8559C24.0938 15.699 24.0098 15.584 23.9049 15.584Z" fill="white"/>
<path fill-rule="evenodd" clip-rule="evenodd" d="M14.391 17.1012L14.9781 17.0907C14.8209 17.185 14.6741 17.2896 14.5378 17.4255C14.2233 17.7288 13.9822 18.1053 13.7934 18.4818C13.4266 19.214 13.2692 20.1451 13.2903 20.9608C13.3323 22.2892 13.8354 23.492 14.6532 24.5275C15.5234 25.6048 16.6869 26.4208 17.945 26.9751C18.3644 27.1635 18.7943 27.3308 19.2345 27.4562C19.4128 27.5086 19.591 27.5608 19.7693 27.5922L20.0838 27.6549C20.4506 28.0524 20.828 28.3976 21.1636 28.6068C21.3102 28.6906 21.4467 28.7952 21.583 28.8892C21.7927 29.0357 21.9918 29.1717 22.2015 29.3179C22.778 29.705 23.365 30.0606 23.9838 30.3639C25.7241 31.2426 27.5795 31.7237 29.5401 31.7342C30.9553 31.7447 32.8215 31.6296 34.1005 30.9601C34.7821 30.5942 35.3586 30.0293 35.4425 29.2344C35.5054 28.6906 35.2746 28.1989 34.9183 27.7908C34.7924 27.6549 34.6667 27.5189 34.5199 27.404C34.4676 27.3516 34.3627 27.2784 34.2996 27.2365L34.0271 27.0692C33.9014 27.7386 33.744 28.293 33.4192 28.816L33.3143 28.8998C33.2932 28.9101 33.2829 28.9101 33.2723 28.9101C33.0101 28.9833 32.7376 29.046 32.4756 29.109C32.3916 29.1298 32.3079 29.1403 32.2239 29.1611C32.0457 29.1925 31.8571 29.2136 31.6683 29.2344C31.0812 29.3076 30.4836 29.339 29.886 29.3495C28.1982 29.3703 26.4474 29.1611 24.8434 28.6068C22.516 27.8014 20.5032 26.5986 19.4022 24.3183C19.2554 24.015 19.1297 23.6907 19.0143 23.3771C18.6789 22.4044 18.4798 21.3584 18.4064 20.3227C18.4064 20.3019 18.4064 20.281 18.4064 20.26C18.4064 20.2705 18.4064 20.2705 18.4169 20.281C18.6789 21.2432 19.1925 22.1114 19.9998 22.7076C21.5516 23.8685 23.3967 23.9836 25.2313 23.6177C25.6715 23.5339 26.112 23.4085 26.5522 23.2933C27.1079 23.1468 27.6529 22.9901 28.2086 22.8331C28.7013 22.6971 29.1941 22.5717 29.6974 22.446C30.0957 22.3519 30.5151 22.2579 30.9239 22.2055C31.574 22.1219 32.2659 22.1114 32.9158 22.2055C33.1989 22.2473 33.524 22.3101 33.828 22.4252L34.0482 22.6552C34.1425 22.8017 34.2579 22.9901 34.3207 23.1574C34.4256 23.4398 34.5199 23.7326 34.6038 24.0255L34.719 24.402L34.9812 24.1928C35.2329 24.0255 35.5054 23.7536 35.6836 23.5131C36.0925 22.9482 36.1867 22.2998 35.9037 21.6616C35.5577 20.8981 34.8238 20.4797 34.0062 20.2497L33.9642 20.1346C33.9014 19.9567 33.7965 19.7683 33.7022 19.6221C33.6603 19.5591 33.6183 19.4964 33.5657 19.4337C33.5974 19.3918 33.6183 19.3396 33.6288 19.2872C33.6288 19.2769 33.6288 19.2559 33.6288 19.2453C33.6288 19.2037 33.6392 19.1513 33.6392 19.0991C33.6392 18.9421 33.6288 18.7956 33.6077 18.6388C33.5343 18.1891 33.3038 17.7915 32.8949 17.5823C32.5593 17.4045 32.1716 17.3314 31.794 17.415C31.6474 17.4463 31.4586 17.5091 31.3329 17.6034L31.2489 17.6661C30.6304 17.3942 29.9594 17.1953 29.2884 17.1431C28.6699 17.1012 28.0303 17.0907 27.4224 17.1639C27.2233 17.185 26.9716 17.2269 26.7725 17.2896L26.1643 17.4777C26.1223 17.4882 26.0803 17.4882 26.0386 17.4988L25.7658 17.436C25.1788 17.2896 24.2877 16.9444 23.8578 16.505C23.3547 15.9925 23.1239 15.0616 23.1136 14.3608C23.1136 14.047 23.145 13.7332 23.2185 13.4404C23.3233 13.0638 23.533 12.75 23.8789 12.5618C24.0152 12.4885 24.2143 12.4153 24.3717 12.4049L24.8434 12.3735C25.441 12.5408 26.0595 12.6036 26.6779 12.4781C27.5272 12.3107 28.2297 11.8401 28.4813 10.9928C28.6908 10.292 28.6071 9.77951 28.2297 9.20424C28.1352 9.65399 28.0094 9.92595 27.8417 10.1247C27.674 10.3234 27.349 10.428 27.0973 10.4698C26.9821 10.4908 26.8773 10.5012 26.7619 10.4908C26.3111 10.4698 25.8603 10.2607 25.4618 10.0515C24.9588 9.76905 24.4974 9.4448 24.0046 9.15194C23.753 9.00551 23.4804 8.85907 23.2079 8.74401C23.2602 8.74401 23.3127 8.75447 23.365 8.76493C23.6587 8.80677 23.9732 8.86953 24.2563 8.95321L25.5561 9.30884L24.5394 8.43024C24.3506 8.26288 24.0886 8.10598 23.8684 7.98047C23.3442 7.69805 22.7677 7.49933 22.17 7.44704C21.8659 7.41566 21.541 7.41566 21.237 7.44704C21.237 7.44704 21.237 7.44704 21.2474 7.44704L21.887 6.80899L20.9957 6.9345C20.8177 6.95542 20.5975 7.0391 20.4298 7.10186C19.9893 7.29014 19.5699 7.56207 19.224 7.88633C19.0457 8.05368 18.8886 8.2315 18.7418 8.43024C18.4587 8.78585 18.2176 9.17286 17.9975 9.57031C17.9975 9.58077 17.987 9.58077 17.987 9.59123C17.9345 9.48664 17.8822 9.3716 17.8296 9.267C17.6305 8.85907 17.4314 8.45116 17.2217 8.05368C17.0329 7.68759 16.8338 7.33198 16.6135 6.9868C16.4353 6.70439 16.2256 6.40107 15.9845 6.17096C15.67 5.87808 15.2403 5.60615 14.8732 5.38649C14.3701 5.08316 13.8459 4.79028 13.3112 4.51835C12.567 4.13134 11.7911 3.75478 11.0152 3.42009C10.4702 3.18997 9.88311 2.9494 9.31692 2.80296C9.01295 2.71928 8.54106 2.6147 8.27907 2.8448C7.97488 3.11675 8.19511 3.66064 8.33138 3.96398C8.57249 4.48697 8.90812 5.0204 9.25407 5.49109C9.67343 6.06636 10.1451 6.63117 10.6273 7.16462C11.2669 7.85495 11.9483 8.51389 12.6927 9.09965C13.1958 9.4971 13.7411 9.86319 14.3073 10.1665C14.8418 10.4489 15.408 10.7732 15.9216 11.1288L15.9531 11.2857C16.0056 11.5158 16.0476 11.7564 16.079 11.997C16.1627 12.5095 16.2361 13.0325 16.2781 13.5554C16.3201 14.0575 16.3515 14.821 16.2047 15.3022C15.8902 16.2854 15.2297 16.7455 14.391 17.1012Z" fill="black"/>
<path fill-rule="evenodd" clip-rule="evenodd" d="M17.9698 10.2866C17.9698 10.2866 18.5989 8.90597 19.4167 8.14242C20.2343 7.36842 21.0205 7.26382 21.0205 7.26382C21.0205 7.26382 20.6431 7.64037 20.528 7.82865C20.4126 8.01691 20.4231 8.07967 20.4231 8.07967C20.4231 8.07967 20.8634 7.65083 22.1423 7.77635C23.4318 7.90185 24.3334 8.68634 24.3334 8.68634C24.3334 8.68634 23.5261 8.46668 22.9602 8.45622C22.394 8.44576 22.1004 8.84321 22.1004 8.84321C22.1004 8.84321 22.698 8.74909 23.8407 9.43942C24.9836 10.1297 26.032 10.9979 27.1432 10.7992C28.2439 10.6004 28.2334 9.96239 28.2334 9.96239C28.2334 9.96239 28.6213 11.8137 26.6085 12.2217C24.5851 12.6296 22.6351 10.8828 22.1215 10.4958C21.5973 10.1193 20.8528 9.83687 20.1504 9.85779C19.4482 9.87871 19.207 10.1507 19.207 10.1507C19.207 10.1507 19.8778 9.88917 20.832 10.1611C21.7858 10.4331 21.9955 10.726 22.3834 11.0084C22.7714 11.2908 23.1802 11.5941 23.6415 11.8137C24.1029 12.0334 24.344 12.138 24.344 12.138C24.344 12.138 23.2433 12.2008 22.9182 13.4036C22.5931 14.6065 22.9602 16.0813 23.631 16.7612C24.2917 17.441 25.6858 17.7756 25.6858 17.7756C25.6858 17.7756 25.1407 18.194 25.0987 18.7484C25.057 19.2924 25.4029 19.6376 25.4029 19.6376C25.4029 19.6376 25.1093 18.5602 25.5706 18.1521C26.0214 17.7443 26.3988 17.7548 26.9859 17.9221C27.5729 18.0894 28.2962 18.5184 28.2962 18.5184C28.2962 18.5184 28.2125 18.2986 27.8771 18.0581C27.5415 17.8281 26.8496 17.6189 26.8496 17.6189C26.8496 17.6189 27.6463 17.3678 29.2609 17.4829C30.8753 17.5978 32.4059 18.6962 32.4059 18.6962C32.4059 18.6962 32.1962 18.3929 31.9133 18.1732C31.6303 17.9535 31.494 17.9013 31.494 17.9013C31.494 17.9013 32.0076 17.5248 32.7415 17.9013C33.4648 18.2778 33.318 19.3133 33.318 19.3133L32.9406 19.1981C32.9406 19.1981 33.2866 19.6165 33.4334 19.8363C33.5802 20.056 33.664 20.286 33.664 20.286C33.664 20.286 32.4584 20.0141 31.1795 20.15C29.9003 20.286 29.177 20.6836 29.177 20.6836C29.177 20.6836 30.6867 20.3384 31.9028 20.3487C33.1189 20.3592 35.0374 20.5684 35.6036 21.8444C36.1801 23.1205 34.7963 23.9991 34.7963 23.9991C34.7963 23.9991 34.5972 23.3821 34.5027 23.131C34.4084 22.8799 34.1987 22.5558 34.1987 22.5558C34.1987 22.5558 34.4818 22.6918 34.702 22.8485C34.9221 23.0056 34.9849 23.1102 34.9849 23.1102C34.9849 23.1102 35.0583 22.901 34.3875 22.4512C33.7165 22.0015 32.3327 21.7923 30.8544 21.9804C29.3658 22.1688 26.4197 23.131 25.1513 23.3926C23.8826 23.6435 21.8907 23.8318 20.1609 22.5348C18.4312 21.2482 18.5046 18.9681 18.5046 18.9681C18.5046 18.9681 18.7246 18.9889 18.9028 19.1354C19.0916 19.2819 19.1231 19.4387 19.1231 19.4387C19.1231 19.4387 19.2174 19.0832 18.6198 18.8008C18.0224 18.5184 17.1731 19.1773 17.1731 19.1773C17.1731 19.1773 17.4248 19.0935 17.6659 19.0308C17.9175 18.9681 18.0641 19.01 18.0641 19.01C18.0641 19.01 17.907 21.2379 18.7143 23.5389C19.511 25.84 21.0939 27.702 24.7319 28.9569C28.3697 30.2121 32.2068 29.5531 32.5318 29.4696C32.8569 29.3858 33.6851 29.2185 34.0416 28.978C34.3875 28.7479 34.3455 28.5177 34.3455 28.5177C34.3455 28.5177 34.2196 28.6536 34.0519 28.7688C33.8842 28.8839 33.6117 29.0093 33.6117 29.0093C33.6117 29.0093 33.9262 28.3609 34.0099 28.0574C34.0939 27.7541 34.1462 27.566 34.1462 27.566C34.1462 27.566 35.2366 28.2771 35.1212 29.2499C35.0166 30.2226 33.9367 31.5092 29.5229 31.4883C25.1093 31.4673 22.2263 28.9674 21.3036 28.4026C20.3706 27.8379 19.0705 26.0387 18.4206 24.9929C17.781 23.9469 17.5085 23.2983 17.5085 23.2983C17.5085 23.2983 17.8127 24.3443 18.2949 25.1916C18.7666 26.0387 19.8044 27.3463 19.8044 27.3463C19.8044 27.3463 16.7432 26.7292 14.8666 24.3756C12.9795 22.0223 13.5562 19.5957 14.0279 18.6543C14.4998 17.7129 14.9506 17.4515 15.328 17.2423C15.7053 17.0332 16.2821 17.0121 16.2821 17.0121C16.2821 17.0121 15.9464 16.8867 15.6948 16.8972C15.4433 16.9075 15.244 17.0332 15.244 17.0332C15.244 17.0332 16.0827 16.6461 16.4601 15.4328C16.8377 14.2195 16.219 11.2594 16.219 11.2594L16.9529 11.6882C16.9529 11.6882 16.5966 11.092 14.4158 9.94147C12.2353 8.78047 10.2853 6.47936 9.46746 5.36018C8.66017 4.241 8.24081 3.31009 8.45049 3.13227C8.66017 2.95448 9.46746 3.17411 10.8724 3.75987C12.2667 4.34559 14.9609 5.71581 15.7473 6.44798C16.5546 7.14876 17.5819 9.58586 17.9698 10.2866Z" fill="#B99D85"/>
<path fill-rule="evenodd" clip-rule="evenodd" d="M17.9822 10.248C18.066 10.0597 18.6636 8.8464 19.408 8.13516L19.4186 8.1247C20.2362 7.35069 21.0226 7.24609 21.0226 7.24609C21.0226 7.24609 20.645 7.62265 20.5298 7.81093C20.4144 7.99918 20.425 8.06194 20.425 8.06194C20.425 8.06194 20.8652 7.63311 22.1442 7.75863C22.4901 7.79001 22.8046 7.87368 23.0774 7.9678C23.1823 7.99918 23.2765 8.04102 23.3603 8.08286C23.7379 8.25022 24.0313 8.43849 24.1887 8.55355C24.283 8.62677 24.3353 8.66861 24.3353 8.66861C24.3353 8.66861 24.2621 8.64769 24.1467 8.61631C23.9159 8.56401 23.5071 8.46987 23.1506 8.44895C23.0877 8.44895 23.0249 8.43849 22.9726 8.43849C22.9095 8.43849 22.8572 8.43849 22.8046 8.44895C22.3539 8.51171 22.1128 8.82551 22.1128 8.82551C22.1128 8.82551 22.2701 8.80459 22.5741 8.86735C22.6581 8.88824 22.7629 8.90916 22.8781 8.951C23.0983 9.02422 23.3603 9.13928 23.6748 9.30664C23.7379 9.33802 23.8007 9.37986 23.8636 9.4217C24.0524 9.53675 24.2304 9.65181 24.4087 9.76687C24.4926 9.81915 24.5869 9.88191 24.6709 9.93421C24.6918 9.95513 24.7232 9.96558 24.7443 9.9865C24.7757 10.0074 24.8072 10.0283 24.8386 10.0388C24.9226 10.0911 25.0168 10.1434 25.1006 10.1957C25.1637 10.2271 25.216 10.2689 25.2788 10.3003C25.3733 10.3526 25.4782 10.4049 25.5725 10.4572C25.6668 10.5095 25.761 10.5513 25.8659 10.5932C26.3064 10.7815 26.736 10.8756 27.1765 10.7919C28.2772 10.5932 28.2669 9.95512 28.2669 9.95512C28.2669 9.95512 28.6546 11.8065 26.6418 12.2144C26.3169 12.2772 25.9918 12.2876 25.6773 12.2562C25.5619 12.2458 25.4468 12.2249 25.3314 12.2039C24.6184 12.068 23.9476 11.7333 23.4128 11.3986C23.3919 11.3881 23.3708 11.3672 23.35 11.3567C23.2554 11.294 23.1612 11.2312 23.0669 11.1684C22.6998 10.9174 22.4064 10.6769 22.2281 10.5409C22.1967 10.52 22.1756 10.499 22.1547 10.4886C21.6305 10.112 20.8861 9.82961 20.1839 9.85053C19.67 9.86099 19.408 10.0179 19.2926 10.0911C19.104 10.1329 18.9781 10.1539 18.9781 10.1539C18.9781 10.1539 19.3032 9.80869 19.5968 9.58905C19.8902 9.3694 20.4984 9.17066 20.4984 9.17066C20.4984 9.17066 19.7017 9.23342 19.1355 9.51583C18.5484 9.79823 17.9822 10.248 17.9822 10.248Z" fill="#525251"/>
<path fill-rule="evenodd" clip-rule="evenodd" d="M25.5609 18.167C25.5712 18.1565 25.5817 18.1459 25.5923 18.1354C25.8437 17.9054 26.0745 17.8113 26.3262 17.8008C26.2528 17.9473 26.0534 18.2086 25.5609 18.167Z" fill="#9E775C"/>
<path fill-rule="evenodd" clip-rule="evenodd" d="M25.4205 18.0534C25.2842 18.2312 25.1374 18.4613 25.1163 18.7332C25.0746 19.2772 25.4205 19.6224 25.4205 19.6224C25.4205 19.6224 25.1269 18.545 25.5882 18.1372C26.039 17.7291 26.4164 17.7396 27.0034 17.9069C27.5905 18.0742 28.3141 18.5032 28.3141 18.5032C28.3141 18.5032 28.2301 18.2834 27.8947 18.0429C27.5591 17.8129 26.8672 17.6037 26.8672 17.6037C26.8672 17.6037 27.6639 17.3526 29.2785 17.4677C30.8931 17.5828 32.4237 18.681 32.4237 18.681C32.4237 18.681 32.214 18.3777 31.9309 18.158C31.6478 17.9383 31.5116 17.8861 31.5116 17.8861C31.5116 17.8861 32.0252 17.5096 32.7591 17.8861C33.4824 18.2626 33.3356 19.2981 33.3356 19.2981L32.9582 19.1832C32.9582 19.1832 33.3042 19.6013 33.451 19.8211C33.5978 20.0408 33.6815 20.2708 33.6815 20.2708C33.6815 20.2708 32.476 19.9989 31.197 20.1348C29.9181 20.2708 29.1945 20.6684 29.1945 20.6684C29.1945 20.6684 30.7043 20.3232 31.9204 20.3335C33.1365 20.344 35.055 20.5532 35.6212 21.8293C36.1977 23.1055 34.8139 23.9839 34.8139 23.9839C34.8139 23.9839 34.6148 23.3669 34.5203 23.1158C34.426 22.8649 34.2163 22.5406 34.2163 22.5406C34.2163 22.5406 34.4994 22.6766 34.7196 22.8334C34.9396 22.9904 35.0027 23.095 35.0027 23.095C35.0027 23.095 35.0759 22.8858 34.4051 22.436C33.7341 21.9863 32.3503 21.7771 30.872 21.9652C29.3833 22.1536 26.4375 23.1158 25.1689 23.3774C23.9002 23.6285 21.9085 23.8166 20.1785 22.5196C18.4488 21.2332 18.5222 18.9529 18.5222 18.9529C18.5222 18.9529 18.7424 18.974 18.9204 19.1202C19.1092 19.2667 19.1407 19.4237 19.1407 19.4237C19.1407 19.4237 19.2349 19.068 18.6376 18.7856C18.04 18.5032 17.1907 19.1621 17.1907 19.1621C17.1907 19.1621 17.4423 19.0786 17.6834 19.0156C17.9351 18.9529 18.0817 18.9948 18.0817 18.9948C18.0817 18.9948 17.9246 21.2227 18.7319 23.5239C19.5286 25.8248 21.1115 27.6868 24.7495 28.9419C28.3875 30.1969 32.2243 29.538 32.5494 29.4544C32.8745 29.3706 33.7027 29.2033 34.0592 28.9628C34.4051 28.7327 34.3631 28.5025 34.3631 28.5025C34.3631 28.5025 34.2372 28.6384 34.0695 28.7536C33.9018 28.8687 33.6292 28.9941 33.6292 28.9941C33.6292 28.9941 33.9438 28.3457 34.0277 28.0424C34.1115 27.7389 34.164 27.5508 34.164 27.5508C34.164 27.5508 35.2541 28.2619 35.139 29.2347C35.0341 30.2074 33.9543 31.494 29.5405 31.4731C25.1269 31.4521 22.2439 28.9522 21.3212 28.3876C20.5036 27.8854 19.3923 26.4316 18.7004 25.3751C18.3859 24.8418 18.04 24.2664 17.7883 23.8061C17.61 23.4609 17.5366 23.2728 17.5366 23.2728L17.5472 23.3042C17.0858 22.2163 16.3731 19.7583 17.1907 18.6078C18.1342 17.2793 19.4972 18.9424 20.2625 19.0994C21.0278 19.2562 22.3696 19.5805 24.2147 18.5972C24.5712 18.388 24.9906 18.2104 25.4205 18.0534Z" fill="#F2E2CF"/>
<path fill-rule="evenodd" clip-rule="evenodd" d="M28.2344 19.3464C28.2344 19.3464 27.6682 18.6142 26.8295 18.4993C25.9907 18.3737 25.8859 19.0745 25.8545 19.2837C25.8231 19.5034 26.1167 19.7962 26.1167 19.7962V19.4091C26.1167 19.4091 26.5361 19.6499 27.0392 19.5556C27.5319 19.4616 27.731 19.1686 27.731 19.1686C27.731 19.1686 28.0456 19.221 28.2344 19.3464Z" fill="black"/>
<path fill-rule="evenodd" clip-rule="evenodd" d="M21.6562 12.2391C21.6562 12.2391 20.8701 11.2455 19.4443 11.2559C18.0185 11.2664 17.6514 12.8144 17.6723 13.191C17.6934 13.5675 17.8926 14.2683 17.8926 14.2683C17.8926 14.2683 18.1651 13.4629 19.3709 12.6262C20.5764 11.7999 21.478 12.2182 21.6562 12.2391Z" fill="black"/>
<path fill-rule="evenodd" clip-rule="evenodd" d="M17.0957 10.6241C17.0957 10.6241 16.666 9.4526 16.0579 8.61582C15.4499 7.76859 14.7369 6.87953 13.1538 6.0323C11.5708 5.18508 9.77799 4.66211 9.77799 4.66211C9.77799 4.66211 9.90394 4.90266 10.145 4.9968C10.3967 5.09094 10.491 5.19554 10.491 5.19554C10.491 5.19554 11.4554 6.5553 12.1579 7.18286C12.8603 7.81043 14.1813 8.91915 15.0829 9.46306C15.9636 9.98603 17.0957 10.6241 17.0957 10.6241Z" fill="black"/>
<path fill-rule="evenodd" clip-rule="evenodd" d="M11.0206 5.4082C11.6914 5.6697 12.3624 5.96255 13.002 6.29727C13.6414 6.63198 14.2287 7.03989 14.7529 7.54197C15.1511 7.92896 15.4762 8.34735 15.801 8.79712C15.8744 8.90172 15.9479 9.01676 16.0213 9.12136C16.1786 9.37239 16.3252 9.64435 16.4512 9.91628C16.0421 9.67573 15.6333 9.44561 15.2245 9.19458C14.7423 8.9017 14.2704 8.54609 13.8196 8.19045C13.3165 7.793 12.8238 7.37461 12.3519 6.95621C12.1213 6.74704 11.9011 6.50646 11.702 6.26589C11.4714 5.99395 11.2406 5.70108 11.0206 5.4082C11.0206 5.4082 11.0309 5.41866 11.0206 5.4082Z" fill="#F6C4B1"/>
<path fill-rule="evenodd" clip-rule="evenodd" d="M20.0934 14.3829C19.2233 14.3829 18.5208 15.2824 18.5208 16.4016C18.5208 17.5102 19.2233 18.4203 20.0934 18.4203C20.9636 18.4203 21.666 17.5208 21.666 16.4016C21.666 16.2343 21.6451 16.0669 21.6137 15.91C21.6137 15.91 21.5297 14.864 21.2152 14.2888C20.9007 13.7135 20.3976 13.7239 20.2611 13.703C20.1354 13.6926 19.842 13.7239 19.6323 13.8599C19.433 13.9959 19.4121 14.1214 19.4121 14.1214C19.4121 14.1214 19.7266 13.8076 20.2194 13.8704C20.7225 13.9331 20.9532 14.2051 21.0581 14.4771C21.1313 14.6548 21.1732 14.8536 21.1944 14.9686C20.9216 14.613 20.5233 14.3829 20.0934 14.3829Z" fill="black"/>
<path fill-rule="evenodd" clip-rule="evenodd" d="M20.0908 14.5996C19.3466 14.5996 18.7384 15.405 18.7384 16.3987C18.7384 17.3923 19.3466 18.1977 20.0908 18.1977C20.8352 18.1977 21.4434 17.3923 21.4434 16.3987C21.4434 15.405 20.8352 14.5996 20.0908 14.5996Z" fill="white"/>
<path fill-rule="evenodd" clip-rule="evenodd" d="M20.0486 15.1348C19.6187 15.1348 19.2727 15.5636 19.2727 16.097C19.2727 16.6305 19.6187 17.0593 20.0486 17.0593C20.4783 17.0593 20.8242 16.6305 20.8242 16.097C20.8242 15.5741 20.4783 15.1348 20.0486 15.1348Z" fill="black"/>
<path fill-rule="evenodd" clip-rule="evenodd" d="M20.028 15.4805C19.9021 15.4805 19.8078 15.606 19.8078 15.7524C19.8078 15.8988 19.9021 16.0244 20.028 16.0244C20.1538 16.0244 20.248 15.8988 20.248 15.7524C20.248 15.5955 20.1432 15.4805 20.028 15.4805Z" fill="white"/>
<path fill-rule="evenodd" clip-rule="evenodd" d="M20.5739 18.995C20.5739 18.995 20.6788 18.765 20.1337 17.9385C19.5886 17.1228 18.5191 16.7357 18.0998 16.6102C17.6804 16.4952 17.2402 16.4952 17.0725 16.5788C16.9048 16.6521 16.9048 17.3425 17.8483 17.7504C18.7917 18.1582 19.2007 18.3569 19.5466 18.5558C19.9031 18.7545 20.4168 19.131 20.5739 18.995Z" fill="#B99D85"/>
<path fill-rule="evenodd" clip-rule="evenodd" d="M20.582 18.8559C20.582 18.8559 20.4981 17.831 19.3657 17.0569C18.223 16.283 17.2691 16.5445 17.2691 16.5445C17.2691 16.5445 19.3657 16.5445 20.582 18.8559Z" fill="black"/>
<path fill-rule="evenodd" clip-rule="evenodd" d="M25.6321 12.9535C25.6321 12.9535 25.5798 12.3782 24.7726 12.2108C23.9653 12.0435 23.4934 12.556 23.3257 12.7443C23.158 12.9325 23.0322 13.2672 23.0008 13.4346C22.9694 13.6124 22.9377 13.7275 22.9377 13.7275C22.9377 13.7275 23.1685 13.0685 24.0701 13.0685C24.9717 13.0685 25.5273 14.1145 25.6216 14.3341C25.7161 14.5538 25.9258 15.0244 25.9258 15.0244C25.9258 15.0244 26.0724 14.0831 25.6321 12.9535Z" fill="black"/>
<path fill-rule="evenodd" clip-rule="evenodd" d="M30.982 22.8123C30.982 22.8123 31.0029 23.0948 31.1077 23.7537C31.2126 24.4126 31.3383 24.9878 31.202 25.49C31.0657 25.9919 31.5585 26.1489 31.7577 25.856C31.957 25.5632 31.8416 24.8938 31.7996 24.5694C31.7473 24.2348 31.5271 23.3248 31.4642 23.168C31.4011 23.011 31.2649 22.509 30.982 22.8123Z" fill="white"/>
<path fill-rule="evenodd" clip-rule="evenodd" d="M31.314 18.6016L31.1043 22.3147L28.3156 19.8359L30.8004 22.6077L27.0787 22.8169L30.8004 23.0261L28.3156 25.7978L31.1043 23.3188L31.314 27.0424L31.5132 23.3188L34.3019 25.7978L31.8173 23.0261L35.5391 22.8169L31.8173 22.6077L34.3019 19.8359L31.5132 22.3147L31.314 18.6016Z" fill="white"/>
<path fill-rule="evenodd" clip-rule="evenodd" d="M19.4406 19.3906L19.2832 22.1834L17.1969 20.3217L19.0632 22.4032L16.2639 22.5599L19.0632 22.7169L17.1969 24.7984L19.2832 22.9364L19.4406 25.7292L19.5977 22.9364L21.6842 24.7984L19.8179 22.7169L22.6172 22.5599L19.8179 22.4032L21.6842 20.3217L19.5977 22.1834L19.4406 19.3906Z" fill="white"/>
<circle cx="23" cy="42" r="9.75" fill="white" stroke="black" stroke-width="0.5"/>
<path d="M20.0683 40.7115L22.9075 37.9174L25.7478 40.7138L27.3989 39.0871L22.9075 34.6641L18.416 39.086L20.0683 40.7115Z" fill="#F3BA2F"/>
<path d="M15.666 42.0001L17.3154 40.3496L18.9659 42.0001L17.3154 43.6495L15.666 42.0001Z" fill="#F3BA2F"/>
<path d="M20.0681 43.0968L22.9069 45.8931L25.7469 43.0957L27.3989 44.7207L22.9081 49.1454L18.416 44.7241L20.0681 43.0968Z" fill="#F3BA2F"/>
<path d="M27.0332 41.9995L28.6826 40.3496L30.3331 41.9984L28.6826 43.6495L27.0332 41.9995Z" fill="#F3BA2F"/>
<path d="M24.6495 42.0018L22.9995 40.3496L21.7794 41.5705L21.6384 41.7105L21.3496 41.9995L22.9995 43.6495L24.6495 42.0029V42.0018Z" fill="#F3BA2F"/>
</svg>
