<svg width="113" height="80" viewBox="0 0 113 80" fill="none" xmlns="http://www.w3.org/2000/svg">
<g clip-path="url(#clip0)">
<path d="M30.1494 76.0137H33.377V77H28.9141V69.8906H30.1494V76.0137ZM33.9873 74.3096C33.9873 73.792 34.0898 73.3265 34.2949 72.9131C34.5 72.4964 34.7881 72.1774 35.1592 71.9561C35.5303 71.7314 35.9567 71.6191 36.4385 71.6191C37.1514 71.6191 37.7292 71.8486 38.1719 72.3076C38.6178 72.7666 38.8587 73.3753 38.8945 74.1338L38.8994 74.4121C38.8994 74.9329 38.7985 75.3984 38.5967 75.8086C38.3981 76.2188 38.1117 76.5361 37.7373 76.7607C37.3662 76.9854 36.9365 77.0977 36.4482 77.0977C35.7028 77.0977 35.1055 76.8503 34.6562 76.3555C34.2103 75.8574 33.9873 75.195 33.9873 74.3682V74.3096ZM35.1738 74.4121C35.1738 74.9557 35.2861 75.3822 35.5107 75.6914C35.7354 75.9974 36.0479 76.1504 36.4482 76.1504C36.8486 76.1504 37.1595 75.9941 37.3809 75.6816C37.6055 75.3691 37.7178 74.9118 37.7178 74.3096C37.7178 73.7757 37.6022 73.3525 37.3711 73.04C37.1432 72.7275 36.8324 72.5713 36.4385 72.5713C36.0511 72.5713 35.7435 72.7259 35.5156 73.0352C35.2878 73.3411 35.1738 73.8001 35.1738 74.4121ZM44.5439 75.3643L45.3838 71.7168H46.541L45.1006 77H44.124L42.9912 73.3721L41.8779 77H40.9014L39.4561 71.7168H40.6133L41.4678 75.3252L42.5518 71.7168H43.4453L44.5439 75.3643ZM51.541 69.8906L53.5918 75.3398L55.6377 69.8906H57.2344V77H56.0039V74.6562L56.126 71.5215L54.0264 77H53.1426L51.0479 71.5264L51.1699 74.6562V77H49.9395V69.8906H51.541ZM60.9111 77.0977C60.1592 77.0977 59.5488 76.8617 59.0801 76.3896C58.6146 75.9144 58.3818 75.2829 58.3818 74.4951V74.3486C58.3818 73.8213 58.4827 73.3509 58.6846 72.9375C58.8896 72.5208 59.1761 72.1969 59.5439 71.9658C59.9118 71.7347 60.3219 71.6191 60.7744 71.6191C61.4938 71.6191 62.0488 71.8486 62.4395 72.3076C62.8333 72.7666 63.0303 73.416 63.0303 74.2559V74.7344H59.5781C59.6139 75.1706 59.7588 75.5156 60.0127 75.7695C60.2699 76.0234 60.5921 76.1504 60.9795 76.1504C61.5231 76.1504 61.9658 75.9307 62.3076 75.4912L62.9473 76.1016C62.7357 76.4173 62.4525 76.6631 62.0977 76.8389C61.7461 77.0114 61.3506 77.0977 60.9111 77.0977ZM60.7695 72.5713C60.444 72.5713 60.1803 72.6852 59.9785 72.9131C59.7799 73.141 59.653 73.4583 59.5977 73.8652H61.8584V73.7773C61.8324 73.3802 61.7266 73.0807 61.541 72.8789C61.3555 72.6738 61.0983 72.5713 60.7695 72.5713ZM63.7334 74.3193C63.7334 73.5055 63.9222 72.8529 64.2998 72.3613C64.6774 71.8665 65.1836 71.6191 65.8184 71.6191C66.3783 71.6191 66.8307 71.8145 67.1758 72.2051V69.5H68.3623V77H67.2881L67.2295 76.4531C66.8747 76.8828 66.401 77.0977 65.8086 77.0977C65.1901 77.0977 64.6888 76.8486 64.3047 76.3506C63.9238 75.8525 63.7334 75.1755 63.7334 74.3193ZM64.9199 74.4219C64.9199 74.959 65.0225 75.3789 65.2275 75.6816C65.4359 75.9811 65.7305 76.1309 66.1113 76.1309C66.5964 76.1309 66.9512 75.9144 67.1758 75.4814V73.2256C66.9577 72.8024 66.6061 72.5908 66.1211 72.5908C65.737 72.5908 65.4408 72.7438 65.2324 73.0498C65.0241 73.3525 64.9199 73.8099 64.9199 74.4219ZM70.8623 77H69.6758V71.7168H70.8623V77ZM69.6025 70.3447C69.6025 70.1624 69.6595 70.0111 69.7734 69.8906C69.8906 69.7702 70.0566 69.71 70.2715 69.71C70.4863 69.71 70.6523 69.7702 70.7695 69.8906C70.8867 70.0111 70.9453 70.1624 70.9453 70.3447C70.9453 70.5238 70.8867 70.6735 70.7695 70.7939C70.6523 70.9111 70.4863 70.9697 70.2715 70.9697C70.0566 70.9697 69.8906 70.9111 69.7734 70.7939C69.6595 70.6735 69.6025 70.5238 69.6025 70.3447ZM75.3594 76.4824C75.0111 76.8926 74.5163 77.0977 73.875 77.0977C73.3021 77.0977 72.8675 76.93 72.5713 76.5947C72.2783 76.2594 72.1318 75.7744 72.1318 75.1396V71.7168H73.3184V75.125C73.3184 75.7956 73.5967 76.1309 74.1533 76.1309C74.7295 76.1309 75.1185 75.9242 75.3203 75.5107V71.7168H76.5068V77H75.3887L75.3594 76.4824ZM78.8311 71.7168L78.8652 72.2686C79.2363 71.8356 79.7441 71.6191 80.3887 71.6191C81.0951 71.6191 81.5785 71.8893 81.8389 72.4297C82.223 71.8893 82.7633 71.6191 83.46 71.6191C84.0426 71.6191 84.4756 71.7803 84.7588 72.1025C85.0452 72.4248 85.1917 72.9001 85.1982 73.5283V77H84.0117V73.5625C84.0117 73.2272 83.9385 72.9814 83.792 72.8252C83.6455 72.6689 83.403 72.5908 83.0645 72.5908C82.7943 72.5908 82.5729 72.6641 82.4004 72.8105C82.2311 72.9538 82.1123 73.1426 82.0439 73.377L82.0488 77H80.8623V73.5234C80.846 72.9017 80.5286 72.5908 79.9102 72.5908C79.4349 72.5908 79.098 72.7845 78.8994 73.1719V77H77.7129V71.7168H78.8311Z" fill="black"/>
<mask id="path-3-outside-1" maskUnits="userSpaceOnUse" x="10" y="52" width="15" height="28" fill="black">
<rect fill="white" x="10" y="52" width="15" height="28"/>
<path d="M22.6139 53.8072C21.4095 52.8662 19.6626 53.0753 18.7983 54.3358C14.4004 60.7499 11.7599 68.2064 11.1411 75.9588C11.0195 77.4823 12.2456 78.7441 13.7737 78.7708C15.3018 78.7975 16.552 77.5785 16.6871 76.0562C17.2682 69.5054 19.4987 63.2069 23.1696 57.7503C24.0227 56.4822 23.8183 54.7481 22.6139 53.8072Z"/>
</mask>
<path d="M22.6139 53.8072C21.4095 52.8662 19.6626 53.0753 18.7983 54.3358C14.4004 60.7499 11.7599 68.2064 11.1411 75.9588C11.0195 77.4823 12.2456 78.7441 13.7737 78.7708C15.3018 78.7975 16.552 77.5785 16.6871 76.0562C17.2682 69.5054 19.4987 63.2069 23.1696 57.7503C24.0227 56.4822 23.8183 54.7481 22.6139 53.8072Z" fill="#6CD3F3"/>
<path d="M22.6139 53.8072C21.4095 52.8662 19.6626 53.0753 18.7983 54.3358C14.4004 60.7499 11.7599 68.2064 11.1411 75.9588C11.0195 77.4823 12.2456 78.7441 13.7737 78.7708C15.3018 78.7975 16.552 77.5785 16.6871 76.0562C17.2682 69.5054 19.4987 63.2069 23.1696 57.7503C24.0227 56.4822 23.8183 54.7481 22.6139 53.8072Z" stroke="white" stroke-width="2" mask="url(#path-3-outside-1)"/>
<mask id="path-4-outside-2" maskUnits="userSpaceOnUse" x="17" y="34" width="84" height="46" fill="black">
<rect fill="white" x="17" y="34" width="84" height="46"/>
<path d="M97.2294 78.9718C98.7576 78.9524 99.9897 77.6965 99.8754 76.1725C99.2261 67.5108 96.053 59.2058 90.719 52.2995C84.8199 44.6613 76.5975 39.148 67.2915 36.5907C57.9855 34.0334 48.1003 34.5708 39.1264 38.1218C31.0123 41.3326 24.0408 46.8499 19.0564 53.9634C18.1794 55.215 18.5967 56.9242 19.9005 57.7218C21.2042 58.5194 22.8998 58.1022 23.7878 56.8584C28.138 50.7653 34.1651 46.0372 41.1628 43.2681C49.0207 40.1588 57.6764 39.6882 65.8249 41.9274C73.9735 44.1667 81.1733 48.9943 86.3387 55.6825C90.9388 61.6386 93.7034 68.7827 94.3291 76.2431C94.4568 77.7661 95.7011 78.9911 97.2294 78.9718Z"/>
</mask>
<path d="M97.2294 78.9718C98.7576 78.9524 99.9897 77.6965 99.8754 76.1725C99.2261 67.5108 96.053 59.2058 90.719 52.2995C84.8199 44.6613 76.5975 39.148 67.2915 36.5907C57.9855 34.0334 48.1003 34.5708 39.1264 38.1218C31.0123 41.3326 24.0408 46.8499 19.0564 53.9634C18.1794 55.215 18.5967 56.9242 19.9005 57.7218C21.2042 58.5194 22.8998 58.1022 23.7878 56.8584C28.138 50.7653 34.1651 46.0372 41.1628 43.2681C49.0207 40.1588 57.6764 39.6882 65.8249 41.9274C73.9735 44.1667 81.1733 48.9943 86.3387 55.6825C90.9388 61.6386 93.7034 68.7827 94.3291 76.2431C94.4568 77.7661 95.7011 78.9911 97.2294 78.9718Z" fill="#6AD782"/>
<path d="M97.2294 78.9718C98.7576 78.9524 99.9897 77.6965 99.8754 76.1725C99.2261 67.5108 96.053 59.2058 90.719 52.2995C84.8199 44.6613 76.5975 39.148 67.2915 36.5907C57.9855 34.0334 48.1003 34.5708 39.1264 38.1218C31.0123 41.3326 24.0408 46.8499 19.0564 53.9634C18.1794 55.215 18.5967 56.9242 19.9005 57.7218C21.2042 58.5194 22.8998 58.1022 23.7878 56.8584C28.138 50.7653 34.1651 46.0372 41.1628 43.2681C49.0207 40.1588 57.6764 39.6882 65.8249 41.9274C73.9735 44.1667 81.1733 48.9943 86.3387 55.6825C90.9388 61.6386 93.7034 68.7827 94.3291 76.2431C94.4568 77.7661 95.7011 78.9911 97.2294 78.9718Z" stroke="white" stroke-width="2" mask="url(#path-4-outside-2)"/>
<mask id="path-5-outside-3" maskUnits="userSpaceOnUse" x="37" y="34" width="64" height="46" fill="black">
<rect fill="white" x="37" y="34" width="64" height="46"/>
<path d="M97.2294 78.9718C98.7576 78.9524 99.9897 77.6966 99.8754 76.1725C99.3968 69.7897 97.5458 63.5737 94.4363 57.9543C90.8793 51.5264 85.7863 46.079 79.6117 42.0985C73.4371 38.1179 66.3731 35.7279 59.0501 35.1418C52.6482 34.6295 46.2224 35.5097 40.2114 37.7088C38.7761 38.2338 38.1409 39.8745 38.7541 41.2744C39.3674 42.6743 40.9968 43.302 42.4366 42.7896C47.6067 40.9499 53.1176 40.2194 58.6085 40.6588C65.0208 41.172 71.2062 43.2647 76.6129 46.7502C82.0195 50.2357 86.4791 55.0056 89.5937 60.6341C92.2607 65.4538 93.8704 70.7748 94.3291 76.2432C94.4568 77.7662 95.7011 78.9911 97.2294 78.9718Z"/>
</mask>
<path d="M97.2294 78.9718C98.7576 78.9524 99.9897 77.6966 99.8754 76.1725C99.3968 69.7897 97.5458 63.5737 94.4363 57.9543C90.8793 51.5264 85.7863 46.079 79.6117 42.0985C73.4371 38.1179 66.3731 35.7279 59.0501 35.1418C52.6482 34.6295 46.2224 35.5097 40.2114 37.7088C38.7761 38.2338 38.1409 39.8745 38.7541 41.2744C39.3674 42.6743 40.9968 43.302 42.4366 42.7896C47.6067 40.9499 53.1176 40.2194 58.6085 40.6588C65.0208 41.172 71.2062 43.2647 76.6129 46.7502C82.0195 50.2357 86.4791 55.0056 89.5937 60.6341C92.2607 65.4538 93.8704 70.7748 94.3291 76.2432C94.4568 77.7662 95.7011 78.9911 97.2294 78.9718Z" fill="#FCD958"/>
<path d="M97.2294 78.9718C98.7576 78.9524 99.9897 77.6966 99.8754 76.1725C99.3968 69.7897 97.5458 63.5737 94.4363 57.9543C90.8793 51.5264 85.7863 46.079 79.6117 42.0985C73.4371 38.1179 66.3731 35.7279 59.0501 35.1418C52.6482 34.6295 46.2224 35.5097 40.2114 37.7088C38.7761 38.2338 38.1409 39.8745 38.7541 41.2744C39.3674 42.6743 40.9968 43.302 42.4366 42.7896C47.6067 40.9499 53.1176 40.2194 58.6085 40.6588C65.0208 41.172 71.2062 43.2647 76.6129 46.7502C82.0195 50.2357 86.4791 55.0056 89.5937 60.6341C92.2607 65.4538 93.8704 70.7748 94.3291 76.2432C94.4568 77.7662 95.7011 78.9911 97.2294 78.9718Z" stroke="white" stroke-width="2" mask="url(#path-5-outside-3)"/>
<mask id="path-6-outside-4" maskUnits="userSpaceOnUse" x="67" y="37" width="34" height="43" fill="black">
<rect fill="white" x="67" y="37" width="34" height="43"/>
<path d="M97.2287 78.9238C98.7569 78.9027 99.9876 77.6453 99.8716 76.1214C99.2444 67.8831 96.3335 59.9618 91.4401 53.2595C86.5467 46.5573 79.8883 41.3721 72.2324 38.2656C70.8162 37.6909 69.2438 38.4802 68.7582 39.9293C68.2727 41.3785 69.0587 42.9377 70.4697 43.5249C77.0396 46.2586 82.7533 50.7476 86.9701 56.5232C91.1869 62.2987 93.7224 69.1081 94.3253 76.1985C94.4548 77.7213 95.7005 78.9449 97.2287 78.9238Z"/>
</mask>
<path d="M97.2287 78.9238C98.7569 78.9027 99.9876 77.6453 99.8716 76.1214C99.2444 67.8831 96.3335 59.9618 91.4401 53.2595C86.5467 46.5573 79.8883 41.3721 72.2324 38.2656C70.8162 37.6909 69.2438 38.4802 68.7582 39.9293C68.2727 41.3785 69.0587 42.9377 70.4697 43.5249C77.0396 46.2586 82.7533 50.7476 86.9701 56.5232C91.1869 62.2987 93.7224 69.1081 94.3253 76.1985C94.4548 77.7213 95.7005 78.9449 97.2287 78.9238Z" fill="#FFA500"/>
<path d="M97.2287 78.9238C98.7569 78.9027 99.9876 77.6453 99.8716 76.1214C99.2444 67.8831 96.3335 59.9618 91.4401 53.2595C86.5467 46.5573 79.8883 41.3721 72.2324 38.2656C70.8162 37.6909 69.2438 38.4802 68.7582 39.9293C68.2727 41.3785 69.0587 42.9377 70.4697 43.5249C77.0396 46.2586 82.7533 50.7476 86.9701 56.5232C91.1869 62.2987 93.7224 69.1081 94.3253 76.1985C94.4548 77.7213 95.7005 78.9449 97.2287 78.9238Z" stroke="white" stroke-width="2" mask="url(#path-6-outside-4)"/>
<mask id="path-7-outside-5" maskUnits="userSpaceOnUse" x="86" y="53" width="15" height="28" fill="black">
<rect fill="white" x="86" y="53" width="15" height="28"/>
<path d="M97.2299 79.0161C98.7581 78.9984 99.9916 77.7437 99.8789 76.2195C99.3266 68.7459 96.895 61.5314 92.8108 55.2481C91.9779 53.9667 90.2366 53.7146 89.0094 54.6256C87.7822 55.5366 87.5351 57.2651 88.3567 58.5538C91.7589 63.8905 93.8103 69.977 94.3325 76.2844C94.4586 77.8075 95.7017 79.0338 97.2299 79.0161Z"/>
</mask>
<path d="M97.2299 79.0161C98.7581 78.9984 99.9916 77.7437 99.8789 76.2195C99.3266 68.7459 96.895 61.5314 92.8108 55.2481C91.9779 53.9667 90.2366 53.7146 89.0094 54.6256C87.7822 55.5366 87.5351 57.2651 88.3567 58.5538C91.7589 63.8905 93.8103 69.977 94.3325 76.2844C94.4586 77.8075 95.7017 79.0338 97.2299 79.0161Z" fill="#E85851"/>
<path d="M97.2299 79.0161C98.7581 78.9984 99.9916 77.7437 99.8789 76.2195C99.3266 68.7459 96.895 61.5314 92.8108 55.2481C91.9779 53.9667 90.2366 53.7146 89.0094 54.6256C87.7822 55.5366 87.5351 57.2651 88.3567 58.5538C91.7589 63.8905 93.8103 69.977 94.3325 76.2844C94.4586 77.8075 95.7017 79.0338 97.2299 79.0161Z" stroke="white" stroke-width="2" mask="url(#path-7-outside-5)"/>
<path opacity="0.6" d="M20.6484 10.7368H19.1313V14.1201H17.2271V4.87793H20.6611C21.7529 4.87793 22.5951 5.12126 23.1875 5.60791C23.7799 6.09456 24.0762 6.78223 24.0762 7.6709C24.0762 8.30143 23.9386 8.82829 23.6636 9.25146C23.3927 9.67041 22.9801 10.0047 22.4258 10.2544L24.4253 14.0312V14.1201H22.3813L20.6484 10.7368ZM19.1313 9.19434H20.6675C21.1457 9.19434 21.516 9.07373 21.7783 8.83252C22.0407 8.58708 22.1719 8.25065 22.1719 7.82324C22.1719 7.38737 22.047 7.0446 21.7974 6.79492C21.5519 6.54525 21.1732 6.42041 20.6611 6.42041H19.1313V9.19434ZM27.3452 14.1201H25.5044V7.25195H27.3452V14.1201ZM25.3965 5.47461C25.3965 5.19954 25.4875 4.97314 25.6694 4.79541C25.8556 4.61768 26.1074 4.52881 26.4248 4.52881C26.738 4.52881 26.9876 4.61768 27.1738 4.79541C27.36 4.97314 27.4531 5.19954 27.4531 5.47461C27.4531 5.75391 27.3579 5.98242 27.1675 6.16016C26.9813 6.33789 26.7337 6.42676 26.4248 6.42676C26.1159 6.42676 25.8662 6.33789 25.6758 6.16016C25.4896 5.98242 25.3965 5.75391 25.3965 5.47461ZM32.582 12.2222C32.582 11.9979 32.4699 11.8223 32.2456 11.6953C32.0256 11.5641 31.6701 11.4478 31.1792 11.3462C29.5457 11.0034 28.729 10.3094 28.729 9.26416C28.729 8.65479 28.9808 8.14697 29.4844 7.74072C29.9922 7.33024 30.6545 7.125 31.4712 7.125C32.3429 7.125 33.0391 7.33024 33.5596 7.74072C34.0843 8.1512 34.3467 8.68441 34.3467 9.34033H32.5122C32.5122 9.07796 32.4276 8.86214 32.2583 8.69287C32.089 8.51937 31.8245 8.43262 31.4648 8.43262C31.1559 8.43262 30.9168 8.50244 30.7476 8.64209C30.5783 8.78174 30.4937 8.95947 30.4937 9.17529C30.4937 9.37842 30.5889 9.54346 30.7793 9.67041C30.974 9.79313 31.2998 9.90104 31.7568 9.99414C32.2139 10.083 32.599 10.1846 32.9121 10.2988C33.8812 10.6543 34.3657 11.27 34.3657 12.146C34.3657 12.7723 34.097 13.2801 33.5596 13.6694C33.0221 14.0545 32.3281 14.2471 31.4775 14.2471C30.902 14.2471 30.39 14.1455 29.9414 13.9424C29.4971 13.735 29.1479 13.4536 28.894 13.0981C28.6401 12.7384 28.5132 12.3512 28.5132 11.9365H30.2524C30.2694 12.2624 30.39 12.512 30.6143 12.6855C30.8385 12.859 31.139 12.9458 31.5156 12.9458C31.8669 12.9458 32.1313 12.8802 32.3091 12.749C32.491 12.6136 32.582 12.438 32.582 12.2222ZM38.0474 11.3652L37.3872 12.0254V14.1201H35.5527V4.37012H37.3872V9.77197L37.7427 9.31494L39.501 7.25195H41.7036L39.2217 10.1147L41.9194 14.1201H39.812L38.0474 11.3652ZM47.6704 14.1201H45.8296V7.25195H47.6704V14.1201ZM45.7217 5.47461C45.7217 5.19954 45.8127 4.97314 45.9946 4.79541C46.1808 4.61768 46.4326 4.52881 46.75 4.52881C47.0632 4.52881 47.3128 4.61768 47.499 4.79541C47.6852 4.97314 47.7783 5.19954 47.7783 5.47461C47.7783 5.75391 47.6831 5.98242 47.4927 6.16016C47.3065 6.33789 47.0589 6.42676 46.75 6.42676C46.4411 6.42676 46.1914 6.33789 46.001 6.16016C45.8148 5.98242 45.7217 5.75391 45.7217 5.47461ZM50.876 7.25195L50.9331 8.04541C51.424 7.4318 52.082 7.125 52.9072 7.125C53.6351 7.125 54.1768 7.3387 54.5322 7.76611C54.8877 8.19352 55.0697 8.83252 55.0781 9.68311V14.1201H53.2437V9.72754C53.2437 9.33822 53.159 9.0568 52.9897 8.8833C52.8205 8.70557 52.5391 8.6167 52.1455 8.6167C51.6292 8.6167 51.242 8.83675 50.9839 9.27686V14.1201H49.1494V7.25195H50.876ZM56.189 10.6353C56.189 9.56462 56.4281 8.71191 56.9062 8.07715C57.3887 7.44238 58.0467 7.125 58.8804 7.125C59.549 7.125 60.1012 7.37467 60.5371 7.87402V4.37012H62.3779V14.1201H60.7212L60.6323 13.3901C60.1753 13.9614 59.5871 14.2471 58.8677 14.2471C58.0594 14.2471 57.4098 13.9297 56.9189 13.2949C56.4323 12.6559 56.189 11.7694 56.189 10.6353ZM58.0234 10.7686C58.0234 11.4118 58.1356 11.9048 58.3599 12.2476C58.5841 12.5903 58.91 12.7617 59.3374 12.7617C59.9045 12.7617 60.3044 12.5226 60.5371 12.0444V9.33398C60.3086 8.85579 59.9129 8.6167 59.3501 8.6167C58.4657 8.6167 58.0234 9.33398 58.0234 10.7686ZM65.7358 14.1201H63.895V7.25195H65.7358V14.1201ZM63.7871 5.47461C63.7871 5.19954 63.8781 4.97314 64.0601 4.79541C64.2463 4.61768 64.498 4.52881 64.8154 4.52881C65.1286 4.52881 65.3783 4.61768 65.5645 4.79541C65.7507 4.97314 65.8438 5.19954 65.8438 5.47461C65.8438 5.75391 65.7485 5.98242 65.5581 6.16016C65.3719 6.33789 65.1243 6.42676 64.8154 6.42676C64.5065 6.42676 64.2568 6.33789 64.0664 6.16016C63.8802 5.98242 63.7871 5.75391 63.7871 5.47461ZM70.1094 12.7681C70.4479 12.7681 70.723 12.675 70.9346 12.4888C71.1462 12.3026 71.2562 12.055 71.2646 11.7461H72.9849C72.9806 12.2116 72.8537 12.639 72.604 13.0283C72.3543 13.4134 72.0116 13.7139 71.5757 13.9297C71.144 14.1413 70.6659 14.2471 70.1411 14.2471C69.1593 14.2471 68.3849 13.936 67.8179 13.314C67.2508 12.6877 66.9673 11.8244 66.9673 10.7241V10.6035C66.9673 9.54557 67.2487 8.70133 67.8115 8.0708C68.3743 7.44027 69.1466 7.125 70.1284 7.125C70.9875 7.125 71.6751 7.37044 72.1914 7.86133C72.7119 8.34798 72.9764 8.99756 72.9849 9.81006H71.2646C71.2562 9.45459 71.1462 9.16683 70.9346 8.94678C70.723 8.72249 70.4437 8.61035 70.0967 8.61035C69.6693 8.61035 69.3455 8.76693 69.1255 9.08008C68.9097 9.389 68.8018 9.89258 68.8018 10.5908V10.7812C68.8018 11.488 68.9097 11.9958 69.1255 12.3047C69.3413 12.6136 69.6693 12.7681 70.1094 12.7681ZM78.0122 14.1201C77.9276 13.9551 77.8662 13.7498 77.8281 13.5044C77.3838 13.9995 76.8062 14.2471 76.0952 14.2471C75.4224 14.2471 74.8638 14.0524 74.4194 13.6631C73.9793 13.2738 73.7593 12.7829 73.7593 12.1904C73.7593 11.4626 74.028 10.904 74.5654 10.5146C75.1071 10.1253 75.8879 9.92855 76.9077 9.92432H77.752V9.53076C77.752 9.21338 77.6694 8.95947 77.5044 8.76904C77.3436 8.57861 77.0876 8.4834 76.7363 8.4834C76.4274 8.4834 76.1841 8.55745 76.0063 8.70557C75.8328 8.85368 75.7461 9.0568 75.7461 9.31494H73.9116C73.9116 8.91715 74.0343 8.54899 74.2798 8.21045C74.5252 7.87191 74.8722 7.60742 75.3208 7.41699C75.7694 7.22233 76.2729 7.125 76.8315 7.125C77.6779 7.125 78.3486 7.3387 78.8438 7.76611C79.3431 8.18929 79.5928 8.78597 79.5928 9.55615V12.5332C79.597 13.1849 79.688 13.6779 79.8657 14.0122V14.1201H78.0122ZM76.4951 12.8442C76.766 12.8442 77.0156 12.785 77.2441 12.6665C77.4727 12.5438 77.6419 12.3809 77.752 12.1777V10.9971H77.0664C76.1481 10.9971 75.6593 11.3145 75.6001 11.9492L75.5938 12.0571C75.5938 12.2856 75.6742 12.474 75.835 12.6221C75.9958 12.7702 76.2158 12.8442 76.4951 12.8442ZM83.1982 5.56348V7.25195H84.3726V8.59766H83.1982V12.0254C83.1982 12.2793 83.2469 12.4613 83.3442 12.5713C83.4416 12.6813 83.6278 12.7363 83.9028 12.7363C84.106 12.7363 84.2858 12.7215 84.4424 12.6919V14.082C84.0827 14.1921 83.7124 14.2471 83.3315 14.2471C82.0451 14.2471 81.3892 13.5975 81.3638 12.2983V8.59766H80.3608V7.25195H81.3638V5.56348H83.1982ZM84.9185 10.6226C84.9185 9.94124 85.0496 9.33398 85.312 8.80078C85.5744 8.26758 85.951 7.85498 86.4419 7.56299C86.937 7.271 87.5104 7.125 88.1621 7.125C89.0889 7.125 89.8442 7.40853 90.4282 7.97559C91.0164 8.54264 91.3444 9.31283 91.4121 10.2861L91.4248 10.7559C91.4248 11.8096 91.1307 12.6559 90.5425 13.2949C89.9543 13.9297 89.165 14.2471 88.1748 14.2471C87.1846 14.2471 86.3932 13.9297 85.8008 13.2949C85.2126 12.6602 84.9185 11.7969 84.9185 10.7051V10.6226ZM86.7529 10.7559C86.7529 11.4076 86.8757 11.9069 87.1211 12.2539C87.3665 12.5967 87.7178 12.7681 88.1748 12.7681C88.6191 12.7681 88.9661 12.5988 89.2158 12.2603C89.4655 11.9175 89.5903 11.3716 89.5903 10.6226C89.5903 9.98356 89.4655 9.48844 89.2158 9.13721C88.9661 8.78597 88.6149 8.61035 88.1621 8.61035C87.7135 8.61035 87.3665 8.78597 87.1211 9.13721C86.8757 9.48421 86.7529 10.0238 86.7529 10.7559ZM96.4141 8.97217C96.1644 8.93831 95.9443 8.92139 95.7539 8.92139C95.0599 8.92139 94.605 9.15625 94.3892 9.62598V14.1201H92.5547V7.25195H94.2876L94.3384 8.0708C94.7065 7.44027 95.2165 7.125 95.8682 7.125C96.0713 7.125 96.2617 7.15251 96.4395 7.20752L96.4141 8.97217Z" fill="#222222"/>
<path d="M33.1315 50.5848L41.7016 51.2327L32.8137 59.1735L33.1315 50.5848Z" fill="#6AD782"/>
</g>
<defs>
<clipPath id="clip0">
<path d="M0 5C0 2.23858 2.23858 0 5 0H108C110.761 0 113 2.23858 113 5V75C113 77.7614 110.761 80 108 80H5C2.23858 80 0 77.7614 0 75V5Z" fill="white"/>
</clipPath>
</defs>
</svg>
