<svg width="113" height="80" viewBox="0 0 113 80" fill="none" xmlns="http://www.w3.org/2000/svg">
<g clip-path="url(#clip0)">
<path d="M39.5283 69.8906L41.5791 75.3398L43.625 69.8906H45.2217V77H43.9912V74.6562L44.1133 71.5215L42.0137 77H41.1299L39.0352 71.5264L39.1572 74.6562V77H37.9268V69.8906H39.5283ZM48.8984 77.0977C48.1465 77.0977 47.5361 76.8617 47.0674 76.3896C46.6019 75.9144 46.3691 75.2829 46.3691 74.4951V74.3486C46.3691 73.8213 46.4701 73.3509 46.6719 72.9375C46.877 72.5208 47.1634 72.1969 47.5312 71.9658C47.8991 71.7347 48.3092 71.6191 48.7617 71.6191C49.4811 71.6191 50.0361 71.8486 50.4268 72.3076C50.8206 72.7666 51.0176 73.416 51.0176 74.2559V74.7344H47.5654C47.6012 75.1706 47.7461 75.5156 48 75.7695C48.2572 76.0234 48.5794 76.1504 48.9668 76.1504C49.5104 76.1504 49.9531 75.9307 50.2949 75.4912L50.9346 76.1016C50.723 76.4173 50.4398 76.6631 50.085 76.8389C49.7334 77.0114 49.3379 77.0977 48.8984 77.0977ZM48.7568 72.5713C48.4313 72.5713 48.1676 72.6852 47.9658 72.9131C47.7673 73.141 47.6403 73.4583 47.585 73.8652H49.8457V73.7773C49.8197 73.3802 49.7139 73.0807 49.5283 72.8789C49.3428 72.6738 49.0856 72.5713 48.7568 72.5713ZM51.7207 74.3193C51.7207 73.5055 51.9095 72.8529 52.2871 72.3613C52.6647 71.8665 53.1709 71.6191 53.8057 71.6191C54.3656 71.6191 54.818 71.8145 55.1631 72.2051V69.5H56.3496V77H55.2754L55.2168 76.4531C54.862 76.8828 54.3883 77.0977 53.7959 77.0977C53.1774 77.0977 52.6761 76.8486 52.292 76.3506C51.9111 75.8525 51.7207 75.1755 51.7207 74.3193ZM52.9072 74.4219C52.9072 74.959 53.0098 75.3789 53.2148 75.6816C53.4232 75.9811 53.7178 76.1309 54.0986 76.1309C54.5837 76.1309 54.9385 75.9144 55.1631 75.4814V73.2256C54.945 72.8024 54.5934 72.5908 54.1084 72.5908C53.7243 72.5908 53.4281 72.7438 53.2197 73.0498C53.0114 73.3525 52.9072 73.8099 52.9072 74.4219ZM58.8496 77H57.6631V71.7168H58.8496V77ZM57.5898 70.3447C57.5898 70.1624 57.6468 70.0111 57.7607 69.8906C57.8779 69.7702 58.0439 69.71 58.2588 69.71C58.4736 69.71 58.6396 69.7702 58.7568 69.8906C58.874 70.0111 58.9326 70.1624 58.9326 70.3447C58.9326 70.5238 58.874 70.6735 58.7568 70.7939C58.6396 70.9111 58.4736 70.9697 58.2588 70.9697C58.0439 70.9697 57.8779 70.9111 57.7607 70.7939C57.6468 70.6735 57.5898 70.5238 57.5898 70.3447ZM63.3467 76.4824C62.9984 76.8926 62.5036 77.0977 61.8623 77.0977C61.2894 77.0977 60.8548 76.93 60.5586 76.5947C60.2656 76.2594 60.1191 75.7744 60.1191 75.1396V71.7168H61.3057V75.125C61.3057 75.7956 61.584 76.1309 62.1406 76.1309C62.7168 76.1309 63.1058 75.9242 63.3076 75.5107V71.7168H64.4941V77H63.376L63.3467 76.4824ZM66.8184 71.7168L66.8525 72.2686C67.2236 71.8356 67.7314 71.6191 68.376 71.6191C69.0824 71.6191 69.5658 71.8893 69.8262 72.4297C70.2103 71.8893 70.7507 71.6191 71.4473 71.6191C72.0299 71.6191 72.4629 71.7803 72.7461 72.1025C73.0326 72.4248 73.179 72.9001 73.1855 73.5283V77H71.999V73.5625C71.999 73.2272 71.9258 72.9814 71.7793 72.8252C71.6328 72.6689 71.3903 72.5908 71.0518 72.5908C70.7816 72.5908 70.5602 72.6641 70.3877 72.8105C70.2184 72.9538 70.0996 73.1426 70.0312 73.377L70.0361 77H68.8496V73.5234C68.8333 72.9017 68.516 72.5908 67.8975 72.5908C67.4222 72.5908 67.0853 72.7845 66.8867 73.1719V77H65.7002V71.7168H66.8184Z" fill="black"/>
<mask id="path-3-outside-1" maskUnits="userSpaceOnUse" x="10" y="52" width="15" height="28" fill="black">
<rect fill="white" x="10" y="52" width="15" height="28"/>
<path d="M22.6139 53.8072C21.4095 52.8662 19.6626 53.0753 18.7983 54.3358C14.4004 60.7499 11.7599 68.2064 11.1411 75.9588C11.0195 77.4823 12.2456 78.7441 13.7737 78.7708C15.3018 78.7975 16.552 77.5785 16.6871 76.0562C17.2682 69.5054 19.4987 63.2069 23.1696 57.7503C24.0227 56.4822 23.8183 54.7481 22.6139 53.8072Z"/>
</mask>
<path d="M22.6139 53.8072C21.4095 52.8662 19.6626 53.0753 18.7983 54.3358C14.4004 60.7499 11.7599 68.2064 11.1411 75.9588C11.0195 77.4823 12.2456 78.7441 13.7737 78.7708C15.3018 78.7975 16.552 77.5785 16.6871 76.0562C17.2682 69.5054 19.4987 63.2069 23.1696 57.7503C24.0227 56.4822 23.8183 54.7481 22.6139 53.8072Z" fill="#6CD3F3"/>
<path d="M22.6139 53.8072C21.4095 52.8662 19.6626 53.0753 18.7983 54.3358C14.4004 60.7499 11.7599 68.2064 11.1411 75.9588C11.0195 77.4823 12.2456 78.7441 13.7737 78.7708C15.3018 78.7975 16.552 77.5785 16.6871 76.0562C17.2682 69.5054 19.4987 63.2069 23.1696 57.7503C24.0227 56.4822 23.8183 54.7481 22.6139 53.8072Z" stroke="white" stroke-width="2" mask="url(#path-3-outside-1)"/>
<mask id="path-4-outside-2" maskUnits="userSpaceOnUse" x="17" y="34" width="84" height="46" fill="black">
<rect fill="white" x="17" y="34" width="84" height="46"/>
<path d="M97.2294 78.9718C98.7576 78.9524 99.9897 77.6965 99.8754 76.1725C99.2261 67.5108 96.053 59.2058 90.719 52.2995C84.8199 44.6613 76.5975 39.148 67.2915 36.5907C57.9855 34.0334 48.1003 34.5708 39.1264 38.1218C31.0123 41.3326 24.0408 46.8499 19.0564 53.9634C18.1794 55.215 18.5967 56.9242 19.9005 57.7218C21.2042 58.5194 22.8998 58.1022 23.7878 56.8584C28.138 50.7653 34.1651 46.0372 41.1628 43.2681C49.0207 40.1588 57.6764 39.6882 65.8249 41.9274C73.9735 44.1667 81.1733 48.9943 86.3387 55.6825C90.9388 61.6386 93.7034 68.7827 94.3291 76.2431C94.4568 77.7661 95.7011 78.9911 97.2294 78.9718Z"/>
</mask>
<path d="M97.2294 78.9718C98.7576 78.9524 99.9897 77.6965 99.8754 76.1725C99.2261 67.5108 96.053 59.2058 90.719 52.2995C84.8199 44.6613 76.5975 39.148 67.2915 36.5907C57.9855 34.0334 48.1003 34.5708 39.1264 38.1218C31.0123 41.3326 24.0408 46.8499 19.0564 53.9634C18.1794 55.215 18.5967 56.9242 19.9005 57.7218C21.2042 58.5194 22.8998 58.1022 23.7878 56.8584C28.138 50.7653 34.1651 46.0372 41.1628 43.2681C49.0207 40.1588 57.6764 39.6882 65.8249 41.9274C73.9735 44.1667 81.1733 48.9943 86.3387 55.6825C90.9388 61.6386 93.7034 68.7827 94.3291 76.2431C94.4568 77.7661 95.7011 78.9911 97.2294 78.9718Z" fill="#6AD782"/>
<path d="M97.2294 78.9718C98.7576 78.9524 99.9897 77.6965 99.8754 76.1725C99.2261 67.5108 96.053 59.2058 90.719 52.2995C84.8199 44.6613 76.5975 39.148 67.2915 36.5907C57.9855 34.0334 48.1003 34.5708 39.1264 38.1218C31.0123 41.3326 24.0408 46.8499 19.0564 53.9634C18.1794 55.215 18.5967 56.9242 19.9005 57.7218C21.2042 58.5194 22.8998 58.1022 23.7878 56.8584C28.138 50.7653 34.1651 46.0372 41.1628 43.2681C49.0207 40.1588 57.6764 39.6882 65.8249 41.9274C73.9735 44.1667 81.1733 48.9943 86.3387 55.6825C90.9388 61.6386 93.7034 68.7827 94.3291 76.2431C94.4568 77.7661 95.7011 78.9911 97.2294 78.9718Z" stroke="white" stroke-width="2" mask="url(#path-4-outside-2)"/>
<mask id="path-5-outside-3" maskUnits="userSpaceOnUse" x="37" y="34" width="64" height="46" fill="black">
<rect fill="white" x="37" y="34" width="64" height="46"/>
<path d="M97.2294 78.9718C98.7576 78.9524 99.9897 77.6966 99.8754 76.1725C99.3968 69.7897 97.5458 63.5737 94.4363 57.9543C90.8793 51.5264 85.7863 46.079 79.6117 42.0985C73.4371 38.1179 66.3731 35.7279 59.0501 35.1418C52.6482 34.6295 46.2224 35.5097 40.2114 37.7088C38.7761 38.2338 38.1409 39.8745 38.7541 41.2744C39.3674 42.6743 40.9968 43.302 42.4366 42.7896C47.6067 40.9499 53.1176 40.2194 58.6085 40.6588C65.0208 41.172 71.2062 43.2647 76.6129 46.7502C82.0195 50.2357 86.4791 55.0056 89.5937 60.6341C92.2607 65.4538 93.8704 70.7748 94.3291 76.2432C94.4568 77.7662 95.7011 78.9911 97.2294 78.9718Z"/>
</mask>
<path d="M97.2294 78.9718C98.7576 78.9524 99.9897 77.6966 99.8754 76.1725C99.3968 69.7897 97.5458 63.5737 94.4363 57.9543C90.8793 51.5264 85.7863 46.079 79.6117 42.0985C73.4371 38.1179 66.3731 35.7279 59.0501 35.1418C52.6482 34.6295 46.2224 35.5097 40.2114 37.7088C38.7761 38.2338 38.1409 39.8745 38.7541 41.2744C39.3674 42.6743 40.9968 43.302 42.4366 42.7896C47.6067 40.9499 53.1176 40.2194 58.6085 40.6588C65.0208 41.172 71.2062 43.2647 76.6129 46.7502C82.0195 50.2357 86.4791 55.0056 89.5937 60.6341C92.2607 65.4538 93.8704 70.7748 94.3291 76.2432C94.4568 77.7662 95.7011 78.9911 97.2294 78.9718Z" fill="#FCD958"/>
<path d="M97.2294 78.9718C98.7576 78.9524 99.9897 77.6966 99.8754 76.1725C99.3968 69.7897 97.5458 63.5737 94.4363 57.9543C90.8793 51.5264 85.7863 46.079 79.6117 42.0985C73.4371 38.1179 66.3731 35.7279 59.0501 35.1418C52.6482 34.6295 46.2224 35.5097 40.2114 37.7088C38.7761 38.2338 38.1409 39.8745 38.7541 41.2744C39.3674 42.6743 40.9968 43.302 42.4366 42.7896C47.6067 40.9499 53.1176 40.2194 58.6085 40.6588C65.0208 41.172 71.2062 43.2647 76.6129 46.7502C82.0195 50.2357 86.4791 55.0056 89.5937 60.6341C92.2607 65.4538 93.8704 70.7748 94.3291 76.2432C94.4568 77.7662 95.7011 78.9911 97.2294 78.9718Z" stroke="white" stroke-width="2" mask="url(#path-5-outside-3)"/>
<mask id="path-6-outside-4" maskUnits="userSpaceOnUse" x="67" y="37" width="34" height="43" fill="black">
<rect fill="white" x="67" y="37" width="34" height="43"/>
<path d="M97.2287 78.9238C98.7569 78.9027 99.9876 77.6453 99.8716 76.1214C99.2444 67.8831 96.3335 59.9618 91.4401 53.2595C86.5467 46.5573 79.8883 41.3721 72.2324 38.2656C70.8162 37.6909 69.2438 38.4802 68.7582 39.9293C68.2727 41.3785 69.0587 42.9377 70.4697 43.5249C77.0396 46.2586 82.7533 50.7476 86.9701 56.5232C91.1869 62.2987 93.7224 69.1081 94.3253 76.1985C94.4548 77.7213 95.7005 78.9449 97.2287 78.9238Z"/>
</mask>
<path d="M97.2287 78.9238C98.7569 78.9027 99.9876 77.6453 99.8716 76.1214C99.2444 67.8831 96.3335 59.9618 91.4401 53.2595C86.5467 46.5573 79.8883 41.3721 72.2324 38.2656C70.8162 37.6909 69.2438 38.4802 68.7582 39.9293C68.2727 41.3785 69.0587 42.9377 70.4697 43.5249C77.0396 46.2586 82.7533 50.7476 86.9701 56.5232C91.1869 62.2987 93.7224 69.1081 94.3253 76.1985C94.4548 77.7213 95.7005 78.9449 97.2287 78.9238Z" fill="#FFA500"/>
<path d="M97.2287 78.9238C98.7569 78.9027 99.9876 77.6453 99.8716 76.1214C99.2444 67.8831 96.3335 59.9618 91.4401 53.2595C86.5467 46.5573 79.8883 41.3721 72.2324 38.2656C70.8162 37.6909 69.2438 38.4802 68.7582 39.9293C68.2727 41.3785 69.0587 42.9377 70.4697 43.5249C77.0396 46.2586 82.7533 50.7476 86.9701 56.5232C91.1869 62.2987 93.7224 69.1081 94.3253 76.1985C94.4548 77.7213 95.7005 78.9449 97.2287 78.9238Z" stroke="white" stroke-width="2" mask="url(#path-6-outside-4)"/>
<mask id="path-7-outside-5" maskUnits="userSpaceOnUse" x="86" y="53" width="15" height="28" fill="black">
<rect fill="white" x="86" y="53" width="15" height="28"/>
<path d="M97.2299 79.0161C98.7581 78.9984 99.9916 77.7437 99.8789 76.2195C99.3266 68.7459 96.895 61.5314 92.8108 55.2481C91.9779 53.9667 90.2366 53.7146 89.0094 54.6256C87.7822 55.5366 87.5351 57.2651 88.3567 58.5538C91.7589 63.8905 93.8103 69.977 94.3325 76.2844C94.4586 77.8075 95.7017 79.0338 97.2299 79.0161Z"/>
</mask>
<path d="M97.2299 79.0161C98.7581 78.9984 99.9916 77.7437 99.8789 76.2195C99.3266 68.7459 96.895 61.5314 92.8108 55.2481C91.9779 53.9667 90.2366 53.7146 89.0094 54.6256C87.7822 55.5366 87.5351 57.2651 88.3567 58.5538C91.7589 63.8905 93.8103 69.977 94.3325 76.2844C94.4586 77.8075 95.7017 79.0338 97.2299 79.0161Z" fill="#E85851"/>
<path d="M97.2299 79.0161C98.7581 78.9984 99.9916 77.7437 99.8789 76.2195C99.3266 68.7459 96.895 61.5314 92.8108 55.2481C91.9779 53.9667 90.2366 53.7146 89.0094 54.6256C87.7822 55.5366 87.5351 57.2651 88.3567 58.5538C91.7589 63.8905 93.8103 69.977 94.3325 76.2844C94.4586 77.8075 95.7017 79.0338 97.2299 79.0161Z" stroke="white" stroke-width="2" mask="url(#path-7-outside-5)"/>
<path opacity="0.6" d="M20.6484 10.7368H19.1313V14.1201H17.2271V4.87793H20.6611C21.7529 4.87793 22.5951 5.12126 23.1875 5.60791C23.7799 6.09456 24.0762 6.78223 24.0762 7.6709C24.0762 8.30143 23.9386 8.82829 23.6636 9.25146C23.3927 9.67041 22.9801 10.0047 22.4258 10.2544L24.4253 14.0312V14.1201H22.3813L20.6484 10.7368ZM19.1313 9.19434H20.6675C21.1457 9.19434 21.516 9.07373 21.7783 8.83252C22.0407 8.58708 22.1719 8.25065 22.1719 7.82324C22.1719 7.38737 22.047 7.0446 21.7974 6.79492C21.5519 6.54525 21.1732 6.42041 20.6611 6.42041H19.1313V9.19434ZM27.3452 14.1201H25.5044V7.25195H27.3452V14.1201ZM25.3965 5.47461C25.3965 5.19954 25.4875 4.97314 25.6694 4.79541C25.8556 4.61768 26.1074 4.52881 26.4248 4.52881C26.738 4.52881 26.9876 4.61768 27.1738 4.79541C27.36 4.97314 27.4531 5.19954 27.4531 5.47461C27.4531 5.75391 27.3579 5.98242 27.1675 6.16016C26.9813 6.33789 26.7337 6.42676 26.4248 6.42676C26.1159 6.42676 25.8662 6.33789 25.6758 6.16016C25.4896 5.98242 25.3965 5.75391 25.3965 5.47461ZM32.582 12.2222C32.582 11.9979 32.4699 11.8223 32.2456 11.6953C32.0256 11.5641 31.6701 11.4478 31.1792 11.3462C29.5457 11.0034 28.729 10.3094 28.729 9.26416C28.729 8.65479 28.9808 8.14697 29.4844 7.74072C29.9922 7.33024 30.6545 7.125 31.4712 7.125C32.3429 7.125 33.0391 7.33024 33.5596 7.74072C34.0843 8.1512 34.3467 8.68441 34.3467 9.34033H32.5122C32.5122 9.07796 32.4276 8.86214 32.2583 8.69287C32.089 8.51937 31.8245 8.43262 31.4648 8.43262C31.1559 8.43262 30.9168 8.50244 30.7476 8.64209C30.5783 8.78174 30.4937 8.95947 30.4937 9.17529C30.4937 9.37842 30.5889 9.54346 30.7793 9.67041C30.974 9.79313 31.2998 9.90104 31.7568 9.99414C32.2139 10.083 32.599 10.1846 32.9121 10.2988C33.8812 10.6543 34.3657 11.27 34.3657 12.146C34.3657 12.7723 34.097 13.2801 33.5596 13.6694C33.0221 14.0545 32.3281 14.2471 31.4775 14.2471C30.902 14.2471 30.39 14.1455 29.9414 13.9424C29.4971 13.735 29.1479 13.4536 28.894 13.0981C28.6401 12.7384 28.5132 12.3512 28.5132 11.9365H30.2524C30.2694 12.2624 30.39 12.512 30.6143 12.6855C30.8385 12.859 31.139 12.9458 31.5156 12.9458C31.8669 12.9458 32.1313 12.8802 32.3091 12.749C32.491 12.6136 32.582 12.438 32.582 12.2222ZM38.0474 11.3652L37.3872 12.0254V14.1201H35.5527V4.37012H37.3872V9.77197L37.7427 9.31494L39.501 7.25195H41.7036L39.2217 10.1147L41.9194 14.1201H39.812L38.0474 11.3652ZM47.6704 14.1201H45.8296V7.25195H47.6704V14.1201ZM45.7217 5.47461C45.7217 5.19954 45.8127 4.97314 45.9946 4.79541C46.1808 4.61768 46.4326 4.52881 46.75 4.52881C47.0632 4.52881 47.3128 4.61768 47.499 4.79541C47.6852 4.97314 47.7783 5.19954 47.7783 5.47461C47.7783 5.75391 47.6831 5.98242 47.4927 6.16016C47.3065 6.33789 47.0589 6.42676 46.75 6.42676C46.4411 6.42676 46.1914 6.33789 46.001 6.16016C45.8148 5.98242 45.7217 5.75391 45.7217 5.47461ZM50.876 7.25195L50.9331 8.04541C51.424 7.4318 52.082 7.125 52.9072 7.125C53.6351 7.125 54.1768 7.3387 54.5322 7.76611C54.8877 8.19352 55.0697 8.83252 55.0781 9.68311V14.1201H53.2437V9.72754C53.2437 9.33822 53.159 9.0568 52.9897 8.8833C52.8205 8.70557 52.5391 8.6167 52.1455 8.6167C51.6292 8.6167 51.242 8.83675 50.9839 9.27686V14.1201H49.1494V7.25195H50.876ZM56.189 10.6353C56.189 9.56462 56.4281 8.71191 56.9062 8.07715C57.3887 7.44238 58.0467 7.125 58.8804 7.125C59.549 7.125 60.1012 7.37467 60.5371 7.87402V4.37012H62.3779V14.1201H60.7212L60.6323 13.3901C60.1753 13.9614 59.5871 14.2471 58.8677 14.2471C58.0594 14.2471 57.4098 13.9297 56.9189 13.2949C56.4323 12.6559 56.189 11.7694 56.189 10.6353ZM58.0234 10.7686C58.0234 11.4118 58.1356 11.9048 58.3599 12.2476C58.5841 12.5903 58.91 12.7617 59.3374 12.7617C59.9045 12.7617 60.3044 12.5226 60.5371 12.0444V9.33398C60.3086 8.85579 59.9129 8.6167 59.3501 8.6167C58.4657 8.6167 58.0234 9.33398 58.0234 10.7686ZM65.7358 14.1201H63.895V7.25195H65.7358V14.1201ZM63.7871 5.47461C63.7871 5.19954 63.8781 4.97314 64.0601 4.79541C64.2463 4.61768 64.498 4.52881 64.8154 4.52881C65.1286 4.52881 65.3783 4.61768 65.5645 4.79541C65.7507 4.97314 65.8438 5.19954 65.8438 5.47461C65.8438 5.75391 65.7485 5.98242 65.5581 6.16016C65.3719 6.33789 65.1243 6.42676 64.8154 6.42676C64.5065 6.42676 64.2568 6.33789 64.0664 6.16016C63.8802 5.98242 63.7871 5.75391 63.7871 5.47461ZM70.1094 12.7681C70.4479 12.7681 70.723 12.675 70.9346 12.4888C71.1462 12.3026 71.2562 12.055 71.2646 11.7461H72.9849C72.9806 12.2116 72.8537 12.639 72.604 13.0283C72.3543 13.4134 72.0116 13.7139 71.5757 13.9297C71.144 14.1413 70.6659 14.2471 70.1411 14.2471C69.1593 14.2471 68.3849 13.936 67.8179 13.314C67.2508 12.6877 66.9673 11.8244 66.9673 10.7241V10.6035C66.9673 9.54557 67.2487 8.70133 67.8115 8.0708C68.3743 7.44027 69.1466 7.125 70.1284 7.125C70.9875 7.125 71.6751 7.37044 72.1914 7.86133C72.7119 8.34798 72.9764 8.99756 72.9849 9.81006H71.2646C71.2562 9.45459 71.1462 9.16683 70.9346 8.94678C70.723 8.72249 70.4437 8.61035 70.0967 8.61035C69.6693 8.61035 69.3455 8.76693 69.1255 9.08008C68.9097 9.389 68.8018 9.89258 68.8018 10.5908V10.7812C68.8018 11.488 68.9097 11.9958 69.1255 12.3047C69.3413 12.6136 69.6693 12.7681 70.1094 12.7681ZM78.0122 14.1201C77.9276 13.9551 77.8662 13.7498 77.8281 13.5044C77.3838 13.9995 76.8062 14.2471 76.0952 14.2471C75.4224 14.2471 74.8638 14.0524 74.4194 13.6631C73.9793 13.2738 73.7593 12.7829 73.7593 12.1904C73.7593 11.4626 74.028 10.904 74.5654 10.5146C75.1071 10.1253 75.8879 9.92855 76.9077 9.92432H77.752V9.53076C77.752 9.21338 77.6694 8.95947 77.5044 8.76904C77.3436 8.57861 77.0876 8.4834 76.7363 8.4834C76.4274 8.4834 76.1841 8.55745 76.0063 8.70557C75.8328 8.85368 75.7461 9.0568 75.7461 9.31494H73.9116C73.9116 8.91715 74.0343 8.54899 74.2798 8.21045C74.5252 7.87191 74.8722 7.60742 75.3208 7.41699C75.7694 7.22233 76.2729 7.125 76.8315 7.125C77.6779 7.125 78.3486 7.3387 78.8438 7.76611C79.3431 8.18929 79.5928 8.78597 79.5928 9.55615V12.5332C79.597 13.1849 79.688 13.6779 79.8657 14.0122V14.1201H78.0122ZM76.4951 12.8442C76.766 12.8442 77.0156 12.785 77.2441 12.6665C77.4727 12.5438 77.6419 12.3809 77.752 12.1777V10.9971H77.0664C76.1481 10.9971 75.6593 11.3145 75.6001 11.9492L75.5938 12.0571C75.5938 12.2856 75.6742 12.474 75.835 12.6221C75.9958 12.7702 76.2158 12.8442 76.4951 12.8442ZM83.1982 5.56348V7.25195H84.3726V8.59766H83.1982V12.0254C83.1982 12.2793 83.2469 12.4613 83.3442 12.5713C83.4416 12.6813 83.6278 12.7363 83.9028 12.7363C84.106 12.7363 84.2858 12.7215 84.4424 12.6919V14.082C84.0827 14.1921 83.7124 14.2471 83.3315 14.2471C82.0451 14.2471 81.3892 13.5975 81.3638 12.2983V8.59766H80.3608V7.25195H81.3638V5.56348H83.1982ZM84.9185 10.6226C84.9185 9.94124 85.0496 9.33398 85.312 8.80078C85.5744 8.26758 85.951 7.85498 86.4419 7.56299C86.937 7.271 87.5104 7.125 88.1621 7.125C89.0889 7.125 89.8442 7.40853 90.4282 7.97559C91.0164 8.54264 91.3444 9.31283 91.4121 10.2861L91.4248 10.7559C91.4248 11.8096 91.1307 12.6559 90.5425 13.2949C89.9543 13.9297 89.165 14.2471 88.1748 14.2471C87.1846 14.2471 86.3932 13.9297 85.8008 13.2949C85.2126 12.6602 84.9185 11.7969 84.9185 10.7051V10.6226ZM86.7529 10.7559C86.7529 11.4076 86.8757 11.9069 87.1211 12.2539C87.3665 12.5967 87.7178 12.7681 88.1748 12.7681C88.6191 12.7681 88.9661 12.5988 89.2158 12.2603C89.4655 11.9175 89.5903 11.3716 89.5903 10.6226C89.5903 9.98356 89.4655 9.48844 89.2158 9.13721C88.9661 8.78597 88.6149 8.61035 88.1621 8.61035C87.7135 8.61035 87.3665 8.78597 87.1211 9.13721C86.8757 9.48421 86.7529 10.0238 86.7529 10.7559ZM96.4141 8.97217C96.1644 8.93831 95.9443 8.92139 95.7539 8.92139C95.0599 8.92139 94.605 9.15625 94.3892 9.62598V14.1201H92.5547V7.25195H94.2876L94.3384 8.0708C94.7065 7.44027 95.2165 7.125 95.8682 7.125C96.0713 7.125 96.2617 7.15251 96.4395 7.20752L96.4141 8.97217Z" fill="#222222"/>
<path d="M55.9319 44.0419L61.8533 50.2712L49.9349 50.1986L55.9319 44.0419Z" fill="#FCD958"/>
</g>
<defs>
<clipPath id="clip0">
<path d="M0 5C0 2.23858 2.23858 0 5 0H108C110.761 0 113 2.23858 113 5V75C113 77.7614 110.761 80 108 80H5C2.23858 80 0 77.7614 0 75V5Z" fill="white"/>
</clipPath>
</defs>
</svg>
