<svg width="14" height="14" viewBox="0 0 14 14" fill="none" xmlns="http://www.w3.org/2000/svg">
<path fill-rule="evenodd" clip-rule="evenodd" d="M11.2167 0H2.89384V1.03174H0V5.87119C0 7.74153 1.95358 9.28063 3.87063 9.44074C4.49997 10.1613 5.60693 10.6846 6.59215 10.9078V12.1727C5.65001 12.4819 3.96709 13.2084 3.87063 14H10.3363C10.2389 13.2084 8.38464 12.4809 7.44063 12.1727V10.9078C8.42959 10.6846 9.58619 10.1613 10.2165 9.44074C12.1326 9.28063 14 7.74153 14 5.87119V1.03174H11.2167V0ZM0.888755 1.94839H2.82641V6.11737C2.82641 6.93996 3.02495 7.72252 3.37427 8.42702C1.92454 7.93367 0.888755 6.66276 0.888755 5.1757V1.94839ZM8.47829 7.03302L7.03231 6.18142L5.58445 7.03302L5.86073 5.23174L4.69008 3.95683L6.30745 3.69364L7.03231 2.05647L7.7553 3.69364L9.37267 3.95683L8.20202 5.23174L8.47829 7.03302ZM10.6276 8.56011C10.9788 7.82359 11.1801 7.00901 11.1801 6.14739V1.97541H13.1225V5.16369C13.1225 6.7178 12.082 8.04475 10.6276 8.56011Z" fill="#7E7E7E"/>
</svg>
