<svg width="19" height="14" viewBox="0 0 19 14" fill="none" xmlns="http://www.w3.org/2000/svg">
<path fill-rule="evenodd" clip-rule="evenodd" d="M12.7336 0C14.2874 0 15.547 1.61745 15.547 3.61268C15.547 5.60791 14.2874 7.22537 12.7336 7.22537C11.1798 7.22537 9.92026 5.60791 9.92026 3.61268C9.92026 1.61745 11.1798 0 12.7336 0ZM12.7333 0.610738C11.4979 0.610738 10.4649 1.93725 10.4649 3.61118C10.4649 5.28511 11.4979 6.61161 12.7333 6.61161C13.9688 6.61161 15.0018 5.28511 15.0018 3.61118C15.0018 1.93725 13.9688 0.610738 12.7333 0.610738ZM12.7268 8.12768C16.2211 8.12768 18.1964 9.60728 18.6527 12.5665C18.6633 12.6355 18.6687 12.7054 18.6687 12.7755C18.6687 13.4276 18.215 13.9607 17.6429 13.9979L17.5789 14H7.87482C7.81247 14 7.75022 13.994 7.68878 13.982C7.09574 13.8666 6.69828 13.2328 6.80103 12.5665C7.25733 9.60728 9.2326 8.12768 12.7268 8.12768ZM12.7265 8.74135C9.47567 8.74135 7.74364 10.0387 7.33754 12.6724C7.28616 13.0056 7.48489 13.3224 7.78141 13.3802L7.82775 13.3869L7.87443 13.3892H17.5785C17.8794 13.3892 18.1234 13.115 18.1234 12.7769C18.1234 12.7419 18.1207 12.7069 18.1154 12.6724C17.7093 10.0387 15.9772 8.74135 12.7265 8.74135ZM7.83271 4.60661C7.83271 2.8109 6.69908 1.3552 5.30069 1.3552C3.90229 1.3552 2.76867 2.8109 2.76867 4.60661C2.76867 6.40232 3.90229 7.85803 5.30069 7.85803C6.69908 7.85803 7.83271 6.40232 7.83271 4.60661ZM3.30729 4.60508C3.30729 3.13067 4.21434 1.96591 5.29441 1.96591C6.37449 1.96591 7.28154 3.13067 7.28154 4.60508C7.28154 6.07948 6.37449 7.24425 5.29441 7.24425C4.21434 7.24425 3.30729 6.07948 3.30729 4.60508ZM5.29684 8.67119C6.17521 8.67119 6.94693 8.77508 7.612 8.98284C7.4402 9.15633 7.28091 9.3426 7.13431 9.54163C6.59906 9.41085 5.98799 9.34557 5.29806 9.34557C2.56204 9.34557 1.06616 10.3722 0.621258 12.4393C0.542993 12.8029 0.741895 13.169 1.06552 13.2569C1.09645 13.2653 1.12791 13.2709 1.15958 13.2738L1.20723 13.2759H6.09051C6.15398 13.5206 6.25376 13.7505 6.38422 13.9563H1.206C1.11053 13.9563 1.01539 13.9435 0.922587 13.9183C0.275339 13.7424 -0.122469 13.0103 0.0340632 12.2831C0.55232 9.87515 2.30658 8.67119 5.29684 8.67119Z" fill="#7E7E7E"/>
<path d="M15.1467 3.56132C15.1467 5.09146 14.0427 6.72768 12.6809 6.72768C11.3191 6.72768 10.2151 5.09146 10.2151 3.56132C10.2151 2.03118 11.3191 0.394958 12.6809 0.394958C14.0427 0.394958 15.1467 2.03118 15.1467 3.56132Z" fill="#7E7E7E"/>
<path d="M7.75041 4.74943C7.75041 6.27957 6.64645 7.52 5.28463 7.52C3.92282 7.52 2.81885 6.27957 2.81885 4.74943C2.81885 3.21929 3.92282 1.58307 5.28463 1.58307C6.64645 1.58307 7.75041 3.21929 7.75041 4.74943Z" fill="#7E7E7E"/>
<path d="M6.34101 13.8508C5.6365 12.6634 5.98876 11.476 7.39713 9.10148C1.80388 8.32856 0.966981 11.4292 0.704881 11.8718C0.559078 12.118 0.351536 13.0585 1.05435 13.4543H3.52031L6.34101 13.8508Z" fill="#7E7E7E"/>
<path d="M17.0189 13.4172L7.74911 13.4576C7.63169 13.4576 7.39685 13.2993 7.39685 12.666C7.39685 11.8744 9.15812 8.70807 12.6807 8.70807C16.2032 8.70807 17.2172 11.2877 17.5862 11.6671C18.2798 12.3803 17.0189 13.4172 17.0189 13.4172Z" fill="#7E7E7E" stroke="#7E7E7E"/>
</svg>
