<svg width="14" height="14" viewBox="0 0 14 14" fill="none" xmlns="http://www.w3.org/2000/svg">
<g clip-path="url(#clip0)">
<path d="M13.5898 13.1797H13.1523L13.2508 0.410339C13.2508 0.183685 13.0673 0.000183105 12.8406 0.000183105H11.2C10.9733 0.000183105 10.7898 0.183685 10.7898 0.410339L10.6914 13.1797H9.87109V6.97271C9.87109 6.74605 9.68759 6.56255 9.46094 6.56255H7.82031C7.59366 6.56255 7.41016 6.74605 7.41016 6.97271V13.1797H6.58984V10.254C6.58984 10.0273 6.40634 9.8438 6.17969 9.8438H4.53906C4.31241 9.8438 4.12891 10.0273 4.12891 10.254V13.1797H3.30859V8.61333C3.30859 8.38668 3.12509 8.20317 2.89844 8.20317H1.25781C1.03116 8.20317 0.847656 8.38668 0.847656 8.61333V13.1797H0.410156C0.183502 13.1797 0 13.3632 0 13.5899C0 13.8165 0.183502 14.0001 0.410156 14.0001H13.5898C13.8165 14.0001 14 13.8165 14 13.5899C14 13.3632 13.8165 13.1797 13.5898 13.1797Z" fill="#7E7E7E"/>
<g clip-path="url(#clip1)">
<path d="M3.53008 4.22711H3.51372C3.43297 4.22711 3.35552 4.19503 3.29842 4.13793C3.24132 4.08083 3.20924 4.00339 3.20924 3.92264C3.20924 3.83755 3.17544 3.75594 3.11527 3.69577C3.05511 3.63561 2.9735 3.6018 2.88841 3.6018C2.80332 3.6018 2.72172 3.63561 2.66155 3.69577C2.60138 3.75594 2.56758 3.83755 2.56758 3.92264C2.56758 4.17357 2.66726 4.41422 2.8447 4.59166C3.02213 4.76909 3.26278 4.86877 3.51372 4.86877H3.53008V5.18961C3.53008 5.2747 3.56388 5.3563 3.62405 5.41647C3.68422 5.47664 3.76582 5.51044 3.85091 5.51044C3.936 5.51044 4.01761 5.47664 4.07778 5.41647C4.13794 5.3563 4.17175 5.2747 4.17175 5.18961V4.86877C4.42702 4.86877 4.67183 4.76737 4.85234 4.58686C5.03284 4.40636 5.13424 4.16155 5.13424 3.90627C5.13424 3.651 5.03284 3.40619 4.85234 3.22568C4.67183 3.04518 4.42702 2.94377 4.17175 2.94377V2.30211H4.1788C4.35205 2.30211 4.49258 2.44263 4.49258 2.61588C4.49258 2.70097 4.52638 2.78258 4.58655 2.84275C4.64672 2.90291 4.72832 2.93672 4.81341 2.93672C4.8985 2.93672 4.98011 2.90291 5.04028 2.84275C5.10044 2.78258 5.13424 2.70097 5.13424 2.61588C5.13424 2.36248 5.03358 2.11946 4.8544 1.94028C4.67522 1.7611 4.4322 1.66044 4.1788 1.66044H4.17175V1.33961C4.17175 1.25452 4.13794 1.17291 4.07778 1.11274C4.01761 1.05258 3.936 1.01877 3.85091 1.01877C3.76582 1.01877 3.68422 1.05258 3.62405 1.11274C3.56388 1.17291 3.53008 1.25452 3.53008 1.33961V1.66044C3.27481 1.66044 3.02999 1.76185 2.84949 1.94235C2.66898 2.12285 2.56758 2.36767 2.56758 2.62294C2.56758 2.87821 2.66898 3.12303 2.84949 3.30353C3.02999 3.48404 3.27481 3.58544 3.53008 3.58544V4.22711ZM4.17175 4.22711V3.58544C4.25684 3.58544 4.33844 3.61924 4.39861 3.67941C4.45878 3.73958 4.49258 3.82118 4.49258 3.90627C4.49258 3.99136 4.45878 4.07297 4.39861 4.13314C4.33844 4.19331 4.25684 4.22711 4.17175 4.22711ZM3.53008 2.30211V2.94377C3.44499 2.94377 3.36338 2.90997 3.30322 2.8498C3.24305 2.78964 3.20924 2.70803 3.20924 2.62294C3.20924 2.53785 3.24305 2.45625 3.30322 2.39608C3.36338 2.33591 3.44499 2.30211 3.53008 2.30211ZM3.85091 6.47294C2.07895 6.47294 0.642578 5.03657 0.642578 3.26461C0.642578 1.49265 2.07895 0.0562744 3.85091 0.0562744C5.62287 0.0562744 7.05925 1.49265 7.05925 3.26461C7.05925 5.03657 5.62287 6.47294 3.85091 6.47294Z" fill="#7E7E7E"/>
</g>
</g>
<defs>
<clipPath id="clip0">
<rect width="14" height="14" fill="white"/>
</clipPath>
<clipPath id="clip1">
<rect width="7.7" height="7.7" fill="white" transform="translate(0 -0.700073)"/>
</clipPath>
</defs>
</svg>
