<svg width="145" height="145" viewBox="0 0 145 145" fill="none" xmlns="http://www.w3.org/2000/svg">
<g filter="url(#filter0_d)">
<rect x="4" y="68.1719" width="96.4109" height="96.4109" rx="10" transform="rotate(-45 4 68.1719)" fill="#4F4F4F"/>
<rect x="6.12132" y="68.1719" width="93.4109" height="93.4109" rx="8.5" transform="rotate(-45 6.12132 68.1719)" stroke="#313130" stroke-width="3"/>
</g>
<path d="M44.6904 93V82.3359H47.9717C48.9092 82.3359 49.7466 82.5483 50.4839 82.9731C51.2261 83.3931 51.8047 83.9937 52.2197 84.7749C52.6348 85.5513 52.8423 86.4351 52.8423 87.4263V87.917C52.8423 88.9082 52.6372 89.7896 52.2271 90.561C51.8218 91.3325 51.248 91.9307 50.5059 92.3555C49.7637 92.7803 48.9263 92.9951 47.9937 93H44.6904ZM46.8877 84.1157V91.2349H47.9497C48.8091 91.2349 49.4658 90.9541 49.9199 90.3926C50.374 89.8311 50.606 89.0278 50.6157 87.9829V87.4189C50.6157 86.335 50.3911 85.5146 49.9419 84.958C49.4927 84.3965 48.8359 84.1157 47.9717 84.1157H46.8877ZM53.9775 88.9644C53.9775 88.1782 54.1289 87.4775 54.4316 86.8623C54.7344 86.2471 55.1689 85.771 55.7354 85.4341C56.3066 85.0972 56.9683 84.9287 57.7202 84.9287C58.7896 84.9287 59.6611 85.2559 60.335 85.9102C61.0137 86.5645 61.3921 87.4531 61.4702 88.5762L61.4849 89.1182C61.4849 90.334 61.1455 91.3105 60.4668 92.0479C59.7881 92.7803 58.8774 93.1465 57.7349 93.1465C56.5923 93.1465 55.6792 92.7803 54.9956 92.0479C54.3169 91.3154 53.9775 90.3193 53.9775 89.0596V88.9644ZM56.0942 89.1182C56.0942 89.8701 56.2358 90.4463 56.519 90.8467C56.8022 91.2422 57.2075 91.4399 57.7349 91.4399C58.2476 91.4399 58.6479 91.2446 58.936 90.854C59.2241 90.4585 59.3682 89.8286 59.3682 88.9644C59.3682 88.2271 59.2241 87.6558 58.936 87.2505C58.6479 86.8452 58.2427 86.6426 57.7202 86.6426C57.2026 86.6426 56.8022 86.8452 56.519 87.2505C56.2358 87.6509 56.0942 88.2734 56.0942 89.1182ZM64.7368 85.0752L64.8027 85.9907C65.3691 85.2827 66.1284 84.9287 67.0806 84.9287C67.9204 84.9287 68.5454 85.1753 68.9556 85.6685C69.3657 86.1616 69.5757 86.8989 69.5854 87.8804V93H67.4688V87.9316C67.4688 87.4824 67.3711 87.1577 67.1758 86.9575C66.9805 86.7524 66.6558 86.6499 66.2017 86.6499C65.606 86.6499 65.1592 86.9038 64.8613 87.4116V93H62.7446V85.0752H64.7368ZM75.313 89.2866H71.1895V87.5801H75.313V89.2866ZM79.8906 89.8213L79.1289 90.583V93H77.0122V81.75H79.1289V87.9829L79.5391 87.4556L81.5679 85.0752H84.1094L81.2456 88.3784L84.3584 93H81.9268L79.8906 89.8213ZM88.5259 93.1465C87.3638 93.1465 86.4165 92.79 85.6841 92.0771C84.9565 91.3643 84.5928 90.4146 84.5928 89.228V89.0229C84.5928 88.2271 84.7466 87.5166 85.0542 86.8916C85.3618 86.2617 85.7964 85.7783 86.3579 85.4414C86.9243 85.0996 87.5688 84.9287 88.2915 84.9287C89.3755 84.9287 90.2275 85.2705 90.8477 85.9541C91.4727 86.6377 91.7852 87.6069 91.7852 88.8618V89.7261H86.7388C86.8071 90.2437 87.0122 90.6587 87.354 90.9712C87.7007 91.2837 88.1377 91.4399 88.665 91.4399C89.4805 91.4399 90.1177 91.1445 90.5767 90.5537L91.6167 91.7183C91.2993 92.1675 90.8696 92.519 90.3276 92.7729C89.7856 93.022 89.1851 93.1465 88.5259 93.1465ZM88.2842 86.6426C87.8643 86.6426 87.5225 86.7842 87.2588 87.0674C87 87.3506 86.834 87.7559 86.7607 88.2832H89.7051V88.1147C89.6953 87.646 89.5684 87.2847 89.3242 87.0308C89.0801 86.772 88.7334 86.6426 88.2842 86.6426ZM95.8501 90.0044L97.3149 85.0752H99.5854L96.3994 94.2305L96.2236 94.6479C95.75 95.6831 94.9688 96.2007 93.8799 96.2007C93.5723 96.2007 93.2598 96.1543 92.9424 96.0615V94.4575L93.2646 94.4648C93.665 94.4648 93.9629 94.4038 94.1582 94.2817C94.3584 94.1597 94.5146 93.957 94.627 93.6738L94.876 93.022L92.1001 85.0752H94.3779L95.8501 90.0044Z" fill="white"/>
<path d="M87.7997 60.1279C87.7997 51.2378 80.5733 44.0391 71.6748 44.0391C62.767 44.0391 55.5498 51.238 55.5498 60.1279C55.5498 69.0182 62.776 76.2171 71.6748 76.2171C80.5827 76.2171 87.7997 69.009 87.7997 60.1279Z" fill="#F4E41C" stroke="black"/>
<path fill-rule="evenodd" clip-rule="evenodd" d="M85.5636 67.2613C83.0176 72.1804 77.9169 75.57 72.0183 75.7042C72.0183 75.6416 72.0093 75.57 72.0093 75.5075C71.9824 74.7026 72.0271 73.9064 72.1168 73.1105C72.1976 72.4129 72.3051 71.7242 72.3857 71.0265C72.5831 69.2557 72.4844 67.8605 71.8838 66.1612C71.6238 65.4188 71.086 64.8376 70.4316 64.4262C70.1895 64.2741 69.5261 63.9252 69.2393 63.9074C68.8089 63.9074 68.0111 63.6032 67.6525 63.3887C66.6486 62.7983 66.4065 61.8951 67.043 60.8844C68.0021 59.364 70.4494 58.2012 72.1258 57.754C73.6767 57.3427 75.4784 57.2264 76.9755 57.9151L77.0742 57.9597L77.1189 58.0582C77.4507 58.7647 77.7824 59.4802 78.096 60.1957C78.3471 60.7682 78.6161 61.3674 78.8312 61.9665C79.0643 62.6284 79.2614 63.2993 79.4947 63.961C80.1848 65.9377 81.1262 67.7889 83.5735 67.3865C84.192 67.2793 84.8283 67.2166 85.4559 67.2703L85.5636 67.2613Z" fill="black"/>
<path fill-rule="evenodd" clip-rule="evenodd" d="M76.8545 45.4133C78.0199 45.8247 79.1226 46.3613 80.1444 47.0232C79.8038 47.2736 79.4543 47.4972 79.0867 47.6939C78.6294 47.9354 78.1455 48.2127 77.7061 48.5168L77.6792 48.6509C77.6345 48.8477 77.5986 49.0534 77.5717 49.2591C77.4999 49.6973 77.4371 50.1445 77.4014 50.5917C77.3655 51.021 77.3387 51.6739 77.464 52.0853C77.7241 52.9171 78.2977 53.3197 79.006 53.6148L78.5041 53.6058C78.6384 53.6862 78.764 53.7757 78.8805 53.8919C79.1494 54.1514 79.3556 54.4734 79.517 54.7953C79.8307 55.4214 79.9651 56.2173 79.9382 56.9149C79.9204 57.5589 79.777 58.167 79.5259 58.7305C79.7501 59.2045 79.9651 59.6875 80.1803 60.1705C80.4314 60.743 80.7003 61.342 80.9155 61.9413C81.1485 62.6032 81.3457 63.2739 81.5787 63.9358C82.2512 65.8586 83.1655 67.6742 85.4782 67.3881C83.2192 71.6454 79.0508 74.731 74.1114 75.5091V75.4911C74.0845 74.6861 74.1292 73.8902 74.2189 73.0942C74.2997 72.3965 74.4072 71.7078 74.4878 71.0103C74.6852 69.2395 74.5865 67.8353 73.9858 66.1449C73.7259 65.4026 73.1881 64.8212 72.5337 64.4098C72.444 64.3562 72.3096 64.2757 72.1482 64.1951C71.709 64.4814 71.2698 64.7407 70.8035 64.9732C69.3154 65.7246 67.7286 66.1359 66.0524 66.1449C64.8421 66.1538 63.2465 66.0555 62.1529 65.4831C61.5701 65.1701 61.0772 64.6871 61.0054 64.0074C60.9516 63.5422 61.1488 63.122 61.4536 62.7731C61.5613 62.6568 61.6688 62.5405 61.7943 62.4421C61.8481 62.3975 61.9287 62.3349 61.9825 62.299L62.0452 62.2632C62.0274 61.9593 62.0542 61.6371 62.2604 61.4763L62.2785 61.4673C62.0095 61.3868 61.7584 61.2258 61.606 61.0113C61.3908 60.6981 61.4177 60.2151 61.4895 59.7859L61.3908 59.7055C61.1758 59.5622 60.9426 59.3297 60.7902 59.124C60.4406 58.641 60.36 58.0866 60.6021 57.5409C60.8979 56.888 61.5254 56.5303 62.2245 56.3336L62.2514 56.262L61.9825 55.958L62.2694 56.2173C62.3232 56.0743 62.4038 55.9222 62.4846 55.797C62.5203 55.7433 62.5562 55.6897 62.6012 55.6361C62.5743 55.6003 62.5562 55.5554 62.5472 55.5108C62.5472 55.5018 62.5472 55.484 62.5472 55.475C62.5472 55.4392 62.5384 55.3946 62.5384 55.3498C62.5384 55.2157 62.5472 55.0904 62.5653 54.9562C62.628 54.5716 62.8252 54.2319 63.1838 54.044C63.4705 53.8919 63.8023 53.8293 64.1161 53.9009C64.2417 53.9277 64.4029 53.9814 64.5106 54.062L64.5822 54.1156C65.1111 53.8831 65.6848 53.7042 66.2586 53.6684C66.7875 53.6326 67.3344 53.6236 67.8542 53.6862C68.0245 53.7042 68.2397 53.7398 68.4101 53.7937L68.8583 53.9367C68.8493 53.8025 68.8403 53.6684 68.8313 53.5342C68.8134 53.1049 68.8044 52.6398 68.8493 52.2016C68.9031 51.7812 68.9568 51.3519 69.0196 50.9316C69.0824 50.5649 69.163 50.1356 69.2795 49.7331C69.0196 49.751 68.7507 49.7331 68.4817 49.6884C67.7557 49.5453 67.1639 49.1428 66.9399 48.4184C66.7606 47.8192 66.8324 47.3809 67.1551 46.889C67.2357 47.2736 67.3432 47.5061 67.4868 47.6761C67.6302 47.846 67.9079 47.9354 68.1231 47.9712C68.2128 47.9891 68.3114 47.998 68.4101 47.9891C68.6163 47.9801 68.8224 47.9265 69.0106 47.8549L68.8134 47.6403C68.2755 47.05 67.7467 46.4418 67.2357 45.8157C67.0923 45.6458 66.9577 45.467 66.8324 45.2881C68.0694 44.8856 69.3782 44.6352 70.7407 44.5547C70.9828 44.8945 71.207 45.2344 71.422 45.5921C71.7178 45.4848 72.0226 45.4133 72.3365 45.3775C72.5964 45.3507 72.8744 45.3507 73.1343 45.3775C73.1343 45.3775 73.1343 45.3775 73.1343 45.3686L72.5874 44.823L73.3583 44.9303C73.5107 44.9482 73.6991 45.0198 73.8424 45.0734C74.2279 45.2344 74.5686 45.467 74.8733 45.7442C75.0257 45.8873 75.1603 46.0393 75.2858 46.2093C75.5279 46.5134 75.734 46.8443 75.9222 47.1841C75.9222 47.1931 75.9312 47.1931 75.9312 47.202C75.9759 47.1126 76.0208 47.0142 76.0656 46.9248C76.236 46.576 76.4063 46.2272 76.5856 45.8873C76.6752 45.7353 76.7649 45.5743 76.8545 45.4133Z" fill="#F6BC12"/>
<path fill-rule="evenodd" clip-rule="evenodd" d="M85.4122 67.543C84.5158 69.1975 83.3235 70.6644 81.9072 71.8897C80.6341 72.9898 79.1819 73.893 77.5951 74.5459C75.9548 75.2168 74.1707 75.6192 72.3062 75.6908C72.3062 75.6282 72.2972 75.5565 72.2972 75.4851C72.1718 71.8985 73.5163 69.904 72.1538 66.0493C71.5084 64.2427 69.5003 63.5988 69.2225 63.5988C68.9446 63.5988 66.0221 63.0174 67.2682 61.0319C68.5142 59.0464 73.5881 56.6942 76.8332 58.1698C76.8332 58.1698 78.142 60.9335 78.5275 62.0425C79.4149 64.5737 80.0962 68.2405 83.6014 67.6502C84.2109 67.5608 84.8294 67.4982 85.4122 67.543Z" fill="#B99D85"/>
<path fill-rule="evenodd" clip-rule="evenodd" d="M76.4621 65.4453C76.4621 65.4453 76.3277 66.5096 76.1304 66.9746C75.9333 67.4398 75.6733 67.8064 75.6733 67.8064C75.6733 67.8064 76.1304 67.5112 76.3456 66.912C76.5518 66.3217 76.4621 65.4453 76.4621 65.4453Z" fill="black"/>
<path fill-rule="evenodd" clip-rule="evenodd" d="M76.7367 66.6836C76.7367 66.6836 76.4946 67.4617 76.3244 67.8373C76.1631 68.2129 76.0645 68.4188 76.0645 68.4188C76.0645 68.4188 76.2975 68.1951 76.5396 67.6942C76.7726 67.1844 76.7367 66.6836 76.7367 66.6836Z" fill="black"/>
<path fill-rule="evenodd" clip-rule="evenodd" d="M70.4425 48.069C69.8329 48.5609 69.062 48.9454 68.2551 48.7845C67.9683 48.7308 67.6098 48.5788 67.4036 48.3641C67.1706 48.1226 66.9463 47.8811 66.7223 47.6307C66.1844 47.0404 65.6556 46.4323 65.1446 45.8062C64.5618 45.0996 64.0779 44.2857 63.6834 43.454C63.4054 42.8726 63.1455 42.2466 62.9572 41.6294C62.8675 41.3522 62.7959 41.0749 62.7151 40.7977C62.5898 40.3505 62.4732 39.9033 62.3655 39.4561L62.249 39L62.6973 39.1431C63.0468 39.2504 63.4503 39.4919 63.7281 39.7155C64.1406 40.0375 64.5439 40.3505 64.9472 40.6904C65.7272 41.3611 66.4803 42.0677 67.2065 42.7921C67.5201 43.1052 67.8069 43.4271 68.0758 43.776C68.7302 44.6077 69.313 45.511 69.8329 46.4412C70.0661 46.8615 70.308 47.3087 70.5053 47.747L70.5859 47.9348L70.4425 48.069Z" fill="black"/>
<path fill-rule="evenodd" clip-rule="evenodd" d="M70.2714 47.8709C70.2714 47.8709 68.8819 44.8569 67.0172 42.9966C65.1527 41.1363 64.041 40.3045 63.5659 39.9378C63.0908 39.5622 62.6157 39.4102 62.6157 39.4102C62.6157 39.4102 62.9653 40.8054 63.2074 41.5656C63.4404 42.3258 64.1576 44.204 65.3498 45.6529C66.5421 47.1018 67.591 48.1929 67.591 48.1929C67.591 48.1929 68.5861 49.2214 70.2714 47.8709Z" fill="#B99D85"/>
<path fill-rule="evenodd" clip-rule="evenodd" d="M62.6846 39.6836C62.8011 40.1218 63.0341 41.0162 63.2044 41.5707C63.4374 42.3309 64.1546 44.2091 65.3469 45.658C66.5392 47.1069 67.5881 48.198 67.5881 48.198C67.5881 48.198 67.7942 48.4037 68.1707 48.5111C67.624 47.8313 66.8709 46.9012 66.5213 46.4898C65.9385 45.8011 65.2484 44.9604 64.9255 43.9587C64.6028 42.957 64.6478 42.4293 64.6478 42.4293C64.6478 42.4293 66.351 44.871 66.5392 45.2466C66.6916 45.5507 68.2156 47.7956 68.7444 48.5647C68.8072 48.5558 68.879 48.5468 68.9506 48.5379L69.103 47.1606C69.103 47.1606 68.1977 45.9353 67.6418 45.0141C67.0951 44.0929 66.0821 42.8855 64.818 41.9821C63.8678 41.2934 63.0163 40.3991 62.6846 39.6836Z" fill="#9E775C"/>
<path fill-rule="evenodd" clip-rule="evenodd" d="M68.6507 48.189C68.6507 48.189 68.2294 46.919 67.5122 45.631C66.795 44.3432 66.3915 43.8155 65.9076 43.3325C65.4234 42.8495 64.249 42.0625 64.249 42.0625C64.249 42.0625 64.3746 42.2592 64.4823 42.3934C64.5807 42.5276 64.6525 42.5723 64.6525 42.5723C64.6525 42.5723 65.0917 43.7886 65.2351 44.2448C65.3697 44.7009 65.8179 45.5237 66.2303 45.9351C66.6426 46.3465 67.5481 47.4645 67.7274 47.7149C67.9155 47.9475 68.1307 48.4483 68.6507 48.189Z" fill="black"/>
<path fill-rule="evenodd" clip-rule="evenodd" d="M68.3118 47.9873C68.2492 47.8174 68.1774 47.6475 68.1146 47.4865C67.8726 46.8962 67.6036 46.3148 67.29 45.7514C66.8417 44.9465 66.3845 44.1684 65.7301 43.5065C65.542 43.3187 65.3087 43.1398 65.0937 42.9699C65.0937 42.9699 65.0847 42.9609 65.0757 42.9609C65.1294 43.104 65.1744 43.2471 65.2281 43.3902C65.3177 43.6407 65.4074 43.9 65.488 44.1594C65.6316 44.6334 66.0708 45.3936 66.4204 45.7425C66.6715 45.9929 66.9133 46.288 67.1466 46.5563C67.3168 46.7531 67.4781 46.9499 67.6395 47.1556C67.747 47.2897 67.8547 47.4149 67.9534 47.5491C68.025 47.6475 68.0878 47.7548 68.1596 47.8532C68.2133 47.9158 68.258 47.9694 68.3118 47.9873Z" fill="#F6C4B1"/>
<path fill-rule="evenodd" clip-rule="evenodd" d="M66.9093 55.4937C66.8824 55.2968 66.8555 55.0823 66.8377 54.8854C66.7927 54.4382 66.748 53.991 66.73 53.5528C66.7121 53.1236 66.7031 52.6585 66.748 52.2202C66.8018 51.7999 66.8555 51.3706 66.9183 50.9502C67.026 50.2705 67.2051 49.3851 67.5817 48.8037C67.6176 48.7411 67.6623 48.6874 67.7161 48.6338C68.1284 48.2045 68.8099 48.1955 69.3207 48.4549C70.0469 48.8216 70.3427 49.5997 70.3607 50.3689C70.3876 51.1649 70.4414 51.9787 70.2711 52.7569C69.9213 54.331 68.6843 55.1538 67.25 55.6994L66.9452 55.8156L66.9093 55.4937Z" fill="black"/>
<path fill-rule="evenodd" clip-rule="evenodd" d="M67.1637 55.4433C67.1637 55.4433 66.8769 53.3414 67.0115 52.2324C67.1459 51.1323 67.3252 49.6835 67.8093 48.9232C68.2934 48.163 70.0503 48.4224 70.113 50.3632C70.167 52.304 70.4179 54.209 67.1637 55.4433Z" fill="#B99D85"/>
<path fill-rule="evenodd" clip-rule="evenodd" d="M67.0298 54.1542C66.976 53.5104 66.9491 52.7679 67.0119 52.2492C67.0925 51.5874 67.1912 50.7914 67.3615 50.1027C67.4958 50.0222 67.6214 49.9596 67.6932 49.9328C67.9441 49.8433 68.222 49.7539 68.2848 49.7539C68.3386 49.7629 68.5088 49.7629 68.5359 49.7629C68.5628 49.7629 69.2172 49.7092 69.5489 50.5588C69.5489 50.5588 69.3696 50.4068 68.9571 50.4426C68.5447 50.4783 68.1593 50.6215 67.989 50.8182C67.8187 51.015 67.7828 51.3101 67.7828 51.3101C67.7828 51.3101 68.1861 50.7914 68.6434 50.845C69.1007 50.8987 69.2082 51.167 69.2082 51.167C69.2082 51.167 68.9033 50.9434 68.5447 51.0507C68.1952 51.1581 67.998 51.4443 67.8903 51.6142C67.7828 51.7841 68.0965 53.8143 68.0965 53.8143C68.0965 53.8143 67.6483 54.2169 67.0298 54.1542Z" fill="#9E775C"/>
<path fill-rule="evenodd" clip-rule="evenodd" d="M61.0447 64.4814C61.0447 64.4814 60.4262 62.9341 60.5247 61.3242C60.6324 59.7144 58.7677 58.1401 59.4489 57.4426C60.1304 56.7361 62.4969 56.7988 63.3037 56.9508C64.1106 57.0939 68.9334 59.1598 71.0221 57.0313C73.1109 54.9025 73.4067 54.3481 73.4067 54.3481C73.4067 54.3481 75.4146 54.0619 74.2941 58.1492C73.1735 62.2366 69.4264 63.73 67.9204 64.2847C66.4055 64.8301 62.0308 65.4742 61.0447 64.4814Z" fill="#E30613"/>
<path fill-rule="evenodd" clip-rule="evenodd" d="M61.815 61.2518C61.8599 61.216 61.9046 61.1892 61.9764 61.1714C62.102 61.1355 62.2363 61.1177 62.3619 61.0997C62.559 61.0639 62.7564 61.0371 62.9535 61.0193C63.1777 61.0015 63.4286 60.9835 63.6528 61.0103C63.9218 61.0371 64.1458 61.1623 64.3072 61.386C64.3341 61.4217 64.361 61.4665 64.3879 61.5111C64.4865 61.3322 64.6209 61.216 64.8898 61.1265C64.9616 61.0997 65.0601 61.0909 65.1409 61.0819C65.2663 61.0639 65.383 61.0551 65.5083 61.0461C65.831 61.0193 66.1539 61.0103 66.4766 60.9925C67.0054 60.9745 67.5255 60.9567 68.0543 60.9477C68.2515 60.9477 68.4488 60.9388 68.6369 60.9208C69.0493 60.885 69.4706 60.8226 69.8741 60.7151C70.2058 60.6257 70.5642 60.5005 70.8422 60.3038C71.2008 60.0445 71.5953 59.8119 72.0076 59.6509C72.142 59.5973 72.3213 59.5436 72.4649 59.5256L72.662 59.5078L72.671 59.7045C72.671 59.8119 72.671 59.9282 72.653 60.0444C72.6261 60.3128 72.5814 60.5899 72.5096 60.8494C72.2944 61.6454 71.8732 62.3519 71.2008 62.8527C70.7884 63.1658 70.3043 63.4252 69.8382 63.6398C69.2107 63.926 68.5473 64.1675 67.875 64.3642C67.5702 64.4536 67.2565 64.5431 66.9517 64.6237L66.844 64.6505L66.7724 64.5611C66.6378 64.4 66.4854 64.1675 66.4048 63.9708C66.3958 63.935 66.3779 63.8992 66.3689 63.8634C66.351 63.9082 66.3242 63.9528 66.2973 64.0064C66.2255 64.1497 66.109 64.3642 65.9925 64.4716L65.9477 64.5162L64.7464 64.6683L64.6837 64.5879C64.5403 64.409 64.3969 64.1585 64.3072 63.9528C64.2982 63.926 64.2804 63.8902 64.2713 63.8634C64.1817 64.0512 64.074 64.2211 63.9396 64.3464C63.85 64.4268 63.5632 64.7131 63.4467 64.7487L63.3839 64.7667L63.3211 64.7487C63.1866 64.7041 63.061 64.6593 62.9357 64.6147C62.846 64.5789 62.7564 64.5521 62.6755 64.5162C62.5949 64.4804 62.4874 64.4448 62.4515 64.3554C62.4156 64.2837 62.3709 64.2121 62.335 64.1407C62.2813 64.0332 62.2273 63.926 62.1826 63.8097C62.1379 63.9528 62.0751 64.087 62.0123 64.2033C61.6896 64.7756 61.1068 64.8294 60.7124 64.2927C60.6408 64.1853 60.569 64.069 60.5062 63.9618C60.3628 63.7203 60.2372 63.461 60.1388 63.2015C60.0848 63.0584 60.0491 62.9153 60.0223 62.7723C59.9595 62.4235 59.843 61.7526 60.1745 61.4933C60.2104 61.4665 60.2372 61.4397 60.2731 61.4129C60.4524 61.2608 60.6766 61.2072 60.9007 61.1623C61.08 61.1265 61.2952 61.0819 61.4833 61.0909C61.6 61.0729 61.7522 61.1087 61.815 61.2518Z" fill="black"/>
<path fill-rule="evenodd" clip-rule="evenodd" d="M60.8411 64.169C60.8411 64.169 60.3032 63.4087 60.1778 62.72C60.0523 62.0403 60.1151 61.7361 60.2584 61.6199C60.4109 61.5036 60.4197 61.4232 60.9038 61.3248C61.388 61.2175 61.612 61.2353 61.6479 61.3428C61.6838 61.45 61.7465 61.8972 61.7913 62.0939C61.8362 62.2908 62.0155 62.6844 62.0155 62.6844C62.0155 62.6844 61.9168 62.2818 61.8899 61.9508C61.8631 61.6199 61.8181 61.4054 62.0243 61.3516C62.2216 61.2979 63.1181 61.1371 63.6291 61.1907C64.1399 61.2443 64.2923 61.6915 64.2923 61.8882C64.2923 62.0851 64.3282 62.7112 64.3282 62.7112C64.3282 62.7112 64.3732 62.1119 64.4448 61.8614C64.5166 61.6111 64.5793 61.4142 64.9379 61.3069C65.2965 61.1907 68.0394 61.1371 68.0394 61.1371C68.0394 61.1371 69.9848 61.1371 70.935 60.4574C71.8852 59.7775 72.468 59.7148 72.468 59.7148C72.468 59.7148 72.5308 61.6111 71.0784 62.7112C69.6262 63.8023 66.8921 64.4461 66.8921 64.4461C66.8921 64.4461 66.65 64.16 66.5604 63.9095C66.4707 63.6592 66.3811 63.3102 66.3811 63.3102C66.3811 63.3102 66.2646 63.6144 66.1121 63.9275C65.9597 64.2314 65.8432 64.3479 65.8432 64.3479L64.8033 64.473C64.8033 64.473 64.5972 64.2136 64.4448 63.8737C64.2923 63.5339 64.2296 63.2834 64.2296 63.2834C64.2296 63.2834 64.1399 63.8649 63.7813 64.2046C63.4229 64.5446 63.3511 64.5714 63.3511 64.5714C63.3511 64.5714 62.6071 64.3209 62.5893 64.2853C62.5712 64.2404 62.41 63.9901 62.2575 63.5966C62.1051 63.203 62.0782 63.1584 62.0782 63.1584C62.0782 63.1584 62.0692 63.6592 61.8181 64.1152C61.5851 64.5536 61.1549 64.5982 60.8411 64.169Z" fill="white"/>
<path fill-rule="evenodd" clip-rule="evenodd" d="M59.9705 58.1014C60.0243 57.9315 60.1945 57.7526 60.3291 57.6454C60.7593 57.3232 61.3599 57.2518 61.88 57.2786L62.0143 57.2876L62.0502 57.4217C62.0861 57.5469 62.104 57.699 62.113 57.833C62.1399 58.1462 62.122 58.4681 62.0502 58.7811C61.9786 59.103 61.9159 59.4339 61.8531 59.7559C61.7723 60.1853 61.6916 60.6147 61.62 61.0529L61.611 61.1155L61.5661 61.1601C61.3868 61.3212 61.109 61.4552 60.876 61.5089C60.4097 61.6253 59.7734 61.4194 59.4954 61.0171C59.1906 60.5699 59.3699 59.7649 59.5044 59.2819C59.5401 59.1656 59.576 59.0406 59.621 58.9241C59.7194 58.647 59.845 58.3697 59.9705 58.1014Z" fill="black"/>
<path fill-rule="evenodd" clip-rule="evenodd" d="M61.8662 57.4656C61.8662 57.4656 62.0187 58.0558 61.8662 58.7357C61.7138 59.4154 61.4359 61.0163 61.4359 61.0163C61.4359 61.0163 61.185 61.2398 60.8264 61.3293C60.4678 61.4187 59.894 61.2757 59.6431 60.9089C59.392 60.5511 59.5354 59.8358 59.67 59.326C59.8134 58.8252 60.1361 58.1723 60.1361 58.1723C60.1361 58.1723 60.3603 57.3941 61.8662 57.4656Z" fill="white"/>
<path fill-rule="evenodd" clip-rule="evenodd" d="M63.1636 57.5221C63.4684 57.4506 63.7821 57.4953 64.0691 57.6295C64.2482 57.71 64.4814 57.871 64.5889 58.0499C64.7235 58.2824 64.7323 58.8815 64.7323 59.1588C64.7323 59.7044 64.7592 60.885 64.4814 61.3232C64.3918 61.4662 64.2931 61.5915 64.1585 61.6989C63.8001 61.985 63.307 61.9672 62.8768 61.9134C62.5092 61.8598 61.6396 61.7077 61.5052 61.2695C61.4784 61.1623 61.4784 60.9922 61.4872 60.885C61.4962 60.7061 61.5052 60.5182 61.5231 60.3393C61.55 60.1068 61.5768 59.8475 61.6306 59.624C61.6845 59.4093 61.7383 59.1856 61.8011 58.9709C61.8727 58.7206 61.9803 58.4075 62.1237 58.184C62.303 57.9066 62.8229 57.6473 63.1277 57.5311L63.1367 57.5221H63.1636Z" fill="black"/>
<path fill-rule="evenodd" clip-rule="evenodd" d="M63.2055 57.7007C63.2055 57.7007 62.4793 57.9868 62.291 58.291C62.0938 58.5861 61.9235 59.2658 61.8249 59.6684C61.7262 60.0708 61.6456 61.0456 61.6993 61.2157C61.7531 61.3945 62.0938 61.609 62.9185 61.7253C63.7433 61.8417 64.0749 61.6449 64.335 61.2245C64.5949 60.8041 64.559 59.2926 64.559 59.1586C64.559 59.0155 64.5502 58.3358 64.4334 58.1389C64.3081 57.9332 63.7881 57.5665 63.2055 57.7007Z" fill="#FDE100"/>
<path fill-rule="evenodd" clip-rule="evenodd" d="M63.2094 57.7007C63.2094 57.7007 62.6625 57.9154 62.3936 58.1747C62.833 58.1747 63.5321 58.2373 63.792 58.6129C64.1418 59.1137 64.0072 60.8935 63.3977 61.7523C63.8816 61.7343 64.1327 61.5464 64.3389 61.2245C64.5988 60.8041 64.5629 59.2926 64.5629 59.1586C64.5629 59.0155 64.5541 58.3358 64.4376 58.1389C64.312 57.9332 63.792 57.5665 63.2094 57.7007Z" fill="#FAC200"/>
<path fill-rule="evenodd" clip-rule="evenodd" d="M64.3477 61.4113C64.3655 61.0984 64.3836 60.7762 64.4104 60.4633C64.4283 60.2844 64.4373 60.1145 64.4552 59.9356C64.4642 59.8104 64.4822 59.6761 64.5091 59.5511C64.5897 59.1933 64.6345 58.9964 64.8677 58.7013C65.0111 58.5136 65.2531 58.3347 65.4862 58.2631C65.8536 58.12 66.2571 58.0752 66.6157 58.2453C66.8487 58.3525 67.0549 58.5492 67.1536 58.7907C67.1895 58.8802 67.2163 58.9964 67.2432 59.1217C67.3597 58.9696 67.53 58.8176 67.6734 58.7193C67.8796 58.585 68.1307 58.4778 68.3818 58.5224C68.7582 58.5941 69.1077 58.7639 69.3051 59.1039C69.3677 59.2111 69.4216 59.3454 69.4663 59.4704C69.6097 59.2021 69.789 58.8534 69.9952 58.6835C70.291 58.442 70.7932 58.4778 71.0441 58.7639C71.08 58.7997 71.1159 58.8444 71.1427 58.8982C71.1696 58.7819 71.1965 58.6567 71.2324 58.5404C71.2683 58.4152 71.304 58.2899 71.3399 58.1647C71.3579 58.102 71.3758 58.0306 71.4027 57.959C71.4476 57.8517 71.6178 57.7623 71.7165 57.7175C71.8958 57.646 72.093 57.6192 72.2813 57.6728C72.4425 57.7087 72.5949 57.7801 72.7115 57.9053C72.7921 57.9858 72.837 58.0752 72.8998 58.1737C73.0432 58.3794 73.1507 58.8802 73.1775 59.1395C73.1866 59.2469 73.2046 59.3542 73.2134 59.4704C73.2315 59.6493 73.2315 59.8372 73.2134 60.0251C73.1597 60.5259 72.9535 60.9731 72.559 61.3041C72.335 61.4917 71.9584 61.7781 71.6357 61.7332C71.5282 61.7154 71.4476 61.6706 71.3936 61.617C71.322 61.6886 71.1875 61.7513 71.1159 61.7959C70.8469 61.9301 70.0401 62.0732 69.7353 62.0732C69.5381 62.0732 69.3408 62.0284 69.2154 61.9121C69.1795 61.9926 69.1168 62.0642 69.045 62.109C68.8926 62.2163 68.7044 62.2521 68.5251 62.2609C68.319 62.2699 68.0948 62.2609 67.8886 62.2431C67.7093 62.2253 67.53 62.2073 67.3507 62.1714C67.2163 62.1446 67.019 62.1 66.9562 61.9479C66.9474 61.9211 66.9384 61.8943 66.9294 61.8585C66.8666 61.9389 66.795 62.0106 66.7322 62.0464C66.5888 62.1178 66.3646 62.1178 66.2034 62.1178C65.8807 62.109 65.549 62.0732 65.2351 62.0374C64.9842 62.0106 64.6166 61.9389 64.4463 61.7422C64.3655 61.6348 64.3208 61.5186 64.3477 61.4113Z" fill="black"/>
<path fill-rule="evenodd" clip-rule="evenodd" d="M65.5341 58.4341C65.5341 58.4341 65.2114 58.5413 65.0051 58.8186C64.7901 59.096 64.7542 59.2478 64.6824 59.5968C64.6018 59.9455 64.5211 61.448 64.5211 61.448C64.5211 61.448 64.4134 61.7431 65.2471 61.8416C66.0808 61.94 66.4843 61.949 66.6456 61.8684C66.807 61.788 67.0579 61.2691 67.0579 61.2691C67.0579 61.2691 67.076 61.7431 67.1207 61.8774C67.1746 62.0115 68.1068 62.0921 68.5013 62.0741C68.8958 62.0563 69.0392 61.8774 69.0482 61.779C69.057 61.6807 69.0751 61.3586 69.0929 61.0456C69.1019 60.7237 69.1019 60.6969 69.1019 60.6969C69.1019 60.6969 69.2363 61.3049 69.2363 61.5464C69.2363 61.788 69.4336 61.8864 69.7204 61.8864C70.0072 61.8864 70.7962 61.7343 71.0114 61.6269C71.2264 61.5196 71.2534 61.4748 71.2534 61.4748C71.2534 61.4748 71.3431 61.3139 71.3341 61.0008C71.316 60.6969 71.316 60.5894 71.316 60.5894C71.316 60.5894 71.4237 60.8309 71.4596 61.0278C71.4865 61.2245 71.4775 61.4302 71.4775 61.4302C71.4775 61.4302 71.612 61.8416 72.4187 61.1619C73.2255 60.4822 73.0014 59.4179 72.9746 59.1584C72.9477 58.8991 72.8312 58.4341 72.7235 58.282C72.616 58.1209 72.5442 57.9421 72.2037 57.8616C71.8719 57.7812 71.5581 57.9959 71.5402 58.0405C71.5224 58.0853 71.2982 58.8096 71.2623 59.087C71.2354 59.3643 71.2534 59.552 71.2534 59.552C71.2534 59.552 71.0561 59.1316 70.859 58.8991C70.6616 58.6756 70.2762 58.6666 70.07 58.8364C69.8638 59.0065 69.6308 59.4983 69.5321 59.6772C69.4336 59.8561 69.4068 60.0082 69.4068 60.0082C69.4068 60.0082 69.2363 59.4267 69.111 59.2032C68.9854 58.9795 68.7433 58.7918 68.313 58.7114C67.8916 58.6308 67.4077 59.1316 67.2821 59.3463C67.1566 59.561 67.085 59.8203 67.085 59.8203C67.085 59.8203 67.0669 59.1584 66.9504 58.8723C66.8517 58.5681 66.3857 58.0941 65.5341 58.4341Z" fill="white"/>
<path fill-rule="evenodd" clip-rule="evenodd" d="M68.5914 51.2643C69.2637 51.2375 69.8106 51.8367 69.8106 52.6058C69.8194 53.3661 69.2817 54.0099 68.6093 54.028C67.937 54.0548 67.3901 53.4555 67.3901 52.6863C67.3901 52.5701 67.3992 52.4538 67.426 52.3465C67.426 52.3465 67.4888 51.631 67.7218 51.2285C67.9639 50.826 68.3494 50.8171 68.448 50.7992C68.5465 50.7813 68.7707 50.7992 68.932 50.8886C69.0934 50.9691 69.1024 51.0586 69.1024 51.0586C69.1024 51.0586 68.8604 50.8529 68.4749 50.9155C68.0895 50.9781 67.9102 51.1659 67.8293 51.3537C67.7756 51.4789 67.7397 51.6131 67.7309 51.6936C67.9549 51.4431 68.2597 51.2822 68.5914 51.2643Z" fill="black"/>
<path fill-rule="evenodd" clip-rule="evenodd" d="M68.5966 51.4145C69.1702 51.3966 69.6453 51.9332 69.6543 52.6129C69.6633 53.2927 69.197 53.8651 68.6235 53.8829C68.0497 53.9009 67.5746 53.3643 67.5656 52.6845C67.5565 52.0048 68.0138 51.4324 68.5966 51.4145Z" fill="white"/>
<path fill-rule="evenodd" clip-rule="evenodd" d="M68.7098 51.9416C69.0415 51.9327 69.3104 52.2278 69.3195 52.6124C69.3283 52.988 69.0594 53.3099 68.7278 53.3189C68.3961 53.3279 68.1272 53.0327 68.1182 52.6482C68.1182 52.2725 68.3871 51.9505 68.7098 51.9416Z" fill="black"/>
<path fill-rule="evenodd" clip-rule="evenodd" d="M68.763 52.3242C68.8527 52.3242 68.9333 52.4226 68.9423 52.5568C68.9423 52.682 68.8705 52.7893 68.7809 52.7893C68.6912 52.7893 68.6106 52.6909 68.6016 52.5568C68.6016 52.4226 68.6734 52.3242 68.763 52.3242Z" fill="white"/>
<path fill-rule="evenodd" clip-rule="evenodd" d="M76.8984 53.6223L76.3964 53.6133C76.5308 53.6939 76.6563 53.7833 76.7728 53.8996C77.0418 54.1589 77.2479 54.4809 77.4094 54.8028C77.7231 55.4289 77.8576 56.225 77.8396 56.9225C77.8037 58.0584 77.3735 59.0869 76.6742 59.9723C75.9301 60.8935 74.9352 61.5912 73.8594 62.0652C73.5008 62.2263 73.1332 62.3694 72.7568 62.4766C72.6044 62.5214 72.452 62.566 72.2995 62.5929L72.0306 62.6465C71.7169 62.9864 71.3943 63.2816 71.1073 63.4604C70.9819 63.5321 70.8652 63.6215 70.7487 63.702C70.5694 63.8272 70.3991 63.9435 70.2198 64.0685C69.7269 64.3995 69.2249 64.7036 68.6958 64.9629C67.2078 65.7142 65.6212 66.1256 63.9448 66.1346C62.7347 66.1436 61.1389 66.0452 60.0453 65.4727C59.4625 65.1598 58.9695 64.6768 58.8977 63.9971C58.844 63.5321 59.0413 63.1117 59.3459 62.7627C59.4536 62.6465 59.5611 62.5302 59.6867 62.432C59.7314 62.3872 59.821 62.3245 59.875 62.2887L60.108 62.1457C60.2155 62.7181 60.3501 63.1921 60.6279 63.6393L60.7175 63.711C60.7356 63.7198 60.7444 63.7198 60.7534 63.7198C60.9776 63.7824 61.2107 63.836 61.4347 63.8898C61.5065 63.9076 61.5781 63.9166 61.6499 63.9345C61.8023 63.9613 61.9635 63.9793 62.125 63.9971C62.627 64.0597 63.138 64.0865 63.649 64.0955C65.0921 64.1133 66.5893 63.9345 67.9608 63.4604C69.9509 62.7717 71.672 61.7433 72.6134 59.7934C72.739 59.5341 72.8464 59.2568 72.9451 58.9887C73.2319 58.1569 73.4022 57.2625 73.465 56.3769C73.465 56.3591 73.465 56.3413 73.465 56.3233C73.465 56.3323 73.465 56.3323 73.4559 56.3413C73.2319 57.1641 72.7927 57.9064 72.1024 58.4162C70.7756 59.4088 69.1978 59.5073 67.6291 59.1944C67.2527 59.1227 66.876 59.0155 66.4996 58.917C66.0245 58.7918 65.5584 58.6577 65.0833 58.5235C64.662 58.4072 64.2406 58.3 63.8102 58.1925C63.4697 58.1121 63.1111 58.0316 62.7615 57.9868C62.2056 57.9154 61.614 57.9064 61.0582 57.9868C60.8162 58.0226 60.5382 58.0763 60.2783 58.1747L60.09 58.3714C60.0094 58.4966 59.9107 58.6577 59.8569 58.8008C59.7673 59.0423 59.6867 59.2926 59.6149 59.5431L59.5164 59.865L59.2922 59.6862C59.077 59.5431 58.844 59.3106 58.6915 59.1049C58.342 58.6219 58.2614 58.0674 58.5034 57.5218C58.7992 56.8689 59.4268 56.5112 60.1259 56.3145L60.1618 56.216C60.2155 56.064 60.3052 55.9029 60.3858 55.7778C60.4217 55.724 60.4576 55.6704 60.5025 55.6168C60.4754 55.581 60.4576 55.5363 60.4486 55.4915C60.4486 55.4827 60.4486 55.4647 60.4486 55.4557C60.4486 55.4201 60.4397 55.3753 60.4397 55.3306C60.4397 55.1964 60.4486 55.0711 60.4666 54.9371C60.5294 54.5525 60.7265 54.2125 61.0761 54.0337C61.3631 53.8816 61.6946 53.8192 62.0175 53.8906C62.1428 53.9174 62.3043 53.971 62.4118 54.0517L62.4836 54.1053C63.0124 53.8728 63.5862 53.7027 64.16 53.6581C64.6888 53.6223 65.2357 53.6133 65.7556 53.6759C65.9258 53.6939 66.141 53.7297 66.3113 53.7834L66.8313 53.9442C66.8672 53.9532 66.9031 53.9532 66.9388 53.9622L67.1721 53.9086C67.674 53.7833 68.4359 53.4882 68.8035 53.1125C69.2337 52.6743 69.4311 51.8783 69.4399 51.279C69.4399 51.0107 69.413 50.7424 69.3502 50.492C69.2606 50.17 69.0813 49.9017 68.7855 49.7407C68.669 49.6781 68.4987 49.6155 68.3641 49.6066L67.9608 49.5797C67.4498 49.7228 66.921 49.7765 66.3921 49.6692C65.6659 49.5261 65.0653 49.1236 64.8501 48.3992C64.671 47.7999 64.7426 47.3617 65.0653 46.8698C65.1461 47.2544 65.2536 47.4869 65.397 47.6568C65.5404 47.8268 65.8183 47.9162 66.0335 47.952C66.132 47.9699 66.2216 47.9788 66.3203 47.9699C66.7058 47.952 67.0912 47.7731 67.432 47.5942C67.8622 47.3527 68.2566 47.0755 68.678 46.8251C68.8932 46.6998 69.1262 46.5746 69.3593 46.4762C69.3145 46.4762 69.2696 46.4852 69.2249 46.4941C68.9738 46.5299 68.7049 46.5836 68.4628 46.6551L67.3513 46.9592L68.2207 46.2079C68.3822 46.0648 68.6062 45.9307 68.7945 45.8234C69.2427 45.5819 69.7357 45.412 70.2467 45.3672C70.5068 45.3404 70.7846 45.3404 71.0445 45.3672C71.0445 45.3672 71.0445 45.3672 71.0357 45.3672L70.4888 44.8217L71.2509 44.929C71.4031 44.9469 71.5914 45.0184 71.7348 45.0721C72.1114 45.2331 72.47 45.4656 72.7658 45.7429C72.9182 45.886 73.0526 46.038 73.1782 46.2079C73.4202 46.512 73.6264 46.843 73.8145 47.1828C73.8145 47.1917 73.8235 47.1917 73.8235 47.2007C73.8685 47.1113 73.9132 47.0129 73.9581 46.9234C74.1284 46.5746 74.2986 46.2258 74.4779 45.886C74.6394 45.5729 74.8096 45.2689 74.998 44.9737C75.1504 44.7322 75.3297 44.4729 75.5358 44.2761C75.8048 44.0257 76.1722 43.7931 76.486 43.6053C76.9162 43.3459 77.3645 43.0955 77.8217 42.863C78.4581 42.5321 79.1215 42.2101 79.7849 41.9239C80.251 41.7271 80.753 41.5214 81.2371 41.3962C81.497 41.3246 81.9005 41.2352 82.1246 41.432C82.3847 41.6645 82.1963 42.1296 82.0798 42.389C81.8737 42.8362 81.5867 43.2923 81.2909 43.6948C80.9323 44.1867 80.529 44.6696 80.1166 45.1257C79.5697 45.716 78.9871 46.2795 78.3506 46.7803C77.9204 47.1202 77.4541 47.4332 76.97 47.6926C76.5129 47.9341 76.0288 48.2113 75.5896 48.5154L75.5627 48.6496C75.5178 48.8463 75.4819 49.0521 75.455 49.2578C75.3834 49.696 75.3206 50.1432 75.2847 50.5904C75.2489 51.0197 75.222 51.6726 75.3475 52.084C75.6165 52.9247 76.1812 53.3181 76.8984 53.6223Z" fill="black"/>
<path fill-rule="evenodd" clip-rule="evenodd" d="M73.838 47.7938C73.838 47.7938 73.3002 46.6133 72.6008 45.9604C71.9017 45.2985 71.2295 45.2091 71.2295 45.2091C71.2295 45.2091 71.5522 45.5311 71.6506 45.6921C71.7493 45.853 71.7403 45.9067 71.7403 45.9067C71.7403 45.9067 71.3638 45.54 70.2702 45.6474C69.1676 45.7547 68.3967 46.4255 68.3967 46.4255C68.3967 46.4255 69.087 46.2376 69.5709 46.2287C70.055 46.2197 70.3061 46.5596 70.3061 46.5596C70.3061 46.5596 69.7951 46.4791 68.818 47.0694C67.8408 47.6597 66.9443 48.402 65.9941 48.2321C65.0529 48.0622 65.0619 47.5166 65.0619 47.5166C65.0619 47.5166 64.7302 49.0996 66.4513 49.4484C68.1815 49.7973 69.8489 48.3036 70.2881 47.9727C70.7363 47.6507 71.3729 47.4093 71.9735 47.4271C72.574 47.445 72.7801 47.6776 72.7801 47.6776C72.7801 47.6776 72.2066 47.454 71.3907 47.6865C70.5751 47.9191 70.3958 48.1695 70.0641 48.411C69.7324 48.6524 69.3828 48.9118 68.9883 49.0996C68.5938 49.2874 68.3877 49.3769 68.3877 49.3769C68.3877 49.3769 69.3288 49.4306 69.6068 50.4591C69.8848 51.4876 69.5709 52.7487 68.9973 53.3301C68.4324 53.9114 67.2403 54.1975 67.2403 54.1975C67.2403 54.1975 67.7064 54.5553 67.7423 55.0293C67.778 55.4945 67.4822 55.7896 67.4822 55.7896C67.4822 55.7896 67.7333 54.8684 67.3388 54.5195C66.9533 54.1707 66.6306 54.1797 66.1286 54.3228C65.6267 54.4658 65.0082 54.8326 65.0082 54.8326C65.0082 54.8326 65.0798 54.6447 65.3666 54.439C65.6535 54.2423 66.2452 54.0634 66.2452 54.0634C66.2452 54.0634 65.5639 53.8488 64.1833 53.9472C62.8029 54.0454 61.4941 54.9847 61.4941 54.9847C61.4941 54.9847 61.6734 54.7253 61.9153 54.5375C62.1573 54.3496 62.2739 54.305 62.2739 54.305C62.2739 54.305 61.8346 53.983 61.2071 54.305C60.5886 54.6269 60.7142 55.5123 60.7142 55.5123L61.0369 55.4138C61.0369 55.4138 60.741 55.7716 60.6155 55.9595C60.49 56.1474 60.4184 56.3441 60.4184 56.3441C60.4184 56.3441 61.4492 56.1116 62.5428 56.2278C63.6366 56.3441 64.2551 56.684 64.2551 56.684C64.2551 56.684 62.9642 56.3889 61.9243 56.3977C60.8844 56.4067 59.2439 56.5856 58.7598 57.6767C58.2668 58.7677 59.4501 59.5191 59.4501 59.5191C59.4501 59.5191 59.6204 58.9914 59.7012 58.7767C59.7818 58.562 59.9611 58.2849 59.9611 58.2849C59.9611 58.2849 59.719 58.4012 59.5307 58.5352C59.3426 58.6695 59.2888 58.7589 59.2888 58.7589C59.2888 58.7589 59.2261 58.5801 59.7997 58.1955C60.3734 57.8109 61.5567 57.632 62.8208 57.7929C64.0937 57.954 66.6128 58.7767 67.6974 59.0004C68.7821 59.2149 70.4854 59.376 71.9645 58.2669C73.4436 57.1668 73.3808 55.2172 73.3808 55.2172C73.3808 55.2172 73.1927 55.235 73.0402 55.3602C72.8788 55.4855 72.8519 55.6195 72.8519 55.6195C72.8519 55.6195 72.7713 55.3156 73.2823 55.0741C73.7931 54.8326 74.5193 55.396 74.5193 55.396C74.5193 55.396 74.3041 55.3244 74.098 55.2708C73.8828 55.2172 73.7574 55.253 73.7574 55.253C73.7574 55.253 73.8918 57.158 73.2015 59.1255C72.5202 61.0932 71.1667 62.6853 68.0559 63.7584C64.9454 64.8316 61.6644 64.2682 61.3864 64.1967C61.1085 64.1251 60.4003 63.982 60.0955 63.7764C59.7997 63.5797 59.8356 63.3828 59.8356 63.3828C59.8356 63.3828 59.9432 63.499 60.0866 63.5975C60.23 63.6959 60.4631 63.8032 60.4631 63.8032C60.4631 63.8032 60.1941 63.2487 60.1225 62.9892C60.0507 62.7299 60.006 62.569 60.006 62.569C60.006 62.569 59.0737 63.1771 59.1723 64.0089C59.2618 64.8406 60.1851 65.9407 63.9593 65.9229C67.7333 65.9049 70.1984 63.7674 70.9874 63.2843C71.7852 62.8015 72.8968 61.263 73.4526 60.3688C73.9995 59.4744 74.2325 58.9198 74.2325 58.9198C74.2325 58.9198 73.9724 59.8142 73.5601 60.5387C73.1568 61.263 72.2693 62.3811 72.2693 62.3811C72.2693 62.3811 74.8869 61.8535 76.4915 59.841C78.1052 57.8287 77.612 55.7538 77.2087 54.9488C76.8052 54.1439 76.4197 53.9204 76.097 53.7415C75.7744 53.5626 75.2812 53.5446 75.2812 53.5446C75.2812 53.5446 75.5682 53.4374 75.7834 53.4464C75.9984 53.4552 76.1688 53.5626 76.1688 53.5626C76.1688 53.5626 75.4517 53.2316 75.129 52.1942C74.8061 51.1567 75.3352 48.6256 75.3352 48.6256L74.7076 48.9923C74.7076 48.9923 75.0123 48.4825 76.877 47.4987C78.7415 46.506 80.4089 44.5383 81.1082 43.5813C81.7985 42.6244 82.1571 41.8284 81.9778 41.6763C81.7985 41.5243 81.1082 41.7121 79.9069 42.213C78.7146 42.7138 76.4109 43.8854 75.7385 44.5115C75.0482 45.1107 74.1697 47.1946 73.838 47.7938Z" fill="#B99D85"/>
<path fill-rule="evenodd" clip-rule="evenodd" d="M73.8262 47.7622C73.7546 47.6012 73.2436 46.5637 72.607 45.9555L72.598 45.9466C71.8989 45.2848 71.2264 45.1953 71.2264 45.1953C71.2264 45.1953 71.5493 45.5173 71.6478 45.6783C71.7464 45.8393 71.7374 45.8929 71.7374 45.8929C71.7374 45.8929 71.361 45.5262 70.2674 45.6336C69.9716 45.6604 69.7026 45.732 69.4694 45.8124C69.3797 45.8393 69.2991 45.875 69.2275 45.9108C68.9046 46.0539 68.6537 46.2149 68.5192 46.3133C68.4385 46.3759 68.3938 46.4117 68.3938 46.4117C68.3938 46.4117 68.4564 46.3938 68.5551 46.367C68.7524 46.3222 69.102 46.2417 69.4068 46.2238C69.4606 46.2238 69.5143 46.2149 69.559 46.2149C69.613 46.2149 69.6577 46.2149 69.7026 46.2238C70.0881 46.2775 70.2942 46.5458 70.2942 46.5458C70.2942 46.5458 70.1597 46.5279 69.8998 46.5816C69.828 46.5995 69.7383 46.6174 69.6399 46.6531C69.4515 46.7157 69.2275 46.8141 68.9586 46.9572C68.9046 46.9841 68.8509 47.0198 68.7971 47.0556C68.6357 47.154 68.4835 47.2524 68.3311 47.3508C68.2593 47.3955 68.1786 47.4491 68.1068 47.4939C68.089 47.5117 68.0621 47.5207 68.0441 47.5386C68.0172 47.5565 67.9903 47.5743 67.9634 47.5833C67.8916 47.628 67.811 47.6727 67.7394 47.7175C67.6855 47.7443 67.6408 47.7801 67.587 47.8069C67.5062 47.8516 67.4165 47.8963 67.3359 47.9411C67.2553 47.9858 67.1747 48.0215 67.085 48.0573C66.7084 48.2183 66.341 48.2988 65.9643 48.2273C65.0232 48.0573 65.032 47.5117 65.032 47.5117C65.032 47.5117 64.7005 49.0948 66.4216 49.4436C66.6994 49.4973 66.9773 49.5062 67.2463 49.4794C67.3449 49.4704 67.4434 49.4525 67.5421 49.4347C68.1518 49.3184 68.7253 49.0322 69.1826 48.746C69.2004 48.737 69.2185 48.7192 69.2363 48.7102C69.3172 48.6565 69.3978 48.6029 69.4784 48.5492C69.7923 48.3346 70.0432 48.1289 70.1956 48.0126C70.2225 47.9947 70.2405 47.9768 70.2584 47.9679C70.7066 47.6459 71.3431 47.4044 71.9436 47.4223C72.383 47.4312 72.607 47.5654 72.7057 47.628C72.8669 47.6638 72.9746 47.6817 72.9746 47.6817C72.9746 47.6817 72.6967 47.3865 72.4456 47.1987C72.1947 47.0109 71.6746 46.841 71.6746 46.841C71.6746 46.841 72.3559 46.8946 72.84 47.1361C73.342 47.3776 73.8262 47.7622 73.8262 47.7622Z" fill="#525251"/>
<path fill-rule="evenodd" clip-rule="evenodd" d="M70.5308 49.7223C70.5308 49.7223 70.8893 48.9621 72.225 48.8726C73.5517 48.7832 73.7847 49.1588 74.0536 49.615C74.3138 50.0801 74.3316 50.6882 74.242 50.9923C74.1523 51.3053 73.9552 51.4127 73.9552 51.4127C73.9552 51.4127 73.0497 50.2679 72.2966 49.9727C71.5347 49.6865 71.1852 49.615 70.5308 49.7223Z" fill="#9E775C"/>
<path fill-rule="evenodd" clip-rule="evenodd" d="M67.3468 54.5358C67.338 54.5268 67.3289 54.5178 67.3199 54.5088C67.1049 54.3121 66.9076 54.2317 66.6924 54.2227C66.7552 54.3479 66.9256 54.5714 67.3468 54.5358Z" fill="#9E775C"/>
<path fill-rule="evenodd" clip-rule="evenodd" d="M69.4338 48.8359C69.2902 48.9254 69.138 49.0148 68.9765 49.0953C68.582 49.2831 68.3759 49.3726 68.3759 49.3726C68.3759 49.3726 69.3173 49.4262 69.595 50.4548C69.873 51.4833 69.5591 52.7444 68.9855 53.3257C68.4208 53.9071 67.2285 54.1933 67.2285 54.1933C67.2285 54.1933 67.3898 54.3185 67.5243 54.5152C68.116 54.3721 68.8869 53.8087 69.3261 53.3257C69.8012 52.807 69.9805 51.3134 69.864 50.3027C69.7924 49.6498 69.5772 49.1311 69.4338 48.8359Z" fill="#9E775C"/>
<path fill-rule="evenodd" clip-rule="evenodd" d="M75.0181 51.694C74.9106 50.5134 75.314 48.6084 75.314 48.6084L74.6864 48.9751C74.6864 48.9751 74.9913 48.4653 76.856 47.4815C78.7205 46.4888 80.3879 44.5211 81.087 43.5641C81.7773 42.6072 82.1359 41.8112 81.9566 41.6591C81.9119 41.6234 81.8491 41.6055 81.7414 41.6055C81.6608 41.9543 81.5174 42.3478 81.2306 42.5982C80.63 43.1259 79.1419 43.9219 79.1419 43.9219C79.1419 43.9219 75.547 46.9985 75.2871 47.1774C75.0272 47.3652 74.6864 47.6693 74.4534 48.3848C74.2203 49.1003 74.5611 50.1289 74.5611 50.1289L74.6686 49.4044C74.6596 49.3865 74.6864 50.7013 75.0181 51.694ZM73.306 58.7239C73.2701 58.8489 73.2252 58.9742 73.1805 59.0994C72.4992 61.0671 71.1455 62.659 68.0349 63.7323C67.6854 63.8485 67.3356 63.956 66.9861 64.0364C66.5288 64.6089 66.0717 65.1991 65.6504 65.7446C68.4563 65.2349 70.303 63.6697 70.9662 63.2583C71.7642 62.7753 72.8756 61.237 73.4316 60.3426C73.9783 59.4482 74.2113 58.8937 74.2113 58.8937C74.2113 58.8937 73.9514 59.7881 73.5391 60.5125C73.1356 61.237 72.2481 62.3549 72.2481 62.3549C72.2481 62.3549 74.8657 61.8272 76.4703 59.8149C78.084 57.8027 77.591 55.7277 77.1875 54.9228C76.7842 54.1178 76.3987 53.8941 76.076 53.7152C75.7534 53.5364 75.2602 53.5186 75.2602 53.5186C75.2602 53.5186 75.547 53.4113 75.7622 53.4201C75.9774 53.4291 76.1476 53.5364 76.1476 53.5364C76.1476 53.5364 75.8699 53.4113 75.5829 53.0624C75.4036 53.0266 75.1796 52.9819 74.8838 52.9461C74.0769 52.8388 73.6825 53.0087 73.6825 53.0087C73.6825 53.0087 73.3957 51.7119 72.8309 51.3989C72.2662 51.0858 71.5849 51.372 71.5849 51.372C71.5849 51.372 71.7014 51.0769 71.9613 50.9964C72.2212 50.9159 72.6875 51.0053 72.6875 51.0053C72.6875 51.0053 72.2393 50.6655 71.7461 50.7818C71.262 50.898 71.0201 50.8801 70.6794 52.3111C70.3387 53.7421 71.0827 54.4756 71.262 54.6096C71.4413 54.7439 70.9034 55.1731 71.3338 55.1553C71.7642 55.1373 72.8398 54.2877 73.4045 53.8495C73.9604 53.4023 74.5699 53.134 75.8159 54.4308C77.0531 55.7187 76.4884 57.7668 75.8877 58.7239C75.2871 59.6807 73.5122 60.915 73.5122 60.915C73.5122 60.915 73.8259 60.3516 74.032 59.8149C74.2382 59.2783 74.3278 58.223 74.3278 58.223C74.3278 58.223 73.8977 58.4197 73.306 58.7239Z" fill="#9E775C"/>
<path fill-rule="evenodd" clip-rule="evenodd" d="M67.467 54.4368C67.5836 54.5889 67.7091 54.7856 67.7271 55.0181C67.7628 55.4833 67.467 55.7784 67.467 55.7784C67.467 55.7784 67.7181 54.8572 67.3236 54.5084C66.9382 54.1595 66.6155 54.1685 66.1135 54.3116C65.6115 54.4546 64.9928 54.8214 64.9928 54.8214C64.9928 54.8214 65.0646 54.6335 65.3514 54.4278C65.6384 54.2311 66.23 54.0522 66.23 54.0522C66.23 54.0522 65.5488 53.8375 64.1682 53.936C62.7876 54.0344 61.4788 54.9734 61.4788 54.9734C61.4788 54.9734 61.6581 54.7141 61.9001 54.5262C62.1422 54.3384 62.2587 54.2937 62.2587 54.2937C62.2587 54.2937 61.8195 53.9718 61.192 54.2937C60.5735 54.6157 60.699 55.5011 60.699 55.5011L61.0217 55.4028C61.0217 55.4028 60.7259 55.7604 60.6004 55.9483C60.4748 56.1362 60.4032 56.3328 60.4032 56.3328C60.4032 56.3328 61.4341 56.1003 62.5277 56.2166C63.6213 56.3328 64.24 56.6728 64.24 56.6728C64.24 56.6728 62.949 56.3777 61.9092 56.3865C60.8693 56.3955 59.2288 56.5744 58.7447 57.6654C58.2517 58.7567 59.435 59.5079 59.435 59.5079C59.435 59.5079 59.6052 58.9802 59.686 58.7655C59.7667 58.551 59.946 58.2737 59.946 58.2737C59.946 58.2737 59.7039 58.39 59.5156 58.524C59.3275 58.6583 59.2735 58.7477 59.2735 58.7477C59.2735 58.7477 59.2109 58.5688 59.7845 58.1843C60.3583 57.7997 61.5415 57.6208 62.8056 57.7817C64.0785 57.9428 66.5974 58.7655 67.6822 58.9892C68.767 59.2039 70.4701 59.3648 71.9494 58.2557C73.4284 57.1558 73.3656 55.2059 73.3656 55.2059C73.3656 55.2059 73.1773 55.224 73.0251 55.349C72.8637 55.4743 72.8368 55.6085 72.8368 55.6085C72.8368 55.6085 72.7562 55.3044 73.267 55.0629C73.778 54.8214 74.5042 55.3848 74.5042 55.3848C74.5042 55.3848 74.289 55.3134 74.0828 55.2596C73.8676 55.2059 73.7423 55.2418 73.7423 55.2418C73.7423 55.2418 73.8766 57.1468 73.1864 59.1145C72.5051 61.082 71.1516 62.6741 68.0408 63.7473C64.9301 64.8204 61.6492 64.257 61.3713 64.1855C61.0933 64.1139 60.3852 63.9708 60.0803 63.7651C59.7845 63.5685 59.8204 63.3716 59.8204 63.3716C59.8204 63.3716 59.9281 63.4878 60.0715 63.5863C60.2149 63.6847 60.4479 63.792 60.4479 63.792C60.4479 63.792 60.179 63.2375 60.1072 62.9782C60.0356 62.7187 59.9907 62.5578 59.9907 62.5578C59.9907 62.5578 59.0585 63.1659 59.157 63.9977C59.2466 64.8294 60.17 65.9295 63.9441 65.9117C67.7181 65.8937 70.1833 63.7561 70.9723 63.2733C71.6714 62.8439 72.6216 61.6008 73.2132 60.6974C73.4822 60.2414 73.778 59.7494 73.9932 59.3558C74.1456 59.0607 74.2084 58.8998 74.2084 58.8998L74.1993 58.9266C74.5938 57.9964 75.2033 55.8947 74.5042 54.9108C73.6974 53.7749 72.532 55.1969 71.8776 55.3312C71.2232 55.4653 70.0758 55.7426 68.4981 54.9018C68.1932 54.7229 67.8346 54.5711 67.467 54.4368Z" fill="#F2E2CF"/>
<path fill-rule="evenodd" clip-rule="evenodd" d="M59.3942 63.1425C59.2328 63.375 59.1163 63.6613 59.1522 63.9832C59.2418 64.815 60.1651 65.9151 63.9391 65.8971C67.7133 65.8793 70.1785 63.7417 70.9672 63.2587C71.3976 62.9994 71.9174 62.4269 72.4016 61.8189C72.1595 61.9977 71.8817 62.2034 71.5769 62.4181C69.8377 63.6613 69.6137 63.6791 68.6994 64.1353C67.7849 64.5913 63.2759 65.8166 60.9988 64.9671C59.7079 64.4662 59.4032 63.7059 59.3942 63.1425ZM74.2663 55.2988C74.2035 55.281 74.1407 55.263 74.0689 55.2452C73.8538 55.1915 73.7284 55.2273 73.7284 55.2273C73.7284 55.2273 73.8449 56.8997 73.298 58.7243C73.4236 58.456 73.5401 58.1428 73.6119 57.8209C73.809 56.9265 73.9703 55.6207 74.087 55.415C74.1317 55.3436 74.1945 55.3078 74.2663 55.2988ZM72.8229 55.5045C72.8408 55.3972 72.9126 55.2093 73.2621 55.0485C73.6476 54.8606 74.1586 55.1467 74.3828 55.29C74.4725 55.29 74.5441 55.3168 74.5441 55.3168C74.5441 55.3168 73.9883 54.5386 73.2174 54.8696C72.4465 55.2005 72.4375 55.8712 72.4375 55.8712C72.4375 55.8712 72.4822 55.755 72.6974 55.5761C72.7511 55.5403 72.787 55.5225 72.8229 55.5045ZM58.6323 58.3487C58.7308 59.0462 59.4301 59.4934 59.4301 59.4934C59.4301 59.4934 59.6004 58.9658 59.681 58.7511C59.7618 58.5364 59.9411 58.2593 59.9411 58.2593C59.9411 58.2593 59.6991 58.3755 59.5107 58.5096C59.3224 58.6439 59.2687 58.7333 59.2687 58.7333C59.2687 58.7333 59.2059 58.5544 59.7797 58.1698C60.3535 57.7853 61.5367 57.6064 62.8008 57.7673C64.0737 57.9283 66.5926 58.7511 67.6774 58.9748C68.762 59.1893 70.4652 59.3504 71.9445 58.2413C73.4236 57.1412 73.3608 55.1915 73.3608 55.1915C73.3608 55.1915 73.1725 55.2093 73.0201 55.3346C72.9485 55.3882 72.9126 55.4418 72.8857 55.4867C73.0022 55.4508 73.074 55.5045 73.074 55.5045C73.074 55.5045 73.1637 55.6119 73.0919 55.8622C73.0201 56.1217 72.6077 57.1234 71.9714 57.66C71.3439 58.1967 69.8018 59.0821 67.8118 58.5186C65.8307 57.9552 62.505 56.9087 60.7479 57.3111C59.6991 57.5438 59.0178 58.0088 58.6323 58.3487ZM60.8913 55.5583C60.7927 55.6745 60.6671 55.8354 60.5955 55.9429C60.47 56.1305 60.3982 56.3274 60.3982 56.3274C60.3982 56.3274 61.4292 56.0947 62.5228 56.2112C63.0966 56.2736 63.5358 56.3901 63.8226 56.4973C64.3695 56.6046 64.7371 56.712 64.7371 56.712C64.7371 56.712 63.8944 56.2916 62.7649 55.9158C61.8594 55.6119 61.1512 55.5671 60.8913 55.5583ZM61.5277 54.1719C61.4202 54.1899 61.3127 54.2345 61.1871 54.2881C60.5686 54.6101 60.694 55.4957 60.694 55.4957L60.9092 55.433L61.2587 55.0841C61.2587 55.0841 61.1153 54.9768 61.205 54.6639C61.2499 54.5028 61.3933 54.3239 61.5277 54.1719ZM64.8624 55.6029C64.8624 55.6029 65.5437 54.6013 66.3686 54.5745C67.1933 54.5476 67.3188 55.1915 67.2829 55.5135C67.2382 55.8354 66.9781 56.0679 66.9781 56.0679C66.9781 56.0679 65.3107 56.3989 64.8624 55.6029Z" fill="#EDC9A2"/>
<path fill-rule="evenodd" clip-rule="evenodd" d="M65.0605 55.5418C65.0605 55.5418 65.5447 54.9157 66.2618 54.8175C66.979 54.71 67.0687 55.3093 67.0955 55.4882C67.1224 55.6761 66.8713 55.9264 66.8713 55.9264V55.5954C66.8713 55.5954 66.5127 55.8013 66.0826 55.7207C65.6612 55.6403 65.4909 55.3897 65.4909 55.3897C65.4909 55.3897 65.222 55.4346 65.0605 55.5418Z" fill="black"/>
<path fill-rule="evenodd" clip-rule="evenodd" d="M70.6851 49.4658C70.6851 49.4658 71.3573 48.6161 72.5765 48.6251C73.7956 48.634 74.1095 49.9577 74.0916 50.2797C74.0736 50.6016 73.9033 51.2009 73.9033 51.2009C73.9033 51.2009 73.6703 50.5122 72.6392 49.7967C71.6084 49.0902 70.8375 49.4479 70.6851 49.4658Z" fill="black"/>
<path fill-rule="evenodd" clip-rule="evenodd" d="M74.585 48.0862C74.585 48.0862 74.9524 47.0845 75.4724 46.369C75.9922 45.6446 76.6019 44.8843 77.9556 44.1599C79.3092 43.4355 80.8422 42.9883 80.8422 42.9883C80.8422 42.9883 80.7345 43.194 80.5283 43.2745C80.3131 43.355 80.2325 43.4444 80.2325 43.4444C80.2325 43.4444 79.4078 44.6071 78.8072 45.1437C78.2065 45.6803 77.077 46.6284 76.3061 47.0935C75.553 47.5406 74.585 48.0862 74.585 48.0862Z" fill="black"/>
<path fill-rule="evenodd" clip-rule="evenodd" d="M79.7798 43.625C79.2062 43.8486 78.6324 44.099 78.0855 44.3852C77.5388 44.6714 77.0366 45.0202 76.5884 45.4495C76.2479 45.7804 75.9699 46.1382 75.6922 46.5228C75.6294 46.6122 75.5666 46.7106 75.5038 46.8C75.3693 47.0147 75.2439 47.2472 75.1362 47.4798C75.486 47.2741 75.8355 47.0773 76.1851 46.8626C76.5974 46.6122 77.0009 46.3081 77.3864 46.004C77.8166 45.6642 78.2379 45.3064 78.6415 44.9487C78.8386 44.7698 79.0269 44.5641 79.1972 44.3584C79.3943 44.1259 79.5917 43.8754 79.7798 43.625C79.7798 43.625 79.771 43.6339 79.7798 43.625Z" fill="#F6C4B1"/>
<path fill-rule="evenodd" clip-rule="evenodd" d="M72.0219 51.2978C72.766 51.2978 73.3666 52.0669 73.3666 53.0239C73.3666 53.9719 72.766 54.75 72.0219 54.75C71.2779 54.75 70.6772 53.9809 70.6772 53.0239C70.6772 52.8808 70.6951 52.7377 70.722 52.6036C70.722 52.6036 70.7938 51.7092 71.0627 51.2173C71.3316 50.7254 71.7618 50.7343 71.8785 50.7164C71.986 50.7075 72.2369 50.7343 72.4162 50.8506C72.5867 50.9669 72.6045 51.0742 72.6045 51.0742C72.6045 51.0742 72.3356 50.8059 71.9142 50.8595C71.4841 50.9132 71.2867 51.1457 71.1971 51.3783C71.1345 51.5303 71.0986 51.7002 71.0806 51.7986C71.3138 51.4945 71.6543 51.2978 72.0219 51.2978Z" fill="black"/>
<path fill-rule="evenodd" clip-rule="evenodd" d="M72.0247 51.4844C72.6611 51.4844 73.1811 52.173 73.1811 53.0227C73.1811 53.8723 72.6611 54.561 72.0247 54.561C71.3882 54.561 70.8682 53.8723 70.8682 53.0227C70.8682 52.173 71.3882 51.4844 72.0247 51.4844Z" fill="white"/>
<path fill-rule="evenodd" clip-rule="evenodd" d="M72.0607 51.9414C72.4283 51.9414 72.7241 52.3081 72.7241 52.7642C72.7241 53.2204 72.4283 53.587 72.0607 53.587C71.6933 53.587 71.3975 53.2204 71.3975 52.7642C71.3975 52.3171 71.6933 51.9414 72.0607 51.9414Z" fill="black"/>
<path fill-rule="evenodd" clip-rule="evenodd" d="M72.0768 52.2383C72.1845 52.2383 72.2651 52.3456 72.2651 52.4708C72.2651 52.596 72.1845 52.7033 72.0768 52.7033C71.9693 52.7033 71.8887 52.596 71.8887 52.4708C71.8887 52.3367 71.9783 52.2383 72.0768 52.2383Z" fill="white"/>
<path fill-rule="evenodd" clip-rule="evenodd" d="M71.6109 55.2417C71.6109 55.2417 71.5213 55.045 71.9874 54.3383C72.4534 53.6408 73.368 53.3099 73.7265 53.2025C74.0851 53.1042 74.4616 53.1042 74.605 53.1757C74.7484 53.2383 74.7484 53.8287 73.9415 54.1774C73.1349 54.5262 72.7852 54.6961 72.4893 54.8662C72.1845 55.036 71.7453 55.358 71.6109 55.2417Z" fill="#B99D85"/>
<path fill-rule="evenodd" clip-rule="evenodd" d="M71.627 55.0874C71.6538 54.9533 71.7523 54.7206 71.9944 54.3541C72.4606 53.6564 73.375 53.3254 73.7335 53.2182C74.0921 53.1198 74.4686 53.1198 74.612 53.1913C74.6838 53.2271 74.7197 53.3792 74.6479 53.5669C74.128 53.3792 73.7604 53.5849 73.4109 53.8621C72.9446 54.2288 72.1378 54.8639 71.627 55.0874Z" fill="#9E775C"/>
<path fill-rule="evenodd" clip-rule="evenodd" d="M71.604 55.1222C71.604 55.1222 71.6758 54.2458 72.6441 53.5839C73.6211 52.9221 74.4368 53.1457 74.4368 53.1457C74.4368 53.1457 72.6441 53.1457 71.604 55.1222Z" fill="black"/>
<path fill-rule="evenodd" clip-rule="evenodd" d="M73.5039 53.9941C73.5039 53.9941 73.5486 53.6453 74.0149 53.4754C74.481 53.3144 74.6781 53.4218 74.6781 53.4218C74.6781 53.4218 73.8803 53.5917 73.5039 53.9941Z" fill="black"/>
<path fill-rule="evenodd" clip-rule="evenodd" d="M73.9028 54.0724C73.9028 54.0724 73.9656 53.7951 74.4407 53.6789C74.9158 53.5626 75.0055 53.7237 75.0055 53.7237C75.0055 53.7237 74.3152 53.7951 73.9028 54.0724Z" fill="black"/>
<path fill-rule="evenodd" clip-rule="evenodd" d="M74.8223 54.0738C74.8223 54.0738 74.9925 53.9128 75.1628 53.9754C75.3243 54.038 75.369 54.1633 75.369 54.1633C75.369 54.1633 75.0104 54.0468 74.8223 54.0738Z" fill="black"/>
<path fill-rule="evenodd" clip-rule="evenodd" d="M67.2853 50.0774C67.2853 50.0774 67.33 49.5855 68.0203 49.4424C68.7106 49.2992 69.1141 49.7375 69.2575 49.8985C69.4009 50.0595 69.5084 50.3457 69.5353 50.4888C69.5621 50.6408 69.5892 50.7392 69.5892 50.7392C69.5892 50.7392 69.3919 50.1757 68.621 50.1757C67.85 50.1757 67.3749 51.0701 67.2943 51.2579C67.2135 51.4458 67.0342 51.8482 67.0342 51.8482C67.0342 51.8482 66.9088 51.0433 67.2853 50.0774Z" fill="black"/>
<path fill-rule="evenodd" clip-rule="evenodd" d="M62.7104 58.5075C62.7104 58.5075 62.6926 58.749 62.6029 59.3124C62.5133 59.8759 62.4058 60.3677 62.5223 60.7971C62.6388 61.2263 62.2175 61.3605 62.0472 61.11C61.8767 60.8597 61.9754 60.2872 62.0113 60.0099C62.056 59.7238 62.2443 58.9457 62.2981 58.8116C62.352 58.6773 62.4686 58.2481 62.7104 58.5075Z" fill="white"/>
<path fill-rule="evenodd" clip-rule="evenodd" d="M62.4282 54.9062L62.6075 58.0813L64.992 55.9617L62.8674 58.3318L66.0497 58.5106L62.8674 58.6895L64.992 61.0596L62.6075 58.9398L62.4282 62.1239L62.2579 58.9398L59.8733 61.0596L61.9978 58.6895L58.8154 58.5106L61.9978 58.3318L59.8733 55.9617L62.2579 58.0813L62.4282 54.9062Z" fill="white"/>
<path fill-rule="evenodd" clip-rule="evenodd" d="M72.5805 55.5781L72.7151 57.9662L74.499 56.3743L72.9032 58.1541L75.2968 58.2881L72.9032 58.4224L74.499 60.2022L72.7151 58.6101L72.5805 60.9981L72.4461 58.6101L70.662 60.2022L72.2578 58.4224L69.8643 58.2881L72.2578 58.1541L70.662 56.3743L72.4461 57.9662L72.5805 55.5781Z" fill="white"/>
<path fill-rule="evenodd" clip-rule="evenodd" d="M72.3058 75.49L72.3148 75.6957C74.1795 75.6241 75.9634 75.2217 77.6039 74.551C77.7293 74.4972 77.8548 74.4436 77.9804 74.3899C76.7702 73.7729 75.7213 72.7174 75.3537 70.9644C74.296 65.9024 75.8647 62.9419 76.313 60.8401C76.3489 60.6793 76.3757 60.5004 76.3936 60.3125C75.6945 61.0726 74.8068 61.6541 73.8656 62.0745C73.5071 62.2354 73.1394 62.3784 72.763 62.4859C72.6106 62.5305 72.4582 62.5753 72.3058 62.6021L72.0368 62.6557C71.7232 62.9957 71.4005 63.2908 71.1137 63.4697C70.9881 63.5411 70.8716 63.6306 70.7551 63.711C70.6115 63.8095 70.4681 63.9079 70.3247 64.0063C70.997 64.3819 71.8038 65.0258 72.1624 66.0544C72.1714 66.0813 72.1804 66.1081 72.1892 66.1349C72.1892 66.1439 72.1983 66.1527 72.1983 66.1617C72.2073 66.1795 72.2073 66.1885 72.2161 66.2063C72.2161 66.2153 72.2251 66.2333 72.2251 66.2421C72.2251 66.2511 72.2342 66.2689 72.2342 66.2779C72.2342 66.2958 72.2432 66.3048 72.252 66.3228C72.252 66.3316 72.261 66.3496 72.261 66.3584C72.261 66.3674 72.2701 66.3764 72.2701 66.3852C72.2969 66.4658 72.3238 66.5553 72.3417 66.6447V66.6535C72.3417 66.6535 72.3417 66.6535 72.3417 66.6625C72.3507 66.6893 72.3597 66.7161 72.3597 66.743V66.752C72.3685 66.77 72.3685 66.7968 72.3775 66.8146L72.3866 66.8594L72.3954 66.8862C72.3954 66.904 72.4044 66.9218 72.4044 66.9398L72.4225 67.0203L72.4313 67.0651L72.4403 67.1097V67.1187L72.4493 67.1723V67.1813V67.2082C72.4493 67.217 72.4493 67.226 72.4493 67.235V67.2528V67.2618L72.4582 67.3154V67.3244C72.4672 67.3512 72.4672 67.369 72.4762 67.3958V67.4048V67.4139V67.4407C72.485 67.4853 72.4941 67.5211 72.5031 67.5659C72.5031 67.5747 72.5031 67.5747 72.5031 67.5837L72.5121 67.6195L72.5209 67.6822L72.53 67.709L72.539 67.7536L72.5478 67.8074V67.8162L72.5568 67.8879V67.8969L72.5659 67.9773L72.5747 68.0577V68.0757V68.0845L72.5837 68.1562V68.192L72.5927 68.2634V68.2814L72.6018 68.3351L72.6106 68.3887L72.6196 68.4691C72.6286 68.5229 72.6286 68.5676 72.6375 68.6212V68.6302V68.657V68.6928C72.6375 68.7286 72.6465 68.7733 72.6465 68.8091C72.6465 68.8181 72.6465 68.8359 72.6465 68.8449V68.8627L72.6555 68.9343C72.8886 71.2417 72.2251 73.2272 72.3058 75.49Z" fill="#9E775C"/>
<defs>
<filter id="filter0_d" x="0" y="0" width="144.346" height="144.346" filterUnits="userSpaceOnUse" color-interpolation-filters="sRGB">
<feFlood flood-opacity="0" result="BackgroundImageFix"/>
<feColorMatrix in="SourceAlpha" type="matrix" values="0 0 0 0 0 0 0 0 0 0 0 0 0 0 0 0 0 0 127 0"/>
<feOffset dy="4"/>
<feGaussianBlur stdDeviation="2"/>
<feColorMatrix type="matrix" values="0 0 0 0 0.0269271 0 0 0 0 0.0650979 0 0 0 0 0.195833 0 0 0 0.09 0"/>
<feBlend mode="normal" in2="BackgroundImageFix" result="effect1_dropShadow"/>
<feBlend mode="normal" in="SourceGraphic" in2="effect1_dropShadow" result="shape"/>
</filter>
</defs>
</svg>
