<svg width="58" height="58" viewBox="0 0 58 58" fill="none" xmlns="http://www.w3.org/2000/svg">
<rect x="28.9912" y="1.41421" width="39" height="39" rx="9" transform="rotate(45 28.9912 1.41421)" fill="#DBD9D2" stroke="#313130" stroke-width="2"/>
<path d="M38.6017 29.0839C38.6017 23.6113 34.1533 19.1797 28.6751 19.1797C23.1913 19.1797 18.7485 23.6114 18.7485 29.0839C18.7485 34.5566 23.1969 38.9883 28.6751 38.9883C34.159 38.9883 38.6017 34.551 38.6017 29.0839Z" fill="#F4E41C" stroke="black" stroke-width="0.5"/>
<path fill-rule="evenodd" clip-rule="evenodd" d="M31.8833 19.9692C32.6051 20.224 33.2879 20.5563 33.9208 20.9662C33.7099 21.1213 33.4934 21.2598 33.2657 21.3817C32.9825 21.5312 32.6828 21.7029 32.4107 21.8912L32.3941 21.9743C32.3664 22.0962 32.3441 22.2236 32.3275 22.351C32.283 22.6224 32.2441 22.8993 32.222 23.1763C32.1998 23.4421 32.1832 23.8465 32.2608 24.1013C32.4219 24.6164 32.7771 24.8657 33.2158 25.0485L32.9049 25.0429C32.9881 25.0927 33.0659 25.1481 33.138 25.2201C33.3046 25.3808 33.4323 25.5802 33.5322 25.7796C33.7265 26.1673 33.8097 26.6602 33.7931 27.0922C33.782 27.4911 33.6932 27.8677 33.5377 28.2166C33.6766 28.5102 33.8097 28.8093 33.943 29.1084C34.0985 29.463 34.265 29.834 34.3983 30.2051C34.5426 30.615 34.6647 31.0304 34.8091 31.4403C35.2255 32.6311 35.7917 33.7555 37.224 33.5783C35.825 36.2149 33.2435 38.1258 30.1845 38.6077V38.5965C30.1679 38.098 30.1956 37.6051 30.2511 37.1122C30.3011 36.6801 30.3677 36.2535 30.4176 35.8216C30.5398 34.7249 30.4787 33.8553 30.1068 32.8084C29.9458 32.3487 29.6127 31.9886 29.2074 31.7338C29.1519 31.7006 29.0687 31.6508 28.9687 31.6009C28.6967 31.7782 28.4247 31.9388 28.1359 32.0828C27.2143 32.5481 26.2316 32.8029 25.1936 32.8084C24.444 32.8139 23.4559 32.753 22.7786 32.3985C22.4176 32.2047 22.1124 31.9056 22.0679 31.4846C22.0346 31.1965 22.1567 30.9363 22.3455 30.7202C22.4122 30.6482 22.4788 30.5762 22.5565 30.5153C22.5898 30.4876 22.6397 30.4488 22.673 30.4267L22.7119 30.4045C22.7008 30.2162 22.7175 30.0167 22.8451 29.9171L22.8563 29.9115C22.6898 29.8617 22.5343 29.762 22.4399 29.6291C22.3066 29.4352 22.3233 29.1361 22.3677 28.8703L22.3066 28.8205C22.1735 28.7317 22.029 28.5877 21.9346 28.4604C21.7181 28.1612 21.6682 27.8179 21.8181 27.4799C22.0013 27.0756 22.3899 26.854 22.8229 26.7322L22.8396 26.6879L22.673 26.4996L22.8507 26.6602C22.884 26.5716 22.934 26.4775 22.984 26.3999C23.0061 26.3667 23.0283 26.3335 23.0562 26.3003C23.0395 26.2781 23.0283 26.2503 23.0228 26.2227C23.0228 26.2171 23.0228 26.2061 23.0228 26.2005C23.0228 26.1783 23.0173 26.1507 23.0173 26.1229C23.0173 26.0399 23.0228 25.9623 23.0339 25.8792C23.0728 25.641 23.1949 25.4306 23.417 25.3143C23.5946 25.2201 23.8 25.1813 23.9944 25.2257C24.0721 25.2423 24.172 25.2755 24.2387 25.3254L24.283 25.3586C24.6106 25.2146 24.9659 25.1038 25.3212 25.0817C25.6488 25.0595 25.9875 25.0539 26.3094 25.0927C26.4148 25.1038 26.5481 25.1259 26.6537 25.1592L26.9313 25.2478C26.9257 25.1647 26.9201 25.0817 26.9145 24.9985C26.9035 24.7327 26.8979 24.4447 26.9257 24.1733C26.959 23.9129 26.9923 23.6471 27.0311 23.3867C27.07 23.1596 27.1199 22.8938 27.1921 22.6445C27.0311 22.6556 26.8646 22.6445 26.698 22.6168C26.2484 22.5282 25.8819 22.279 25.7432 21.8303C25.6321 21.4592 25.6766 21.1878 25.8764 20.8832C25.9264 21.1213 25.9929 21.2653 26.0819 21.3706C26.1707 21.4758 26.3427 21.5312 26.476 21.5534C26.5315 21.5644 26.5926 21.57 26.6537 21.5644C26.7814 21.5589 26.909 21.5257 27.0255 21.4814L26.9035 21.3484C26.5703 20.9829 26.2428 20.6062 25.9264 20.2185C25.8376 20.1132 25.7542 20.0025 25.6766 19.8917C26.4427 19.6424 27.2532 19.4874 28.097 19.4375C28.2469 19.648 28.3858 19.8585 28.519 20.08C28.7022 20.0135 28.8909 19.9692 29.0853 19.9471C29.2463 19.9305 29.4184 19.9305 29.5794 19.9471C29.5794 19.9471 29.5794 19.9471 29.5794 19.9415L29.2407 19.6037L29.7181 19.6701C29.8125 19.6812 29.9291 19.7255 30.018 19.7588C30.2567 19.8585 30.4677 20.0025 30.6564 20.1742C30.7507 20.2628 30.8341 20.357 30.9118 20.4622C31.0617 20.6505 31.1894 20.8555 31.3059 21.0659C31.3059 21.0715 31.3115 21.0715 31.3115 21.077C31.3392 21.0216 31.367 20.9607 31.3947 20.9053C31.5003 20.6893 31.6058 20.4733 31.7168 20.2628C31.7723 20.1686 31.8278 20.0689 31.8833 19.9692Z" fill="#F6BC12"/>
<path fill-rule="evenodd" clip-rule="evenodd" d="M37.276 33.4998C35.6992 36.5463 32.5404 38.6454 28.8874 38.7286C28.8874 38.6898 28.8818 38.6454 28.8818 38.6068C28.8651 38.1083 28.8928 37.6152 28.9483 37.1223C28.9984 36.6903 29.065 36.2638 29.1149 35.8317C29.2371 34.735 29.176 33.871 28.804 32.8185C28.6431 32.3588 28.3099 31.9988 27.9047 31.7441C27.7548 31.6499 27.3439 31.4338 27.1663 31.4227C26.8998 31.4227 26.4057 31.2344 26.1836 31.1016C25.5618 30.7359 25.4119 30.1765 25.8062 29.5506C26.4001 28.609 27.9157 27.8889 28.9539 27.612C29.9144 27.3572 31.0302 27.2852 31.9574 27.7117L32.0185 27.7393L32.0462 27.8003C32.2516 28.2379 32.4571 28.681 32.6513 29.1241C32.8068 29.4786 32.9734 29.8498 33.1066 30.2208C33.251 30.6307 33.373 31.0462 33.5175 31.456C33.9449 32.6801 34.5279 33.8266 36.0435 33.5774C36.4266 33.511 36.8207 33.4722 37.2093 33.5054L37.276 33.4998Z" fill="black"/>
<path fill-rule="evenodd" clip-rule="evenodd" d="M37.1821 33.6774C36.627 34.702 35.8886 35.6105 35.0115 36.3693C34.223 37.0506 33.3237 37.61 32.341 38.0143C31.3251 38.4298 30.2202 38.679 29.0655 38.7234C29.0655 38.6846 29.0599 38.6402 29.0599 38.596C28.9823 36.3748 29.815 35.1396 28.9711 32.7524C28.5715 31.6335 27.3278 31.2348 27.1558 31.2348C26.9837 31.2348 25.1738 30.8747 25.9454 29.645C26.7171 28.4154 29.8594 26.9587 31.8691 27.8725C31.8691 27.8725 32.6797 29.5841 32.9184 30.2709C33.468 31.8385 33.8899 34.1094 36.0607 33.7438C36.4382 33.6884 36.8212 33.6496 37.1821 33.6774Z" fill="#B99D85"/>
<path fill-rule="evenodd" clip-rule="evenodd" d="M31.6384 32.375C31.6384 32.375 31.5552 33.0341 31.433 33.3221C31.3109 33.6102 31.1499 33.8372 31.1499 33.8372C31.1499 33.8372 31.433 33.6544 31.5662 33.2833C31.6939 32.9178 31.6384 32.375 31.6384 32.375Z" fill="black"/>
<path fill-rule="evenodd" clip-rule="evenodd" d="M31.8079 33.1445C31.8079 33.1445 31.658 33.6264 31.5526 33.859C31.4527 34.0916 31.3916 34.2191 31.3916 34.2191C31.3916 34.2191 31.5359 34.0806 31.6858 33.7704C31.8302 33.4547 31.8079 33.1445 31.8079 33.1445Z" fill="black"/>
<path fill-rule="evenodd" clip-rule="evenodd" d="M27.9117 21.6164C27.5341 21.9211 27.0567 22.1592 26.557 22.0596C26.3794 22.0263 26.1573 21.9322 26.0297 21.7992C25.8853 21.6497 25.7465 21.5001 25.6077 21.345C25.2746 20.9795 24.9471 20.6028 24.6306 20.2151C24.2697 19.7775 23.97 19.2735 23.7257 18.7584C23.5536 18.3983 23.3926 18.0106 23.276 17.6284C23.2204 17.4567 23.1761 17.285 23.126 17.1133C23.0484 16.8364 22.9763 16.5594 22.9096 16.2825L22.8374 16L23.115 16.0886C23.3315 16.1551 23.5814 16.3046 23.7534 16.4431C24.0089 16.6425 24.2587 16.8364 24.5084 17.0469C24.9914 17.4623 25.4578 17.8998 25.9076 18.3485C26.1018 18.5424 26.2794 18.7417 26.446 18.9578C26.8513 19.4729 27.2122 20.0323 27.5341 20.6084C27.6786 20.8687 27.8283 21.1456 27.9506 21.417L28.0005 21.5334L27.9117 21.6164Z" fill="black"/>
<path fill-rule="evenodd" clip-rule="evenodd" d="M27.8061 21.4937C27.8061 21.4937 26.9456 19.6271 25.7908 18.475C24.6361 17.3229 23.9476 16.8078 23.6534 16.5807C23.3592 16.3481 23.0649 16.2539 23.0649 16.2539C23.0649 16.2539 23.2814 17.118 23.4313 17.5888C23.5757 18.0596 24.0198 19.2228 24.7582 20.1201C25.4966 21.0174 26.1462 21.6931 26.1462 21.6931C26.1462 21.6931 26.7624 22.3301 27.8061 21.4937Z" fill="#B99D85"/>
<path fill-rule="evenodd" clip-rule="evenodd" d="M23.106 16.4219C23.1781 16.6933 23.3224 17.2472 23.4279 17.5906C23.5722 18.0614 24.0164 19.2246 24.7547 20.1219C25.4931 21.0192 26.1427 21.6949 26.1427 21.6949C26.1427 21.6949 26.2704 21.8223 26.5035 21.8888C26.1649 21.4678 25.6986 20.8918 25.4821 20.637C25.1211 20.2105 24.6938 19.6898 24.4938 19.0695C24.294 18.4491 24.3218 18.1223 24.3218 18.1223C24.3218 18.1223 25.3766 19.6344 25.4931 19.8671C25.5875 20.0554 26.5313 21.4457 26.8589 21.922C26.8977 21.9165 26.9422 21.9109 26.9865 21.9054L27.0809 21.0524C27.0809 21.0524 26.5203 20.2936 26.176 19.7231C25.8374 19.1525 25.2101 18.4048 24.4272 17.8454C23.8388 17.4189 23.3114 16.865 23.106 16.4219Z" fill="#9E775C"/>
<path fill-rule="evenodd" clip-rule="evenodd" d="M26.8022 21.6926C26.8022 21.6926 26.5412 20.9061 26.0971 20.1085C25.6529 19.3109 25.403 18.9841 25.1033 18.685C24.8035 18.3859 24.0762 17.8984 24.0762 17.8984C24.0762 17.8984 24.1539 18.0203 24.2206 18.1034C24.2816 18.1865 24.3261 18.2142 24.3261 18.2142C24.3261 18.2142 24.5981 18.9674 24.6869 19.2499C24.7702 19.5324 25.0478 20.042 25.3032 20.2968C25.5585 20.5516 26.1193 21.2439 26.2303 21.399C26.3468 21.543 26.4801 21.8532 26.8022 21.6926Z" fill="black"/>
<path fill-rule="evenodd" clip-rule="evenodd" d="M26.5906 21.566C26.5518 21.4607 26.5073 21.3555 26.4685 21.2558C26.3185 20.8903 26.152 20.5302 25.9577 20.1813C25.6801 19.6828 25.397 19.2009 24.9917 18.791C24.8752 18.6747 24.7308 18.5639 24.5976 18.4587C24.5976 18.4587 24.592 18.4531 24.5864 18.4531C24.6197 18.5417 24.6475 18.6304 24.6808 18.719C24.7363 18.8741 24.7919 19.0347 24.8418 19.1953C24.9307 19.4889 25.2027 19.9597 25.4192 20.1757C25.5747 20.3308 25.7245 20.5136 25.8689 20.6798C25.9744 20.8016 26.0742 20.9235 26.1742 21.0509C26.2408 21.134 26.3075 21.2115 26.3686 21.2946C26.4129 21.3555 26.4518 21.422 26.4963 21.4829C26.5296 21.5217 26.5573 21.5549 26.5906 21.566Z" fill="#F6C4B1"/>
<path fill-rule="evenodd" clip-rule="evenodd" d="M25.7226 26.2167C25.706 26.0948 25.6894 25.9619 25.6783 25.84C25.6505 25.563 25.6228 25.2861 25.6116 25.0147C25.6006 24.7489 25.595 24.4608 25.6228 24.1894C25.6561 23.9291 25.6894 23.6632 25.7282 23.4029C25.7949 22.9819 25.9058 22.4336 26.1391 22.0736C26.1613 22.0348 26.189 22.0016 26.2223 21.9683C26.4777 21.7025 26.8997 21.6969 27.2161 21.8576C27.6658 22.0846 27.849 22.5665 27.8602 23.0429C27.8768 23.5358 27.9101 24.0399 27.8046 24.5218C27.588 25.4966 26.822 26.0062 25.9337 26.3441L25.7449 26.4161L25.7226 26.2167Z" fill="black"/>
<path fill-rule="evenodd" clip-rule="evenodd" d="M25.8812 26.1815C25.8812 26.1815 25.7036 24.8798 25.7869 24.193C25.8701 23.5117 25.9812 22.6144 26.281 22.1436C26.5808 21.6728 27.6688 21.8334 27.7077 23.0354C27.7411 24.2373 27.8965 25.4171 25.8812 26.1815Z" fill="#B99D85"/>
<path fill-rule="evenodd" clip-rule="evenodd" d="M25.7982 25.3853C25.7649 24.9865 25.7483 24.5268 25.7871 24.2055C25.8371 23.7956 25.8982 23.3027 26.0036 22.8762C26.0868 22.8263 26.1646 22.7875 26.2091 22.7709C26.3644 22.7155 26.5366 22.6602 26.5755 22.6602C26.6087 22.6657 26.7142 22.6657 26.731 22.6657C26.7476 22.6657 27.1529 22.6325 27.3583 23.1587C27.3583 23.1587 27.2473 23.0645 26.9918 23.0866C26.7364 23.1088 26.4977 23.1974 26.3923 23.3193C26.2868 23.4411 26.2646 23.6239 26.2646 23.6239C26.2646 23.6239 26.5144 23.3027 26.7975 23.3359C27.0807 23.3691 27.1473 23.5353 27.1473 23.5353C27.1473 23.5353 26.9585 23.3968 26.7364 23.4633C26.5199 23.5298 26.3978 23.707 26.3312 23.8122C26.2646 23.9175 26.4588 25.1748 26.4588 25.1748C26.4588 25.1748 26.1812 25.4241 25.7982 25.3853Z" fill="#9E775C"/>
<path fill-rule="evenodd" clip-rule="evenodd" d="M22.09 31.7822C22.09 31.7822 21.707 30.8239 21.768 29.8269C21.8347 28.83 20.6798 27.855 21.1018 27.4231C21.5238 26.9855 22.9894 27.0243 23.489 27.1185C23.9887 27.2071 26.9755 28.4865 28.2691 27.1683C29.5627 25.85 29.7459 25.5066 29.7459 25.5066C29.7459 25.5066 30.9894 25.3294 30.2954 27.8606C29.6014 30.392 27.2808 31.3169 26.3482 31.6604C25.41 31.9982 22.7007 32.397 22.09 31.7822Z" fill="#E30613"/>
<path fill-rule="evenodd" clip-rule="evenodd" d="M22.5675 29.7793C22.5953 29.7571 22.623 29.7405 22.6674 29.7295C22.7452 29.7073 22.8284 29.6962 22.9062 29.6851C23.0283 29.6629 23.1505 29.6463 23.2726 29.6353C23.4114 29.6243 23.5668 29.6131 23.7057 29.6297C23.8722 29.6463 24.0109 29.7239 24.1109 29.8624C24.1276 29.8845 24.1442 29.9122 24.1609 29.9399C24.222 29.8291 24.3052 29.7571 24.4717 29.7017C24.5162 29.6851 24.5772 29.6796 24.6272 29.6741C24.7049 29.6629 24.7771 29.6575 24.8548 29.6519C25.0546 29.6353 25.2546 29.6297 25.4544 29.6187C25.7819 29.6075 26.104 29.5965 26.4315 29.5909C26.5536 29.5909 26.6758 29.5855 26.7923 29.5743C27.0477 29.5521 27.3086 29.5135 27.5585 29.4469C27.764 29.3915 27.9859 29.314 28.1581 29.1922C28.3801 29.0316 28.6244 28.8876 28.8798 28.7878C28.963 28.7546 29.074 28.7214 29.163 28.7102L29.2851 28.6992L29.2907 28.821C29.2907 28.8876 29.2907 28.9596 29.2795 29.0316C29.2628 29.1977 29.2351 29.3694 29.1907 29.5301C29.0574 30.023 28.7966 30.4606 28.3801 30.7707C28.1248 30.9646 27.8249 31.1252 27.5363 31.2582C27.1477 31.4354 26.7368 31.585 26.3205 31.7068C26.1317 31.7622 25.9374 31.8176 25.7487 31.8675L25.682 31.8841L25.6376 31.8287C25.5543 31.729 25.4599 31.585 25.41 31.4632C25.4044 31.441 25.3933 31.4188 25.3877 31.3966C25.3767 31.4244 25.36 31.452 25.3434 31.4852C25.2989 31.5739 25.2268 31.7068 25.1546 31.7733L25.1269 31.801L24.3829 31.8951L24.3441 31.8453C24.2553 31.7345 24.1664 31.5794 24.1109 31.452C24.1053 31.4354 24.0943 31.4132 24.0887 31.3966C24.0332 31.513 23.9665 31.6182 23.8833 31.6958C23.8277 31.7456 23.6501 31.9229 23.578 31.9449L23.5391 31.9561L23.5002 31.9449C23.4169 31.9173 23.3391 31.8896 23.2615 31.8619C23.206 31.8397 23.1505 31.8231 23.1004 31.801C23.0505 31.7788 22.9839 31.7567 22.9617 31.7013C22.9395 31.657 22.9118 31.6126 22.8895 31.5684C22.8562 31.5018 22.8228 31.4354 22.7951 31.3634C22.7674 31.452 22.7286 31.5352 22.6897 31.6072C22.4898 31.9616 22.1289 31.9949 21.8846 31.6625C21.8403 31.596 21.7958 31.524 21.7569 31.4576C21.6681 31.308 21.5904 31.1474 21.5294 30.9867C21.496 30.8981 21.4739 30.8095 21.4572 30.7209C21.4183 30.5049 21.3462 30.0894 21.5515 29.9288C21.5737 29.9122 21.5904 29.8956 21.6126 29.879C21.7236 29.7848 21.8625 29.7516 22.0012 29.7239C22.1123 29.7017 22.2455 29.6741 22.362 29.6796C22.4343 29.6685 22.5286 29.6907 22.5675 29.7793Z" fill="black"/>
<path fill-rule="evenodd" clip-rule="evenodd" d="M21.9642 31.5866C21.9642 31.5866 21.6311 31.1157 21.5535 30.6892C21.4758 30.2683 21.5146 30.0799 21.6034 30.0079C21.6978 29.9359 21.7033 29.8861 22.0031 29.8251C22.3029 29.7587 22.4417 29.7698 22.4639 29.8363C22.4861 29.9027 22.525 30.1797 22.5527 30.3015C22.5805 30.4234 22.6916 30.6672 22.6916 30.6672C22.6916 30.6672 22.6305 30.4178 22.6138 30.2129C22.5972 30.0079 22.5694 29.8751 22.697 29.8418C22.8192 29.8085 23.3744 29.7089 23.6909 29.7421C24.0072 29.7753 24.1016 30.0523 24.1016 30.1741C24.1016 30.296 24.1239 30.6838 24.1239 30.6838C24.1239 30.6838 24.1517 30.3126 24.196 30.1575C24.2405 30.0025 24.2794 29.8805 24.5014 29.8141C24.7235 29.7421 26.4222 29.7089 26.4222 29.7089C26.4222 29.7089 27.627 29.7089 28.2155 29.288C28.8039 28.8669 29.1649 28.8281 29.1649 28.8281C29.1649 28.8281 29.2037 30.0025 28.3043 30.6838C27.4049 31.3595 25.7117 31.7582 25.7117 31.7582C25.7117 31.7582 25.5618 31.581 25.5062 31.4259C25.4507 31.2709 25.3952 31.0548 25.3952 31.0548C25.3952 31.0548 25.323 31.2431 25.2287 31.437C25.1343 31.6253 25.0621 31.6974 25.0621 31.6974L24.4181 31.7748C24.4181 31.7748 24.2904 31.6142 24.196 31.4037C24.1016 31.1933 24.0628 31.0382 24.0628 31.0382C24.0628 31.0382 24.0072 31.3983 23.7852 31.6087C23.5632 31.8192 23.5188 31.8358 23.5188 31.8358C23.5188 31.8358 23.058 31.6807 23.0469 31.6586C23.0357 31.6308 22.9359 31.4758 22.8415 31.2321C22.7471 30.9883 22.7304 30.9607 22.7304 30.9607C22.7304 30.9607 22.7249 31.2709 22.5694 31.5533C22.425 31.8248 22.1586 31.8524 21.9642 31.5866Z" fill="white"/>
<path fill-rule="evenodd" clip-rule="evenodd" d="M21.4262 27.8291C21.4594 27.7239 21.5649 27.6132 21.6482 27.5467C21.9146 27.3472 22.2866 27.303 22.6087 27.3196L22.6919 27.3252L22.7141 27.4082C22.7364 27.4858 22.7474 27.5799 22.753 27.663C22.7696 27.8569 22.7586 28.0563 22.7141 28.2501C22.6698 28.4495 22.6309 28.6544 22.592 28.8538C22.542 29.1197 22.4921 29.3856 22.4477 29.657L22.4421 29.6958L22.4143 29.7234C22.3033 29.8232 22.1312 29.9062 21.9869 29.9394C21.6982 30.0115 21.3041 29.884 21.1319 29.6348C20.9431 29.3579 21.0542 28.8594 21.1375 28.5602C21.1596 28.4882 21.1818 28.4108 21.2097 28.3387C21.2707 28.1671 21.3484 27.9953 21.4262 27.8291Z" fill="black"/>
<path fill-rule="evenodd" clip-rule="evenodd" d="M22.5988 27.4365C22.5988 27.4365 22.6932 27.802 22.5988 28.2231C22.5044 28.644 22.3323 29.6355 22.3323 29.6355C22.3323 29.6355 22.1769 29.7739 21.9548 29.8293C21.7328 29.8847 21.3774 29.7961 21.222 29.5689C21.0665 29.3474 21.1553 28.9044 21.2387 28.5886C21.3275 28.2785 21.5273 27.8741 21.5273 27.8741C21.5273 27.8741 21.6662 27.3922 22.5988 27.4365Z" fill="white"/>
<path fill-rule="evenodd" clip-rule="evenodd" d="M23.4023 27.4701C23.5911 27.4259 23.7853 27.4535 23.9631 27.5367C24.074 27.5865 24.2184 27.6863 24.285 27.797C24.3683 27.941 24.3738 28.312 24.3738 28.4838C24.3738 28.8217 24.3905 29.5528 24.2184 29.8242C24.1629 29.9128 24.1018 29.9903 24.0185 30.0569C23.7965 30.2341 23.4911 30.2231 23.2247 30.1897C22.997 30.1565 22.4585 30.0623 22.3753 29.791C22.3586 29.7245 22.3586 29.6192 22.3641 29.5528C22.3697 29.442 22.3753 29.3257 22.3863 29.2149C22.403 29.0709 22.4196 28.9103 22.4529 28.7719C22.4863 28.6389 22.5196 28.5004 22.5585 28.3674C22.6028 28.2124 22.6695 28.0185 22.7583 27.8801C22.8694 27.7083 23.1913 27.5477 23.3801 27.4757L23.3857 27.4701H23.4023Z" fill="black"/>
<path fill-rule="evenodd" clip-rule="evenodd" d="M23.4302 27.5804C23.4302 27.5804 22.9805 27.7576 22.8639 27.9459C22.7418 28.1287 22.6363 28.5496 22.5752 28.7989C22.5141 29.0481 22.4642 29.6519 22.4975 29.7572C22.5308 29.868 22.7418 30.0008 23.2525 30.0728C23.7633 30.1449 23.9686 30.023 24.1297 29.7626C24.2907 29.5023 24.2685 28.5662 24.2685 28.4832C24.2685 28.3946 24.263 27.9737 24.1907 27.8517C24.1131 27.7243 23.791 27.4972 23.4302 27.5804Z" fill="#FDE100"/>
<path fill-rule="evenodd" clip-rule="evenodd" d="M23.4325 27.5804C23.4325 27.5804 23.0938 27.7133 22.9272 27.8739C23.1994 27.8739 23.6323 27.9127 23.7933 28.1453C24.0099 28.4555 23.9266 29.5577 23.5491 30.0895C23.8488 30.0784 24.0043 29.962 24.132 29.7626C24.293 29.5023 24.2707 28.5662 24.2707 28.4832C24.2707 28.3946 24.2653 27.9737 24.1931 27.8517C24.1154 27.7243 23.7933 27.4972 23.4325 27.5804Z" fill="#FAC200"/>
<path fill-rule="evenodd" clip-rule="evenodd" d="M24.1367 29.8797C24.1477 29.6858 24.1589 29.4863 24.1756 29.2925C24.1866 29.1818 24.1922 29.0766 24.2033 28.9658C24.2088 28.8882 24.22 28.8051 24.2367 28.7276C24.2866 28.506 24.3143 28.3841 24.4587 28.2013C24.5475 28.0851 24.6975 27.9743 24.8418 27.93C25.0693 27.8414 25.3192 27.8136 25.5413 27.9189C25.6856 27.9854 25.8133 28.1072 25.8744 28.2567C25.8966 28.3121 25.9133 28.3841 25.9299 28.4617C26.0021 28.3675 26.1075 28.2733 26.1963 28.2125C26.324 28.1293 26.4795 28.0629 26.635 28.0906C26.8681 28.1349 27.0846 28.2401 27.2068 28.4507C27.2456 28.5171 27.279 28.6002 27.3067 28.6777C27.3955 28.5115 27.5065 28.2955 27.6342 28.1903C27.8174 28.0407 28.1284 28.0629 28.2838 28.2401C28.306 28.2623 28.3283 28.2899 28.3449 28.3233C28.3615 28.2513 28.3782 28.1737 28.4004 28.1017C28.4226 28.0241 28.4448 27.9466 28.467 27.869C28.4782 27.8302 28.4892 27.786 28.5059 27.7416C28.5337 27.6752 28.6391 27.6198 28.7002 27.592C28.8113 27.5478 28.9334 27.5312 29.05 27.5644C29.1499 27.5866 29.2442 27.6308 29.3164 27.7084C29.3663 27.7582 29.3942 27.8136 29.433 27.8746C29.5218 28.002 29.5884 28.3121 29.6051 28.4727C29.6106 28.5393 29.6218 28.6057 29.6273 28.6777C29.6385 28.7885 29.6385 28.9048 29.6273 29.0212C29.594 29.3313 29.4663 29.6083 29.222 29.8132C29.0833 29.9295 28.85 30.1068 28.6502 30.079C28.5836 30.068 28.5337 30.0402 28.5003 30.007C28.4559 30.0514 28.3726 30.0902 28.3283 30.1178C28.1617 30.201 27.662 30.2896 27.4732 30.2896C27.3512 30.2896 27.2289 30.2618 27.1513 30.1898C27.1291 30.2396 27.0902 30.284 27.0457 30.3117C26.9513 30.3782 26.8348 30.4003 26.7238 30.4058C26.5961 30.4114 26.4573 30.4058 26.3296 30.3948C26.2186 30.3837 26.1075 30.3726 25.9965 30.3504C25.9133 30.3338 25.7911 30.3062 25.7522 30.212C25.7467 30.1954 25.7411 30.1788 25.7355 30.1566C25.6967 30.2064 25.6523 30.2508 25.6134 30.273C25.5246 30.3172 25.3858 30.3172 25.2859 30.3172C25.0861 30.3117 24.8806 30.2896 24.6863 30.2674C24.5309 30.2508 24.3032 30.2064 24.1978 30.0846C24.1477 30.0181 24.12 29.9461 24.1367 29.8797Z" fill="black"/>
<path fill-rule="evenodd" clip-rule="evenodd" d="M24.8709 28.0375C24.8709 28.0375 24.671 28.1039 24.5432 28.2756C24.4101 28.4474 24.3879 28.5414 24.3434 28.7575C24.2935 28.9735 24.2435 29.904 24.2435 29.904C24.2435 29.904 24.1768 30.0868 24.6931 30.1477C25.2095 30.2087 25.4593 30.2143 25.5592 30.1644C25.6592 30.1145 25.8146 29.7932 25.8146 29.7932C25.8146 29.7932 25.8257 30.0868 25.8534 30.1699C25.8869 30.253 26.4641 30.3029 26.7085 30.2917C26.9528 30.2807 27.0416 30.1699 27.0471 30.109C27.0526 30.0481 27.0638 29.8486 27.0748 29.6548C27.0804 29.4554 27.0804 29.4388 27.0804 29.4388C27.0804 29.4388 27.1637 29.8154 27.1637 29.965C27.1637 30.1145 27.2859 30.1755 27.4635 30.1755C27.6411 30.1755 28.1297 30.0813 28.263 30.0148C28.3961 29.9484 28.4129 29.9206 28.4129 29.9206C28.4129 29.9206 28.4684 29.821 28.4628 29.6271C28.4516 29.4388 28.4516 29.3723 28.4516 29.3723C28.4516 29.3723 28.5183 29.5218 28.5406 29.6438C28.5572 29.7656 28.5516 29.893 28.5516 29.893C28.5516 29.893 28.635 30.1477 29.1345 29.7268C29.6342 29.3059 29.4954 28.6468 29.4788 28.486C29.4621 28.3254 29.39 28.0375 29.3233 27.9433C29.2567 27.8435 29.2122 27.7328 29.0013 27.6829C28.7959 27.6331 28.6015 27.7661 28.5905 27.7937C28.5794 27.8215 28.4406 28.2701 28.4183 28.4418C28.4017 28.6135 28.4129 28.7298 28.4129 28.7298C28.4129 28.7298 28.2907 28.4694 28.1686 28.3254C28.0464 28.187 27.8076 28.1815 27.68 28.2867C27.5523 28.392 27.408 28.6966 27.3469 28.8073C27.2859 28.9181 27.2692 29.0123 27.2692 29.0123C27.2692 29.0123 27.1637 28.6522 27.086 28.5138C27.0083 28.3753 26.8584 28.259 26.5918 28.2092C26.3309 28.1593 26.0312 28.4694 25.9534 28.6024C25.8757 28.7354 25.8313 28.8959 25.8313 28.8959C25.8313 28.8959 25.8202 28.486 25.748 28.3088C25.6869 28.1205 25.3982 27.8269 24.8709 28.0375Z" fill="white"/>
<path fill-rule="evenodd" clip-rule="evenodd" d="M26.765 23.5966C27.1813 23.58 27.52 23.9511 27.52 24.4274C27.5255 24.8982 27.1925 25.297 26.776 25.3081C26.3597 25.3247 26.021 24.9536 26.021 24.4773C26.021 24.4053 26.0266 24.3332 26.0432 24.2668C26.0432 24.2668 26.0821 23.8237 26.2264 23.5744C26.3763 23.3252 26.6151 23.3196 26.6762 23.3085C26.7371 23.2975 26.876 23.3085 26.9759 23.3639C27.0758 23.4138 27.0814 23.4692 27.0814 23.4692C27.0814 23.4692 26.9315 23.3418 26.6928 23.3806C26.4541 23.4193 26.3431 23.5356 26.293 23.652C26.2597 23.7295 26.2375 23.8126 26.232 23.8624C26.3707 23.7073 26.5595 23.6077 26.765 23.5966Z" fill="black"/>
<path fill-rule="evenodd" clip-rule="evenodd" d="M26.7685 23.6878C27.1237 23.6767 27.4179 24.009 27.4235 24.43C27.4291 24.8509 27.1404 25.2054 26.7851 25.2165C26.4298 25.2276 26.1356 24.8953 26.13 24.4743C26.1244 24.0533 26.4076 23.6988 26.7685 23.6878Z" fill="white"/>
<path fill-rule="evenodd" clip-rule="evenodd" d="M26.8376 24.0157C27.043 24.0102 27.2096 24.193 27.2152 24.4312C27.2206 24.6638 27.0541 24.8631 26.8488 24.8687C26.6433 24.8743 26.4768 24.6915 26.4712 24.4533C26.4712 24.2207 26.6377 24.0213 26.8376 24.0157Z" fill="black"/>
<path fill-rule="evenodd" clip-rule="evenodd" d="M26.871 24.2539C26.9265 24.2539 26.9764 24.3148 26.982 24.3979C26.982 24.4755 26.9376 24.5419 26.882 24.5419C26.8265 24.5419 26.7766 24.481 26.771 24.3979C26.771 24.3148 26.8155 24.2539 26.871 24.2539Z" fill="white"/>
<path fill-rule="evenodd" clip-rule="evenodd" d="M31.9089 25.0571L31.5981 25.0515C31.6813 25.1015 31.759 25.1568 31.8312 25.2288C31.9977 25.3894 32.1254 25.5888 32.2254 25.7882C32.4196 26.1759 32.503 26.669 32.4918 27.101C32.4696 27.8044 32.2032 28.4414 31.7701 28.9897C31.3093 29.5602 30.6931 29.9923 30.0269 30.2858C29.8048 30.3856 29.5772 30.4742 29.344 30.5406C29.2496 30.5684 29.1552 30.596 29.0608 30.6126L28.8943 30.6458C28.7 30.8564 28.5002 31.0391 28.3225 31.1499C28.2448 31.1943 28.1726 31.2497 28.1004 31.2995C27.9894 31.377 27.8839 31.449 27.7729 31.5265C27.4676 31.7314 27.1567 31.9198 26.8291 32.0804C25.9075 32.5457 24.9249 32.8005 23.8867 32.806C23.1373 32.8116 22.149 32.7507 21.4717 32.3961C21.1108 32.2023 20.8055 31.9032 20.761 31.4823C20.7277 31.1943 20.85 30.9339 21.0386 30.7178C21.1053 30.6458 21.1719 30.5738 21.2496 30.513C21.2773 30.4852 21.3329 30.4464 21.3663 30.4243L21.5106 30.3357C21.5772 30.6902 21.6605 30.9837 21.8325 31.2607L21.888 31.3051C21.8992 31.3105 21.9047 31.3105 21.9103 31.3105C22.0491 31.3493 22.1935 31.3825 22.3322 31.4158C22.3767 31.4269 22.421 31.4324 22.4655 31.4435C22.5599 31.4601 22.6597 31.4712 22.7597 31.4823C23.0706 31.521 23.387 31.5376 23.7035 31.5432C24.5973 31.5542 25.5244 31.4435 26.3739 31.1499C27.6063 30.7234 28.6722 30.0865 29.2552 28.8789C29.333 28.7183 29.3995 28.5466 29.4607 28.3805C29.6383 27.8654 29.7437 27.3115 29.7826 26.763C29.7826 26.752 29.7826 26.741 29.7826 26.7298C29.7826 26.7354 29.7826 26.7354 29.777 26.741C29.6383 27.2505 29.3663 27.7103 28.9388 28.026C28.117 28.6407 27.1399 28.7017 26.1684 28.5079C25.9353 28.4635 25.702 28.3971 25.4689 28.3362C25.1747 28.2586 24.886 28.1756 24.5918 28.0924C24.3309 28.0204 24.0699 27.954 23.8034 27.8875C23.5925 27.8376 23.3704 27.7878 23.1539 27.7601C22.8096 27.7158 22.4432 27.7103 22.0991 27.7601C21.9492 27.7822 21.777 27.8155 21.616 27.8764L21.4994 27.9982C21.4495 28.0758 21.3884 28.1756 21.3551 28.2642C21.2996 28.4137 21.2496 28.5687 21.2052 28.7239L21.1442 28.9233L21.0053 28.8125C20.8721 28.7239 20.7277 28.5799 20.6334 28.4525C20.4169 28.1534 20.3669 27.81 20.5169 27.4721C20.7 27.0677 21.0887 26.8462 21.5216 26.7244L21.5439 26.6634C21.5772 26.5692 21.6327 26.4695 21.6826 26.392C21.7048 26.3587 21.7271 26.3255 21.7549 26.2923C21.7381 26.2701 21.7271 26.2425 21.7215 26.2147C21.7215 26.2093 21.7215 26.1981 21.7215 26.1925C21.7215 26.1705 21.716 26.1427 21.716 26.1151C21.716 26.0319 21.7215 25.9544 21.7327 25.8713C21.7715 25.6332 21.8936 25.4226 22.1101 25.3119C22.2878 25.2177 22.4932 25.179 22.6931 25.2233C22.7707 25.2399 22.8707 25.2731 22.9373 25.323L22.9818 25.3562C23.3093 25.2122 23.6646 25.1069 24.02 25.0793C24.3475 25.0571 24.6862 25.0515 25.0081 25.0903C25.1136 25.1015 25.2468 25.1236 25.3523 25.1568L25.6743 25.2565C25.6966 25.262 25.7188 25.262 25.7409 25.2676L25.8854 25.2344C26.1962 25.1568 26.6681 24.9741 26.8958 24.7414C27.1622 24.47 27.2844 23.977 27.2898 23.6059C27.2898 23.4398 27.2732 23.2736 27.2343 23.1185C27.1788 22.9191 27.0678 22.7529 26.8846 22.6532C26.8124 22.6145 26.707 22.5757 26.6236 22.5701L26.3739 22.5535C26.0574 22.6421 25.7299 22.6754 25.4023 22.6089C24.9526 22.5203 24.5806 22.271 24.4474 21.8224C24.3364 21.4513 24.3808 21.1799 24.5806 20.8752C24.6307 21.1134 24.6972 21.2574 24.7861 21.3627C24.8749 21.4679 25.047 21.5233 25.1803 21.5454C25.2413 21.5565 25.2968 21.5621 25.3579 21.5565C25.5966 21.5454 25.8353 21.4347 26.0463 21.3239C26.3127 21.1743 26.5571 21.0026 26.818 20.8475C26.9513 20.77 27.0956 20.6925 27.2399 20.6315C27.2122 20.6315 27.1844 20.6371 27.1567 20.6426C27.0012 20.6648 26.8346 20.698 26.6847 20.7423L25.9964 20.9306L26.5348 20.4654C26.6348 20.3767 26.7735 20.2937 26.8902 20.2272C27.1678 20.0776 27.473 19.9724 27.7895 19.9447C27.9506 19.9281 28.1226 19.9281 28.2836 19.9447C28.2836 19.9447 28.2836 19.9447 28.2781 19.9447L27.9394 19.6068L28.4114 19.6733C28.5057 19.6844 28.6223 19.7287 28.7111 19.7619C28.9443 19.8616 29.1664 20.0056 29.3496 20.1773C29.444 20.266 29.5272 20.3601 29.605 20.4654C29.7549 20.6537 29.8826 20.8586 29.9991 21.0691C29.9991 21.0746 30.0047 21.0746 30.0047 21.0802C30.0325 21.0248 30.0602 20.9639 30.088 20.9085C30.1934 20.6925 30.2989 20.4764 30.4099 20.266C30.5099 20.0721 30.6154 19.8838 30.732 19.701C30.8264 19.5514 30.9374 19.3908 31.0651 19.269C31.2317 19.1139 31.4592 18.9699 31.6536 18.8535C31.92 18.6929 32.1976 18.5378 32.4808 18.3938C32.8749 18.1889 33.2857 17.9895 33.6966 17.8122C33.9852 17.6904 34.2961 17.563 34.5959 17.4854C34.7569 17.4411 35.0068 17.3857 35.1455 17.5076C35.3066 17.6516 35.19 17.9396 35.1178 18.1002C34.9901 18.3772 34.8124 18.6597 34.6292 18.9089C34.4071 19.2136 34.1574 19.5127 33.902 19.7952C33.5633 20.1607 33.2025 20.5097 32.8083 20.8199C32.5419 21.0303 32.2531 21.2242 31.9533 21.3848C31.6702 21.5344 31.3704 21.7061 31.0984 21.8944L31.0817 21.9775C31.0539 22.0993 31.0317 22.2267 31.015 22.3541C30.9707 22.6255 30.9318 22.9025 30.9096 23.1794C30.8874 23.4453 30.8707 23.8496 30.9485 24.1044C31.115 24.6251 31.4648 24.8687 31.9089 25.0571Z" fill="black"/>
<path fill-rule="evenodd" clip-rule="evenodd" d="M30.015 21.4454C30.015 21.4454 29.6819 20.7143 29.2488 20.3099C28.8158 19.9 28.3995 19.8446 28.3995 19.8446C28.3995 19.8446 28.5993 20.0441 28.6603 20.1438C28.7214 20.2434 28.7158 20.2767 28.7158 20.2767C28.7158 20.2767 28.4827 20.0496 27.8054 20.1161C27.1225 20.1825 26.6451 20.5979 26.6451 20.5979C26.6451 20.5979 27.0726 20.4816 27.3723 20.4761C27.6721 20.4705 27.8276 20.681 27.8276 20.681C27.8276 20.681 27.5112 20.6312 26.9061 20.9967C26.3008 21.3623 25.7456 21.822 25.1572 21.7168C24.5743 21.6116 24.5799 21.2737 24.5799 21.2737C24.5799 21.2737 24.3744 22.2541 25.4404 22.4701C26.5118 22.6861 27.5445 21.7611 27.8165 21.5562C28.0941 21.3568 28.4883 21.2072 28.8603 21.2183C29.2321 21.2294 29.3598 21.3734 29.3598 21.3734C29.3598 21.3734 29.0046 21.2349 28.4993 21.3789C27.9942 21.5229 27.8832 21.678 27.6777 21.8276C27.4723 21.9771 27.2558 22.1378 27.0115 22.2541C26.7672 22.3704 26.6395 22.4258 26.6395 22.4258C26.6395 22.4258 27.2224 22.459 27.3945 23.096C27.5667 23.733 27.3723 24.5139 27.0171 24.874C26.6672 25.234 25.929 25.4112 25.929 25.4112C25.929 25.4112 26.2176 25.6328 26.2398 25.9263C26.2619 26.2144 26.0787 26.3972 26.0787 26.3972C26.0787 26.3972 26.2343 25.8267 25.9899 25.6106C25.7512 25.3946 25.5514 25.4002 25.2405 25.4888C24.9296 25.5774 24.5466 25.8045 24.5466 25.8045C24.5466 25.8045 24.5909 25.6882 24.7685 25.5608C24.9463 25.439 25.3127 25.3282 25.3127 25.3282C25.3127 25.3282 24.8908 25.1952 24.0357 25.2562C23.1809 25.317 22.3703 25.8987 22.3703 25.8987C22.3703 25.8987 22.4814 25.7381 22.6311 25.6217C22.7811 25.5054 22.8532 25.4777 22.8532 25.4777C22.8532 25.4777 22.5812 25.2784 22.1926 25.4777C21.8095 25.6771 21.8873 26.2255 21.8873 26.2255L22.0871 26.1645C22.0871 26.1645 21.9039 26.3861 21.8262 26.5024C21.7484 26.6188 21.7041 26.7406 21.7041 26.7406C21.7041 26.7406 22.3425 26.5966 23.0198 26.6686C23.6972 26.7406 24.0802 26.9511 24.0802 26.9511C24.0802 26.9511 23.2807 26.7683 22.6367 26.7738C21.9927 26.7794 20.9768 26.8901 20.6769 27.5659C20.3717 28.2416 21.1045 28.7069 21.1045 28.7069C21.1045 28.7069 21.2099 28.3801 21.26 28.2471C21.3099 28.1142 21.4209 27.9426 21.4209 27.9426C21.4209 27.9426 21.271 28.0146 21.1544 28.0976C21.0379 28.1807 21.0046 28.2361 21.0046 28.2361C21.0046 28.2361 20.9657 28.1253 21.3209 27.8872C21.6763 27.649 22.4091 27.5382 23.1919 27.6379C23.9802 27.7376 25.5403 28.2471 26.212 28.3857C26.8838 28.5185 27.9387 28.6183 28.8547 27.9314C29.7707 27.2501 29.7318 26.0427 29.7318 26.0427C29.7318 26.0427 29.6153 26.0537 29.5209 26.1313C29.4209 26.2089 29.4043 26.2919 29.4043 26.2919C29.4043 26.2919 29.3543 26.1036 29.6708 25.9541C29.9871 25.8045 30.4369 26.1535 30.4369 26.1535C30.4369 26.1535 30.3036 26.1091 30.1759 26.0759C30.0427 26.0427 29.965 26.0649 29.965 26.0649C29.965 26.0649 30.0483 27.2447 29.6207 28.4631C29.1988 29.6817 28.3606 30.6677 26.4341 31.3323C24.5077 31.997 22.4758 31.648 22.3036 31.6038C22.1315 31.5594 21.6929 31.4708 21.5041 31.3434C21.3209 31.2216 21.3432 31.0997 21.3432 31.0997C21.3432 31.0997 21.4099 31.1717 21.4987 31.2326C21.5875 31.2936 21.7318 31.36 21.7318 31.36C21.7318 31.36 21.5652 31.0167 21.5209 30.8559C21.4764 30.6953 21.4487 30.5957 21.4487 30.5957C21.4487 30.5957 20.8713 30.9723 20.9324 31.4874C20.9878 32.0025 21.5597 32.6838 23.897 32.6728C26.2343 32.6616 27.7609 31.3379 28.2496 31.0387C28.7436 30.7397 29.4321 29.7869 29.7762 29.2331C30.1149 28.6792 30.2593 28.3357 30.2593 28.3357C30.2593 28.3357 30.0982 28.8896 29.8428 29.3383C29.593 29.7869 29.0435 30.4794 29.0435 30.4794C29.0435 30.4794 30.6645 30.1526 31.6583 28.9063C32.6576 27.66 32.3522 26.375 32.1024 25.8765C31.8525 25.378 31.6138 25.2396 31.414 25.1288C31.2141 25.018 30.9087 25.0069 30.9087 25.0069C30.9087 25.0069 31.0865 24.9404 31.2197 24.946C31.3529 24.9515 31.4584 25.018 31.4584 25.018C31.4584 25.018 31.0143 24.813 30.8145 24.1705C30.6145 23.528 30.9421 21.9605 30.9421 21.9605L30.5535 22.1876C30.5535 22.1876 30.7422 21.8719 31.897 21.2626C33.0517 20.6478 34.0843 19.4292 34.5174 18.8366C34.9449 18.2439 35.167 17.7509 35.056 17.6568C34.9449 17.5626 34.5174 17.6789 33.7734 17.9891C33.0351 18.2993 31.6084 19.0249 31.1919 19.4126C30.7644 19.7837 30.2204 21.0743 30.015 21.4454Z" fill="#B99D85"/>
<path fill-rule="evenodd" clip-rule="evenodd" d="M30.0076 21.4256C29.9632 21.3259 29.6467 20.6834 29.2525 20.3067L29.2469 20.3012C28.814 19.8913 28.3975 19.8359 28.3975 19.8359C28.3975 19.8359 28.5975 20.0353 28.6585 20.135C28.7196 20.2347 28.714 20.268 28.714 20.268C28.714 20.268 28.4809 20.0409 27.8036 20.1074C27.6204 20.124 27.4538 20.1683 27.3094 20.2181C27.2539 20.2347 27.2039 20.2569 27.1596 20.279C26.9596 20.3677 26.8043 20.4674 26.7209 20.5283C26.671 20.5671 26.6433 20.5892 26.6433 20.5892C26.6433 20.5892 26.682 20.5782 26.7431 20.5615C26.8654 20.5338 27.0818 20.484 27.2706 20.4729C27.3039 20.4729 27.3372 20.4674 27.3649 20.4674C27.3983 20.4674 27.426 20.4674 27.4538 20.4729C27.6925 20.5061 27.8202 20.6723 27.8202 20.6723C27.8202 20.6723 27.7369 20.6612 27.5759 20.6945C27.5315 20.7055 27.4759 20.7166 27.415 20.7388C27.2983 20.7775 27.1596 20.8385 26.993 20.9271C26.9596 20.9437 26.9263 20.9659 26.8931 20.988C26.7931 21.049 26.6988 21.1099 26.6044 21.1708C26.56 21.1985 26.51 21.2317 26.4656 21.2594C26.4545 21.2705 26.4379 21.2761 26.4267 21.2871C26.41 21.2982 26.3934 21.3093 26.3768 21.3148C26.3323 21.3425 26.2824 21.3702 26.238 21.3979C26.2046 21.4145 26.1769 21.4367 26.1436 21.4533C26.0936 21.481 26.0381 21.5087 25.9881 21.5364C25.9382 21.5641 25.8883 21.5862 25.8327 21.6084C25.5995 21.7081 25.372 21.7579 25.1387 21.7136C24.5558 21.6084 24.5613 21.2705 24.5613 21.2705C24.5613 21.2705 24.356 22.2509 25.4219 22.4669C25.5939 22.5002 25.7661 22.5057 25.9326 22.4891C25.9937 22.4835 26.0547 22.4725 26.1158 22.4614C26.4934 22.3894 26.8486 22.2121 27.1318 22.0349C27.1428 22.0293 27.154 22.0183 27.1651 22.0127C27.2151 21.9795 27.265 21.9463 27.315 21.913C27.5094 21.7801 27.6647 21.6527 27.7591 21.5807C27.7758 21.5696 27.7869 21.5585 27.798 21.553C28.0756 21.3536 28.4698 21.204 28.8417 21.2151C29.1138 21.2207 29.2525 21.3037 29.3136 21.3425C29.4135 21.3647 29.4802 21.3758 29.4802 21.3758C29.4802 21.3758 29.308 21.193 29.1525 21.0767C28.9972 20.9603 28.6751 20.8551 28.6751 20.8551C28.6751 20.8551 29.097 20.8883 29.3969 21.0379C29.7077 21.1874 30.0076 21.4256 30.0076 21.4256Z" fill="#525251"/>
<path fill-rule="evenodd" clip-rule="evenodd" d="M27.9663 22.6399C27.9663 22.6399 28.1884 22.1691 29.0156 22.1137C29.8372 22.0583 29.9815 22.2909 30.148 22.5734C30.3091 22.8614 30.3202 23.2381 30.2647 23.4264C30.2092 23.6203 30.0871 23.6867 30.0871 23.6867C30.0871 23.6867 29.5263 22.9778 29.0599 22.795C28.5881 22.6177 28.3716 22.5734 27.9663 22.6399Z" fill="#9E775C"/>
<path fill-rule="evenodd" clip-rule="evenodd" d="M25.9937 25.6197C25.9882 25.6141 25.9826 25.6086 25.977 25.603C25.8439 25.4812 25.7216 25.4314 25.5884 25.4258C25.6273 25.5034 25.7328 25.6418 25.9937 25.6197Z" fill="#9E775C"/>
<path fill-rule="evenodd" clip-rule="evenodd" d="M27.2852 22.0938C27.1962 22.1491 27.102 22.2045 27.002 22.2544C26.7577 22.3707 26.63 22.4261 26.63 22.4261C26.63 22.4261 27.213 22.4593 27.385 23.0963C27.5572 23.7333 27.3628 24.5143 27.0076 24.8743C26.6578 25.2344 25.9194 25.4116 25.9194 25.4116C25.9194 25.4116 26.0193 25.4891 26.1026 25.6109C26.469 25.5223 26.9465 25.1734 27.2185 24.8743C27.5127 24.553 27.6237 23.628 27.5516 23.0021C27.5072 22.5978 27.374 22.2765 27.2852 22.0938Z" fill="#9E775C"/>
<path fill-rule="evenodd" clip-rule="evenodd" d="M30.7439 23.8612C30.6773 23.13 30.9271 21.9502 30.9271 21.9502L30.5384 22.1773C30.5384 22.1773 30.7272 21.8616 31.8821 21.2523C33.0368 20.6375 34.0694 19.419 34.5023 18.8263C34.9299 18.2336 35.1519 17.7407 35.0409 17.6465C35.0132 17.6244 34.9743 17.6133 34.9076 17.6133C34.8577 17.8293 34.7689 18.073 34.5913 18.2281C34.2193 18.5549 33.2977 19.0479 33.2977 19.0479C33.2977 19.0479 31.0714 20.9532 30.9104 21.064C30.7495 21.1803 30.5384 21.3686 30.3941 21.8118C30.2498 22.2549 30.4608 22.8918 30.4608 22.8918L30.5274 22.4432C30.5218 22.4321 30.5384 23.2463 30.7439 23.8612ZM29.6836 28.2148C29.6613 28.2922 29.6335 28.3698 29.6058 28.4474C29.1839 29.666 28.3455 30.6518 26.4191 31.3165C26.2027 31.3885 25.9861 31.455 25.7696 31.5049C25.4864 31.8594 25.2033 32.2249 24.9424 32.5627C26.6801 32.2471 27.8237 31.2777 28.2345 31.023C28.7287 30.7238 29.417 29.7712 29.7613 29.2173C30.0999 28.6634 30.2442 28.32 30.2442 28.32C30.2442 28.32 30.0832 28.8739 29.8279 29.3225C29.578 29.7712 29.0284 30.4635 29.0284 30.4635C29.0284 30.4635 30.6495 30.1367 31.6432 28.8905C32.6425 27.6443 32.3373 26.3593 32.0874 25.8607C31.8376 25.3622 31.5989 25.2237 31.399 25.1129C31.1992 25.0021 30.8938 24.9911 30.8938 24.9911C30.8938 24.9911 31.0714 24.9247 31.2047 24.9301C31.3379 24.9357 31.4434 25.0021 31.4434 25.0021C31.4434 25.0021 31.2714 24.9247 31.0936 24.7086C30.9826 24.6865 30.8438 24.6588 30.6606 24.6366C30.161 24.5701 29.9167 24.6754 29.9167 24.6754C29.9167 24.6754 29.7391 23.8722 29.3893 23.6784C29.0396 23.4845 28.6176 23.6618 28.6176 23.6618C28.6176 23.6618 28.6898 23.479 28.8508 23.4291C29.0117 23.3793 29.3005 23.4347 29.3005 23.4347C29.3005 23.4347 29.0229 23.2242 28.7175 23.2962C28.4177 23.3682 28.2679 23.3571 28.0569 24.2433C27.8459 25.1295 28.3066 25.5838 28.4177 25.6668C28.5287 25.75 28.1956 26.0158 28.4621 26.0047C28.7287 25.9936 29.3948 25.4674 29.7445 25.1961C30.0888 24.9191 30.4663 24.7529 31.2379 25.556C32.0041 26.3537 31.6544 27.6221 31.2824 28.2148C30.9104 28.8073 29.8112 29.5718 29.8112 29.5718C29.8112 29.5718 30.0055 29.2228 30.1332 28.8905C30.2608 28.5581 30.3164 27.9046 30.3164 27.9046C30.3164 27.9046 30.0499 28.0264 29.6836 28.2148Z" fill="#9E775C"/>
<path fill-rule="evenodd" clip-rule="evenodd" d="M26.069 25.5605C26.1411 25.6547 26.2189 25.7765 26.2301 25.9205C26.2522 26.2086 26.069 26.3914 26.069 26.3914C26.069 26.3914 26.2245 25.8209 25.9802 25.6049C25.7415 25.3888 25.5416 25.3944 25.2307 25.483C24.9199 25.5716 24.5367 25.7987 24.5367 25.7987C24.5367 25.7987 24.5812 25.6823 24.7588 25.555C24.9365 25.4331 25.3029 25.3224 25.3029 25.3224C25.3029 25.3224 24.881 25.1894 24.026 25.2504C23.171 25.3113 22.3604 25.8929 22.3604 25.8929C22.3604 25.8929 22.4715 25.7323 22.6214 25.6159C22.7713 25.4996 22.8435 25.4719 22.8435 25.4719C22.8435 25.4719 22.5715 25.2725 22.1828 25.4719C21.7998 25.6713 21.8775 26.2196 21.8775 26.2196L22.0774 26.1588C22.0774 26.1588 21.8942 26.3802 21.8164 26.4966C21.7387 26.6129 21.6943 26.7348 21.6943 26.7348C21.6943 26.7348 22.3327 26.5908 23.01 26.6628C23.6873 26.7348 24.0704 26.9453 24.0704 26.9453C24.0704 26.9453 23.271 26.7625 22.627 26.768C21.983 26.7735 20.967 26.8843 20.6672 27.56C20.3619 28.2359 21.0947 28.7011 21.0947 28.7011C21.0947 28.7011 21.2001 28.3743 21.2502 28.2413C21.3001 28.1085 21.4112 27.9367 21.4112 27.9367C21.4112 27.9367 21.2612 28.0087 21.1446 28.0918C21.0281 28.1749 20.9947 28.2303 20.9947 28.2303C20.9947 28.2303 20.956 28.1195 21.3112 27.8814C21.6665 27.6432 22.3993 27.5324 23.1822 27.632C23.9705 27.7318 25.5304 28.2413 26.2023 28.3799C26.8741 28.5128 27.9288 28.6125 28.8449 27.9256C29.7609 27.2444 29.722 26.0369 29.722 26.0369C29.722 26.0369 29.6054 26.048 29.5111 26.1255C29.4111 26.203 29.3945 26.2862 29.3945 26.2862C29.3945 26.2862 29.3446 26.0978 29.6609 25.9483C29.9774 25.7987 30.4271 26.1476 30.4271 26.1476C30.4271 26.1476 30.2938 26.1034 30.1662 26.0701C30.0329 26.0369 29.9553 26.059 29.9553 26.059C29.9553 26.059 30.0385 27.2388 29.611 28.4574C29.1891 29.6759 28.3508 30.6619 26.4243 31.3266C24.4978 31.9911 22.466 31.6422 22.2939 31.598C22.1217 31.5536 21.6832 31.465 21.4944 31.3376C21.3112 31.2158 21.3334 31.0939 21.3334 31.0939C21.3334 31.0939 21.4001 31.1659 21.4889 31.2268C21.5777 31.2878 21.722 31.3542 21.722 31.3542C21.722 31.3542 21.5555 31.0108 21.511 30.8502C21.4667 30.6895 21.4389 30.5899 21.4389 30.5899C21.4389 30.5899 20.8616 30.9665 20.9225 31.4816C20.9781 31.9967 21.5499 32.678 23.8872 32.667C26.2245 32.6558 27.7512 31.332 28.2398 31.033C28.6728 30.7671 29.2612 29.9972 29.6276 29.4377C29.7942 29.1553 29.9774 28.8506 30.1106 28.6069C30.205 28.4241 30.2439 28.3245 30.2439 28.3245L30.2383 28.3411C30.4826 27.765 30.8601 26.4634 30.4271 25.8541C29.9275 25.1506 29.2057 26.0313 28.8004 26.1144C28.3952 26.1975 27.6846 26.3692 26.7075 25.8485C26.5187 25.7377 26.2966 25.6437 26.069 25.5605Z" fill="#F2E2CF"/>
<path fill-rule="evenodd" clip-rule="evenodd" d="M21.0695 30.95C20.9695 31.094 20.8974 31.2714 20.9196 31.4707C20.9751 31.9859 21.5469 32.6672 23.8842 32.656C26.2215 32.645 27.7482 31.3212 28.2367 31.022C28.5032 30.8614 28.8252 30.5069 29.125 30.1303C28.9751 30.2411 28.8031 30.3685 28.6143 30.5015C27.5372 31.2714 27.3985 31.2824 26.8322 31.5649C26.2659 31.8473 23.4734 32.6062 22.0632 32.08C21.2638 31.7699 21.0751 31.299 21.0695 30.95ZM30.2798 26.0924C30.241 26.0814 30.2021 26.0702 30.1576 26.0592C30.0244 26.026 29.9467 26.0482 29.9467 26.0482C29.9467 26.0482 30.0189 27.0839 29.6802 28.2139C29.7579 28.0477 29.8301 27.8538 29.8746 27.6544C29.9967 27.1005 30.0965 26.2918 30.1688 26.1644C30.1965 26.1202 30.2354 26.098 30.2798 26.0924ZM29.386 26.2198C29.397 26.1534 29.4415 26.037 29.658 25.9374C29.8967 25.821 30.2131 25.9983 30.352 26.087C30.4075 26.087 30.4519 26.1036 30.4519 26.1036C30.4519 26.1036 30.1077 25.6217 29.6303 25.8266C29.1528 26.0316 29.1472 26.4469 29.1472 26.4469C29.1472 26.4469 29.1749 26.375 29.3082 26.2642C29.3415 26.242 29.3637 26.231 29.386 26.2198ZM20.5977 27.9813C20.6586 28.4132 21.0917 28.6902 21.0917 28.6902C21.0917 28.6902 21.1972 28.3634 21.2471 28.2305C21.2972 28.0975 21.4082 27.9259 21.4082 27.9259C21.4082 27.9259 21.2583 27.9979 21.1417 28.0809C21.025 28.164 20.9918 28.2194 20.9918 28.2194C20.9918 28.2194 20.9529 28.1087 21.3082 27.8705C21.6636 27.6323 22.3964 27.5215 23.1792 27.6212C23.9675 27.7209 25.5275 28.2305 26.1993 28.369C26.871 28.5018 27.9258 28.6016 28.8419 27.9147C29.7579 27.2334 29.7191 26.026 29.7191 26.026C29.7191 26.026 29.6024 26.037 29.508 26.1146C29.4637 26.1478 29.4415 26.181 29.4248 26.2088C29.497 26.1866 29.5415 26.2198 29.5415 26.2198C29.5415 26.2198 29.597 26.2864 29.5525 26.4414C29.508 26.6021 29.2527 27.2224 28.8586 27.5548C28.47 27.8871 27.515 28.4354 26.2825 28.0865C25.0556 27.7375 22.996 27.0895 21.9079 27.3386C21.2583 27.4828 20.8364 27.7707 20.5977 27.9813ZM21.9967 26.2531C21.9356 26.3251 21.8578 26.4248 21.8135 26.4913C21.7357 26.6075 21.6913 26.7295 21.6913 26.7295C21.6913 26.7295 22.3298 26.5854 23.0071 26.6575C23.3624 26.6961 23.6344 26.7683 23.812 26.8347C24.1507 26.9011 24.3784 26.9676 24.3784 26.9676C24.3784 26.9676 23.8565 26.7073 23.157 26.4746C22.5962 26.2864 22.1576 26.2586 21.9967 26.2531ZM22.3908 25.3945C22.3242 25.4057 22.2576 25.4333 22.1799 25.4665C21.7968 25.6659 21.8745 26.2144 21.8745 26.2144L22.0077 26.1756L22.2242 25.9595C22.2242 25.9595 22.1354 25.893 22.1909 25.6992C22.2187 25.5995 22.3075 25.4887 22.3908 25.3945ZM24.456 26.2808C24.456 26.2808 24.8779 25.6605 25.3888 25.6438C25.8995 25.6272 25.9772 26.026 25.955 26.2254C25.9273 26.4248 25.7662 26.5688 25.7662 26.5688C25.7662 26.5688 24.7336 26.7737 24.456 26.2808Z" fill="#EDC9A2"/>
<path fill-rule="evenodd" clip-rule="evenodd" d="M24.5771 26.2456C24.5771 26.2456 24.877 25.8578 25.3211 25.797C25.7653 25.7304 25.8208 26.1016 25.8374 26.2124C25.8541 26.3287 25.6986 26.4837 25.6986 26.4837V26.2788C25.6986 26.2788 25.4765 26.4063 25.2101 26.3563C24.9491 26.3065 24.8437 26.1514 24.8437 26.1514C24.8437 26.1514 24.6771 26.1791 24.5771 26.2456Z" fill="black"/>
<path fill-rule="evenodd" clip-rule="evenodd" d="M28.0605 22.4816C28.0605 22.4816 28.4769 21.9554 29.2319 21.961C29.9869 21.9665 30.1813 22.7863 30.1702 22.9857C30.1591 23.1851 30.0536 23.5562 30.0536 23.5562C30.0536 23.5562 29.9093 23.1297 29.2708 22.6866C28.6324 22.249 28.1549 22.4706 28.0605 22.4816Z" fill="black"/>
<path fill-rule="evenodd" clip-rule="evenodd" d="M30.4775 21.6259C30.4775 21.6259 30.7051 21.0056 31.0271 20.5624C31.3491 20.1138 31.7266 19.643 32.565 19.1943C33.4032 18.7457 34.3527 18.4688 34.3527 18.4688C34.3527 18.4688 34.286 18.5961 34.1583 18.646C34.025 18.6958 33.9751 18.7512 33.9751 18.7512C33.9751 18.7512 33.4644 19.4713 33.0924 19.8036C32.7204 20.136 32.0209 20.7231 31.5434 21.0111C31.0771 21.288 30.4775 21.6259 30.4775 21.6259Z" fill="black"/>
<path fill-rule="evenodd" clip-rule="evenodd" d="M33.6941 18.8633C33.3389 19.0018 32.9836 19.1568 32.6449 19.3341C32.3063 19.5113 31.9953 19.7273 31.7177 19.9932C31.5068 20.1982 31.3347 20.4197 31.1626 20.6579C31.1238 20.7133 31.0849 20.7742 31.046 20.8296C30.9627 20.9625 30.8851 21.1065 30.8184 21.2505C31.035 21.1232 31.2515 21.0013 31.4679 20.8684C31.7233 20.7133 31.9732 20.525 32.2119 20.3366C32.4783 20.1262 32.7393 19.9046 32.9892 19.683C33.1112 19.5723 33.2279 19.4449 33.3333 19.3175C33.4554 19.1735 33.5776 19.0184 33.6941 18.8633C33.6941 18.8633 33.6887 18.8688 33.6941 18.8633Z" fill="#F6C4B1"/>
<path fill-rule="evenodd" clip-rule="evenodd" d="M28.8884 23.6149C29.3492 23.6149 29.7212 24.0913 29.7212 24.6839C29.7212 25.271 29.3492 25.7529 28.8884 25.7529C28.4276 25.7529 28.0557 25.2766 28.0557 24.6839C28.0557 24.5953 28.0667 24.5067 28.0834 24.4236C28.0834 24.4236 28.1278 23.8697 28.2944 23.5651C28.4609 23.2604 28.7273 23.266 28.7996 23.2549C28.8662 23.2493 29.0216 23.266 29.1326 23.338C29.2382 23.41 29.2492 23.4764 29.2492 23.4764C29.2492 23.4764 29.0827 23.3103 28.8217 23.3435C28.5553 23.3767 28.4331 23.5208 28.3776 23.6648C28.3388 23.7589 28.3166 23.8642 28.3054 23.9251C28.4499 23.7368 28.6608 23.6149 28.8884 23.6149Z" fill="black"/>
<path fill-rule="evenodd" clip-rule="evenodd" d="M28.8906 23.7305C29.2847 23.7305 29.6067 24.157 29.6067 24.6832C29.6067 25.2093 29.2847 25.6358 28.8906 25.6358C28.4964 25.6358 28.1743 25.2093 28.1743 24.6832C28.1743 24.157 28.4964 23.7305 28.8906 23.7305Z" fill="white"/>
<path fill-rule="evenodd" clip-rule="evenodd" d="M28.9142 24.0156C29.1418 24.0156 29.325 24.2427 29.325 24.5252C29.325 24.8077 29.1418 25.0347 28.9142 25.0347C28.6866 25.0347 28.5034 24.8077 28.5034 24.5252C28.5034 24.2483 28.6866 24.0156 28.9142 24.0156Z" fill="black"/>
<path fill-rule="evenodd" clip-rule="evenodd" d="M28.9246 24.1992C28.9913 24.1992 29.0412 24.2657 29.0412 24.3432C29.0412 24.4208 28.9913 24.4872 28.9246 24.4872C28.858 24.4872 28.8081 24.4208 28.8081 24.3432C28.8081 24.2601 28.8636 24.1992 28.9246 24.1992Z" fill="white"/>
<path fill-rule="evenodd" clip-rule="evenodd" d="M28.6356 26.0609C28.6356 26.0609 28.5801 25.9391 28.8688 25.5014C29.1574 25.0694 29.7238 24.8645 29.9458 24.798C30.1679 24.7371 30.401 24.7371 30.4899 24.7814C30.5787 24.8202 30.5787 25.1858 30.079 25.4018C29.5794 25.6178 29.3628 25.723 29.1796 25.8283C28.9909 25.9335 28.7188 26.1329 28.6356 26.0609Z" fill="#B99D85"/>
<path fill-rule="evenodd" clip-rule="evenodd" d="M28.646 25.9635C28.6626 25.8804 28.7236 25.7363 28.8735 25.5093C29.1623 25.0772 29.7285 24.8723 29.9506 24.8058C30.1727 24.7449 30.4058 24.7449 30.4946 24.7892C30.5391 24.8114 30.5613 24.9056 30.5169 25.0218C30.1949 24.9056 29.9673 25.033 29.7508 25.2046C29.462 25.4317 28.9623 25.825 28.646 25.9635Z" fill="#9E775C"/>
<path fill-rule="evenodd" clip-rule="evenodd" d="M28.6313 25.9848C28.6313 25.9848 28.6758 25.4421 29.2755 25.0322C29.8806 24.6223 30.3857 24.7608 30.3857 24.7608C30.3857 24.7608 29.2755 24.7608 28.6313 25.9848Z" fill="black"/>
<path fill-rule="evenodd" clip-rule="evenodd" d="M29.8071 25.2863C29.8071 25.2863 29.8348 25.0703 30.1236 24.9651C30.4122 24.8654 30.5343 24.9319 30.5343 24.9319C30.5343 24.9319 30.0403 25.0371 29.8071 25.2863Z" fill="black"/>
<path fill-rule="evenodd" clip-rule="evenodd" d="M30.0542 25.3363C30.0542 25.3363 30.0931 25.1645 30.3873 25.0925C30.6815 25.0205 30.7371 25.1203 30.7371 25.1203C30.7371 25.1203 30.3096 25.1645 30.0542 25.3363Z" fill="black"/>
<path fill-rule="evenodd" clip-rule="evenodd" d="M30.6226 25.3355C30.6226 25.3355 30.728 25.2358 30.8335 25.2746C30.9334 25.3134 30.9611 25.3909 30.9611 25.3909C30.9611 25.3909 30.7391 25.3188 30.6226 25.3355Z" fill="black"/>
<path fill-rule="evenodd" clip-rule="evenodd" d="M25.957 22.86C25.957 22.86 25.9847 22.5554 26.4122 22.4667C26.8397 22.3781 27.0896 22.6495 27.1784 22.7492C27.2672 22.8489 27.3338 23.0262 27.3504 23.1148C27.367 23.209 27.3838 23.2699 27.3838 23.2699C27.3838 23.2699 27.2616 22.9209 26.7842 22.9209C26.3067 22.9209 26.0125 23.4748 25.9626 23.5911C25.9125 23.7075 25.8015 23.9567 25.8015 23.9567C25.8015 23.9567 25.7238 23.4582 25.957 22.86Z" fill="black"/>
<path fill-rule="evenodd" clip-rule="evenodd" d="M23.1222 28.0818C23.1222 28.0818 23.1111 28.2314 23.0556 28.5803C23.0001 28.9293 22.9335 29.2339 23.0057 29.4998C23.0778 29.7656 22.8169 29.8487 22.7114 29.6936C22.6059 29.5386 22.667 29.1841 22.6892 29.0123C22.7169 28.8351 22.8335 28.3532 22.8668 28.2702C22.9002 28.187 22.9724 27.9212 23.1222 28.0818Z" fill="white"/>
<path fill-rule="evenodd" clip-rule="evenodd" d="M22.9483 25.8516L23.0594 27.8179L24.5361 26.5052L23.2203 27.973L25.1912 28.0838L23.2203 28.1946L24.5361 29.6623L23.0594 28.3496L22.9483 30.3215L22.8429 28.3496L21.3661 29.6623L22.6818 28.1946L20.7109 28.0838L22.6818 27.973L21.3661 26.5052L22.8429 27.8179L22.9483 25.8516Z" fill="white"/>
<path fill-rule="evenodd" clip-rule="evenodd" d="M29.2349 26.2695L29.3183 27.7485L30.423 26.7626L29.4348 27.8648L30.9171 27.9478L29.4348 28.031L30.423 29.1332L29.3183 28.1472L29.2349 29.6262L29.1517 28.1472L28.0468 29.1332L29.0351 28.031L27.5527 27.9478L29.0351 27.8648L28.0468 26.7626L29.1517 27.7485L29.2349 26.2695Z" fill="white"/>
<path fill-rule="evenodd" clip-rule="evenodd" d="M29.0648 38.5987L29.0703 38.7261C30.2252 38.6818 31.33 38.4326 32.3459 38.0172C32.4236 37.9839 32.5013 37.9507 32.5791 37.9174C31.8296 37.5353 31.18 36.8816 30.9524 35.796C30.2973 32.6611 31.2689 30.8276 31.5464 29.526C31.5687 29.4264 31.5853 29.3156 31.5964 29.1992C31.1634 29.67 30.6137 30.0301 30.0308 30.2904C29.8087 30.3901 29.5811 30.4787 29.3479 30.5452C29.2535 30.5728 29.1592 30.6006 29.0648 30.6172L28.8982 30.6504C28.704 30.8609 28.5041 31.0437 28.3265 31.1545C28.2488 31.1987 28.1766 31.2541 28.1044 31.3039C28.0155 31.3649 27.9267 31.4259 27.8379 31.4868C28.2542 31.7194 28.7539 32.1182 28.976 32.7552C28.9815 32.7718 28.9871 32.7884 28.9926 32.805C28.9926 32.8106 28.9982 32.8161 28.9982 32.8216C29.0038 32.8327 29.0038 32.8383 29.0092 32.8493C29.0092 32.8549 29.0148 32.866 29.0148 32.8715C29.0148 32.877 29.0204 32.8881 29.0204 32.8936C29.0204 32.9047 29.026 32.9102 29.0315 32.9214C29.0315 32.9269 29.0371 32.938 29.0371 32.9435C29.0371 32.949 29.0427 32.9546 29.0427 32.9601C29.0593 33.01 29.0759 33.0654 29.087 33.1208V33.1262C29.087 33.1262 29.087 33.1262 29.087 33.1318C29.0926 33.1484 29.0982 33.165 29.0982 33.1816V33.1872C29.1036 33.1984 29.1036 33.215 29.1092 33.226L29.1148 33.2537L29.1203 33.2703C29.1203 33.2814 29.1259 33.2924 29.1259 33.3036L29.137 33.3534L29.1425 33.3811L29.1481 33.4088V33.4143L29.1537 33.4475V33.4531V33.4697C29.1537 33.4752 29.1537 33.4808 29.1537 33.4863V33.4974V33.5029L29.1592 33.5361V33.5417C29.1647 33.5583 29.1647 33.5694 29.1703 33.586V33.5915V33.5971V33.6137C29.1758 33.6414 29.1814 33.6635 29.187 33.6913C29.187 33.6967 29.187 33.6967 29.187 33.7023L29.1926 33.7245L29.198 33.7633L29.2036 33.7799L29.2092 33.8075L29.2147 33.8409V33.8463L29.2203 33.8907V33.8962L29.2259 33.9461L29.2313 33.9959V34.007V34.0125L29.2369 34.0568V34.079L29.2425 34.1233V34.1344L29.2481 34.1676L29.2535 34.2008L29.2591 34.2506C29.2647 34.284 29.2647 34.3116 29.2702 34.3448V34.3504V34.367V34.3892C29.2702 34.4114 29.2758 34.439 29.2758 34.4612C29.2758 34.4668 29.2758 34.4778 29.2758 34.4834V34.4944L29.2814 34.5388C29.4257 35.9677 29.0148 37.1974 29.0648 38.5987Z" fill="#9E775C"/>
</svg>
