<svg width="288" height="288" xmlns="http://www.w3.org/2000/svg" version="1.1">
 <g>
  <title>Layer 1</title>
  <circle id="SvgjsCircle1011" r="144" cx="144" cy="144" fill="#0f7def" transform="matrix(0.98 0 0 0.98 2.88 2.88)"/>
  <g id="SvgjsG1008" transform="matrix(0.635814 0 0 0.598671 42.7326 46.5809)" y="-20.16808">
   <svg width="288" height="288" version="1" viewBox="0 0 192 158" id="svg_3" x="14.51933" y="-9.20643" xmlns="http://www.w3.org/2000/svg">
    <path d="m83.5,0.9c-4.5,1.2 -8.7,3.6 -11.6,6.8c-2.2,2.3 -63.7,108.1 -69.4,119.3c-2.5,4.8 -2.3,13.5 0.4,18.7c2.5,5 7.9,9.6 13,11.2c4.4,1.3 122.1,1.6 122.1,0.3c-0.1,-0.4 -4,-7.5 -8.8,-15.7l-8.8,-15l-39.8,-0.3c-37.3,-0.2 -39.8,-0.3 -39.1,-2c1.1,-2.9 46,-80.2 46.6,-80.2c0.3,0 15.3,25.6 33.5,57l32.9,56.9l18.7,0.1l18.7,0l-3.3,-5.7c-1.8,-3.2 -21,-36.4 -42.6,-73.8c-21.6,-37.4 -40.6,-69.4 -42.3,-71.2c-5.2,-5.5 -13.5,-8.1 -20.2,-6.4z" fill="#ffffff" class="color000 svgShape" id="svg_4"/>
   </svg>
  </g>
 </g>

</svg>