<svg width="121" height="121" viewBox="0 0 121 121" fill="none" xmlns="http://www.w3.org/2000/svg">
<path d="M68.7707 120.433C97.617 120.433 121 97.093 121 68.301C121 68.2143 121 68.1277 121 68.0411H68.6417V120.433H68.7707Z" fill="#FF501A"/>
<path d="M53.2241 120.433C24.3778 120.433 0.994812 97.093 0.994812 68.301C0.994812 68.2143 0.994812 68.1277 0.994812 68.0411H53.3531V120.433H53.2241Z" fill="#09D6B9"/>
<path d="M1.12382 0.939423C29.9701 0.939423 53.3531 24.2795 53.3531 53.0715C53.3531 53.1581 53.3531 53.2448 53.3531 53.3314H0.994812V0.939423H1.12382Z" fill="#FFB917"/>
<path d="M120.871 0.939423C92.0247 0.939423 68.6417 24.2795 68.6417 53.0715C68.6417 53.1581 68.6417 53.2448 68.6417 53.3314H121V0.939423H120.871Z" fill="#8D45FF"/>
</svg>
